G04 EAGLE Gerber RS-274X export*
G75*
%MOMM*%
%FSLAX34Y34*%
%LPD*%
%INBottom Copper*%
%IPPOS*%
%AMOC8*
5,1,8,0,0,1.08239X$1,22.5*%
G01*
%ADD10C,2.032000*%
%ADD11C,1.879600*%
%ADD12C,1.524000*%
%ADD13C,1.676400*%
%ADD14C,1.650000*%
%ADD15C,0.508000*%

G36*
X707000Y434864D02*
X707000Y434864D01*
X707119Y434871D01*
X707157Y434884D01*
X707198Y434889D01*
X707308Y434932D01*
X707421Y434969D01*
X707456Y434991D01*
X707493Y435006D01*
X707589Y435075D01*
X707690Y435139D01*
X707718Y435169D01*
X707751Y435192D01*
X707827Y435284D01*
X707908Y435371D01*
X707928Y435406D01*
X707953Y435437D01*
X708004Y435545D01*
X708062Y435649D01*
X708072Y435689D01*
X708089Y435725D01*
X708111Y435842D01*
X708141Y435957D01*
X708145Y436017D01*
X708149Y436037D01*
X708147Y436058D01*
X708151Y436118D01*
X708151Y808482D01*
X708136Y808600D01*
X708129Y808719D01*
X708116Y808757D01*
X708111Y808798D01*
X708068Y808908D01*
X708031Y809021D01*
X708009Y809056D01*
X707994Y809093D01*
X707925Y809189D01*
X707861Y809290D01*
X707831Y809318D01*
X707808Y809351D01*
X707716Y809427D01*
X707629Y809508D01*
X707594Y809528D01*
X707563Y809553D01*
X707455Y809604D01*
X707351Y809662D01*
X707311Y809672D01*
X707275Y809689D01*
X707158Y809711D01*
X707043Y809741D01*
X706983Y809745D01*
X706963Y809749D01*
X706942Y809747D01*
X706882Y809751D01*
X207518Y809751D01*
X207400Y809736D01*
X207281Y809729D01*
X207243Y809716D01*
X207202Y809711D01*
X207092Y809668D01*
X206979Y809631D01*
X206944Y809609D01*
X206907Y809594D01*
X206811Y809525D01*
X206710Y809461D01*
X206682Y809431D01*
X206649Y809408D01*
X206573Y809316D01*
X206492Y809229D01*
X206472Y809194D01*
X206447Y809163D01*
X206396Y809055D01*
X206338Y808951D01*
X206328Y808911D01*
X206311Y808875D01*
X206289Y808758D01*
X206259Y808643D01*
X206255Y808583D01*
X206251Y808563D01*
X206253Y808542D01*
X206249Y808482D01*
X206249Y436118D01*
X206264Y436000D01*
X206271Y435881D01*
X206284Y435843D01*
X206289Y435802D01*
X206332Y435692D01*
X206369Y435579D01*
X206391Y435544D01*
X206406Y435507D01*
X206475Y435411D01*
X206539Y435310D01*
X206569Y435282D01*
X206592Y435249D01*
X206684Y435173D01*
X206771Y435092D01*
X206806Y435072D01*
X206837Y435047D01*
X206945Y434996D01*
X207049Y434938D01*
X207089Y434928D01*
X207125Y434911D01*
X207242Y434889D01*
X207357Y434859D01*
X207417Y434855D01*
X207437Y434851D01*
X207458Y434853D01*
X207518Y434849D01*
X706882Y434849D01*
X707000Y434864D01*
G37*
%LPC*%
G36*
X480059Y532129D02*
X480059Y532129D01*
X480059Y533400D01*
X480044Y533518D01*
X480037Y533637D01*
X480024Y533675D01*
X480019Y533715D01*
X479975Y533826D01*
X479939Y533939D01*
X479917Y533974D01*
X479902Y534011D01*
X479832Y534107D01*
X479769Y534208D01*
X479739Y534236D01*
X479715Y534269D01*
X479624Y534344D01*
X479537Y534426D01*
X479502Y534446D01*
X479470Y534471D01*
X479363Y534522D01*
X479258Y534580D01*
X479219Y534590D01*
X479183Y534607D01*
X479066Y534629D01*
X478951Y534659D01*
X478890Y534663D01*
X478870Y534667D01*
X478850Y534665D01*
X478790Y534669D01*
X467603Y534669D01*
X467672Y535104D01*
X468290Y537005D01*
X469197Y538787D01*
X470372Y540404D01*
X471786Y541818D01*
X473403Y542993D01*
X475185Y543900D01*
X477178Y544548D01*
X477206Y544561D01*
X477235Y544568D01*
X477349Y544628D01*
X477466Y544683D01*
X477489Y544702D01*
X477516Y544716D01*
X477612Y544804D01*
X477711Y544886D01*
X477729Y544910D01*
X477751Y544930D01*
X477822Y545038D01*
X477898Y545143D01*
X477909Y545171D01*
X477926Y545196D01*
X477968Y545318D01*
X478016Y545439D01*
X478019Y545469D01*
X478029Y545497D01*
X478039Y545626D01*
X478056Y545754D01*
X478052Y545784D01*
X478054Y545814D01*
X478032Y545942D01*
X478016Y546070D01*
X478005Y546098D01*
X478000Y546127D01*
X477947Y546245D01*
X477899Y546366D01*
X477881Y546390D01*
X477869Y546417D01*
X477788Y546518D01*
X477712Y546623D01*
X477689Y546642D01*
X477671Y546666D01*
X477567Y546744D01*
X477467Y546826D01*
X477440Y546839D01*
X477417Y546857D01*
X477272Y546928D01*
X472578Y548872D01*
X468862Y552588D01*
X468402Y553698D01*
X468388Y553723D01*
X468379Y553751D01*
X468309Y553861D01*
X468245Y553974D01*
X468224Y553995D01*
X468209Y554020D01*
X468114Y554109D01*
X468024Y554202D01*
X467998Y554218D01*
X467977Y554238D01*
X467863Y554301D01*
X467752Y554369D01*
X467724Y554377D01*
X467698Y554392D01*
X467573Y554424D01*
X467449Y554462D01*
X467419Y554464D01*
X467390Y554471D01*
X467230Y554481D01*
X461142Y554481D01*
X461093Y554475D01*
X461044Y554477D01*
X460936Y554455D01*
X460827Y554441D01*
X460781Y554423D01*
X460732Y554413D01*
X460633Y554365D01*
X460531Y554324D01*
X460491Y554295D01*
X460446Y554273D01*
X460363Y554202D01*
X460274Y554138D01*
X460242Y554099D01*
X460204Y554067D01*
X460141Y553977D01*
X460071Y553893D01*
X460050Y553848D01*
X460021Y553807D01*
X459982Y553704D01*
X459936Y553605D01*
X459926Y553556D01*
X459909Y553510D01*
X459896Y553400D01*
X459876Y553293D01*
X459879Y553243D01*
X459873Y553194D01*
X459889Y553085D01*
X459896Y552975D01*
X459911Y552928D01*
X459918Y552879D01*
X459970Y552726D01*
X461773Y548374D01*
X461773Y543826D01*
X460033Y539625D01*
X456817Y536409D01*
X452616Y534669D01*
X431304Y534669D01*
X427103Y536409D01*
X423888Y539625D01*
X423845Y539728D01*
X423830Y539753D01*
X423821Y539781D01*
X423752Y539891D01*
X423687Y540004D01*
X423667Y540025D01*
X423651Y540050D01*
X423556Y540139D01*
X423466Y540232D01*
X423441Y540248D01*
X423419Y540268D01*
X423306Y540331D01*
X423195Y540399D01*
X423167Y540407D01*
X423141Y540422D01*
X423015Y540454D01*
X422891Y540492D01*
X422862Y540494D01*
X422833Y540501D01*
X422672Y540511D01*
X252888Y540511D01*
X250834Y541362D01*
X223862Y568334D01*
X223011Y570388D01*
X223011Y737712D01*
X223862Y739766D01*
X225613Y741516D01*
X244738Y760642D01*
X246792Y761493D01*
X261037Y761493D01*
X261056Y761495D01*
X261076Y761493D01*
X261214Y761515D01*
X261352Y761533D01*
X261371Y761540D01*
X261390Y761543D01*
X261518Y761598D01*
X261648Y761650D01*
X261664Y761661D01*
X261682Y761669D01*
X261792Y761755D01*
X261905Y761836D01*
X261918Y761852D01*
X261934Y761864D01*
X262019Y761974D01*
X262108Y762081D01*
X262116Y762099D01*
X262129Y762115D01*
X262184Y762243D01*
X262244Y762369D01*
X262247Y762389D01*
X262255Y762407D01*
X262277Y762545D01*
X262303Y762681D01*
X262302Y762701D01*
X262305Y762721D01*
X262292Y762860D01*
X262284Y762999D01*
X262277Y763018D01*
X262276Y763038D01*
X262228Y763169D01*
X262186Y763301D01*
X262175Y763318D01*
X262168Y763337D01*
X262090Y763452D01*
X262015Y763570D01*
X262001Y763584D01*
X261990Y763600D01*
X261885Y763692D01*
X261784Y763788D01*
X261766Y763798D01*
X261751Y763811D01*
X261613Y763893D01*
X260443Y764489D01*
X258922Y765594D01*
X257594Y766922D01*
X256489Y768443D01*
X255636Y770117D01*
X255055Y771904D01*
X255015Y772161D01*
X265430Y772161D01*
X265548Y772176D01*
X265667Y772183D01*
X265705Y772196D01*
X265745Y772201D01*
X265856Y772244D01*
X265969Y772281D01*
X266003Y772303D01*
X266041Y772318D01*
X266137Y772388D01*
X266238Y772451D01*
X266266Y772481D01*
X266298Y772504D01*
X266374Y772596D01*
X266456Y772683D01*
X266475Y772718D01*
X266501Y772749D01*
X266552Y772857D01*
X266609Y772961D01*
X266620Y773001D01*
X266637Y773037D01*
X266659Y773154D01*
X266689Y773269D01*
X266693Y773330D01*
X266697Y773350D01*
X266695Y773370D01*
X266699Y773430D01*
X266699Y774701D01*
X267970Y774701D01*
X268088Y774716D01*
X268207Y774723D01*
X268245Y774736D01*
X268285Y774741D01*
X268396Y774785D01*
X268509Y774821D01*
X268544Y774843D01*
X268581Y774858D01*
X268677Y774928D01*
X268778Y774991D01*
X268806Y775021D01*
X268839Y775045D01*
X268914Y775136D01*
X268996Y775223D01*
X269016Y775258D01*
X269041Y775290D01*
X269092Y775397D01*
X269150Y775502D01*
X269160Y775541D01*
X269177Y775577D01*
X269199Y775694D01*
X269229Y775809D01*
X269233Y775870D01*
X269237Y775890D01*
X269235Y775910D01*
X269239Y775970D01*
X269239Y786385D01*
X269496Y786345D01*
X271283Y785764D01*
X272957Y784911D01*
X274478Y783806D01*
X275806Y782478D01*
X276911Y780957D01*
X277764Y779283D01*
X277915Y778818D01*
X277928Y778791D01*
X277935Y778762D01*
X277995Y778647D01*
X278050Y778530D01*
X278069Y778507D01*
X278083Y778481D01*
X278171Y778385D01*
X278253Y778285D01*
X278277Y778268D01*
X278297Y778246D01*
X278406Y778174D01*
X278510Y778098D01*
X278538Y778087D01*
X278563Y778071D01*
X278686Y778029D01*
X278806Y777981D01*
X278836Y777977D01*
X278864Y777968D01*
X278993Y777957D01*
X279121Y777941D01*
X279151Y777945D01*
X279181Y777942D01*
X279309Y777965D01*
X279437Y777981D01*
X279465Y777992D01*
X279494Y777997D01*
X279612Y778050D01*
X279733Y778098D01*
X279757Y778115D01*
X279784Y778127D01*
X279885Y778208D01*
X279990Y778284D01*
X280009Y778307D01*
X280033Y778326D01*
X280110Y778429D01*
X280193Y778529D01*
X280206Y778556D01*
X280224Y778580D01*
X280295Y778725D01*
X281548Y781750D01*
X285050Y785252D01*
X289624Y787147D01*
X294576Y787147D01*
X295254Y786866D01*
X295283Y786858D01*
X295309Y786845D01*
X295436Y786816D01*
X295561Y786782D01*
X295590Y786781D01*
X295619Y786775D01*
X295749Y786779D01*
X295879Y786777D01*
X295908Y786784D01*
X295937Y786785D01*
X296062Y786821D01*
X296188Y786851D01*
X296214Y786865D01*
X296243Y786873D01*
X296354Y786939D01*
X296469Y787000D01*
X296491Y787019D01*
X296516Y787035D01*
X296637Y787141D01*
X314334Y804838D01*
X316388Y805689D01*
X614098Y805689D01*
X616152Y804838D01*
X627038Y793952D01*
X627889Y791898D01*
X627889Y786705D01*
X627892Y786676D01*
X627890Y786647D01*
X627912Y786519D01*
X627929Y786390D01*
X627939Y786362D01*
X627944Y786333D01*
X627998Y786215D01*
X628046Y786094D01*
X628063Y786070D01*
X628075Y786043D01*
X628156Y785942D01*
X628232Y785837D01*
X628255Y785818D01*
X628274Y785795D01*
X628377Y785717D01*
X628477Y785634D01*
X628504Y785621D01*
X628528Y785604D01*
X628672Y785533D01*
X629351Y785252D01*
X632852Y781750D01*
X633827Y779395D01*
X633896Y779275D01*
X633961Y779152D01*
X633975Y779137D01*
X633985Y779119D01*
X634082Y779019D01*
X634175Y778916D01*
X634192Y778905D01*
X634206Y778891D01*
X634325Y778818D01*
X634441Y778742D01*
X634460Y778735D01*
X634477Y778724D01*
X634610Y778683D01*
X634742Y778638D01*
X634762Y778637D01*
X634781Y778631D01*
X634920Y778624D01*
X635059Y778613D01*
X635079Y778617D01*
X635099Y778616D01*
X635235Y778644D01*
X635372Y778668D01*
X635391Y778676D01*
X635410Y778680D01*
X635536Y778741D01*
X635662Y778798D01*
X635678Y778811D01*
X635696Y778820D01*
X635802Y778910D01*
X635910Y778997D01*
X635923Y779013D01*
X635938Y779026D01*
X636018Y779140D01*
X636102Y779251D01*
X636114Y779276D01*
X636121Y779286D01*
X636128Y779305D01*
X636173Y779395D01*
X637148Y781751D01*
X640650Y785252D01*
X645224Y787147D01*
X650176Y787147D01*
X654750Y785252D01*
X658252Y781750D01*
X660147Y777176D01*
X660147Y772224D01*
X658252Y767650D01*
X654750Y764148D01*
X650176Y762253D01*
X645224Y762253D01*
X644546Y762534D01*
X644517Y762542D01*
X644491Y762555D01*
X644364Y762584D01*
X644239Y762618D01*
X644210Y762619D01*
X644181Y762625D01*
X644051Y762621D01*
X643921Y762623D01*
X643892Y762616D01*
X643863Y762615D01*
X643738Y762579D01*
X643612Y762549D01*
X643586Y762535D01*
X643557Y762527D01*
X643446Y762461D01*
X643331Y762400D01*
X643309Y762380D01*
X643284Y762365D01*
X643163Y762259D01*
X632296Y751393D01*
X630546Y749642D01*
X628492Y748791D01*
X614427Y748791D01*
X614358Y748783D01*
X614288Y748784D01*
X614201Y748763D01*
X614112Y748751D01*
X614047Y748726D01*
X613979Y748709D01*
X613900Y748667D01*
X613816Y748634D01*
X613760Y748593D01*
X613698Y748561D01*
X613631Y748500D01*
X613559Y748448D01*
X613514Y748394D01*
X613463Y748347D01*
X613413Y748272D01*
X613356Y748203D01*
X613326Y748139D01*
X613288Y748081D01*
X613259Y747996D01*
X613220Y747915D01*
X613207Y747846D01*
X613185Y747780D01*
X613178Y747691D01*
X613161Y747603D01*
X613165Y747533D01*
X613159Y747463D01*
X613175Y747375D01*
X613180Y747285D01*
X613202Y747219D01*
X613214Y747150D01*
X613251Y747068D01*
X613278Y746983D01*
X613316Y746924D01*
X613344Y746860D01*
X613401Y746790D01*
X613449Y746714D01*
X613499Y746666D01*
X613543Y746612D01*
X613615Y746557D01*
X613680Y746496D01*
X613741Y746462D01*
X613797Y746420D01*
X613942Y746349D01*
X615643Y745645D01*
X618645Y742643D01*
X620269Y738722D01*
X620269Y734478D01*
X618645Y730557D01*
X615643Y727555D01*
X611722Y725931D01*
X607478Y725931D01*
X603557Y727555D01*
X600555Y730557D01*
X598931Y734478D01*
X598931Y738722D01*
X600555Y742643D01*
X603557Y745645D01*
X605258Y746349D01*
X605319Y746384D01*
X605384Y746410D01*
X605457Y746462D01*
X605535Y746507D01*
X605585Y746555D01*
X605641Y746596D01*
X605699Y746666D01*
X605763Y746728D01*
X605799Y746788D01*
X605844Y746841D01*
X605882Y746923D01*
X605929Y746999D01*
X605950Y747066D01*
X605980Y747129D01*
X605996Y747217D01*
X606023Y747303D01*
X606026Y747373D01*
X606039Y747442D01*
X606034Y747531D01*
X606038Y747621D01*
X606024Y747689D01*
X606020Y747759D01*
X605992Y747844D01*
X605974Y747932D01*
X605943Y747995D01*
X605922Y748061D01*
X605874Y748137D01*
X605834Y748218D01*
X605789Y748271D01*
X605751Y748330D01*
X605686Y748392D01*
X605628Y748460D01*
X605571Y748500D01*
X605520Y748548D01*
X605441Y748591D01*
X605368Y748643D01*
X605302Y748668D01*
X605241Y748702D01*
X605154Y748724D01*
X605070Y748756D01*
X605001Y748764D01*
X604933Y748781D01*
X604773Y748791D01*
X589027Y748791D01*
X588958Y748783D01*
X588888Y748784D01*
X588801Y748763D01*
X588712Y748751D01*
X588647Y748726D01*
X588579Y748709D01*
X588500Y748667D01*
X588416Y748634D01*
X588360Y748593D01*
X588298Y748561D01*
X588231Y748500D01*
X588159Y748448D01*
X588114Y748394D01*
X588063Y748347D01*
X588013Y748272D01*
X587956Y748203D01*
X587926Y748139D01*
X587888Y748081D01*
X587859Y747996D01*
X587820Y747915D01*
X587807Y747846D01*
X587785Y747780D01*
X587778Y747691D01*
X587761Y747603D01*
X587765Y747533D01*
X587759Y747463D01*
X587775Y747375D01*
X587780Y747285D01*
X587802Y747219D01*
X587814Y747150D01*
X587851Y747068D01*
X587878Y746983D01*
X587916Y746924D01*
X587944Y746860D01*
X588001Y746790D01*
X588049Y746714D01*
X588099Y746666D01*
X588143Y746612D01*
X588215Y746557D01*
X588280Y746496D01*
X588341Y746462D01*
X588397Y746420D01*
X588542Y746349D01*
X590243Y745645D01*
X593245Y742643D01*
X594869Y738722D01*
X594869Y734478D01*
X593245Y730557D01*
X590243Y727555D01*
X586322Y725931D01*
X582078Y725931D01*
X578157Y727555D01*
X575155Y730557D01*
X573531Y734478D01*
X573531Y738722D01*
X575155Y742643D01*
X578157Y745645D01*
X579858Y746349D01*
X579919Y746384D01*
X579984Y746410D01*
X580057Y746462D01*
X580135Y746507D01*
X580185Y746555D01*
X580241Y746596D01*
X580299Y746666D01*
X580363Y746728D01*
X580399Y746788D01*
X580444Y746841D01*
X580482Y746923D01*
X580529Y746999D01*
X580550Y747066D01*
X580580Y747129D01*
X580596Y747217D01*
X580623Y747303D01*
X580626Y747373D01*
X580639Y747442D01*
X580634Y747531D01*
X580638Y747621D01*
X580624Y747689D01*
X580620Y747759D01*
X580592Y747844D01*
X580574Y747932D01*
X580543Y747995D01*
X580522Y748061D01*
X580474Y748137D01*
X580434Y748218D01*
X580389Y748271D01*
X580351Y748330D01*
X580286Y748392D01*
X580228Y748460D01*
X580171Y748500D01*
X580120Y748548D01*
X580041Y748591D01*
X579968Y748643D01*
X579902Y748668D01*
X579841Y748702D01*
X579754Y748724D01*
X579670Y748756D01*
X579601Y748764D01*
X579533Y748781D01*
X579373Y748791D01*
X562174Y748791D01*
X562055Y748776D01*
X561936Y748769D01*
X561898Y748756D01*
X561858Y748751D01*
X561747Y748707D01*
X561634Y748671D01*
X561600Y748649D01*
X561562Y748634D01*
X561466Y748564D01*
X561365Y748500D01*
X561338Y748471D01*
X561305Y748448D01*
X561229Y748355D01*
X561147Y748269D01*
X561128Y748233D01*
X561102Y748203D01*
X561051Y748095D01*
X560994Y747990D01*
X560984Y747951D01*
X560967Y747915D01*
X560944Y747798D01*
X560914Y747682D01*
X560914Y747642D01*
X560907Y747603D01*
X560914Y747483D01*
X560914Y747364D01*
X560924Y747325D01*
X560927Y747285D01*
X560963Y747172D01*
X560993Y747056D01*
X561012Y747021D01*
X561025Y746983D01*
X561088Y746882D01*
X561146Y746777D01*
X561173Y746748D01*
X561195Y746714D01*
X561282Y746632D01*
X561363Y746545D01*
X561397Y746523D01*
X561426Y746496D01*
X561531Y746438D01*
X561632Y746374D01*
X561687Y746352D01*
X561705Y746342D01*
X561725Y746337D01*
X561781Y746315D01*
X562700Y746016D01*
X564125Y745290D01*
X565419Y744350D01*
X566550Y743219D01*
X567490Y741925D01*
X568216Y740500D01*
X568659Y739139D01*
X560070Y739139D01*
X559952Y739124D01*
X559833Y739117D01*
X559795Y739104D01*
X559755Y739099D01*
X559644Y739056D01*
X559531Y739019D01*
X559497Y738997D01*
X559459Y738982D01*
X559363Y738912D01*
X559262Y738849D01*
X559234Y738819D01*
X559202Y738795D01*
X559126Y738704D01*
X559044Y738617D01*
X559025Y738582D01*
X558999Y738551D01*
X558948Y738443D01*
X558891Y738339D01*
X558880Y738299D01*
X558863Y738263D01*
X558841Y738146D01*
X558811Y738031D01*
X558807Y737970D01*
X558803Y737950D01*
X558805Y737930D01*
X558801Y737870D01*
X558801Y736599D01*
X558799Y736599D01*
X558799Y737870D01*
X558784Y737988D01*
X558777Y738107D01*
X558764Y738145D01*
X558759Y738185D01*
X558715Y738296D01*
X558679Y738409D01*
X558657Y738444D01*
X558642Y738481D01*
X558572Y738577D01*
X558509Y738678D01*
X558479Y738706D01*
X558455Y738739D01*
X558364Y738814D01*
X558277Y738896D01*
X558242Y738916D01*
X558210Y738941D01*
X558103Y738992D01*
X557998Y739050D01*
X557959Y739060D01*
X557923Y739077D01*
X557806Y739099D01*
X557691Y739129D01*
X557630Y739133D01*
X557610Y739137D01*
X557590Y739135D01*
X557530Y739139D01*
X548941Y739139D01*
X549384Y740500D01*
X550110Y741925D01*
X551050Y743219D01*
X552181Y744350D01*
X553475Y745290D01*
X554900Y746016D01*
X555819Y746315D01*
X555927Y746366D01*
X556038Y746410D01*
X556070Y746433D01*
X556106Y746450D01*
X556198Y746526D01*
X556295Y746596D01*
X556321Y746627D01*
X556351Y746653D01*
X556422Y746749D01*
X556498Y746841D01*
X556515Y746878D01*
X556538Y746910D01*
X556582Y747021D01*
X556633Y747129D01*
X556641Y747168D01*
X556656Y747206D01*
X556671Y747324D01*
X556693Y747442D01*
X556691Y747481D01*
X556696Y747521D01*
X556681Y747640D01*
X556673Y747759D01*
X556661Y747797D01*
X556656Y747837D01*
X556612Y747948D01*
X556575Y748061D01*
X556554Y748095D01*
X556539Y748133D01*
X556469Y748229D01*
X556405Y748330D01*
X556376Y748358D01*
X556352Y748390D01*
X556260Y748466D01*
X556174Y748548D01*
X556138Y748567D01*
X556108Y748593D01*
X556000Y748644D01*
X555895Y748702D01*
X555856Y748712D01*
X555820Y748729D01*
X555703Y748751D01*
X555587Y748781D01*
X555528Y748785D01*
X555508Y748789D01*
X555487Y748787D01*
X555426Y748791D01*
X538227Y748791D01*
X538158Y748783D01*
X538088Y748784D01*
X538001Y748763D01*
X537912Y748751D01*
X537847Y748726D01*
X537779Y748709D01*
X537700Y748667D01*
X537616Y748634D01*
X537560Y748593D01*
X537498Y748561D01*
X537431Y748500D01*
X537359Y748448D01*
X537314Y748394D01*
X537263Y748347D01*
X537213Y748272D01*
X537156Y748203D01*
X537126Y748139D01*
X537088Y748081D01*
X537059Y747996D01*
X537020Y747915D01*
X537007Y747846D01*
X536985Y747780D01*
X536978Y747691D01*
X536961Y747603D01*
X536965Y747533D01*
X536959Y747463D01*
X536975Y747375D01*
X536980Y747285D01*
X537002Y747219D01*
X537014Y747150D01*
X537051Y747068D01*
X537078Y746983D01*
X537116Y746924D01*
X537144Y746860D01*
X537201Y746790D01*
X537249Y746714D01*
X537299Y746666D01*
X537343Y746612D01*
X537415Y746557D01*
X537480Y746496D01*
X537541Y746462D01*
X537597Y746420D01*
X537742Y746349D01*
X539443Y745645D01*
X542445Y742643D01*
X544069Y738722D01*
X544069Y734478D01*
X542445Y730557D01*
X539443Y727555D01*
X535522Y725931D01*
X531278Y725931D01*
X527357Y727555D01*
X524355Y730557D01*
X522731Y734478D01*
X522731Y738722D01*
X524355Y742643D01*
X527357Y745645D01*
X529058Y746349D01*
X529119Y746384D01*
X529184Y746410D01*
X529257Y746462D01*
X529335Y746507D01*
X529385Y746555D01*
X529441Y746596D01*
X529499Y746666D01*
X529563Y746728D01*
X529599Y746788D01*
X529644Y746841D01*
X529682Y746923D01*
X529729Y746999D01*
X529750Y747066D01*
X529780Y747129D01*
X529796Y747217D01*
X529823Y747303D01*
X529826Y747373D01*
X529839Y747442D01*
X529834Y747531D01*
X529838Y747621D01*
X529824Y747689D01*
X529820Y747759D01*
X529792Y747844D01*
X529774Y747932D01*
X529743Y747995D01*
X529722Y748061D01*
X529674Y748137D01*
X529634Y748218D01*
X529589Y748271D01*
X529551Y748330D01*
X529486Y748392D01*
X529428Y748460D01*
X529371Y748500D01*
X529320Y748548D01*
X529241Y748591D01*
X529168Y748643D01*
X529102Y748668D01*
X529041Y748702D01*
X528954Y748724D01*
X528870Y748756D01*
X528801Y748764D01*
X528733Y748781D01*
X528573Y748791D01*
X524811Y748791D01*
X524712Y748779D01*
X524613Y748776D01*
X524555Y748759D01*
X524495Y748751D01*
X524403Y748715D01*
X524308Y748687D01*
X524256Y748657D01*
X524199Y748634D01*
X524119Y748576D01*
X524034Y748526D01*
X523959Y748460D01*
X523942Y748448D01*
X523934Y748438D01*
X523913Y748420D01*
X517964Y742471D01*
X517946Y742447D01*
X517924Y742428D01*
X517849Y742322D01*
X517769Y742219D01*
X517757Y742192D01*
X517741Y742168D01*
X517695Y742047D01*
X517643Y741927D01*
X517638Y741898D01*
X517628Y741871D01*
X517613Y741742D01*
X517593Y741613D01*
X517596Y741584D01*
X517593Y741555D01*
X517611Y741426D01*
X517623Y741297D01*
X517633Y741269D01*
X517637Y741240D01*
X517689Y741087D01*
X518669Y738722D01*
X518669Y734478D01*
X517045Y730557D01*
X514043Y727555D01*
X510122Y725931D01*
X505878Y725931D01*
X501957Y727555D01*
X498955Y730557D01*
X497331Y734478D01*
X497331Y738722D01*
X498217Y740860D01*
X498235Y740927D01*
X498263Y740991D01*
X498277Y741080D01*
X498301Y741166D01*
X498302Y741236D01*
X498313Y741305D01*
X498304Y741395D01*
X498306Y741484D01*
X498289Y741552D01*
X498283Y741622D01*
X498252Y741706D01*
X498232Y741794D01*
X498199Y741855D01*
X498175Y741921D01*
X498125Y741995D01*
X498083Y742075D01*
X498036Y742126D01*
X497997Y742184D01*
X497929Y742244D01*
X497869Y742310D01*
X497811Y742348D01*
X497758Y742395D01*
X497678Y742436D01*
X497603Y742485D01*
X497537Y742508D01*
X497475Y742539D01*
X497387Y742559D01*
X497302Y742588D01*
X497233Y742594D01*
X497165Y742609D01*
X497075Y742606D01*
X496985Y742613D01*
X496917Y742601D01*
X496847Y742599D01*
X496761Y742574D01*
X496672Y742559D01*
X496608Y742530D01*
X496541Y742511D01*
X496464Y742465D01*
X496382Y742428D01*
X496328Y742385D01*
X496267Y742349D01*
X496147Y742243D01*
X493640Y739737D01*
X493580Y739659D01*
X493512Y739586D01*
X493483Y739533D01*
X493446Y739486D01*
X493406Y739395D01*
X493358Y739308D01*
X493343Y739249D01*
X493319Y739194D01*
X493304Y739096D01*
X493279Y739000D01*
X493273Y738900D01*
X493269Y738880D01*
X493271Y738867D01*
X493269Y738839D01*
X493269Y734478D01*
X491645Y730557D01*
X488560Y727473D01*
X488500Y727394D01*
X488432Y727322D01*
X488403Y727269D01*
X488366Y727221D01*
X488326Y727130D01*
X488278Y727044D01*
X488263Y726985D01*
X488239Y726929D01*
X488224Y726832D01*
X488199Y726736D01*
X488193Y726636D01*
X488189Y726615D01*
X488191Y726603D01*
X488189Y726575D01*
X488189Y688641D01*
X488201Y688542D01*
X488204Y688443D01*
X488221Y688385D01*
X488229Y688325D01*
X488265Y688233D01*
X488293Y688138D01*
X488323Y688086D01*
X488346Y688029D01*
X488404Y687949D01*
X488454Y687864D01*
X488520Y687789D01*
X488532Y687772D01*
X488542Y687764D01*
X488560Y687743D01*
X563538Y612766D01*
X564389Y610712D01*
X564389Y594225D01*
X564401Y594127D01*
X564404Y594028D01*
X564421Y593969D01*
X564429Y593909D01*
X564465Y593817D01*
X564493Y593722D01*
X564523Y593670D01*
X564546Y593614D01*
X564604Y593534D01*
X564654Y593448D01*
X564720Y593373D01*
X564732Y593356D01*
X564742Y593349D01*
X564760Y593327D01*
X567845Y590243D01*
X569469Y586322D01*
X569469Y582078D01*
X567845Y578157D01*
X564843Y575155D01*
X560922Y573531D01*
X556678Y573531D01*
X552757Y575155D01*
X549755Y578157D01*
X548131Y582078D01*
X548131Y586322D01*
X549755Y590243D01*
X552840Y593327D01*
X552900Y593406D01*
X552968Y593478D01*
X552997Y593531D01*
X553034Y593579D01*
X553074Y593670D01*
X553122Y593756D01*
X553137Y593815D01*
X553161Y593871D01*
X553176Y593968D01*
X553201Y594064D01*
X553207Y594164D01*
X553211Y594185D01*
X553209Y594197D01*
X553211Y594225D01*
X553211Y606759D01*
X553199Y606858D01*
X553196Y606957D01*
X553179Y607015D01*
X553171Y607075D01*
X553135Y607167D01*
X553107Y607262D01*
X553077Y607314D01*
X553054Y607371D01*
X552996Y607451D01*
X552946Y607536D01*
X552880Y607611D01*
X552868Y607628D01*
X552858Y607636D01*
X552840Y607657D01*
X477862Y682634D01*
X477011Y684688D01*
X477011Y726575D01*
X476999Y726673D01*
X476996Y726772D01*
X476979Y726831D01*
X476971Y726891D01*
X476935Y726983D01*
X476907Y727078D01*
X476877Y727130D01*
X476854Y727186D01*
X476796Y727266D01*
X476746Y727352D01*
X476680Y727427D01*
X476668Y727444D01*
X476658Y727451D01*
X476640Y727473D01*
X473555Y730557D01*
X471931Y734478D01*
X471931Y738722D01*
X473555Y742643D01*
X476557Y745645D01*
X480478Y747269D01*
X484839Y747269D01*
X484938Y747281D01*
X485037Y747284D01*
X485095Y747301D01*
X485155Y747309D01*
X485247Y747345D01*
X485342Y747373D01*
X485394Y747403D01*
X485451Y747426D01*
X485531Y747484D01*
X485616Y747534D01*
X485691Y747600D01*
X485708Y747612D01*
X485716Y747622D01*
X485737Y747640D01*
X489340Y751243D01*
X489400Y751321D01*
X489468Y751394D01*
X489497Y751447D01*
X489534Y751494D01*
X489574Y751585D01*
X489622Y751672D01*
X489637Y751731D01*
X489661Y751786D01*
X489676Y751884D01*
X489701Y751980D01*
X489707Y752071D01*
X489709Y752081D01*
X489708Y752086D01*
X489711Y752100D01*
X489709Y752113D01*
X489711Y752141D01*
X489711Y762695D01*
X489708Y762724D01*
X489710Y762753D01*
X489688Y762881D01*
X489671Y763010D01*
X489661Y763038D01*
X489656Y763067D01*
X489602Y763185D01*
X489554Y763306D01*
X489537Y763330D01*
X489525Y763357D01*
X489444Y763458D01*
X489368Y763563D01*
X489345Y763582D01*
X489326Y763605D01*
X489223Y763683D01*
X489123Y763766D01*
X489096Y763779D01*
X489072Y763796D01*
X488928Y763867D01*
X488250Y764148D01*
X484748Y767650D01*
X483773Y770005D01*
X483704Y770125D01*
X483639Y770248D01*
X483625Y770263D01*
X483615Y770281D01*
X483518Y770381D01*
X483425Y770484D01*
X483408Y770495D01*
X483394Y770509D01*
X483275Y770582D01*
X483159Y770658D01*
X483140Y770665D01*
X483123Y770676D01*
X482990Y770716D01*
X482858Y770762D01*
X482838Y770763D01*
X482819Y770769D01*
X482680Y770776D01*
X482541Y770787D01*
X482521Y770783D01*
X482501Y770784D01*
X482365Y770756D01*
X482228Y770732D01*
X482209Y770724D01*
X482190Y770720D01*
X482064Y770659D01*
X481938Y770602D01*
X481922Y770589D01*
X481904Y770580D01*
X481798Y770490D01*
X481690Y770403D01*
X481677Y770387D01*
X481662Y770374D01*
X481582Y770260D01*
X481498Y770149D01*
X481486Y770124D01*
X481479Y770114D01*
X481472Y770095D01*
X481427Y770005D01*
X480452Y767650D01*
X476950Y764148D01*
X472376Y762253D01*
X467424Y762253D01*
X466746Y762534D01*
X466718Y762542D01*
X466691Y762555D01*
X466564Y762584D01*
X466439Y762618D01*
X466410Y762619D01*
X466381Y762625D01*
X466251Y762621D01*
X466121Y762623D01*
X466092Y762616D01*
X466063Y762615D01*
X465938Y762579D01*
X465812Y762549D01*
X465786Y762535D01*
X465757Y762527D01*
X465646Y762461D01*
X465531Y762400D01*
X465509Y762381D01*
X465484Y762365D01*
X465363Y762259D01*
X451557Y748453D01*
X451514Y748398D01*
X451464Y748350D01*
X451417Y748273D01*
X451362Y748202D01*
X451334Y748138D01*
X451298Y748079D01*
X451272Y747993D01*
X451236Y747910D01*
X451225Y747841D01*
X451204Y747775D01*
X451200Y747685D01*
X451186Y747596D01*
X451193Y747527D01*
X451189Y747457D01*
X451207Y747369D01*
X451216Y747280D01*
X451239Y747214D01*
X451254Y747146D01*
X451293Y747065D01*
X451323Y746980D01*
X451363Y746923D01*
X451393Y746860D01*
X451452Y746792D01*
X451502Y746717D01*
X451554Y746671D01*
X451600Y746618D01*
X451673Y746566D01*
X451740Y746507D01*
X451803Y746475D01*
X451860Y746435D01*
X451944Y746403D01*
X452024Y746362D01*
X452092Y746347D01*
X452157Y746322D01*
X452246Y746312D01*
X452334Y746292D01*
X452404Y746295D01*
X452473Y746287D01*
X452562Y746299D01*
X452652Y746302D01*
X452719Y746322D01*
X452788Y746331D01*
X452940Y746383D01*
X455078Y747269D01*
X459322Y747269D01*
X463243Y745645D01*
X466245Y742643D01*
X467869Y738722D01*
X467869Y734478D01*
X466245Y730557D01*
X463243Y727555D01*
X459322Y725931D01*
X455078Y725931D01*
X451157Y727555D01*
X448155Y730557D01*
X446531Y734478D01*
X446531Y738722D01*
X447417Y740860D01*
X447435Y740927D01*
X447463Y740991D01*
X447477Y741080D01*
X447501Y741166D01*
X447502Y741236D01*
X447513Y741305D01*
X447504Y741395D01*
X447506Y741484D01*
X447489Y741552D01*
X447483Y741622D01*
X447452Y741706D01*
X447431Y741794D01*
X447399Y741855D01*
X447375Y741921D01*
X447325Y741995D01*
X447283Y742075D01*
X447236Y742126D01*
X447197Y742184D01*
X447129Y742244D01*
X447069Y742310D01*
X447010Y742348D01*
X446958Y742395D01*
X446878Y742435D01*
X446803Y742485D01*
X446737Y742508D01*
X446675Y742539D01*
X446587Y742559D01*
X446502Y742588D01*
X446433Y742594D01*
X446365Y742609D01*
X446275Y742606D01*
X446185Y742613D01*
X446117Y742601D01*
X446047Y742599D01*
X445960Y742574D01*
X445872Y742559D01*
X445808Y742530D01*
X445741Y742511D01*
X445664Y742465D01*
X445582Y742428D01*
X445527Y742385D01*
X445467Y742349D01*
X445347Y742243D01*
X442840Y739737D01*
X442780Y739659D01*
X442712Y739586D01*
X442683Y739533D01*
X442646Y739486D01*
X442606Y739395D01*
X442558Y739308D01*
X442543Y739249D01*
X442519Y739194D01*
X442504Y739096D01*
X442479Y739000D01*
X442473Y738900D01*
X442469Y738880D01*
X442471Y738867D01*
X442469Y738839D01*
X442469Y734478D01*
X440845Y730557D01*
X437843Y727555D01*
X433922Y725931D01*
X429678Y725931D01*
X425757Y727555D01*
X422755Y730557D01*
X421131Y734478D01*
X421131Y738722D01*
X422017Y740860D01*
X422035Y740927D01*
X422063Y740991D01*
X422077Y741080D01*
X422101Y741166D01*
X422102Y741236D01*
X422113Y741305D01*
X422104Y741395D01*
X422106Y741484D01*
X422089Y741552D01*
X422083Y741622D01*
X422052Y741706D01*
X422032Y741794D01*
X421999Y741855D01*
X421975Y741921D01*
X421925Y741995D01*
X421883Y742075D01*
X421836Y742126D01*
X421797Y742184D01*
X421729Y742244D01*
X421669Y742310D01*
X421611Y742348D01*
X421558Y742395D01*
X421478Y742435D01*
X421403Y742485D01*
X421337Y742508D01*
X421275Y742539D01*
X421187Y742559D01*
X421102Y742588D01*
X421033Y742594D01*
X420965Y742609D01*
X420875Y742606D01*
X420785Y742613D01*
X420717Y742601D01*
X420647Y742599D01*
X420561Y742574D01*
X420472Y742559D01*
X420408Y742530D01*
X420341Y742511D01*
X420264Y742465D01*
X420182Y742428D01*
X420127Y742385D01*
X420067Y742349D01*
X419947Y742243D01*
X417440Y739737D01*
X417380Y739659D01*
X417312Y739586D01*
X417283Y739533D01*
X417246Y739486D01*
X417206Y739395D01*
X417158Y739308D01*
X417143Y739249D01*
X417119Y739194D01*
X417104Y739096D01*
X417079Y739000D01*
X417073Y738900D01*
X417069Y738880D01*
X417071Y738867D01*
X417069Y738839D01*
X417069Y734478D01*
X415445Y730557D01*
X412443Y727555D01*
X408522Y725931D01*
X404278Y725931D01*
X400357Y727555D01*
X397355Y730557D01*
X395731Y734478D01*
X395731Y738722D01*
X397355Y742643D01*
X400357Y745645D01*
X404278Y747269D01*
X408639Y747269D01*
X408738Y747281D01*
X408837Y747284D01*
X408895Y747301D01*
X408955Y747309D01*
X409047Y747345D01*
X409142Y747373D01*
X409194Y747403D01*
X409251Y747426D01*
X409331Y747484D01*
X409416Y747534D01*
X409491Y747600D01*
X409508Y747612D01*
X409516Y747622D01*
X409537Y747640D01*
X422764Y760868D01*
X422813Y760931D01*
X422870Y760987D01*
X422910Y761056D01*
X422959Y761119D01*
X422991Y761193D01*
X423032Y761261D01*
X423054Y761338D01*
X423086Y761411D01*
X423098Y761490D01*
X423121Y761566D01*
X423123Y761646D01*
X423136Y761725D01*
X423128Y761805D01*
X423131Y761884D01*
X423113Y761962D01*
X423106Y762042D01*
X423079Y762117D01*
X423062Y762195D01*
X423025Y762266D01*
X422998Y762341D01*
X422954Y762407D01*
X422917Y762478D01*
X422864Y762538D01*
X422820Y762604D01*
X422760Y762657D01*
X422707Y762717D01*
X422641Y762762D01*
X422581Y762815D01*
X422510Y762851D01*
X422444Y762896D01*
X422369Y762923D01*
X422298Y762959D01*
X422220Y762977D01*
X422145Y763004D01*
X422066Y763012D01*
X421988Y763029D01*
X421908Y763027D01*
X421829Y763034D01*
X421671Y763020D01*
X421670Y763019D01*
X421669Y763019D01*
X421668Y763019D01*
X421639Y763015D01*
X421639Y773430D01*
X421624Y773548D01*
X421617Y773667D01*
X421604Y773705D01*
X421599Y773745D01*
X421556Y773856D01*
X421519Y773969D01*
X421497Y774003D01*
X421482Y774041D01*
X421412Y774137D01*
X421349Y774238D01*
X421319Y774266D01*
X421295Y774298D01*
X421204Y774374D01*
X421117Y774456D01*
X421082Y774475D01*
X421051Y774501D01*
X420943Y774552D01*
X420839Y774609D01*
X420799Y774620D01*
X420763Y774637D01*
X420646Y774659D01*
X420531Y774689D01*
X420470Y774693D01*
X420450Y774697D01*
X420430Y774695D01*
X420370Y774699D01*
X419099Y774699D01*
X419099Y774701D01*
X420370Y774701D01*
X420488Y774716D01*
X420607Y774723D01*
X420645Y774736D01*
X420685Y774741D01*
X420796Y774785D01*
X420909Y774821D01*
X420944Y774843D01*
X420981Y774858D01*
X421077Y774928D01*
X421178Y774991D01*
X421206Y775021D01*
X421239Y775045D01*
X421314Y775136D01*
X421396Y775223D01*
X421416Y775258D01*
X421441Y775290D01*
X421492Y775397D01*
X421550Y775502D01*
X421560Y775541D01*
X421577Y775577D01*
X421599Y775694D01*
X421629Y775809D01*
X421633Y775870D01*
X421637Y775890D01*
X421635Y775910D01*
X421639Y775970D01*
X421639Y786385D01*
X421896Y786345D01*
X423683Y785764D01*
X425357Y784911D01*
X426878Y783806D01*
X428206Y782478D01*
X429311Y780957D01*
X430164Y779283D01*
X430315Y778818D01*
X430328Y778791D01*
X430335Y778762D01*
X430395Y778648D01*
X430450Y778530D01*
X430469Y778507D01*
X430483Y778481D01*
X430570Y778385D01*
X430653Y778285D01*
X430677Y778268D01*
X430697Y778246D01*
X430806Y778174D01*
X430910Y778098D01*
X430938Y778087D01*
X430963Y778071D01*
X431086Y778029D01*
X431206Y777981D01*
X431236Y777977D01*
X431264Y777968D01*
X431393Y777957D01*
X431521Y777941D01*
X431551Y777945D01*
X431581Y777942D01*
X431709Y777965D01*
X431837Y777981D01*
X431865Y777992D01*
X431894Y777997D01*
X432012Y778050D01*
X432133Y778098D01*
X432157Y778115D01*
X432184Y778127D01*
X432285Y778208D01*
X432390Y778284D01*
X432409Y778307D01*
X432433Y778326D01*
X432511Y778430D01*
X432593Y778529D01*
X432606Y778556D01*
X432624Y778580D01*
X432695Y778725D01*
X433948Y781750D01*
X437450Y785252D01*
X442024Y787147D01*
X446976Y787147D01*
X451550Y785252D01*
X455052Y781750D01*
X456027Y779395D01*
X456096Y779275D01*
X456161Y779152D01*
X456175Y779137D01*
X456185Y779119D01*
X456282Y779019D01*
X456375Y778916D01*
X456392Y778905D01*
X456406Y778891D01*
X456524Y778818D01*
X456641Y778742D01*
X456660Y778735D01*
X456677Y778724D01*
X456810Y778684D01*
X456942Y778638D01*
X456962Y778637D01*
X456981Y778631D01*
X457120Y778624D01*
X457259Y778613D01*
X457279Y778617D01*
X457299Y778616D01*
X457435Y778644D01*
X457572Y778668D01*
X457591Y778676D01*
X457610Y778680D01*
X457735Y778741D01*
X457862Y778798D01*
X457878Y778811D01*
X457896Y778820D01*
X458002Y778910D01*
X458110Y778997D01*
X458123Y779013D01*
X458138Y779026D01*
X458218Y779140D01*
X458302Y779251D01*
X458314Y779276D01*
X458321Y779286D01*
X458328Y779305D01*
X458373Y779395D01*
X459348Y781750D01*
X462850Y785252D01*
X467424Y787147D01*
X472376Y787147D01*
X476950Y785252D01*
X480452Y781750D01*
X481427Y779395D01*
X481496Y779275D01*
X481561Y779152D01*
X481575Y779137D01*
X481585Y779119D01*
X481682Y779019D01*
X481775Y778916D01*
X481792Y778905D01*
X481806Y778891D01*
X481924Y778818D01*
X482041Y778742D01*
X482060Y778735D01*
X482077Y778724D01*
X482210Y778684D01*
X482342Y778638D01*
X482362Y778637D01*
X482381Y778631D01*
X482520Y778624D01*
X482659Y778613D01*
X482679Y778617D01*
X482699Y778616D01*
X482835Y778644D01*
X482972Y778668D01*
X482991Y778676D01*
X483010Y778680D01*
X483135Y778741D01*
X483262Y778798D01*
X483278Y778811D01*
X483296Y778820D01*
X483402Y778910D01*
X483510Y778997D01*
X483523Y779013D01*
X483538Y779026D01*
X483618Y779140D01*
X483702Y779251D01*
X483714Y779276D01*
X483721Y779286D01*
X483728Y779305D01*
X483773Y779395D01*
X484748Y781750D01*
X488250Y785252D01*
X492824Y787147D01*
X497776Y787147D01*
X502350Y785252D01*
X505852Y781750D01*
X507747Y777176D01*
X507747Y772224D01*
X505852Y767650D01*
X502350Y764148D01*
X501672Y763867D01*
X501647Y763853D01*
X501619Y763843D01*
X501509Y763774D01*
X501396Y763710D01*
X501375Y763689D01*
X501350Y763673D01*
X501261Y763579D01*
X501168Y763488D01*
X501152Y763463D01*
X501132Y763442D01*
X501069Y763328D01*
X501001Y763217D01*
X500993Y763189D01*
X500978Y763163D01*
X500946Y763037D01*
X500908Y762913D01*
X500906Y762884D01*
X500899Y762855D01*
X500889Y762695D01*
X500889Y748188D01*
X500568Y747415D01*
X500531Y747280D01*
X500491Y747148D01*
X500490Y747128D01*
X500484Y747108D01*
X500482Y746968D01*
X500476Y746830D01*
X500480Y746810D01*
X500479Y746790D01*
X500512Y746654D01*
X500540Y746519D01*
X500549Y746500D01*
X500553Y746481D01*
X500618Y746358D01*
X500680Y746233D01*
X500693Y746217D01*
X500702Y746200D01*
X500796Y746097D01*
X500886Y745991D01*
X500902Y745979D01*
X500916Y745964D01*
X501032Y745888D01*
X501146Y745808D01*
X501165Y745801D01*
X501182Y745789D01*
X501313Y745744D01*
X501443Y745695D01*
X501463Y745693D01*
X501483Y745686D01*
X501621Y745675D01*
X501759Y745660D01*
X501779Y745663D01*
X501800Y745661D01*
X501937Y745685D01*
X502074Y745704D01*
X502101Y745713D01*
X502113Y745715D01*
X502132Y745724D01*
X502227Y745756D01*
X505878Y747269D01*
X506429Y747269D01*
X506528Y747281D01*
X506627Y747284D01*
X506685Y747301D01*
X506745Y747309D01*
X506837Y747345D01*
X506932Y747373D01*
X506984Y747403D01*
X507041Y747426D01*
X507121Y747484D01*
X507206Y747534D01*
X507281Y747600D01*
X507298Y747612D01*
X507306Y747622D01*
X507327Y747640D01*
X518804Y759118D01*
X520858Y759969D01*
X618959Y759969D01*
X619028Y759977D01*
X619098Y759976D01*
X619185Y759997D01*
X619274Y760009D01*
X619339Y760034D01*
X619407Y760051D01*
X619486Y760093D01*
X619570Y760126D01*
X619626Y760167D01*
X619688Y760199D01*
X619755Y760260D01*
X619827Y760312D01*
X619872Y760366D01*
X619923Y760413D01*
X619973Y760488D01*
X620030Y760557D01*
X620060Y760621D01*
X620098Y760679D01*
X620127Y760764D01*
X620166Y760845D01*
X620179Y760914D01*
X620201Y760980D01*
X620208Y761069D01*
X620225Y761157D01*
X620221Y761227D01*
X620227Y761297D01*
X620211Y761385D01*
X620206Y761475D01*
X620184Y761541D01*
X620172Y761610D01*
X620135Y761692D01*
X620108Y761777D01*
X620070Y761836D01*
X620042Y761900D01*
X619986Y761970D01*
X619937Y762046D01*
X619887Y762094D01*
X619843Y762148D01*
X619771Y762203D01*
X619706Y762264D01*
X619645Y762298D01*
X619589Y762340D01*
X619444Y762411D01*
X615250Y764148D01*
X611748Y767650D01*
X610495Y770675D01*
X610480Y770701D01*
X610471Y770730D01*
X610401Y770839D01*
X610337Y770952D01*
X610316Y770973D01*
X610300Y770998D01*
X610206Y771087D01*
X610116Y771180D01*
X610090Y771196D01*
X610069Y771216D01*
X609955Y771279D01*
X609845Y771346D01*
X609816Y771355D01*
X609790Y771369D01*
X609665Y771402D01*
X609541Y771440D01*
X609511Y771441D01*
X609482Y771449D01*
X609352Y771449D01*
X609223Y771455D01*
X609194Y771449D01*
X609164Y771449D01*
X609039Y771417D01*
X608912Y771391D01*
X608885Y771378D01*
X608856Y771370D01*
X608743Y771308D01*
X608626Y771251D01*
X608603Y771232D01*
X608577Y771217D01*
X608483Y771129D01*
X608384Y771045D01*
X608367Y771020D01*
X608345Y771000D01*
X608276Y770891D01*
X608201Y770785D01*
X608190Y770757D01*
X608174Y770731D01*
X608115Y770582D01*
X607964Y770117D01*
X607111Y768443D01*
X606006Y766922D01*
X604678Y765594D01*
X603157Y764489D01*
X601483Y763636D01*
X599696Y763055D01*
X599439Y763015D01*
X599439Y773430D01*
X599424Y773548D01*
X599417Y773667D01*
X599404Y773705D01*
X599399Y773745D01*
X599356Y773856D01*
X599319Y773969D01*
X599297Y774003D01*
X599282Y774041D01*
X599212Y774137D01*
X599149Y774238D01*
X599119Y774266D01*
X599095Y774298D01*
X599004Y774374D01*
X598917Y774456D01*
X598882Y774475D01*
X598851Y774501D01*
X598743Y774552D01*
X598639Y774609D01*
X598599Y774620D01*
X598563Y774637D01*
X598446Y774659D01*
X598331Y774689D01*
X598270Y774693D01*
X598250Y774697D01*
X598230Y774695D01*
X598170Y774699D01*
X596899Y774699D01*
X596899Y774701D01*
X598170Y774701D01*
X598288Y774716D01*
X598407Y774723D01*
X598445Y774736D01*
X598485Y774741D01*
X598596Y774785D01*
X598709Y774821D01*
X598744Y774843D01*
X598781Y774858D01*
X598877Y774928D01*
X598978Y774991D01*
X599006Y775021D01*
X599039Y775045D01*
X599114Y775136D01*
X599196Y775223D01*
X599216Y775258D01*
X599241Y775290D01*
X599292Y775397D01*
X599350Y775502D01*
X599360Y775541D01*
X599377Y775577D01*
X599399Y775694D01*
X599429Y775809D01*
X599433Y775870D01*
X599437Y775890D01*
X599435Y775910D01*
X599439Y775970D01*
X599439Y786385D01*
X599696Y786345D01*
X601483Y785764D01*
X603157Y784911D01*
X604678Y783806D01*
X606006Y782478D01*
X607111Y780957D01*
X607964Y779283D01*
X608115Y778818D01*
X608128Y778791D01*
X608135Y778762D01*
X608195Y778648D01*
X608250Y778530D01*
X608269Y778507D01*
X608283Y778481D01*
X608370Y778385D01*
X608453Y778285D01*
X608477Y778268D01*
X608497Y778246D01*
X608606Y778174D01*
X608710Y778098D01*
X608738Y778087D01*
X608763Y778071D01*
X608886Y778029D01*
X609006Y777981D01*
X609036Y777977D01*
X609064Y777968D01*
X609193Y777957D01*
X609321Y777941D01*
X609351Y777945D01*
X609381Y777942D01*
X609509Y777965D01*
X609637Y777981D01*
X609665Y777992D01*
X609694Y777997D01*
X609812Y778050D01*
X609933Y778098D01*
X609957Y778115D01*
X609984Y778127D01*
X610085Y778208D01*
X610190Y778284D01*
X610209Y778307D01*
X610233Y778326D01*
X610311Y778430D01*
X610393Y778529D01*
X610406Y778556D01*
X610424Y778580D01*
X610495Y778725D01*
X611748Y781750D01*
X615249Y785252D01*
X615928Y785533D01*
X615953Y785547D01*
X615981Y785556D01*
X616091Y785626D01*
X616204Y785690D01*
X616225Y785711D01*
X616250Y785727D01*
X616339Y785821D01*
X616432Y785912D01*
X616448Y785937D01*
X616468Y785958D01*
X616531Y786072D01*
X616599Y786183D01*
X616607Y786211D01*
X616622Y786237D01*
X616654Y786362D01*
X616692Y786487D01*
X616694Y786516D01*
X616701Y786545D01*
X616711Y786705D01*
X616711Y787946D01*
X616699Y788044D01*
X616696Y788143D01*
X616679Y788201D01*
X616671Y788262D01*
X616635Y788354D01*
X616607Y788449D01*
X616577Y788501D01*
X616554Y788557D01*
X616496Y788637D01*
X616446Y788723D01*
X616380Y788798D01*
X616368Y788815D01*
X616358Y788822D01*
X616340Y788843D01*
X611043Y794140D01*
X610965Y794200D01*
X610893Y794268D01*
X610840Y794297D01*
X610792Y794334D01*
X610701Y794374D01*
X610615Y794422D01*
X610556Y794437D01*
X610500Y794461D01*
X610402Y794476D01*
X610307Y794501D01*
X610207Y794507D01*
X610186Y794511D01*
X610174Y794509D01*
X610146Y794511D01*
X320341Y794511D01*
X320242Y794499D01*
X320143Y794496D01*
X320085Y794479D01*
X320025Y794471D01*
X319933Y794435D01*
X319838Y794407D01*
X319786Y794377D01*
X319729Y794354D01*
X319649Y794296D01*
X319564Y794246D01*
X319489Y794180D01*
X319472Y794168D01*
X319464Y794158D01*
X319443Y794140D01*
X314617Y789313D01*
X314532Y789204D01*
X314443Y789097D01*
X314435Y789078D01*
X314422Y789062D01*
X314367Y788934D01*
X314308Y788809D01*
X314304Y788789D01*
X314296Y788770D01*
X314274Y788632D01*
X314248Y788496D01*
X314249Y788476D01*
X314246Y788456D01*
X314259Y788317D01*
X314268Y788179D01*
X314274Y788160D01*
X314276Y788140D01*
X314323Y788008D01*
X314366Y787877D01*
X314377Y787859D01*
X314383Y787840D01*
X314461Y787725D01*
X314536Y787608D01*
X314551Y787594D01*
X314562Y787577D01*
X314666Y787485D01*
X314767Y787390D01*
X314785Y787380D01*
X314800Y787367D01*
X314925Y787303D01*
X315046Y787236D01*
X315066Y787231D01*
X315084Y787222D01*
X315219Y787192D01*
X315354Y787157D01*
X315382Y787155D01*
X315394Y787152D01*
X315414Y787153D01*
X315515Y787147D01*
X319976Y787147D01*
X324550Y785252D01*
X328052Y781750D01*
X329947Y777176D01*
X329947Y772224D01*
X328052Y767650D01*
X324551Y764148D01*
X323872Y763867D01*
X323847Y763853D01*
X323819Y763844D01*
X323709Y763774D01*
X323596Y763710D01*
X323575Y763689D01*
X323550Y763673D01*
X323461Y763579D01*
X323368Y763488D01*
X323352Y763463D01*
X323332Y763442D01*
X323269Y763328D01*
X323201Y763217D01*
X323193Y763189D01*
X323178Y763163D01*
X323146Y763038D01*
X323108Y762913D01*
X323106Y762884D01*
X323099Y762855D01*
X323089Y762695D01*
X323089Y748188D01*
X322768Y747415D01*
X322732Y747280D01*
X322691Y747148D01*
X322690Y747128D01*
X322684Y747108D01*
X322682Y746969D01*
X322676Y746830D01*
X322680Y746810D01*
X322679Y746790D01*
X322712Y746655D01*
X322740Y746519D01*
X322749Y746500D01*
X322753Y746481D01*
X322818Y746358D01*
X322880Y746233D01*
X322893Y746217D01*
X322902Y746200D01*
X322995Y746097D01*
X323086Y745991D01*
X323102Y745979D01*
X323116Y745964D01*
X323232Y745888D01*
X323346Y745808D01*
X323365Y745801D01*
X323382Y745790D01*
X323513Y745744D01*
X323643Y745695D01*
X323663Y745693D01*
X323683Y745686D01*
X323821Y745675D01*
X323959Y745660D01*
X323979Y745663D01*
X324000Y745661D01*
X324137Y745685D01*
X324274Y745704D01*
X324301Y745713D01*
X324313Y745715D01*
X324332Y745724D01*
X324427Y745756D01*
X328078Y747269D01*
X332322Y747269D01*
X336243Y745645D01*
X339245Y742643D01*
X340869Y738722D01*
X340869Y734478D01*
X339245Y730557D01*
X336243Y727555D01*
X332322Y725931D01*
X328078Y725931D01*
X324157Y727555D01*
X321155Y730557D01*
X319531Y734478D01*
X319531Y738722D01*
X320417Y740860D01*
X320435Y740927D01*
X320463Y740991D01*
X320477Y741080D01*
X320501Y741166D01*
X320502Y741236D01*
X320513Y741305D01*
X320504Y741395D01*
X320506Y741484D01*
X320489Y741552D01*
X320483Y741622D01*
X320452Y741706D01*
X320431Y741794D01*
X320399Y741855D01*
X320375Y741921D01*
X320325Y741995D01*
X320283Y742075D01*
X320236Y742126D01*
X320197Y742184D01*
X320129Y742244D01*
X320069Y742310D01*
X320010Y742348D01*
X319958Y742395D01*
X319878Y742435D01*
X319803Y742485D01*
X319737Y742508D01*
X319675Y742539D01*
X319587Y742559D01*
X319502Y742588D01*
X319433Y742594D01*
X319365Y742609D01*
X319275Y742606D01*
X319185Y742613D01*
X319117Y742601D01*
X319047Y742599D01*
X318960Y742574D01*
X318872Y742559D01*
X318808Y742530D01*
X318741Y742511D01*
X318664Y742465D01*
X318582Y742428D01*
X318527Y742385D01*
X318467Y742349D01*
X318347Y742243D01*
X315840Y739737D01*
X315780Y739659D01*
X315712Y739586D01*
X315683Y739533D01*
X315646Y739486D01*
X315606Y739395D01*
X315558Y739308D01*
X315543Y739249D01*
X315519Y739194D01*
X315504Y739096D01*
X315479Y739000D01*
X315473Y738900D01*
X315469Y738880D01*
X315471Y738867D01*
X315469Y738839D01*
X315469Y734478D01*
X313845Y730557D01*
X310843Y727555D01*
X306922Y725931D01*
X302678Y725931D01*
X298757Y727555D01*
X295755Y730557D01*
X294131Y734478D01*
X294131Y738722D01*
X295755Y742643D01*
X298757Y745645D01*
X302678Y747269D01*
X307039Y747269D01*
X307138Y747281D01*
X307237Y747284D01*
X307295Y747301D01*
X307355Y747309D01*
X307447Y747345D01*
X307542Y747373D01*
X307594Y747403D01*
X307651Y747426D01*
X307731Y747484D01*
X307816Y747534D01*
X307891Y747600D01*
X307908Y747612D01*
X307916Y747622D01*
X307937Y747640D01*
X311540Y751243D01*
X311600Y751321D01*
X311668Y751394D01*
X311697Y751447D01*
X311734Y751494D01*
X311774Y751585D01*
X311822Y751672D01*
X311837Y751731D01*
X311861Y751786D01*
X311876Y751884D01*
X311901Y751980D01*
X311907Y752071D01*
X311909Y752081D01*
X311908Y752086D01*
X311911Y752100D01*
X311909Y752113D01*
X311911Y752141D01*
X311911Y762695D01*
X311908Y762724D01*
X311910Y762753D01*
X311888Y762881D01*
X311871Y763010D01*
X311861Y763038D01*
X311856Y763067D01*
X311802Y763185D01*
X311754Y763306D01*
X311737Y763330D01*
X311725Y763357D01*
X311644Y763458D01*
X311568Y763563D01*
X311545Y763582D01*
X311526Y763605D01*
X311423Y763683D01*
X311323Y763766D01*
X311296Y763779D01*
X311272Y763796D01*
X311128Y763867D01*
X310449Y764148D01*
X306948Y767650D01*
X305973Y770005D01*
X305904Y770125D01*
X305839Y770248D01*
X305825Y770263D01*
X305815Y770281D01*
X305718Y770381D01*
X305625Y770484D01*
X305608Y770495D01*
X305594Y770509D01*
X305476Y770582D01*
X305359Y770658D01*
X305340Y770665D01*
X305323Y770676D01*
X305190Y770716D01*
X305058Y770762D01*
X305038Y770763D01*
X305019Y770769D01*
X304880Y770776D01*
X304741Y770787D01*
X304721Y770783D01*
X304701Y770784D01*
X304565Y770756D01*
X304428Y770732D01*
X304409Y770724D01*
X304390Y770720D01*
X304265Y770659D01*
X304138Y770602D01*
X304122Y770589D01*
X304104Y770580D01*
X303998Y770490D01*
X303890Y770403D01*
X303877Y770387D01*
X303862Y770374D01*
X303782Y770260D01*
X303698Y770149D01*
X303686Y770124D01*
X303679Y770114D01*
X303672Y770095D01*
X303627Y770005D01*
X302652Y767650D01*
X299150Y764148D01*
X294576Y762253D01*
X289624Y762253D01*
X288946Y762534D01*
X288918Y762542D01*
X288891Y762555D01*
X288764Y762584D01*
X288639Y762618D01*
X288610Y762619D01*
X288581Y762625D01*
X288451Y762621D01*
X288321Y762623D01*
X288292Y762616D01*
X288263Y762615D01*
X288138Y762579D01*
X288012Y762549D01*
X287986Y762535D01*
X287957Y762527D01*
X287846Y762461D01*
X287731Y762400D01*
X287709Y762381D01*
X287684Y762365D01*
X287563Y762259D01*
X278220Y752917D01*
X276470Y751166D01*
X274416Y750315D01*
X250745Y750315D01*
X250646Y750303D01*
X250547Y750300D01*
X250489Y750283D01*
X250429Y750275D01*
X250337Y750239D01*
X250242Y750211D01*
X250190Y750181D01*
X250133Y750158D01*
X250053Y750100D01*
X249968Y750050D01*
X249893Y749984D01*
X249876Y749972D01*
X249868Y749962D01*
X249847Y749944D01*
X234560Y734657D01*
X234500Y734579D01*
X234432Y734506D01*
X234403Y734453D01*
X234366Y734406D01*
X234326Y734315D01*
X234278Y734228D01*
X234263Y734169D01*
X234239Y734114D01*
X234224Y734016D01*
X234199Y733920D01*
X234193Y733820D01*
X234189Y733800D01*
X234191Y733787D01*
X234189Y733759D01*
X234189Y574341D01*
X234201Y574242D01*
X234204Y574143D01*
X234221Y574085D01*
X234229Y574025D01*
X234265Y573933D01*
X234293Y573838D01*
X234323Y573786D01*
X234346Y573729D01*
X234404Y573649D01*
X234454Y573564D01*
X234520Y573489D01*
X234532Y573472D01*
X234542Y573464D01*
X234560Y573443D01*
X255943Y552060D01*
X256021Y552000D01*
X256094Y551932D01*
X256147Y551903D01*
X256194Y551866D01*
X256285Y551826D01*
X256372Y551778D01*
X256431Y551763D01*
X256486Y551739D01*
X256584Y551724D01*
X256680Y551699D01*
X256780Y551693D01*
X256800Y551689D01*
X256813Y551691D01*
X256841Y551689D01*
X422672Y551689D01*
X422702Y551692D01*
X422731Y551690D01*
X422859Y551712D01*
X422988Y551729D01*
X423015Y551739D01*
X423044Y551745D01*
X423163Y551798D01*
X423284Y551846D01*
X423307Y551863D01*
X423334Y551875D01*
X423436Y551956D01*
X423541Y552032D01*
X423560Y552055D01*
X423583Y552074D01*
X423661Y552178D01*
X423744Y552277D01*
X423756Y552304D01*
X423774Y552328D01*
X423845Y552472D01*
X423888Y552575D01*
X427103Y555791D01*
X431304Y557531D01*
X444961Y557531D01*
X445060Y557543D01*
X445159Y557546D01*
X445217Y557563D01*
X445277Y557571D01*
X445369Y557607D01*
X445464Y557635D01*
X445516Y557665D01*
X445573Y557688D01*
X445653Y557746D01*
X445738Y557796D01*
X445813Y557862D01*
X445830Y557874D01*
X445838Y557884D01*
X445859Y557902D01*
X452764Y564808D01*
X454818Y565659D01*
X467230Y565659D01*
X467259Y565662D01*
X467289Y565660D01*
X467417Y565682D01*
X467545Y565699D01*
X467573Y565709D01*
X467602Y565714D01*
X467720Y565768D01*
X467841Y565816D01*
X467865Y565833D01*
X467892Y565845D01*
X467993Y565926D01*
X468098Y566002D01*
X468117Y566025D01*
X468140Y566044D01*
X468218Y566147D01*
X468301Y566247D01*
X468314Y566274D01*
X468332Y566298D01*
X468402Y566442D01*
X468862Y567552D01*
X472578Y571268D01*
X476429Y572863D01*
X476550Y572932D01*
X476673Y572997D01*
X476688Y573011D01*
X476705Y573021D01*
X476805Y573117D01*
X476908Y573211D01*
X476919Y573228D01*
X476934Y573242D01*
X477006Y573360D01*
X477083Y573477D01*
X477089Y573496D01*
X477100Y573513D01*
X477141Y573646D01*
X477186Y573777D01*
X477188Y573798D01*
X477194Y573817D01*
X477200Y573956D01*
X477211Y574094D01*
X477208Y574114D01*
X477209Y574135D01*
X477181Y574271D01*
X477157Y574408D01*
X477149Y574426D01*
X477144Y574446D01*
X477083Y574571D01*
X477026Y574698D01*
X477014Y574713D01*
X477005Y574732D01*
X476915Y574838D01*
X476828Y574946D01*
X476812Y574958D01*
X476798Y574974D01*
X476685Y575054D01*
X476578Y575134D01*
X473555Y578157D01*
X471931Y582078D01*
X471931Y586322D01*
X473555Y590243D01*
X476557Y593245D01*
X480478Y594869D01*
X484722Y594869D01*
X488643Y593245D01*
X491645Y590243D01*
X493269Y586322D01*
X493269Y582078D01*
X491645Y578157D01*
X488643Y575155D01*
X486231Y574156D01*
X486110Y574087D01*
X485987Y574022D01*
X485972Y574009D01*
X485955Y573999D01*
X485854Y573902D01*
X485752Y573808D01*
X485741Y573792D01*
X485726Y573777D01*
X485653Y573658D01*
X485577Y573543D01*
X485571Y573524D01*
X485560Y573506D01*
X485519Y573373D01*
X485474Y573242D01*
X485472Y573222D01*
X485466Y573202D01*
X485460Y573063D01*
X485449Y572925D01*
X485452Y572905D01*
X485451Y572885D01*
X485479Y572749D01*
X485503Y572612D01*
X485511Y572593D01*
X485516Y572573D01*
X485577Y572448D01*
X485634Y572322D01*
X485646Y572306D01*
X485655Y572288D01*
X485746Y572182D01*
X485832Y572073D01*
X485848Y572061D01*
X485862Y572046D01*
X485976Y571965D01*
X486086Y571882D01*
X486112Y571869D01*
X486122Y571862D01*
X486141Y571855D01*
X486231Y571811D01*
X487542Y571268D01*
X491258Y567552D01*
X493269Y562697D01*
X493269Y557443D01*
X491258Y552588D01*
X487542Y548872D01*
X482848Y546928D01*
X482822Y546913D01*
X482794Y546904D01*
X482684Y546834D01*
X482572Y546770D01*
X482550Y546749D01*
X482525Y546733D01*
X482436Y546639D01*
X482343Y546549D01*
X482328Y546524D01*
X482307Y546502D01*
X482245Y546388D01*
X482177Y546278D01*
X482168Y546249D01*
X482154Y546223D01*
X482122Y546098D01*
X482083Y545974D01*
X482082Y545944D01*
X482075Y545915D01*
X482075Y545785D01*
X482068Y545656D01*
X482074Y545627D01*
X482074Y545597D01*
X482106Y545472D01*
X482133Y545345D01*
X482146Y545318D01*
X482153Y545289D01*
X482215Y545176D01*
X482272Y545059D01*
X482292Y545036D01*
X482306Y545010D01*
X482394Y544916D01*
X482479Y544817D01*
X482503Y544800D01*
X482524Y544778D01*
X482633Y544709D01*
X482739Y544634D01*
X482767Y544623D01*
X482792Y544607D01*
X482942Y544548D01*
X484935Y543900D01*
X486717Y542993D01*
X488334Y541818D01*
X489748Y540404D01*
X490923Y538787D01*
X491830Y537005D01*
X492448Y535104D01*
X492517Y534669D01*
X481330Y534669D01*
X481212Y534654D01*
X481093Y534647D01*
X481055Y534634D01*
X481015Y534629D01*
X480904Y534586D01*
X480791Y534549D01*
X480757Y534527D01*
X480719Y534512D01*
X480623Y534442D01*
X480522Y534379D01*
X480494Y534349D01*
X480462Y534325D01*
X480386Y534234D01*
X480304Y534147D01*
X480285Y534112D01*
X480259Y534081D01*
X480208Y533973D01*
X480151Y533869D01*
X480140Y533829D01*
X480123Y533793D01*
X480101Y533676D01*
X480071Y533561D01*
X480067Y533500D01*
X480063Y533480D01*
X480065Y533460D01*
X480061Y533400D01*
X480061Y532129D01*
X480059Y532129D01*
G37*
%LPD*%
%LPC*%
G36*
X477433Y465581D02*
X477433Y465581D01*
X472578Y467592D01*
X468862Y471308D01*
X468402Y472418D01*
X468388Y472443D01*
X468379Y472471D01*
X468309Y472581D01*
X468245Y472694D01*
X468224Y472715D01*
X468209Y472740D01*
X468114Y472829D01*
X468024Y472922D01*
X467998Y472938D01*
X467977Y472958D01*
X467863Y473021D01*
X467752Y473089D01*
X467724Y473097D01*
X467698Y473112D01*
X467573Y473144D01*
X467449Y473182D01*
X467419Y473184D01*
X467390Y473191D01*
X467230Y473201D01*
X457358Y473201D01*
X455304Y474052D01*
X445859Y483498D01*
X445781Y483558D01*
X445708Y483626D01*
X445655Y483655D01*
X445608Y483692D01*
X445517Y483732D01*
X445430Y483780D01*
X445371Y483795D01*
X445316Y483819D01*
X445218Y483834D01*
X445122Y483859D01*
X445022Y483865D01*
X445002Y483869D01*
X444989Y483867D01*
X444961Y483869D01*
X431304Y483869D01*
X427103Y485609D01*
X423887Y488825D01*
X422147Y493026D01*
X422147Y497574D01*
X423887Y501775D01*
X427103Y504991D01*
X431304Y506731D01*
X452616Y506731D01*
X456817Y504991D01*
X460033Y501775D01*
X461773Y497574D01*
X461773Y493026D01*
X460033Y488825D01*
X459083Y487876D01*
X459010Y487782D01*
X458931Y487692D01*
X458913Y487656D01*
X458888Y487624D01*
X458841Y487515D01*
X458787Y487409D01*
X458778Y487370D01*
X458762Y487332D01*
X458743Y487215D01*
X458717Y487099D01*
X458718Y487058D01*
X458712Y487018D01*
X458723Y486900D01*
X458727Y486781D01*
X458738Y486742D01*
X458742Y486702D01*
X458782Y486590D01*
X458815Y486475D01*
X458836Y486441D01*
X458849Y486402D01*
X458916Y486304D01*
X458977Y486201D01*
X459016Y486156D01*
X459028Y486139D01*
X459043Y486126D01*
X459083Y486081D01*
X460413Y484750D01*
X460491Y484690D01*
X460564Y484622D01*
X460617Y484593D01*
X460664Y484556D01*
X460755Y484516D01*
X460842Y484468D01*
X460901Y484453D01*
X460956Y484429D01*
X461054Y484414D01*
X461150Y484389D01*
X461250Y484383D01*
X461270Y484379D01*
X461283Y484381D01*
X461311Y484379D01*
X467230Y484379D01*
X467259Y484382D01*
X467289Y484380D01*
X467417Y484402D01*
X467545Y484419D01*
X467573Y484429D01*
X467602Y484434D01*
X467720Y484488D01*
X467841Y484536D01*
X467865Y484553D01*
X467892Y484565D01*
X467993Y484646D01*
X468098Y484722D01*
X468117Y484745D01*
X468140Y484764D01*
X468218Y484867D01*
X468301Y484967D01*
X468314Y484994D01*
X468332Y485018D01*
X468402Y485162D01*
X468862Y486272D01*
X472578Y489988D01*
X477272Y491932D01*
X477298Y491947D01*
X477326Y491956D01*
X477436Y492026D01*
X477548Y492090D01*
X477570Y492111D01*
X477595Y492127D01*
X477684Y492221D01*
X477777Y492311D01*
X477792Y492336D01*
X477813Y492358D01*
X477875Y492472D01*
X477943Y492582D01*
X477952Y492611D01*
X477966Y492637D01*
X477998Y492762D01*
X478037Y492886D01*
X478038Y492916D01*
X478045Y492945D01*
X478045Y493075D01*
X478052Y493204D01*
X478046Y493233D01*
X478046Y493263D01*
X478014Y493388D01*
X477987Y493515D01*
X477974Y493542D01*
X477967Y493571D01*
X477905Y493684D01*
X477848Y493801D01*
X477828Y493824D01*
X477814Y493850D01*
X477726Y493944D01*
X477641Y494043D01*
X477617Y494060D01*
X477596Y494082D01*
X477487Y494151D01*
X477381Y494226D01*
X477353Y494237D01*
X477328Y494253D01*
X477178Y494312D01*
X475185Y494960D01*
X473403Y495867D01*
X471786Y497042D01*
X470372Y498456D01*
X469197Y500073D01*
X468290Y501855D01*
X467672Y503756D01*
X467603Y504191D01*
X478790Y504191D01*
X478908Y504206D01*
X479027Y504213D01*
X479065Y504226D01*
X479105Y504231D01*
X479216Y504274D01*
X479329Y504311D01*
X479363Y504333D01*
X479401Y504348D01*
X479497Y504418D01*
X479598Y504481D01*
X479626Y504511D01*
X479658Y504534D01*
X479734Y504626D01*
X479816Y504713D01*
X479835Y504748D01*
X479861Y504779D01*
X479912Y504887D01*
X479969Y504991D01*
X479980Y505031D01*
X479997Y505067D01*
X480019Y505184D01*
X480049Y505299D01*
X480053Y505360D01*
X480057Y505380D01*
X480055Y505400D01*
X480059Y505460D01*
X480059Y506731D01*
X480061Y506731D01*
X480061Y505460D01*
X480076Y505342D01*
X480083Y505223D01*
X480096Y505185D01*
X480101Y505144D01*
X480145Y505034D01*
X480181Y504921D01*
X480203Y504886D01*
X480218Y504849D01*
X480288Y504753D01*
X480351Y504652D01*
X480381Y504624D01*
X480405Y504591D01*
X480496Y504516D01*
X480583Y504434D01*
X480618Y504414D01*
X480650Y504389D01*
X480757Y504338D01*
X480862Y504280D01*
X480901Y504270D01*
X480937Y504253D01*
X481054Y504231D01*
X481169Y504201D01*
X481230Y504197D01*
X481250Y504193D01*
X481270Y504195D01*
X481330Y504191D01*
X492517Y504191D01*
X492448Y503756D01*
X491830Y501855D01*
X490923Y500073D01*
X489748Y498456D01*
X488334Y497042D01*
X486717Y495867D01*
X484935Y494960D01*
X482942Y494312D01*
X482915Y494299D01*
X482885Y494292D01*
X482771Y494232D01*
X482654Y494177D01*
X482631Y494158D01*
X482604Y494144D01*
X482509Y494057D01*
X482409Y493974D01*
X482391Y493950D01*
X482369Y493930D01*
X482298Y493822D01*
X482222Y493717D01*
X482211Y493689D01*
X482194Y493664D01*
X482152Y493542D01*
X482104Y493421D01*
X482101Y493391D01*
X482091Y493363D01*
X482081Y493234D01*
X482064Y493106D01*
X482068Y493076D01*
X482066Y493046D01*
X482088Y492918D01*
X482104Y492790D01*
X482115Y492762D01*
X482120Y492733D01*
X482173Y492615D01*
X482221Y492494D01*
X482239Y492470D01*
X482251Y492443D01*
X482331Y492342D01*
X482408Y492237D01*
X482431Y492218D01*
X482449Y492194D01*
X482553Y492117D01*
X482653Y492034D01*
X482680Y492021D01*
X482703Y492003D01*
X482848Y491932D01*
X486671Y490349D01*
X486699Y490341D01*
X486726Y490327D01*
X486853Y490299D01*
X486978Y490265D01*
X487007Y490264D01*
X487036Y490258D01*
X487166Y490262D01*
X487296Y490260D01*
X487324Y490267D01*
X487354Y490267D01*
X487478Y490303D01*
X487605Y490334D01*
X487631Y490348D01*
X487659Y490356D01*
X487771Y490422D01*
X487886Y490483D01*
X487908Y490502D01*
X487933Y490517D01*
X488054Y490624D01*
X516800Y519369D01*
X518424Y520994D01*
X518550Y521120D01*
X520604Y521971D01*
X528103Y521971D01*
X528133Y521974D01*
X528162Y521972D01*
X528290Y521994D01*
X528419Y522011D01*
X528446Y522021D01*
X528475Y522027D01*
X528594Y522080D01*
X528714Y522128D01*
X528738Y522145D01*
X528765Y522157D01*
X528867Y522238D01*
X528972Y522314D01*
X528991Y522337D01*
X529014Y522356D01*
X529092Y522460D01*
X529175Y522559D01*
X529187Y522586D01*
X529205Y522610D01*
X529276Y522754D01*
X529287Y522782D01*
X532466Y525961D01*
X536618Y527681D01*
X557614Y527681D01*
X561766Y525961D01*
X564414Y523313D01*
X564508Y523240D01*
X564597Y523161D01*
X564633Y523143D01*
X564665Y523118D01*
X564775Y523070D01*
X564881Y523016D01*
X564920Y523008D01*
X564957Y522991D01*
X565075Y522973D01*
X565191Y522947D01*
X565231Y522948D01*
X565271Y522942D01*
X565390Y522953D01*
X565509Y522956D01*
X565548Y522968D01*
X565588Y522971D01*
X565700Y523012D01*
X565814Y523045D01*
X565849Y523065D01*
X565887Y523079D01*
X565986Y523146D01*
X566088Y523206D01*
X566134Y523246D01*
X566150Y523258D01*
X566164Y523273D01*
X566209Y523313D01*
X616356Y573459D01*
X616429Y573554D01*
X616508Y573643D01*
X616526Y573679D01*
X616550Y573710D01*
X616598Y573820D01*
X616652Y573926D01*
X616661Y573965D01*
X616677Y574002D01*
X616696Y574120D01*
X616722Y574237D01*
X616720Y574277D01*
X616727Y574316D01*
X616715Y574436D01*
X616712Y574555D01*
X616701Y574593D01*
X616697Y574633D01*
X616656Y574746D01*
X616623Y574860D01*
X616603Y574895D01*
X616589Y574932D01*
X616522Y575031D01*
X616461Y575134D01*
X616433Y575162D01*
X616411Y575195D01*
X616321Y575275D01*
X616237Y575359D01*
X616202Y575379D01*
X616172Y575406D01*
X616066Y575460D01*
X615963Y575521D01*
X615925Y575532D01*
X615889Y575551D01*
X615772Y575577D01*
X615658Y575610D01*
X615618Y575611D01*
X615579Y575620D01*
X615459Y575617D01*
X615340Y575620D01*
X615301Y575612D01*
X615261Y575611D01*
X615146Y575577D01*
X615030Y575551D01*
X614975Y575528D01*
X614955Y575522D01*
X614938Y575512D01*
X614882Y575488D01*
X613500Y574784D01*
X612139Y574341D01*
X612139Y581661D01*
X619459Y581661D01*
X619016Y580300D01*
X618312Y578918D01*
X618272Y578806D01*
X618225Y578696D01*
X618218Y578657D01*
X618205Y578619D01*
X618193Y578500D01*
X618175Y578382D01*
X618178Y578342D01*
X618175Y578302D01*
X618193Y578185D01*
X618205Y578066D01*
X618218Y578028D01*
X618224Y577988D01*
X618272Y577879D01*
X618312Y577766D01*
X618335Y577733D01*
X618351Y577696D01*
X618424Y577602D01*
X618491Y577503D01*
X618521Y577477D01*
X618545Y577445D01*
X618640Y577372D01*
X618729Y577293D01*
X618765Y577274D01*
X618797Y577250D01*
X618906Y577202D01*
X619012Y577148D01*
X619051Y577139D01*
X619088Y577123D01*
X619206Y577105D01*
X619323Y577078D01*
X619363Y577080D01*
X619402Y577073D01*
X619521Y577085D01*
X619641Y577088D01*
X619679Y577099D01*
X619719Y577103D01*
X619831Y577143D01*
X619946Y577177D01*
X619981Y577197D01*
X620018Y577210D01*
X620117Y577277D01*
X620220Y577338D01*
X620265Y577378D01*
X620282Y577389D01*
X620295Y577404D01*
X620341Y577444D01*
X623960Y581063D01*
X624020Y581141D01*
X624088Y581214D01*
X624117Y581267D01*
X624154Y581314D01*
X624194Y581405D01*
X624242Y581492D01*
X624257Y581551D01*
X624281Y581606D01*
X624296Y581704D01*
X624321Y581800D01*
X624327Y581900D01*
X624331Y581920D01*
X624329Y581933D01*
X624331Y581961D01*
X624331Y586322D01*
X625955Y590243D01*
X628957Y593245D01*
X632878Y594869D01*
X637122Y594869D01*
X641043Y593245D01*
X644045Y590243D01*
X645669Y586322D01*
X645669Y582078D01*
X644045Y578157D01*
X641043Y575155D01*
X637122Y573531D01*
X632761Y573531D01*
X632662Y573519D01*
X632563Y573516D01*
X632505Y573499D01*
X632445Y573491D01*
X632353Y573455D01*
X632258Y573427D01*
X632206Y573397D01*
X632149Y573374D01*
X632069Y573316D01*
X631984Y573266D01*
X631909Y573200D01*
X631892Y573188D01*
X631884Y573178D01*
X631863Y573160D01*
X572098Y513395D01*
X570348Y511644D01*
X568294Y510793D01*
X566129Y510793D01*
X566099Y510790D01*
X566070Y510792D01*
X565942Y510770D01*
X565813Y510753D01*
X565786Y510743D01*
X565757Y510737D01*
X565638Y510684D01*
X565518Y510636D01*
X565494Y510619D01*
X565467Y510607D01*
X565365Y510526D01*
X565260Y510450D01*
X565241Y510427D01*
X565218Y510408D01*
X565140Y510304D01*
X565057Y510205D01*
X565045Y510178D01*
X565027Y510154D01*
X564956Y510010D01*
X564945Y509982D01*
X561766Y506803D01*
X557614Y505083D01*
X536618Y505083D01*
X532466Y506803D01*
X529287Y509982D01*
X529276Y510010D01*
X529261Y510035D01*
X529252Y510063D01*
X529183Y510173D01*
X529118Y510286D01*
X529098Y510307D01*
X529082Y510332D01*
X528987Y510421D01*
X528897Y510514D01*
X528872Y510530D01*
X528850Y510550D01*
X528737Y510613D01*
X528626Y510681D01*
X528598Y510689D01*
X528572Y510704D01*
X528446Y510736D01*
X528322Y510774D01*
X528292Y510776D01*
X528264Y510783D01*
X528103Y510793D01*
X524557Y510793D01*
X524458Y510781D01*
X524359Y510778D01*
X524301Y510761D01*
X524241Y510753D01*
X524149Y510717D01*
X524054Y510689D01*
X524002Y510659D01*
X523945Y510636D01*
X523865Y510578D01*
X523780Y510528D01*
X523705Y510462D01*
X523688Y510450D01*
X523680Y510440D01*
X523659Y510422D01*
X493640Y480403D01*
X493580Y480325D01*
X493512Y480252D01*
X493483Y480199D01*
X493446Y480152D01*
X493406Y480061D01*
X493358Y479974D01*
X493343Y479915D01*
X493319Y479860D01*
X493304Y479762D01*
X493279Y479666D01*
X493273Y479566D01*
X493269Y479546D01*
X493271Y479533D01*
X493269Y479505D01*
X493269Y476163D01*
X491258Y471308D01*
X487542Y467592D01*
X482687Y465581D01*
X477433Y465581D01*
G37*
%LPD*%
%LPC*%
G36*
X605346Y471423D02*
X605346Y471423D01*
X600772Y473318D01*
X597270Y476820D01*
X595375Y481394D01*
X595375Y484124D01*
X595360Y484242D01*
X595353Y484361D01*
X595340Y484399D01*
X595335Y484440D01*
X595292Y484550D01*
X595255Y484663D01*
X595233Y484698D01*
X595218Y484735D01*
X595149Y484831D01*
X595085Y484932D01*
X595055Y484960D01*
X595032Y484993D01*
X594940Y485069D01*
X594853Y485150D01*
X594818Y485170D01*
X594787Y485195D01*
X594679Y485246D01*
X594575Y485304D01*
X594535Y485314D01*
X594499Y485331D01*
X594382Y485353D01*
X594267Y485383D01*
X594207Y485387D01*
X594187Y485391D01*
X594166Y485389D01*
X594106Y485393D01*
X566129Y485393D01*
X566099Y485390D01*
X566070Y485392D01*
X565942Y485370D01*
X565813Y485353D01*
X565786Y485343D01*
X565757Y485337D01*
X565638Y485284D01*
X565518Y485236D01*
X565494Y485219D01*
X565467Y485207D01*
X565365Y485126D01*
X565260Y485050D01*
X565241Y485027D01*
X565218Y485008D01*
X565140Y484904D01*
X565057Y484805D01*
X565045Y484778D01*
X565027Y484754D01*
X564956Y484610D01*
X564945Y484582D01*
X561766Y481403D01*
X557614Y479683D01*
X536618Y479683D01*
X532466Y481403D01*
X529287Y484582D01*
X527567Y488734D01*
X527567Y493230D01*
X529287Y497382D01*
X532466Y500561D01*
X536618Y502281D01*
X557614Y502281D01*
X561766Y500561D01*
X564945Y497382D01*
X564956Y497354D01*
X564971Y497329D01*
X564980Y497301D01*
X565049Y497191D01*
X565114Y497078D01*
X565134Y497057D01*
X565150Y497032D01*
X565245Y496943D01*
X565335Y496850D01*
X565360Y496834D01*
X565382Y496814D01*
X565495Y496751D01*
X565606Y496683D01*
X565634Y496675D01*
X565660Y496660D01*
X565786Y496628D01*
X565910Y496590D01*
X565940Y496588D01*
X565968Y496581D01*
X566129Y496571D01*
X601162Y496571D01*
X601181Y496573D01*
X601201Y496571D01*
X601339Y496593D01*
X601477Y496611D01*
X601496Y496618D01*
X601515Y496621D01*
X601643Y496676D01*
X601773Y496728D01*
X601789Y496739D01*
X601807Y496747D01*
X601918Y496833D01*
X602030Y496914D01*
X602043Y496930D01*
X602059Y496942D01*
X602144Y497052D01*
X602233Y497159D01*
X602242Y497178D01*
X602254Y497193D01*
X602309Y497322D01*
X602369Y497447D01*
X602372Y497467D01*
X602380Y497485D01*
X602402Y497623D01*
X602428Y497759D01*
X602427Y497779D01*
X602430Y497799D01*
X602417Y497938D01*
X602409Y498077D01*
X602402Y498096D01*
X602401Y498116D01*
X602353Y498247D01*
X602311Y498379D01*
X602300Y498396D01*
X602293Y498415D01*
X602215Y498530D01*
X602140Y498648D01*
X602126Y498662D01*
X602115Y498678D01*
X602010Y498770D01*
X601909Y498866D01*
X601891Y498876D01*
X601876Y498889D01*
X601738Y498971D01*
X601565Y499059D01*
X600044Y500164D01*
X598716Y501492D01*
X597611Y503013D01*
X596758Y504687D01*
X596177Y506474D01*
X596137Y506731D01*
X606552Y506731D01*
X606670Y506746D01*
X606789Y506753D01*
X606827Y506766D01*
X606867Y506771D01*
X606978Y506814D01*
X607091Y506851D01*
X607125Y506873D01*
X607163Y506888D01*
X607259Y506958D01*
X607360Y507021D01*
X607388Y507051D01*
X607420Y507074D01*
X607496Y507166D01*
X607578Y507253D01*
X607597Y507288D01*
X607623Y507319D01*
X607674Y507427D01*
X607731Y507531D01*
X607742Y507571D01*
X607759Y507607D01*
X607781Y507724D01*
X607811Y507839D01*
X607815Y507900D01*
X607819Y507920D01*
X607817Y507940D01*
X607821Y508000D01*
X607821Y509271D01*
X607823Y509271D01*
X607823Y508000D01*
X607838Y507882D01*
X607845Y507763D01*
X607858Y507725D01*
X607863Y507684D01*
X607907Y507574D01*
X607943Y507461D01*
X607965Y507426D01*
X607980Y507389D01*
X608050Y507293D01*
X608113Y507192D01*
X608143Y507164D01*
X608167Y507131D01*
X608258Y507056D01*
X608345Y506974D01*
X608380Y506954D01*
X608412Y506929D01*
X608519Y506878D01*
X608624Y506820D01*
X608663Y506810D01*
X608699Y506793D01*
X608816Y506771D01*
X608931Y506741D01*
X608992Y506737D01*
X609012Y506733D01*
X609032Y506735D01*
X609092Y506731D01*
X619507Y506731D01*
X619467Y506474D01*
X618886Y504687D01*
X618033Y503013D01*
X616928Y501492D01*
X615600Y500164D01*
X614079Y499059D01*
X612405Y498206D01*
X611940Y498055D01*
X611913Y498042D01*
X611884Y498035D01*
X611770Y497975D01*
X611652Y497920D01*
X611629Y497901D01*
X611603Y497887D01*
X611507Y497800D01*
X611407Y497717D01*
X611390Y497693D01*
X611368Y497673D01*
X611296Y497564D01*
X611220Y497460D01*
X611209Y497432D01*
X611193Y497407D01*
X611151Y497284D01*
X611103Y497164D01*
X611099Y497134D01*
X611090Y497106D01*
X611079Y496977D01*
X611063Y496849D01*
X611067Y496819D01*
X611064Y496789D01*
X611087Y496661D01*
X611103Y496533D01*
X611114Y496505D01*
X611119Y496476D01*
X611172Y496358D01*
X611220Y496237D01*
X611237Y496213D01*
X611249Y496186D01*
X611330Y496085D01*
X611406Y495980D01*
X611429Y495961D01*
X611448Y495937D01*
X611552Y495859D01*
X611651Y495777D01*
X611678Y495764D01*
X611702Y495746D01*
X611847Y495675D01*
X614872Y494422D01*
X618374Y490920D01*
X620269Y486346D01*
X620269Y481394D01*
X618374Y476820D01*
X614872Y473318D01*
X610298Y471423D01*
X605346Y471423D01*
G37*
%LPD*%
%LPC*%
G36*
X682036Y768476D02*
X682036Y768476D01*
X675081Y771357D01*
X669757Y776681D01*
X666876Y783636D01*
X666876Y791164D01*
X669757Y798119D01*
X675081Y803443D01*
X682036Y806324D01*
X689564Y806324D01*
X696519Y803443D01*
X701843Y798119D01*
X704724Y791164D01*
X704724Y783636D01*
X701843Y776681D01*
X696519Y771357D01*
X689564Y768476D01*
X682036Y768476D01*
G37*
%LPD*%
%LPC*%
G36*
X224836Y768476D02*
X224836Y768476D01*
X217881Y771357D01*
X212557Y776681D01*
X209676Y783636D01*
X209676Y791164D01*
X212557Y798119D01*
X217881Y803443D01*
X224836Y806324D01*
X232364Y806324D01*
X239319Y803443D01*
X244643Y798119D01*
X247524Y791164D01*
X247524Y783636D01*
X244643Y776681D01*
X239319Y771357D01*
X232364Y768476D01*
X224836Y768476D01*
G37*
%LPD*%
%LPC*%
G36*
X682036Y438276D02*
X682036Y438276D01*
X675081Y441157D01*
X669757Y446481D01*
X666876Y453436D01*
X666876Y460964D01*
X669757Y467919D01*
X675081Y473243D01*
X682036Y476124D01*
X689564Y476124D01*
X696519Y473243D01*
X701843Y467919D01*
X704724Y460964D01*
X704724Y453436D01*
X701843Y446481D01*
X696519Y441157D01*
X689564Y438276D01*
X682036Y438276D01*
G37*
%LPD*%
%LPC*%
G36*
X224836Y438276D02*
X224836Y438276D01*
X217881Y441157D01*
X212557Y446481D01*
X209676Y453436D01*
X209676Y460964D01*
X212557Y467919D01*
X217881Y473243D01*
X224836Y476124D01*
X232364Y476124D01*
X239319Y473243D01*
X244643Y467919D01*
X247524Y460964D01*
X247524Y453436D01*
X244643Y446481D01*
X239319Y441157D01*
X232364Y438276D01*
X224836Y438276D01*
G37*
%LPD*%
%LPC*%
G36*
X378878Y573531D02*
X378878Y573531D01*
X374957Y575155D01*
X371955Y578157D01*
X370331Y582078D01*
X370331Y586322D01*
X371955Y590243D01*
X374957Y593245D01*
X378878Y594869D01*
X383122Y594869D01*
X387043Y593245D01*
X390045Y590243D01*
X391669Y586322D01*
X391669Y582078D01*
X390045Y578157D01*
X387043Y575155D01*
X383122Y573531D01*
X378878Y573531D01*
G37*
%LPD*%
%LPC*%
G36*
X404278Y573531D02*
X404278Y573531D01*
X400357Y575155D01*
X397355Y578157D01*
X395731Y582078D01*
X395731Y586322D01*
X397355Y590243D01*
X400357Y593245D01*
X404278Y594869D01*
X408522Y594869D01*
X412443Y593245D01*
X415445Y590243D01*
X417069Y586322D01*
X417069Y582078D01*
X415445Y578157D01*
X412443Y575155D01*
X408522Y573531D01*
X404278Y573531D01*
G37*
%LPD*%
%LPC*%
G36*
X632878Y725931D02*
X632878Y725931D01*
X628957Y727555D01*
X625955Y730557D01*
X624331Y734478D01*
X624331Y738722D01*
X625955Y742643D01*
X628957Y745645D01*
X632878Y747269D01*
X637122Y747269D01*
X641043Y745645D01*
X644045Y742643D01*
X645669Y738722D01*
X645669Y734478D01*
X644045Y730557D01*
X641043Y727555D01*
X637122Y725931D01*
X632878Y725931D01*
G37*
%LPD*%
%LPC*%
G36*
X429678Y573531D02*
X429678Y573531D01*
X425757Y575155D01*
X422755Y578157D01*
X421131Y582078D01*
X421131Y586322D01*
X422755Y590243D01*
X425757Y593245D01*
X429678Y594869D01*
X433922Y594869D01*
X437843Y593245D01*
X440845Y590243D01*
X442469Y586322D01*
X442469Y582078D01*
X440845Y578157D01*
X437843Y575155D01*
X433922Y573531D01*
X429678Y573531D01*
G37*
%LPD*%
%LPC*%
G36*
X455078Y573531D02*
X455078Y573531D01*
X451157Y575155D01*
X448155Y578157D01*
X446531Y582078D01*
X446531Y586322D01*
X448155Y590243D01*
X451157Y593245D01*
X455078Y594869D01*
X459322Y594869D01*
X463243Y593245D01*
X466245Y590243D01*
X467869Y586322D01*
X467869Y582078D01*
X466245Y578157D01*
X463243Y575155D01*
X459322Y573531D01*
X455078Y573531D01*
G37*
%LPD*%
%LPC*%
G36*
X378878Y725931D02*
X378878Y725931D01*
X374957Y727555D01*
X371955Y730557D01*
X370331Y734478D01*
X370331Y738722D01*
X371955Y742643D01*
X374957Y745645D01*
X378878Y747269D01*
X383122Y747269D01*
X387043Y745645D01*
X390045Y742643D01*
X391669Y738722D01*
X391669Y734478D01*
X390045Y730557D01*
X387043Y727555D01*
X383122Y725931D01*
X378878Y725931D01*
G37*
%LPD*%
%LPC*%
G36*
X353478Y725931D02*
X353478Y725931D01*
X349557Y727555D01*
X346555Y730557D01*
X344931Y734478D01*
X344931Y738722D01*
X346555Y742643D01*
X349557Y745645D01*
X353478Y747269D01*
X357722Y747269D01*
X361643Y745645D01*
X364645Y742643D01*
X366269Y738722D01*
X366269Y734478D01*
X364645Y730557D01*
X361643Y727555D01*
X357722Y725931D01*
X353478Y725931D01*
G37*
%LPD*%
%LPC*%
G36*
X277278Y725931D02*
X277278Y725931D01*
X273357Y727555D01*
X270355Y730557D01*
X268731Y734478D01*
X268731Y738722D01*
X270355Y742643D01*
X273357Y745645D01*
X277278Y747269D01*
X281522Y747269D01*
X285443Y745645D01*
X288445Y742643D01*
X290069Y738722D01*
X290069Y734478D01*
X288445Y730557D01*
X285443Y727555D01*
X281522Y725931D01*
X277278Y725931D01*
G37*
%LPD*%
%LPC*%
G36*
X505878Y573531D02*
X505878Y573531D01*
X501957Y575155D01*
X498955Y578157D01*
X497331Y582078D01*
X497331Y586322D01*
X498955Y590243D01*
X501957Y593245D01*
X505878Y594869D01*
X510122Y594869D01*
X514043Y593245D01*
X517045Y590243D01*
X518669Y586322D01*
X518669Y582078D01*
X517045Y578157D01*
X514043Y575155D01*
X510122Y573531D01*
X505878Y573531D01*
G37*
%LPD*%
%LPC*%
G36*
X531278Y573531D02*
X531278Y573531D01*
X527357Y575155D01*
X524355Y578157D01*
X522731Y582078D01*
X522731Y586322D01*
X524355Y590243D01*
X527357Y593245D01*
X531278Y594869D01*
X535522Y594869D01*
X539443Y593245D01*
X542445Y590243D01*
X544069Y586322D01*
X544069Y582078D01*
X542445Y578157D01*
X539443Y575155D01*
X535522Y573531D01*
X531278Y573531D01*
G37*
%LPD*%
%LPC*%
G36*
X328078Y573531D02*
X328078Y573531D01*
X324157Y575155D01*
X321155Y578157D01*
X319531Y582078D01*
X319531Y586322D01*
X321155Y590243D01*
X324157Y593245D01*
X328078Y594869D01*
X332322Y594869D01*
X336243Y593245D01*
X339245Y590243D01*
X340869Y586322D01*
X340869Y582078D01*
X339245Y578157D01*
X336243Y575155D01*
X332322Y573531D01*
X328078Y573531D01*
G37*
%LPD*%
%LPC*%
G36*
X582078Y573531D02*
X582078Y573531D01*
X578157Y575155D01*
X575155Y578157D01*
X573531Y582078D01*
X573531Y586322D01*
X575155Y590243D01*
X578157Y593245D01*
X582078Y594869D01*
X586322Y594869D01*
X590243Y593245D01*
X593245Y590243D01*
X594869Y586322D01*
X594869Y582078D01*
X593245Y578157D01*
X590243Y575155D01*
X586322Y573531D01*
X582078Y573531D01*
G37*
%LPD*%
%LPC*%
G36*
X277278Y573531D02*
X277278Y573531D01*
X273357Y575155D01*
X270355Y578157D01*
X268731Y582078D01*
X268731Y586322D01*
X270355Y590243D01*
X273357Y593245D01*
X277278Y594869D01*
X281522Y594869D01*
X285443Y593245D01*
X288445Y590243D01*
X290069Y586322D01*
X290069Y582078D01*
X288445Y578157D01*
X285443Y575155D01*
X281522Y573531D01*
X277278Y573531D01*
G37*
%LPD*%
%LPC*%
G36*
X302678Y573531D02*
X302678Y573531D01*
X298757Y575155D01*
X295755Y578157D01*
X294131Y582078D01*
X294131Y586322D01*
X295755Y590243D01*
X298757Y593245D01*
X302678Y594869D01*
X306922Y594869D01*
X310843Y593245D01*
X313845Y590243D01*
X315469Y586322D01*
X315469Y582078D01*
X313845Y578157D01*
X310843Y575155D01*
X306922Y573531D01*
X302678Y573531D01*
G37*
%LPD*%
%LPC*%
G36*
X353478Y573531D02*
X353478Y573531D01*
X349557Y575155D01*
X346555Y578157D01*
X344931Y582078D01*
X344931Y586322D01*
X346555Y590243D01*
X349557Y593245D01*
X353478Y594869D01*
X357722Y594869D01*
X361643Y593245D01*
X364645Y590243D01*
X366269Y586322D01*
X366269Y582078D01*
X364645Y578157D01*
X361643Y575155D01*
X357722Y573531D01*
X353478Y573531D01*
G37*
%LPD*%
%LPC*%
G36*
X482599Y509269D02*
X482599Y509269D01*
X482599Y529591D01*
X492517Y529591D01*
X492448Y529156D01*
X491830Y527255D01*
X490923Y525473D01*
X489748Y523856D01*
X488334Y522442D01*
X486717Y521267D01*
X485330Y520561D01*
X485297Y520539D01*
X485261Y520523D01*
X485166Y520449D01*
X485067Y520382D01*
X485041Y520352D01*
X485009Y520328D01*
X484936Y520233D01*
X484857Y520144D01*
X484839Y520108D01*
X484814Y520077D01*
X484767Y519967D01*
X484712Y519860D01*
X484704Y519821D01*
X484688Y519785D01*
X484669Y519667D01*
X484643Y519550D01*
X484644Y519510D01*
X484638Y519471D01*
X484649Y519352D01*
X484653Y519232D01*
X484664Y519194D01*
X484667Y519154D01*
X484708Y519041D01*
X484741Y518927D01*
X484761Y518892D01*
X484775Y518855D01*
X484842Y518756D01*
X484903Y518653D01*
X484931Y518625D01*
X484953Y518592D01*
X485043Y518513D01*
X485128Y518428D01*
X485162Y518407D01*
X485192Y518381D01*
X485330Y518299D01*
X486717Y517593D01*
X488334Y516418D01*
X489748Y515004D01*
X490923Y513387D01*
X491830Y511605D01*
X492448Y509704D01*
X492517Y509269D01*
X482599Y509269D01*
G37*
%LPD*%
%LPC*%
G36*
X467603Y509269D02*
X467603Y509269D01*
X467672Y509704D01*
X468290Y511605D01*
X469197Y513387D01*
X470372Y515004D01*
X471786Y516418D01*
X473403Y517593D01*
X474790Y518299D01*
X474823Y518321D01*
X474859Y518337D01*
X474954Y518410D01*
X475053Y518478D01*
X475079Y518508D01*
X475111Y518532D01*
X475184Y518627D01*
X475263Y518716D01*
X475281Y518752D01*
X475306Y518783D01*
X475353Y518893D01*
X475408Y519000D01*
X475416Y519038D01*
X475432Y519075D01*
X475451Y519193D01*
X475477Y519310D01*
X475476Y519350D01*
X475482Y519389D01*
X475471Y519508D01*
X475467Y519628D01*
X475456Y519666D01*
X475453Y519706D01*
X475412Y519818D01*
X475379Y519933D01*
X475359Y519968D01*
X475345Y520005D01*
X475278Y520104D01*
X475217Y520207D01*
X475189Y520235D01*
X475167Y520268D01*
X475077Y520348D01*
X474992Y520432D01*
X474958Y520452D01*
X474928Y520479D01*
X474790Y520561D01*
X473403Y521267D01*
X471786Y522442D01*
X470372Y523856D01*
X469197Y525473D01*
X468290Y527255D01*
X467672Y529156D01*
X467603Y529591D01*
X477521Y529591D01*
X477521Y509269D01*
X467603Y509269D01*
G37*
%LPD*%
%LPC*%
G36*
X444499Y523239D02*
X444499Y523239D01*
X444499Y531623D01*
X451202Y531623D01*
X452900Y531354D01*
X454535Y530823D01*
X456067Y530042D01*
X457458Y529031D01*
X458673Y527816D01*
X459684Y526425D01*
X460465Y524893D01*
X460996Y523258D01*
X460999Y523239D01*
X444499Y523239D01*
G37*
%LPD*%
%LPC*%
G36*
X422921Y523239D02*
X422921Y523239D01*
X422924Y523258D01*
X423455Y524893D01*
X424236Y526425D01*
X425247Y527816D01*
X426462Y529031D01*
X427853Y530042D01*
X429385Y530823D01*
X431020Y531354D01*
X432718Y531623D01*
X439421Y531623D01*
X439421Y523239D01*
X422921Y523239D01*
G37*
%LPD*%
%LPC*%
G36*
X444499Y509777D02*
X444499Y509777D01*
X444499Y518161D01*
X460999Y518161D01*
X460996Y518142D01*
X460465Y516507D01*
X459684Y514975D01*
X458673Y513584D01*
X457458Y512369D01*
X456067Y511358D01*
X454535Y510577D01*
X452900Y510046D01*
X451202Y509777D01*
X444499Y509777D01*
G37*
%LPD*%
%LPC*%
G36*
X432718Y509777D02*
X432718Y509777D01*
X431020Y510046D01*
X429385Y510577D01*
X427853Y511358D01*
X426462Y512369D01*
X425247Y513584D01*
X424236Y514975D01*
X423455Y516507D01*
X422924Y518142D01*
X422921Y518161D01*
X439421Y518161D01*
X439421Y509777D01*
X432718Y509777D01*
G37*
%LPD*%
%LPC*%
G36*
X549655Y544321D02*
X549655Y544321D01*
X549655Y552573D01*
X556215Y552573D01*
X557893Y552307D01*
X559508Y551782D01*
X561022Y551011D01*
X562396Y550013D01*
X563597Y548812D01*
X564595Y547438D01*
X565366Y545924D01*
X565887Y544321D01*
X549655Y544321D01*
G37*
%LPD*%
%LPC*%
G36*
X528345Y544321D02*
X528345Y544321D01*
X528866Y545924D01*
X529637Y547438D01*
X530635Y548812D01*
X531836Y550013D01*
X533210Y551011D01*
X534724Y551782D01*
X536339Y552307D01*
X538017Y552573D01*
X544577Y552573D01*
X544577Y544321D01*
X528345Y544321D01*
G37*
%LPD*%
%LPC*%
G36*
X549655Y530991D02*
X549655Y530991D01*
X549655Y539243D01*
X565887Y539243D01*
X565366Y537640D01*
X564595Y536126D01*
X563597Y534752D01*
X562396Y533551D01*
X561022Y532553D01*
X559508Y531782D01*
X557893Y531257D01*
X556215Y530991D01*
X549655Y530991D01*
G37*
%LPD*%
%LPC*%
G36*
X538017Y530991D02*
X538017Y530991D01*
X536339Y531257D01*
X534724Y531782D01*
X533210Y532553D01*
X531836Y533551D01*
X530635Y534752D01*
X529637Y536126D01*
X528866Y537640D01*
X528345Y539243D01*
X544577Y539243D01*
X544577Y530991D01*
X538017Y530991D01*
G37*
%LPD*%
%LPC*%
G36*
X610361Y511809D02*
X610361Y511809D01*
X610361Y520955D01*
X610618Y520915D01*
X612405Y520334D01*
X614079Y519481D01*
X615600Y518376D01*
X616928Y517048D01*
X618033Y515527D01*
X618886Y513853D01*
X619467Y512066D01*
X619507Y511809D01*
X610361Y511809D01*
G37*
%LPD*%
%LPC*%
G36*
X407415Y777239D02*
X407415Y777239D01*
X407455Y777496D01*
X408036Y779283D01*
X408889Y780957D01*
X409994Y782478D01*
X411322Y783806D01*
X412843Y784911D01*
X414517Y785764D01*
X416304Y786345D01*
X416561Y786385D01*
X416561Y777239D01*
X407415Y777239D01*
G37*
%LPD*%
%LPC*%
G36*
X255015Y777239D02*
X255015Y777239D01*
X255055Y777496D01*
X255636Y779283D01*
X256489Y780957D01*
X257594Y782478D01*
X258922Y783806D01*
X260443Y784911D01*
X262117Y785764D01*
X263904Y786345D01*
X264161Y786385D01*
X264161Y777239D01*
X255015Y777239D01*
G37*
%LPD*%
%LPC*%
G36*
X585215Y777239D02*
X585215Y777239D01*
X585255Y777496D01*
X585836Y779283D01*
X586689Y780957D01*
X587794Y782478D01*
X589122Y783806D01*
X590643Y784911D01*
X592317Y785764D01*
X594104Y786345D01*
X594361Y786385D01*
X594361Y777239D01*
X585215Y777239D01*
G37*
%LPD*%
%LPC*%
G36*
X596137Y511809D02*
X596137Y511809D01*
X596177Y512066D01*
X596758Y513853D01*
X597611Y515527D01*
X598716Y517048D01*
X600044Y518376D01*
X601565Y519481D01*
X603239Y520334D01*
X605026Y520915D01*
X605283Y520955D01*
X605283Y511809D01*
X596137Y511809D01*
G37*
%LPD*%
%LPC*%
G36*
X594104Y763055D02*
X594104Y763055D01*
X592317Y763636D01*
X590643Y764489D01*
X589122Y765594D01*
X587794Y766922D01*
X586689Y768443D01*
X585836Y770117D01*
X585255Y771904D01*
X585215Y772161D01*
X594361Y772161D01*
X594361Y763015D01*
X594104Y763055D01*
G37*
%LPD*%
%LPC*%
G36*
X416304Y763055D02*
X416304Y763055D01*
X414517Y763636D01*
X412843Y764489D01*
X411322Y765594D01*
X409994Y766922D01*
X408889Y768443D01*
X408036Y770117D01*
X407455Y771904D01*
X407415Y772161D01*
X416561Y772161D01*
X416561Y763015D01*
X416304Y763055D01*
G37*
%LPD*%
%LPC*%
G36*
X612139Y586739D02*
X612139Y586739D01*
X612139Y594059D01*
X613500Y593616D01*
X614925Y592890D01*
X616219Y591950D01*
X617350Y590819D01*
X618290Y589525D01*
X619016Y588100D01*
X619459Y586739D01*
X612139Y586739D01*
G37*
%LPD*%
%LPC*%
G36*
X599741Y586739D02*
X599741Y586739D01*
X600184Y588100D01*
X600910Y589525D01*
X601850Y590819D01*
X602981Y591950D01*
X604275Y592890D01*
X605700Y593616D01*
X607061Y594059D01*
X607061Y586739D01*
X599741Y586739D01*
G37*
%LPD*%
%LPC*%
G36*
X561339Y734061D02*
X561339Y734061D01*
X568659Y734061D01*
X568216Y732700D01*
X567490Y731275D01*
X566550Y729981D01*
X565419Y728850D01*
X564125Y727910D01*
X562700Y727184D01*
X561339Y726741D01*
X561339Y734061D01*
G37*
%LPD*%
%LPC*%
G36*
X605700Y574784D02*
X605700Y574784D01*
X604275Y575510D01*
X602981Y576450D01*
X601850Y577581D01*
X600910Y578875D01*
X600184Y580300D01*
X599741Y581661D01*
X607061Y581661D01*
X607061Y574341D01*
X605700Y574784D01*
G37*
%LPD*%
%LPC*%
G36*
X554900Y727184D02*
X554900Y727184D01*
X553475Y727910D01*
X552181Y728850D01*
X551050Y729981D01*
X550110Y731275D01*
X549384Y732700D01*
X548941Y734061D01*
X556261Y734061D01*
X556261Y726741D01*
X554900Y727184D01*
G37*
%LPD*%
%LPC*%
G36*
X609599Y584199D02*
X609599Y584199D01*
X609599Y584201D01*
X609601Y584201D01*
X609601Y584199D01*
X609599Y584199D01*
G37*
%LPD*%
%LPC*%
G36*
X547115Y541781D02*
X547115Y541781D01*
X547115Y541783D01*
X547117Y541783D01*
X547117Y541781D01*
X547115Y541781D01*
G37*
%LPD*%
%LPC*%
G36*
X441959Y520699D02*
X441959Y520699D01*
X441959Y520701D01*
X441961Y520701D01*
X441961Y520699D01*
X441959Y520699D01*
G37*
%LPD*%
D10*
X480060Y478790D03*
X480060Y506730D03*
X480060Y560070D03*
X480060Y532130D03*
D11*
X419100Y774700D03*
X444500Y774700D03*
X469900Y774700D03*
X495300Y774700D03*
X317500Y774700D03*
X292100Y774700D03*
X266700Y774700D03*
D12*
X457200Y736600D03*
X482600Y736600D03*
X508000Y736600D03*
X533400Y736600D03*
X558800Y736600D03*
X584200Y736600D03*
X431800Y736600D03*
X406400Y736600D03*
X381000Y736600D03*
X355600Y736600D03*
X330200Y736600D03*
X304800Y736600D03*
X279400Y736600D03*
X609600Y736600D03*
X635000Y736600D03*
X457200Y584200D03*
X431800Y584200D03*
X406400Y584200D03*
X381000Y584200D03*
X355600Y584200D03*
X330200Y584200D03*
X482600Y584200D03*
X508000Y584200D03*
X533400Y584200D03*
X558800Y584200D03*
X584200Y584200D03*
X609600Y584200D03*
X635000Y584200D03*
X304800Y584200D03*
X279400Y584200D03*
D11*
X647700Y774700D03*
X622300Y774700D03*
X596900Y774700D03*
D13*
X450342Y495300D02*
X433578Y495300D01*
X433578Y520700D02*
X450342Y520700D01*
X450342Y546100D02*
X433578Y546100D01*
D11*
X607822Y509270D03*
X607822Y483870D03*
D14*
X555366Y541782D02*
X538866Y541782D01*
X538866Y516382D02*
X555366Y516382D01*
X555366Y490982D02*
X538866Y490982D01*
D15*
X480060Y560070D02*
X455930Y560070D01*
X441960Y546100D01*
X228600Y571500D02*
X228600Y736600D01*
X254000Y546100D02*
X441960Y546100D01*
X622300Y774700D02*
X622300Y790787D01*
X612987Y800100D01*
X317500Y800100D01*
X292100Y774700D01*
X228600Y571500D02*
X254000Y546100D01*
X273304Y755904D02*
X292100Y774700D01*
X273304Y755904D02*
X254000Y755904D01*
X247904Y755904D01*
X228600Y736600D01*
X627380Y754380D02*
X647700Y774700D01*
X627380Y754380D02*
X521970Y754380D01*
X508000Y740410D01*
X508000Y736600D01*
X495300Y749300D02*
X495300Y774700D01*
X495300Y749300D02*
X482600Y736600D01*
X482600Y685800D01*
X558800Y609600D01*
X558800Y584200D01*
X480060Y478790D02*
X458470Y478790D01*
X441960Y495300D01*
X521716Y516382D02*
X547116Y516382D01*
X521716Y516382D02*
X484124Y478790D01*
X480060Y478790D01*
X567182Y516382D02*
X635000Y584200D01*
X567182Y516382D02*
X547116Y516382D01*
X317500Y749300D02*
X317500Y774700D01*
X317500Y749300D02*
X304800Y736600D01*
X431800Y736600D02*
X469900Y774700D01*
X444500Y774700D02*
X406400Y736600D01*
X600710Y490982D02*
X607822Y483870D01*
X600710Y490982D02*
X547116Y490982D01*
M02*
