G04 EAGLE Gerber RS-274X export*
G75*
%MOMM*%
%FSLAX34Y34*%
%LPD*%
%INSoldermask Top*%
%IPPOS*%
%AMOC8*
5,1,8,0,0,1.08239X$1,22.5*%
G01*
%ADD10R,13.716000X10.160000*%
%ADD11C,3.378200*%
%ADD12C,2.082800*%
%ADD13C,1.727200*%
%ADD14C,1.879600*%
%ADD15C,1.853200*%

G36*
X480208Y501633D02*
X480208Y501633D01*
X480299Y501632D01*
X481263Y501763D01*
X481311Y501779D01*
X481400Y501798D01*
X482311Y502140D01*
X482354Y502166D01*
X482438Y502205D01*
X483249Y502742D01*
X483285Y502777D01*
X483358Y502833D01*
X484030Y503537D01*
X484058Y503579D01*
X484116Y503650D01*
X484614Y504486D01*
X484615Y504489D01*
X484617Y504491D01*
X484623Y504510D01*
X484632Y504533D01*
X484672Y504615D01*
X484972Y505541D01*
X484979Y505591D01*
X485001Y505680D01*
X485087Y506649D01*
X485083Y506696D01*
X485086Y506771D01*
X484984Y507747D01*
X484970Y507795D01*
X484954Y507885D01*
X484638Y508814D01*
X484614Y508858D01*
X484577Y508943D01*
X484063Y509778D01*
X484029Y509815D01*
X483975Y509890D01*
X483287Y510590D01*
X483246Y510619D01*
X483177Y510679D01*
X482350Y511208D01*
X482304Y511227D01*
X482223Y511271D01*
X481300Y511603D01*
X481250Y511611D01*
X481161Y511636D01*
X480187Y511754D01*
X480137Y511751D01*
X480051Y511755D01*
X479049Y511660D01*
X479000Y511646D01*
X478910Y511630D01*
X477954Y511314D01*
X477909Y511290D01*
X477825Y511255D01*
X476964Y510733D01*
X476926Y510700D01*
X476851Y510647D01*
X476127Y509947D01*
X476098Y509906D01*
X476037Y509837D01*
X475487Y508994D01*
X475467Y508948D01*
X475423Y508867D01*
X475075Y507923D01*
X475066Y507873D01*
X475041Y507785D01*
X474911Y506787D01*
X474913Y506744D01*
X474912Y506618D01*
X475051Y505607D01*
X475067Y505559D01*
X475086Y505469D01*
X475448Y504514D01*
X475474Y504471D01*
X475513Y504387D01*
X476077Y503537D01*
X476112Y503500D01*
X476169Y503428D01*
X476909Y502724D01*
X476951Y502696D01*
X477022Y502638D01*
X477900Y502117D01*
X477947Y502099D01*
X478029Y502058D01*
X479001Y501745D01*
X479051Y501738D01*
X479140Y501717D01*
X480158Y501628D01*
X480208Y501633D01*
G37*
G36*
X480208Y473642D02*
X480208Y473642D01*
X480299Y473641D01*
X481263Y473772D01*
X481311Y473788D01*
X481400Y473807D01*
X482311Y474149D01*
X482354Y474175D01*
X482438Y474214D01*
X483249Y474751D01*
X483285Y474786D01*
X483358Y474842D01*
X484030Y475546D01*
X484058Y475588D01*
X484116Y475659D01*
X484614Y476495D01*
X484615Y476498D01*
X484617Y476500D01*
X484623Y476519D01*
X484632Y476542D01*
X484672Y476624D01*
X484972Y477550D01*
X484979Y477600D01*
X485001Y477689D01*
X485087Y478658D01*
X485083Y478705D01*
X485086Y478780D01*
X484984Y479756D01*
X484970Y479804D01*
X484954Y479894D01*
X484638Y480823D01*
X484614Y480867D01*
X484577Y480952D01*
X484063Y481787D01*
X484029Y481824D01*
X483975Y481899D01*
X483287Y482599D01*
X483246Y482628D01*
X483177Y482688D01*
X482350Y483217D01*
X482304Y483236D01*
X482223Y483280D01*
X481300Y483612D01*
X481250Y483620D01*
X481161Y483645D01*
X480187Y483763D01*
X480137Y483760D01*
X480051Y483764D01*
X479049Y483669D01*
X479000Y483655D01*
X478910Y483639D01*
X477954Y483323D01*
X477909Y483299D01*
X477825Y483264D01*
X476964Y482742D01*
X476926Y482709D01*
X476851Y482656D01*
X476127Y481956D01*
X476098Y481915D01*
X476037Y481846D01*
X475487Y481003D01*
X475467Y480957D01*
X475423Y480876D01*
X475075Y479932D01*
X475066Y479882D01*
X475041Y479794D01*
X474911Y478796D01*
X474913Y478753D01*
X474912Y478627D01*
X475051Y477616D01*
X475067Y477568D01*
X475086Y477478D01*
X475448Y476523D01*
X475474Y476480D01*
X475513Y476396D01*
X476077Y475546D01*
X476112Y475509D01*
X476169Y475437D01*
X476909Y474733D01*
X476951Y474705D01*
X477022Y474647D01*
X477900Y474126D01*
X477947Y474108D01*
X478029Y474067D01*
X479001Y473754D01*
X479051Y473747D01*
X479140Y473726D01*
X480158Y473637D01*
X480208Y473642D01*
G37*
G36*
X481071Y555191D02*
X481071Y555191D01*
X481120Y555205D01*
X481210Y555221D01*
X482166Y555537D01*
X482211Y555561D01*
X482295Y555597D01*
X483156Y556118D01*
X483194Y556151D01*
X483269Y556204D01*
X483993Y556904D01*
X484022Y556945D01*
X484083Y557014D01*
X484633Y557857D01*
X484653Y557903D01*
X484697Y557984D01*
X485045Y558928D01*
X485054Y558978D01*
X485079Y559066D01*
X485209Y560064D01*
X485207Y560107D01*
X485208Y560233D01*
X485069Y561244D01*
X485053Y561292D01*
X485034Y561382D01*
X484672Y562337D01*
X484646Y562380D01*
X484608Y562464D01*
X484043Y563314D01*
X484008Y563351D01*
X483951Y563423D01*
X483212Y564127D01*
X483169Y564155D01*
X483098Y564213D01*
X482220Y564734D01*
X482173Y564752D01*
X482091Y564793D01*
X481119Y565106D01*
X481069Y565113D01*
X480980Y565134D01*
X479962Y565223D01*
X479912Y565218D01*
X479821Y565219D01*
X478857Y565088D01*
X478809Y565072D01*
X478720Y565053D01*
X477809Y564711D01*
X477766Y564685D01*
X477683Y564646D01*
X476871Y564109D01*
X476835Y564074D01*
X476762Y564018D01*
X476090Y563314D01*
X476063Y563272D01*
X476004Y563201D01*
X475506Y562366D01*
X475488Y562318D01*
X475448Y562236D01*
X475148Y561311D01*
X475141Y561260D01*
X475119Y561171D01*
X475033Y560202D01*
X475037Y560155D01*
X475034Y560080D01*
X475136Y559104D01*
X475150Y559056D01*
X475166Y558966D01*
X475482Y558037D01*
X475507Y557993D01*
X475543Y557908D01*
X476057Y557073D01*
X476091Y557036D01*
X476145Y556961D01*
X476833Y556262D01*
X476874Y556232D01*
X476943Y556172D01*
X477770Y555643D01*
X477816Y555624D01*
X477897Y555580D01*
X478820Y555248D01*
X478870Y555240D01*
X478959Y555215D01*
X479933Y555097D01*
X479983Y555100D01*
X480069Y555096D01*
X481071Y555191D01*
G37*
G36*
X481071Y527200D02*
X481071Y527200D01*
X481120Y527214D01*
X481210Y527230D01*
X482166Y527546D01*
X482211Y527570D01*
X482295Y527606D01*
X483156Y528127D01*
X483194Y528160D01*
X483269Y528213D01*
X483993Y528913D01*
X484022Y528954D01*
X484083Y529023D01*
X484633Y529866D01*
X484653Y529912D01*
X484697Y529993D01*
X485045Y530937D01*
X485054Y530987D01*
X485079Y531075D01*
X485209Y532073D01*
X485207Y532116D01*
X485208Y532242D01*
X485069Y533253D01*
X485053Y533301D01*
X485034Y533391D01*
X484672Y534346D01*
X484646Y534389D01*
X484608Y534473D01*
X484043Y535323D01*
X484008Y535360D01*
X483951Y535432D01*
X483212Y536136D01*
X483169Y536164D01*
X483098Y536222D01*
X482220Y536743D01*
X482173Y536761D01*
X482091Y536802D01*
X481119Y537115D01*
X481069Y537122D01*
X480980Y537143D01*
X479962Y537232D01*
X479912Y537227D01*
X479821Y537228D01*
X478857Y537097D01*
X478809Y537081D01*
X478720Y537062D01*
X477809Y536720D01*
X477766Y536694D01*
X477683Y536655D01*
X476871Y536118D01*
X476835Y536083D01*
X476762Y536027D01*
X476090Y535323D01*
X476063Y535281D01*
X476004Y535210D01*
X475506Y534375D01*
X475488Y534327D01*
X475448Y534245D01*
X475148Y533320D01*
X475141Y533269D01*
X475119Y533180D01*
X475033Y532211D01*
X475037Y532164D01*
X475034Y532089D01*
X475136Y531113D01*
X475150Y531065D01*
X475166Y530975D01*
X475482Y530046D01*
X475507Y530002D01*
X475543Y529917D01*
X476057Y529082D01*
X476091Y529045D01*
X476145Y528970D01*
X476833Y528271D01*
X476874Y528241D01*
X476943Y528181D01*
X477770Y527652D01*
X477816Y527633D01*
X477897Y527589D01*
X478820Y527257D01*
X478870Y527249D01*
X478959Y527224D01*
X479933Y527106D01*
X479983Y527109D01*
X480069Y527105D01*
X481071Y527200D01*
G37*
D10*
X327660Y520700D03*
D11*
X228600Y457200D03*
X685800Y457200D03*
X685800Y787400D03*
X228600Y787400D03*
D12*
X419100Y774700D03*
X444500Y774700D03*
X469900Y774700D03*
X495300Y774700D03*
X317500Y774700D03*
X292100Y774700D03*
X266700Y774700D03*
D13*
X457200Y736600D03*
X482600Y736600D03*
X508000Y736600D03*
X533400Y736600D03*
X558800Y736600D03*
X584200Y736600D03*
X431800Y736600D03*
X406400Y736600D03*
X381000Y736600D03*
X355600Y736600D03*
X330200Y736600D03*
X304800Y736600D03*
X279400Y736600D03*
X609600Y736600D03*
X635000Y736600D03*
X457200Y584200D03*
X431800Y584200D03*
X406400Y584200D03*
X381000Y584200D03*
X355600Y584200D03*
X330200Y584200D03*
X482600Y584200D03*
X508000Y584200D03*
X533400Y584200D03*
X558800Y584200D03*
X584200Y584200D03*
X609600Y584200D03*
X635000Y584200D03*
X304800Y584200D03*
X279400Y584200D03*
D12*
X647700Y774700D03*
X622300Y774700D03*
X596900Y774700D03*
D14*
X450342Y495300D02*
X433578Y495300D01*
X433578Y520700D02*
X450342Y520700D01*
X450342Y546100D02*
X433578Y546100D01*
D12*
X607822Y509270D03*
X607822Y483870D03*
D15*
X555366Y541782D02*
X538866Y541782D01*
X538866Y516382D02*
X555366Y516382D01*
X555366Y490982D02*
X538866Y490982D01*
M02*
