G04 EAGLE Gerber RS-274X export*
G75*
%MOMM*%
%FSLAX34Y34*%
%LPD*%
%IN*%
%IPPOS*%
%AMOC8*
5,1,8,0,0,1.08239X$1,22.5*%
G01*
%ADD10C,0.254000*%


D10*
X203200Y431800D02*
X711200Y431800D01*
X711200Y812800D01*
X203200Y812800D01*
X203200Y431800D01*
X244475Y456680D02*
X244407Y455643D01*
X244271Y454613D01*
X244069Y453593D01*
X243800Y452589D01*
X243465Y451605D01*
X243068Y450645D01*
X242608Y449713D01*
X242088Y448812D01*
X241511Y447948D01*
X240878Y447124D01*
X240193Y446342D01*
X239458Y445607D01*
X238676Y444922D01*
X237852Y444289D01*
X236988Y443712D01*
X236087Y443192D01*
X235155Y442732D01*
X234195Y442335D01*
X233211Y442000D01*
X232207Y441731D01*
X231187Y441529D01*
X230157Y441393D01*
X229120Y441325D01*
X228080Y441325D01*
X227043Y441393D01*
X226013Y441529D01*
X224993Y441731D01*
X223989Y442000D01*
X223005Y442335D01*
X222045Y442732D01*
X221113Y443192D01*
X220212Y443712D01*
X219348Y444289D01*
X218524Y444922D01*
X217742Y445607D01*
X217007Y446342D01*
X216322Y447124D01*
X215689Y447948D01*
X215112Y448812D01*
X214592Y449713D01*
X214132Y450645D01*
X213735Y451605D01*
X213400Y452589D01*
X213131Y453593D01*
X212929Y454613D01*
X212793Y455643D01*
X212725Y456680D01*
X212725Y457720D01*
X212793Y458757D01*
X212929Y459787D01*
X213131Y460807D01*
X213400Y461811D01*
X213735Y462795D01*
X214132Y463755D01*
X214592Y464687D01*
X215112Y465588D01*
X215689Y466452D01*
X216322Y467276D01*
X217007Y468058D01*
X217742Y468793D01*
X218524Y469478D01*
X219348Y470111D01*
X220212Y470688D01*
X221113Y471208D01*
X222045Y471668D01*
X223005Y472065D01*
X223989Y472400D01*
X224993Y472669D01*
X226013Y472871D01*
X227043Y473007D01*
X228080Y473075D01*
X229120Y473075D01*
X230157Y473007D01*
X231187Y472871D01*
X232207Y472669D01*
X233211Y472400D01*
X234195Y472065D01*
X235155Y471668D01*
X236087Y471208D01*
X236988Y470688D01*
X237852Y470111D01*
X238676Y469478D01*
X239458Y468793D01*
X240193Y468058D01*
X240878Y467276D01*
X241511Y466452D01*
X242088Y465588D01*
X242608Y464687D01*
X243068Y463755D01*
X243465Y462795D01*
X243800Y461811D01*
X244069Y460807D01*
X244271Y459787D01*
X244407Y458757D01*
X244475Y457720D01*
X244475Y456680D01*
X701675Y456680D02*
X701607Y455643D01*
X701471Y454613D01*
X701269Y453593D01*
X701000Y452589D01*
X700665Y451605D01*
X700268Y450645D01*
X699808Y449713D01*
X699288Y448812D01*
X698711Y447948D01*
X698078Y447124D01*
X697393Y446342D01*
X696658Y445607D01*
X695876Y444922D01*
X695052Y444289D01*
X694188Y443712D01*
X693287Y443192D01*
X692355Y442732D01*
X691395Y442335D01*
X690411Y442000D01*
X689407Y441731D01*
X688387Y441529D01*
X687357Y441393D01*
X686320Y441325D01*
X685280Y441325D01*
X684243Y441393D01*
X683213Y441529D01*
X682193Y441731D01*
X681189Y442000D01*
X680205Y442335D01*
X679245Y442732D01*
X678313Y443192D01*
X677412Y443712D01*
X676548Y444289D01*
X675724Y444922D01*
X674942Y445607D01*
X674207Y446342D01*
X673522Y447124D01*
X672889Y447948D01*
X672312Y448812D01*
X671792Y449713D01*
X671332Y450645D01*
X670935Y451605D01*
X670600Y452589D01*
X670331Y453593D01*
X670129Y454613D01*
X669993Y455643D01*
X669925Y456680D01*
X669925Y457720D01*
X669993Y458757D01*
X670129Y459787D01*
X670331Y460807D01*
X670600Y461811D01*
X670935Y462795D01*
X671332Y463755D01*
X671792Y464687D01*
X672312Y465588D01*
X672889Y466452D01*
X673522Y467276D01*
X674207Y468058D01*
X674942Y468793D01*
X675724Y469478D01*
X676548Y470111D01*
X677412Y470688D01*
X678313Y471208D01*
X679245Y471668D01*
X680205Y472065D01*
X681189Y472400D01*
X682193Y472669D01*
X683213Y472871D01*
X684243Y473007D01*
X685280Y473075D01*
X686320Y473075D01*
X687357Y473007D01*
X688387Y472871D01*
X689407Y472669D01*
X690411Y472400D01*
X691395Y472065D01*
X692355Y471668D01*
X693287Y471208D01*
X694188Y470688D01*
X695052Y470111D01*
X695876Y469478D01*
X696658Y468793D01*
X697393Y468058D01*
X698078Y467276D01*
X698711Y466452D01*
X699288Y465588D01*
X699808Y464687D01*
X700268Y463755D01*
X700665Y462795D01*
X701000Y461811D01*
X701269Y460807D01*
X701471Y459787D01*
X701607Y458757D01*
X701675Y457720D01*
X701675Y456680D01*
X701675Y786880D02*
X701607Y785843D01*
X701471Y784813D01*
X701269Y783793D01*
X701000Y782789D01*
X700665Y781805D01*
X700268Y780845D01*
X699808Y779913D01*
X699288Y779012D01*
X698711Y778148D01*
X698078Y777324D01*
X697393Y776542D01*
X696658Y775807D01*
X695876Y775122D01*
X695052Y774489D01*
X694188Y773912D01*
X693287Y773392D01*
X692355Y772932D01*
X691395Y772535D01*
X690411Y772200D01*
X689407Y771931D01*
X688387Y771729D01*
X687357Y771593D01*
X686320Y771525D01*
X685280Y771525D01*
X684243Y771593D01*
X683213Y771729D01*
X682193Y771931D01*
X681189Y772200D01*
X680205Y772535D01*
X679245Y772932D01*
X678313Y773392D01*
X677412Y773912D01*
X676548Y774489D01*
X675724Y775122D01*
X674942Y775807D01*
X674207Y776542D01*
X673522Y777324D01*
X672889Y778148D01*
X672312Y779012D01*
X671792Y779913D01*
X671332Y780845D01*
X670935Y781805D01*
X670600Y782789D01*
X670331Y783793D01*
X670129Y784813D01*
X669993Y785843D01*
X669925Y786880D01*
X669925Y787920D01*
X669993Y788957D01*
X670129Y789987D01*
X670331Y791007D01*
X670600Y792011D01*
X670935Y792995D01*
X671332Y793955D01*
X671792Y794887D01*
X672312Y795788D01*
X672889Y796652D01*
X673522Y797476D01*
X674207Y798258D01*
X674942Y798993D01*
X675724Y799678D01*
X676548Y800311D01*
X677412Y800888D01*
X678313Y801408D01*
X679245Y801868D01*
X680205Y802265D01*
X681189Y802600D01*
X682193Y802869D01*
X683213Y803071D01*
X684243Y803207D01*
X685280Y803275D01*
X686320Y803275D01*
X687357Y803207D01*
X688387Y803071D01*
X689407Y802869D01*
X690411Y802600D01*
X691395Y802265D01*
X692355Y801868D01*
X693287Y801408D01*
X694188Y800888D01*
X695052Y800311D01*
X695876Y799678D01*
X696658Y798993D01*
X697393Y798258D01*
X698078Y797476D01*
X698711Y796652D01*
X699288Y795788D01*
X699808Y794887D01*
X700268Y793955D01*
X700665Y792995D01*
X701000Y792011D01*
X701269Y791007D01*
X701471Y789987D01*
X701607Y788957D01*
X701675Y787920D01*
X701675Y786880D01*
X244475Y786880D02*
X244407Y785843D01*
X244271Y784813D01*
X244069Y783793D01*
X243800Y782789D01*
X243465Y781805D01*
X243068Y780845D01*
X242608Y779913D01*
X242088Y779012D01*
X241511Y778148D01*
X240878Y777324D01*
X240193Y776542D01*
X239458Y775807D01*
X238676Y775122D01*
X237852Y774489D01*
X236988Y773912D01*
X236087Y773392D01*
X235155Y772932D01*
X234195Y772535D01*
X233211Y772200D01*
X232207Y771931D01*
X231187Y771729D01*
X230157Y771593D01*
X229120Y771525D01*
X228080Y771525D01*
X227043Y771593D01*
X226013Y771729D01*
X224993Y771931D01*
X223989Y772200D01*
X223005Y772535D01*
X222045Y772932D01*
X221113Y773392D01*
X220212Y773912D01*
X219348Y774489D01*
X218524Y775122D01*
X217742Y775807D01*
X217007Y776542D01*
X216322Y777324D01*
X215689Y778148D01*
X215112Y779012D01*
X214592Y779913D01*
X214132Y780845D01*
X213735Y781805D01*
X213400Y782789D01*
X213131Y783793D01*
X212929Y784813D01*
X212793Y785843D01*
X212725Y786880D01*
X212725Y787920D01*
X212793Y788957D01*
X212929Y789987D01*
X213131Y791007D01*
X213400Y792011D01*
X213735Y792995D01*
X214132Y793955D01*
X214592Y794887D01*
X215112Y795788D01*
X215689Y796652D01*
X216322Y797476D01*
X217007Y798258D01*
X217742Y798993D01*
X218524Y799678D01*
X219348Y800311D01*
X220212Y800888D01*
X221113Y801408D01*
X222045Y801868D01*
X223005Y802265D01*
X223989Y802600D01*
X224993Y802869D01*
X226013Y803071D01*
X227043Y803207D01*
X228080Y803275D01*
X229120Y803275D01*
X230157Y803207D01*
X231187Y803071D01*
X232207Y802869D01*
X233211Y802600D01*
X234195Y802265D01*
X235155Y801868D01*
X236087Y801408D01*
X236988Y800888D01*
X237852Y800311D01*
X238676Y799678D01*
X239458Y798993D01*
X240193Y798258D01*
X240878Y797476D01*
X241511Y796652D01*
X242088Y795788D01*
X242608Y794887D01*
X243068Y793955D01*
X243465Y792995D01*
X243800Y792011D01*
X244069Y791007D01*
X244271Y789987D01*
X244407Y788957D01*
X244475Y787920D01*
X244475Y786880D01*
M02*
