G04 EAGLE Gerber RS-274X export*
G75*
%MOMM*%
%FSLAX34Y34*%
%LPD*%
%INSilkscreen Top*%
%IPPOS*%
%AMOC8*
5,1,8,0,0,1.08239X$1,22.5*%
G01*
%ADD10C,0.203200*%
%ADD11C,0.152400*%
%ADD12C,0.508000*%
%ADD13C,0.101600*%
%ADD14C,0.076200*%
%ADD15C,0.254000*%
%ADD16C,0.050800*%
%ADD17R,0.635000X0.762000*%
%ADD18R,2.794000X1.270000*%
%ADD19C,0.177800*%


D10*
X583184Y610616D02*
X559816Y610616D01*
X583184Y623598D01*
X559816Y623598D01*
X559816Y638682D02*
X583184Y630893D01*
X583184Y646471D02*
X559816Y638682D01*
X577342Y644524D02*
X577342Y632840D01*
X583184Y653765D02*
X559816Y653765D01*
X583184Y666748D01*
X559816Y666748D01*
X566307Y675340D02*
X576693Y675340D01*
X566307Y675340D02*
X566148Y675342D01*
X565989Y675348D01*
X565829Y675358D01*
X565671Y675371D01*
X565512Y675389D01*
X565355Y675410D01*
X565197Y675436D01*
X565041Y675465D01*
X564885Y675498D01*
X564730Y675535D01*
X564576Y675575D01*
X564423Y675620D01*
X564271Y675668D01*
X564120Y675719D01*
X563971Y675775D01*
X563823Y675834D01*
X563677Y675897D01*
X563532Y675963D01*
X563389Y676033D01*
X563247Y676106D01*
X563108Y676183D01*
X562970Y676263D01*
X562834Y676347D01*
X562701Y676434D01*
X562569Y676524D01*
X562440Y676617D01*
X562314Y676714D01*
X562189Y676813D01*
X562067Y676916D01*
X561948Y677021D01*
X561831Y677130D01*
X561717Y677241D01*
X561606Y677355D01*
X561497Y677472D01*
X561392Y677591D01*
X561289Y677713D01*
X561190Y677838D01*
X561093Y677964D01*
X561000Y678093D01*
X560910Y678225D01*
X560823Y678358D01*
X560739Y678494D01*
X560659Y678632D01*
X560582Y678771D01*
X560509Y678913D01*
X560439Y679056D01*
X560373Y679201D01*
X560310Y679347D01*
X560251Y679495D01*
X560195Y679644D01*
X560144Y679795D01*
X560096Y679947D01*
X560051Y680100D01*
X560011Y680254D01*
X559974Y680409D01*
X559941Y680565D01*
X559912Y680721D01*
X559886Y680879D01*
X559865Y681036D01*
X559847Y681195D01*
X559834Y681353D01*
X559824Y681513D01*
X559818Y681672D01*
X559816Y681831D01*
X559818Y681990D01*
X559824Y682149D01*
X559834Y682309D01*
X559847Y682467D01*
X559865Y682626D01*
X559886Y682783D01*
X559912Y682941D01*
X559941Y683097D01*
X559974Y683253D01*
X560011Y683408D01*
X560051Y683562D01*
X560096Y683715D01*
X560144Y683867D01*
X560195Y684018D01*
X560251Y684167D01*
X560310Y684315D01*
X560373Y684461D01*
X560439Y684606D01*
X560509Y684749D01*
X560582Y684891D01*
X560659Y685030D01*
X560739Y685168D01*
X560823Y685304D01*
X560910Y685437D01*
X561000Y685569D01*
X561093Y685698D01*
X561190Y685824D01*
X561289Y685949D01*
X561392Y686071D01*
X561497Y686190D01*
X561606Y686307D01*
X561717Y686421D01*
X561831Y686532D01*
X561948Y686641D01*
X562067Y686746D01*
X562189Y686849D01*
X562314Y686948D01*
X562440Y687045D01*
X562569Y687138D01*
X562701Y687228D01*
X562834Y687315D01*
X562970Y687399D01*
X563108Y687479D01*
X563247Y687556D01*
X563389Y687629D01*
X563532Y687699D01*
X563677Y687765D01*
X563823Y687828D01*
X563971Y687887D01*
X564120Y687943D01*
X564271Y687994D01*
X564423Y688042D01*
X564576Y688087D01*
X564730Y688127D01*
X564885Y688164D01*
X565041Y688197D01*
X565197Y688226D01*
X565355Y688252D01*
X565512Y688273D01*
X565671Y688291D01*
X565829Y688304D01*
X565989Y688314D01*
X566148Y688320D01*
X566307Y688322D01*
X576693Y688322D01*
X576852Y688320D01*
X577011Y688314D01*
X577171Y688304D01*
X577329Y688291D01*
X577488Y688273D01*
X577645Y688252D01*
X577803Y688226D01*
X577959Y688197D01*
X578115Y688164D01*
X578270Y688127D01*
X578424Y688087D01*
X578577Y688042D01*
X578729Y687994D01*
X578880Y687943D01*
X579029Y687887D01*
X579177Y687828D01*
X579323Y687765D01*
X579468Y687699D01*
X579611Y687629D01*
X579753Y687556D01*
X579892Y687479D01*
X580030Y687399D01*
X580166Y687315D01*
X580299Y687228D01*
X580431Y687138D01*
X580560Y687045D01*
X580686Y686948D01*
X580811Y686849D01*
X580933Y686746D01*
X581052Y686641D01*
X581169Y686532D01*
X581283Y686421D01*
X581394Y686307D01*
X581503Y686190D01*
X581608Y686071D01*
X581711Y685949D01*
X581810Y685824D01*
X581907Y685698D01*
X582000Y685569D01*
X582090Y685437D01*
X582177Y685304D01*
X582261Y685168D01*
X582341Y685030D01*
X582418Y684891D01*
X582491Y684749D01*
X582561Y684606D01*
X582627Y684461D01*
X582690Y684315D01*
X582749Y684167D01*
X582805Y684018D01*
X582856Y683867D01*
X582904Y683715D01*
X582949Y683562D01*
X582989Y683408D01*
X583026Y683253D01*
X583059Y683097D01*
X583088Y682941D01*
X583114Y682783D01*
X583135Y682626D01*
X583153Y682467D01*
X583166Y682309D01*
X583176Y682149D01*
X583182Y681990D01*
X583184Y681831D01*
X583182Y681672D01*
X583176Y681513D01*
X583166Y681353D01*
X583153Y681195D01*
X583135Y681036D01*
X583114Y680879D01*
X583088Y680721D01*
X583059Y680565D01*
X583026Y680409D01*
X582989Y680254D01*
X582949Y680100D01*
X582904Y679947D01*
X582856Y679795D01*
X582805Y679644D01*
X582749Y679495D01*
X582690Y679347D01*
X582627Y679201D01*
X582561Y679056D01*
X582491Y678913D01*
X582418Y678771D01*
X582341Y678632D01*
X582261Y678494D01*
X582177Y678358D01*
X582090Y678225D01*
X582000Y678093D01*
X581907Y677964D01*
X581810Y677838D01*
X581711Y677713D01*
X581608Y677591D01*
X581503Y677472D01*
X581394Y677355D01*
X581283Y677241D01*
X581169Y677130D01*
X581052Y677021D01*
X580933Y676916D01*
X580811Y676813D01*
X580686Y676714D01*
X580560Y676617D01*
X580431Y676524D01*
X580299Y676434D01*
X580166Y676347D01*
X580030Y676263D01*
X579892Y676183D01*
X579753Y676106D01*
X579611Y676033D01*
X579468Y675963D01*
X579323Y675897D01*
X579177Y675834D01*
X579029Y675775D01*
X578880Y675719D01*
X578729Y675668D01*
X578577Y675620D01*
X578424Y675575D01*
X578270Y675535D01*
X578115Y675498D01*
X577959Y675465D01*
X577803Y675436D01*
X577645Y675410D01*
X577488Y675389D01*
X577329Y675371D01*
X577171Y675358D01*
X577011Y675348D01*
X576852Y675342D01*
X576693Y675340D01*
X422402Y646290D02*
X422402Y635904D01*
X399034Y635904D01*
X399034Y646290D01*
X409420Y643694D02*
X409420Y635904D01*
X399034Y653999D02*
X422402Y653999D01*
X422402Y664385D01*
X422402Y676543D02*
X422402Y681736D01*
X422402Y676543D02*
X422400Y676400D01*
X422394Y676257D01*
X422384Y676114D01*
X422370Y675972D01*
X422353Y675830D01*
X422331Y675688D01*
X422306Y675547D01*
X422276Y675407D01*
X422243Y675268D01*
X422206Y675130D01*
X422165Y674993D01*
X422121Y674857D01*
X422072Y674722D01*
X422020Y674589D01*
X421965Y674457D01*
X421905Y674327D01*
X421842Y674198D01*
X421776Y674071D01*
X421706Y673947D01*
X421633Y673824D01*
X421556Y673703D01*
X421476Y673584D01*
X421393Y673468D01*
X421307Y673353D01*
X421218Y673242D01*
X421125Y673132D01*
X421030Y673026D01*
X420931Y672922D01*
X420830Y672821D01*
X420726Y672722D01*
X420620Y672627D01*
X420510Y672534D01*
X420399Y672445D01*
X420284Y672359D01*
X420168Y672276D01*
X420049Y672196D01*
X419928Y672119D01*
X419806Y672046D01*
X419681Y671976D01*
X419554Y671910D01*
X419425Y671847D01*
X419295Y671787D01*
X419163Y671732D01*
X419030Y671680D01*
X418895Y671631D01*
X418759Y671587D01*
X418622Y671546D01*
X418484Y671509D01*
X418345Y671476D01*
X418205Y671446D01*
X418064Y671421D01*
X417922Y671399D01*
X417780Y671382D01*
X417638Y671368D01*
X417495Y671358D01*
X417352Y671352D01*
X417209Y671350D01*
X404227Y671350D01*
X404084Y671352D01*
X403941Y671358D01*
X403798Y671368D01*
X403656Y671382D01*
X403514Y671399D01*
X403372Y671421D01*
X403231Y671446D01*
X403091Y671476D01*
X402952Y671509D01*
X402814Y671546D01*
X402677Y671587D01*
X402541Y671631D01*
X402406Y671680D01*
X402273Y671732D01*
X402141Y671787D01*
X402011Y671847D01*
X401882Y671910D01*
X401755Y671976D01*
X401631Y672046D01*
X401508Y672119D01*
X401387Y672196D01*
X401268Y672275D01*
X401152Y672359D01*
X401037Y672445D01*
X400926Y672534D01*
X400817Y672627D01*
X400710Y672722D01*
X400606Y672821D01*
X400505Y672922D01*
X400406Y673026D01*
X400311Y673132D01*
X400218Y673242D01*
X400129Y673353D01*
X400043Y673467D01*
X399960Y673584D01*
X399880Y673703D01*
X399803Y673824D01*
X399730Y673946D01*
X399660Y674071D01*
X399594Y674198D01*
X399531Y674327D01*
X399471Y674457D01*
X399416Y674589D01*
X399364Y674722D01*
X399315Y674857D01*
X399271Y674993D01*
X399230Y675130D01*
X399193Y675268D01*
X399160Y675407D01*
X399130Y675547D01*
X399105Y675688D01*
X399083Y675830D01*
X399066Y675972D01*
X399052Y676114D01*
X399042Y676257D01*
X399036Y676400D01*
X399034Y676543D01*
X399034Y681736D01*
X451838Y639205D02*
X451838Y632714D01*
X451838Y639205D02*
X451840Y639364D01*
X451846Y639523D01*
X451856Y639683D01*
X451869Y639841D01*
X451887Y640000D01*
X451908Y640157D01*
X451934Y640315D01*
X451963Y640471D01*
X451996Y640627D01*
X452033Y640782D01*
X452073Y640936D01*
X452118Y641089D01*
X452166Y641241D01*
X452217Y641392D01*
X452273Y641541D01*
X452332Y641689D01*
X452395Y641835D01*
X452461Y641980D01*
X452531Y642123D01*
X452604Y642265D01*
X452681Y642404D01*
X452761Y642542D01*
X452845Y642678D01*
X452932Y642811D01*
X453022Y642943D01*
X453115Y643072D01*
X453212Y643198D01*
X453311Y643323D01*
X453414Y643445D01*
X453519Y643564D01*
X453628Y643681D01*
X453739Y643795D01*
X453853Y643906D01*
X453970Y644015D01*
X454089Y644120D01*
X454211Y644223D01*
X454336Y644322D01*
X454462Y644419D01*
X454591Y644512D01*
X454723Y644602D01*
X454856Y644689D01*
X454992Y644773D01*
X455130Y644853D01*
X455269Y644930D01*
X455411Y645003D01*
X455554Y645073D01*
X455699Y645139D01*
X455845Y645202D01*
X455993Y645261D01*
X456142Y645317D01*
X456293Y645368D01*
X456445Y645416D01*
X456598Y645461D01*
X456752Y645501D01*
X456907Y645538D01*
X457063Y645571D01*
X457219Y645600D01*
X457377Y645626D01*
X457534Y645647D01*
X457693Y645665D01*
X457851Y645678D01*
X458011Y645688D01*
X458170Y645694D01*
X458329Y645696D01*
X458488Y645694D01*
X458647Y645688D01*
X458807Y645678D01*
X458965Y645665D01*
X459124Y645647D01*
X459281Y645626D01*
X459439Y645600D01*
X459595Y645571D01*
X459751Y645538D01*
X459906Y645501D01*
X460060Y645461D01*
X460213Y645416D01*
X460365Y645368D01*
X460516Y645317D01*
X460665Y645261D01*
X460813Y645202D01*
X460959Y645139D01*
X461104Y645073D01*
X461247Y645003D01*
X461389Y644930D01*
X461528Y644853D01*
X461666Y644773D01*
X461802Y644689D01*
X461935Y644602D01*
X462067Y644512D01*
X462196Y644419D01*
X462322Y644322D01*
X462447Y644223D01*
X462569Y644120D01*
X462688Y644015D01*
X462805Y643906D01*
X462919Y643795D01*
X463030Y643681D01*
X463139Y643564D01*
X463244Y643445D01*
X463347Y643323D01*
X463446Y643198D01*
X463543Y643072D01*
X463636Y642943D01*
X463726Y642811D01*
X463813Y642678D01*
X463897Y642542D01*
X463977Y642404D01*
X464054Y642265D01*
X464127Y642123D01*
X464197Y641980D01*
X464263Y641835D01*
X464326Y641689D01*
X464385Y641541D01*
X464441Y641392D01*
X464492Y641241D01*
X464540Y641089D01*
X464585Y640936D01*
X464625Y640782D01*
X464662Y640627D01*
X464695Y640471D01*
X464724Y640315D01*
X464750Y640157D01*
X464771Y640000D01*
X464789Y639841D01*
X464802Y639683D01*
X464812Y639523D01*
X464818Y639364D01*
X464820Y639205D01*
X464820Y632714D01*
X441452Y632714D01*
X441452Y639205D01*
X441454Y639348D01*
X441460Y639491D01*
X441470Y639634D01*
X441484Y639776D01*
X441501Y639918D01*
X441523Y640060D01*
X441548Y640201D01*
X441578Y640341D01*
X441611Y640480D01*
X441648Y640618D01*
X441689Y640755D01*
X441733Y640891D01*
X441782Y641026D01*
X441834Y641159D01*
X441889Y641291D01*
X441949Y641421D01*
X442012Y641550D01*
X442078Y641677D01*
X442148Y641802D01*
X442221Y641924D01*
X442298Y642045D01*
X442378Y642164D01*
X442461Y642280D01*
X442547Y642395D01*
X442636Y642506D01*
X442729Y642616D01*
X442824Y642722D01*
X442923Y642826D01*
X443024Y642927D01*
X443128Y643026D01*
X443234Y643121D01*
X443344Y643214D01*
X443455Y643303D01*
X443570Y643389D01*
X443686Y643472D01*
X443805Y643552D01*
X443926Y643629D01*
X444049Y643702D01*
X444173Y643772D01*
X444300Y643838D01*
X444429Y643901D01*
X444559Y643961D01*
X444691Y644016D01*
X444824Y644068D01*
X444959Y644117D01*
X445095Y644161D01*
X445232Y644202D01*
X445370Y644239D01*
X445509Y644272D01*
X445649Y644302D01*
X445790Y644327D01*
X445932Y644349D01*
X446074Y644366D01*
X446216Y644380D01*
X446359Y644390D01*
X446502Y644396D01*
X446645Y644398D01*
X446788Y644396D01*
X446931Y644390D01*
X447074Y644380D01*
X447216Y644366D01*
X447358Y644349D01*
X447500Y644327D01*
X447641Y644302D01*
X447781Y644272D01*
X447920Y644239D01*
X448058Y644202D01*
X448195Y644161D01*
X448331Y644117D01*
X448466Y644068D01*
X448599Y644016D01*
X448731Y643961D01*
X448861Y643901D01*
X448990Y643838D01*
X449117Y643772D01*
X449242Y643702D01*
X449364Y643629D01*
X449485Y643552D01*
X449604Y643472D01*
X449720Y643389D01*
X449835Y643303D01*
X449946Y643214D01*
X450056Y643121D01*
X450162Y643026D01*
X450266Y642927D01*
X450367Y642826D01*
X450466Y642722D01*
X450561Y642616D01*
X450654Y642506D01*
X450743Y642395D01*
X450829Y642280D01*
X450912Y642164D01*
X450992Y642045D01*
X451069Y641924D01*
X451142Y641802D01*
X451212Y641677D01*
X451278Y641550D01*
X451341Y641421D01*
X451401Y641291D01*
X451456Y641159D01*
X451508Y641026D01*
X451557Y640891D01*
X451601Y640755D01*
X451642Y640618D01*
X451679Y640480D01*
X451712Y640341D01*
X451742Y640201D01*
X451767Y640060D01*
X451789Y639918D01*
X451806Y639776D01*
X451820Y639634D01*
X451830Y639491D01*
X451836Y639348D01*
X451838Y639205D01*
X441452Y651451D02*
X452487Y659240D01*
X441452Y667030D01*
X452487Y659240D02*
X464820Y659240D01*
X458329Y674324D02*
X441452Y674324D01*
X458329Y674324D02*
X458488Y674326D01*
X458647Y674332D01*
X458807Y674342D01*
X458965Y674355D01*
X459124Y674373D01*
X459281Y674394D01*
X459439Y674420D01*
X459595Y674449D01*
X459751Y674482D01*
X459906Y674519D01*
X460060Y674559D01*
X460213Y674604D01*
X460365Y674652D01*
X460516Y674703D01*
X460665Y674759D01*
X460813Y674818D01*
X460959Y674881D01*
X461104Y674947D01*
X461247Y675017D01*
X461389Y675090D01*
X461528Y675167D01*
X461666Y675247D01*
X461802Y675331D01*
X461935Y675418D01*
X462067Y675508D01*
X462196Y675601D01*
X462322Y675698D01*
X462447Y675797D01*
X462569Y675900D01*
X462688Y676005D01*
X462805Y676114D01*
X462919Y676225D01*
X463030Y676339D01*
X463139Y676456D01*
X463244Y676575D01*
X463347Y676697D01*
X463446Y676822D01*
X463543Y676948D01*
X463636Y677077D01*
X463726Y677209D01*
X463813Y677342D01*
X463897Y677478D01*
X463977Y677616D01*
X464054Y677755D01*
X464127Y677897D01*
X464197Y678040D01*
X464263Y678185D01*
X464326Y678331D01*
X464385Y678479D01*
X464441Y678628D01*
X464492Y678779D01*
X464540Y678931D01*
X464585Y679084D01*
X464625Y679238D01*
X464662Y679393D01*
X464695Y679549D01*
X464724Y679705D01*
X464750Y679863D01*
X464771Y680020D01*
X464789Y680179D01*
X464802Y680337D01*
X464812Y680497D01*
X464818Y680656D01*
X464820Y680815D01*
X464818Y680974D01*
X464812Y681133D01*
X464802Y681293D01*
X464789Y681451D01*
X464771Y681610D01*
X464750Y681767D01*
X464724Y681925D01*
X464695Y682081D01*
X464662Y682237D01*
X464625Y682392D01*
X464585Y682546D01*
X464540Y682699D01*
X464492Y682851D01*
X464441Y683002D01*
X464385Y683151D01*
X464326Y683299D01*
X464263Y683445D01*
X464197Y683590D01*
X464127Y683733D01*
X464054Y683875D01*
X463977Y684014D01*
X463897Y684152D01*
X463813Y684288D01*
X463726Y684421D01*
X463636Y684553D01*
X463543Y684682D01*
X463446Y684808D01*
X463347Y684933D01*
X463244Y685055D01*
X463139Y685174D01*
X463030Y685291D01*
X462919Y685405D01*
X462805Y685516D01*
X462688Y685625D01*
X462569Y685730D01*
X462447Y685833D01*
X462322Y685932D01*
X462196Y686029D01*
X462067Y686122D01*
X461935Y686212D01*
X461802Y686299D01*
X461666Y686383D01*
X461528Y686463D01*
X461389Y686540D01*
X461247Y686613D01*
X461104Y686683D01*
X460959Y686749D01*
X460813Y686812D01*
X460665Y686871D01*
X460516Y686927D01*
X460365Y686978D01*
X460213Y687026D01*
X460060Y687071D01*
X459906Y687111D01*
X459751Y687148D01*
X459595Y687181D01*
X459439Y687210D01*
X459281Y687236D01*
X459124Y687257D01*
X458965Y687275D01*
X458807Y687288D01*
X458647Y687298D01*
X458488Y687304D01*
X458329Y687306D01*
X441452Y687306D01*
D11*
X473710Y608415D02*
X482346Y605536D01*
X482346Y611293D02*
X473710Y608415D01*
X480187Y610574D02*
X480187Y606256D01*
X479947Y615465D02*
X473710Y615465D01*
X479947Y615464D02*
X480044Y615466D01*
X480140Y615472D01*
X480236Y615481D01*
X480332Y615495D01*
X480427Y615512D01*
X480521Y615534D01*
X480614Y615559D01*
X480707Y615587D01*
X480798Y615620D01*
X480887Y615656D01*
X480975Y615696D01*
X481062Y615739D01*
X481147Y615785D01*
X481229Y615835D01*
X481310Y615889D01*
X481388Y615945D01*
X481464Y616005D01*
X481538Y616067D01*
X481609Y616133D01*
X481677Y616201D01*
X481743Y616272D01*
X481805Y616346D01*
X481865Y616422D01*
X481921Y616500D01*
X481975Y616581D01*
X482025Y616664D01*
X482071Y616748D01*
X482114Y616835D01*
X482154Y616923D01*
X482190Y617012D01*
X482223Y617103D01*
X482251Y617196D01*
X482276Y617289D01*
X482298Y617383D01*
X482315Y617478D01*
X482329Y617574D01*
X482338Y617670D01*
X482344Y617766D01*
X482346Y617863D01*
X482344Y617960D01*
X482338Y618056D01*
X482329Y618152D01*
X482315Y618248D01*
X482298Y618343D01*
X482276Y618437D01*
X482251Y618530D01*
X482223Y618623D01*
X482190Y618714D01*
X482154Y618803D01*
X482114Y618891D01*
X482071Y618978D01*
X482025Y619063D01*
X481975Y619145D01*
X481921Y619226D01*
X481865Y619304D01*
X481805Y619380D01*
X481743Y619454D01*
X481677Y619525D01*
X481609Y619593D01*
X481538Y619659D01*
X481464Y619721D01*
X481388Y619781D01*
X481310Y619837D01*
X481229Y619891D01*
X481147Y619941D01*
X481062Y619987D01*
X480975Y620030D01*
X480887Y620070D01*
X480798Y620106D01*
X480707Y620139D01*
X480614Y620167D01*
X480521Y620192D01*
X480427Y620214D01*
X480332Y620231D01*
X480236Y620245D01*
X480140Y620254D01*
X480044Y620260D01*
X479947Y620262D01*
X473710Y620262D01*
X473710Y626703D02*
X482346Y626703D01*
X473710Y629101D02*
X473710Y624304D01*
X476109Y632838D02*
X479947Y632838D01*
X476109Y632838D02*
X476012Y632840D01*
X475916Y632846D01*
X475820Y632855D01*
X475724Y632869D01*
X475629Y632886D01*
X475535Y632908D01*
X475442Y632933D01*
X475349Y632961D01*
X475258Y632994D01*
X475169Y633030D01*
X475081Y633070D01*
X474994Y633113D01*
X474910Y633159D01*
X474827Y633209D01*
X474746Y633263D01*
X474668Y633319D01*
X474592Y633379D01*
X474518Y633441D01*
X474447Y633507D01*
X474379Y633575D01*
X474313Y633646D01*
X474251Y633720D01*
X474191Y633796D01*
X474135Y633874D01*
X474081Y633955D01*
X474031Y634038D01*
X473985Y634122D01*
X473942Y634209D01*
X473902Y634297D01*
X473866Y634386D01*
X473833Y634477D01*
X473805Y634570D01*
X473780Y634663D01*
X473758Y634757D01*
X473741Y634852D01*
X473727Y634948D01*
X473718Y635044D01*
X473712Y635140D01*
X473710Y635237D01*
X473712Y635334D01*
X473718Y635430D01*
X473727Y635526D01*
X473741Y635622D01*
X473758Y635717D01*
X473780Y635811D01*
X473805Y635904D01*
X473833Y635997D01*
X473866Y636088D01*
X473902Y636177D01*
X473942Y636265D01*
X473985Y636352D01*
X474031Y636437D01*
X474081Y636519D01*
X474135Y636600D01*
X474191Y636678D01*
X474251Y636754D01*
X474313Y636828D01*
X474379Y636899D01*
X474447Y636967D01*
X474518Y637033D01*
X474592Y637095D01*
X474668Y637155D01*
X474746Y637211D01*
X474827Y637265D01*
X474910Y637315D01*
X474994Y637361D01*
X475081Y637404D01*
X475169Y637444D01*
X475258Y637480D01*
X475349Y637513D01*
X475442Y637541D01*
X475535Y637566D01*
X475629Y637588D01*
X475724Y637605D01*
X475820Y637619D01*
X475916Y637628D01*
X476012Y637634D01*
X476109Y637636D01*
X479947Y637636D01*
X480044Y637634D01*
X480140Y637628D01*
X480236Y637619D01*
X480332Y637605D01*
X480427Y637588D01*
X480521Y637566D01*
X480614Y637541D01*
X480707Y637513D01*
X480798Y637480D01*
X480887Y637444D01*
X480975Y637404D01*
X481062Y637361D01*
X481147Y637315D01*
X481229Y637265D01*
X481310Y637211D01*
X481388Y637155D01*
X481464Y637095D01*
X481538Y637033D01*
X481609Y636967D01*
X481677Y636899D01*
X481743Y636828D01*
X481805Y636754D01*
X481865Y636678D01*
X481921Y636600D01*
X481975Y636519D01*
X482025Y636437D01*
X482071Y636352D01*
X482114Y636265D01*
X482154Y636177D01*
X482190Y636088D01*
X482223Y635997D01*
X482251Y635904D01*
X482276Y635811D01*
X482298Y635717D01*
X482315Y635622D01*
X482329Y635526D01*
X482338Y635430D01*
X482344Y635334D01*
X482346Y635237D01*
X482344Y635140D01*
X482338Y635044D01*
X482329Y634948D01*
X482315Y634852D01*
X482298Y634757D01*
X482276Y634663D01*
X482251Y634570D01*
X482223Y634477D01*
X482190Y634386D01*
X482154Y634297D01*
X482114Y634209D01*
X482071Y634122D01*
X482025Y634038D01*
X481975Y633955D01*
X481921Y633874D01*
X481865Y633796D01*
X481805Y633720D01*
X481743Y633646D01*
X481677Y633575D01*
X481609Y633507D01*
X481538Y633441D01*
X481464Y633379D01*
X481388Y633319D01*
X481310Y633263D01*
X481229Y633209D01*
X481147Y633159D01*
X481062Y633113D01*
X480975Y633070D01*
X480887Y633030D01*
X480798Y632994D01*
X480707Y632961D01*
X480614Y632933D01*
X480521Y632908D01*
X480427Y632886D01*
X480332Y632869D01*
X480236Y632855D01*
X480140Y632846D01*
X480044Y632840D01*
X479947Y632838D01*
X482346Y642287D02*
X473710Y642287D01*
X482346Y647085D01*
X473710Y647085D01*
X476109Y651736D02*
X479947Y651736D01*
X476109Y651736D02*
X476012Y651738D01*
X475916Y651744D01*
X475820Y651753D01*
X475724Y651767D01*
X475629Y651784D01*
X475535Y651806D01*
X475442Y651831D01*
X475349Y651859D01*
X475258Y651892D01*
X475169Y651928D01*
X475081Y651968D01*
X474994Y652011D01*
X474910Y652057D01*
X474827Y652107D01*
X474746Y652161D01*
X474668Y652217D01*
X474592Y652277D01*
X474518Y652339D01*
X474447Y652405D01*
X474379Y652473D01*
X474313Y652544D01*
X474251Y652618D01*
X474191Y652694D01*
X474135Y652772D01*
X474081Y652853D01*
X474031Y652936D01*
X473985Y653020D01*
X473942Y653107D01*
X473902Y653195D01*
X473866Y653284D01*
X473833Y653375D01*
X473805Y653468D01*
X473780Y653561D01*
X473758Y653655D01*
X473741Y653750D01*
X473727Y653846D01*
X473718Y653942D01*
X473712Y654038D01*
X473710Y654135D01*
X473712Y654232D01*
X473718Y654328D01*
X473727Y654424D01*
X473741Y654520D01*
X473758Y654615D01*
X473780Y654709D01*
X473805Y654802D01*
X473833Y654895D01*
X473866Y654986D01*
X473902Y655075D01*
X473942Y655163D01*
X473985Y655250D01*
X474031Y655335D01*
X474081Y655417D01*
X474135Y655498D01*
X474191Y655576D01*
X474251Y655652D01*
X474313Y655726D01*
X474379Y655797D01*
X474447Y655865D01*
X474518Y655931D01*
X474592Y655993D01*
X474668Y656053D01*
X474746Y656109D01*
X474827Y656163D01*
X474910Y656213D01*
X474994Y656259D01*
X475081Y656302D01*
X475169Y656342D01*
X475258Y656378D01*
X475349Y656411D01*
X475442Y656439D01*
X475535Y656464D01*
X475629Y656486D01*
X475724Y656503D01*
X475820Y656517D01*
X475916Y656526D01*
X476012Y656532D01*
X476109Y656534D01*
X476109Y656533D02*
X479947Y656533D01*
X479947Y656534D02*
X480044Y656532D01*
X480140Y656526D01*
X480236Y656517D01*
X480332Y656503D01*
X480427Y656486D01*
X480521Y656464D01*
X480614Y656439D01*
X480707Y656411D01*
X480798Y656378D01*
X480887Y656342D01*
X480975Y656302D01*
X481062Y656259D01*
X481147Y656213D01*
X481229Y656163D01*
X481310Y656109D01*
X481388Y656053D01*
X481464Y655993D01*
X481538Y655931D01*
X481609Y655865D01*
X481677Y655797D01*
X481743Y655726D01*
X481805Y655652D01*
X481865Y655576D01*
X481921Y655498D01*
X481975Y655417D01*
X482025Y655335D01*
X482071Y655250D01*
X482114Y655163D01*
X482154Y655075D01*
X482190Y654986D01*
X482223Y654895D01*
X482251Y654802D01*
X482276Y654709D01*
X482298Y654615D01*
X482315Y654520D01*
X482329Y654424D01*
X482338Y654328D01*
X482344Y654232D01*
X482346Y654135D01*
X482344Y654038D01*
X482338Y653942D01*
X482329Y653846D01*
X482315Y653750D01*
X482298Y653655D01*
X482276Y653561D01*
X482251Y653468D01*
X482223Y653375D01*
X482190Y653284D01*
X482154Y653195D01*
X482114Y653107D01*
X482071Y653020D01*
X482025Y652936D01*
X481975Y652853D01*
X481921Y652772D01*
X481865Y652694D01*
X481805Y652618D01*
X481743Y652544D01*
X481677Y652473D01*
X481609Y652405D01*
X481538Y652339D01*
X481464Y652277D01*
X481388Y652217D01*
X481310Y652161D01*
X481229Y652107D01*
X481147Y652057D01*
X481062Y652011D01*
X480975Y651968D01*
X480887Y651928D01*
X480798Y651892D01*
X480707Y651859D01*
X480614Y651831D01*
X480521Y651806D01*
X480427Y651784D01*
X480332Y651767D01*
X480236Y651753D01*
X480140Y651744D01*
X480044Y651738D01*
X479947Y651736D01*
X478988Y661009D02*
X478988Y666767D01*
X482346Y671677D02*
X473710Y671677D01*
X478508Y674556D01*
X473710Y677435D01*
X482346Y677435D01*
X479947Y682216D02*
X476109Y682216D01*
X476109Y682215D02*
X476012Y682217D01*
X475916Y682223D01*
X475820Y682232D01*
X475724Y682246D01*
X475629Y682263D01*
X475535Y682285D01*
X475442Y682310D01*
X475349Y682338D01*
X475258Y682371D01*
X475169Y682407D01*
X475081Y682447D01*
X474994Y682490D01*
X474910Y682536D01*
X474827Y682586D01*
X474746Y682640D01*
X474668Y682696D01*
X474592Y682756D01*
X474518Y682818D01*
X474447Y682884D01*
X474379Y682952D01*
X474313Y683023D01*
X474251Y683097D01*
X474191Y683173D01*
X474135Y683251D01*
X474081Y683332D01*
X474031Y683415D01*
X473985Y683499D01*
X473942Y683586D01*
X473902Y683674D01*
X473866Y683763D01*
X473833Y683854D01*
X473805Y683947D01*
X473780Y684040D01*
X473758Y684134D01*
X473741Y684229D01*
X473727Y684325D01*
X473718Y684421D01*
X473712Y684517D01*
X473710Y684614D01*
X473712Y684711D01*
X473718Y684807D01*
X473727Y684903D01*
X473741Y684999D01*
X473758Y685094D01*
X473780Y685188D01*
X473805Y685281D01*
X473833Y685374D01*
X473866Y685465D01*
X473902Y685554D01*
X473942Y685642D01*
X473985Y685729D01*
X474031Y685814D01*
X474081Y685896D01*
X474135Y685977D01*
X474191Y686055D01*
X474251Y686131D01*
X474313Y686205D01*
X474379Y686276D01*
X474447Y686344D01*
X474518Y686410D01*
X474592Y686472D01*
X474668Y686532D01*
X474746Y686588D01*
X474827Y686642D01*
X474910Y686692D01*
X474994Y686738D01*
X475081Y686781D01*
X475169Y686821D01*
X475258Y686857D01*
X475349Y686890D01*
X475442Y686918D01*
X475535Y686943D01*
X475629Y686965D01*
X475724Y686982D01*
X475820Y686996D01*
X475916Y687005D01*
X476012Y687011D01*
X476109Y687013D01*
X479947Y687013D01*
X480044Y687011D01*
X480140Y687005D01*
X480236Y686996D01*
X480332Y686982D01*
X480427Y686965D01*
X480521Y686943D01*
X480614Y686918D01*
X480707Y686890D01*
X480798Y686857D01*
X480887Y686821D01*
X480975Y686781D01*
X481062Y686738D01*
X481147Y686692D01*
X481229Y686642D01*
X481310Y686588D01*
X481388Y686532D01*
X481464Y686472D01*
X481538Y686410D01*
X481609Y686344D01*
X481677Y686276D01*
X481743Y686205D01*
X481805Y686131D01*
X481865Y686055D01*
X481921Y685977D01*
X481975Y685896D01*
X482025Y685814D01*
X482071Y685729D01*
X482114Y685642D01*
X482154Y685554D01*
X482190Y685465D01*
X482223Y685374D01*
X482251Y685281D01*
X482276Y685188D01*
X482298Y685094D01*
X482315Y684999D01*
X482329Y684903D01*
X482338Y684807D01*
X482344Y684711D01*
X482346Y684614D01*
X482344Y684517D01*
X482338Y684421D01*
X482329Y684325D01*
X482315Y684229D01*
X482298Y684134D01*
X482276Y684040D01*
X482251Y683947D01*
X482223Y683854D01*
X482190Y683763D01*
X482154Y683674D01*
X482114Y683586D01*
X482071Y683499D01*
X482025Y683415D01*
X481975Y683332D01*
X481921Y683251D01*
X481865Y683173D01*
X481805Y683097D01*
X481743Y683023D01*
X481677Y682952D01*
X481609Y682884D01*
X481538Y682818D01*
X481464Y682756D01*
X481388Y682696D01*
X481310Y682640D01*
X481229Y682586D01*
X481147Y682536D01*
X481062Y682490D01*
X480975Y682447D01*
X480887Y682407D01*
X480798Y682371D01*
X480707Y682338D01*
X480614Y682310D01*
X480521Y682285D01*
X480427Y682263D01*
X480332Y682246D01*
X480236Y682232D01*
X480140Y682223D01*
X480044Y682217D01*
X479947Y682215D01*
X479947Y691664D02*
X473710Y691664D01*
X479947Y691664D02*
X480044Y691666D01*
X480140Y691672D01*
X480236Y691681D01*
X480332Y691695D01*
X480427Y691712D01*
X480521Y691734D01*
X480614Y691759D01*
X480707Y691787D01*
X480798Y691820D01*
X480887Y691856D01*
X480975Y691896D01*
X481062Y691939D01*
X481147Y691985D01*
X481229Y692035D01*
X481310Y692089D01*
X481388Y692145D01*
X481464Y692205D01*
X481538Y692267D01*
X481609Y692333D01*
X481677Y692401D01*
X481743Y692472D01*
X481805Y692546D01*
X481865Y692622D01*
X481921Y692700D01*
X481975Y692781D01*
X482025Y692864D01*
X482071Y692948D01*
X482114Y693035D01*
X482154Y693123D01*
X482190Y693212D01*
X482223Y693303D01*
X482251Y693396D01*
X482276Y693489D01*
X482298Y693583D01*
X482315Y693678D01*
X482329Y693774D01*
X482338Y693870D01*
X482344Y693966D01*
X482346Y694063D01*
X482344Y694160D01*
X482338Y694256D01*
X482329Y694352D01*
X482315Y694448D01*
X482298Y694543D01*
X482276Y694637D01*
X482251Y694730D01*
X482223Y694823D01*
X482190Y694914D01*
X482154Y695003D01*
X482114Y695091D01*
X482071Y695178D01*
X482025Y695263D01*
X481975Y695345D01*
X481921Y695426D01*
X481865Y695504D01*
X481805Y695580D01*
X481743Y695654D01*
X481677Y695725D01*
X481609Y695793D01*
X481538Y695859D01*
X481464Y695921D01*
X481388Y695981D01*
X481310Y696037D01*
X481229Y696091D01*
X481147Y696141D01*
X481062Y696187D01*
X480975Y696230D01*
X480887Y696270D01*
X480798Y696306D01*
X480707Y696339D01*
X480614Y696367D01*
X480521Y696392D01*
X480427Y696414D01*
X480332Y696431D01*
X480236Y696445D01*
X480140Y696454D01*
X480044Y696460D01*
X479947Y696462D01*
X473710Y696462D01*
X482346Y703687D02*
X482344Y703773D01*
X482338Y703859D01*
X482329Y703945D01*
X482315Y704030D01*
X482298Y704114D01*
X482277Y704198D01*
X482252Y704280D01*
X482224Y704361D01*
X482192Y704441D01*
X482156Y704520D01*
X482117Y704596D01*
X482074Y704671D01*
X482029Y704744D01*
X481980Y704815D01*
X481927Y704883D01*
X481872Y704950D01*
X481814Y705013D01*
X481753Y705074D01*
X481690Y705132D01*
X481623Y705187D01*
X481555Y705240D01*
X481484Y705289D01*
X481411Y705334D01*
X481336Y705377D01*
X481260Y705416D01*
X481181Y705452D01*
X481101Y705484D01*
X481020Y705512D01*
X480938Y705537D01*
X480854Y705558D01*
X480770Y705575D01*
X480685Y705589D01*
X480599Y705598D01*
X480513Y705604D01*
X480427Y705606D01*
X482346Y703687D02*
X482344Y703564D01*
X482339Y703441D01*
X482329Y703318D01*
X482316Y703196D01*
X482299Y703074D01*
X482279Y702952D01*
X482255Y702832D01*
X482227Y702712D01*
X482196Y702593D01*
X482160Y702475D01*
X482122Y702358D01*
X482080Y702242D01*
X482034Y702128D01*
X481985Y702015D01*
X481933Y701904D01*
X481877Y701794D01*
X481818Y701686D01*
X481755Y701580D01*
X481690Y701476D01*
X481621Y701373D01*
X481549Y701273D01*
X481474Y701176D01*
X481397Y701080D01*
X481316Y700987D01*
X481233Y700896D01*
X481147Y700808D01*
X475629Y701048D02*
X475543Y701050D01*
X475457Y701056D01*
X475371Y701065D01*
X475286Y701079D01*
X475202Y701096D01*
X475118Y701117D01*
X475036Y701142D01*
X474955Y701170D01*
X474875Y701202D01*
X474796Y701238D01*
X474720Y701277D01*
X474645Y701320D01*
X474572Y701365D01*
X474501Y701414D01*
X474433Y701467D01*
X474366Y701522D01*
X474303Y701580D01*
X474242Y701641D01*
X474184Y701704D01*
X474129Y701771D01*
X474076Y701839D01*
X474027Y701910D01*
X473982Y701983D01*
X473939Y702058D01*
X473900Y702134D01*
X473864Y702213D01*
X473832Y702293D01*
X473804Y702374D01*
X473779Y702456D01*
X473758Y702540D01*
X473741Y702624D01*
X473727Y702709D01*
X473718Y702795D01*
X473712Y702881D01*
X473710Y702967D01*
X473712Y703083D01*
X473717Y703198D01*
X473727Y703314D01*
X473740Y703429D01*
X473756Y703543D01*
X473777Y703657D01*
X473801Y703771D01*
X473829Y703883D01*
X473860Y703994D01*
X473895Y704105D01*
X473933Y704214D01*
X473975Y704322D01*
X474020Y704428D01*
X474069Y704534D01*
X474121Y704637D01*
X474176Y704739D01*
X474235Y704838D01*
X474297Y704936D01*
X474362Y705032D01*
X474430Y705126D01*
X477308Y702008D02*
X477262Y701933D01*
X477212Y701860D01*
X477159Y701790D01*
X477103Y701722D01*
X477044Y701657D01*
X476982Y701594D01*
X476918Y701535D01*
X476850Y701478D01*
X476780Y701424D01*
X476708Y701374D01*
X476634Y701327D01*
X476558Y701283D01*
X476479Y701243D01*
X476399Y701207D01*
X476318Y701174D01*
X476235Y701145D01*
X476150Y701119D01*
X476065Y701097D01*
X475979Y701080D01*
X475892Y701066D01*
X475805Y701056D01*
X475717Y701050D01*
X475629Y701048D01*
X478748Y704647D02*
X478794Y704721D01*
X478844Y704794D01*
X478897Y704864D01*
X478953Y704932D01*
X479012Y704997D01*
X479074Y705060D01*
X479139Y705119D01*
X479206Y705176D01*
X479276Y705230D01*
X479348Y705280D01*
X479422Y705327D01*
X479498Y705371D01*
X479577Y705411D01*
X479657Y705447D01*
X479738Y705480D01*
X479821Y705510D01*
X479906Y705535D01*
X479991Y705557D01*
X480077Y705574D01*
X480164Y705588D01*
X480251Y705598D01*
X480339Y705604D01*
X480427Y705606D01*
X478748Y704647D02*
X477308Y702008D01*
X482346Y709978D02*
X482346Y713816D01*
X482346Y709978D02*
X473710Y709978D01*
X473710Y713816D01*
X477548Y712857D02*
X477548Y709978D01*
X491829Y605536D02*
X497586Y605536D01*
X491829Y605536D02*
X491829Y608415D01*
X492788Y608415D01*
X497586Y612995D02*
X497586Y615394D01*
X497586Y612995D02*
X497584Y612920D01*
X497578Y612845D01*
X497568Y612770D01*
X497555Y612696D01*
X497537Y612623D01*
X497516Y612550D01*
X497490Y612479D01*
X497462Y612410D01*
X497429Y612342D01*
X497393Y612276D01*
X497354Y612211D01*
X497311Y612149D01*
X497265Y612089D01*
X497216Y612032D01*
X497165Y611977D01*
X497110Y611926D01*
X497053Y611877D01*
X496993Y611831D01*
X496931Y611788D01*
X496867Y611749D01*
X496800Y611713D01*
X496732Y611680D01*
X496663Y611652D01*
X496592Y611626D01*
X496519Y611605D01*
X496446Y611587D01*
X496372Y611574D01*
X496297Y611564D01*
X496222Y611558D01*
X496147Y611556D01*
X493748Y611556D01*
X493662Y611558D01*
X493576Y611564D01*
X493490Y611573D01*
X493405Y611587D01*
X493321Y611604D01*
X493237Y611625D01*
X493155Y611650D01*
X493074Y611678D01*
X492994Y611710D01*
X492915Y611746D01*
X492839Y611785D01*
X492764Y611828D01*
X492691Y611873D01*
X492620Y611922D01*
X492552Y611975D01*
X492485Y612030D01*
X492422Y612088D01*
X492361Y612149D01*
X492303Y612212D01*
X492248Y612279D01*
X492195Y612347D01*
X492146Y612418D01*
X492101Y612491D01*
X492058Y612566D01*
X492019Y612642D01*
X491983Y612721D01*
X491951Y612801D01*
X491923Y612882D01*
X491898Y612964D01*
X491877Y613048D01*
X491860Y613132D01*
X491846Y613217D01*
X491837Y613303D01*
X491831Y613389D01*
X491829Y613475D01*
X491831Y613561D01*
X491837Y613647D01*
X491846Y613733D01*
X491860Y613818D01*
X491877Y613902D01*
X491898Y613986D01*
X491923Y614068D01*
X491951Y614149D01*
X491983Y614229D01*
X492019Y614308D01*
X492058Y614384D01*
X492101Y614459D01*
X492146Y614532D01*
X492195Y614603D01*
X492248Y614671D01*
X492303Y614738D01*
X492361Y614801D01*
X492422Y614862D01*
X492485Y614920D01*
X492552Y614975D01*
X492620Y615028D01*
X492691Y615077D01*
X492764Y615122D01*
X492839Y615165D01*
X492915Y615204D01*
X492994Y615240D01*
X493074Y615272D01*
X493155Y615300D01*
X493237Y615325D01*
X493321Y615346D01*
X493405Y615363D01*
X493490Y615377D01*
X493576Y615386D01*
X493662Y615392D01*
X493748Y615394D01*
X494707Y615394D01*
X494707Y611556D01*
X491829Y619176D02*
X497586Y621095D01*
X491829Y623014D01*
X488950Y634441D02*
X488952Y634533D01*
X488958Y634624D01*
X488967Y634715D01*
X488981Y634806D01*
X488998Y634896D01*
X489020Y634985D01*
X489045Y635073D01*
X489073Y635160D01*
X489106Y635246D01*
X489142Y635330D01*
X489181Y635413D01*
X489224Y635494D01*
X489271Y635573D01*
X489320Y635650D01*
X489373Y635725D01*
X489429Y635797D01*
X489488Y635867D01*
X489550Y635935D01*
X489615Y636000D01*
X489683Y636062D01*
X489753Y636121D01*
X489825Y636177D01*
X489900Y636230D01*
X489977Y636279D01*
X490056Y636326D01*
X490137Y636369D01*
X490220Y636408D01*
X490304Y636444D01*
X490390Y636477D01*
X490477Y636505D01*
X490565Y636530D01*
X490654Y636552D01*
X490744Y636569D01*
X490835Y636583D01*
X490926Y636592D01*
X491017Y636598D01*
X491109Y636600D01*
X488950Y634441D02*
X488952Y634338D01*
X488958Y634236D01*
X488967Y634134D01*
X488980Y634032D01*
X488997Y633931D01*
X489018Y633830D01*
X489042Y633731D01*
X489071Y633632D01*
X489102Y633535D01*
X489138Y633438D01*
X489176Y633343D01*
X489219Y633250D01*
X489265Y633158D01*
X489314Y633068D01*
X489366Y632980D01*
X489422Y632893D01*
X489481Y632809D01*
X489542Y632728D01*
X489607Y632648D01*
X489675Y632571D01*
X489746Y632496D01*
X489819Y632425D01*
X489895Y632356D01*
X489973Y632289D01*
X490054Y632226D01*
X490137Y632166D01*
X490222Y632109D01*
X490309Y632055D01*
X490399Y632004D01*
X490490Y631957D01*
X490582Y631913D01*
X490677Y631872D01*
X490772Y631835D01*
X490869Y631802D01*
X492788Y635880D02*
X492722Y635947D01*
X492653Y636011D01*
X492582Y636072D01*
X492508Y636130D01*
X492432Y636185D01*
X492354Y636237D01*
X492274Y636286D01*
X492192Y636332D01*
X492108Y636374D01*
X492022Y636413D01*
X491935Y636448D01*
X491847Y636479D01*
X491757Y636507D01*
X491667Y636532D01*
X491575Y636553D01*
X491483Y636570D01*
X491390Y636583D01*
X491297Y636592D01*
X491203Y636598D01*
X491109Y636600D01*
X492788Y635880D02*
X497586Y631802D01*
X497586Y636600D01*
X493268Y645823D02*
X493098Y645825D01*
X492928Y645831D01*
X492759Y645841D01*
X492589Y645855D01*
X492420Y645874D01*
X492252Y645896D01*
X492084Y645922D01*
X491917Y645952D01*
X491751Y645987D01*
X491585Y646025D01*
X491420Y646067D01*
X491257Y646113D01*
X491095Y646163D01*
X490933Y646217D01*
X490774Y646274D01*
X490615Y646336D01*
X490458Y646401D01*
X490303Y646470D01*
X490149Y646543D01*
X490073Y646571D01*
X489998Y646603D01*
X489924Y646638D01*
X489852Y646676D01*
X489782Y646718D01*
X489714Y646763D01*
X489648Y646811D01*
X489584Y646862D01*
X489523Y646916D01*
X489464Y646972D01*
X489408Y647032D01*
X489355Y647093D01*
X489305Y647157D01*
X489257Y647224D01*
X489213Y647292D01*
X489172Y647363D01*
X489134Y647435D01*
X489100Y647509D01*
X489069Y647584D01*
X489041Y647661D01*
X489017Y647739D01*
X488997Y647818D01*
X488980Y647898D01*
X488967Y647978D01*
X488957Y648059D01*
X488952Y648140D01*
X488950Y648222D01*
X488952Y648304D01*
X488957Y648385D01*
X488967Y648466D01*
X488980Y648546D01*
X488997Y648626D01*
X489017Y648705D01*
X489041Y648783D01*
X489069Y648860D01*
X489100Y648935D01*
X489134Y649009D01*
X489172Y649081D01*
X489213Y649152D01*
X489257Y649220D01*
X489305Y649287D01*
X489355Y649351D01*
X489408Y649412D01*
X489464Y649472D01*
X489523Y649528D01*
X489584Y649582D01*
X489648Y649633D01*
X489714Y649681D01*
X489782Y649726D01*
X489852Y649768D01*
X489924Y649806D01*
X489998Y649841D01*
X490073Y649873D01*
X490149Y649901D01*
X490303Y649974D01*
X490458Y650043D01*
X490615Y650108D01*
X490774Y650170D01*
X490933Y650227D01*
X491095Y650281D01*
X491257Y650331D01*
X491420Y650377D01*
X491585Y650419D01*
X491751Y650457D01*
X491917Y650492D01*
X492084Y650522D01*
X492252Y650548D01*
X492420Y650570D01*
X492589Y650589D01*
X492759Y650603D01*
X492928Y650613D01*
X493098Y650619D01*
X493268Y650621D01*
X493268Y645823D02*
X493438Y645825D01*
X493608Y645831D01*
X493777Y645841D01*
X493947Y645855D01*
X494116Y645874D01*
X494284Y645896D01*
X494452Y645922D01*
X494619Y645952D01*
X494785Y645987D01*
X494951Y646025D01*
X495116Y646067D01*
X495279Y646113D01*
X495441Y646163D01*
X495603Y646217D01*
X495762Y646274D01*
X495921Y646336D01*
X496078Y646401D01*
X496233Y646470D01*
X496387Y646543D01*
X496463Y646571D01*
X496538Y646603D01*
X496612Y646638D01*
X496684Y646676D01*
X496754Y646718D01*
X496822Y646763D01*
X496888Y646811D01*
X496952Y646862D01*
X497013Y646916D01*
X497072Y646972D01*
X497128Y647032D01*
X497181Y647093D01*
X497231Y647157D01*
X497279Y647224D01*
X497323Y647292D01*
X497364Y647363D01*
X497402Y647435D01*
X497436Y647509D01*
X497467Y647584D01*
X497495Y647661D01*
X497519Y647739D01*
X497539Y647818D01*
X497556Y647898D01*
X497569Y647978D01*
X497579Y648059D01*
X497584Y648140D01*
X497586Y648222D01*
X496387Y649901D02*
X496233Y649974D01*
X496078Y650043D01*
X495921Y650108D01*
X495762Y650170D01*
X495603Y650227D01*
X495441Y650281D01*
X495279Y650331D01*
X495116Y650377D01*
X494951Y650419D01*
X494785Y650457D01*
X494619Y650492D01*
X494452Y650522D01*
X494284Y650548D01*
X494116Y650570D01*
X493947Y650589D01*
X493777Y650603D01*
X493608Y650613D01*
X493438Y650619D01*
X493268Y650621D01*
X496387Y649901D02*
X496463Y649873D01*
X496538Y649841D01*
X496612Y649806D01*
X496684Y649768D01*
X496754Y649726D01*
X496822Y649681D01*
X496888Y649633D01*
X496952Y649582D01*
X497013Y649528D01*
X497072Y649472D01*
X497128Y649412D01*
X497181Y649351D01*
X497231Y649287D01*
X497279Y649220D01*
X497323Y649152D01*
X497364Y649081D01*
X497402Y649009D01*
X497436Y648935D01*
X497467Y648860D01*
X497495Y648783D01*
X497519Y648705D01*
X497539Y648626D01*
X497556Y648546D01*
X497569Y648466D01*
X497579Y648385D01*
X497584Y648304D01*
X497586Y648222D01*
X495667Y646303D02*
X490869Y650141D01*
X497586Y654967D02*
X497586Y657846D01*
X497584Y657932D01*
X497578Y658018D01*
X497569Y658104D01*
X497555Y658189D01*
X497538Y658273D01*
X497517Y658357D01*
X497492Y658439D01*
X497464Y658520D01*
X497432Y658600D01*
X497396Y658679D01*
X497357Y658755D01*
X497314Y658830D01*
X497269Y658903D01*
X497220Y658974D01*
X497167Y659042D01*
X497112Y659109D01*
X497054Y659172D01*
X496993Y659233D01*
X496930Y659291D01*
X496863Y659346D01*
X496795Y659399D01*
X496724Y659448D01*
X496651Y659493D01*
X496576Y659536D01*
X496500Y659575D01*
X496421Y659611D01*
X496341Y659643D01*
X496260Y659671D01*
X496178Y659696D01*
X496094Y659717D01*
X496010Y659734D01*
X495925Y659748D01*
X495839Y659757D01*
X495753Y659763D01*
X495667Y659765D01*
X494707Y659765D01*
X494621Y659763D01*
X494535Y659757D01*
X494449Y659748D01*
X494364Y659734D01*
X494280Y659717D01*
X494196Y659696D01*
X494114Y659671D01*
X494033Y659643D01*
X493953Y659611D01*
X493874Y659575D01*
X493798Y659536D01*
X493723Y659493D01*
X493650Y659448D01*
X493579Y659399D01*
X493511Y659346D01*
X493444Y659291D01*
X493381Y659233D01*
X493320Y659172D01*
X493262Y659109D01*
X493207Y659042D01*
X493155Y658974D01*
X493105Y658903D01*
X493060Y658830D01*
X493017Y658755D01*
X492978Y658679D01*
X492942Y658600D01*
X492910Y658520D01*
X492882Y658439D01*
X492857Y658357D01*
X492836Y658273D01*
X492819Y658189D01*
X492805Y658104D01*
X492796Y658018D01*
X492790Y657932D01*
X492788Y657846D01*
X492788Y654967D01*
X488950Y654967D01*
X488950Y659765D01*
X494228Y664241D02*
X494228Y669998D01*
X488950Y677113D02*
X488952Y677205D01*
X488958Y677296D01*
X488967Y677387D01*
X488981Y677478D01*
X488998Y677568D01*
X489020Y677657D01*
X489045Y677745D01*
X489073Y677832D01*
X489106Y677918D01*
X489142Y678002D01*
X489181Y678085D01*
X489224Y678166D01*
X489271Y678245D01*
X489320Y678322D01*
X489373Y678397D01*
X489429Y678469D01*
X489488Y678539D01*
X489550Y678607D01*
X489615Y678672D01*
X489683Y678734D01*
X489753Y678793D01*
X489825Y678849D01*
X489900Y678902D01*
X489977Y678951D01*
X490056Y678998D01*
X490137Y679041D01*
X490220Y679080D01*
X490304Y679116D01*
X490390Y679149D01*
X490477Y679177D01*
X490565Y679202D01*
X490654Y679224D01*
X490744Y679241D01*
X490835Y679255D01*
X490926Y679264D01*
X491017Y679270D01*
X491109Y679272D01*
X488950Y677113D02*
X488952Y677010D01*
X488958Y676908D01*
X488967Y676806D01*
X488980Y676704D01*
X488997Y676603D01*
X489018Y676502D01*
X489042Y676403D01*
X489071Y676304D01*
X489102Y676207D01*
X489138Y676110D01*
X489176Y676015D01*
X489219Y675922D01*
X489265Y675830D01*
X489314Y675740D01*
X489366Y675652D01*
X489422Y675565D01*
X489481Y675481D01*
X489542Y675400D01*
X489607Y675320D01*
X489675Y675243D01*
X489746Y675168D01*
X489819Y675097D01*
X489895Y675028D01*
X489973Y674961D01*
X490054Y674898D01*
X490137Y674838D01*
X490222Y674781D01*
X490309Y674727D01*
X490399Y674676D01*
X490490Y674629D01*
X490582Y674585D01*
X490677Y674544D01*
X490772Y674507D01*
X490869Y674474D01*
X492788Y678552D02*
X492722Y678619D01*
X492653Y678683D01*
X492582Y678744D01*
X492508Y678802D01*
X492432Y678857D01*
X492354Y678909D01*
X492274Y678958D01*
X492192Y679004D01*
X492108Y679046D01*
X492022Y679085D01*
X491935Y679120D01*
X491847Y679151D01*
X491757Y679179D01*
X491667Y679204D01*
X491575Y679225D01*
X491483Y679242D01*
X491390Y679255D01*
X491297Y679264D01*
X491203Y679270D01*
X491109Y679272D01*
X492788Y678552D02*
X497586Y674474D01*
X497586Y679272D01*
X493268Y683618D02*
X493098Y683620D01*
X492928Y683626D01*
X492759Y683636D01*
X492589Y683650D01*
X492420Y683669D01*
X492252Y683691D01*
X492084Y683717D01*
X491917Y683747D01*
X491751Y683782D01*
X491585Y683820D01*
X491420Y683862D01*
X491257Y683908D01*
X491095Y683958D01*
X490933Y684012D01*
X490774Y684069D01*
X490615Y684131D01*
X490458Y684196D01*
X490303Y684265D01*
X490149Y684338D01*
X490073Y684366D01*
X489998Y684398D01*
X489924Y684433D01*
X489852Y684471D01*
X489782Y684513D01*
X489714Y684558D01*
X489648Y684606D01*
X489584Y684657D01*
X489523Y684711D01*
X489464Y684767D01*
X489408Y684827D01*
X489355Y684888D01*
X489305Y684952D01*
X489257Y685019D01*
X489213Y685087D01*
X489172Y685158D01*
X489134Y685230D01*
X489100Y685304D01*
X489069Y685379D01*
X489041Y685456D01*
X489017Y685534D01*
X488997Y685613D01*
X488980Y685693D01*
X488967Y685773D01*
X488957Y685854D01*
X488952Y685935D01*
X488950Y686017D01*
X488952Y686099D01*
X488957Y686180D01*
X488967Y686261D01*
X488980Y686341D01*
X488997Y686421D01*
X489017Y686500D01*
X489041Y686578D01*
X489069Y686655D01*
X489100Y686730D01*
X489134Y686804D01*
X489172Y686876D01*
X489213Y686947D01*
X489257Y687015D01*
X489305Y687082D01*
X489355Y687146D01*
X489408Y687207D01*
X489464Y687267D01*
X489523Y687323D01*
X489584Y687377D01*
X489648Y687428D01*
X489714Y687476D01*
X489782Y687521D01*
X489852Y687563D01*
X489924Y687601D01*
X489998Y687636D01*
X490073Y687668D01*
X490149Y687696D01*
X490303Y687769D01*
X490458Y687838D01*
X490615Y687903D01*
X490774Y687965D01*
X490933Y688022D01*
X491095Y688076D01*
X491257Y688126D01*
X491420Y688172D01*
X491585Y688214D01*
X491751Y688252D01*
X491917Y688287D01*
X492084Y688317D01*
X492252Y688343D01*
X492420Y688365D01*
X492589Y688384D01*
X492759Y688398D01*
X492928Y688408D01*
X493098Y688414D01*
X493268Y688416D01*
X493268Y683618D02*
X493438Y683620D01*
X493608Y683626D01*
X493777Y683636D01*
X493947Y683650D01*
X494116Y683669D01*
X494284Y683691D01*
X494452Y683717D01*
X494619Y683747D01*
X494785Y683782D01*
X494951Y683820D01*
X495116Y683862D01*
X495279Y683908D01*
X495441Y683958D01*
X495603Y684012D01*
X495762Y684069D01*
X495921Y684131D01*
X496078Y684196D01*
X496233Y684265D01*
X496387Y684338D01*
X496463Y684366D01*
X496538Y684398D01*
X496612Y684433D01*
X496684Y684471D01*
X496754Y684513D01*
X496822Y684558D01*
X496888Y684606D01*
X496952Y684657D01*
X497013Y684711D01*
X497072Y684767D01*
X497128Y684827D01*
X497181Y684888D01*
X497231Y684952D01*
X497279Y685019D01*
X497323Y685087D01*
X497364Y685158D01*
X497402Y685230D01*
X497436Y685304D01*
X497467Y685379D01*
X497495Y685456D01*
X497519Y685534D01*
X497539Y685613D01*
X497556Y685693D01*
X497569Y685773D01*
X497579Y685854D01*
X497584Y685935D01*
X497586Y686017D01*
X496387Y687696D02*
X496233Y687769D01*
X496078Y687838D01*
X495921Y687903D01*
X495762Y687965D01*
X495603Y688022D01*
X495441Y688076D01*
X495279Y688126D01*
X495116Y688172D01*
X494951Y688214D01*
X494785Y688252D01*
X494619Y688287D01*
X494452Y688317D01*
X494284Y688343D01*
X494116Y688365D01*
X493947Y688384D01*
X493777Y688398D01*
X493608Y688408D01*
X493438Y688414D01*
X493268Y688416D01*
X496387Y687696D02*
X496463Y687668D01*
X496538Y687636D01*
X496612Y687601D01*
X496684Y687563D01*
X496754Y687521D01*
X496822Y687476D01*
X496888Y687428D01*
X496952Y687377D01*
X497013Y687323D01*
X497072Y687267D01*
X497128Y687207D01*
X497181Y687146D01*
X497231Y687082D01*
X497279Y687015D01*
X497323Y686947D01*
X497364Y686876D01*
X497402Y686804D01*
X497436Y686730D01*
X497467Y686655D01*
X497495Y686578D01*
X497519Y686500D01*
X497539Y686421D01*
X497556Y686341D01*
X497569Y686261D01*
X497579Y686180D01*
X497584Y686099D01*
X497586Y686017D01*
X495667Y684098D02*
X490869Y687936D01*
X488950Y695401D02*
X488952Y695493D01*
X488958Y695584D01*
X488967Y695675D01*
X488981Y695766D01*
X488998Y695856D01*
X489020Y695945D01*
X489045Y696033D01*
X489073Y696120D01*
X489106Y696206D01*
X489142Y696290D01*
X489181Y696373D01*
X489224Y696454D01*
X489271Y696533D01*
X489320Y696610D01*
X489373Y696685D01*
X489429Y696757D01*
X489488Y696827D01*
X489550Y696895D01*
X489615Y696960D01*
X489683Y697022D01*
X489753Y697081D01*
X489825Y697137D01*
X489900Y697190D01*
X489977Y697239D01*
X490056Y697286D01*
X490137Y697329D01*
X490220Y697368D01*
X490304Y697404D01*
X490390Y697437D01*
X490477Y697465D01*
X490565Y697490D01*
X490654Y697512D01*
X490744Y697529D01*
X490835Y697543D01*
X490926Y697552D01*
X491017Y697558D01*
X491109Y697560D01*
X488950Y695401D02*
X488952Y695298D01*
X488958Y695196D01*
X488967Y695094D01*
X488980Y694992D01*
X488997Y694891D01*
X489018Y694790D01*
X489042Y694691D01*
X489071Y694592D01*
X489102Y694495D01*
X489138Y694398D01*
X489176Y694303D01*
X489219Y694210D01*
X489265Y694118D01*
X489314Y694028D01*
X489366Y693940D01*
X489422Y693853D01*
X489481Y693769D01*
X489542Y693688D01*
X489607Y693608D01*
X489675Y693531D01*
X489746Y693456D01*
X489819Y693385D01*
X489895Y693316D01*
X489973Y693249D01*
X490054Y693186D01*
X490137Y693126D01*
X490222Y693069D01*
X490309Y693015D01*
X490399Y692964D01*
X490490Y692917D01*
X490582Y692873D01*
X490677Y692832D01*
X490772Y692795D01*
X490869Y692762D01*
X492788Y696840D02*
X492722Y696907D01*
X492653Y696971D01*
X492582Y697032D01*
X492508Y697090D01*
X492432Y697145D01*
X492354Y697197D01*
X492274Y697246D01*
X492192Y697292D01*
X492108Y697334D01*
X492022Y697373D01*
X491935Y697408D01*
X491847Y697439D01*
X491757Y697467D01*
X491667Y697492D01*
X491575Y697513D01*
X491483Y697530D01*
X491390Y697543D01*
X491297Y697552D01*
X491203Y697558D01*
X491109Y697560D01*
X492788Y696840D02*
X497586Y692762D01*
X497586Y697560D01*
X490869Y701906D02*
X488950Y704305D01*
X497586Y704305D01*
X497586Y701906D02*
X497586Y706704D01*
D12*
X281432Y637286D02*
X268986Y615442D01*
X278130Y609600D01*
X302768Y611378D01*
X306578Y627126D01*
X291084Y632460D02*
X284480Y655828D01*
X292608Y691388D01*
X283972Y683260D02*
X273304Y702564D01*
X277114Y709676D01*
X301244Y704596D01*
X304800Y692658D01*
X302768Y683768D02*
X306832Y676910D01*
X318008Y672338D01*
X306070Y653542D02*
X301244Y645922D01*
X306070Y653542D02*
X315468Y656590D01*
X313436Y614426D02*
X340614Y616458D01*
X345948Y633222D01*
X339090Y644398D01*
X318008Y637794D02*
X322072Y629158D01*
X318008Y637794D02*
X322580Y650240D01*
X331470Y654812D01*
X347472Y651256D01*
X354838Y654304D01*
X355346Y672846D01*
X351282Y676402D01*
X335534Y671068D01*
X327152Y675132D01*
X322580Y687324D01*
X324358Y692404D01*
X323342Y704596D02*
X313182Y699770D01*
X323342Y704596D02*
X338836Y701548D01*
X344170Y692150D01*
X340106Y683260D01*
X353060Y689356D02*
X365506Y685800D01*
X370840Y680466D01*
X366522Y671830D01*
X367792Y663702D02*
X362966Y663448D01*
X367792Y663702D02*
X370840Y643128D01*
X366776Y636016D01*
X354330Y633730D01*
X378206Y647954D02*
X383286Y656590D01*
X383794Y665988D01*
X378460Y672084D01*
D10*
X625404Y515733D02*
X625404Y505347D01*
X625941Y480004D02*
X641519Y480004D01*
X633730Y487793D02*
X633730Y472214D01*
D13*
X503428Y524764D02*
X503198Y524767D01*
X502968Y524775D01*
X502739Y524789D01*
X502510Y524808D01*
X502281Y524833D01*
X502053Y524863D01*
X501826Y524898D01*
X501600Y524939D01*
X501375Y524985D01*
X501151Y525037D01*
X500928Y525094D01*
X500707Y525156D01*
X500487Y525224D01*
X500269Y525297D01*
X500053Y525375D01*
X499839Y525458D01*
X499627Y525546D01*
X499416Y525639D01*
X499209Y525738D01*
X499119Y525771D01*
X499030Y525807D01*
X498942Y525847D01*
X498857Y525891D01*
X498773Y525938D01*
X498691Y525988D01*
X498611Y526042D01*
X498534Y526098D01*
X498458Y526158D01*
X498385Y526221D01*
X498315Y526286D01*
X498247Y526355D01*
X498183Y526426D01*
X498121Y526499D01*
X498062Y526575D01*
X498006Y526653D01*
X497953Y526734D01*
X497904Y526816D01*
X497858Y526900D01*
X497815Y526987D01*
X497776Y527074D01*
X497740Y527164D01*
X497708Y527254D01*
X497680Y527346D01*
X497655Y527439D01*
X497634Y527533D01*
X497617Y527627D01*
X497603Y527722D01*
X497594Y527818D01*
X497588Y527914D01*
X497586Y528010D01*
X497588Y528106D01*
X497594Y528202D01*
X497603Y528298D01*
X497617Y528393D01*
X497634Y528487D01*
X497655Y528581D01*
X497680Y528674D01*
X497708Y528766D01*
X497740Y528856D01*
X497776Y528946D01*
X497815Y529034D01*
X497858Y529120D01*
X497904Y529204D01*
X497953Y529286D01*
X498006Y529367D01*
X498062Y529445D01*
X498121Y529521D01*
X498183Y529594D01*
X498247Y529665D01*
X498315Y529734D01*
X498385Y529799D01*
X498458Y529862D01*
X498534Y529922D01*
X498611Y529978D01*
X498691Y530032D01*
X498773Y530082D01*
X498857Y530129D01*
X498942Y530173D01*
X499030Y530213D01*
X499119Y530249D01*
X499209Y530282D01*
X499209Y530281D02*
X499416Y530380D01*
X499627Y530473D01*
X499839Y530561D01*
X500053Y530644D01*
X500269Y530722D01*
X500487Y530795D01*
X500707Y530863D01*
X500928Y530925D01*
X501151Y530982D01*
X501375Y531034D01*
X501600Y531080D01*
X501826Y531121D01*
X502053Y531156D01*
X502281Y531186D01*
X502510Y531211D01*
X502739Y531230D01*
X502968Y531244D01*
X503198Y531252D01*
X503428Y531255D01*
X503428Y524764D02*
X503658Y524767D01*
X503888Y524775D01*
X504117Y524789D01*
X504346Y524808D01*
X504575Y524833D01*
X504803Y524863D01*
X505030Y524898D01*
X505256Y524939D01*
X505481Y524985D01*
X505705Y525037D01*
X505928Y525094D01*
X506149Y525156D01*
X506369Y525224D01*
X506587Y525297D01*
X506803Y525375D01*
X507017Y525458D01*
X507229Y525546D01*
X507440Y525639D01*
X507647Y525738D01*
X507737Y525771D01*
X507826Y525807D01*
X507914Y525848D01*
X507999Y525891D01*
X508083Y525938D01*
X508165Y525988D01*
X508245Y526042D01*
X508322Y526098D01*
X508398Y526158D01*
X508471Y526221D01*
X508541Y526286D01*
X508609Y526355D01*
X508673Y526426D01*
X508735Y526499D01*
X508794Y526575D01*
X508850Y526653D01*
X508903Y526734D01*
X508952Y526816D01*
X508998Y526900D01*
X509041Y526987D01*
X509080Y527074D01*
X509116Y527164D01*
X509148Y527254D01*
X509176Y527346D01*
X509201Y527439D01*
X509222Y527533D01*
X509239Y527627D01*
X509253Y527722D01*
X509262Y527818D01*
X509268Y527914D01*
X509270Y528010D01*
X507647Y530281D02*
X507440Y530380D01*
X507229Y530473D01*
X507017Y530561D01*
X506803Y530644D01*
X506587Y530722D01*
X506369Y530795D01*
X506149Y530863D01*
X505928Y530925D01*
X505705Y530982D01*
X505481Y531034D01*
X505256Y531080D01*
X505030Y531121D01*
X504803Y531156D01*
X504575Y531186D01*
X504346Y531211D01*
X504117Y531230D01*
X503888Y531244D01*
X503658Y531252D01*
X503428Y531255D01*
X507647Y530282D02*
X507737Y530249D01*
X507826Y530213D01*
X507914Y530173D01*
X507999Y530129D01*
X508083Y530082D01*
X508165Y530032D01*
X508245Y529978D01*
X508322Y529922D01*
X508398Y529862D01*
X508471Y529799D01*
X508541Y529734D01*
X508609Y529665D01*
X508673Y529594D01*
X508735Y529521D01*
X508794Y529445D01*
X508850Y529367D01*
X508903Y529286D01*
X508952Y529204D01*
X508998Y529120D01*
X509041Y529033D01*
X509080Y528946D01*
X509116Y528856D01*
X509148Y528766D01*
X509176Y528674D01*
X509201Y528581D01*
X509222Y528487D01*
X509239Y528393D01*
X509253Y528298D01*
X509262Y528202D01*
X509268Y528106D01*
X509270Y528010D01*
X506674Y525413D02*
X500182Y530606D01*
X508621Y535686D02*
X509270Y535686D01*
X508621Y535686D02*
X508621Y536335D01*
X509270Y536335D01*
X509270Y535686D01*
X500182Y540766D02*
X497586Y544011D01*
X509270Y544011D01*
X509270Y540766D02*
X509270Y547257D01*
X507323Y558560D02*
X501481Y558560D01*
X507323Y558560D02*
X507410Y558562D01*
X507498Y558568D01*
X507584Y558578D01*
X507671Y558591D01*
X507756Y558609D01*
X507841Y558630D01*
X507925Y558655D01*
X508007Y558684D01*
X508088Y558717D01*
X508168Y558753D01*
X508246Y558792D01*
X508322Y558836D01*
X508396Y558882D01*
X508467Y558932D01*
X508537Y558985D01*
X508604Y559041D01*
X508668Y559100D01*
X508730Y559162D01*
X508789Y559226D01*
X508845Y559293D01*
X508898Y559363D01*
X508948Y559434D01*
X508994Y559508D01*
X509038Y559584D01*
X509077Y559662D01*
X509113Y559742D01*
X509146Y559823D01*
X509175Y559905D01*
X509200Y559989D01*
X509221Y560074D01*
X509239Y560159D01*
X509252Y560246D01*
X509262Y560332D01*
X509268Y560420D01*
X509270Y560507D01*
X509270Y563753D01*
X501481Y563753D01*
X497586Y569364D02*
X509270Y569364D01*
X497586Y569364D02*
X497586Y574556D01*
X502779Y574556D02*
X502779Y569364D01*
X499717Y461222D02*
X499924Y461123D01*
X500135Y461030D01*
X500347Y460942D01*
X500561Y460859D01*
X500777Y460781D01*
X500995Y460708D01*
X501215Y460640D01*
X501436Y460578D01*
X501659Y460521D01*
X501883Y460469D01*
X502108Y460423D01*
X502334Y460382D01*
X502561Y460347D01*
X502789Y460317D01*
X503018Y460292D01*
X503247Y460273D01*
X503476Y460259D01*
X503706Y460251D01*
X503936Y460248D01*
X499717Y461222D02*
X499627Y461255D01*
X499538Y461291D01*
X499450Y461331D01*
X499365Y461375D01*
X499281Y461422D01*
X499199Y461472D01*
X499119Y461526D01*
X499042Y461582D01*
X498966Y461642D01*
X498893Y461705D01*
X498823Y461770D01*
X498755Y461839D01*
X498691Y461910D01*
X498629Y461983D01*
X498570Y462059D01*
X498514Y462137D01*
X498461Y462218D01*
X498412Y462300D01*
X498366Y462384D01*
X498323Y462471D01*
X498284Y462558D01*
X498248Y462648D01*
X498216Y462738D01*
X498188Y462830D01*
X498163Y462923D01*
X498142Y463017D01*
X498125Y463111D01*
X498111Y463206D01*
X498102Y463302D01*
X498096Y463398D01*
X498094Y463494D01*
X498096Y463590D01*
X498102Y463686D01*
X498111Y463782D01*
X498125Y463877D01*
X498142Y463971D01*
X498163Y464065D01*
X498188Y464158D01*
X498216Y464250D01*
X498248Y464340D01*
X498284Y464430D01*
X498323Y464518D01*
X498366Y464604D01*
X498412Y464688D01*
X498461Y464770D01*
X498514Y464851D01*
X498570Y464929D01*
X498629Y465005D01*
X498691Y465078D01*
X498755Y465149D01*
X498823Y465218D01*
X498893Y465283D01*
X498966Y465346D01*
X499042Y465406D01*
X499119Y465462D01*
X499199Y465516D01*
X499281Y465566D01*
X499365Y465613D01*
X499450Y465657D01*
X499538Y465697D01*
X499627Y465733D01*
X499717Y465766D01*
X499717Y465765D02*
X499924Y465864D01*
X500135Y465957D01*
X500347Y466045D01*
X500561Y466128D01*
X500777Y466206D01*
X500995Y466279D01*
X501215Y466347D01*
X501436Y466409D01*
X501659Y466466D01*
X501883Y466518D01*
X502108Y466564D01*
X502334Y466605D01*
X502561Y466640D01*
X502789Y466670D01*
X503018Y466695D01*
X503247Y466714D01*
X503476Y466728D01*
X503706Y466736D01*
X503936Y466739D01*
X503936Y460248D02*
X504166Y460251D01*
X504396Y460259D01*
X504625Y460273D01*
X504854Y460292D01*
X505083Y460317D01*
X505311Y460347D01*
X505538Y460382D01*
X505764Y460423D01*
X505989Y460469D01*
X506213Y460521D01*
X506436Y460578D01*
X506657Y460640D01*
X506877Y460708D01*
X507095Y460781D01*
X507311Y460859D01*
X507525Y460942D01*
X507737Y461030D01*
X507948Y461123D01*
X508155Y461222D01*
X508245Y461255D01*
X508334Y461291D01*
X508422Y461332D01*
X508507Y461375D01*
X508591Y461422D01*
X508673Y461472D01*
X508753Y461526D01*
X508830Y461582D01*
X508906Y461642D01*
X508979Y461705D01*
X509049Y461770D01*
X509117Y461839D01*
X509181Y461910D01*
X509243Y461983D01*
X509302Y462059D01*
X509358Y462137D01*
X509411Y462218D01*
X509460Y462300D01*
X509506Y462384D01*
X509549Y462471D01*
X509588Y462558D01*
X509624Y462648D01*
X509656Y462738D01*
X509684Y462830D01*
X509709Y462923D01*
X509730Y463017D01*
X509747Y463111D01*
X509761Y463206D01*
X509770Y463302D01*
X509776Y463398D01*
X509778Y463494D01*
X508155Y465765D02*
X507948Y465864D01*
X507737Y465957D01*
X507525Y466045D01*
X507311Y466128D01*
X507095Y466206D01*
X506877Y466279D01*
X506657Y466347D01*
X506436Y466409D01*
X506213Y466466D01*
X505989Y466518D01*
X505764Y466564D01*
X505538Y466605D01*
X505311Y466640D01*
X505083Y466670D01*
X504854Y466695D01*
X504625Y466714D01*
X504396Y466728D01*
X504166Y466736D01*
X503936Y466739D01*
X508155Y465766D02*
X508245Y465733D01*
X508334Y465697D01*
X508422Y465657D01*
X508507Y465613D01*
X508591Y465566D01*
X508673Y465516D01*
X508753Y465462D01*
X508830Y465406D01*
X508906Y465346D01*
X508979Y465283D01*
X509049Y465218D01*
X509117Y465149D01*
X509181Y465078D01*
X509243Y465005D01*
X509302Y464929D01*
X509358Y464851D01*
X509411Y464770D01*
X509460Y464688D01*
X509506Y464604D01*
X509549Y464517D01*
X509588Y464430D01*
X509624Y464340D01*
X509656Y464250D01*
X509684Y464158D01*
X509709Y464065D01*
X509730Y463971D01*
X509747Y463877D01*
X509761Y463782D01*
X509770Y463686D01*
X509776Y463590D01*
X509778Y463494D01*
X507182Y460897D02*
X500690Y466090D01*
X509129Y471170D02*
X509778Y471170D01*
X509129Y471170D02*
X509129Y471819D01*
X509778Y471819D01*
X509778Y471170D01*
X509778Y476250D02*
X509778Y479495D01*
X509776Y479608D01*
X509770Y479721D01*
X509760Y479834D01*
X509746Y479947D01*
X509729Y480059D01*
X509707Y480170D01*
X509682Y480280D01*
X509652Y480390D01*
X509619Y480498D01*
X509582Y480605D01*
X509542Y480711D01*
X509497Y480815D01*
X509449Y480918D01*
X509398Y481019D01*
X509343Y481118D01*
X509285Y481215D01*
X509223Y481310D01*
X509158Y481403D01*
X509090Y481493D01*
X509019Y481581D01*
X508944Y481667D01*
X508867Y481750D01*
X508787Y481830D01*
X508704Y481907D01*
X508618Y481982D01*
X508530Y482053D01*
X508440Y482121D01*
X508347Y482186D01*
X508252Y482248D01*
X508155Y482306D01*
X508056Y482361D01*
X507955Y482412D01*
X507852Y482460D01*
X507748Y482505D01*
X507642Y482545D01*
X507535Y482582D01*
X507427Y482615D01*
X507317Y482645D01*
X507207Y482670D01*
X507096Y482692D01*
X506984Y482709D01*
X506871Y482723D01*
X506758Y482733D01*
X506645Y482739D01*
X506532Y482741D01*
X506419Y482739D01*
X506306Y482733D01*
X506193Y482723D01*
X506080Y482709D01*
X505968Y482692D01*
X505857Y482670D01*
X505747Y482645D01*
X505637Y482615D01*
X505529Y482582D01*
X505422Y482545D01*
X505316Y482505D01*
X505212Y482460D01*
X505109Y482412D01*
X505008Y482361D01*
X504909Y482306D01*
X504812Y482248D01*
X504717Y482186D01*
X504624Y482121D01*
X504534Y482053D01*
X504446Y481982D01*
X504360Y481907D01*
X504277Y481830D01*
X504197Y481750D01*
X504120Y481667D01*
X504045Y481581D01*
X503974Y481493D01*
X503906Y481403D01*
X503841Y481310D01*
X503779Y481215D01*
X503721Y481118D01*
X503666Y481019D01*
X503615Y480918D01*
X503567Y480815D01*
X503522Y480711D01*
X503482Y480605D01*
X503445Y480498D01*
X503412Y480390D01*
X503382Y480280D01*
X503357Y480170D01*
X503335Y480059D01*
X503318Y479947D01*
X503304Y479834D01*
X503294Y479721D01*
X503288Y479608D01*
X503286Y479495D01*
X498094Y480145D02*
X498094Y476250D01*
X498094Y480145D02*
X498096Y480246D01*
X498102Y480346D01*
X498112Y480446D01*
X498125Y480546D01*
X498143Y480645D01*
X498164Y480744D01*
X498189Y480841D01*
X498218Y480938D01*
X498251Y481033D01*
X498287Y481127D01*
X498327Y481219D01*
X498370Y481310D01*
X498417Y481399D01*
X498467Y481486D01*
X498521Y481572D01*
X498578Y481655D01*
X498638Y481735D01*
X498701Y481814D01*
X498768Y481890D01*
X498837Y481963D01*
X498909Y482033D01*
X498983Y482101D01*
X499060Y482166D01*
X499140Y482227D01*
X499222Y482286D01*
X499306Y482341D01*
X499392Y482393D01*
X499480Y482442D01*
X499570Y482487D01*
X499662Y482529D01*
X499755Y482567D01*
X499850Y482601D01*
X499945Y482632D01*
X500042Y482659D01*
X500140Y482682D01*
X500239Y482702D01*
X500339Y482717D01*
X500439Y482729D01*
X500539Y482737D01*
X500640Y482741D01*
X500740Y482741D01*
X500841Y482737D01*
X500941Y482729D01*
X501041Y482717D01*
X501141Y482702D01*
X501240Y482682D01*
X501338Y482659D01*
X501435Y482632D01*
X501530Y482601D01*
X501625Y482567D01*
X501718Y482529D01*
X501810Y482487D01*
X501900Y482442D01*
X501988Y482393D01*
X502074Y482341D01*
X502158Y482286D01*
X502240Y482227D01*
X502320Y482166D01*
X502397Y482101D01*
X502471Y482033D01*
X502543Y481963D01*
X502612Y481890D01*
X502679Y481814D01*
X502742Y481735D01*
X502802Y481655D01*
X502859Y481572D01*
X502913Y481486D01*
X502963Y481399D01*
X503010Y481310D01*
X503053Y481219D01*
X503093Y481127D01*
X503129Y481033D01*
X503162Y480938D01*
X503191Y480841D01*
X503216Y480744D01*
X503237Y480645D01*
X503255Y480546D01*
X503268Y480446D01*
X503278Y480346D01*
X503284Y480246D01*
X503286Y480145D01*
X503287Y480145D02*
X503287Y477548D01*
X509778Y487680D02*
X509778Y490925D01*
X509776Y491038D01*
X509770Y491151D01*
X509760Y491264D01*
X509746Y491377D01*
X509729Y491489D01*
X509707Y491600D01*
X509682Y491710D01*
X509652Y491820D01*
X509619Y491928D01*
X509582Y492035D01*
X509542Y492141D01*
X509497Y492245D01*
X509449Y492348D01*
X509398Y492449D01*
X509343Y492548D01*
X509285Y492645D01*
X509223Y492740D01*
X509158Y492833D01*
X509090Y492923D01*
X509019Y493011D01*
X508944Y493097D01*
X508867Y493180D01*
X508787Y493260D01*
X508704Y493337D01*
X508618Y493412D01*
X508530Y493483D01*
X508440Y493551D01*
X508347Y493616D01*
X508252Y493678D01*
X508155Y493736D01*
X508056Y493791D01*
X507955Y493842D01*
X507852Y493890D01*
X507748Y493935D01*
X507642Y493975D01*
X507535Y494012D01*
X507427Y494045D01*
X507317Y494075D01*
X507207Y494100D01*
X507096Y494122D01*
X506984Y494139D01*
X506871Y494153D01*
X506758Y494163D01*
X506645Y494169D01*
X506532Y494171D01*
X506419Y494169D01*
X506306Y494163D01*
X506193Y494153D01*
X506080Y494139D01*
X505968Y494122D01*
X505857Y494100D01*
X505747Y494075D01*
X505637Y494045D01*
X505529Y494012D01*
X505422Y493975D01*
X505316Y493935D01*
X505212Y493890D01*
X505109Y493842D01*
X505008Y493791D01*
X504909Y493736D01*
X504812Y493678D01*
X504717Y493616D01*
X504624Y493551D01*
X504534Y493483D01*
X504446Y493412D01*
X504360Y493337D01*
X504277Y493260D01*
X504197Y493180D01*
X504120Y493097D01*
X504045Y493011D01*
X503974Y492923D01*
X503906Y492833D01*
X503841Y492740D01*
X503779Y492645D01*
X503721Y492548D01*
X503666Y492449D01*
X503615Y492348D01*
X503567Y492245D01*
X503522Y492141D01*
X503482Y492035D01*
X503445Y491928D01*
X503412Y491820D01*
X503382Y491710D01*
X503357Y491600D01*
X503335Y491489D01*
X503318Y491377D01*
X503304Y491264D01*
X503294Y491151D01*
X503288Y491038D01*
X503286Y490925D01*
X498094Y491575D02*
X498094Y487680D01*
X498094Y491575D02*
X498096Y491676D01*
X498102Y491776D01*
X498112Y491876D01*
X498125Y491976D01*
X498143Y492075D01*
X498164Y492174D01*
X498189Y492271D01*
X498218Y492368D01*
X498251Y492463D01*
X498287Y492557D01*
X498327Y492649D01*
X498370Y492740D01*
X498417Y492829D01*
X498467Y492916D01*
X498521Y493002D01*
X498578Y493085D01*
X498638Y493165D01*
X498701Y493244D01*
X498768Y493320D01*
X498837Y493393D01*
X498909Y493463D01*
X498983Y493531D01*
X499060Y493596D01*
X499140Y493657D01*
X499222Y493716D01*
X499306Y493771D01*
X499392Y493823D01*
X499480Y493872D01*
X499570Y493917D01*
X499662Y493959D01*
X499755Y493997D01*
X499850Y494031D01*
X499945Y494062D01*
X500042Y494089D01*
X500140Y494112D01*
X500239Y494132D01*
X500339Y494147D01*
X500439Y494159D01*
X500539Y494167D01*
X500640Y494171D01*
X500740Y494171D01*
X500841Y494167D01*
X500941Y494159D01*
X501041Y494147D01*
X501141Y494132D01*
X501240Y494112D01*
X501338Y494089D01*
X501435Y494062D01*
X501530Y494031D01*
X501625Y493997D01*
X501718Y493959D01*
X501810Y493917D01*
X501900Y493872D01*
X501988Y493823D01*
X502074Y493771D01*
X502158Y493716D01*
X502240Y493657D01*
X502320Y493596D01*
X502397Y493531D01*
X502471Y493463D01*
X502543Y493393D01*
X502612Y493320D01*
X502679Y493244D01*
X502742Y493165D01*
X502802Y493085D01*
X502859Y493002D01*
X502913Y492916D01*
X502963Y492829D01*
X503010Y492740D01*
X503053Y492649D01*
X503093Y492557D01*
X503129Y492463D01*
X503162Y492368D01*
X503191Y492271D01*
X503216Y492174D01*
X503237Y492075D01*
X503255Y491976D01*
X503268Y491876D01*
X503278Y491776D01*
X503284Y491676D01*
X503286Y491575D01*
X503287Y491575D02*
X503287Y488978D01*
X501989Y505474D02*
X507831Y505474D01*
X507918Y505476D01*
X508006Y505482D01*
X508092Y505492D01*
X508179Y505505D01*
X508264Y505523D01*
X508349Y505544D01*
X508433Y505569D01*
X508515Y505598D01*
X508596Y505631D01*
X508676Y505667D01*
X508754Y505706D01*
X508830Y505750D01*
X508904Y505796D01*
X508975Y505846D01*
X509045Y505899D01*
X509112Y505955D01*
X509176Y506014D01*
X509238Y506076D01*
X509297Y506140D01*
X509353Y506207D01*
X509406Y506277D01*
X509456Y506348D01*
X509502Y506422D01*
X509546Y506498D01*
X509585Y506576D01*
X509621Y506656D01*
X509654Y506737D01*
X509683Y506819D01*
X509708Y506903D01*
X509729Y506988D01*
X509747Y507073D01*
X509760Y507160D01*
X509770Y507246D01*
X509776Y507334D01*
X509778Y507421D01*
X509778Y510667D01*
X501989Y510667D01*
X498094Y516277D02*
X509778Y516277D01*
X498094Y516277D02*
X498094Y521470D01*
X503287Y521470D02*
X503287Y516277D01*
X583636Y529582D02*
X588828Y529582D01*
X583636Y529581D02*
X583523Y529583D01*
X583410Y529589D01*
X583297Y529599D01*
X583184Y529613D01*
X583072Y529630D01*
X582961Y529652D01*
X582851Y529677D01*
X582741Y529707D01*
X582633Y529740D01*
X582526Y529777D01*
X582420Y529817D01*
X582316Y529862D01*
X582213Y529910D01*
X582112Y529961D01*
X582013Y530016D01*
X581916Y530074D01*
X581821Y530136D01*
X581728Y530201D01*
X581638Y530269D01*
X581550Y530340D01*
X581464Y530415D01*
X581381Y530492D01*
X581301Y530572D01*
X581224Y530655D01*
X581149Y530741D01*
X581078Y530829D01*
X581010Y530919D01*
X580945Y531012D01*
X580883Y531107D01*
X580825Y531204D01*
X580770Y531303D01*
X580719Y531404D01*
X580671Y531507D01*
X580626Y531611D01*
X580586Y531717D01*
X580549Y531824D01*
X580516Y531932D01*
X580486Y532042D01*
X580461Y532152D01*
X580439Y532263D01*
X580422Y532375D01*
X580408Y532488D01*
X580398Y532601D01*
X580392Y532714D01*
X580390Y532827D01*
X580392Y532940D01*
X580398Y533053D01*
X580408Y533166D01*
X580422Y533279D01*
X580439Y533391D01*
X580461Y533502D01*
X580486Y533612D01*
X580516Y533722D01*
X580549Y533830D01*
X580586Y533937D01*
X580626Y534043D01*
X580671Y534147D01*
X580719Y534250D01*
X580770Y534351D01*
X580825Y534450D01*
X580883Y534547D01*
X580945Y534642D01*
X581010Y534735D01*
X581078Y534825D01*
X581149Y534913D01*
X581224Y534999D01*
X581301Y535082D01*
X581381Y535162D01*
X581464Y535239D01*
X581550Y535314D01*
X581638Y535385D01*
X581728Y535453D01*
X581821Y535518D01*
X581916Y535580D01*
X582013Y535638D01*
X582112Y535693D01*
X582213Y535744D01*
X582316Y535792D01*
X582420Y535837D01*
X582526Y535877D01*
X582633Y535914D01*
X582741Y535947D01*
X582851Y535977D01*
X582961Y536002D01*
X583072Y536024D01*
X583184Y536041D01*
X583297Y536055D01*
X583410Y536065D01*
X583523Y536071D01*
X583636Y536073D01*
X588828Y536073D01*
X588941Y536071D01*
X589054Y536065D01*
X589167Y536055D01*
X589280Y536041D01*
X589392Y536024D01*
X589503Y536002D01*
X589613Y535977D01*
X589723Y535947D01*
X589831Y535914D01*
X589938Y535877D01*
X590044Y535837D01*
X590148Y535792D01*
X590251Y535744D01*
X590352Y535693D01*
X590451Y535638D01*
X590548Y535580D01*
X590643Y535518D01*
X590736Y535453D01*
X590826Y535385D01*
X590914Y535314D01*
X591000Y535239D01*
X591083Y535162D01*
X591163Y535082D01*
X591240Y534999D01*
X591315Y534913D01*
X591386Y534825D01*
X591454Y534735D01*
X591519Y534642D01*
X591581Y534547D01*
X591639Y534450D01*
X591694Y534351D01*
X591745Y534250D01*
X591793Y534147D01*
X591838Y534043D01*
X591878Y533937D01*
X591915Y533830D01*
X591948Y533722D01*
X591978Y533612D01*
X592003Y533502D01*
X592025Y533391D01*
X592042Y533279D01*
X592056Y533166D01*
X592066Y533053D01*
X592072Y532940D01*
X592074Y532827D01*
X592072Y532714D01*
X592066Y532601D01*
X592056Y532488D01*
X592042Y532375D01*
X592025Y532263D01*
X592003Y532152D01*
X591978Y532042D01*
X591948Y531932D01*
X591915Y531824D01*
X591878Y531717D01*
X591838Y531611D01*
X591793Y531507D01*
X591745Y531404D01*
X591694Y531303D01*
X591639Y531204D01*
X591581Y531107D01*
X591519Y531012D01*
X591454Y530919D01*
X591386Y530829D01*
X591315Y530741D01*
X591240Y530655D01*
X591163Y530572D01*
X591083Y530492D01*
X591000Y530415D01*
X590914Y530340D01*
X590826Y530269D01*
X590736Y530201D01*
X590643Y530136D01*
X590548Y530074D01*
X590451Y530016D01*
X590352Y529961D01*
X590251Y529910D01*
X590148Y529862D01*
X590044Y529817D01*
X589938Y529777D01*
X589831Y529740D01*
X589723Y529707D01*
X589613Y529677D01*
X589503Y529652D01*
X589392Y529630D01*
X589280Y529613D01*
X589167Y529599D01*
X589054Y529589D01*
X588941Y529583D01*
X588828Y529581D01*
X592074Y541415D02*
X580390Y541415D01*
X580390Y546608D01*
X585583Y546608D02*
X585583Y541415D01*
X580390Y551321D02*
X592074Y551321D01*
X580390Y551321D02*
X580390Y556514D01*
X585583Y556514D02*
X585583Y551321D01*
X586288Y480808D02*
X581096Y480808D01*
X581096Y480807D02*
X580983Y480809D01*
X580870Y480815D01*
X580757Y480825D01*
X580644Y480839D01*
X580532Y480856D01*
X580421Y480878D01*
X580311Y480903D01*
X580201Y480933D01*
X580093Y480966D01*
X579986Y481003D01*
X579880Y481043D01*
X579776Y481088D01*
X579673Y481136D01*
X579572Y481187D01*
X579473Y481242D01*
X579376Y481300D01*
X579281Y481362D01*
X579188Y481427D01*
X579098Y481495D01*
X579010Y481566D01*
X578924Y481641D01*
X578841Y481718D01*
X578761Y481798D01*
X578684Y481881D01*
X578609Y481967D01*
X578538Y482055D01*
X578470Y482145D01*
X578405Y482238D01*
X578343Y482333D01*
X578285Y482430D01*
X578230Y482529D01*
X578179Y482630D01*
X578131Y482733D01*
X578086Y482837D01*
X578046Y482943D01*
X578009Y483050D01*
X577976Y483158D01*
X577946Y483268D01*
X577921Y483378D01*
X577899Y483489D01*
X577882Y483601D01*
X577868Y483714D01*
X577858Y483827D01*
X577852Y483940D01*
X577850Y484053D01*
X577852Y484166D01*
X577858Y484279D01*
X577868Y484392D01*
X577882Y484505D01*
X577899Y484617D01*
X577921Y484728D01*
X577946Y484838D01*
X577976Y484948D01*
X578009Y485056D01*
X578046Y485163D01*
X578086Y485269D01*
X578131Y485373D01*
X578179Y485476D01*
X578230Y485577D01*
X578285Y485676D01*
X578343Y485773D01*
X578405Y485868D01*
X578470Y485961D01*
X578538Y486051D01*
X578609Y486139D01*
X578684Y486225D01*
X578761Y486308D01*
X578841Y486388D01*
X578924Y486465D01*
X579010Y486540D01*
X579098Y486611D01*
X579188Y486679D01*
X579281Y486744D01*
X579376Y486806D01*
X579473Y486864D01*
X579572Y486919D01*
X579673Y486970D01*
X579776Y487018D01*
X579880Y487063D01*
X579986Y487103D01*
X580093Y487140D01*
X580201Y487173D01*
X580311Y487203D01*
X580421Y487228D01*
X580532Y487250D01*
X580644Y487267D01*
X580757Y487281D01*
X580870Y487291D01*
X580983Y487297D01*
X581096Y487299D01*
X586288Y487299D01*
X586401Y487297D01*
X586514Y487291D01*
X586627Y487281D01*
X586740Y487267D01*
X586852Y487250D01*
X586963Y487228D01*
X587073Y487203D01*
X587183Y487173D01*
X587291Y487140D01*
X587398Y487103D01*
X587504Y487063D01*
X587608Y487018D01*
X587711Y486970D01*
X587812Y486919D01*
X587911Y486864D01*
X588008Y486806D01*
X588103Y486744D01*
X588196Y486679D01*
X588286Y486611D01*
X588374Y486540D01*
X588460Y486465D01*
X588543Y486388D01*
X588623Y486308D01*
X588700Y486225D01*
X588775Y486139D01*
X588846Y486051D01*
X588914Y485961D01*
X588979Y485868D01*
X589041Y485773D01*
X589099Y485676D01*
X589154Y485577D01*
X589205Y485476D01*
X589253Y485373D01*
X589298Y485269D01*
X589338Y485163D01*
X589375Y485056D01*
X589408Y484948D01*
X589438Y484838D01*
X589463Y484728D01*
X589485Y484617D01*
X589502Y484505D01*
X589516Y484392D01*
X589526Y484279D01*
X589532Y484166D01*
X589534Y484053D01*
X589532Y483940D01*
X589526Y483827D01*
X589516Y483714D01*
X589502Y483601D01*
X589485Y483489D01*
X589463Y483378D01*
X589438Y483268D01*
X589408Y483158D01*
X589375Y483050D01*
X589338Y482943D01*
X589298Y482837D01*
X589253Y482733D01*
X589205Y482630D01*
X589154Y482529D01*
X589099Y482430D01*
X589041Y482333D01*
X588979Y482238D01*
X588914Y482145D01*
X588846Y482055D01*
X588775Y481967D01*
X588700Y481881D01*
X588623Y481798D01*
X588543Y481718D01*
X588460Y481641D01*
X588374Y481566D01*
X588286Y481495D01*
X588196Y481427D01*
X588103Y481362D01*
X588008Y481300D01*
X587911Y481242D01*
X587812Y481187D01*
X587711Y481136D01*
X587608Y481088D01*
X587504Y481043D01*
X587398Y481003D01*
X587291Y480966D01*
X587183Y480933D01*
X587073Y480903D01*
X586963Y480878D01*
X586852Y480856D01*
X586740Y480839D01*
X586627Y480825D01*
X586514Y480815D01*
X586401Y480809D01*
X586288Y480807D01*
X589534Y492619D02*
X577850Y492619D01*
X589534Y499110D01*
X577850Y499110D01*
D11*
X314113Y756581D02*
X314026Y756579D01*
X313938Y756573D01*
X313852Y756563D01*
X313765Y756550D01*
X313680Y756532D01*
X313595Y756511D01*
X313511Y756486D01*
X313429Y756457D01*
X313348Y756424D01*
X313268Y756388D01*
X313190Y756349D01*
X313114Y756305D01*
X313040Y756259D01*
X312969Y756209D01*
X312899Y756156D01*
X312832Y756100D01*
X312768Y756041D01*
X312706Y755979D01*
X312647Y755915D01*
X312591Y755848D01*
X312538Y755778D01*
X312488Y755707D01*
X312442Y755633D01*
X312398Y755557D01*
X312359Y755479D01*
X312323Y755399D01*
X312290Y755318D01*
X312261Y755236D01*
X312236Y755152D01*
X312215Y755067D01*
X312197Y754982D01*
X312184Y754895D01*
X312174Y754809D01*
X312168Y754721D01*
X312166Y754634D01*
X314113Y756581D02*
X314207Y756579D01*
X314301Y756574D01*
X314394Y756565D01*
X314488Y756552D01*
X314580Y756536D01*
X314672Y756516D01*
X314763Y756493D01*
X314853Y756466D01*
X314942Y756435D01*
X315030Y756402D01*
X315117Y756364D01*
X315202Y756324D01*
X315285Y756280D01*
X315366Y756234D01*
X315446Y756184D01*
X315524Y756131D01*
X315599Y756075D01*
X315673Y756016D01*
X315744Y755954D01*
X315812Y755890D01*
X315878Y755823D01*
X315942Y755753D01*
X316002Y755682D01*
X316060Y755607D01*
X316061Y755608D02*
X316119Y755533D01*
X316179Y755462D01*
X316243Y755392D01*
X316309Y755325D01*
X316377Y755261D01*
X316448Y755199D01*
X316522Y755140D01*
X316597Y755084D01*
X316675Y755031D01*
X316755Y754981D01*
X316836Y754935D01*
X316920Y754891D01*
X317004Y754851D01*
X317091Y754813D01*
X317179Y754780D01*
X317268Y754749D01*
X317358Y754722D01*
X317449Y754699D01*
X317541Y754679D01*
X317633Y754663D01*
X317727Y754650D01*
X317820Y754641D01*
X317914Y754636D01*
X318008Y754634D01*
X318095Y754636D01*
X318183Y754642D01*
X318269Y754652D01*
X318356Y754665D01*
X318441Y754683D01*
X318526Y754704D01*
X318610Y754729D01*
X318692Y754758D01*
X318773Y754791D01*
X318853Y754827D01*
X318931Y754866D01*
X319007Y754910D01*
X319081Y754956D01*
X319152Y755006D01*
X319222Y755059D01*
X319289Y755115D01*
X319353Y755174D01*
X319415Y755236D01*
X319474Y755300D01*
X319530Y755367D01*
X319583Y755437D01*
X319633Y755508D01*
X319679Y755582D01*
X319723Y755658D01*
X319762Y755736D01*
X319798Y755816D01*
X319831Y755897D01*
X319860Y755979D01*
X319885Y756063D01*
X319906Y756148D01*
X319924Y756233D01*
X319937Y756320D01*
X319947Y756406D01*
X319953Y756494D01*
X319955Y756581D01*
X640080Y754380D02*
X640082Y754467D01*
X640088Y754555D01*
X640098Y754641D01*
X640111Y754728D01*
X640129Y754813D01*
X640150Y754898D01*
X640175Y754982D01*
X640204Y755064D01*
X640237Y755145D01*
X640273Y755225D01*
X640312Y755303D01*
X640356Y755379D01*
X640402Y755453D01*
X640452Y755524D01*
X640505Y755594D01*
X640561Y755661D01*
X640620Y755725D01*
X640682Y755787D01*
X640746Y755846D01*
X640813Y755902D01*
X640883Y755955D01*
X640954Y756005D01*
X641028Y756051D01*
X641104Y756095D01*
X641182Y756134D01*
X641262Y756170D01*
X641343Y756203D01*
X641425Y756232D01*
X641509Y756257D01*
X641594Y756278D01*
X641679Y756296D01*
X641766Y756309D01*
X641852Y756319D01*
X641940Y756325D01*
X642027Y756327D01*
X642121Y756325D01*
X642215Y756320D01*
X642308Y756311D01*
X642402Y756298D01*
X642494Y756282D01*
X642586Y756262D01*
X642677Y756239D01*
X642767Y756212D01*
X642856Y756181D01*
X642944Y756148D01*
X643031Y756110D01*
X643116Y756070D01*
X643199Y756026D01*
X643280Y755980D01*
X643360Y755930D01*
X643438Y755877D01*
X643513Y755821D01*
X643587Y755762D01*
X643658Y755700D01*
X643726Y755636D01*
X643792Y755569D01*
X643856Y755499D01*
X643916Y755428D01*
X643974Y755353D01*
X643975Y755354D02*
X644033Y755279D01*
X644093Y755208D01*
X644157Y755138D01*
X644223Y755071D01*
X644291Y755007D01*
X644362Y754945D01*
X644436Y754886D01*
X644511Y754830D01*
X644589Y754777D01*
X644669Y754727D01*
X644750Y754681D01*
X644834Y754637D01*
X644918Y754597D01*
X645005Y754559D01*
X645093Y754526D01*
X645182Y754495D01*
X645272Y754468D01*
X645363Y754445D01*
X645455Y754425D01*
X645547Y754409D01*
X645641Y754396D01*
X645734Y754387D01*
X645828Y754382D01*
X645922Y754380D01*
X646009Y754382D01*
X646097Y754388D01*
X646183Y754398D01*
X646270Y754411D01*
X646355Y754429D01*
X646440Y754450D01*
X646524Y754475D01*
X646606Y754504D01*
X646687Y754537D01*
X646767Y754573D01*
X646845Y754612D01*
X646921Y754656D01*
X646995Y754702D01*
X647066Y754752D01*
X647136Y754805D01*
X647203Y754861D01*
X647267Y754920D01*
X647329Y754982D01*
X647388Y755046D01*
X647444Y755113D01*
X647497Y755183D01*
X647547Y755254D01*
X647593Y755328D01*
X647637Y755404D01*
X647676Y755482D01*
X647712Y755562D01*
X647745Y755643D01*
X647774Y755725D01*
X647799Y755809D01*
X647820Y755894D01*
X647838Y755979D01*
X647851Y756066D01*
X647861Y756152D01*
X647867Y756240D01*
X647869Y756327D01*
X295656Y755354D02*
X283972Y755354D01*
X289814Y749512D02*
X289814Y761196D01*
X614426Y754338D02*
X626110Y754338D01*
X620268Y748496D02*
X620268Y760180D01*
X266107Y758021D02*
X258318Y758021D01*
X585978Y758529D02*
X593767Y758529D01*
D14*
X467812Y759079D02*
X467812Y749681D01*
X465201Y759079D02*
X470422Y759079D01*
X443978Y749681D02*
X439801Y749681D01*
X439801Y759079D01*
X443978Y759079D01*
X442934Y754902D02*
X439801Y754902D01*
D11*
X420031Y758275D02*
X412242Y758275D01*
X488442Y754338D02*
X500126Y754338D01*
X494284Y748496D02*
X494284Y760180D01*
D15*
X486410Y492760D02*
X473710Y492760D01*
X467360Y466090D02*
X467360Y519430D01*
X492760Y519430D01*
X492760Y466090D01*
X467360Y466090D01*
X473710Y546100D02*
X486410Y546100D01*
X492760Y572770D02*
X492760Y519430D01*
X467360Y519430D01*
X467360Y572770D01*
X492760Y572770D01*
D10*
X488950Y787400D02*
X501650Y787400D01*
X508000Y781050D01*
X508000Y768350D02*
X501650Y762000D01*
X463550Y787400D02*
X457200Y781050D01*
X463550Y787400D02*
X476250Y787400D01*
X482600Y781050D01*
X482600Y768350D02*
X476250Y762000D01*
X463550Y762000D01*
X457200Y768350D01*
X482600Y781050D02*
X488950Y787400D01*
X482600Y768350D02*
X488950Y762000D01*
X501650Y762000D01*
X425450Y787400D02*
X412750Y787400D01*
X425450Y787400D02*
X431800Y781050D01*
X431800Y768350D02*
X425450Y762000D01*
X431800Y781050D02*
X438150Y787400D01*
X450850Y787400D01*
X457200Y781050D01*
X457200Y768350D02*
X450850Y762000D01*
X438150Y762000D01*
X431800Y768350D01*
X406400Y768350D02*
X406400Y781050D01*
X412750Y787400D01*
X406400Y768350D02*
X412750Y762000D01*
X425450Y762000D01*
X508000Y768350D02*
X508000Y781050D01*
D15*
X420370Y795020D02*
X420370Y805180D01*
X420370Y800664D02*
X426014Y800664D01*
X426014Y805180D02*
X426014Y795020D01*
X434381Y795020D02*
X436638Y795020D01*
X434381Y795020D02*
X434288Y795022D01*
X434195Y795028D01*
X434102Y795037D01*
X434009Y795051D01*
X433918Y795068D01*
X433827Y795089D01*
X433737Y795114D01*
X433648Y795142D01*
X433560Y795174D01*
X433474Y795210D01*
X433389Y795249D01*
X433306Y795292D01*
X433225Y795338D01*
X433146Y795388D01*
X433069Y795440D01*
X432994Y795496D01*
X432922Y795555D01*
X432852Y795617D01*
X432784Y795681D01*
X432720Y795749D01*
X432658Y795819D01*
X432599Y795891D01*
X432543Y795966D01*
X432491Y796043D01*
X432441Y796122D01*
X432395Y796203D01*
X432352Y796286D01*
X432313Y796371D01*
X432277Y796457D01*
X432245Y796545D01*
X432217Y796634D01*
X432192Y796724D01*
X432171Y796815D01*
X432154Y796906D01*
X432140Y796999D01*
X432131Y797092D01*
X432125Y797185D01*
X432123Y797278D01*
X432123Y802922D01*
X432125Y803015D01*
X432131Y803108D01*
X432140Y803201D01*
X432154Y803294D01*
X432171Y803385D01*
X432192Y803476D01*
X432217Y803566D01*
X432245Y803655D01*
X432277Y803743D01*
X432313Y803829D01*
X432352Y803914D01*
X432395Y803997D01*
X432441Y804078D01*
X432491Y804157D01*
X432543Y804234D01*
X432599Y804309D01*
X432658Y804381D01*
X432720Y804451D01*
X432784Y804519D01*
X432852Y804583D01*
X432922Y804645D01*
X432994Y804704D01*
X433069Y804760D01*
X433146Y804812D01*
X433225Y804862D01*
X433306Y804908D01*
X433389Y804951D01*
X433474Y804990D01*
X433560Y805026D01*
X433648Y805058D01*
X433737Y805086D01*
X433827Y805111D01*
X433918Y805132D01*
X434009Y805149D01*
X434102Y805163D01*
X434195Y805172D01*
X434288Y805178D01*
X434381Y805180D01*
X436638Y805180D01*
X441904Y798971D02*
X448677Y798971D01*
X457666Y795020D02*
X457759Y795022D01*
X457852Y795028D01*
X457945Y795037D01*
X458038Y795051D01*
X458129Y795068D01*
X458220Y795089D01*
X458310Y795114D01*
X458399Y795142D01*
X458487Y795174D01*
X458573Y795210D01*
X458658Y795249D01*
X458741Y795292D01*
X458822Y795338D01*
X458901Y795388D01*
X458978Y795440D01*
X459053Y795496D01*
X459125Y795555D01*
X459195Y795617D01*
X459263Y795681D01*
X459327Y795749D01*
X459389Y795819D01*
X459448Y795891D01*
X459504Y795966D01*
X459556Y796043D01*
X459606Y796122D01*
X459652Y796203D01*
X459695Y796286D01*
X459734Y796371D01*
X459770Y796457D01*
X459802Y796545D01*
X459830Y796634D01*
X459855Y796724D01*
X459876Y796815D01*
X459893Y796906D01*
X459907Y796999D01*
X459916Y797092D01*
X459922Y797185D01*
X459924Y797278D01*
X457666Y795020D02*
X457532Y795022D01*
X457397Y795028D01*
X457263Y795037D01*
X457129Y795050D01*
X456996Y795067D01*
X456863Y795088D01*
X456731Y795113D01*
X456599Y795141D01*
X456468Y795173D01*
X456339Y795208D01*
X456210Y795248D01*
X456083Y795291D01*
X455956Y795337D01*
X455831Y795387D01*
X455708Y795440D01*
X455586Y795497D01*
X455466Y795558D01*
X455347Y795621D01*
X455231Y795688D01*
X455116Y795759D01*
X455004Y795832D01*
X454893Y795909D01*
X454785Y795989D01*
X454679Y796071D01*
X454575Y796157D01*
X454474Y796246D01*
X454375Y796337D01*
X454279Y796431D01*
X454561Y802922D02*
X454563Y803015D01*
X454569Y803108D01*
X454578Y803201D01*
X454592Y803294D01*
X454609Y803385D01*
X454630Y803476D01*
X454655Y803566D01*
X454683Y803655D01*
X454715Y803743D01*
X454751Y803829D01*
X454790Y803914D01*
X454833Y803997D01*
X454879Y804078D01*
X454929Y804157D01*
X454981Y804234D01*
X455037Y804309D01*
X455096Y804381D01*
X455158Y804451D01*
X455222Y804519D01*
X455290Y804583D01*
X455360Y804645D01*
X455432Y804704D01*
X455507Y804760D01*
X455584Y804812D01*
X455663Y804862D01*
X455744Y804908D01*
X455827Y804951D01*
X455912Y804990D01*
X455998Y805026D01*
X456086Y805058D01*
X456175Y805086D01*
X456265Y805111D01*
X456356Y805132D01*
X456447Y805149D01*
X456540Y805163D01*
X456633Y805172D01*
X456726Y805178D01*
X456819Y805180D01*
X456949Y805178D01*
X457078Y805172D01*
X457208Y805162D01*
X457337Y805148D01*
X457465Y805130D01*
X457593Y805109D01*
X457720Y805083D01*
X457846Y805053D01*
X457972Y805020D01*
X458096Y804983D01*
X458219Y804942D01*
X458341Y804897D01*
X458461Y804849D01*
X458580Y804796D01*
X458697Y804741D01*
X458812Y804681D01*
X458926Y804619D01*
X459037Y804552D01*
X459147Y804483D01*
X459254Y804410D01*
X459359Y804333D01*
X455690Y800947D02*
X455609Y800997D01*
X455530Y801050D01*
X455453Y801106D01*
X455379Y801166D01*
X455308Y801229D01*
X455239Y801295D01*
X455172Y801363D01*
X455109Y801434D01*
X455049Y801508D01*
X454992Y801584D01*
X454938Y801663D01*
X454887Y801743D01*
X454840Y801826D01*
X454796Y801911D01*
X454756Y801997D01*
X454719Y802085D01*
X454686Y802174D01*
X454657Y802265D01*
X454632Y802357D01*
X454610Y802449D01*
X454593Y802543D01*
X454579Y802637D01*
X454569Y802732D01*
X454563Y802827D01*
X454561Y802922D01*
X458794Y799254D02*
X458875Y799203D01*
X458954Y799150D01*
X459031Y799094D01*
X459105Y799034D01*
X459176Y798971D01*
X459245Y798905D01*
X459312Y798837D01*
X459375Y798766D01*
X459435Y798692D01*
X459492Y798616D01*
X459546Y798537D01*
X459597Y798457D01*
X459644Y798374D01*
X459688Y798289D01*
X459728Y798203D01*
X459765Y798115D01*
X459798Y798026D01*
X459827Y797935D01*
X459852Y797844D01*
X459874Y797751D01*
X459891Y797657D01*
X459905Y797563D01*
X459915Y797468D01*
X459921Y797373D01*
X459923Y797278D01*
X458795Y799253D02*
X455690Y800947D01*
X465838Y805180D02*
X465838Y795020D01*
X465838Y805180D02*
X468660Y805180D01*
X468766Y805178D01*
X468871Y805172D01*
X468976Y805162D01*
X469081Y805148D01*
X469185Y805131D01*
X469288Y805109D01*
X469390Y805084D01*
X469492Y805055D01*
X469592Y805022D01*
X469691Y804985D01*
X469788Y804945D01*
X469884Y804901D01*
X469979Y804853D01*
X470071Y804802D01*
X470161Y804747D01*
X470250Y804690D01*
X470336Y804629D01*
X470419Y804564D01*
X470501Y804497D01*
X470579Y804427D01*
X470655Y804353D01*
X470729Y804277D01*
X470799Y804199D01*
X470866Y804117D01*
X470931Y804034D01*
X470992Y803948D01*
X471049Y803859D01*
X471104Y803769D01*
X471155Y803677D01*
X471203Y803582D01*
X471247Y803486D01*
X471287Y803389D01*
X471324Y803290D01*
X471357Y803190D01*
X471386Y803088D01*
X471411Y802986D01*
X471433Y802883D01*
X471450Y802779D01*
X471464Y802674D01*
X471474Y802569D01*
X471480Y802464D01*
X471482Y802358D01*
X471480Y802252D01*
X471474Y802147D01*
X471464Y802042D01*
X471450Y801937D01*
X471433Y801833D01*
X471411Y801730D01*
X471386Y801628D01*
X471357Y801526D01*
X471324Y801426D01*
X471287Y801327D01*
X471247Y801230D01*
X471203Y801134D01*
X471155Y801039D01*
X471104Y800947D01*
X471049Y800857D01*
X470992Y800768D01*
X470931Y800682D01*
X470866Y800599D01*
X470799Y800517D01*
X470729Y800439D01*
X470655Y800363D01*
X470579Y800289D01*
X470501Y800219D01*
X470419Y800152D01*
X470336Y800087D01*
X470250Y800026D01*
X470161Y799969D01*
X470071Y799914D01*
X469979Y799863D01*
X469884Y799815D01*
X469788Y799771D01*
X469691Y799731D01*
X469592Y799694D01*
X469492Y799661D01*
X469390Y799632D01*
X469288Y799607D01*
X469185Y799585D01*
X469081Y799568D01*
X468976Y799554D01*
X468871Y799544D01*
X468766Y799538D01*
X468660Y799536D01*
X465838Y799536D01*
X469224Y799536D02*
X471482Y795020D01*
X477139Y800100D02*
X477141Y800300D01*
X477149Y800500D01*
X477160Y800699D01*
X477177Y800898D01*
X477199Y801097D01*
X477225Y801295D01*
X477256Y801493D01*
X477291Y801689D01*
X477332Y801885D01*
X477376Y802080D01*
X477426Y802274D01*
X477480Y802466D01*
X477539Y802657D01*
X477602Y802847D01*
X477670Y803035D01*
X477742Y803221D01*
X477819Y803406D01*
X477900Y803588D01*
X477986Y803769D01*
X478017Y803853D01*
X478051Y803935D01*
X478089Y804016D01*
X478130Y804096D01*
X478175Y804173D01*
X478222Y804248D01*
X478273Y804322D01*
X478328Y804393D01*
X478385Y804461D01*
X478445Y804528D01*
X478508Y804591D01*
X478573Y804652D01*
X478641Y804710D01*
X478711Y804765D01*
X478784Y804817D01*
X478859Y804865D01*
X478936Y804911D01*
X479014Y804953D01*
X479095Y804992D01*
X479177Y805027D01*
X479260Y805059D01*
X479345Y805087D01*
X479431Y805112D01*
X479518Y805132D01*
X479605Y805150D01*
X479694Y805163D01*
X479783Y805172D01*
X479872Y805178D01*
X479961Y805180D01*
X480050Y805178D01*
X480139Y805172D01*
X480228Y805163D01*
X480317Y805150D01*
X480404Y805132D01*
X480491Y805112D01*
X480577Y805087D01*
X480662Y805059D01*
X480745Y805027D01*
X480827Y804992D01*
X480908Y804953D01*
X480986Y804911D01*
X481063Y804865D01*
X481138Y804817D01*
X481211Y804765D01*
X481281Y804710D01*
X481349Y804652D01*
X481415Y804591D01*
X481477Y804527D01*
X481537Y804461D01*
X481594Y804393D01*
X481649Y804322D01*
X481700Y804248D01*
X481747Y804173D01*
X481792Y804096D01*
X481833Y804016D01*
X481871Y803935D01*
X481905Y803853D01*
X481936Y803769D01*
X482022Y803588D01*
X482103Y803405D01*
X482180Y803221D01*
X482252Y803034D01*
X482320Y802846D01*
X482383Y802657D01*
X482442Y802466D01*
X482496Y802273D01*
X482546Y802080D01*
X482590Y801885D01*
X482631Y801689D01*
X482666Y801493D01*
X482697Y801295D01*
X482723Y801097D01*
X482745Y800898D01*
X482762Y800699D01*
X482773Y800500D01*
X482781Y800300D01*
X482783Y800100D01*
X477139Y800100D02*
X477141Y799900D01*
X477149Y799700D01*
X477160Y799501D01*
X477177Y799302D01*
X477199Y799103D01*
X477225Y798905D01*
X477256Y798707D01*
X477291Y798511D01*
X477332Y798315D01*
X477376Y798120D01*
X477426Y797926D01*
X477480Y797734D01*
X477539Y797543D01*
X477602Y797353D01*
X477670Y797165D01*
X477742Y796979D01*
X477819Y796794D01*
X477900Y796612D01*
X477986Y796431D01*
X478017Y796347D01*
X478051Y796265D01*
X478089Y796184D01*
X478130Y796104D01*
X478175Y796027D01*
X478222Y795952D01*
X478274Y795878D01*
X478328Y795807D01*
X478385Y795739D01*
X478445Y795672D01*
X478508Y795609D01*
X478573Y795548D01*
X478641Y795490D01*
X478711Y795435D01*
X478784Y795383D01*
X478859Y795335D01*
X478936Y795289D01*
X479014Y795247D01*
X479095Y795208D01*
X479177Y795173D01*
X479260Y795141D01*
X479345Y795113D01*
X479431Y795088D01*
X479518Y795068D01*
X479605Y795050D01*
X479694Y795037D01*
X479783Y795028D01*
X479872Y795022D01*
X479961Y795020D01*
X481937Y796431D02*
X482023Y796612D01*
X482104Y796794D01*
X482181Y796979D01*
X482253Y797165D01*
X482321Y797353D01*
X482384Y797543D01*
X482443Y797734D01*
X482497Y797926D01*
X482547Y798120D01*
X482591Y798315D01*
X482632Y798511D01*
X482667Y798707D01*
X482698Y798905D01*
X482724Y799103D01*
X482746Y799302D01*
X482763Y799501D01*
X482774Y799700D01*
X482782Y799900D01*
X482784Y800100D01*
X481936Y796431D02*
X481905Y796347D01*
X481871Y796265D01*
X481833Y796184D01*
X481792Y796104D01*
X481747Y796027D01*
X481700Y795952D01*
X481649Y795878D01*
X481594Y795807D01*
X481537Y795739D01*
X481477Y795672D01*
X481414Y795609D01*
X481349Y795548D01*
X481281Y795490D01*
X481211Y795435D01*
X481138Y795383D01*
X481063Y795335D01*
X480986Y795289D01*
X480908Y795247D01*
X480827Y795208D01*
X480745Y795173D01*
X480662Y795141D01*
X480577Y795113D01*
X480491Y795088D01*
X480404Y795068D01*
X480317Y795050D01*
X480228Y795037D01*
X480139Y795028D01*
X480050Y795022D01*
X479961Y795020D01*
X477703Y797278D02*
X482219Y802922D01*
X488569Y797278D02*
X490827Y805180D01*
X488569Y797278D02*
X494213Y797278D01*
X492520Y799536D02*
X492520Y795020D01*
D10*
X279400Y768350D02*
X273050Y762000D01*
X260350Y762000D01*
X254000Y768350D01*
X254000Y781050D02*
X260350Y787400D01*
X273050Y787400D01*
X279400Y781050D01*
X311150Y762000D02*
X323850Y762000D01*
X311150Y762000D02*
X304800Y768350D01*
X304800Y781050D02*
X311150Y787400D01*
X304800Y768350D02*
X298450Y762000D01*
X285750Y762000D01*
X279400Y768350D01*
X279400Y781050D02*
X285750Y787400D01*
X298450Y787400D01*
X304800Y781050D01*
X330200Y781050D02*
X330200Y768350D01*
X323850Y762000D01*
X330200Y781050D02*
X323850Y787400D01*
X311150Y787400D01*
X254000Y781050D02*
X254000Y768350D01*
D15*
X254254Y795020D02*
X254254Y805180D01*
X254254Y795020D02*
X258770Y795020D01*
X264160Y795020D02*
X268676Y795020D01*
X264160Y795020D02*
X264160Y805180D01*
X268676Y805180D01*
X267547Y800664D02*
X264160Y800664D01*
X274066Y805180D02*
X274066Y795020D01*
X274066Y805180D02*
X278581Y805180D01*
X278581Y800664D02*
X274066Y800664D01*
X285612Y805180D02*
X285612Y795020D01*
X282789Y805180D02*
X288434Y805180D01*
X301272Y795020D02*
X301365Y795022D01*
X301458Y795028D01*
X301551Y795037D01*
X301644Y795051D01*
X301735Y795068D01*
X301826Y795089D01*
X301916Y795114D01*
X302005Y795142D01*
X302093Y795174D01*
X302179Y795210D01*
X302264Y795249D01*
X302347Y795292D01*
X302428Y795338D01*
X302507Y795388D01*
X302584Y795440D01*
X302659Y795496D01*
X302731Y795555D01*
X302801Y795617D01*
X302869Y795681D01*
X302933Y795749D01*
X302995Y795819D01*
X303054Y795891D01*
X303110Y795966D01*
X303162Y796043D01*
X303212Y796122D01*
X303258Y796203D01*
X303301Y796286D01*
X303340Y796371D01*
X303376Y796457D01*
X303408Y796545D01*
X303436Y796634D01*
X303461Y796724D01*
X303482Y796815D01*
X303499Y796906D01*
X303513Y796999D01*
X303522Y797092D01*
X303528Y797185D01*
X303530Y797278D01*
X301272Y795020D02*
X301138Y795022D01*
X301003Y795028D01*
X300869Y795037D01*
X300735Y795050D01*
X300602Y795067D01*
X300469Y795088D01*
X300337Y795113D01*
X300205Y795141D01*
X300074Y795173D01*
X299945Y795208D01*
X299816Y795248D01*
X299689Y795291D01*
X299562Y795337D01*
X299437Y795387D01*
X299314Y795440D01*
X299192Y795497D01*
X299072Y795558D01*
X298953Y795621D01*
X298837Y795688D01*
X298722Y795759D01*
X298610Y795832D01*
X298499Y795909D01*
X298391Y795989D01*
X298285Y796071D01*
X298181Y796157D01*
X298080Y796246D01*
X297981Y796337D01*
X297885Y796431D01*
X298168Y802922D02*
X298170Y803015D01*
X298176Y803108D01*
X298185Y803201D01*
X298199Y803294D01*
X298216Y803385D01*
X298237Y803476D01*
X298262Y803566D01*
X298290Y803655D01*
X298322Y803743D01*
X298358Y803829D01*
X298397Y803914D01*
X298440Y803997D01*
X298486Y804078D01*
X298536Y804157D01*
X298588Y804234D01*
X298644Y804309D01*
X298703Y804381D01*
X298765Y804451D01*
X298829Y804519D01*
X298897Y804583D01*
X298967Y804645D01*
X299039Y804704D01*
X299114Y804760D01*
X299191Y804812D01*
X299270Y804862D01*
X299351Y804908D01*
X299434Y804951D01*
X299519Y804990D01*
X299605Y805026D01*
X299693Y805058D01*
X299782Y805086D01*
X299872Y805111D01*
X299963Y805132D01*
X300054Y805149D01*
X300147Y805163D01*
X300240Y805172D01*
X300333Y805178D01*
X300426Y805180D01*
X300556Y805178D01*
X300685Y805172D01*
X300815Y805162D01*
X300944Y805148D01*
X301072Y805130D01*
X301200Y805109D01*
X301327Y805083D01*
X301453Y805053D01*
X301579Y805020D01*
X301703Y804983D01*
X301826Y804942D01*
X301948Y804897D01*
X302068Y804849D01*
X302187Y804796D01*
X302304Y804741D01*
X302419Y804681D01*
X302533Y804619D01*
X302644Y804552D01*
X302754Y804483D01*
X302861Y804410D01*
X302966Y804333D01*
X299297Y800947D02*
X299216Y800997D01*
X299137Y801050D01*
X299060Y801106D01*
X298986Y801166D01*
X298915Y801229D01*
X298846Y801295D01*
X298779Y801363D01*
X298716Y801434D01*
X298656Y801508D01*
X298599Y801584D01*
X298545Y801663D01*
X298494Y801743D01*
X298447Y801826D01*
X298403Y801911D01*
X298363Y801997D01*
X298326Y802085D01*
X298293Y802174D01*
X298264Y802265D01*
X298239Y802357D01*
X298217Y802449D01*
X298200Y802543D01*
X298186Y802637D01*
X298176Y802732D01*
X298170Y802827D01*
X298168Y802922D01*
X302401Y799254D02*
X302482Y799203D01*
X302561Y799150D01*
X302638Y799094D01*
X302712Y799034D01*
X302783Y798971D01*
X302852Y798905D01*
X302919Y798837D01*
X302982Y798766D01*
X303042Y798692D01*
X303099Y798616D01*
X303153Y798537D01*
X303204Y798457D01*
X303251Y798374D01*
X303295Y798289D01*
X303335Y798203D01*
X303372Y798115D01*
X303405Y798026D01*
X303434Y797935D01*
X303459Y797844D01*
X303481Y797751D01*
X303498Y797657D01*
X303512Y797563D01*
X303522Y797468D01*
X303528Y797373D01*
X303530Y797278D01*
X302401Y799253D02*
X299297Y800947D01*
X309355Y795020D02*
X313871Y795020D01*
X309355Y795020D02*
X309355Y805180D01*
X313871Y805180D01*
X312742Y800664D02*
X309355Y800664D01*
X319350Y805180D02*
X319350Y795020D01*
X319350Y805180D02*
X322173Y805180D01*
X322279Y805178D01*
X322384Y805172D01*
X322489Y805162D01*
X322594Y805148D01*
X322698Y805131D01*
X322801Y805109D01*
X322903Y805084D01*
X323005Y805055D01*
X323105Y805022D01*
X323204Y804985D01*
X323301Y804945D01*
X323397Y804901D01*
X323492Y804853D01*
X323584Y804802D01*
X323674Y804747D01*
X323763Y804690D01*
X323849Y804629D01*
X323932Y804564D01*
X324014Y804497D01*
X324092Y804427D01*
X324168Y804353D01*
X324242Y804277D01*
X324312Y804199D01*
X324379Y804117D01*
X324444Y804034D01*
X324505Y803948D01*
X324562Y803859D01*
X324617Y803769D01*
X324668Y803677D01*
X324716Y803582D01*
X324760Y803486D01*
X324800Y803389D01*
X324837Y803290D01*
X324870Y803190D01*
X324899Y803088D01*
X324924Y802986D01*
X324946Y802883D01*
X324963Y802779D01*
X324977Y802674D01*
X324987Y802569D01*
X324993Y802464D01*
X324995Y802358D01*
X324993Y802252D01*
X324987Y802147D01*
X324977Y802042D01*
X324963Y801937D01*
X324946Y801833D01*
X324924Y801730D01*
X324899Y801628D01*
X324870Y801526D01*
X324837Y801426D01*
X324800Y801327D01*
X324760Y801230D01*
X324716Y801134D01*
X324668Y801039D01*
X324617Y800947D01*
X324562Y800857D01*
X324505Y800768D01*
X324444Y800682D01*
X324379Y800599D01*
X324312Y800517D01*
X324242Y800439D01*
X324168Y800363D01*
X324092Y800289D01*
X324014Y800219D01*
X323932Y800152D01*
X323849Y800087D01*
X323763Y800026D01*
X323674Y799969D01*
X323584Y799914D01*
X323492Y799863D01*
X323397Y799815D01*
X323301Y799771D01*
X323204Y799731D01*
X323105Y799694D01*
X323005Y799661D01*
X322903Y799632D01*
X322801Y799607D01*
X322698Y799585D01*
X322594Y799568D01*
X322489Y799554D01*
X322384Y799544D01*
X322279Y799538D01*
X322173Y799536D01*
X319350Y799536D01*
X322737Y799536D02*
X324995Y795020D01*
X333474Y795020D02*
X330087Y805180D01*
X336860Y805180D02*
X333474Y795020D01*
X342082Y797842D02*
X342082Y802358D01*
X342084Y802464D01*
X342090Y802569D01*
X342100Y802674D01*
X342114Y802779D01*
X342131Y802883D01*
X342153Y802986D01*
X342178Y803088D01*
X342207Y803190D01*
X342240Y803290D01*
X342277Y803389D01*
X342317Y803486D01*
X342361Y803582D01*
X342409Y803677D01*
X342460Y803769D01*
X342515Y803859D01*
X342572Y803948D01*
X342633Y804034D01*
X342698Y804117D01*
X342765Y804199D01*
X342835Y804277D01*
X342909Y804353D01*
X342985Y804427D01*
X343063Y804497D01*
X343145Y804564D01*
X343228Y804629D01*
X343314Y804690D01*
X343403Y804747D01*
X343493Y804802D01*
X343585Y804853D01*
X343680Y804901D01*
X343776Y804945D01*
X343873Y804985D01*
X343972Y805022D01*
X344072Y805055D01*
X344174Y805084D01*
X344276Y805109D01*
X344379Y805131D01*
X344483Y805148D01*
X344588Y805162D01*
X344693Y805172D01*
X344798Y805178D01*
X344904Y805180D01*
X345010Y805178D01*
X345115Y805172D01*
X345220Y805162D01*
X345325Y805148D01*
X345429Y805131D01*
X345532Y805109D01*
X345634Y805084D01*
X345736Y805055D01*
X345836Y805022D01*
X345935Y804985D01*
X346032Y804945D01*
X346128Y804901D01*
X346223Y804853D01*
X346315Y804802D01*
X346405Y804747D01*
X346494Y804690D01*
X346580Y804629D01*
X346663Y804564D01*
X346745Y804497D01*
X346823Y804427D01*
X346899Y804353D01*
X346973Y804277D01*
X347043Y804199D01*
X347110Y804117D01*
X347175Y804034D01*
X347236Y803948D01*
X347293Y803859D01*
X347348Y803769D01*
X347399Y803677D01*
X347447Y803582D01*
X347491Y803486D01*
X347531Y803389D01*
X347568Y803290D01*
X347601Y803190D01*
X347630Y803088D01*
X347655Y802986D01*
X347677Y802883D01*
X347694Y802779D01*
X347708Y802674D01*
X347718Y802569D01*
X347724Y802464D01*
X347726Y802358D01*
X347726Y797842D01*
X347724Y797736D01*
X347718Y797631D01*
X347708Y797526D01*
X347694Y797421D01*
X347677Y797317D01*
X347655Y797214D01*
X347630Y797112D01*
X347601Y797010D01*
X347568Y796910D01*
X347531Y796811D01*
X347491Y796714D01*
X347447Y796618D01*
X347399Y796523D01*
X347348Y796431D01*
X347293Y796341D01*
X347236Y796252D01*
X347175Y796166D01*
X347110Y796083D01*
X347043Y796001D01*
X346973Y795923D01*
X346899Y795847D01*
X346823Y795773D01*
X346745Y795703D01*
X346663Y795636D01*
X346580Y795571D01*
X346494Y795510D01*
X346405Y795453D01*
X346315Y795398D01*
X346223Y795347D01*
X346128Y795299D01*
X346032Y795255D01*
X345935Y795215D01*
X345836Y795178D01*
X345736Y795145D01*
X345634Y795116D01*
X345532Y795091D01*
X345429Y795069D01*
X345325Y795052D01*
X345220Y795038D01*
X345115Y795028D01*
X345010Y795022D01*
X344904Y795020D01*
X344798Y795022D01*
X344693Y795028D01*
X344588Y795038D01*
X344483Y795052D01*
X344379Y795069D01*
X344276Y795091D01*
X344174Y795116D01*
X344072Y795145D01*
X343972Y795178D01*
X343873Y795215D01*
X343776Y795255D01*
X343680Y795299D01*
X343585Y795347D01*
X343493Y795398D01*
X343403Y795453D01*
X343314Y795510D01*
X343228Y795571D01*
X343145Y795636D01*
X343063Y795703D01*
X342985Y795773D01*
X342909Y795847D01*
X342835Y795923D01*
X342765Y796001D01*
X342698Y796083D01*
X342633Y796166D01*
X342572Y796252D01*
X342515Y796341D01*
X342460Y796431D01*
X342409Y796523D01*
X342361Y796618D01*
X342317Y796714D01*
X342277Y796811D01*
X342240Y796910D01*
X342207Y797010D01*
X342178Y797112D01*
X342153Y797214D01*
X342131Y797317D01*
X342114Y797421D01*
X342100Y797526D01*
X342090Y797631D01*
X342084Y797736D01*
X342082Y797842D01*
D10*
X603250Y762000D02*
X609600Y768350D01*
X603250Y762000D02*
X590550Y762000D01*
X584200Y768350D01*
X584200Y781050D02*
X590550Y787400D01*
X603250Y787400D01*
X609600Y781050D01*
X641350Y762000D02*
X654050Y762000D01*
X641350Y762000D02*
X635000Y768350D01*
X635000Y781050D02*
X641350Y787400D01*
X635000Y768350D02*
X628650Y762000D01*
X615950Y762000D01*
X609600Y768350D01*
X609600Y781050D02*
X615950Y787400D01*
X628650Y787400D01*
X635000Y781050D01*
X660400Y781050D02*
X660400Y768350D01*
X654050Y762000D01*
X660400Y781050D02*
X654050Y787400D01*
X641350Y787400D01*
X584200Y781050D02*
X584200Y768350D01*
D15*
X547624Y795020D02*
X547624Y805180D01*
X550446Y805180D01*
X550552Y805178D01*
X550657Y805172D01*
X550762Y805162D01*
X550867Y805148D01*
X550971Y805131D01*
X551074Y805109D01*
X551176Y805084D01*
X551278Y805055D01*
X551378Y805022D01*
X551477Y804985D01*
X551574Y804945D01*
X551670Y804901D01*
X551765Y804853D01*
X551857Y804802D01*
X551947Y804747D01*
X552036Y804690D01*
X552122Y804629D01*
X552205Y804564D01*
X552287Y804497D01*
X552365Y804427D01*
X552441Y804353D01*
X552515Y804277D01*
X552585Y804199D01*
X552652Y804117D01*
X552717Y804034D01*
X552778Y803948D01*
X552835Y803859D01*
X552890Y803769D01*
X552941Y803677D01*
X552989Y803582D01*
X553033Y803486D01*
X553073Y803389D01*
X553110Y803290D01*
X553143Y803190D01*
X553172Y803088D01*
X553197Y802986D01*
X553219Y802883D01*
X553236Y802779D01*
X553250Y802674D01*
X553260Y802569D01*
X553266Y802464D01*
X553268Y802358D01*
X553266Y802252D01*
X553260Y802147D01*
X553250Y802042D01*
X553236Y801937D01*
X553219Y801833D01*
X553197Y801730D01*
X553172Y801628D01*
X553143Y801526D01*
X553110Y801426D01*
X553073Y801327D01*
X553033Y801230D01*
X552989Y801134D01*
X552941Y801039D01*
X552890Y800947D01*
X552835Y800857D01*
X552778Y800768D01*
X552717Y800682D01*
X552652Y800599D01*
X552585Y800517D01*
X552515Y800439D01*
X552441Y800363D01*
X552365Y800289D01*
X552287Y800219D01*
X552205Y800152D01*
X552122Y800087D01*
X552036Y800026D01*
X551947Y799969D01*
X551857Y799914D01*
X551765Y799863D01*
X551670Y799815D01*
X551574Y799771D01*
X551477Y799731D01*
X551378Y799694D01*
X551278Y799661D01*
X551176Y799632D01*
X551074Y799607D01*
X550971Y799585D01*
X550867Y799568D01*
X550762Y799554D01*
X550657Y799544D01*
X550552Y799538D01*
X550446Y799536D01*
X547624Y799536D01*
X551011Y799536D02*
X553268Y795020D01*
X559461Y795020D02*
X559461Y805180D01*
X558333Y795020D02*
X560590Y795020D01*
X560590Y805180D02*
X558333Y805180D01*
X570115Y800664D02*
X571809Y800664D01*
X571809Y795020D01*
X568422Y795020D01*
X568329Y795022D01*
X568236Y795028D01*
X568143Y795037D01*
X568050Y795051D01*
X567959Y795068D01*
X567868Y795089D01*
X567778Y795114D01*
X567689Y795142D01*
X567601Y795174D01*
X567515Y795210D01*
X567430Y795249D01*
X567347Y795292D01*
X567266Y795338D01*
X567187Y795388D01*
X567110Y795440D01*
X567035Y795496D01*
X566963Y795555D01*
X566893Y795617D01*
X566825Y795681D01*
X566761Y795749D01*
X566699Y795819D01*
X566640Y795891D01*
X566584Y795966D01*
X566532Y796043D01*
X566482Y796122D01*
X566436Y796203D01*
X566393Y796286D01*
X566354Y796371D01*
X566318Y796457D01*
X566286Y796545D01*
X566258Y796634D01*
X566233Y796724D01*
X566212Y796815D01*
X566195Y796906D01*
X566181Y796999D01*
X566172Y797092D01*
X566166Y797185D01*
X566164Y797278D01*
X566164Y802922D01*
X566166Y803015D01*
X566172Y803108D01*
X566181Y803201D01*
X566195Y803294D01*
X566212Y803385D01*
X566233Y803476D01*
X566258Y803566D01*
X566286Y803655D01*
X566318Y803743D01*
X566354Y803829D01*
X566393Y803914D01*
X566436Y803997D01*
X566482Y804078D01*
X566532Y804157D01*
X566584Y804234D01*
X566640Y804309D01*
X566699Y804381D01*
X566761Y804451D01*
X566825Y804519D01*
X566893Y804583D01*
X566963Y804645D01*
X567035Y804704D01*
X567110Y804760D01*
X567187Y804812D01*
X567266Y804862D01*
X567347Y804908D01*
X567430Y804951D01*
X567515Y804990D01*
X567601Y805026D01*
X567689Y805058D01*
X567778Y805086D01*
X567868Y805111D01*
X567959Y805132D01*
X568050Y805149D01*
X568143Y805163D01*
X568236Y805172D01*
X568329Y805178D01*
X568422Y805180D01*
X571809Y805180D01*
X578356Y805180D02*
X578356Y795020D01*
X578356Y800664D02*
X584001Y800664D01*
X584001Y805180D02*
X584001Y795020D01*
X592227Y795020D02*
X592227Y805180D01*
X589405Y805180D02*
X595050Y805180D01*
X607399Y794258D02*
X607492Y794260D01*
X607585Y794266D01*
X607678Y794275D01*
X607771Y794289D01*
X607862Y794306D01*
X607953Y794327D01*
X608043Y794352D01*
X608132Y794380D01*
X608220Y794412D01*
X608306Y794448D01*
X608391Y794487D01*
X608474Y794530D01*
X608555Y794576D01*
X608634Y794626D01*
X608711Y794678D01*
X608786Y794734D01*
X608858Y794793D01*
X608928Y794855D01*
X608996Y794919D01*
X609060Y794987D01*
X609122Y795057D01*
X609181Y795129D01*
X609237Y795204D01*
X609289Y795281D01*
X609339Y795360D01*
X609385Y795441D01*
X609428Y795524D01*
X609467Y795609D01*
X609503Y795695D01*
X609535Y795783D01*
X609563Y795872D01*
X609588Y795962D01*
X609609Y796053D01*
X609626Y796144D01*
X609640Y796237D01*
X609649Y796330D01*
X609655Y796423D01*
X609657Y796516D01*
X607399Y794258D02*
X607265Y794260D01*
X607130Y794266D01*
X606996Y794275D01*
X606862Y794288D01*
X606729Y794305D01*
X606596Y794326D01*
X606464Y794351D01*
X606332Y794379D01*
X606201Y794411D01*
X606072Y794446D01*
X605943Y794486D01*
X605816Y794529D01*
X605689Y794575D01*
X605564Y794625D01*
X605441Y794678D01*
X605319Y794735D01*
X605199Y794796D01*
X605080Y794859D01*
X604964Y794926D01*
X604849Y794997D01*
X604737Y795070D01*
X604626Y795147D01*
X604518Y795227D01*
X604412Y795309D01*
X604308Y795395D01*
X604207Y795484D01*
X604108Y795575D01*
X604012Y795669D01*
X604294Y802160D02*
X604296Y802253D01*
X604302Y802346D01*
X604311Y802439D01*
X604325Y802532D01*
X604342Y802623D01*
X604363Y802714D01*
X604388Y802804D01*
X604416Y802893D01*
X604448Y802981D01*
X604484Y803067D01*
X604523Y803152D01*
X604566Y803235D01*
X604612Y803316D01*
X604662Y803395D01*
X604714Y803472D01*
X604770Y803547D01*
X604829Y803619D01*
X604891Y803689D01*
X604955Y803757D01*
X605023Y803821D01*
X605093Y803883D01*
X605165Y803942D01*
X605240Y803998D01*
X605317Y804050D01*
X605396Y804100D01*
X605477Y804146D01*
X605560Y804189D01*
X605645Y804228D01*
X605731Y804264D01*
X605819Y804296D01*
X605908Y804324D01*
X605998Y804349D01*
X606089Y804370D01*
X606180Y804387D01*
X606273Y804401D01*
X606366Y804410D01*
X606459Y804416D01*
X606552Y804418D01*
X606682Y804416D01*
X606811Y804410D01*
X606941Y804400D01*
X607070Y804386D01*
X607198Y804368D01*
X607326Y804347D01*
X607453Y804321D01*
X607579Y804291D01*
X607705Y804258D01*
X607829Y804221D01*
X607952Y804180D01*
X608074Y804135D01*
X608194Y804087D01*
X608313Y804034D01*
X608430Y803979D01*
X608545Y803919D01*
X608659Y803857D01*
X608770Y803790D01*
X608880Y803721D01*
X608987Y803648D01*
X609092Y803571D01*
X605423Y800185D02*
X605342Y800235D01*
X605263Y800288D01*
X605186Y800344D01*
X605112Y800404D01*
X605041Y800467D01*
X604972Y800533D01*
X604905Y800601D01*
X604842Y800672D01*
X604782Y800746D01*
X604725Y800822D01*
X604671Y800901D01*
X604620Y800981D01*
X604573Y801064D01*
X604529Y801149D01*
X604489Y801235D01*
X604452Y801323D01*
X604419Y801412D01*
X604390Y801503D01*
X604365Y801595D01*
X604343Y801687D01*
X604326Y801781D01*
X604312Y801875D01*
X604302Y801970D01*
X604296Y802065D01*
X604294Y802160D01*
X608527Y798492D02*
X608608Y798441D01*
X608687Y798388D01*
X608764Y798332D01*
X608838Y798272D01*
X608909Y798209D01*
X608978Y798143D01*
X609045Y798075D01*
X609108Y798004D01*
X609168Y797930D01*
X609225Y797854D01*
X609279Y797775D01*
X609330Y797695D01*
X609377Y797612D01*
X609421Y797527D01*
X609461Y797441D01*
X609498Y797353D01*
X609531Y797264D01*
X609560Y797173D01*
X609585Y797082D01*
X609607Y796989D01*
X609624Y796895D01*
X609638Y796801D01*
X609648Y796706D01*
X609654Y796611D01*
X609656Y796516D01*
X608528Y798491D02*
X605423Y800185D01*
X615482Y794258D02*
X619997Y794258D01*
X615482Y794258D02*
X615482Y804418D01*
X619997Y804418D01*
X618868Y799902D02*
X615482Y799902D01*
X625477Y804418D02*
X625477Y794258D01*
X625477Y804418D02*
X628299Y804418D01*
X628405Y804416D01*
X628510Y804410D01*
X628615Y804400D01*
X628720Y804386D01*
X628824Y804369D01*
X628927Y804347D01*
X629029Y804322D01*
X629131Y804293D01*
X629231Y804260D01*
X629330Y804223D01*
X629427Y804183D01*
X629523Y804139D01*
X629618Y804091D01*
X629710Y804040D01*
X629800Y803985D01*
X629889Y803928D01*
X629975Y803867D01*
X630058Y803802D01*
X630140Y803735D01*
X630218Y803665D01*
X630294Y803591D01*
X630368Y803515D01*
X630438Y803437D01*
X630505Y803355D01*
X630570Y803272D01*
X630631Y803186D01*
X630688Y803097D01*
X630743Y803007D01*
X630794Y802915D01*
X630842Y802820D01*
X630886Y802724D01*
X630926Y802627D01*
X630963Y802528D01*
X630996Y802428D01*
X631025Y802326D01*
X631050Y802224D01*
X631072Y802121D01*
X631089Y802017D01*
X631103Y801912D01*
X631113Y801807D01*
X631119Y801702D01*
X631121Y801596D01*
X631119Y801490D01*
X631113Y801385D01*
X631103Y801280D01*
X631089Y801175D01*
X631072Y801071D01*
X631050Y800968D01*
X631025Y800866D01*
X630996Y800764D01*
X630963Y800664D01*
X630926Y800565D01*
X630886Y800468D01*
X630842Y800372D01*
X630794Y800277D01*
X630743Y800185D01*
X630688Y800095D01*
X630631Y800006D01*
X630570Y799920D01*
X630505Y799837D01*
X630438Y799755D01*
X630368Y799677D01*
X630294Y799601D01*
X630218Y799527D01*
X630140Y799457D01*
X630058Y799390D01*
X629975Y799325D01*
X629889Y799264D01*
X629800Y799207D01*
X629710Y799152D01*
X629618Y799101D01*
X629523Y799053D01*
X629427Y799009D01*
X629330Y798969D01*
X629231Y798932D01*
X629131Y798899D01*
X629029Y798870D01*
X628927Y798845D01*
X628824Y798823D01*
X628720Y798806D01*
X628615Y798792D01*
X628510Y798782D01*
X628405Y798776D01*
X628299Y798774D01*
X625477Y798774D01*
X628863Y798774D02*
X631121Y794258D01*
X639600Y794258D02*
X636214Y804418D01*
X642987Y804418D02*
X639600Y794258D01*
X648208Y797080D02*
X648208Y801596D01*
X648210Y801702D01*
X648216Y801807D01*
X648226Y801912D01*
X648240Y802017D01*
X648257Y802121D01*
X648279Y802224D01*
X648304Y802326D01*
X648333Y802428D01*
X648366Y802528D01*
X648403Y802627D01*
X648443Y802724D01*
X648487Y802820D01*
X648535Y802915D01*
X648586Y803007D01*
X648641Y803097D01*
X648698Y803186D01*
X648759Y803272D01*
X648824Y803355D01*
X648891Y803437D01*
X648961Y803515D01*
X649035Y803591D01*
X649111Y803665D01*
X649189Y803735D01*
X649271Y803802D01*
X649354Y803867D01*
X649440Y803928D01*
X649529Y803985D01*
X649619Y804040D01*
X649711Y804091D01*
X649806Y804139D01*
X649902Y804183D01*
X649999Y804223D01*
X650098Y804260D01*
X650198Y804293D01*
X650300Y804322D01*
X650402Y804347D01*
X650505Y804369D01*
X650609Y804386D01*
X650714Y804400D01*
X650819Y804410D01*
X650924Y804416D01*
X651030Y804418D01*
X651136Y804416D01*
X651241Y804410D01*
X651346Y804400D01*
X651451Y804386D01*
X651555Y804369D01*
X651658Y804347D01*
X651760Y804322D01*
X651862Y804293D01*
X651962Y804260D01*
X652061Y804223D01*
X652158Y804183D01*
X652254Y804139D01*
X652349Y804091D01*
X652441Y804040D01*
X652531Y803985D01*
X652620Y803928D01*
X652706Y803867D01*
X652789Y803802D01*
X652871Y803735D01*
X652949Y803665D01*
X653025Y803591D01*
X653099Y803515D01*
X653169Y803437D01*
X653236Y803355D01*
X653301Y803272D01*
X653362Y803186D01*
X653419Y803097D01*
X653474Y803007D01*
X653525Y802915D01*
X653573Y802820D01*
X653617Y802724D01*
X653657Y802627D01*
X653694Y802528D01*
X653727Y802428D01*
X653756Y802326D01*
X653781Y802224D01*
X653803Y802121D01*
X653820Y802017D01*
X653834Y801912D01*
X653844Y801807D01*
X653850Y801702D01*
X653852Y801596D01*
X653852Y797080D01*
X653850Y796974D01*
X653844Y796869D01*
X653834Y796764D01*
X653820Y796659D01*
X653803Y796555D01*
X653781Y796452D01*
X653756Y796350D01*
X653727Y796248D01*
X653694Y796148D01*
X653657Y796049D01*
X653617Y795952D01*
X653573Y795856D01*
X653525Y795761D01*
X653474Y795669D01*
X653419Y795579D01*
X653362Y795490D01*
X653301Y795404D01*
X653236Y795321D01*
X653169Y795239D01*
X653099Y795161D01*
X653025Y795085D01*
X652949Y795011D01*
X652871Y794941D01*
X652789Y794874D01*
X652706Y794809D01*
X652620Y794748D01*
X652531Y794691D01*
X652441Y794636D01*
X652349Y794585D01*
X652254Y794537D01*
X652158Y794493D01*
X652061Y794453D01*
X651962Y794416D01*
X651862Y794383D01*
X651760Y794354D01*
X651658Y794329D01*
X651555Y794307D01*
X651451Y794290D01*
X651346Y794276D01*
X651241Y794266D01*
X651136Y794260D01*
X651030Y794258D01*
X650924Y794260D01*
X650819Y794266D01*
X650714Y794276D01*
X650609Y794290D01*
X650505Y794307D01*
X650402Y794329D01*
X650300Y794354D01*
X650198Y794383D01*
X650098Y794416D01*
X649999Y794453D01*
X649902Y794493D01*
X649806Y794537D01*
X649711Y794585D01*
X649619Y794636D01*
X649529Y794691D01*
X649440Y794748D01*
X649354Y794809D01*
X649271Y794874D01*
X649189Y794941D01*
X649111Y795011D01*
X649035Y795085D01*
X648961Y795161D01*
X648891Y795239D01*
X648824Y795321D01*
X648759Y795404D01*
X648698Y795490D01*
X648641Y795579D01*
X648586Y795669D01*
X648535Y795761D01*
X648487Y795856D01*
X648443Y795952D01*
X648403Y796049D01*
X648366Y796148D01*
X648333Y796248D01*
X648304Y796350D01*
X648279Y796452D01*
X648257Y796555D01*
X648240Y796659D01*
X648226Y796764D01*
X648216Y796869D01*
X648210Y796974D01*
X648208Y797080D01*
D11*
X416560Y572770D02*
X416560Y468630D01*
X257810Y468630D02*
X257810Y572770D01*
X292100Y572770D02*
X416560Y572770D01*
X292100Y572770D02*
X292100Y563880D01*
X276860Y563880D01*
X276860Y572770D01*
X257810Y572770D01*
X292100Y468630D02*
X416560Y468630D01*
X292100Y468630D02*
X292100Y477520D01*
X276860Y477520D01*
X276860Y468630D01*
X257810Y468630D01*
D16*
X410210Y474980D02*
X410210Y566420D01*
X327660Y566420D01*
X327660Y474980D01*
X410210Y474980D01*
D17*
X447675Y546100D03*
X447675Y520700D03*
X447675Y495300D03*
D18*
X430530Y495300D03*
X430530Y520700D03*
X430530Y546100D03*
D19*
X253111Y479267D02*
X237109Y479267D01*
X253111Y479267D02*
X253111Y486379D01*
X253111Y492934D02*
X237109Y492934D01*
X245999Y498268D01*
X237109Y503602D01*
X253111Y503602D01*
X238887Y511017D02*
X237109Y511017D01*
X237109Y519907D01*
X253111Y515462D01*
X248666Y526649D02*
X248534Y526651D01*
X248403Y526657D01*
X248271Y526667D01*
X248140Y526680D01*
X248010Y526698D01*
X247880Y526719D01*
X247750Y526744D01*
X247622Y526773D01*
X247494Y526806D01*
X247368Y526843D01*
X247242Y526883D01*
X247118Y526927D01*
X246995Y526975D01*
X246874Y527026D01*
X246754Y527081D01*
X246636Y527139D01*
X246520Y527201D01*
X246406Y527267D01*
X246293Y527335D01*
X246183Y527407D01*
X246075Y527482D01*
X245969Y527561D01*
X245865Y527642D01*
X245764Y527727D01*
X245666Y527814D01*
X245570Y527905D01*
X245477Y527998D01*
X245386Y528094D01*
X245299Y528192D01*
X245214Y528293D01*
X245133Y528397D01*
X245054Y528503D01*
X244979Y528611D01*
X244907Y528721D01*
X244839Y528834D01*
X244773Y528948D01*
X244711Y529064D01*
X244653Y529182D01*
X244598Y529302D01*
X244547Y529423D01*
X244499Y529546D01*
X244455Y529670D01*
X244415Y529796D01*
X244378Y529922D01*
X244345Y530050D01*
X244316Y530178D01*
X244291Y530308D01*
X244270Y530438D01*
X244252Y530568D01*
X244239Y530699D01*
X244229Y530831D01*
X244223Y530962D01*
X244221Y531094D01*
X244223Y531226D01*
X244229Y531357D01*
X244239Y531489D01*
X244252Y531620D01*
X244270Y531750D01*
X244291Y531880D01*
X244316Y532010D01*
X244345Y532138D01*
X244378Y532266D01*
X244415Y532392D01*
X244455Y532518D01*
X244499Y532642D01*
X244547Y532765D01*
X244598Y532886D01*
X244653Y533006D01*
X244711Y533124D01*
X244773Y533240D01*
X244839Y533354D01*
X244907Y533467D01*
X244979Y533577D01*
X245054Y533685D01*
X245133Y533791D01*
X245214Y533895D01*
X245299Y533996D01*
X245386Y534094D01*
X245477Y534190D01*
X245570Y534283D01*
X245666Y534374D01*
X245764Y534461D01*
X245865Y534546D01*
X245969Y534627D01*
X246075Y534706D01*
X246183Y534781D01*
X246293Y534853D01*
X246406Y534921D01*
X246520Y534987D01*
X246636Y535049D01*
X246754Y535107D01*
X246874Y535162D01*
X246995Y535213D01*
X247118Y535261D01*
X247242Y535305D01*
X247368Y535345D01*
X247494Y535382D01*
X247622Y535415D01*
X247750Y535444D01*
X247880Y535469D01*
X248010Y535490D01*
X248140Y535508D01*
X248271Y535521D01*
X248403Y535531D01*
X248534Y535537D01*
X248666Y535539D01*
X248798Y535537D01*
X248929Y535531D01*
X249061Y535521D01*
X249192Y535508D01*
X249322Y535490D01*
X249452Y535469D01*
X249582Y535444D01*
X249710Y535415D01*
X249838Y535382D01*
X249964Y535345D01*
X250090Y535305D01*
X250214Y535261D01*
X250337Y535213D01*
X250458Y535162D01*
X250578Y535107D01*
X250696Y535049D01*
X250812Y534987D01*
X250926Y534921D01*
X251039Y534853D01*
X251149Y534781D01*
X251257Y534706D01*
X251363Y534627D01*
X251467Y534546D01*
X251568Y534461D01*
X251666Y534374D01*
X251762Y534283D01*
X251855Y534190D01*
X251946Y534094D01*
X252033Y533996D01*
X252118Y533895D01*
X252199Y533791D01*
X252278Y533685D01*
X252353Y533577D01*
X252425Y533467D01*
X252493Y533354D01*
X252559Y533240D01*
X252621Y533124D01*
X252679Y533006D01*
X252734Y532886D01*
X252785Y532765D01*
X252833Y532642D01*
X252877Y532518D01*
X252917Y532392D01*
X252954Y532266D01*
X252987Y532138D01*
X253016Y532010D01*
X253041Y531880D01*
X253062Y531750D01*
X253080Y531620D01*
X253093Y531489D01*
X253103Y531357D01*
X253109Y531226D01*
X253111Y531094D01*
X253109Y530962D01*
X253103Y530831D01*
X253093Y530699D01*
X253080Y530568D01*
X253062Y530438D01*
X253041Y530308D01*
X253016Y530178D01*
X252987Y530050D01*
X252954Y529922D01*
X252917Y529796D01*
X252877Y529670D01*
X252833Y529546D01*
X252785Y529423D01*
X252734Y529302D01*
X252679Y529182D01*
X252621Y529064D01*
X252559Y528948D01*
X252493Y528834D01*
X252425Y528721D01*
X252353Y528611D01*
X252278Y528503D01*
X252199Y528397D01*
X252118Y528293D01*
X252033Y528192D01*
X251946Y528094D01*
X251855Y527998D01*
X251762Y527905D01*
X251666Y527814D01*
X251568Y527727D01*
X251467Y527642D01*
X251363Y527561D01*
X251257Y527482D01*
X251149Y527407D01*
X251039Y527335D01*
X250926Y527267D01*
X250812Y527201D01*
X250696Y527139D01*
X250578Y527081D01*
X250458Y527026D01*
X250337Y526975D01*
X250214Y526927D01*
X250090Y526883D01*
X249964Y526843D01*
X249838Y526806D01*
X249710Y526773D01*
X249582Y526744D01*
X249452Y526719D01*
X249322Y526698D01*
X249192Y526680D01*
X249061Y526667D01*
X248929Y526657D01*
X248798Y526651D01*
X248666Y526649D01*
X240665Y527538D02*
X240547Y527540D01*
X240430Y527546D01*
X240313Y527555D01*
X240196Y527569D01*
X240080Y527586D01*
X239964Y527608D01*
X239849Y527633D01*
X239735Y527662D01*
X239622Y527694D01*
X239510Y527731D01*
X239400Y527771D01*
X239291Y527814D01*
X239183Y527862D01*
X239077Y527912D01*
X238973Y527967D01*
X238870Y528024D01*
X238770Y528085D01*
X238671Y528150D01*
X238575Y528217D01*
X238481Y528288D01*
X238389Y528362D01*
X238300Y528438D01*
X238214Y528518D01*
X238130Y528600D01*
X238049Y528686D01*
X237971Y528773D01*
X237895Y528864D01*
X237823Y528957D01*
X237754Y529052D01*
X237688Y529149D01*
X237625Y529249D01*
X237566Y529350D01*
X237510Y529453D01*
X237458Y529559D01*
X237409Y529666D01*
X237363Y529774D01*
X237321Y529884D01*
X237283Y529995D01*
X237249Y530108D01*
X237218Y530221D01*
X237191Y530336D01*
X237168Y530451D01*
X237148Y530567D01*
X237133Y530683D01*
X237121Y530800D01*
X237113Y530918D01*
X237109Y531035D01*
X237109Y531153D01*
X237113Y531270D01*
X237121Y531388D01*
X237133Y531505D01*
X237148Y531621D01*
X237168Y531737D01*
X237191Y531852D01*
X237218Y531967D01*
X237249Y532080D01*
X237283Y532193D01*
X237321Y532304D01*
X237363Y532414D01*
X237409Y532522D01*
X237458Y532629D01*
X237510Y532735D01*
X237566Y532838D01*
X237625Y532939D01*
X237688Y533039D01*
X237754Y533136D01*
X237823Y533231D01*
X237895Y533324D01*
X237971Y533415D01*
X238049Y533502D01*
X238130Y533588D01*
X238214Y533670D01*
X238300Y533750D01*
X238389Y533826D01*
X238481Y533900D01*
X238575Y533971D01*
X238671Y534038D01*
X238770Y534103D01*
X238870Y534164D01*
X238973Y534221D01*
X239077Y534276D01*
X239183Y534326D01*
X239291Y534374D01*
X239400Y534417D01*
X239510Y534457D01*
X239622Y534494D01*
X239735Y534526D01*
X239849Y534555D01*
X239964Y534580D01*
X240080Y534602D01*
X240196Y534619D01*
X240313Y534633D01*
X240430Y534642D01*
X240547Y534648D01*
X240665Y534650D01*
X240783Y534648D01*
X240900Y534642D01*
X241017Y534633D01*
X241134Y534619D01*
X241250Y534602D01*
X241366Y534580D01*
X241481Y534555D01*
X241595Y534526D01*
X241708Y534494D01*
X241820Y534457D01*
X241930Y534417D01*
X242039Y534374D01*
X242147Y534326D01*
X242253Y534276D01*
X242357Y534221D01*
X242460Y534164D01*
X242560Y534103D01*
X242659Y534038D01*
X242755Y533971D01*
X242849Y533900D01*
X242941Y533826D01*
X243030Y533750D01*
X243116Y533670D01*
X243200Y533588D01*
X243281Y533502D01*
X243359Y533415D01*
X243435Y533324D01*
X243507Y533231D01*
X243576Y533136D01*
X243642Y533039D01*
X243705Y532939D01*
X243764Y532838D01*
X243820Y532735D01*
X243872Y532629D01*
X243921Y532522D01*
X243967Y532414D01*
X244009Y532304D01*
X244047Y532193D01*
X244081Y532080D01*
X244112Y531967D01*
X244139Y531852D01*
X244162Y531737D01*
X244182Y531621D01*
X244197Y531505D01*
X244209Y531388D01*
X244217Y531270D01*
X244221Y531153D01*
X244221Y531035D01*
X244217Y530918D01*
X244209Y530800D01*
X244197Y530683D01*
X244182Y530567D01*
X244162Y530451D01*
X244139Y530336D01*
X244112Y530221D01*
X244081Y530108D01*
X244047Y529995D01*
X244009Y529884D01*
X243967Y529774D01*
X243921Y529666D01*
X243872Y529559D01*
X243820Y529453D01*
X243764Y529350D01*
X243705Y529249D01*
X243642Y529149D01*
X243576Y529052D01*
X243507Y528957D01*
X243435Y528864D01*
X243359Y528773D01*
X243281Y528686D01*
X243200Y528600D01*
X243116Y528518D01*
X243030Y528438D01*
X242941Y528362D01*
X242849Y528288D01*
X242755Y528217D01*
X242659Y528150D01*
X242560Y528085D01*
X242460Y528024D01*
X242357Y527967D01*
X242253Y527912D01*
X242147Y527862D01*
X242039Y527814D01*
X241930Y527771D01*
X241820Y527731D01*
X241708Y527694D01*
X241595Y527662D01*
X241481Y527633D01*
X241366Y527608D01*
X241250Y527586D01*
X241134Y527569D01*
X241017Y527555D01*
X240900Y527546D01*
X240783Y527540D01*
X240665Y527538D01*
X245110Y542280D02*
X244795Y542284D01*
X244481Y542295D01*
X244166Y542314D01*
X243853Y542340D01*
X243540Y542374D01*
X243228Y542415D01*
X242917Y542464D01*
X242607Y542520D01*
X242298Y542583D01*
X241992Y542654D01*
X241687Y542732D01*
X241384Y542817D01*
X241083Y542910D01*
X240784Y543010D01*
X240488Y543117D01*
X240194Y543230D01*
X239904Y543351D01*
X239616Y543479D01*
X239331Y543614D01*
X239225Y543652D01*
X239120Y543695D01*
X239016Y543740D01*
X238914Y543790D01*
X238814Y543843D01*
X238715Y543899D01*
X238619Y543959D01*
X238525Y544022D01*
X238433Y544088D01*
X238343Y544157D01*
X238256Y544229D01*
X238171Y544305D01*
X238089Y544383D01*
X238010Y544464D01*
X237933Y544547D01*
X237860Y544634D01*
X237789Y544722D01*
X237722Y544813D01*
X237657Y544907D01*
X237596Y545002D01*
X237539Y545100D01*
X237484Y545199D01*
X237434Y545300D01*
X237386Y545403D01*
X237342Y545508D01*
X237302Y545614D01*
X237266Y545721D01*
X237233Y545830D01*
X237204Y545939D01*
X237179Y546050D01*
X237158Y546161D01*
X237140Y546273D01*
X237127Y546386D01*
X237117Y546499D01*
X237111Y546612D01*
X237109Y546725D01*
X237111Y546838D01*
X237117Y546951D01*
X237127Y547064D01*
X237140Y547177D01*
X237158Y547289D01*
X237179Y547400D01*
X237204Y547511D01*
X237233Y547620D01*
X237266Y547729D01*
X237302Y547836D01*
X237342Y547942D01*
X237386Y548047D01*
X237434Y548150D01*
X237484Y548251D01*
X237539Y548350D01*
X237596Y548448D01*
X237657Y548543D01*
X237722Y548637D01*
X237789Y548728D01*
X237860Y548816D01*
X237933Y548903D01*
X238010Y548986D01*
X238089Y549067D01*
X238171Y549145D01*
X238256Y549221D01*
X238343Y549293D01*
X238433Y549362D01*
X238525Y549428D01*
X238619Y549491D01*
X238715Y549551D01*
X238814Y549607D01*
X238914Y549660D01*
X239016Y549710D01*
X239120Y549755D01*
X239225Y549798D01*
X239331Y549836D01*
X239616Y549971D01*
X239904Y550099D01*
X240194Y550220D01*
X240488Y550333D01*
X240784Y550440D01*
X241083Y550540D01*
X241384Y550633D01*
X241687Y550718D01*
X241992Y550796D01*
X242298Y550867D01*
X242607Y550930D01*
X242917Y550986D01*
X243228Y551035D01*
X243540Y551076D01*
X243853Y551110D01*
X244166Y551136D01*
X244481Y551155D01*
X244795Y551166D01*
X245110Y551170D01*
X245110Y542280D02*
X245425Y542284D01*
X245739Y542295D01*
X246054Y542314D01*
X246367Y542340D01*
X246680Y542374D01*
X246992Y542415D01*
X247303Y542464D01*
X247613Y542520D01*
X247922Y542583D01*
X248228Y542654D01*
X248533Y542732D01*
X248836Y542817D01*
X249137Y542910D01*
X249436Y543010D01*
X249732Y543117D01*
X250026Y543230D01*
X250316Y543351D01*
X250604Y543479D01*
X250889Y543614D01*
X250995Y543652D01*
X251100Y543695D01*
X251204Y543740D01*
X251306Y543790D01*
X251406Y543843D01*
X251505Y543899D01*
X251601Y543959D01*
X251695Y544022D01*
X251787Y544088D01*
X251877Y544157D01*
X251964Y544229D01*
X252049Y544305D01*
X252131Y544383D01*
X252210Y544464D01*
X252287Y544547D01*
X252360Y544634D01*
X252431Y544722D01*
X252498Y544813D01*
X252563Y544907D01*
X252624Y545002D01*
X252681Y545100D01*
X252736Y545199D01*
X252786Y545300D01*
X252834Y545403D01*
X252878Y545508D01*
X252918Y545614D01*
X252954Y545721D01*
X252987Y545830D01*
X253016Y545939D01*
X253041Y546050D01*
X253062Y546161D01*
X253080Y546273D01*
X253093Y546386D01*
X253103Y546499D01*
X253109Y546612D01*
X253111Y546725D01*
X250889Y549836D02*
X250604Y549971D01*
X250316Y550099D01*
X250026Y550220D01*
X249732Y550333D01*
X249436Y550440D01*
X249137Y550540D01*
X248836Y550633D01*
X248533Y550718D01*
X248228Y550796D01*
X247922Y550867D01*
X247613Y550930D01*
X247303Y550986D01*
X246992Y551035D01*
X246680Y551076D01*
X246367Y551110D01*
X246054Y551136D01*
X245739Y551155D01*
X245425Y551166D01*
X245110Y551170D01*
X250889Y549836D02*
X250995Y549798D01*
X251100Y549755D01*
X251204Y549710D01*
X251306Y549660D01*
X251406Y549607D01*
X251505Y549551D01*
X251601Y549491D01*
X251695Y549428D01*
X251787Y549362D01*
X251877Y549293D01*
X251964Y549221D01*
X252049Y549145D01*
X252131Y549067D01*
X252210Y548986D01*
X252287Y548903D01*
X252360Y548816D01*
X252431Y548728D01*
X252498Y548637D01*
X252563Y548543D01*
X252624Y548448D01*
X252681Y548350D01*
X252736Y548251D01*
X252786Y548150D01*
X252834Y548047D01*
X252878Y547942D01*
X252918Y547836D01*
X252954Y547729D01*
X252987Y547620D01*
X253016Y547511D01*
X253041Y547400D01*
X253062Y547289D01*
X253080Y547177D01*
X253093Y547064D01*
X253103Y546951D01*
X253109Y546838D01*
X253111Y546725D01*
X249555Y543169D02*
X240665Y550281D01*
X253111Y557911D02*
X253111Y563245D01*
X253109Y563361D01*
X253103Y563478D01*
X253094Y563594D01*
X253081Y563709D01*
X253064Y563824D01*
X253043Y563939D01*
X253018Y564052D01*
X252990Y564165D01*
X252958Y564277D01*
X252922Y564388D01*
X252883Y564498D01*
X252840Y564606D01*
X252794Y564713D01*
X252744Y564818D01*
X252691Y564921D01*
X252635Y565023D01*
X252575Y565123D01*
X252512Y565221D01*
X252445Y565316D01*
X252376Y565410D01*
X252304Y565501D01*
X252229Y565590D01*
X252150Y565676D01*
X252069Y565759D01*
X251986Y565840D01*
X251900Y565919D01*
X251811Y565994D01*
X251720Y566066D01*
X251626Y566135D01*
X251531Y566202D01*
X251433Y566265D01*
X251333Y566325D01*
X251231Y566381D01*
X251128Y566434D01*
X251023Y566484D01*
X250916Y566530D01*
X250808Y566573D01*
X250698Y566612D01*
X250587Y566648D01*
X250475Y566680D01*
X250362Y566708D01*
X250249Y566733D01*
X250134Y566754D01*
X250019Y566771D01*
X249904Y566784D01*
X249788Y566793D01*
X249671Y566799D01*
X249555Y566801D01*
X247777Y566801D01*
X247661Y566799D01*
X247544Y566793D01*
X247428Y566784D01*
X247313Y566771D01*
X247198Y566754D01*
X247083Y566733D01*
X246970Y566708D01*
X246857Y566680D01*
X246745Y566648D01*
X246634Y566612D01*
X246524Y566573D01*
X246416Y566530D01*
X246309Y566484D01*
X246204Y566434D01*
X246101Y566381D01*
X245999Y566325D01*
X245899Y566265D01*
X245801Y566202D01*
X245706Y566135D01*
X245612Y566066D01*
X245521Y565994D01*
X245432Y565919D01*
X245346Y565840D01*
X245263Y565759D01*
X245182Y565676D01*
X245103Y565590D01*
X245028Y565501D01*
X244956Y565410D01*
X244887Y565316D01*
X244820Y565221D01*
X244757Y565123D01*
X244697Y565023D01*
X244641Y564921D01*
X244588Y564818D01*
X244538Y564713D01*
X244492Y564606D01*
X244449Y564498D01*
X244410Y564388D01*
X244374Y564277D01*
X244342Y564165D01*
X244314Y564052D01*
X244289Y563939D01*
X244268Y563824D01*
X244251Y563709D01*
X244238Y563594D01*
X244229Y563478D01*
X244223Y563361D01*
X244221Y563245D01*
X244221Y557911D01*
X237109Y557911D01*
X237109Y566801D01*
D10*
X620522Y515620D02*
X620522Y502920D01*
X614172Y496570D01*
X601472Y496570D02*
X595122Y502920D01*
X614172Y496570D02*
X620522Y490220D01*
X620522Y477520D01*
X614172Y471170D01*
X601472Y471170D02*
X595122Y477520D01*
X595122Y490220D01*
X601472Y496570D01*
X601472Y521970D02*
X614172Y521970D01*
X620522Y515620D01*
X601472Y521970D02*
X595122Y515620D01*
X595122Y502920D01*
X601472Y471170D02*
X614172Y471170D01*
D15*
X655122Y500803D02*
X655122Y504190D01*
X655123Y500803D02*
X655121Y500710D01*
X655115Y500617D01*
X655106Y500524D01*
X655092Y500431D01*
X655075Y500340D01*
X655054Y500249D01*
X655029Y500159D01*
X655001Y500070D01*
X654969Y499982D01*
X654933Y499896D01*
X654894Y499811D01*
X654851Y499728D01*
X654805Y499647D01*
X654755Y499568D01*
X654703Y499491D01*
X654647Y499416D01*
X654588Y499344D01*
X654526Y499274D01*
X654462Y499206D01*
X654394Y499142D01*
X654324Y499080D01*
X654252Y499021D01*
X654177Y498965D01*
X654100Y498913D01*
X654021Y498863D01*
X653940Y498817D01*
X653857Y498774D01*
X653772Y498735D01*
X653686Y498699D01*
X653598Y498667D01*
X653509Y498639D01*
X653419Y498614D01*
X653328Y498593D01*
X653237Y498576D01*
X653144Y498562D01*
X653051Y498553D01*
X652958Y498547D01*
X652865Y498545D01*
X652865Y498546D02*
X652300Y498546D01*
X652194Y498548D01*
X652089Y498554D01*
X651984Y498564D01*
X651879Y498578D01*
X651775Y498595D01*
X651672Y498617D01*
X651570Y498642D01*
X651468Y498671D01*
X651368Y498704D01*
X651269Y498741D01*
X651172Y498781D01*
X651076Y498825D01*
X650981Y498873D01*
X650889Y498924D01*
X650799Y498979D01*
X650710Y499036D01*
X650624Y499097D01*
X650541Y499162D01*
X650459Y499229D01*
X650381Y499299D01*
X650305Y499373D01*
X650231Y499449D01*
X650161Y499527D01*
X650094Y499609D01*
X650029Y499692D01*
X649968Y499778D01*
X649911Y499867D01*
X649856Y499957D01*
X649805Y500049D01*
X649757Y500144D01*
X649713Y500240D01*
X649673Y500337D01*
X649636Y500436D01*
X649603Y500536D01*
X649574Y500638D01*
X649549Y500740D01*
X649527Y500843D01*
X649510Y500947D01*
X649496Y501052D01*
X649486Y501157D01*
X649480Y501262D01*
X649478Y501368D01*
X649480Y501474D01*
X649486Y501579D01*
X649496Y501684D01*
X649510Y501789D01*
X649527Y501893D01*
X649549Y501996D01*
X649574Y502098D01*
X649603Y502200D01*
X649636Y502300D01*
X649673Y502399D01*
X649713Y502496D01*
X649757Y502592D01*
X649805Y502687D01*
X649856Y502779D01*
X649911Y502869D01*
X649968Y502958D01*
X650029Y503044D01*
X650094Y503127D01*
X650161Y503209D01*
X650231Y503287D01*
X650305Y503363D01*
X650381Y503437D01*
X650459Y503507D01*
X650541Y503574D01*
X650624Y503639D01*
X650710Y503700D01*
X650799Y503757D01*
X650889Y503812D01*
X650981Y503863D01*
X651076Y503911D01*
X651172Y503955D01*
X651269Y503995D01*
X651368Y504032D01*
X651468Y504065D01*
X651570Y504094D01*
X651672Y504119D01*
X651775Y504141D01*
X651879Y504158D01*
X651984Y504172D01*
X652089Y504182D01*
X652194Y504188D01*
X652300Y504190D01*
X655122Y504190D01*
X655122Y504191D02*
X655253Y504189D01*
X655385Y504183D01*
X655516Y504174D01*
X655646Y504160D01*
X655777Y504143D01*
X655906Y504122D01*
X656035Y504098D01*
X656163Y504069D01*
X656291Y504037D01*
X656417Y504001D01*
X656542Y503962D01*
X656667Y503919D01*
X656789Y503872D01*
X656911Y503822D01*
X657031Y503768D01*
X657149Y503711D01*
X657265Y503650D01*
X657380Y503586D01*
X657493Y503519D01*
X657604Y503448D01*
X657712Y503374D01*
X657819Y503297D01*
X657923Y503217D01*
X658025Y503134D01*
X658124Y503049D01*
X658221Y502960D01*
X658315Y502868D01*
X658407Y502774D01*
X658496Y502677D01*
X658581Y502578D01*
X658664Y502476D01*
X658744Y502372D01*
X658821Y502265D01*
X658895Y502157D01*
X658966Y502046D01*
X659033Y501933D01*
X659097Y501818D01*
X659158Y501702D01*
X659215Y501584D01*
X659269Y501464D01*
X659319Y501342D01*
X659366Y501220D01*
X659409Y501095D01*
X659448Y500970D01*
X659484Y500844D01*
X659516Y500716D01*
X659545Y500588D01*
X659569Y500459D01*
X659590Y500329D01*
X659607Y500199D01*
X659621Y500069D01*
X659630Y499938D01*
X659636Y499806D01*
X659638Y499675D01*
X659638Y512798D02*
X649478Y509411D01*
X649478Y516185D02*
X659638Y512798D01*
X660767Y520827D02*
X660767Y525343D01*
X653994Y531227D02*
X653994Y534049D01*
X653996Y534155D01*
X654002Y534260D01*
X654012Y534365D01*
X654026Y534470D01*
X654043Y534574D01*
X654065Y534677D01*
X654090Y534779D01*
X654119Y534881D01*
X654152Y534981D01*
X654189Y535080D01*
X654229Y535177D01*
X654273Y535273D01*
X654321Y535368D01*
X654372Y535460D01*
X654427Y535550D01*
X654484Y535639D01*
X654545Y535725D01*
X654610Y535808D01*
X654677Y535890D01*
X654747Y535968D01*
X654821Y536044D01*
X654897Y536118D01*
X654975Y536188D01*
X655057Y536255D01*
X655140Y536320D01*
X655226Y536381D01*
X655315Y536438D01*
X655405Y536493D01*
X655497Y536544D01*
X655592Y536592D01*
X655688Y536636D01*
X655785Y536676D01*
X655884Y536713D01*
X655984Y536746D01*
X656086Y536775D01*
X656188Y536800D01*
X656291Y536822D01*
X656395Y536839D01*
X656500Y536853D01*
X656605Y536863D01*
X656710Y536869D01*
X656816Y536871D01*
X656922Y536869D01*
X657027Y536863D01*
X657132Y536853D01*
X657237Y536839D01*
X657341Y536822D01*
X657444Y536800D01*
X657546Y536775D01*
X657648Y536746D01*
X657748Y536713D01*
X657847Y536676D01*
X657944Y536636D01*
X658040Y536592D01*
X658135Y536544D01*
X658227Y536493D01*
X658317Y536438D01*
X658406Y536381D01*
X658492Y536320D01*
X658575Y536255D01*
X658657Y536188D01*
X658735Y536118D01*
X658811Y536044D01*
X658885Y535968D01*
X658955Y535890D01*
X659022Y535808D01*
X659087Y535725D01*
X659148Y535639D01*
X659205Y535550D01*
X659260Y535460D01*
X659311Y535368D01*
X659359Y535273D01*
X659403Y535177D01*
X659443Y535080D01*
X659480Y534981D01*
X659513Y534881D01*
X659542Y534779D01*
X659567Y534677D01*
X659589Y534574D01*
X659606Y534470D01*
X659620Y534365D01*
X659630Y534260D01*
X659636Y534155D01*
X659638Y534049D01*
X659638Y531227D01*
X649478Y531227D01*
X649478Y534049D01*
X649480Y534142D01*
X649486Y534235D01*
X649495Y534328D01*
X649509Y534421D01*
X649526Y534512D01*
X649547Y534603D01*
X649572Y534693D01*
X649600Y534782D01*
X649632Y534870D01*
X649668Y534956D01*
X649707Y535041D01*
X649750Y535124D01*
X649796Y535205D01*
X649846Y535284D01*
X649898Y535361D01*
X649954Y535436D01*
X650013Y535508D01*
X650075Y535578D01*
X650139Y535646D01*
X650207Y535710D01*
X650277Y535772D01*
X650349Y535831D01*
X650424Y535887D01*
X650501Y535939D01*
X650580Y535989D01*
X650661Y536035D01*
X650744Y536078D01*
X650829Y536117D01*
X650915Y536153D01*
X651003Y536185D01*
X651092Y536213D01*
X651182Y536238D01*
X651273Y536259D01*
X651364Y536276D01*
X651457Y536290D01*
X651550Y536299D01*
X651643Y536305D01*
X651736Y536307D01*
X651829Y536305D01*
X651922Y536299D01*
X652015Y536290D01*
X652108Y536276D01*
X652199Y536259D01*
X652290Y536238D01*
X652380Y536213D01*
X652469Y536185D01*
X652557Y536153D01*
X652643Y536117D01*
X652728Y536078D01*
X652811Y536035D01*
X652892Y535989D01*
X652971Y535939D01*
X653048Y535887D01*
X653123Y535831D01*
X653195Y535772D01*
X653265Y535710D01*
X653333Y535646D01*
X653397Y535578D01*
X653459Y535508D01*
X653518Y535436D01*
X653574Y535361D01*
X653626Y535284D01*
X653676Y535205D01*
X653722Y535124D01*
X653765Y535041D01*
X653804Y534956D01*
X653840Y534870D01*
X653872Y534782D01*
X653900Y534693D01*
X653925Y534603D01*
X653946Y534512D01*
X653963Y534421D01*
X653977Y534328D01*
X653986Y534235D01*
X653992Y534142D01*
X653994Y534049D01*
X659638Y541415D02*
X649478Y544802D01*
X659638Y548188D01*
X657098Y547342D02*
X657098Y542262D01*
X659638Y555470D02*
X649478Y555470D01*
X649478Y552648D02*
X649478Y558292D01*
X649478Y565376D02*
X659638Y565376D01*
X649478Y562554D02*
X649478Y568198D01*
D10*
X572516Y567182D02*
X572516Y465582D01*
X521716Y465582D01*
X521716Y567182D01*
X572516Y567182D01*
M02*
