M48
;GenerationSoftware,Autodesk,EAGLE,9.6.2*%
;CreationDate,2021-05-20T19:57:30Z*%
FMAT,2
ICI,OFF
METRIC,TZ,000.000
T4C1.016
T3C1.100
T2C1.118
T1C3.175
%
G90
M71
T1
X2540Y48260
X2540Y2540
X48260Y2540
X48260Y48260
T2
X25629Y2083
X25629Y4623
X25629Y7163
T3
X40970Y3302
X35890Y3302
X38430Y3302
T4
X29286Y2057
X32080Y2057
X29235Y6223
X32029Y6223
X22022Y46838
X24562Y46838
X27102Y46838
X29642Y46838
X8153Y45949
X5613Y45949
X40488Y45974
X43028Y45974
X45568Y45974
X44806Y4648
X44806Y2108
X10693Y45949
X2108Y39319
X4648Y39319
X7188Y39319
X9728Y39319
X12268Y39319
X14808Y39319
X17348Y39319
X19888Y39319
X22428Y39319
X24968Y39319
X27508Y39319
X30048Y39319
X32588Y39319
X35128Y39319
X37668Y39319
X40208Y39319
X42748Y39319
X45288Y39319
X47828Y39319
X2108Y13919
X4648Y13919
X7188Y13919
X9728Y13919
X12268Y13919
X14808Y13919
X17348Y13919
X19888Y13919
X22428Y13919
X24968Y13919
X27508Y13919
X30048Y13919
X32588Y13919
X35128Y13919
X37668Y13919
X40208Y13919
X42748Y13919
X45288Y13919
X47828Y13919
X47803Y11430
X45263Y11430
X42723Y11430
X40183Y11430
X37643Y11430
X35103Y11430
X32563Y11430
X30023Y11430
X27483Y11430
X24943Y11430
X22403Y11430
X19863Y11430
X17323Y11430
X14783Y11430
X12243Y11430
X9703Y11430
X7163Y11430
X4623Y11430
X2083Y11430
X2108Y41935
X4648Y41935
X7188Y41935
X9728Y41935
X12268Y41935
X14808Y41935
X17348Y41935
X19888Y41935
X22428Y41935
X24968Y41935
X27508Y41935
X30048Y41935
X32588Y41935
X35128Y41935
X37668Y41935
X40208Y41935
X42748Y41935
X45288Y41935
X47828Y41935
M30