G04 EAGLE Gerber RS-274X export*
G75*
%MOMM*%
%FSLAX34Y34*%
%LPD*%
%INTop Copper*%
%IPPOS*%
%AMOC8*
5,1,8,0,0,1.08239X$1,22.5*%
G01*
%ADD10C,2.032000*%
%ADD11C,1.879600*%
%ADD12C,1.524000*%
%ADD13C,1.676400*%
%ADD14C,1.650000*%

G36*
X707410Y434852D02*
X707410Y434852D01*
X707429Y434850D01*
X707531Y434872D01*
X707633Y434888D01*
X707650Y434898D01*
X707670Y434902D01*
X707759Y434955D01*
X707850Y435004D01*
X707864Y435018D01*
X707881Y435028D01*
X707948Y435107D01*
X708020Y435182D01*
X708028Y435200D01*
X708041Y435215D01*
X708080Y435311D01*
X708123Y435405D01*
X708125Y435425D01*
X708133Y435443D01*
X708151Y435610D01*
X708151Y808990D01*
X708148Y809010D01*
X708150Y809029D01*
X708128Y809131D01*
X708112Y809233D01*
X708102Y809250D01*
X708098Y809270D01*
X708045Y809359D01*
X707996Y809450D01*
X707982Y809464D01*
X707972Y809481D01*
X707893Y809548D01*
X707818Y809620D01*
X707800Y809628D01*
X707785Y809641D01*
X707689Y809680D01*
X707595Y809723D01*
X707575Y809725D01*
X707557Y809733D01*
X707390Y809751D01*
X207010Y809751D01*
X206990Y809748D01*
X206971Y809750D01*
X206869Y809728D01*
X206767Y809712D01*
X206750Y809702D01*
X206730Y809698D01*
X206641Y809645D01*
X206550Y809596D01*
X206536Y809582D01*
X206519Y809572D01*
X206452Y809493D01*
X206380Y809418D01*
X206372Y809400D01*
X206359Y809385D01*
X206320Y809289D01*
X206277Y809195D01*
X206275Y809175D01*
X206267Y809157D01*
X206249Y808990D01*
X206249Y435610D01*
X206252Y435590D01*
X206250Y435571D01*
X206272Y435469D01*
X206288Y435367D01*
X206298Y435350D01*
X206302Y435330D01*
X206355Y435241D01*
X206404Y435150D01*
X206418Y435136D01*
X206428Y435119D01*
X206507Y435052D01*
X206582Y434980D01*
X206600Y434972D01*
X206615Y434959D01*
X206711Y434920D01*
X206805Y434877D01*
X206825Y434875D01*
X206843Y434867D01*
X207010Y434849D01*
X707390Y434849D01*
X707410Y434852D01*
G37*
%LPC*%
G36*
X442024Y762253D02*
X442024Y762253D01*
X437449Y764148D01*
X433948Y767649D01*
X432168Y771948D01*
X432114Y772034D01*
X432066Y772123D01*
X432050Y772138D01*
X432038Y772157D01*
X431960Y772221D01*
X431886Y772290D01*
X431866Y772299D01*
X431849Y772313D01*
X431754Y772350D01*
X431662Y772391D01*
X431640Y772394D01*
X431619Y772402D01*
X431518Y772406D01*
X431417Y772416D01*
X431396Y772411D01*
X431373Y772412D01*
X431276Y772384D01*
X431177Y772361D01*
X431158Y772350D01*
X431137Y772343D01*
X431054Y772286D01*
X430968Y772233D01*
X430953Y772216D01*
X430935Y772203D01*
X430875Y772122D01*
X430810Y772044D01*
X430798Y772019D01*
X430788Y772006D01*
X430778Y771975D01*
X430741Y771891D01*
X430164Y770117D01*
X429311Y768443D01*
X428206Y766922D01*
X426878Y765594D01*
X425357Y764489D01*
X423683Y763636D01*
X421896Y763055D01*
X420623Y762854D01*
X420623Y773938D01*
X420620Y773958D01*
X420622Y773977D01*
X420600Y774079D01*
X420583Y774181D01*
X420574Y774198D01*
X420570Y774218D01*
X420517Y774307D01*
X420468Y774398D01*
X420454Y774412D01*
X420444Y774429D01*
X420365Y774496D01*
X420290Y774567D01*
X420272Y774576D01*
X420257Y774589D01*
X420161Y774627D01*
X420067Y774671D01*
X420047Y774673D01*
X420029Y774681D01*
X419862Y774699D01*
X419099Y774699D01*
X419099Y774701D01*
X419862Y774701D01*
X419882Y774704D01*
X419901Y774702D01*
X420003Y774724D01*
X420105Y774741D01*
X420122Y774750D01*
X420142Y774754D01*
X420231Y774807D01*
X420322Y774856D01*
X420336Y774870D01*
X420353Y774880D01*
X420420Y774959D01*
X420491Y775034D01*
X420500Y775052D01*
X420513Y775067D01*
X420552Y775163D01*
X420595Y775257D01*
X420597Y775277D01*
X420605Y775295D01*
X420623Y775462D01*
X420623Y786546D01*
X421896Y786345D01*
X423683Y785764D01*
X425357Y784911D01*
X426878Y783806D01*
X428206Y782478D01*
X429311Y780957D01*
X430164Y779283D01*
X430741Y777509D01*
X430787Y777419D01*
X430828Y777326D01*
X430843Y777310D01*
X430853Y777290D01*
X430926Y777220D01*
X430995Y777145D01*
X431014Y777134D01*
X431030Y777119D01*
X431121Y777075D01*
X431210Y777026D01*
X431232Y777022D01*
X431252Y777013D01*
X431352Y777001D01*
X431452Y776983D01*
X431474Y776986D01*
X431496Y776983D01*
X431595Y777004D01*
X431695Y777018D01*
X431715Y777028D01*
X431737Y777033D01*
X431824Y777084D01*
X431915Y777130D01*
X431930Y777146D01*
X431949Y777157D01*
X432016Y777233D01*
X432087Y777305D01*
X432100Y777330D01*
X432111Y777342D01*
X432124Y777372D01*
X432168Y777452D01*
X433948Y781751D01*
X437449Y785252D01*
X442024Y787147D01*
X446976Y787147D01*
X451551Y785252D01*
X455052Y781751D01*
X456497Y778262D01*
X456535Y778201D01*
X456564Y778136D01*
X456599Y778098D01*
X456626Y778053D01*
X456682Y778007D01*
X456730Y777955D01*
X456776Y777930D01*
X456816Y777896D01*
X456883Y777871D01*
X456946Y777836D01*
X456997Y777827D01*
X457045Y777808D01*
X457117Y777805D01*
X457188Y777792D01*
X457239Y777800D01*
X457291Y777798D01*
X457360Y777818D01*
X457431Y777828D01*
X457477Y777852D01*
X457527Y777866D01*
X457586Y777907D01*
X457650Y777940D01*
X457687Y777977D01*
X457729Y778007D01*
X457772Y778064D01*
X457822Y778115D01*
X457857Y778178D01*
X457876Y778204D01*
X457883Y778226D01*
X457903Y778262D01*
X459348Y781751D01*
X462849Y785252D01*
X467424Y787147D01*
X472376Y787147D01*
X476951Y785252D01*
X480452Y781751D01*
X481897Y778262D01*
X481935Y778201D01*
X481964Y778136D01*
X481999Y778098D01*
X482026Y778053D01*
X482082Y778007D01*
X482130Y777955D01*
X482176Y777930D01*
X482216Y777896D01*
X482283Y777871D01*
X482346Y777836D01*
X482397Y777827D01*
X482445Y777808D01*
X482517Y777805D01*
X482588Y777792D01*
X482639Y777800D01*
X482691Y777798D01*
X482760Y777818D01*
X482831Y777828D01*
X482877Y777852D01*
X482927Y777866D01*
X482986Y777907D01*
X483050Y777940D01*
X483087Y777977D01*
X483129Y778007D01*
X483172Y778064D01*
X483222Y778115D01*
X483257Y778178D01*
X483276Y778204D01*
X483283Y778226D01*
X483303Y778262D01*
X484748Y781751D01*
X488249Y785252D01*
X492824Y787147D01*
X497776Y787147D01*
X502351Y785252D01*
X505852Y781751D01*
X507747Y777176D01*
X507747Y772224D01*
X505852Y767649D01*
X502351Y764148D01*
X497776Y762253D01*
X492824Y762253D01*
X488249Y764148D01*
X484748Y767649D01*
X483303Y771138D01*
X483265Y771199D01*
X483236Y771264D01*
X483201Y771302D01*
X483174Y771347D01*
X483118Y771392D01*
X483070Y771445D01*
X483024Y771470D01*
X482984Y771504D01*
X482917Y771529D01*
X482854Y771564D01*
X482803Y771573D01*
X482755Y771592D01*
X482683Y771595D01*
X482612Y771608D01*
X482561Y771600D01*
X482509Y771602D01*
X482440Y771582D01*
X482369Y771572D01*
X482323Y771548D01*
X482273Y771534D01*
X482214Y771493D01*
X482150Y771460D01*
X482113Y771423D01*
X482071Y771393D01*
X482028Y771336D01*
X481978Y771285D01*
X481943Y771222D01*
X481924Y771196D01*
X481917Y771174D01*
X481897Y771138D01*
X480452Y767649D01*
X476951Y764148D01*
X472376Y762253D01*
X467424Y762253D01*
X462849Y764148D01*
X459348Y767649D01*
X457903Y771138D01*
X457865Y771199D01*
X457836Y771264D01*
X457801Y771302D01*
X457774Y771347D01*
X457718Y771392D01*
X457670Y771445D01*
X457624Y771470D01*
X457584Y771504D01*
X457517Y771529D01*
X457454Y771564D01*
X457403Y771573D01*
X457355Y771592D01*
X457283Y771595D01*
X457212Y771608D01*
X457161Y771600D01*
X457109Y771602D01*
X457040Y771582D01*
X456969Y771572D01*
X456923Y771548D01*
X456873Y771534D01*
X456814Y771493D01*
X456750Y771460D01*
X456713Y771423D01*
X456671Y771393D01*
X456628Y771336D01*
X456578Y771285D01*
X456543Y771222D01*
X456524Y771196D01*
X456517Y771174D01*
X456497Y771138D01*
X455052Y767649D01*
X451551Y764148D01*
X446976Y762253D01*
X442024Y762253D01*
G37*
%LPD*%
%LPC*%
G36*
X289624Y762253D02*
X289624Y762253D01*
X285049Y764148D01*
X281548Y767649D01*
X279768Y771948D01*
X279714Y772034D01*
X279666Y772123D01*
X279650Y772138D01*
X279638Y772157D01*
X279560Y772221D01*
X279486Y772290D01*
X279466Y772299D01*
X279449Y772313D01*
X279354Y772350D01*
X279262Y772391D01*
X279240Y772394D01*
X279219Y772402D01*
X279118Y772406D01*
X279017Y772416D01*
X278996Y772411D01*
X278973Y772412D01*
X278876Y772384D01*
X278777Y772361D01*
X278758Y772350D01*
X278737Y772343D01*
X278654Y772286D01*
X278568Y772233D01*
X278553Y772216D01*
X278535Y772203D01*
X278475Y772122D01*
X278410Y772044D01*
X278398Y772019D01*
X278388Y772006D01*
X278378Y771975D01*
X278341Y771891D01*
X277764Y770117D01*
X276911Y768443D01*
X275806Y766922D01*
X274478Y765594D01*
X272957Y764489D01*
X271283Y763636D01*
X269496Y763055D01*
X268223Y762854D01*
X268223Y773938D01*
X268220Y773958D01*
X268222Y773977D01*
X268200Y774079D01*
X268183Y774181D01*
X268174Y774198D01*
X268170Y774218D01*
X268117Y774307D01*
X268068Y774398D01*
X268054Y774412D01*
X268044Y774429D01*
X267965Y774496D01*
X267890Y774567D01*
X267872Y774576D01*
X267857Y774589D01*
X267761Y774627D01*
X267667Y774671D01*
X267647Y774673D01*
X267629Y774681D01*
X267462Y774699D01*
X266699Y774699D01*
X266699Y774701D01*
X267462Y774701D01*
X267482Y774704D01*
X267501Y774702D01*
X267603Y774724D01*
X267705Y774741D01*
X267722Y774750D01*
X267742Y774754D01*
X267831Y774807D01*
X267922Y774856D01*
X267936Y774870D01*
X267953Y774880D01*
X268020Y774959D01*
X268091Y775034D01*
X268100Y775052D01*
X268113Y775067D01*
X268152Y775163D01*
X268195Y775257D01*
X268197Y775277D01*
X268205Y775295D01*
X268223Y775462D01*
X268223Y786546D01*
X269496Y786345D01*
X271283Y785764D01*
X272957Y784911D01*
X274478Y783806D01*
X275806Y782478D01*
X276911Y780957D01*
X277764Y779283D01*
X278341Y777509D01*
X278387Y777419D01*
X278428Y777326D01*
X278443Y777310D01*
X278453Y777290D01*
X278526Y777220D01*
X278595Y777145D01*
X278614Y777134D01*
X278630Y777119D01*
X278721Y777075D01*
X278810Y777026D01*
X278832Y777022D01*
X278852Y777013D01*
X278952Y777001D01*
X279052Y776983D01*
X279074Y776986D01*
X279096Y776983D01*
X279195Y777004D01*
X279295Y777018D01*
X279315Y777028D01*
X279337Y777033D01*
X279424Y777084D01*
X279515Y777130D01*
X279530Y777146D01*
X279549Y777157D01*
X279616Y777233D01*
X279687Y777305D01*
X279700Y777330D01*
X279711Y777342D01*
X279724Y777372D01*
X279768Y777452D01*
X281548Y781751D01*
X285049Y785252D01*
X289624Y787147D01*
X294576Y787147D01*
X299151Y785252D01*
X302652Y781751D01*
X304097Y778262D01*
X304135Y778201D01*
X304164Y778136D01*
X304199Y778098D01*
X304226Y778053D01*
X304282Y778008D01*
X304330Y777955D01*
X304376Y777930D01*
X304416Y777896D01*
X304483Y777871D01*
X304546Y777836D01*
X304597Y777827D01*
X304645Y777808D01*
X304717Y777805D01*
X304788Y777792D01*
X304839Y777800D01*
X304891Y777798D01*
X304960Y777818D01*
X305031Y777828D01*
X305077Y777852D01*
X305127Y777866D01*
X305186Y777907D01*
X305250Y777940D01*
X305287Y777977D01*
X305329Y778007D01*
X305372Y778064D01*
X305422Y778115D01*
X305457Y778178D01*
X305476Y778204D01*
X305483Y778226D01*
X305503Y778262D01*
X306948Y781751D01*
X310449Y785252D01*
X315024Y787147D01*
X319976Y787147D01*
X324551Y785252D01*
X328052Y781751D01*
X329947Y777176D01*
X329947Y772224D01*
X328052Y767649D01*
X324551Y764148D01*
X319976Y762253D01*
X315024Y762253D01*
X310449Y764148D01*
X306948Y767649D01*
X305503Y771138D01*
X305465Y771199D01*
X305436Y771264D01*
X305401Y771302D01*
X305374Y771347D01*
X305318Y771393D01*
X305270Y771445D01*
X305224Y771470D01*
X305184Y771504D01*
X305117Y771529D01*
X305054Y771564D01*
X305003Y771573D01*
X304955Y771592D01*
X304883Y771595D01*
X304812Y771608D01*
X304761Y771600D01*
X304709Y771602D01*
X304640Y771582D01*
X304569Y771572D01*
X304523Y771548D01*
X304473Y771534D01*
X304414Y771493D01*
X304350Y771460D01*
X304313Y771423D01*
X304271Y771393D01*
X304228Y771336D01*
X304178Y771285D01*
X304143Y771222D01*
X304124Y771196D01*
X304117Y771174D01*
X304097Y771138D01*
X302652Y767649D01*
X299151Y764148D01*
X294576Y762253D01*
X289624Y762253D01*
G37*
%LPD*%
%LPC*%
G36*
X619824Y762253D02*
X619824Y762253D01*
X615249Y764148D01*
X611748Y767649D01*
X609968Y771948D01*
X609914Y772034D01*
X609866Y772123D01*
X609850Y772138D01*
X609838Y772157D01*
X609760Y772221D01*
X609686Y772290D01*
X609666Y772299D01*
X609649Y772313D01*
X609554Y772350D01*
X609462Y772391D01*
X609440Y772394D01*
X609419Y772402D01*
X609318Y772406D01*
X609217Y772416D01*
X609196Y772411D01*
X609173Y772412D01*
X609076Y772384D01*
X608977Y772361D01*
X608958Y772350D01*
X608937Y772344D01*
X608854Y772286D01*
X608768Y772233D01*
X608753Y772216D01*
X608735Y772203D01*
X608675Y772122D01*
X608610Y772044D01*
X608598Y772019D01*
X608588Y772006D01*
X608578Y771975D01*
X608541Y771891D01*
X607964Y770117D01*
X607111Y768443D01*
X606006Y766922D01*
X604678Y765594D01*
X603157Y764489D01*
X601483Y763636D01*
X599696Y763055D01*
X598423Y762854D01*
X598423Y773938D01*
X598420Y773958D01*
X598422Y773977D01*
X598400Y774079D01*
X598383Y774181D01*
X598374Y774198D01*
X598370Y774218D01*
X598317Y774307D01*
X598268Y774398D01*
X598254Y774412D01*
X598244Y774429D01*
X598165Y774496D01*
X598090Y774567D01*
X598072Y774576D01*
X598057Y774589D01*
X597961Y774627D01*
X597867Y774671D01*
X597847Y774673D01*
X597829Y774681D01*
X597662Y774699D01*
X596899Y774699D01*
X596899Y774701D01*
X597662Y774701D01*
X597682Y774704D01*
X597701Y774702D01*
X597803Y774724D01*
X597905Y774741D01*
X597922Y774750D01*
X597942Y774754D01*
X598031Y774807D01*
X598122Y774856D01*
X598136Y774870D01*
X598153Y774880D01*
X598220Y774959D01*
X598291Y775034D01*
X598300Y775052D01*
X598313Y775067D01*
X598352Y775163D01*
X598395Y775257D01*
X598397Y775277D01*
X598405Y775295D01*
X598423Y775462D01*
X598423Y786546D01*
X599696Y786345D01*
X601483Y785764D01*
X603157Y784911D01*
X604678Y783806D01*
X606006Y782478D01*
X607111Y780957D01*
X607964Y779283D01*
X608541Y777509D01*
X608587Y777419D01*
X608628Y777326D01*
X608643Y777310D01*
X608653Y777290D01*
X608726Y777219D01*
X608795Y777145D01*
X608814Y777134D01*
X608830Y777119D01*
X608921Y777075D01*
X609010Y777026D01*
X609032Y777022D01*
X609052Y777013D01*
X609152Y777001D01*
X609252Y776983D01*
X609274Y776986D01*
X609296Y776983D01*
X609395Y777004D01*
X609495Y777018D01*
X609515Y777028D01*
X609537Y777033D01*
X609624Y777084D01*
X609715Y777130D01*
X609730Y777146D01*
X609749Y777157D01*
X609816Y777233D01*
X609887Y777305D01*
X609900Y777330D01*
X609911Y777342D01*
X609924Y777372D01*
X609968Y777452D01*
X611748Y781751D01*
X615249Y785252D01*
X619824Y787147D01*
X624776Y787147D01*
X629351Y785252D01*
X632852Y781751D01*
X634297Y778262D01*
X634335Y778201D01*
X634364Y778136D01*
X634399Y778097D01*
X634426Y778053D01*
X634482Y778007D01*
X634530Y777955D01*
X634576Y777930D01*
X634616Y777896D01*
X634683Y777871D01*
X634746Y777836D01*
X634797Y777827D01*
X634845Y777808D01*
X634917Y777805D01*
X634988Y777792D01*
X635039Y777800D01*
X635091Y777798D01*
X635160Y777818D01*
X635231Y777828D01*
X635277Y777852D01*
X635327Y777866D01*
X635386Y777907D01*
X635450Y777940D01*
X635487Y777977D01*
X635529Y778007D01*
X635572Y778064D01*
X635622Y778115D01*
X635657Y778178D01*
X635676Y778204D01*
X635683Y778226D01*
X635703Y778262D01*
X637148Y781751D01*
X640649Y785252D01*
X645224Y787147D01*
X650176Y787147D01*
X654751Y785252D01*
X658252Y781751D01*
X660147Y777176D01*
X660147Y772224D01*
X658252Y767649D01*
X654751Y764148D01*
X650176Y762253D01*
X645224Y762253D01*
X640649Y764148D01*
X637148Y767649D01*
X635703Y771138D01*
X635665Y771199D01*
X635636Y771264D01*
X635601Y771302D01*
X635574Y771347D01*
X635518Y771393D01*
X635470Y771445D01*
X635424Y771470D01*
X635384Y771504D01*
X635317Y771529D01*
X635254Y771564D01*
X635203Y771573D01*
X635155Y771592D01*
X635083Y771595D01*
X635012Y771608D01*
X634961Y771600D01*
X634909Y771602D01*
X634840Y771582D01*
X634769Y771572D01*
X634723Y771548D01*
X634673Y771534D01*
X634614Y771493D01*
X634550Y771460D01*
X634513Y771423D01*
X634471Y771393D01*
X634428Y771336D01*
X634378Y771285D01*
X634343Y771222D01*
X634324Y771196D01*
X634317Y771174D01*
X634297Y771138D01*
X632852Y767649D01*
X629351Y764148D01*
X624776Y762253D01*
X619824Y762253D01*
G37*
%LPD*%
%LPC*%
G36*
X682036Y768476D02*
X682036Y768476D01*
X675081Y771357D01*
X669757Y776681D01*
X666876Y783636D01*
X666876Y791164D01*
X669757Y798119D01*
X675081Y803443D01*
X682036Y806324D01*
X689564Y806324D01*
X696519Y803443D01*
X701843Y798119D01*
X704724Y791164D01*
X704724Y783636D01*
X701843Y776681D01*
X696519Y771357D01*
X689564Y768476D01*
X682036Y768476D01*
G37*
%LPD*%
%LPC*%
G36*
X224836Y768476D02*
X224836Y768476D01*
X217881Y771357D01*
X212557Y776681D01*
X209676Y783636D01*
X209676Y791164D01*
X212557Y798119D01*
X217881Y803443D01*
X224836Y806324D01*
X232364Y806324D01*
X239319Y803443D01*
X244643Y798119D01*
X247524Y791164D01*
X247524Y783636D01*
X244643Y776681D01*
X239319Y771357D01*
X232364Y768476D01*
X224836Y768476D01*
G37*
%LPD*%
%LPC*%
G36*
X682036Y438276D02*
X682036Y438276D01*
X675081Y441157D01*
X669757Y446481D01*
X666876Y453436D01*
X666876Y460964D01*
X669757Y467919D01*
X675081Y473243D01*
X682036Y476124D01*
X689564Y476124D01*
X696519Y473243D01*
X701843Y467919D01*
X704724Y460964D01*
X704724Y453436D01*
X701843Y446481D01*
X696519Y441157D01*
X689564Y438276D01*
X682036Y438276D01*
G37*
%LPD*%
%LPC*%
G36*
X224836Y438276D02*
X224836Y438276D01*
X217881Y441157D01*
X212557Y446481D01*
X209676Y453436D01*
X209676Y460964D01*
X212557Y467919D01*
X217881Y473243D01*
X224836Y476124D01*
X232364Y476124D01*
X239319Y473243D01*
X244643Y467919D01*
X247524Y460964D01*
X247524Y453436D01*
X244643Y446481D01*
X239319Y441157D01*
X232364Y438276D01*
X224836Y438276D01*
G37*
%LPD*%
%LPC*%
G36*
X477433Y546861D02*
X477433Y546861D01*
X472578Y548872D01*
X468862Y552588D01*
X466851Y557443D01*
X466851Y562697D01*
X468862Y567552D01*
X472578Y571268D01*
X477562Y573332D01*
X477623Y573370D01*
X477689Y573399D01*
X477727Y573435D01*
X477771Y573462D01*
X477817Y573517D01*
X477870Y573566D01*
X477895Y573611D01*
X477928Y573651D01*
X477954Y573718D01*
X477988Y573781D01*
X477998Y573833D01*
X478016Y573881D01*
X478019Y573953D01*
X478032Y574023D01*
X478024Y574075D01*
X478027Y574127D01*
X478007Y574196D01*
X477996Y574267D01*
X477973Y574313D01*
X477958Y574363D01*
X477917Y574422D01*
X477885Y574486D01*
X477848Y574522D01*
X477818Y574565D01*
X477760Y574608D01*
X477709Y574658D01*
X477646Y574693D01*
X477620Y574712D01*
X477598Y574719D01*
X477562Y574739D01*
X476557Y575155D01*
X473555Y578157D01*
X471931Y582078D01*
X471931Y586322D01*
X473555Y590243D01*
X476557Y593245D01*
X480478Y594869D01*
X484722Y594869D01*
X488643Y593245D01*
X491645Y590243D01*
X493269Y586322D01*
X493269Y582078D01*
X491645Y578157D01*
X488643Y575155D01*
X485098Y573687D01*
X485037Y573649D01*
X484971Y573620D01*
X484933Y573585D01*
X484889Y573557D01*
X484843Y573502D01*
X484790Y573454D01*
X484765Y573408D01*
X484732Y573368D01*
X484706Y573301D01*
X484672Y573238D01*
X484662Y573187D01*
X484644Y573138D01*
X484641Y573067D01*
X484628Y572996D01*
X484636Y572944D01*
X484633Y572892D01*
X484653Y572824D01*
X484664Y572753D01*
X484687Y572706D01*
X484702Y572656D01*
X484743Y572597D01*
X484775Y572533D01*
X484812Y572497D01*
X484842Y572454D01*
X484900Y572411D01*
X484951Y572361D01*
X485014Y572327D01*
X485040Y572307D01*
X485062Y572300D01*
X485098Y572280D01*
X487542Y571268D01*
X491258Y567552D01*
X493269Y562697D01*
X493269Y557443D01*
X491258Y552588D01*
X487542Y548872D01*
X482687Y546861D01*
X477433Y546861D01*
G37*
%LPD*%
%LPC*%
G36*
X431304Y534669D02*
X431304Y534669D01*
X427103Y536410D01*
X423888Y539625D01*
X422147Y543826D01*
X422147Y548374D01*
X423888Y552575D01*
X427103Y555790D01*
X431304Y557531D01*
X452616Y557531D01*
X456817Y555790D01*
X460032Y552575D01*
X461773Y548374D01*
X461773Y543826D01*
X460032Y539625D01*
X456817Y536410D01*
X452616Y534669D01*
X431304Y534669D01*
G37*
%LPD*%
%LPC*%
G36*
X431304Y483869D02*
X431304Y483869D01*
X427103Y485610D01*
X423888Y488825D01*
X422147Y493026D01*
X422147Y497574D01*
X423888Y501775D01*
X427103Y504990D01*
X431304Y506731D01*
X452616Y506731D01*
X456817Y504990D01*
X460032Y501775D01*
X461773Y497574D01*
X461773Y493026D01*
X460032Y488825D01*
X456817Y485610D01*
X452616Y483869D01*
X431304Y483869D01*
G37*
%LPD*%
%LPC*%
G36*
X536619Y505083D02*
X536619Y505083D01*
X532466Y506803D01*
X529287Y509982D01*
X527567Y514135D01*
X527567Y518629D01*
X529287Y522782D01*
X532466Y525961D01*
X536619Y527681D01*
X557613Y527681D01*
X561766Y525961D01*
X564945Y522782D01*
X566665Y518629D01*
X566665Y514135D01*
X564945Y509982D01*
X561766Y506803D01*
X557613Y505083D01*
X536619Y505083D01*
G37*
%LPD*%
%LPC*%
G36*
X536619Y479683D02*
X536619Y479683D01*
X532466Y481403D01*
X529287Y484582D01*
X527567Y488735D01*
X527567Y493229D01*
X529287Y497382D01*
X532466Y500561D01*
X536619Y502281D01*
X557613Y502281D01*
X561766Y500561D01*
X564945Y497382D01*
X566665Y493229D01*
X566665Y488735D01*
X564945Y484582D01*
X561766Y481403D01*
X557613Y479683D01*
X536619Y479683D01*
G37*
%LPD*%
%LPC*%
G36*
X605346Y471423D02*
X605346Y471423D01*
X600771Y473318D01*
X597270Y476819D01*
X595375Y481394D01*
X595375Y486346D01*
X597270Y490921D01*
X600771Y494422D01*
X605070Y496202D01*
X605156Y496256D01*
X605245Y496304D01*
X605260Y496320D01*
X605279Y496332D01*
X605343Y496410D01*
X605412Y496484D01*
X605421Y496504D01*
X605435Y496521D01*
X605472Y496616D01*
X605513Y496708D01*
X605516Y496730D01*
X605524Y496751D01*
X605528Y496852D01*
X605538Y496953D01*
X605533Y496974D01*
X605534Y496997D01*
X605506Y497094D01*
X605483Y497193D01*
X605472Y497212D01*
X605465Y497233D01*
X605408Y497316D01*
X605355Y497402D01*
X605338Y497417D01*
X605325Y497435D01*
X605244Y497495D01*
X605166Y497560D01*
X605141Y497572D01*
X605128Y497582D01*
X605097Y497592D01*
X605013Y497629D01*
X603239Y498206D01*
X601565Y499059D01*
X600044Y500164D01*
X598716Y501492D01*
X597611Y503013D01*
X596758Y504687D01*
X596177Y506474D01*
X595976Y507747D01*
X607060Y507747D01*
X607080Y507750D01*
X607099Y507748D01*
X607201Y507770D01*
X607303Y507787D01*
X607320Y507796D01*
X607340Y507800D01*
X607429Y507853D01*
X607520Y507902D01*
X607534Y507916D01*
X607551Y507926D01*
X607618Y508005D01*
X607689Y508080D01*
X607698Y508098D01*
X607711Y508113D01*
X607749Y508209D01*
X607793Y508303D01*
X607795Y508323D01*
X607803Y508341D01*
X607821Y508508D01*
X607821Y509271D01*
X607823Y509271D01*
X607823Y508508D01*
X607826Y508488D01*
X607824Y508469D01*
X607846Y508367D01*
X607863Y508265D01*
X607872Y508248D01*
X607876Y508228D01*
X607929Y508139D01*
X607978Y508048D01*
X607992Y508034D01*
X608002Y508017D01*
X608081Y507950D01*
X608156Y507879D01*
X608174Y507870D01*
X608189Y507857D01*
X608285Y507818D01*
X608379Y507775D01*
X608399Y507773D01*
X608417Y507765D01*
X608584Y507747D01*
X619668Y507747D01*
X619467Y506474D01*
X618886Y504687D01*
X618033Y503013D01*
X616928Y501492D01*
X615600Y500164D01*
X614079Y499059D01*
X612405Y498206D01*
X610631Y497629D01*
X610541Y497583D01*
X610448Y497542D01*
X610432Y497527D01*
X610412Y497517D01*
X610342Y497444D01*
X610267Y497375D01*
X610256Y497356D01*
X610241Y497340D01*
X610197Y497249D01*
X610148Y497160D01*
X610144Y497138D01*
X610135Y497118D01*
X610123Y497018D01*
X610105Y496918D01*
X610108Y496896D01*
X610105Y496874D01*
X610126Y496775D01*
X610140Y496675D01*
X610150Y496655D01*
X610155Y496633D01*
X610206Y496546D01*
X610252Y496455D01*
X610268Y496440D01*
X610279Y496421D01*
X610355Y496354D01*
X610427Y496283D01*
X610452Y496270D01*
X610464Y496259D01*
X610494Y496246D01*
X610574Y496202D01*
X614873Y494422D01*
X618374Y490921D01*
X620269Y486346D01*
X620269Y481394D01*
X618374Y476819D01*
X614873Y473318D01*
X610298Y471423D01*
X605346Y471423D01*
G37*
%LPD*%
%LPC*%
G36*
X477433Y465581D02*
X477433Y465581D01*
X472578Y467592D01*
X468862Y471308D01*
X466851Y476163D01*
X466851Y481417D01*
X468862Y486272D01*
X472578Y489988D01*
X477433Y491999D01*
X482687Y491999D01*
X487542Y489988D01*
X491258Y486272D01*
X493269Y481417D01*
X493269Y476163D01*
X491258Y471308D01*
X487542Y467592D01*
X482687Y465581D01*
X477433Y465581D01*
G37*
%LPD*%
%LPC*%
G36*
X607478Y725931D02*
X607478Y725931D01*
X603557Y727555D01*
X600555Y730557D01*
X598931Y734478D01*
X598931Y738722D01*
X600555Y742643D01*
X603557Y745645D01*
X607478Y747269D01*
X611722Y747269D01*
X615643Y745645D01*
X618645Y742643D01*
X620269Y738722D01*
X620269Y734478D01*
X618645Y730557D01*
X615643Y727555D01*
X611722Y725931D01*
X607478Y725931D01*
G37*
%LPD*%
%LPC*%
G36*
X582078Y725931D02*
X582078Y725931D01*
X578157Y727555D01*
X575155Y730557D01*
X573531Y734478D01*
X573531Y738722D01*
X575155Y742643D01*
X578157Y745645D01*
X582078Y747269D01*
X586322Y747269D01*
X590243Y745645D01*
X593245Y742643D01*
X594869Y738722D01*
X594869Y734478D01*
X593245Y730557D01*
X590243Y727555D01*
X586322Y725931D01*
X582078Y725931D01*
G37*
%LPD*%
%LPC*%
G36*
X531278Y725931D02*
X531278Y725931D01*
X527357Y727555D01*
X524355Y730557D01*
X522731Y734478D01*
X522731Y738722D01*
X524355Y742643D01*
X527357Y745645D01*
X531278Y747269D01*
X535522Y747269D01*
X539443Y745645D01*
X542445Y742643D01*
X544069Y738722D01*
X544069Y734478D01*
X542445Y730557D01*
X539443Y727555D01*
X535522Y725931D01*
X531278Y725931D01*
G37*
%LPD*%
%LPC*%
G36*
X277278Y573531D02*
X277278Y573531D01*
X273357Y575155D01*
X270355Y578157D01*
X268731Y582078D01*
X268731Y586322D01*
X270355Y590243D01*
X273357Y593245D01*
X277278Y594869D01*
X281522Y594869D01*
X285443Y593245D01*
X288445Y590243D01*
X290069Y586322D01*
X290069Y582078D01*
X288445Y578157D01*
X285443Y575155D01*
X281522Y573531D01*
X277278Y573531D01*
G37*
%LPD*%
%LPC*%
G36*
X480478Y725931D02*
X480478Y725931D01*
X476557Y727555D01*
X473555Y730557D01*
X471931Y734478D01*
X471931Y738722D01*
X473555Y742643D01*
X476557Y745645D01*
X480478Y747269D01*
X484722Y747269D01*
X488643Y745645D01*
X491645Y742643D01*
X493269Y738722D01*
X493269Y734478D01*
X491645Y730557D01*
X488643Y727555D01*
X484722Y725931D01*
X480478Y725931D01*
G37*
%LPD*%
%LPC*%
G36*
X455078Y725931D02*
X455078Y725931D01*
X451157Y727555D01*
X448155Y730557D01*
X446531Y734478D01*
X446531Y738722D01*
X448155Y742643D01*
X451157Y745645D01*
X455078Y747269D01*
X459322Y747269D01*
X463243Y745645D01*
X466245Y742643D01*
X467869Y738722D01*
X467869Y734478D01*
X466245Y730557D01*
X463243Y727555D01*
X459322Y725931D01*
X455078Y725931D01*
G37*
%LPD*%
%LPC*%
G36*
X429678Y725931D02*
X429678Y725931D01*
X425757Y727555D01*
X422755Y730557D01*
X421131Y734478D01*
X421131Y738722D01*
X422755Y742643D01*
X425757Y745645D01*
X429678Y747269D01*
X433922Y747269D01*
X437843Y745645D01*
X440845Y742643D01*
X442469Y738722D01*
X442469Y734478D01*
X440845Y730557D01*
X437843Y727555D01*
X433922Y725931D01*
X429678Y725931D01*
G37*
%LPD*%
%LPC*%
G36*
X404278Y725931D02*
X404278Y725931D01*
X400357Y727555D01*
X397355Y730557D01*
X395731Y734478D01*
X395731Y738722D01*
X397355Y742643D01*
X400357Y745645D01*
X404278Y747269D01*
X408522Y747269D01*
X412443Y745645D01*
X415445Y742643D01*
X417069Y738722D01*
X417069Y734478D01*
X415445Y730557D01*
X412443Y727555D01*
X408522Y725931D01*
X404278Y725931D01*
G37*
%LPD*%
%LPC*%
G36*
X378878Y725931D02*
X378878Y725931D01*
X374957Y727555D01*
X371955Y730557D01*
X370331Y734478D01*
X370331Y738722D01*
X371955Y742643D01*
X374957Y745645D01*
X378878Y747269D01*
X383122Y747269D01*
X387043Y745645D01*
X390045Y742643D01*
X391669Y738722D01*
X391669Y734478D01*
X390045Y730557D01*
X387043Y727555D01*
X383122Y725931D01*
X378878Y725931D01*
G37*
%LPD*%
%LPC*%
G36*
X353478Y725931D02*
X353478Y725931D01*
X349557Y727555D01*
X346555Y730557D01*
X344931Y734478D01*
X344931Y738722D01*
X346555Y742643D01*
X349557Y745645D01*
X353478Y747269D01*
X357722Y747269D01*
X361643Y745645D01*
X364645Y742643D01*
X366269Y738722D01*
X366269Y734478D01*
X364645Y730557D01*
X361643Y727555D01*
X357722Y725931D01*
X353478Y725931D01*
G37*
%LPD*%
%LPC*%
G36*
X328078Y725931D02*
X328078Y725931D01*
X324157Y727555D01*
X321155Y730557D01*
X319531Y734478D01*
X319531Y738722D01*
X321155Y742643D01*
X324157Y745645D01*
X328078Y747269D01*
X332322Y747269D01*
X336243Y745645D01*
X339245Y742643D01*
X340869Y738722D01*
X340869Y734478D01*
X339245Y730557D01*
X336243Y727555D01*
X332322Y725931D01*
X328078Y725931D01*
G37*
%LPD*%
%LPC*%
G36*
X302678Y573531D02*
X302678Y573531D01*
X298757Y575155D01*
X295755Y578157D01*
X294131Y582078D01*
X294131Y586322D01*
X295755Y590243D01*
X298757Y593245D01*
X302678Y594869D01*
X306922Y594869D01*
X310843Y593245D01*
X313845Y590243D01*
X315469Y586322D01*
X315469Y582078D01*
X313845Y578157D01*
X310843Y575155D01*
X306922Y573531D01*
X302678Y573531D01*
G37*
%LPD*%
%LPC*%
G36*
X328078Y573531D02*
X328078Y573531D01*
X324157Y575155D01*
X321155Y578157D01*
X319531Y582078D01*
X319531Y586322D01*
X321155Y590243D01*
X324157Y593245D01*
X328078Y594869D01*
X332322Y594869D01*
X336243Y593245D01*
X339245Y590243D01*
X340869Y586322D01*
X340869Y582078D01*
X339245Y578157D01*
X336243Y575155D01*
X332322Y573531D01*
X328078Y573531D01*
G37*
%LPD*%
%LPC*%
G36*
X353478Y573531D02*
X353478Y573531D01*
X349557Y575155D01*
X346555Y578157D01*
X344931Y582078D01*
X344931Y586322D01*
X346555Y590243D01*
X349557Y593245D01*
X353478Y594869D01*
X357722Y594869D01*
X361643Y593245D01*
X364645Y590243D01*
X366269Y586322D01*
X366269Y582078D01*
X364645Y578157D01*
X361643Y575155D01*
X357722Y573531D01*
X353478Y573531D01*
G37*
%LPD*%
%LPC*%
G36*
X378878Y573531D02*
X378878Y573531D01*
X374957Y575155D01*
X371955Y578157D01*
X370331Y582078D01*
X370331Y586322D01*
X371955Y590243D01*
X374957Y593245D01*
X378878Y594869D01*
X383122Y594869D01*
X387043Y593245D01*
X390045Y590243D01*
X391669Y586322D01*
X391669Y582078D01*
X390045Y578157D01*
X387043Y575155D01*
X383122Y573531D01*
X378878Y573531D01*
G37*
%LPD*%
%LPC*%
G36*
X404278Y573531D02*
X404278Y573531D01*
X400357Y575155D01*
X397355Y578157D01*
X395731Y582078D01*
X395731Y586322D01*
X397355Y590243D01*
X400357Y593245D01*
X404278Y594869D01*
X408522Y594869D01*
X412443Y593245D01*
X415445Y590243D01*
X417069Y586322D01*
X417069Y582078D01*
X415445Y578157D01*
X412443Y575155D01*
X408522Y573531D01*
X404278Y573531D01*
G37*
%LPD*%
%LPC*%
G36*
X632878Y573531D02*
X632878Y573531D01*
X628957Y575155D01*
X625955Y578157D01*
X624331Y582078D01*
X624331Y586322D01*
X625955Y590243D01*
X628957Y593245D01*
X632878Y594869D01*
X637122Y594869D01*
X641043Y593245D01*
X644045Y590243D01*
X645669Y586322D01*
X645669Y582078D01*
X644045Y578157D01*
X641043Y575155D01*
X637122Y573531D01*
X632878Y573531D01*
G37*
%LPD*%
%LPC*%
G36*
X582078Y573531D02*
X582078Y573531D01*
X578157Y575155D01*
X575155Y578157D01*
X573531Y582078D01*
X573531Y586322D01*
X575155Y590243D01*
X578157Y593245D01*
X582078Y594869D01*
X586322Y594869D01*
X590243Y593245D01*
X593245Y590243D01*
X594869Y586322D01*
X594869Y582078D01*
X593245Y578157D01*
X590243Y575155D01*
X586322Y573531D01*
X582078Y573531D01*
G37*
%LPD*%
%LPC*%
G36*
X556678Y573531D02*
X556678Y573531D01*
X552757Y575155D01*
X549755Y578157D01*
X548131Y582078D01*
X548131Y586322D01*
X549755Y590243D01*
X552757Y593245D01*
X556678Y594869D01*
X560922Y594869D01*
X564843Y593245D01*
X567845Y590243D01*
X569469Y586322D01*
X569469Y582078D01*
X567845Y578157D01*
X564843Y575155D01*
X560922Y573531D01*
X556678Y573531D01*
G37*
%LPD*%
%LPC*%
G36*
X531278Y573531D02*
X531278Y573531D01*
X527357Y575155D01*
X524355Y578157D01*
X522731Y582078D01*
X522731Y586322D01*
X524355Y590243D01*
X527357Y593245D01*
X531278Y594869D01*
X535522Y594869D01*
X539443Y593245D01*
X542445Y590243D01*
X544069Y586322D01*
X544069Y582078D01*
X542445Y578157D01*
X539443Y575155D01*
X535522Y573531D01*
X531278Y573531D01*
G37*
%LPD*%
%LPC*%
G36*
X505878Y573531D02*
X505878Y573531D01*
X501957Y575155D01*
X498955Y578157D01*
X497331Y582078D01*
X497331Y586322D01*
X498955Y590243D01*
X501957Y593245D01*
X505878Y594869D01*
X510122Y594869D01*
X514043Y593245D01*
X517045Y590243D01*
X518669Y586322D01*
X518669Y582078D01*
X517045Y578157D01*
X514043Y575155D01*
X510122Y573531D01*
X505878Y573531D01*
G37*
%LPD*%
%LPC*%
G36*
X455078Y573531D02*
X455078Y573531D01*
X451157Y575155D01*
X448155Y578157D01*
X446531Y582078D01*
X446531Y586322D01*
X448155Y590243D01*
X451157Y593245D01*
X455078Y594869D01*
X459322Y594869D01*
X463243Y593245D01*
X466245Y590243D01*
X467869Y586322D01*
X467869Y582078D01*
X466245Y578157D01*
X463243Y575155D01*
X459322Y573531D01*
X455078Y573531D01*
G37*
%LPD*%
%LPC*%
G36*
X505878Y725931D02*
X505878Y725931D01*
X501957Y727555D01*
X498955Y730557D01*
X497331Y734478D01*
X497331Y738722D01*
X498955Y742643D01*
X501957Y745645D01*
X505878Y747269D01*
X510122Y747269D01*
X514043Y745645D01*
X517045Y742643D01*
X518669Y738722D01*
X518669Y734478D01*
X517045Y730557D01*
X514043Y727555D01*
X510122Y725931D01*
X505878Y725931D01*
G37*
%LPD*%
%LPC*%
G36*
X302678Y725931D02*
X302678Y725931D01*
X298757Y727555D01*
X295755Y730557D01*
X294131Y734478D01*
X294131Y738722D01*
X295755Y742643D01*
X298757Y745645D01*
X302678Y747269D01*
X306922Y747269D01*
X310843Y745645D01*
X313845Y742643D01*
X315469Y738722D01*
X315469Y734478D01*
X313845Y730557D01*
X310843Y727555D01*
X306922Y725931D01*
X302678Y725931D01*
G37*
%LPD*%
%LPC*%
G36*
X277278Y725931D02*
X277278Y725931D01*
X273357Y727555D01*
X270355Y730557D01*
X268731Y734478D01*
X268731Y738722D01*
X270355Y742643D01*
X273357Y745645D01*
X277278Y747269D01*
X281522Y747269D01*
X285443Y745645D01*
X288445Y742643D01*
X290069Y738722D01*
X290069Y734478D01*
X288445Y730557D01*
X285443Y727555D01*
X281522Y725931D01*
X277278Y725931D01*
G37*
%LPD*%
%LPC*%
G36*
X632878Y725931D02*
X632878Y725931D01*
X628957Y727555D01*
X625955Y730557D01*
X624331Y734478D01*
X624331Y738722D01*
X625955Y742643D01*
X628957Y745645D01*
X632878Y747269D01*
X637122Y747269D01*
X641043Y745645D01*
X644045Y742643D01*
X645669Y738722D01*
X645669Y734478D01*
X644045Y730557D01*
X641043Y727555D01*
X637122Y725931D01*
X632878Y725931D01*
G37*
%LPD*%
%LPC*%
G36*
X429678Y573531D02*
X429678Y573531D01*
X425757Y575155D01*
X422755Y578157D01*
X421131Y582078D01*
X421131Y586322D01*
X422755Y590243D01*
X425757Y593245D01*
X429678Y594869D01*
X433922Y594869D01*
X437843Y593245D01*
X440845Y590243D01*
X442469Y586322D01*
X442469Y582078D01*
X440845Y578157D01*
X437843Y575155D01*
X433922Y573531D01*
X429678Y573531D01*
G37*
%LPD*%
%LPC*%
G36*
X481583Y508253D02*
X481583Y508253D01*
X481583Y530607D01*
X492678Y530607D01*
X492448Y529156D01*
X491830Y527255D01*
X490923Y525473D01*
X489747Y523856D01*
X488334Y522443D01*
X486717Y521267D01*
X484935Y520360D01*
X484302Y520154D01*
X484295Y520150D01*
X484287Y520149D01*
X484186Y520094D01*
X484083Y520041D01*
X484078Y520035D01*
X484071Y520032D01*
X483993Y519947D01*
X483912Y519865D01*
X483909Y519857D01*
X483903Y519851D01*
X483856Y519747D01*
X483806Y519643D01*
X483805Y519635D01*
X483802Y519627D01*
X483791Y519513D01*
X483777Y519398D01*
X483778Y519391D01*
X483777Y519383D01*
X483803Y519270D01*
X483826Y519158D01*
X483830Y519151D01*
X483832Y519143D01*
X483892Y519045D01*
X483950Y518945D01*
X483957Y518940D01*
X483961Y518933D01*
X484048Y518860D01*
X484136Y518783D01*
X484143Y518780D01*
X484149Y518775D01*
X484302Y518706D01*
X484935Y518500D01*
X486717Y517593D01*
X488334Y516417D01*
X489747Y515004D01*
X490923Y513387D01*
X491830Y511605D01*
X492448Y509704D01*
X492678Y508253D01*
X481583Y508253D01*
G37*
%LPD*%
%LPC*%
G36*
X467442Y508253D02*
X467442Y508253D01*
X467672Y509704D01*
X468290Y511605D01*
X469197Y513387D01*
X470373Y515004D01*
X471786Y516417D01*
X473403Y517593D01*
X475185Y518500D01*
X475818Y518706D01*
X475825Y518710D01*
X475833Y518711D01*
X475934Y518766D01*
X476037Y518819D01*
X476042Y518824D01*
X476049Y518828D01*
X476128Y518913D01*
X476208Y518995D01*
X476211Y519003D01*
X476217Y519008D01*
X476264Y519114D01*
X476314Y519217D01*
X476315Y519225D01*
X476318Y519233D01*
X476329Y519347D01*
X476343Y519462D01*
X476342Y519469D01*
X476343Y519477D01*
X476317Y519590D01*
X476294Y519702D01*
X476290Y519709D01*
X476288Y519717D01*
X476228Y519815D01*
X476170Y519915D01*
X476164Y519920D01*
X476159Y519927D01*
X476071Y520001D01*
X475984Y520077D01*
X475977Y520080D01*
X475971Y520085D01*
X475818Y520154D01*
X475185Y520360D01*
X473403Y521267D01*
X471786Y522443D01*
X470373Y523856D01*
X469197Y525473D01*
X468290Y527255D01*
X467672Y529156D01*
X467442Y530607D01*
X478537Y530607D01*
X478537Y508253D01*
X467442Y508253D01*
G37*
%LPD*%
%LPC*%
G36*
X443483Y522223D02*
X443483Y522223D01*
X443483Y531623D01*
X451202Y531623D01*
X452900Y531354D01*
X454535Y530822D01*
X456067Y530042D01*
X457458Y529031D01*
X458673Y527816D01*
X459684Y526425D01*
X460464Y524893D01*
X460996Y523258D01*
X461160Y522223D01*
X443483Y522223D01*
G37*
%LPD*%
%LPC*%
G36*
X422760Y522223D02*
X422760Y522223D01*
X422924Y523258D01*
X423456Y524893D01*
X424236Y526425D01*
X425247Y527816D01*
X426462Y529031D01*
X427853Y530042D01*
X429385Y530822D01*
X431020Y531354D01*
X432718Y531623D01*
X440437Y531623D01*
X440437Y522223D01*
X422760Y522223D01*
G37*
%LPD*%
%LPC*%
G36*
X443483Y509777D02*
X443483Y509777D01*
X443483Y519177D01*
X461160Y519177D01*
X460996Y518142D01*
X460464Y516507D01*
X459684Y514975D01*
X458673Y513584D01*
X457458Y512369D01*
X456067Y511358D01*
X454535Y510578D01*
X452900Y510046D01*
X451202Y509777D01*
X443483Y509777D01*
G37*
%LPD*%
%LPC*%
G36*
X432718Y509777D02*
X432718Y509777D01*
X431020Y510046D01*
X429385Y510578D01*
X427853Y511358D01*
X426462Y512369D01*
X425247Y513584D01*
X424236Y514975D01*
X423456Y516507D01*
X422924Y518142D01*
X422760Y519177D01*
X440437Y519177D01*
X440437Y509777D01*
X432718Y509777D01*
G37*
%LPD*%
%LPC*%
G36*
X548639Y543305D02*
X548639Y543305D01*
X548639Y552573D01*
X556215Y552573D01*
X557893Y552307D01*
X559508Y551782D01*
X561021Y551011D01*
X562396Y550013D01*
X563597Y548812D01*
X564595Y547437D01*
X565366Y545924D01*
X565891Y544309D01*
X566050Y543305D01*
X548639Y543305D01*
G37*
%LPD*%
%LPC*%
G36*
X528182Y543305D02*
X528182Y543305D01*
X528341Y544309D01*
X528866Y545924D01*
X529637Y547437D01*
X530635Y548812D01*
X531836Y550013D01*
X533211Y551011D01*
X534724Y551782D01*
X536339Y552307D01*
X538017Y552573D01*
X545593Y552573D01*
X545593Y543305D01*
X528182Y543305D01*
G37*
%LPD*%
%LPC*%
G36*
X548639Y530991D02*
X548639Y530991D01*
X548639Y540259D01*
X566050Y540259D01*
X565891Y539255D01*
X565366Y537640D01*
X564595Y536127D01*
X563597Y534752D01*
X562396Y533551D01*
X561021Y532553D01*
X559508Y531782D01*
X557893Y531257D01*
X556215Y530991D01*
X548639Y530991D01*
G37*
%LPD*%
%LPC*%
G36*
X538017Y530991D02*
X538017Y530991D01*
X536339Y531257D01*
X534724Y531782D01*
X533211Y532553D01*
X531836Y533551D01*
X530635Y534752D01*
X529637Y536127D01*
X528866Y537640D01*
X528341Y539255D01*
X528182Y540259D01*
X545593Y540259D01*
X545593Y530991D01*
X538017Y530991D01*
G37*
%LPD*%
%LPC*%
G36*
X481583Y533653D02*
X481583Y533653D01*
X481583Y544748D01*
X483034Y544518D01*
X484935Y543900D01*
X486717Y542993D01*
X488334Y541817D01*
X489747Y540404D01*
X490923Y538787D01*
X491830Y537005D01*
X492448Y535104D01*
X492678Y533653D01*
X481583Y533653D01*
G37*
%LPD*%
%LPC*%
G36*
X481583Y505207D02*
X481583Y505207D01*
X492678Y505207D01*
X492448Y503756D01*
X491830Y501855D01*
X490923Y500073D01*
X489747Y498456D01*
X488334Y497043D01*
X486717Y495867D01*
X484935Y494960D01*
X483034Y494342D01*
X481583Y494112D01*
X481583Y505207D01*
G37*
%LPD*%
%LPC*%
G36*
X467442Y533653D02*
X467442Y533653D01*
X467672Y535104D01*
X468290Y537005D01*
X469197Y538787D01*
X470373Y540404D01*
X471786Y541817D01*
X473403Y542993D01*
X475185Y543900D01*
X477086Y544518D01*
X478537Y544748D01*
X478537Y533653D01*
X467442Y533653D01*
G37*
%LPD*%
%LPC*%
G36*
X477086Y494342D02*
X477086Y494342D01*
X475185Y494960D01*
X473403Y495867D01*
X471786Y497043D01*
X470373Y498456D01*
X469197Y500073D01*
X468290Y501855D01*
X467672Y503756D01*
X467442Y505207D01*
X478537Y505207D01*
X478537Y494112D01*
X477086Y494342D01*
G37*
%LPD*%
%LPC*%
G36*
X609345Y510793D02*
X609345Y510793D01*
X609345Y521116D01*
X610618Y520915D01*
X612405Y520334D01*
X614079Y519481D01*
X615600Y518376D01*
X616928Y517048D01*
X618033Y515527D01*
X618886Y513853D01*
X619467Y512066D01*
X619668Y510793D01*
X609345Y510793D01*
G37*
%LPD*%
%LPC*%
G36*
X595976Y510793D02*
X595976Y510793D01*
X596177Y512066D01*
X596758Y513853D01*
X597611Y515527D01*
X598716Y517048D01*
X600044Y518376D01*
X601565Y519481D01*
X603239Y520334D01*
X605026Y520915D01*
X606299Y521116D01*
X606299Y510793D01*
X595976Y510793D01*
G37*
%LPD*%
%LPC*%
G36*
X585054Y776223D02*
X585054Y776223D01*
X585255Y777496D01*
X585836Y779283D01*
X586689Y780957D01*
X587794Y782478D01*
X589122Y783806D01*
X590643Y784911D01*
X592317Y785764D01*
X594104Y786345D01*
X595377Y786546D01*
X595377Y776223D01*
X585054Y776223D01*
G37*
%LPD*%
%LPC*%
G36*
X254854Y776223D02*
X254854Y776223D01*
X255055Y777496D01*
X255636Y779283D01*
X256489Y780957D01*
X257594Y782478D01*
X258922Y783806D01*
X260443Y784911D01*
X262117Y785764D01*
X263904Y786345D01*
X265177Y786546D01*
X265177Y776223D01*
X254854Y776223D01*
G37*
%LPD*%
%LPC*%
G36*
X407254Y776223D02*
X407254Y776223D01*
X407455Y777496D01*
X408036Y779283D01*
X408889Y780957D01*
X409994Y782478D01*
X411322Y783806D01*
X412843Y784911D01*
X414517Y785764D01*
X416304Y786345D01*
X417577Y786546D01*
X417577Y776223D01*
X407254Y776223D01*
G37*
%LPD*%
%LPC*%
G36*
X594104Y763055D02*
X594104Y763055D01*
X592317Y763636D01*
X590643Y764489D01*
X589122Y765594D01*
X587794Y766922D01*
X586689Y768443D01*
X585836Y770117D01*
X585255Y771904D01*
X585054Y773177D01*
X595377Y773177D01*
X595377Y762854D01*
X594104Y763055D01*
G37*
%LPD*%
%LPC*%
G36*
X263904Y763055D02*
X263904Y763055D01*
X262117Y763636D01*
X260443Y764489D01*
X258922Y765594D01*
X257594Y766922D01*
X256489Y768443D01*
X255636Y770117D01*
X255055Y771904D01*
X254854Y773177D01*
X265177Y773177D01*
X265177Y762854D01*
X263904Y763055D01*
G37*
%LPD*%
%LPC*%
G36*
X416304Y763055D02*
X416304Y763055D01*
X414517Y763636D01*
X412843Y764489D01*
X411322Y765594D01*
X409994Y766922D01*
X408889Y768443D01*
X408036Y770117D01*
X407455Y771904D01*
X407254Y773177D01*
X417577Y773177D01*
X417577Y762854D01*
X416304Y763055D01*
G37*
%LPD*%
%LPC*%
G36*
X611123Y585723D02*
X611123Y585723D01*
X611123Y594246D01*
X611979Y594111D01*
X613500Y593616D01*
X614925Y592890D01*
X616219Y591950D01*
X617350Y590819D01*
X618290Y589525D01*
X619016Y588100D01*
X619511Y586579D01*
X619646Y585723D01*
X611123Y585723D01*
G37*
%LPD*%
%LPC*%
G36*
X560323Y738123D02*
X560323Y738123D01*
X560323Y746646D01*
X561179Y746511D01*
X562700Y746016D01*
X564125Y745290D01*
X565419Y744350D01*
X566550Y743219D01*
X567490Y741925D01*
X568216Y740500D01*
X568711Y738979D01*
X568846Y738123D01*
X560323Y738123D01*
G37*
%LPD*%
%LPC*%
G36*
X611123Y582677D02*
X611123Y582677D01*
X619646Y582677D01*
X619511Y581821D01*
X619016Y580300D01*
X618290Y578875D01*
X617350Y577581D01*
X616219Y576450D01*
X614925Y575510D01*
X613500Y574784D01*
X611979Y574289D01*
X611123Y574154D01*
X611123Y582677D01*
G37*
%LPD*%
%LPC*%
G36*
X560323Y735077D02*
X560323Y735077D01*
X568846Y735077D01*
X568711Y734221D01*
X568216Y732700D01*
X567490Y731275D01*
X566550Y729981D01*
X565419Y728850D01*
X564125Y727910D01*
X562700Y727184D01*
X561179Y726689D01*
X560323Y726554D01*
X560323Y735077D01*
G37*
%LPD*%
%LPC*%
G36*
X548754Y738123D02*
X548754Y738123D01*
X548889Y738979D01*
X549384Y740500D01*
X550110Y741925D01*
X551050Y743219D01*
X552181Y744350D01*
X553475Y745290D01*
X554900Y746016D01*
X556421Y746511D01*
X557277Y746646D01*
X557277Y738123D01*
X548754Y738123D01*
G37*
%LPD*%
%LPC*%
G36*
X599554Y585723D02*
X599554Y585723D01*
X599689Y586579D01*
X600184Y588100D01*
X600910Y589525D01*
X601850Y590819D01*
X602981Y591950D01*
X604275Y592890D01*
X605700Y593616D01*
X607221Y594111D01*
X608077Y594246D01*
X608077Y585723D01*
X599554Y585723D01*
G37*
%LPD*%
%LPC*%
G36*
X556421Y726689D02*
X556421Y726689D01*
X554900Y727184D01*
X553475Y727910D01*
X552181Y728850D01*
X551050Y729981D01*
X550110Y731275D01*
X549384Y732700D01*
X548889Y734221D01*
X548754Y735077D01*
X557277Y735077D01*
X557277Y726554D01*
X556421Y726689D01*
G37*
%LPD*%
%LPC*%
G36*
X607221Y574289D02*
X607221Y574289D01*
X605700Y574784D01*
X604275Y575510D01*
X602981Y576450D01*
X601850Y577581D01*
X600910Y578875D01*
X600184Y580300D01*
X599689Y581821D01*
X599554Y582677D01*
X608077Y582677D01*
X608077Y574154D01*
X607221Y574289D01*
G37*
%LPD*%
%LPC*%
G36*
X609599Y584199D02*
X609599Y584199D01*
X609599Y584201D01*
X609601Y584201D01*
X609601Y584199D01*
X609599Y584199D01*
G37*
%LPD*%
%LPC*%
G36*
X480059Y532129D02*
X480059Y532129D01*
X480059Y532131D01*
X480061Y532131D01*
X480061Y532129D01*
X480059Y532129D01*
G37*
%LPD*%
%LPC*%
G36*
X441959Y520699D02*
X441959Y520699D01*
X441959Y520701D01*
X441961Y520701D01*
X441961Y520699D01*
X441959Y520699D01*
G37*
%LPD*%
%LPC*%
G36*
X547115Y541781D02*
X547115Y541781D01*
X547115Y541783D01*
X547117Y541783D01*
X547117Y541781D01*
X547115Y541781D01*
G37*
%LPD*%
%LPC*%
G36*
X480059Y506729D02*
X480059Y506729D01*
X480059Y506731D01*
X480061Y506731D01*
X480061Y506729D01*
X480059Y506729D01*
G37*
%LPD*%
%LPC*%
G36*
X558799Y736599D02*
X558799Y736599D01*
X558799Y736601D01*
X558801Y736601D01*
X558801Y736599D01*
X558799Y736599D01*
G37*
%LPD*%
D10*
X480060Y478790D03*
X480060Y506730D03*
X480060Y560070D03*
X480060Y532130D03*
D11*
X419100Y774700D03*
X444500Y774700D03*
X469900Y774700D03*
X495300Y774700D03*
X317500Y774700D03*
X292100Y774700D03*
X266700Y774700D03*
D12*
X457200Y736600D03*
X482600Y736600D03*
X508000Y736600D03*
X533400Y736600D03*
X558800Y736600D03*
X584200Y736600D03*
X431800Y736600D03*
X406400Y736600D03*
X381000Y736600D03*
X355600Y736600D03*
X330200Y736600D03*
X304800Y736600D03*
X279400Y736600D03*
X609600Y736600D03*
X635000Y736600D03*
X457200Y584200D03*
X431800Y584200D03*
X406400Y584200D03*
X381000Y584200D03*
X355600Y584200D03*
X330200Y584200D03*
X482600Y584200D03*
X508000Y584200D03*
X533400Y584200D03*
X558800Y584200D03*
X584200Y584200D03*
X609600Y584200D03*
X635000Y584200D03*
X304800Y584200D03*
X279400Y584200D03*
D11*
X647700Y774700D03*
X622300Y774700D03*
X596900Y774700D03*
D13*
X450342Y495300D02*
X433578Y495300D01*
X433578Y520700D02*
X450342Y520700D01*
X450342Y546100D02*
X433578Y546100D01*
D11*
X607822Y509270D03*
X607822Y483870D03*
D14*
X555366Y541782D02*
X538866Y541782D01*
X538866Y516382D02*
X555366Y516382D01*
X555366Y490982D02*
X538866Y490982D01*
M02*
