G04 EAGLE Gerber RS-274X export*
G75*
%MOMM*%
%FSLAX34Y34*%
%LPD*%
%INSoldermask Bottom*%
%IPPOS*%
%AMOC8*
5,1,8,0,0,1.08239X$1,22.5*%
G01*
%ADD10C,3.378200*%
%ADD11C,2.082800*%
%ADD12C,1.727200*%
%ADD13C,1.879600*%
%ADD14C,1.853200*%

G36*
X480237Y496553D02*
X480237Y496553D01*
X480309Y496551D01*
X482145Y496756D01*
X482191Y496770D01*
X482266Y496782D01*
X484027Y497342D01*
X484069Y497365D01*
X484141Y497391D01*
X485758Y498284D01*
X485796Y498314D01*
X485861Y498354D01*
X487273Y499545D01*
X487304Y499582D01*
X487360Y499634D01*
X488513Y501078D01*
X488536Y501120D01*
X488580Y501182D01*
X489429Y502823D01*
X489444Y502869D01*
X489475Y502938D01*
X489988Y504713D01*
X489993Y504761D01*
X490011Y504836D01*
X490167Y506676D01*
X490163Y506720D01*
X490167Y506785D01*
X490007Y508616D01*
X489994Y508662D01*
X489984Y508738D01*
X489470Y510502D01*
X489449Y510546D01*
X489424Y510618D01*
X488575Y512248D01*
X488546Y512286D01*
X488507Y512352D01*
X487357Y513785D01*
X487321Y513817D01*
X487270Y513874D01*
X485862Y515055D01*
X485821Y515079D01*
X485760Y515125D01*
X484148Y516009D01*
X484103Y516024D01*
X484034Y516058D01*
X482281Y516610D01*
X482234Y516616D01*
X482160Y516636D01*
X480333Y516836D01*
X480287Y516832D01*
X480218Y516838D01*
X478542Y516715D01*
X478499Y516704D01*
X478433Y516698D01*
X476803Y516287D01*
X476763Y516268D01*
X476699Y516250D01*
X475166Y515562D01*
X475129Y515537D01*
X475069Y515508D01*
X473679Y514564D01*
X473647Y514533D01*
X473593Y514495D01*
X472387Y513324D01*
X472361Y513288D01*
X472315Y513240D01*
X471331Y511878D01*
X471312Y511837D01*
X471275Y511783D01*
X470542Y510270D01*
X470530Y510227D01*
X470503Y510167D01*
X470045Y508550D01*
X470040Y508505D01*
X470024Y508441D01*
X469853Y506769D01*
X469857Y506721D01*
X469853Y506642D01*
X470019Y504970D01*
X470031Y504927D01*
X470040Y504862D01*
X470494Y503244D01*
X470513Y503203D01*
X470533Y503140D01*
X471261Y501626D01*
X471287Y501590D01*
X471317Y501531D01*
X472298Y500166D01*
X472330Y500135D01*
X472370Y500082D01*
X473572Y498908D01*
X473609Y498883D01*
X473657Y498838D01*
X475045Y497891D01*
X475086Y497873D01*
X475142Y497837D01*
X476673Y497145D01*
X476716Y497134D01*
X476777Y497108D01*
X478406Y496693D01*
X478450Y496690D01*
X478515Y496675D01*
X480190Y496549D01*
X480237Y496553D01*
G37*
G36*
X480237Y468562D02*
X480237Y468562D01*
X480309Y468560D01*
X482145Y468765D01*
X482191Y468779D01*
X482266Y468791D01*
X484027Y469351D01*
X484069Y469374D01*
X484141Y469400D01*
X485758Y470293D01*
X485796Y470323D01*
X485861Y470363D01*
X487273Y471554D01*
X487304Y471591D01*
X487360Y471643D01*
X488513Y473087D01*
X488536Y473129D01*
X488580Y473191D01*
X489429Y474832D01*
X489444Y474878D01*
X489475Y474947D01*
X489988Y476722D01*
X489993Y476770D01*
X490011Y476845D01*
X490167Y478685D01*
X490163Y478729D01*
X490167Y478794D01*
X490007Y480625D01*
X489994Y480671D01*
X489984Y480747D01*
X489470Y482511D01*
X489449Y482555D01*
X489424Y482627D01*
X488575Y484257D01*
X488546Y484295D01*
X488507Y484361D01*
X487357Y485794D01*
X487321Y485826D01*
X487270Y485883D01*
X485862Y487064D01*
X485821Y487088D01*
X485760Y487134D01*
X484148Y488018D01*
X484103Y488033D01*
X484034Y488067D01*
X482281Y488619D01*
X482234Y488625D01*
X482160Y488645D01*
X480333Y488845D01*
X480287Y488841D01*
X480218Y488847D01*
X478542Y488724D01*
X478499Y488713D01*
X478433Y488707D01*
X476803Y488296D01*
X476763Y488277D01*
X476699Y488259D01*
X475166Y487571D01*
X475129Y487546D01*
X475069Y487517D01*
X473679Y486573D01*
X473647Y486542D01*
X473593Y486504D01*
X472387Y485333D01*
X472361Y485297D01*
X472315Y485249D01*
X471331Y483887D01*
X471312Y483846D01*
X471275Y483792D01*
X470542Y482279D01*
X470530Y482236D01*
X470503Y482176D01*
X470045Y480559D01*
X470040Y480514D01*
X470024Y480450D01*
X469853Y478778D01*
X469857Y478730D01*
X469853Y478651D01*
X470019Y476979D01*
X470031Y476936D01*
X470040Y476871D01*
X470494Y475253D01*
X470513Y475212D01*
X470533Y475149D01*
X471261Y473635D01*
X471287Y473599D01*
X471317Y473540D01*
X472298Y472175D01*
X472330Y472144D01*
X472370Y472091D01*
X473572Y470917D01*
X473609Y470892D01*
X473657Y470847D01*
X475045Y469900D01*
X475086Y469882D01*
X475142Y469846D01*
X476673Y469154D01*
X476716Y469143D01*
X476777Y469117D01*
X478406Y468702D01*
X478450Y468699D01*
X478515Y468684D01*
X480190Y468558D01*
X480237Y468562D01*
G37*
G36*
X481578Y550136D02*
X481578Y550136D01*
X481621Y550147D01*
X481687Y550153D01*
X483317Y550565D01*
X483357Y550583D01*
X483421Y550601D01*
X484954Y551289D01*
X484991Y551314D01*
X485051Y551343D01*
X486441Y552287D01*
X486473Y552318D01*
X486527Y552356D01*
X487733Y553527D01*
X487759Y553564D01*
X487805Y553611D01*
X488789Y554973D01*
X488808Y555014D01*
X488845Y555068D01*
X489578Y556581D01*
X489590Y556624D01*
X489617Y556684D01*
X490075Y558301D01*
X490080Y558346D01*
X490096Y558410D01*
X490267Y560082D01*
X490263Y560130D01*
X490267Y560209D01*
X490101Y561881D01*
X490089Y561924D01*
X490080Y561990D01*
X489626Y563607D01*
X489607Y563648D01*
X489587Y563711D01*
X488859Y565225D01*
X488833Y565261D01*
X488803Y565320D01*
X487822Y566685D01*
X487790Y566716D01*
X487750Y566769D01*
X486548Y567943D01*
X486511Y567968D01*
X486463Y568013D01*
X485075Y568960D01*
X485034Y568978D01*
X484978Y569014D01*
X483447Y569706D01*
X483404Y569717D01*
X483343Y569743D01*
X481714Y570158D01*
X481670Y570161D01*
X481605Y570176D01*
X479930Y570302D01*
X479883Y570298D01*
X479811Y570300D01*
X477976Y570095D01*
X477929Y570081D01*
X477854Y570069D01*
X476093Y569509D01*
X476051Y569486D01*
X475979Y569460D01*
X474362Y568567D01*
X474324Y568537D01*
X474259Y568497D01*
X472847Y567306D01*
X472816Y567269D01*
X472760Y567217D01*
X471607Y565773D01*
X471585Y565731D01*
X471540Y565669D01*
X470691Y564028D01*
X470677Y563982D01*
X470645Y563913D01*
X470132Y562138D01*
X470127Y562090D01*
X470110Y562015D01*
X469953Y560175D01*
X469957Y560131D01*
X469953Y560066D01*
X470113Y558235D01*
X470126Y558189D01*
X470134Y558128D01*
X470134Y558126D01*
X470136Y558113D01*
X470650Y556349D01*
X470671Y556305D01*
X470696Y556233D01*
X471545Y554603D01*
X471574Y554565D01*
X471613Y554499D01*
X472763Y553066D01*
X472799Y553034D01*
X472850Y552977D01*
X474258Y551796D01*
X474299Y551772D01*
X474360Y551726D01*
X475972Y550842D01*
X476017Y550827D01*
X476086Y550793D01*
X477839Y550241D01*
X477886Y550235D01*
X477960Y550215D01*
X479787Y550016D01*
X479833Y550019D01*
X479902Y550013D01*
X481578Y550136D01*
G37*
G36*
X481578Y522145D02*
X481578Y522145D01*
X481621Y522156D01*
X481687Y522162D01*
X483317Y522574D01*
X483357Y522592D01*
X483421Y522610D01*
X484954Y523298D01*
X484991Y523323D01*
X485051Y523352D01*
X486441Y524296D01*
X486473Y524327D01*
X486527Y524365D01*
X487733Y525536D01*
X487759Y525573D01*
X487805Y525620D01*
X488789Y526982D01*
X488808Y527023D01*
X488845Y527077D01*
X489578Y528590D01*
X489590Y528633D01*
X489617Y528693D01*
X490075Y530310D01*
X490080Y530355D01*
X490096Y530419D01*
X490267Y532091D01*
X490263Y532139D01*
X490267Y532218D01*
X490101Y533890D01*
X490089Y533933D01*
X490080Y533999D01*
X489626Y535616D01*
X489607Y535657D01*
X489587Y535720D01*
X488859Y537234D01*
X488833Y537270D01*
X488803Y537329D01*
X487822Y538694D01*
X487790Y538725D01*
X487750Y538778D01*
X486548Y539952D01*
X486511Y539977D01*
X486463Y540022D01*
X485075Y540969D01*
X485034Y540987D01*
X484978Y541023D01*
X483447Y541715D01*
X483404Y541726D01*
X483343Y541752D01*
X481714Y542167D01*
X481670Y542170D01*
X481605Y542185D01*
X479930Y542311D01*
X479883Y542307D01*
X479811Y542309D01*
X477976Y542104D01*
X477929Y542090D01*
X477854Y542078D01*
X476093Y541518D01*
X476051Y541495D01*
X475979Y541469D01*
X474362Y540576D01*
X474324Y540546D01*
X474259Y540506D01*
X472847Y539315D01*
X472816Y539278D01*
X472760Y539226D01*
X471607Y537782D01*
X471585Y537740D01*
X471540Y537678D01*
X470691Y536037D01*
X470677Y535991D01*
X470645Y535922D01*
X470132Y534147D01*
X470127Y534099D01*
X470110Y534024D01*
X469953Y532184D01*
X469957Y532140D01*
X469953Y532075D01*
X470113Y530244D01*
X470126Y530198D01*
X470134Y530137D01*
X470134Y530135D01*
X470136Y530122D01*
X470650Y528358D01*
X470671Y528314D01*
X470696Y528242D01*
X471545Y526612D01*
X471574Y526574D01*
X471613Y526508D01*
X472763Y525075D01*
X472799Y525043D01*
X472850Y524986D01*
X474258Y523805D01*
X474299Y523781D01*
X474360Y523735D01*
X475972Y522851D01*
X476017Y522836D01*
X476086Y522802D01*
X477839Y522250D01*
X477886Y522244D01*
X477960Y522224D01*
X479787Y522025D01*
X479833Y522028D01*
X479902Y522022D01*
X481578Y522145D01*
G37*
D10*
X228600Y457200D03*
X685800Y457200D03*
X685800Y787400D03*
X228600Y787400D03*
D11*
X419100Y774700D03*
X444500Y774700D03*
X469900Y774700D03*
X495300Y774700D03*
X317500Y774700D03*
X292100Y774700D03*
X266700Y774700D03*
D12*
X457200Y736600D03*
X482600Y736600D03*
X508000Y736600D03*
X533400Y736600D03*
X558800Y736600D03*
X584200Y736600D03*
X431800Y736600D03*
X406400Y736600D03*
X381000Y736600D03*
X355600Y736600D03*
X330200Y736600D03*
X304800Y736600D03*
X279400Y736600D03*
X609600Y736600D03*
X635000Y736600D03*
X457200Y584200D03*
X431800Y584200D03*
X406400Y584200D03*
X381000Y584200D03*
X355600Y584200D03*
X330200Y584200D03*
X482600Y584200D03*
X508000Y584200D03*
X533400Y584200D03*
X558800Y584200D03*
X584200Y584200D03*
X609600Y584200D03*
X635000Y584200D03*
X304800Y584200D03*
X279400Y584200D03*
D11*
X647700Y774700D03*
X622300Y774700D03*
X596900Y774700D03*
D13*
X450342Y495300D02*
X433578Y495300D01*
X433578Y520700D02*
X450342Y520700D01*
X450342Y546100D02*
X433578Y546100D01*
D11*
X607822Y509270D03*
X607822Y483870D03*
D14*
X555366Y541782D02*
X538866Y541782D01*
X538866Y516382D02*
X555366Y516382D01*
X555366Y490982D02*
X538866Y490982D01*
M02*
