M48
;GenerationSoftware,Autodesk,EAGLE,9.6.2*%
;CreationDate,2021-05-25T23:25:11Z*%
FMAT,2
ICI,OFF
METRIC,TZ,000.000
T4C1.016
T3C1.100
T2C1.118
T1C3.175
%
G90
M71
T1
X22860Y45720
X68580Y45720
X68580Y78740
X22860Y78740
T2
X44196Y49530
X44196Y52070
X44196Y54610
T3
X54712Y49098
X54712Y54178
X54712Y51638
T4
X46990Y77470
X49530Y77470
X31750Y77470
X29210Y77470
X26670Y77470
X45720Y73660
X48260Y73660
X50800Y73660
X53340Y73660
X55880Y73660
X58420Y73660
X43180Y73660
X40640Y73660
X38100Y73660
X35560Y73660
X33020Y73660
X30480Y73660
X27940Y73660
X48006Y53213
X63500Y73660
X45720Y58420
X43180Y58420
X40640Y58420
X38100Y58420
X35560Y58420
X33020Y58420
X48260Y58420
X50800Y58420
X53340Y58420
X55880Y58420
X58420Y58420
X48006Y47879
X63500Y58420
X30480Y58420
X27940Y58420
X64770Y77470
X62230Y77470
X59690Y77470
X60960Y73660
X48006Y50673
X48006Y56007
X60782Y50927
X60782Y48387
X41910Y77470
X44450Y77470
X60960Y58420
M30