G04 EAGLE Gerber RS-274X export*
G75*
%MOMM*%
%FSLAX34Y34*%
%LPD*%
%INBottom Copper*%
%IPPOS*%
%AMOC8*
5,1,8,0,0,1.08239X$1,22.5*%
G01*
%ADD10C,2.032000*%
%ADD11C,1.879600*%
%ADD12C,1.676400*%
%ADD13C,1.650000*%
%ADD14P,1.649562X8X292.500000*%
%ADD15C,1.524000*%
%ADD16R,1.524000X1.524000*%
%ADD17C,0.508000*%

G36*
X503800Y3064D02*
X503800Y3064D01*
X503919Y3071D01*
X503957Y3084D01*
X503998Y3089D01*
X504108Y3132D01*
X504221Y3169D01*
X504256Y3191D01*
X504293Y3206D01*
X504389Y3275D01*
X504490Y3339D01*
X504518Y3369D01*
X504551Y3392D01*
X504627Y3484D01*
X504708Y3571D01*
X504728Y3606D01*
X504753Y3637D01*
X504804Y3745D01*
X504862Y3849D01*
X504872Y3889D01*
X504889Y3925D01*
X504911Y4042D01*
X504941Y4157D01*
X504945Y4217D01*
X504949Y4237D01*
X504947Y4258D01*
X504951Y4318D01*
X504951Y503682D01*
X504936Y503800D01*
X504929Y503919D01*
X504916Y503957D01*
X504911Y503998D01*
X504868Y504108D01*
X504831Y504221D01*
X504809Y504256D01*
X504794Y504293D01*
X504725Y504389D01*
X504661Y504490D01*
X504631Y504518D01*
X504608Y504551D01*
X504516Y504627D01*
X504429Y504708D01*
X504394Y504728D01*
X504363Y504753D01*
X504255Y504804D01*
X504151Y504862D01*
X504111Y504872D01*
X504075Y504889D01*
X503958Y504911D01*
X503843Y504941D01*
X503783Y504945D01*
X503763Y504949D01*
X503742Y504947D01*
X503682Y504951D01*
X4318Y504951D01*
X4200Y504936D01*
X4081Y504929D01*
X4043Y504916D01*
X4002Y504911D01*
X3892Y504868D01*
X3779Y504831D01*
X3744Y504809D01*
X3707Y504794D01*
X3611Y504725D01*
X3510Y504661D01*
X3482Y504631D01*
X3449Y504608D01*
X3373Y504516D01*
X3292Y504429D01*
X3272Y504394D01*
X3247Y504363D01*
X3196Y504255D01*
X3138Y504151D01*
X3128Y504111D01*
X3111Y504075D01*
X3089Y503958D01*
X3059Y503843D01*
X3055Y503783D01*
X3051Y503763D01*
X3053Y503742D01*
X3049Y503682D01*
X3049Y4318D01*
X3064Y4200D01*
X3071Y4081D01*
X3084Y4043D01*
X3089Y4002D01*
X3132Y3892D01*
X3169Y3779D01*
X3191Y3744D01*
X3206Y3707D01*
X3275Y3611D01*
X3339Y3510D01*
X3369Y3482D01*
X3392Y3449D01*
X3484Y3373D01*
X3571Y3292D01*
X3606Y3272D01*
X3637Y3247D01*
X3745Y3196D01*
X3849Y3138D01*
X3889Y3128D01*
X3925Y3111D01*
X4042Y3089D01*
X4157Y3059D01*
X4217Y3055D01*
X4237Y3051D01*
X4258Y3053D01*
X4318Y3049D01*
X503682Y3049D01*
X503800Y3064D01*
G37*
%LPC*%
G36*
X289727Y49021D02*
X289727Y49021D01*
X284872Y51032D01*
X281156Y54748D01*
X279145Y59603D01*
X279145Y64770D01*
X279130Y64888D01*
X279123Y65007D01*
X279110Y65045D01*
X279105Y65086D01*
X279062Y65196D01*
X279025Y65309D01*
X279003Y65344D01*
X278988Y65381D01*
X278919Y65477D01*
X278855Y65578D01*
X278825Y65606D01*
X278802Y65639D01*
X278710Y65715D01*
X278623Y65796D01*
X278588Y65816D01*
X278557Y65841D01*
X278449Y65892D01*
X278345Y65950D01*
X278305Y65960D01*
X278269Y65977D01*
X278152Y65999D01*
X278037Y66029D01*
X277977Y66033D01*
X277957Y66037D01*
X277936Y66035D01*
X277876Y66039D01*
X275574Y66039D01*
X275544Y66036D01*
X275515Y66038D01*
X275387Y66016D01*
X275258Y65999D01*
X275231Y65989D01*
X275202Y65983D01*
X275083Y65930D01*
X274962Y65882D01*
X274939Y65865D01*
X274912Y65853D01*
X274810Y65772D01*
X274705Y65696D01*
X274686Y65673D01*
X274663Y65654D01*
X274585Y65550D01*
X274502Y65451D01*
X274490Y65424D01*
X274472Y65400D01*
X274401Y65256D01*
X274358Y65153D01*
X271143Y61937D01*
X266942Y60197D01*
X245630Y60197D01*
X241429Y61937D01*
X238213Y65153D01*
X236473Y69354D01*
X236473Y73902D01*
X238213Y78103D01*
X241429Y81319D01*
X245630Y83059D01*
X266942Y83059D01*
X271143Y81319D01*
X274358Y78103D01*
X274401Y78000D01*
X274416Y77975D01*
X274425Y77947D01*
X274494Y77837D01*
X274559Y77724D01*
X274579Y77703D01*
X274595Y77678D01*
X274690Y77589D01*
X274780Y77496D01*
X274805Y77480D01*
X274827Y77460D01*
X274940Y77397D01*
X275051Y77329D01*
X275079Y77321D01*
X275105Y77306D01*
X275231Y77274D01*
X275355Y77236D01*
X275384Y77234D01*
X275413Y77227D01*
X275574Y77217D01*
X284068Y77217D01*
X285010Y76826D01*
X285058Y76813D01*
X285103Y76792D01*
X285211Y76771D01*
X285317Y76742D01*
X285367Y76742D01*
X285416Y76732D01*
X285525Y76739D01*
X285635Y76737D01*
X285683Y76749D01*
X285733Y76752D01*
X285837Y76786D01*
X285944Y76811D01*
X285988Y76835D01*
X286035Y76850D01*
X286128Y76909D01*
X286225Y76960D01*
X286262Y76994D01*
X286304Y77020D01*
X286379Y77100D01*
X286461Y77174D01*
X286488Y77216D01*
X286522Y77252D01*
X286575Y77348D01*
X286635Y77440D01*
X286652Y77487D01*
X286676Y77530D01*
X286703Y77636D01*
X286739Y77741D01*
X286743Y77790D01*
X286755Y77838D01*
X286765Y77999D01*
X286765Y78074D01*
X287616Y80128D01*
X301380Y93892D01*
X303434Y94743D01*
X484331Y94743D01*
X484430Y94755D01*
X484529Y94758D01*
X484587Y94775D01*
X484647Y94783D01*
X484739Y94819D01*
X484834Y94847D01*
X484886Y94877D01*
X484943Y94900D01*
X485023Y94958D01*
X485108Y95008D01*
X485183Y95074D01*
X485200Y95086D01*
X485208Y95096D01*
X485229Y95114D01*
X490483Y100368D01*
X490543Y100446D01*
X490611Y100519D01*
X490640Y100572D01*
X490677Y100619D01*
X490717Y100710D01*
X490765Y100797D01*
X490780Y100856D01*
X490804Y100911D01*
X490819Y101009D01*
X490844Y101105D01*
X490850Y101205D01*
X490854Y101225D01*
X490852Y101238D01*
X490854Y101266D01*
X490854Y130597D01*
X490835Y130748D01*
X490818Y130899D01*
X490815Y130905D01*
X490814Y130912D01*
X490759Y131052D01*
X490704Y131196D01*
X490700Y131202D01*
X490697Y131208D01*
X490608Y131331D01*
X490520Y131455D01*
X490515Y131460D01*
X490511Y131465D01*
X490392Y131563D01*
X490277Y131661D01*
X490271Y131664D01*
X490266Y131668D01*
X490128Y131733D01*
X489991Y131799D01*
X489984Y131801D01*
X489978Y131804D01*
X489830Y131832D01*
X489679Y131862D01*
X489672Y131862D01*
X489666Y131863D01*
X489514Y131854D01*
X489361Y131846D01*
X489355Y131844D01*
X489348Y131844D01*
X489203Y131797D01*
X489058Y131751D01*
X489052Y131748D01*
X489046Y131746D01*
X488917Y131664D01*
X488787Y131584D01*
X488783Y131579D01*
X488777Y131575D01*
X488672Y131464D01*
X488567Y131355D01*
X488564Y131349D01*
X488559Y131344D01*
X488485Y131210D01*
X488410Y131078D01*
X488408Y131069D01*
X488405Y131065D01*
X488403Y131055D01*
X488359Y130925D01*
X488270Y130591D01*
X487935Y130012D01*
X487462Y129539D01*
X486883Y129204D01*
X486236Y129031D01*
X480821Y129031D01*
X480821Y137922D01*
X480806Y138040D01*
X480799Y138159D01*
X480786Y138197D01*
X480781Y138237D01*
X480738Y138348D01*
X480701Y138461D01*
X480679Y138495D01*
X480664Y138533D01*
X480594Y138629D01*
X480531Y138730D01*
X480501Y138758D01*
X480477Y138790D01*
X480386Y138866D01*
X480299Y138948D01*
X480264Y138967D01*
X480233Y138993D01*
X480125Y139044D01*
X480021Y139101D01*
X479981Y139112D01*
X479945Y139129D01*
X479828Y139151D01*
X479713Y139181D01*
X479652Y139185D01*
X479632Y139189D01*
X479612Y139187D01*
X479552Y139191D01*
X478281Y139191D01*
X478281Y139193D01*
X479552Y139193D01*
X479670Y139208D01*
X479789Y139215D01*
X479827Y139228D01*
X479867Y139233D01*
X479978Y139277D01*
X480091Y139313D01*
X480126Y139335D01*
X480163Y139350D01*
X480259Y139420D01*
X480360Y139483D01*
X480388Y139513D01*
X480421Y139537D01*
X480496Y139628D01*
X480578Y139715D01*
X480598Y139750D01*
X480623Y139782D01*
X480674Y139889D01*
X480732Y139994D01*
X480742Y140033D01*
X480759Y140069D01*
X480781Y140186D01*
X480811Y140301D01*
X480815Y140362D01*
X480819Y140382D01*
X480817Y140402D01*
X480821Y140462D01*
X480821Y149353D01*
X486236Y149353D01*
X486883Y149180D01*
X487462Y148845D01*
X487935Y148372D01*
X488270Y147793D01*
X488359Y147459D01*
X488417Y147318D01*
X488473Y147176D01*
X488477Y147171D01*
X488479Y147164D01*
X488571Y147040D01*
X488659Y146919D01*
X488665Y146914D01*
X488669Y146909D01*
X488787Y146813D01*
X488904Y146716D01*
X488911Y146713D01*
X488916Y146709D01*
X489055Y146645D01*
X489192Y146580D01*
X489199Y146579D01*
X489205Y146576D01*
X489356Y146549D01*
X489505Y146521D01*
X489511Y146521D01*
X489518Y146520D01*
X489670Y146531D01*
X489822Y146540D01*
X489828Y146542D01*
X489835Y146543D01*
X489980Y146592D01*
X490124Y146638D01*
X490130Y146642D01*
X490137Y146644D01*
X490264Y146727D01*
X490393Y146809D01*
X490398Y146814D01*
X490403Y146817D01*
X490506Y146928D01*
X490611Y147040D01*
X490614Y147046D01*
X490619Y147051D01*
X490691Y147185D01*
X490765Y147319D01*
X490766Y147325D01*
X490769Y147331D01*
X490806Y147479D01*
X490844Y147627D01*
X490845Y147636D01*
X490846Y147640D01*
X490846Y147651D01*
X490854Y147787D01*
X490854Y161878D01*
X490842Y161977D01*
X490839Y162076D01*
X490822Y162134D01*
X490814Y162194D01*
X490778Y162286D01*
X490750Y162381D01*
X490720Y162433D01*
X490697Y162490D01*
X490639Y162570D01*
X490589Y162655D01*
X490523Y162730D01*
X490511Y162747D01*
X490501Y162755D01*
X490483Y162776D01*
X303365Y349894D01*
X303287Y349954D01*
X303214Y350022D01*
X303161Y350051D01*
X303114Y350088D01*
X303023Y350128D01*
X302936Y350176D01*
X302877Y350191D01*
X302822Y350215D01*
X302724Y350230D01*
X302628Y350255D01*
X302528Y350261D01*
X302508Y350265D01*
X302495Y350263D01*
X302467Y350265D01*
X34702Y350265D01*
X32648Y351116D01*
X16344Y367420D01*
X15493Y369474D01*
X15493Y383167D01*
X15481Y383265D01*
X15478Y383364D01*
X15461Y383423D01*
X15453Y383483D01*
X15417Y383575D01*
X15389Y383670D01*
X15359Y383722D01*
X15336Y383778D01*
X15278Y383858D01*
X15228Y383944D01*
X15162Y384019D01*
X15150Y384036D01*
X15140Y384043D01*
X15122Y384065D01*
X10413Y388773D01*
X10413Y397611D01*
X15122Y402319D01*
X15182Y402398D01*
X15250Y402470D01*
X15279Y402523D01*
X15316Y402571D01*
X15356Y402662D01*
X15404Y402748D01*
X15419Y402807D01*
X15443Y402862D01*
X15458Y402960D01*
X15483Y403056D01*
X15489Y403156D01*
X15493Y403177D01*
X15491Y403189D01*
X15493Y403217D01*
X15493Y407416D01*
X15478Y407534D01*
X15471Y407653D01*
X15458Y407691D01*
X15453Y407732D01*
X15410Y407842D01*
X15373Y407955D01*
X15351Y407990D01*
X15336Y408027D01*
X15267Y408123D01*
X15203Y408224D01*
X15173Y408252D01*
X15150Y408285D01*
X15058Y408361D01*
X14971Y408442D01*
X14936Y408462D01*
X14905Y408487D01*
X14797Y408538D01*
X14693Y408596D01*
X14653Y408606D01*
X14617Y408623D01*
X14500Y408645D01*
X14385Y408675D01*
X14325Y408679D01*
X14305Y408683D01*
X14284Y408681D01*
X14224Y408685D01*
X12199Y408685D01*
X10413Y410471D01*
X10413Y428237D01*
X12199Y430023D01*
X14290Y430023D01*
X14319Y430026D01*
X14349Y430024D01*
X14477Y430046D01*
X14606Y430063D01*
X14633Y430073D01*
X14662Y430078D01*
X14781Y430132D01*
X14901Y430180D01*
X14925Y430197D01*
X14952Y430209D01*
X15054Y430290D01*
X15159Y430366D01*
X15178Y430389D01*
X15201Y430408D01*
X15279Y430511D01*
X15362Y430611D01*
X15374Y430638D01*
X15392Y430662D01*
X15463Y430806D01*
X16344Y432934D01*
X26552Y443142D01*
X28606Y443993D01*
X70565Y443993D01*
X70664Y444005D01*
X70763Y444008D01*
X70821Y444025D01*
X70881Y444033D01*
X70973Y444069D01*
X71068Y444097D01*
X71120Y444127D01*
X71177Y444150D01*
X71257Y444208D01*
X71342Y444258D01*
X71417Y444324D01*
X71434Y444336D01*
X71442Y444346D01*
X71463Y444364D01*
X74361Y447262D01*
X74434Y447356D01*
X74512Y447445D01*
X74531Y447481D01*
X74555Y447513D01*
X74603Y447623D01*
X74657Y447729D01*
X74666Y447768D01*
X74682Y447805D01*
X74700Y447923D01*
X74727Y448039D01*
X74725Y448079D01*
X74732Y448119D01*
X74720Y448238D01*
X74717Y448357D01*
X74706Y448396D01*
X74702Y448436D01*
X74662Y448548D01*
X74628Y448662D01*
X74608Y448697D01*
X74594Y448735D01*
X74527Y448834D01*
X74467Y448936D01*
X74427Y448982D01*
X74416Y448998D01*
X74400Y449012D01*
X74361Y449057D01*
X70982Y452436D01*
X69729Y455461D01*
X69714Y455487D01*
X69705Y455516D01*
X69636Y455625D01*
X69571Y455738D01*
X69550Y455759D01*
X69534Y455784D01*
X69440Y455873D01*
X69350Y455966D01*
X69324Y455982D01*
X69303Y456002D01*
X69189Y456065D01*
X69079Y456132D01*
X69050Y456141D01*
X69024Y456155D01*
X68898Y456188D01*
X68775Y456226D01*
X68745Y456227D01*
X68716Y456235D01*
X68586Y456235D01*
X68457Y456241D01*
X68428Y456235D01*
X68398Y456235D01*
X68272Y456203D01*
X68146Y456177D01*
X68119Y456164D01*
X68090Y456156D01*
X67976Y456094D01*
X67860Y456037D01*
X67837Y456018D01*
X67811Y456003D01*
X67716Y455915D01*
X67618Y455831D01*
X67601Y455806D01*
X67579Y455786D01*
X67510Y455677D01*
X67435Y455571D01*
X67424Y455543D01*
X67408Y455517D01*
X67349Y455368D01*
X67198Y454903D01*
X66345Y453229D01*
X65240Y451708D01*
X63912Y450380D01*
X62391Y449275D01*
X60717Y448422D01*
X58930Y447841D01*
X58673Y447801D01*
X58673Y458216D01*
X58658Y458334D01*
X58651Y458453D01*
X58638Y458491D01*
X58633Y458531D01*
X58590Y458642D01*
X58553Y458755D01*
X58531Y458789D01*
X58516Y458827D01*
X58446Y458923D01*
X58383Y459024D01*
X58353Y459052D01*
X58329Y459084D01*
X58238Y459160D01*
X58151Y459242D01*
X58116Y459261D01*
X58085Y459287D01*
X57977Y459338D01*
X57873Y459395D01*
X57833Y459406D01*
X57797Y459423D01*
X57680Y459445D01*
X57565Y459475D01*
X57504Y459479D01*
X57484Y459483D01*
X57464Y459481D01*
X57404Y459485D01*
X56133Y459485D01*
X56133Y459487D01*
X57404Y459487D01*
X57522Y459502D01*
X57641Y459509D01*
X57679Y459522D01*
X57719Y459527D01*
X57830Y459571D01*
X57943Y459607D01*
X57978Y459629D01*
X58015Y459644D01*
X58111Y459714D01*
X58212Y459777D01*
X58240Y459807D01*
X58273Y459831D01*
X58348Y459922D01*
X58430Y460009D01*
X58450Y460044D01*
X58475Y460076D01*
X58526Y460183D01*
X58584Y460288D01*
X58594Y460327D01*
X58611Y460363D01*
X58633Y460480D01*
X58663Y460595D01*
X58667Y460656D01*
X58671Y460676D01*
X58669Y460696D01*
X58673Y460756D01*
X58673Y471171D01*
X58930Y471131D01*
X60717Y470550D01*
X62391Y469697D01*
X63912Y468592D01*
X65240Y467264D01*
X66345Y465743D01*
X67198Y464069D01*
X67349Y463604D01*
X67362Y463577D01*
X67369Y463548D01*
X67429Y463433D01*
X67484Y463316D01*
X67503Y463293D01*
X67517Y463267D01*
X67605Y463171D01*
X67687Y463071D01*
X67711Y463054D01*
X67731Y463032D01*
X67840Y462960D01*
X67944Y462884D01*
X67972Y462873D01*
X67997Y462857D01*
X68120Y462815D01*
X68240Y462767D01*
X68270Y462763D01*
X68298Y462754D01*
X68427Y462743D01*
X68555Y462727D01*
X68585Y462731D01*
X68615Y462728D01*
X68743Y462751D01*
X68871Y462767D01*
X68899Y462778D01*
X68928Y462783D01*
X69046Y462836D01*
X69167Y462884D01*
X69191Y462901D01*
X69218Y462913D01*
X69319Y462994D01*
X69424Y463070D01*
X69443Y463093D01*
X69467Y463112D01*
X69544Y463215D01*
X69627Y463315D01*
X69640Y463342D01*
X69658Y463366D01*
X69729Y463511D01*
X70982Y466536D01*
X74484Y470038D01*
X79058Y471933D01*
X84010Y471933D01*
X84688Y471652D01*
X84717Y471644D01*
X84743Y471631D01*
X84870Y471602D01*
X84995Y471568D01*
X85024Y471567D01*
X85053Y471561D01*
X85183Y471565D01*
X85313Y471563D01*
X85342Y471570D01*
X85371Y471571D01*
X85496Y471607D01*
X85622Y471637D01*
X85648Y471651D01*
X85677Y471659D01*
X85788Y471725D01*
X85903Y471786D01*
X85925Y471805D01*
X85950Y471821D01*
X86071Y471927D01*
X106844Y492699D01*
X108594Y494450D01*
X110648Y495301D01*
X287878Y495301D01*
X289932Y494450D01*
X301156Y483226D01*
X302007Y481172D01*
X302007Y480381D01*
X302010Y480352D01*
X302008Y480323D01*
X302030Y480195D01*
X302047Y480066D01*
X302057Y480038D01*
X302062Y480009D01*
X302116Y479891D01*
X302164Y479770D01*
X302181Y479746D01*
X302193Y479719D01*
X302274Y479618D01*
X302350Y479513D01*
X302373Y479494D01*
X302392Y479471D01*
X302495Y479393D01*
X302595Y479310D01*
X302622Y479297D01*
X302646Y479280D01*
X302790Y479209D01*
X303469Y478928D01*
X306970Y475427D01*
X307251Y474748D01*
X307265Y474723D01*
X307274Y474695D01*
X307344Y474585D01*
X307408Y474472D01*
X307429Y474451D01*
X307445Y474426D01*
X307539Y474337D01*
X307630Y474244D01*
X307655Y474228D01*
X307676Y474208D01*
X307790Y474145D01*
X307901Y474077D01*
X307929Y474069D01*
X307955Y474054D01*
X308080Y474022D01*
X308205Y473984D01*
X308234Y473982D01*
X308263Y473975D01*
X308423Y473965D01*
X374349Y473965D01*
X374448Y473977D01*
X374547Y473980D01*
X374605Y473997D01*
X374665Y474005D01*
X374757Y474041D01*
X374852Y474069D01*
X374904Y474099D01*
X374961Y474122D01*
X375041Y474180D01*
X375126Y474230D01*
X375201Y474296D01*
X375218Y474308D01*
X375226Y474318D01*
X375247Y474336D01*
X386216Y485306D01*
X388270Y486157D01*
X424784Y486157D01*
X426838Y485306D01*
X435014Y477130D01*
X435865Y475076D01*
X435865Y471745D01*
X435868Y471716D01*
X435866Y471687D01*
X435888Y471559D01*
X435905Y471430D01*
X435915Y471402D01*
X435920Y471373D01*
X435974Y471255D01*
X436022Y471134D01*
X436039Y471110D01*
X436051Y471083D01*
X436132Y470982D01*
X436208Y470877D01*
X436231Y470858D01*
X436250Y470835D01*
X436353Y470757D01*
X436453Y470674D01*
X436480Y470661D01*
X436504Y470644D01*
X436648Y470573D01*
X437326Y470292D01*
X440828Y466790D01*
X442081Y463765D01*
X442096Y463739D01*
X442105Y463710D01*
X442175Y463601D01*
X442239Y463488D01*
X442260Y463467D01*
X442276Y463442D01*
X442370Y463353D01*
X442460Y463260D01*
X442486Y463244D01*
X442507Y463224D01*
X442621Y463161D01*
X442731Y463094D01*
X442760Y463085D01*
X442786Y463071D01*
X442911Y463038D01*
X443035Y463000D01*
X443065Y462999D01*
X443094Y462991D01*
X443224Y462991D01*
X443353Y462985D01*
X443382Y462991D01*
X443412Y462991D01*
X443537Y463023D01*
X443664Y463049D01*
X443691Y463062D01*
X443720Y463070D01*
X443833Y463132D01*
X443950Y463189D01*
X443973Y463208D01*
X443999Y463223D01*
X444093Y463311D01*
X444192Y463395D01*
X444209Y463420D01*
X444231Y463440D01*
X444300Y463549D01*
X444375Y463655D01*
X444386Y463683D01*
X444402Y463709D01*
X444461Y463858D01*
X444612Y464323D01*
X445465Y465997D01*
X446570Y467518D01*
X447898Y468846D01*
X449419Y469951D01*
X451093Y470804D01*
X452880Y471385D01*
X453137Y471425D01*
X453137Y461010D01*
X453152Y460892D01*
X453159Y460773D01*
X453172Y460735D01*
X453177Y460695D01*
X453220Y460584D01*
X453257Y460471D01*
X453279Y460437D01*
X453294Y460399D01*
X453364Y460303D01*
X453427Y460202D01*
X453457Y460174D01*
X453480Y460142D01*
X453572Y460066D01*
X453659Y459984D01*
X453694Y459965D01*
X453725Y459939D01*
X453833Y459888D01*
X453937Y459831D01*
X453977Y459820D01*
X454013Y459803D01*
X454130Y459781D01*
X454245Y459751D01*
X454306Y459747D01*
X454326Y459743D01*
X454346Y459745D01*
X454406Y459741D01*
X455677Y459741D01*
X455677Y459739D01*
X454406Y459739D01*
X454288Y459724D01*
X454169Y459717D01*
X454131Y459704D01*
X454090Y459699D01*
X453980Y459655D01*
X453867Y459619D01*
X453832Y459597D01*
X453795Y459582D01*
X453699Y459512D01*
X453598Y459449D01*
X453570Y459419D01*
X453537Y459395D01*
X453462Y459304D01*
X453380Y459217D01*
X453360Y459182D01*
X453335Y459150D01*
X453284Y459043D01*
X453226Y458938D01*
X453216Y458899D01*
X453199Y458863D01*
X453177Y458746D01*
X453147Y458631D01*
X453143Y458570D01*
X453139Y458550D01*
X453141Y458530D01*
X453137Y458470D01*
X453137Y448055D01*
X452880Y448095D01*
X451093Y448676D01*
X449419Y449529D01*
X447898Y450634D01*
X446570Y451962D01*
X445465Y453483D01*
X444612Y455157D01*
X444461Y455622D01*
X444448Y455649D01*
X444441Y455678D01*
X444381Y455792D01*
X444326Y455910D01*
X444307Y455933D01*
X444293Y455959D01*
X444206Y456055D01*
X444123Y456155D01*
X444099Y456172D01*
X444079Y456194D01*
X443970Y456266D01*
X443866Y456342D01*
X443838Y456353D01*
X443813Y456369D01*
X443690Y456411D01*
X443570Y456459D01*
X443540Y456463D01*
X443512Y456472D01*
X443383Y456483D01*
X443255Y456499D01*
X443225Y456495D01*
X443195Y456498D01*
X443067Y456475D01*
X442939Y456459D01*
X442911Y456448D01*
X442882Y456443D01*
X442764Y456390D01*
X442643Y456342D01*
X442619Y456325D01*
X442592Y456313D01*
X442491Y456232D01*
X442386Y456156D01*
X442367Y456133D01*
X442343Y456114D01*
X442265Y456010D01*
X442183Y455911D01*
X442170Y455884D01*
X442152Y455860D01*
X442081Y455715D01*
X440828Y452690D01*
X437326Y449188D01*
X432752Y447293D01*
X427800Y447293D01*
X423226Y449188D01*
X419724Y452690D01*
X418749Y455045D01*
X418680Y455165D01*
X418615Y455288D01*
X418601Y455303D01*
X418591Y455321D01*
X418494Y455421D01*
X418401Y455524D01*
X418384Y455535D01*
X418370Y455549D01*
X418251Y455622D01*
X418135Y455698D01*
X418116Y455705D01*
X418099Y455716D01*
X417966Y455756D01*
X417834Y455802D01*
X417814Y455803D01*
X417795Y455809D01*
X417656Y455816D01*
X417517Y455827D01*
X417497Y455823D01*
X417477Y455824D01*
X417341Y455796D01*
X417204Y455772D01*
X417185Y455764D01*
X417166Y455760D01*
X417040Y455699D01*
X416914Y455642D01*
X416898Y455629D01*
X416880Y455620D01*
X416774Y455530D01*
X416666Y455443D01*
X416653Y455427D01*
X416638Y455414D01*
X416558Y455300D01*
X416474Y455189D01*
X416462Y455164D01*
X416455Y455154D01*
X416448Y455135D01*
X416403Y455045D01*
X415428Y452690D01*
X411926Y449188D01*
X407352Y447293D01*
X402400Y447293D01*
X401722Y447574D01*
X401694Y447582D01*
X401667Y447595D01*
X401540Y447624D01*
X401415Y447658D01*
X401386Y447659D01*
X401357Y447665D01*
X401227Y447661D01*
X401097Y447663D01*
X401068Y447656D01*
X401039Y447655D01*
X400914Y447619D01*
X400788Y447589D01*
X400762Y447575D01*
X400733Y447567D01*
X400622Y447501D01*
X400507Y447440D01*
X400485Y447421D01*
X400460Y447405D01*
X400339Y447299D01*
X393282Y440243D01*
X391532Y438492D01*
X389478Y437641D01*
X324151Y437641D01*
X324052Y437629D01*
X323953Y437626D01*
X323895Y437609D01*
X323835Y437601D01*
X323743Y437565D01*
X323648Y437537D01*
X323596Y437507D01*
X323539Y437484D01*
X323459Y437426D01*
X323374Y437376D01*
X323299Y437310D01*
X323282Y437298D01*
X323274Y437288D01*
X323253Y437270D01*
X318173Y432189D01*
X318088Y432080D01*
X317999Y431973D01*
X317991Y431954D01*
X317978Y431938D01*
X317923Y431810D01*
X317864Y431685D01*
X317860Y431665D01*
X317852Y431646D01*
X317830Y431508D01*
X317804Y431372D01*
X317805Y431352D01*
X317802Y431332D01*
X317815Y431193D01*
X317824Y431055D01*
X317830Y431036D01*
X317832Y431016D01*
X317879Y430884D01*
X317922Y430753D01*
X317933Y430735D01*
X317939Y430716D01*
X318017Y430601D01*
X318092Y430484D01*
X318107Y430470D01*
X318118Y430453D01*
X318222Y430361D01*
X318323Y430266D01*
X318341Y430256D01*
X318356Y430243D01*
X318481Y430179D01*
X318602Y430112D01*
X318622Y430107D01*
X318640Y430098D01*
X318775Y430068D01*
X318910Y430033D01*
X318938Y430031D01*
X318950Y430028D01*
X318970Y430029D01*
X319071Y430023D01*
X334765Y430023D01*
X336551Y428237D01*
X336551Y410471D01*
X334765Y408685D01*
X332740Y408685D01*
X332622Y408670D01*
X332503Y408663D01*
X332465Y408650D01*
X332424Y408645D01*
X332314Y408602D01*
X332201Y408565D01*
X332166Y408543D01*
X332129Y408528D01*
X332033Y408459D01*
X331932Y408395D01*
X331904Y408365D01*
X331871Y408342D01*
X331795Y408250D01*
X331714Y408163D01*
X331694Y408128D01*
X331669Y408097D01*
X331618Y407989D01*
X331560Y407885D01*
X331550Y407845D01*
X331533Y407809D01*
X331511Y407692D01*
X331481Y407577D01*
X331477Y407517D01*
X331473Y407497D01*
X331475Y407476D01*
X331471Y407416D01*
X331471Y403217D01*
X331483Y403119D01*
X331486Y403020D01*
X331503Y402961D01*
X331511Y402901D01*
X331547Y402809D01*
X331575Y402714D01*
X331605Y402662D01*
X331628Y402606D01*
X331686Y402525D01*
X331736Y402440D01*
X331802Y402365D01*
X331814Y402348D01*
X331824Y402340D01*
X331842Y402319D01*
X334927Y399235D01*
X336551Y395314D01*
X336551Y391070D01*
X334927Y387149D01*
X331925Y384147D01*
X328004Y382523D01*
X323760Y382523D01*
X319839Y384147D01*
X316837Y387149D01*
X315213Y391070D01*
X315213Y395314D01*
X316837Y399235D01*
X319922Y402319D01*
X319982Y402398D01*
X320050Y402470D01*
X320079Y402523D01*
X320116Y402571D01*
X320156Y402662D01*
X320204Y402748D01*
X320219Y402807D01*
X320243Y402862D01*
X320258Y402960D01*
X320283Y403056D01*
X320289Y403156D01*
X320293Y403177D01*
X320291Y403189D01*
X320293Y403217D01*
X320293Y407416D01*
X320278Y407534D01*
X320271Y407653D01*
X320258Y407691D01*
X320253Y407732D01*
X320210Y407842D01*
X320173Y407955D01*
X320151Y407990D01*
X320136Y408027D01*
X320067Y408123D01*
X320003Y408224D01*
X319973Y408252D01*
X319950Y408285D01*
X319858Y408361D01*
X319771Y408442D01*
X319736Y408462D01*
X319705Y408487D01*
X319597Y408538D01*
X319493Y408596D01*
X319453Y408606D01*
X319417Y408623D01*
X319300Y408645D01*
X319185Y408675D01*
X319125Y408679D01*
X319105Y408683D01*
X319084Y408681D01*
X319024Y408685D01*
X316999Y408685D01*
X315213Y410471D01*
X315213Y426165D01*
X315196Y426303D01*
X315183Y426442D01*
X315176Y426461D01*
X315173Y426481D01*
X315122Y426610D01*
X315075Y426741D01*
X315064Y426758D01*
X315056Y426777D01*
X314975Y426889D01*
X314897Y427004D01*
X314881Y427018D01*
X314870Y427034D01*
X314762Y427123D01*
X314658Y427215D01*
X314640Y427224D01*
X314625Y427237D01*
X314499Y427296D01*
X314375Y427359D01*
X314355Y427364D01*
X314337Y427372D01*
X314200Y427398D01*
X314065Y427429D01*
X314044Y427428D01*
X314025Y427432D01*
X313886Y427423D01*
X313747Y427419D01*
X313727Y427414D01*
X313707Y427412D01*
X313575Y427370D01*
X313441Y427331D01*
X313424Y427321D01*
X313405Y427314D01*
X313287Y427240D01*
X313167Y427169D01*
X313146Y427151D01*
X313136Y427144D01*
X313122Y427129D01*
X313047Y427063D01*
X311522Y425539D01*
X311462Y425461D01*
X311394Y425388D01*
X311365Y425335D01*
X311328Y425288D01*
X311288Y425197D01*
X311240Y425110D01*
X311225Y425051D01*
X311201Y424996D01*
X311186Y424898D01*
X311161Y424802D01*
X311155Y424702D01*
X311151Y424682D01*
X311153Y424669D01*
X311151Y424641D01*
X311151Y410471D01*
X309365Y408685D01*
X307340Y408685D01*
X307222Y408670D01*
X307103Y408663D01*
X307065Y408650D01*
X307024Y408645D01*
X306914Y408602D01*
X306801Y408565D01*
X306766Y408543D01*
X306729Y408528D01*
X306633Y408459D01*
X306532Y408395D01*
X306504Y408365D01*
X306471Y408342D01*
X306395Y408250D01*
X306314Y408163D01*
X306294Y408128D01*
X306269Y408097D01*
X306218Y407989D01*
X306160Y407885D01*
X306150Y407845D01*
X306133Y407809D01*
X306111Y407692D01*
X306081Y407577D01*
X306077Y407517D01*
X306073Y407497D01*
X306075Y407476D01*
X306071Y407416D01*
X306071Y403217D01*
X306083Y403119D01*
X306086Y403020D01*
X306103Y402961D01*
X306111Y402901D01*
X306147Y402809D01*
X306175Y402714D01*
X306205Y402662D01*
X306228Y402606D01*
X306286Y402525D01*
X306336Y402440D01*
X306402Y402365D01*
X306414Y402348D01*
X306424Y402340D01*
X306442Y402319D01*
X309527Y399235D01*
X311151Y395314D01*
X311151Y391070D01*
X309527Y387149D01*
X306525Y384147D01*
X302604Y382523D01*
X298360Y382523D01*
X294439Y384147D01*
X291437Y387149D01*
X289813Y391070D01*
X289813Y395314D01*
X291437Y399235D01*
X294522Y402319D01*
X294582Y402398D01*
X294650Y402470D01*
X294679Y402523D01*
X294716Y402571D01*
X294756Y402662D01*
X294804Y402748D01*
X294819Y402807D01*
X294843Y402862D01*
X294858Y402960D01*
X294883Y403056D01*
X294889Y403156D01*
X294893Y403177D01*
X294891Y403189D01*
X294893Y403217D01*
X294893Y407416D01*
X294878Y407534D01*
X294871Y407653D01*
X294858Y407691D01*
X294853Y407732D01*
X294810Y407842D01*
X294773Y407955D01*
X294751Y407990D01*
X294736Y408027D01*
X294667Y408123D01*
X294603Y408224D01*
X294573Y408252D01*
X294550Y408285D01*
X294458Y408361D01*
X294371Y408442D01*
X294336Y408462D01*
X294305Y408487D01*
X294197Y408538D01*
X294093Y408596D01*
X294053Y408606D01*
X294017Y408623D01*
X293900Y408645D01*
X293785Y408675D01*
X293725Y408679D01*
X293705Y408683D01*
X293684Y408681D01*
X293624Y408685D01*
X291599Y408685D01*
X289813Y410471D01*
X289813Y428237D01*
X291599Y430023D01*
X299673Y430023D01*
X299772Y430035D01*
X299871Y430038D01*
X299929Y430055D01*
X299989Y430063D01*
X300081Y430099D01*
X300176Y430127D01*
X300228Y430157D01*
X300285Y430180D01*
X300365Y430238D01*
X300450Y430288D01*
X300525Y430354D01*
X300542Y430366D01*
X300550Y430376D01*
X300571Y430394D01*
X318144Y447968D01*
X320198Y448819D01*
X385525Y448819D01*
X385624Y448831D01*
X385723Y448834D01*
X385781Y448851D01*
X385841Y448859D01*
X385933Y448895D01*
X386028Y448923D01*
X386080Y448953D01*
X386137Y448976D01*
X386217Y449034D01*
X386302Y449084D01*
X386377Y449150D01*
X386394Y449162D01*
X386402Y449172D01*
X386423Y449190D01*
X392435Y455203D01*
X392453Y455226D01*
X392476Y455245D01*
X392550Y455351D01*
X392630Y455454D01*
X392642Y455481D01*
X392659Y455505D01*
X392705Y455626D01*
X392756Y455746D01*
X392761Y455775D01*
X392771Y455803D01*
X392786Y455932D01*
X392806Y456060D01*
X392803Y456089D01*
X392807Y456119D01*
X392789Y456247D01*
X392776Y456377D01*
X392766Y456404D01*
X392762Y456434D01*
X392710Y456586D01*
X392429Y457264D01*
X392429Y462216D01*
X394324Y466790D01*
X397826Y470292D01*
X402400Y472187D01*
X407352Y472187D01*
X411926Y470292D01*
X415428Y466790D01*
X416403Y464435D01*
X416472Y464315D01*
X416537Y464192D01*
X416551Y464177D01*
X416561Y464159D01*
X416658Y464059D01*
X416751Y463956D01*
X416768Y463945D01*
X416782Y463931D01*
X416900Y463858D01*
X417017Y463782D01*
X417036Y463775D01*
X417053Y463764D01*
X417186Y463724D01*
X417318Y463678D01*
X417338Y463677D01*
X417357Y463671D01*
X417496Y463664D01*
X417635Y463653D01*
X417655Y463657D01*
X417675Y463656D01*
X417811Y463684D01*
X417948Y463708D01*
X417967Y463716D01*
X417986Y463720D01*
X418111Y463781D01*
X418238Y463838D01*
X418254Y463851D01*
X418272Y463860D01*
X418378Y463950D01*
X418486Y464037D01*
X418499Y464053D01*
X418514Y464066D01*
X418594Y464180D01*
X418678Y464291D01*
X418690Y464316D01*
X418697Y464326D01*
X418704Y464345D01*
X418749Y464435D01*
X419724Y466790D01*
X423225Y470292D01*
X423464Y470391D01*
X423507Y470415D01*
X423554Y470432D01*
X423645Y470494D01*
X423740Y470548D01*
X423776Y470583D01*
X423817Y470611D01*
X423890Y470693D01*
X423969Y470769D01*
X423994Y470812D01*
X424027Y470849D01*
X424077Y470947D01*
X424135Y471041D01*
X424149Y471088D01*
X424172Y471132D01*
X424196Y471239D01*
X424228Y471344D01*
X424231Y471394D01*
X424242Y471443D01*
X424238Y471552D01*
X424244Y471662D01*
X424233Y471711D01*
X424232Y471760D01*
X424201Y471866D01*
X424179Y471974D01*
X424157Y472018D01*
X424144Y472066D01*
X424088Y472161D01*
X424040Y472259D01*
X424007Y472297D01*
X423982Y472340D01*
X423876Y472461D01*
X421729Y474608D01*
X421651Y474668D01*
X421578Y474736D01*
X421525Y474765D01*
X421478Y474802D01*
X421387Y474842D01*
X421300Y474890D01*
X421241Y474905D01*
X421186Y474929D01*
X421088Y474944D01*
X420992Y474969D01*
X420892Y474975D01*
X420872Y474979D01*
X420859Y474977D01*
X420831Y474979D01*
X392223Y474979D01*
X392124Y474967D01*
X392025Y474964D01*
X391967Y474947D01*
X391907Y474939D01*
X391815Y474903D01*
X391720Y474875D01*
X391668Y474845D01*
X391611Y474822D01*
X391531Y474764D01*
X391446Y474714D01*
X391371Y474648D01*
X391354Y474636D01*
X391346Y474626D01*
X391325Y474608D01*
X380356Y463638D01*
X378302Y462787D01*
X308423Y462787D01*
X308394Y462784D01*
X308365Y462786D01*
X308237Y462764D01*
X308108Y462747D01*
X308080Y462737D01*
X308051Y462732D01*
X307933Y462678D01*
X307812Y462630D01*
X307788Y462613D01*
X307761Y462601D01*
X307660Y462520D01*
X307555Y462444D01*
X307536Y462421D01*
X307513Y462402D01*
X307435Y462299D01*
X307352Y462199D01*
X307339Y462172D01*
X307322Y462148D01*
X307251Y462004D01*
X306970Y461325D01*
X303468Y457824D01*
X298894Y455929D01*
X293942Y455929D01*
X289368Y457824D01*
X285866Y461326D01*
X284891Y463681D01*
X284822Y463801D01*
X284757Y463924D01*
X284743Y463939D01*
X284733Y463957D01*
X284636Y464057D01*
X284543Y464160D01*
X284526Y464171D01*
X284512Y464185D01*
X284393Y464258D01*
X284277Y464334D01*
X284258Y464341D01*
X284241Y464352D01*
X284108Y464392D01*
X283976Y464438D01*
X283956Y464439D01*
X283937Y464445D01*
X283798Y464452D01*
X283659Y464463D01*
X283639Y464459D01*
X283619Y464460D01*
X283483Y464432D01*
X283346Y464408D01*
X283327Y464400D01*
X283308Y464396D01*
X283182Y464335D01*
X283056Y464278D01*
X283040Y464265D01*
X283022Y464256D01*
X282916Y464166D01*
X282808Y464079D01*
X282795Y464063D01*
X282780Y464050D01*
X282700Y463936D01*
X282616Y463825D01*
X282604Y463800D01*
X282597Y463790D01*
X282590Y463771D01*
X282545Y463681D01*
X281570Y461326D01*
X278069Y457824D01*
X277390Y457543D01*
X277365Y457529D01*
X277337Y457520D01*
X277227Y457450D01*
X277114Y457386D01*
X277093Y457365D01*
X277068Y457349D01*
X276979Y457255D01*
X276886Y457164D01*
X276870Y457139D01*
X276850Y457118D01*
X276787Y457004D01*
X276719Y456893D01*
X276711Y456865D01*
X276696Y456839D01*
X276664Y456714D01*
X276626Y456589D01*
X276624Y456560D01*
X276617Y456531D01*
X276607Y456371D01*
X276607Y447960D01*
X275756Y445906D01*
X264024Y434174D01*
X261970Y433323D01*
X219757Y433323D01*
X219658Y433311D01*
X219559Y433308D01*
X219501Y433291D01*
X219441Y433283D01*
X219349Y433247D01*
X219254Y433219D01*
X219202Y433189D01*
X219145Y433166D01*
X219065Y433108D01*
X218980Y433058D01*
X218905Y432992D01*
X218888Y432980D01*
X218880Y432970D01*
X218859Y432952D01*
X218097Y432189D01*
X218012Y432080D01*
X217923Y431973D01*
X217915Y431954D01*
X217902Y431938D01*
X217847Y431810D01*
X217788Y431685D01*
X217784Y431665D01*
X217776Y431646D01*
X217754Y431508D01*
X217728Y431372D01*
X217729Y431352D01*
X217726Y431332D01*
X217739Y431193D01*
X217748Y431055D01*
X217754Y431036D01*
X217756Y431016D01*
X217803Y430885D01*
X217846Y430753D01*
X217857Y430735D01*
X217863Y430716D01*
X217941Y430602D01*
X218016Y430484D01*
X218031Y430470D01*
X218042Y430453D01*
X218146Y430361D01*
X218247Y430266D01*
X218265Y430256D01*
X218280Y430243D01*
X218404Y430180D01*
X218526Y430112D01*
X218546Y430107D01*
X218564Y430098D01*
X218700Y430068D01*
X218834Y430033D01*
X218862Y430031D01*
X218874Y430028D01*
X218894Y430029D01*
X218995Y430023D01*
X233165Y430023D01*
X234951Y428237D01*
X234951Y410471D01*
X233165Y408685D01*
X231140Y408685D01*
X231022Y408670D01*
X230903Y408663D01*
X230865Y408650D01*
X230824Y408645D01*
X230714Y408602D01*
X230601Y408565D01*
X230566Y408543D01*
X230529Y408528D01*
X230433Y408459D01*
X230332Y408395D01*
X230304Y408365D01*
X230271Y408342D01*
X230195Y408250D01*
X230114Y408163D01*
X230094Y408128D01*
X230069Y408097D01*
X230018Y407989D01*
X229960Y407885D01*
X229950Y407845D01*
X229933Y407809D01*
X229911Y407692D01*
X229881Y407577D01*
X229877Y407517D01*
X229873Y407497D01*
X229875Y407476D01*
X229871Y407416D01*
X229871Y403217D01*
X229883Y403119D01*
X229886Y403020D01*
X229903Y402961D01*
X229911Y402901D01*
X229947Y402809D01*
X229975Y402714D01*
X230005Y402662D01*
X230028Y402606D01*
X230086Y402526D01*
X230136Y402440D01*
X230202Y402365D01*
X230214Y402348D01*
X230224Y402341D01*
X230242Y402319D01*
X233327Y399235D01*
X234951Y395314D01*
X234951Y391070D01*
X233327Y387149D01*
X230325Y384147D01*
X226404Y382523D01*
X222160Y382523D01*
X218239Y384147D01*
X215237Y387149D01*
X213613Y391070D01*
X213613Y395314D01*
X215237Y399235D01*
X218322Y402319D01*
X218382Y402398D01*
X218450Y402470D01*
X218479Y402523D01*
X218516Y402571D01*
X218556Y402662D01*
X218604Y402748D01*
X218619Y402807D01*
X218643Y402863D01*
X218658Y402960D01*
X218683Y403056D01*
X218689Y403156D01*
X218693Y403177D01*
X218691Y403189D01*
X218693Y403217D01*
X218693Y407416D01*
X218678Y407534D01*
X218671Y407653D01*
X218658Y407691D01*
X218653Y407732D01*
X218610Y407842D01*
X218573Y407955D01*
X218551Y407990D01*
X218536Y408027D01*
X218467Y408123D01*
X218403Y408224D01*
X218373Y408252D01*
X218350Y408285D01*
X218258Y408361D01*
X218171Y408442D01*
X218136Y408462D01*
X218105Y408487D01*
X217997Y408538D01*
X217893Y408596D01*
X217853Y408606D01*
X217817Y408623D01*
X217700Y408645D01*
X217585Y408675D01*
X217525Y408679D01*
X217505Y408683D01*
X217484Y408681D01*
X217424Y408685D01*
X215399Y408685D01*
X213613Y410471D01*
X213613Y424641D01*
X213596Y424779D01*
X213583Y424918D01*
X213576Y424937D01*
X213573Y424957D01*
X213522Y425086D01*
X213475Y425217D01*
X213464Y425234D01*
X213456Y425253D01*
X213375Y425365D01*
X213297Y425480D01*
X213281Y425494D01*
X213270Y425510D01*
X213162Y425599D01*
X213058Y425691D01*
X213040Y425700D01*
X213025Y425713D01*
X212899Y425772D01*
X212775Y425835D01*
X212755Y425840D01*
X212737Y425848D01*
X212601Y425874D01*
X212465Y425905D01*
X212444Y425904D01*
X212425Y425908D01*
X212286Y425899D01*
X212147Y425895D01*
X212127Y425890D01*
X212107Y425888D01*
X211975Y425846D01*
X211841Y425807D01*
X211824Y425797D01*
X211805Y425790D01*
X211687Y425716D01*
X211567Y425645D01*
X211546Y425627D01*
X211536Y425620D01*
X211522Y425605D01*
X211447Y425539D01*
X209922Y424015D01*
X209862Y423937D01*
X209794Y423864D01*
X209765Y423811D01*
X209728Y423764D01*
X209688Y423673D01*
X209640Y423586D01*
X209625Y423527D01*
X209601Y423472D01*
X209586Y423374D01*
X209561Y423278D01*
X209555Y423178D01*
X209551Y423158D01*
X209553Y423145D01*
X209551Y423117D01*
X209551Y410471D01*
X207765Y408685D01*
X205740Y408685D01*
X205622Y408670D01*
X205503Y408663D01*
X205465Y408650D01*
X205424Y408645D01*
X205314Y408602D01*
X205201Y408565D01*
X205166Y408543D01*
X205129Y408528D01*
X205033Y408459D01*
X204932Y408395D01*
X204904Y408365D01*
X204871Y408342D01*
X204795Y408250D01*
X204714Y408163D01*
X204694Y408128D01*
X204669Y408097D01*
X204618Y407989D01*
X204560Y407885D01*
X204550Y407845D01*
X204533Y407809D01*
X204511Y407692D01*
X204481Y407577D01*
X204477Y407517D01*
X204473Y407497D01*
X204475Y407476D01*
X204471Y407416D01*
X204471Y403217D01*
X204483Y403119D01*
X204486Y403020D01*
X204503Y402961D01*
X204511Y402901D01*
X204547Y402809D01*
X204575Y402714D01*
X204605Y402662D01*
X204628Y402606D01*
X204686Y402526D01*
X204736Y402440D01*
X204802Y402365D01*
X204814Y402348D01*
X204824Y402341D01*
X204842Y402319D01*
X207927Y399235D01*
X209551Y395314D01*
X209551Y391070D01*
X207927Y387149D01*
X204925Y384147D01*
X201004Y382523D01*
X196760Y382523D01*
X192839Y384147D01*
X189837Y387149D01*
X188213Y391070D01*
X188213Y395314D01*
X189837Y399235D01*
X192922Y402319D01*
X192982Y402398D01*
X193050Y402470D01*
X193079Y402523D01*
X193116Y402571D01*
X193156Y402662D01*
X193204Y402748D01*
X193219Y402807D01*
X193243Y402863D01*
X193258Y402960D01*
X193283Y403056D01*
X193289Y403156D01*
X193293Y403177D01*
X193291Y403189D01*
X193293Y403217D01*
X193293Y407416D01*
X193278Y407534D01*
X193271Y407653D01*
X193258Y407691D01*
X193253Y407732D01*
X193210Y407842D01*
X193173Y407955D01*
X193151Y407990D01*
X193136Y408027D01*
X193067Y408123D01*
X193003Y408224D01*
X192973Y408252D01*
X192950Y408285D01*
X192858Y408361D01*
X192771Y408442D01*
X192736Y408462D01*
X192705Y408487D01*
X192597Y408538D01*
X192493Y408596D01*
X192453Y408606D01*
X192417Y408623D01*
X192300Y408645D01*
X192185Y408675D01*
X192125Y408679D01*
X192105Y408683D01*
X192084Y408681D01*
X192024Y408685D01*
X189999Y408685D01*
X188213Y410471D01*
X188213Y428237D01*
X189999Y430023D01*
X199597Y430023D01*
X199696Y430035D01*
X199795Y430038D01*
X199853Y430055D01*
X199913Y430063D01*
X200005Y430099D01*
X200100Y430127D01*
X200152Y430157D01*
X200209Y430180D01*
X200289Y430238D01*
X200374Y430288D01*
X200449Y430354D01*
X200466Y430366D01*
X200474Y430376D01*
X200495Y430394D01*
X212000Y441899D01*
X212687Y442586D01*
X212772Y442696D01*
X212861Y442803D01*
X212869Y442822D01*
X212882Y442838D01*
X212937Y442966D01*
X212996Y443091D01*
X213000Y443111D01*
X213008Y443130D01*
X213030Y443268D01*
X213056Y443404D01*
X213055Y443424D01*
X213058Y443444D01*
X213045Y443583D01*
X213036Y443721D01*
X213030Y443740D01*
X213028Y443760D01*
X212981Y443891D01*
X212938Y444023D01*
X212927Y444041D01*
X212921Y444060D01*
X212843Y444174D01*
X212768Y444292D01*
X212753Y444306D01*
X212742Y444323D01*
X212638Y444415D01*
X212537Y444510D01*
X212519Y444520D01*
X212504Y444533D01*
X212380Y444596D01*
X212258Y444664D01*
X212238Y444669D01*
X212220Y444678D01*
X212084Y444708D01*
X211950Y444743D01*
X211922Y444745D01*
X211910Y444748D01*
X211890Y444747D01*
X211789Y444753D01*
X189785Y444753D01*
X189686Y444741D01*
X189587Y444738D01*
X189529Y444721D01*
X189469Y444713D01*
X189377Y444677D01*
X189282Y444649D01*
X189230Y444619D01*
X189173Y444596D01*
X189093Y444538D01*
X189008Y444488D01*
X188933Y444422D01*
X188916Y444410D01*
X188913Y444406D01*
X188911Y444404D01*
X188905Y444397D01*
X188887Y444382D01*
X179442Y434937D01*
X179382Y434859D01*
X179314Y434786D01*
X179285Y434733D01*
X179248Y434686D01*
X179208Y434595D01*
X179160Y434508D01*
X179145Y434449D01*
X179121Y434394D01*
X179106Y434296D01*
X179081Y434200D01*
X179075Y434100D01*
X179071Y434080D01*
X179073Y434067D01*
X179071Y434039D01*
X179071Y431292D01*
X179086Y431174D01*
X179093Y431055D01*
X179106Y431017D01*
X179111Y430976D01*
X179154Y430866D01*
X179191Y430753D01*
X179213Y430718D01*
X179228Y430681D01*
X179297Y430585D01*
X179361Y430484D01*
X179391Y430456D01*
X179414Y430423D01*
X179506Y430347D01*
X179593Y430266D01*
X179628Y430246D01*
X179659Y430221D01*
X179767Y430170D01*
X179871Y430112D01*
X179911Y430102D01*
X179947Y430085D01*
X180064Y430063D01*
X180179Y430033D01*
X180239Y430029D01*
X180259Y430025D01*
X180280Y430027D01*
X180340Y430023D01*
X182365Y430023D01*
X184151Y428237D01*
X184151Y410471D01*
X182365Y408685D01*
X180340Y408685D01*
X180222Y408670D01*
X180103Y408663D01*
X180065Y408650D01*
X180024Y408645D01*
X179914Y408602D01*
X179801Y408565D01*
X179766Y408543D01*
X179729Y408528D01*
X179633Y408459D01*
X179532Y408395D01*
X179504Y408365D01*
X179471Y408342D01*
X179395Y408250D01*
X179314Y408163D01*
X179294Y408128D01*
X179269Y408097D01*
X179218Y407989D01*
X179160Y407885D01*
X179150Y407845D01*
X179133Y407809D01*
X179111Y407692D01*
X179081Y407577D01*
X179077Y407517D01*
X179073Y407497D01*
X179075Y407476D01*
X179071Y407416D01*
X179071Y403217D01*
X179083Y403119D01*
X179086Y403020D01*
X179103Y402961D01*
X179111Y402901D01*
X179147Y402809D01*
X179175Y402714D01*
X179205Y402662D01*
X179228Y402606D01*
X179286Y402526D01*
X179336Y402440D01*
X179402Y402365D01*
X179414Y402348D01*
X179424Y402341D01*
X179442Y402319D01*
X182527Y399235D01*
X184151Y395314D01*
X184151Y391070D01*
X182527Y387149D01*
X179525Y384147D01*
X175604Y382523D01*
X171360Y382523D01*
X167439Y384147D01*
X164437Y387149D01*
X162813Y391070D01*
X162813Y395314D01*
X164437Y399235D01*
X167522Y402319D01*
X167582Y402398D01*
X167650Y402470D01*
X167679Y402523D01*
X167716Y402571D01*
X167756Y402662D01*
X167804Y402748D01*
X167819Y402807D01*
X167843Y402863D01*
X167858Y402960D01*
X167883Y403056D01*
X167889Y403156D01*
X167893Y403177D01*
X167891Y403189D01*
X167893Y403217D01*
X167893Y407416D01*
X167878Y407534D01*
X167871Y407653D01*
X167858Y407691D01*
X167853Y407732D01*
X167810Y407842D01*
X167773Y407955D01*
X167751Y407990D01*
X167736Y408027D01*
X167667Y408123D01*
X167603Y408224D01*
X167573Y408252D01*
X167550Y408285D01*
X167458Y408361D01*
X167371Y408442D01*
X167336Y408462D01*
X167305Y408487D01*
X167197Y408538D01*
X167093Y408596D01*
X167053Y408606D01*
X167017Y408623D01*
X166900Y408645D01*
X166785Y408675D01*
X166725Y408679D01*
X166705Y408683D01*
X166684Y408681D01*
X166624Y408685D01*
X164599Y408685D01*
X162813Y410471D01*
X162813Y428237D01*
X164599Y430023D01*
X166624Y430023D01*
X166742Y430038D01*
X166861Y430045D01*
X166899Y430058D01*
X166940Y430063D01*
X167050Y430106D01*
X167163Y430143D01*
X167198Y430165D01*
X167235Y430180D01*
X167331Y430249D01*
X167432Y430313D01*
X167460Y430343D01*
X167493Y430366D01*
X167569Y430458D01*
X167650Y430545D01*
X167670Y430580D01*
X167695Y430611D01*
X167746Y430719D01*
X167804Y430823D01*
X167814Y430863D01*
X167831Y430899D01*
X167853Y431016D01*
X167883Y431131D01*
X167887Y431191D01*
X167891Y431211D01*
X167889Y431232D01*
X167893Y431292D01*
X167893Y437992D01*
X168744Y440046D01*
X183778Y455080D01*
X185832Y455931D01*
X213130Y455931D01*
X213209Y455941D01*
X213288Y455941D01*
X213366Y455961D01*
X213445Y455971D01*
X213519Y456000D01*
X213596Y456020D01*
X213667Y456058D01*
X213741Y456088D01*
X213805Y456134D01*
X213875Y456173D01*
X213934Y456227D01*
X213998Y456274D01*
X214049Y456336D01*
X214107Y456390D01*
X214150Y456458D01*
X214201Y456519D01*
X214235Y456591D01*
X214278Y456659D01*
X214303Y456735D01*
X214337Y456807D01*
X214352Y456885D01*
X214376Y456961D01*
X214381Y457041D01*
X214396Y457119D01*
X214391Y457199D01*
X214397Y457278D01*
X214382Y457357D01*
X214377Y457437D01*
X214352Y457513D01*
X214337Y457591D01*
X214303Y457663D01*
X214279Y457739D01*
X214236Y457807D01*
X214202Y457879D01*
X214151Y457941D01*
X214108Y458008D01*
X214050Y458063D01*
X214000Y458124D01*
X213878Y458225D01*
X213877Y458226D01*
X213876Y458226D01*
X213876Y458227D01*
X212440Y459270D01*
X211112Y460598D01*
X210007Y462119D01*
X209154Y463793D01*
X208573Y465580D01*
X208533Y465837D01*
X218948Y465837D01*
X219066Y465852D01*
X219185Y465859D01*
X219223Y465872D01*
X219263Y465877D01*
X219374Y465920D01*
X219487Y465957D01*
X219521Y465979D01*
X219559Y465994D01*
X219655Y466064D01*
X219756Y466127D01*
X219784Y466157D01*
X219816Y466180D01*
X219892Y466272D01*
X219974Y466359D01*
X219993Y466394D01*
X220019Y466425D01*
X220070Y466533D01*
X220127Y466637D01*
X220138Y466677D01*
X220155Y466713D01*
X220177Y466830D01*
X220207Y466945D01*
X220211Y467006D01*
X220215Y467026D01*
X220213Y467046D01*
X220217Y467106D01*
X220217Y468377D01*
X221488Y468377D01*
X221606Y468392D01*
X221725Y468399D01*
X221763Y468412D01*
X221803Y468417D01*
X221914Y468461D01*
X222027Y468497D01*
X222062Y468519D01*
X222099Y468534D01*
X222195Y468604D01*
X222296Y468667D01*
X222324Y468697D01*
X222357Y468721D01*
X222432Y468812D01*
X222514Y468899D01*
X222534Y468934D01*
X222559Y468966D01*
X222610Y469073D01*
X222668Y469178D01*
X222678Y469217D01*
X222695Y469253D01*
X222717Y469370D01*
X222747Y469485D01*
X222751Y469546D01*
X222755Y469566D01*
X222753Y469586D01*
X222757Y469646D01*
X222757Y480061D01*
X223014Y480021D01*
X224801Y479440D01*
X226475Y478587D01*
X227996Y477482D01*
X229324Y476154D01*
X230429Y474633D01*
X231282Y472959D01*
X231433Y472494D01*
X231446Y472467D01*
X231453Y472438D01*
X231513Y472324D01*
X231568Y472206D01*
X231587Y472183D01*
X231601Y472157D01*
X231688Y472061D01*
X231771Y471961D01*
X231795Y471944D01*
X231815Y471922D01*
X231924Y471850D01*
X232028Y471774D01*
X232056Y471763D01*
X232081Y471747D01*
X232204Y471705D01*
X232324Y471657D01*
X232354Y471653D01*
X232382Y471644D01*
X232511Y471633D01*
X232639Y471617D01*
X232669Y471621D01*
X232699Y471618D01*
X232827Y471641D01*
X232955Y471657D01*
X232983Y471668D01*
X233012Y471673D01*
X233130Y471726D01*
X233251Y471774D01*
X233275Y471791D01*
X233302Y471803D01*
X233403Y471884D01*
X233508Y471960D01*
X233527Y471983D01*
X233551Y472002D01*
X233629Y472106D01*
X233711Y472205D01*
X233724Y472232D01*
X233742Y472256D01*
X233813Y472401D01*
X235066Y475426D01*
X238568Y478928D01*
X243142Y480823D01*
X248094Y480823D01*
X252668Y478928D01*
X256170Y475426D01*
X257145Y473071D01*
X257214Y472951D01*
X257279Y472828D01*
X257293Y472813D01*
X257303Y472795D01*
X257400Y472695D01*
X257493Y472592D01*
X257510Y472581D01*
X257524Y472567D01*
X257642Y472494D01*
X257759Y472418D01*
X257778Y472411D01*
X257795Y472400D01*
X257928Y472360D01*
X258060Y472314D01*
X258080Y472313D01*
X258099Y472307D01*
X258238Y472300D01*
X258377Y472289D01*
X258397Y472293D01*
X258417Y472292D01*
X258553Y472320D01*
X258690Y472344D01*
X258709Y472352D01*
X258728Y472356D01*
X258853Y472417D01*
X258980Y472474D01*
X258996Y472487D01*
X259014Y472496D01*
X259120Y472586D01*
X259228Y472673D01*
X259241Y472689D01*
X259256Y472702D01*
X259336Y472816D01*
X259420Y472927D01*
X259432Y472952D01*
X259439Y472962D01*
X259446Y472981D01*
X259491Y473071D01*
X260466Y475426D01*
X263968Y478928D01*
X268542Y480823D01*
X273494Y480823D01*
X278068Y478928D01*
X281570Y475426D01*
X282545Y473071D01*
X282614Y472951D01*
X282679Y472828D01*
X282693Y472813D01*
X282703Y472795D01*
X282800Y472695D01*
X282893Y472592D01*
X282910Y472581D01*
X282924Y472567D01*
X283042Y472494D01*
X283159Y472418D01*
X283178Y472411D01*
X283195Y472400D01*
X283328Y472360D01*
X283460Y472314D01*
X283480Y472313D01*
X283499Y472307D01*
X283638Y472300D01*
X283777Y472289D01*
X283797Y472293D01*
X283817Y472292D01*
X283953Y472320D01*
X284090Y472344D01*
X284109Y472352D01*
X284128Y472356D01*
X284253Y472417D01*
X284380Y472474D01*
X284396Y472487D01*
X284414Y472496D01*
X284520Y472586D01*
X284628Y472673D01*
X284641Y472689D01*
X284656Y472702D01*
X284736Y472816D01*
X284820Y472927D01*
X284832Y472952D01*
X284839Y472962D01*
X284846Y472981D01*
X284891Y473071D01*
X285866Y475426D01*
X288610Y478170D01*
X288683Y478264D01*
X288761Y478353D01*
X288780Y478389D01*
X288804Y478421D01*
X288852Y478531D01*
X288906Y478636D01*
X288915Y478676D01*
X288931Y478713D01*
X288949Y478831D01*
X288976Y478947D01*
X288974Y478987D01*
X288981Y479027D01*
X288969Y479146D01*
X288966Y479265D01*
X288955Y479303D01*
X288951Y479344D01*
X288911Y479456D01*
X288877Y479570D01*
X288857Y479605D01*
X288843Y479643D01*
X288776Y479742D01*
X288716Y479844D01*
X288676Y479889D01*
X288665Y479906D01*
X288649Y479920D01*
X288610Y479965D01*
X284823Y483752D01*
X284745Y483812D01*
X284672Y483880D01*
X284619Y483909D01*
X284572Y483946D01*
X284481Y483986D01*
X284394Y484034D01*
X284335Y484049D01*
X284280Y484073D01*
X284182Y484088D01*
X284086Y484113D01*
X283986Y484119D01*
X283966Y484123D01*
X283953Y484121D01*
X283925Y484123D01*
X114601Y484123D01*
X114502Y484111D01*
X114403Y484108D01*
X114345Y484091D01*
X114285Y484083D01*
X114193Y484047D01*
X114098Y484019D01*
X114046Y483989D01*
X113989Y483966D01*
X113909Y483908D01*
X113824Y483858D01*
X113749Y483792D01*
X113732Y483780D01*
X113724Y483770D01*
X113703Y483752D01*
X104051Y474099D01*
X103966Y473990D01*
X103877Y473883D01*
X103869Y473864D01*
X103856Y473848D01*
X103801Y473720D01*
X103742Y473595D01*
X103738Y473575D01*
X103730Y473556D01*
X103708Y473418D01*
X103682Y473282D01*
X103683Y473262D01*
X103680Y473242D01*
X103693Y473103D01*
X103702Y472965D01*
X103708Y472946D01*
X103710Y472926D01*
X103757Y472794D01*
X103800Y472663D01*
X103811Y472645D01*
X103817Y472626D01*
X103895Y472511D01*
X103970Y472394D01*
X103985Y472380D01*
X103996Y472363D01*
X104100Y472271D01*
X104201Y472176D01*
X104219Y472166D01*
X104234Y472153D01*
X104359Y472089D01*
X104480Y472022D01*
X104500Y472017D01*
X104518Y472008D01*
X104653Y471978D01*
X104788Y471943D01*
X104816Y471941D01*
X104828Y471938D01*
X104848Y471939D01*
X104949Y471933D01*
X109410Y471933D01*
X113984Y470038D01*
X117486Y466536D01*
X119381Y461962D01*
X119381Y457010D01*
X119025Y456152D01*
X119018Y456124D01*
X119004Y456098D01*
X118976Y455971D01*
X118941Y455846D01*
X118941Y455816D01*
X118935Y455787D01*
X118938Y455657D01*
X118936Y455528D01*
X118943Y455499D01*
X118944Y455469D01*
X118980Y455345D01*
X119011Y455218D01*
X119024Y455192D01*
X119033Y455164D01*
X119098Y455052D01*
X119159Y454937D01*
X119179Y454915D01*
X119194Y454890D01*
X119301Y454769D01*
X127420Y446650D01*
X128271Y444596D01*
X128271Y431292D01*
X128286Y431174D01*
X128293Y431055D01*
X128306Y431017D01*
X128311Y430976D01*
X128354Y430866D01*
X128391Y430753D01*
X128413Y430718D01*
X128428Y430681D01*
X128497Y430585D01*
X128561Y430484D01*
X128591Y430456D01*
X128614Y430423D01*
X128706Y430347D01*
X128793Y430266D01*
X128828Y430246D01*
X128859Y430221D01*
X128967Y430170D01*
X129071Y430112D01*
X129111Y430102D01*
X129147Y430085D01*
X129264Y430063D01*
X129379Y430033D01*
X129439Y430029D01*
X129459Y430025D01*
X129480Y430027D01*
X129540Y430023D01*
X131565Y430023D01*
X133351Y428237D01*
X133351Y410471D01*
X131565Y408685D01*
X129540Y408685D01*
X129422Y408670D01*
X129303Y408663D01*
X129265Y408650D01*
X129224Y408645D01*
X129114Y408602D01*
X129001Y408565D01*
X128966Y408543D01*
X128929Y408528D01*
X128833Y408459D01*
X128732Y408395D01*
X128704Y408365D01*
X128671Y408342D01*
X128595Y408250D01*
X128514Y408163D01*
X128494Y408128D01*
X128469Y408097D01*
X128418Y407989D01*
X128360Y407885D01*
X128350Y407845D01*
X128333Y407809D01*
X128311Y407692D01*
X128281Y407577D01*
X128277Y407517D01*
X128273Y407497D01*
X128275Y407476D01*
X128271Y407416D01*
X128271Y403217D01*
X128283Y403119D01*
X128286Y403020D01*
X128303Y402961D01*
X128311Y402901D01*
X128347Y402809D01*
X128375Y402714D01*
X128405Y402662D01*
X128428Y402606D01*
X128486Y402526D01*
X128536Y402440D01*
X128602Y402365D01*
X128614Y402348D01*
X128624Y402341D01*
X128642Y402319D01*
X131727Y399235D01*
X133351Y395314D01*
X133351Y391070D01*
X131727Y387149D01*
X128725Y384147D01*
X124804Y382523D01*
X120560Y382523D01*
X116639Y384147D01*
X113637Y387149D01*
X112013Y391070D01*
X112013Y395314D01*
X113637Y399235D01*
X116722Y402319D01*
X116782Y402398D01*
X116850Y402470D01*
X116879Y402523D01*
X116916Y402571D01*
X116956Y402662D01*
X117004Y402748D01*
X117019Y402807D01*
X117043Y402863D01*
X117058Y402960D01*
X117083Y403056D01*
X117089Y403156D01*
X117093Y403177D01*
X117091Y403189D01*
X117093Y403217D01*
X117093Y407416D01*
X117078Y407534D01*
X117071Y407653D01*
X117058Y407691D01*
X117053Y407732D01*
X117010Y407842D01*
X116973Y407955D01*
X116951Y407990D01*
X116936Y408027D01*
X116867Y408123D01*
X116803Y408224D01*
X116773Y408252D01*
X116750Y408285D01*
X116658Y408361D01*
X116571Y408442D01*
X116536Y408462D01*
X116505Y408487D01*
X116397Y408538D01*
X116293Y408596D01*
X116253Y408606D01*
X116217Y408623D01*
X116100Y408645D01*
X115985Y408675D01*
X115925Y408679D01*
X115905Y408683D01*
X115884Y408681D01*
X115824Y408685D01*
X113799Y408685D01*
X112013Y410471D01*
X112013Y428237D01*
X113799Y430023D01*
X115824Y430023D01*
X115942Y430038D01*
X116061Y430045D01*
X116099Y430058D01*
X116140Y430063D01*
X116250Y430106D01*
X116363Y430143D01*
X116398Y430165D01*
X116435Y430180D01*
X116531Y430249D01*
X116632Y430313D01*
X116660Y430343D01*
X116693Y430366D01*
X116769Y430458D01*
X116850Y430545D01*
X116870Y430580D01*
X116895Y430611D01*
X116946Y430719D01*
X117004Y430823D01*
X117014Y430863D01*
X117031Y430899D01*
X117053Y431016D01*
X117083Y431131D01*
X117087Y431191D01*
X117091Y431211D01*
X117089Y431232D01*
X117093Y431292D01*
X117093Y440643D01*
X117081Y440742D01*
X117078Y440841D01*
X117061Y440899D01*
X117053Y440959D01*
X117017Y441051D01*
X116989Y441146D01*
X116959Y441198D01*
X116936Y441255D01*
X116878Y441335D01*
X116828Y441420D01*
X116762Y441495D01*
X116750Y441512D01*
X116740Y441520D01*
X116722Y441541D01*
X111292Y446971D01*
X111268Y446989D01*
X111249Y447011D01*
X111143Y447086D01*
X111040Y447166D01*
X111013Y447177D01*
X110989Y447194D01*
X110868Y447240D01*
X110749Y447292D01*
X110719Y447297D01*
X110692Y447307D01*
X110563Y447321D01*
X110434Y447342D01*
X110405Y447339D01*
X110376Y447342D01*
X110247Y447324D01*
X110118Y447312D01*
X110090Y447302D01*
X110061Y447298D01*
X109908Y447246D01*
X109410Y447039D01*
X104458Y447039D01*
X99884Y448934D01*
X96382Y452436D01*
X95407Y454791D01*
X95338Y454911D01*
X95273Y455034D01*
X95259Y455049D01*
X95249Y455067D01*
X95152Y455167D01*
X95059Y455270D01*
X95042Y455281D01*
X95028Y455295D01*
X94910Y455368D01*
X94793Y455444D01*
X94774Y455451D01*
X94757Y455462D01*
X94624Y455502D01*
X94492Y455548D01*
X94472Y455549D01*
X94453Y455555D01*
X94314Y455562D01*
X94175Y455573D01*
X94155Y455569D01*
X94135Y455570D01*
X93999Y455542D01*
X93862Y455518D01*
X93843Y455510D01*
X93824Y455506D01*
X93699Y455445D01*
X93572Y455388D01*
X93556Y455375D01*
X93538Y455366D01*
X93432Y455276D01*
X93324Y455189D01*
X93311Y455173D01*
X93296Y455160D01*
X93216Y455046D01*
X93132Y454935D01*
X93120Y454910D01*
X93113Y454900D01*
X93106Y454881D01*
X93061Y454791D01*
X92086Y452436D01*
X88584Y448934D01*
X87906Y448653D01*
X87881Y448639D01*
X87853Y448629D01*
X87743Y448560D01*
X87630Y448496D01*
X87609Y448475D01*
X87584Y448459D01*
X87495Y448365D01*
X87402Y448274D01*
X87386Y448249D01*
X87366Y448228D01*
X87303Y448114D01*
X87235Y448003D01*
X87227Y447975D01*
X87212Y447949D01*
X87180Y447823D01*
X87142Y447699D01*
X87140Y447670D01*
X87133Y447641D01*
X87123Y447481D01*
X87123Y445420D01*
X86272Y443366D01*
X76572Y433666D01*
X74518Y432815D01*
X32559Y432815D01*
X32460Y432803D01*
X32361Y432800D01*
X32303Y432783D01*
X32243Y432775D01*
X32151Y432739D01*
X32056Y432711D01*
X32004Y432681D01*
X31947Y432658D01*
X31867Y432600D01*
X31782Y432550D01*
X31707Y432484D01*
X31690Y432472D01*
X31682Y432462D01*
X31661Y432444D01*
X30500Y431282D01*
X30427Y431189D01*
X30348Y431099D01*
X30330Y431063D01*
X30305Y431031D01*
X30258Y430922D01*
X30204Y430816D01*
X30195Y430776D01*
X30179Y430739D01*
X30160Y430621D01*
X30134Y430506D01*
X30135Y430465D01*
X30129Y430425D01*
X30140Y430307D01*
X30144Y430188D01*
X30155Y430149D01*
X30159Y430109D01*
X30199Y429997D01*
X30232Y429882D01*
X30253Y429847D01*
X30266Y429809D01*
X30333Y429711D01*
X30394Y429608D01*
X30433Y429563D01*
X30445Y429546D01*
X30460Y429533D01*
X30500Y429487D01*
X31751Y428237D01*
X31751Y410471D01*
X29965Y408685D01*
X27940Y408685D01*
X27822Y408670D01*
X27703Y408663D01*
X27665Y408650D01*
X27624Y408645D01*
X27514Y408602D01*
X27401Y408565D01*
X27366Y408543D01*
X27329Y408528D01*
X27233Y408459D01*
X27132Y408395D01*
X27104Y408365D01*
X27071Y408342D01*
X26995Y408250D01*
X26914Y408163D01*
X26894Y408128D01*
X26869Y408097D01*
X26818Y407989D01*
X26760Y407885D01*
X26750Y407845D01*
X26733Y407809D01*
X26711Y407692D01*
X26681Y407577D01*
X26677Y407517D01*
X26673Y407497D01*
X26675Y407476D01*
X26671Y407416D01*
X26671Y403217D01*
X26683Y403119D01*
X26686Y403020D01*
X26703Y402961D01*
X26711Y402901D01*
X26747Y402809D01*
X26775Y402714D01*
X26805Y402662D01*
X26828Y402606D01*
X26886Y402526D01*
X26936Y402440D01*
X27002Y402365D01*
X27014Y402348D01*
X27024Y402341D01*
X27042Y402319D01*
X31751Y397611D01*
X31751Y388773D01*
X27042Y384065D01*
X26982Y383986D01*
X26914Y383914D01*
X26885Y383861D01*
X26848Y383813D01*
X26808Y383722D01*
X26760Y383636D01*
X26745Y383577D01*
X26721Y383522D01*
X26706Y383424D01*
X26681Y383328D01*
X26675Y383228D01*
X26671Y383207D01*
X26673Y383195D01*
X26671Y383167D01*
X26671Y373427D01*
X26683Y373328D01*
X26686Y373229D01*
X26703Y373171D01*
X26711Y373111D01*
X26747Y373019D01*
X26775Y372924D01*
X26805Y372872D01*
X26828Y372815D01*
X26886Y372735D01*
X26936Y372650D01*
X27002Y372575D01*
X27014Y372558D01*
X27024Y372550D01*
X27042Y372529D01*
X37757Y361814D01*
X37835Y361754D01*
X37908Y361686D01*
X37961Y361657D01*
X38008Y361620D01*
X38099Y361580D01*
X38186Y361532D01*
X38245Y361517D01*
X38300Y361493D01*
X38398Y361478D01*
X38494Y361453D01*
X38594Y361447D01*
X38614Y361443D01*
X38627Y361445D01*
X38655Y361443D01*
X306420Y361443D01*
X308474Y360592D01*
X501181Y167885D01*
X502032Y165831D01*
X502032Y97313D01*
X501181Y95259D01*
X490084Y84162D01*
X488030Y83311D01*
X485806Y83311D01*
X485426Y83469D01*
X485417Y83471D01*
X485409Y83476D01*
X485265Y83513D01*
X485120Y83553D01*
X485110Y83553D01*
X485101Y83555D01*
X484941Y83565D01*
X307387Y83565D01*
X307288Y83553D01*
X307189Y83550D01*
X307131Y83533D01*
X307071Y83525D01*
X306979Y83489D01*
X306884Y83461D01*
X306832Y83431D01*
X306775Y83408D01*
X306695Y83350D01*
X306610Y83300D01*
X306535Y83234D01*
X306518Y83222D01*
X306510Y83212D01*
X306489Y83194D01*
X298978Y75683D01*
X298948Y75643D01*
X298911Y75610D01*
X298851Y75518D01*
X298783Y75431D01*
X298764Y75386D01*
X298736Y75344D01*
X298701Y75240D01*
X298657Y75140D01*
X298649Y75090D01*
X298633Y75043D01*
X298624Y74934D01*
X298607Y74825D01*
X298612Y74776D01*
X298608Y74726D01*
X298627Y74618D01*
X298637Y74509D01*
X298654Y74462D01*
X298662Y74413D01*
X298707Y74313D01*
X298745Y74210D01*
X298773Y74168D01*
X298793Y74123D01*
X298862Y74037D01*
X298923Y73946D01*
X298960Y73914D01*
X298992Y73875D01*
X299079Y73809D01*
X299162Y73736D01*
X299206Y73713D01*
X299246Y73683D01*
X299390Y73613D01*
X299836Y73428D01*
X303552Y69712D01*
X305496Y65018D01*
X305511Y64992D01*
X305520Y64964D01*
X305590Y64854D01*
X305654Y64742D01*
X305675Y64720D01*
X305691Y64695D01*
X305785Y64606D01*
X305875Y64513D01*
X305900Y64498D01*
X305922Y64477D01*
X306036Y64415D01*
X306146Y64347D01*
X306175Y64338D01*
X306201Y64324D01*
X306326Y64292D01*
X306450Y64253D01*
X306480Y64252D01*
X306509Y64245D01*
X306639Y64245D01*
X306768Y64238D01*
X306797Y64244D01*
X306827Y64244D01*
X306952Y64276D01*
X307079Y64303D01*
X307106Y64316D01*
X307135Y64323D01*
X307248Y64385D01*
X307365Y64442D01*
X307388Y64462D01*
X307414Y64476D01*
X307508Y64564D01*
X307607Y64649D01*
X307624Y64673D01*
X307646Y64694D01*
X307715Y64803D01*
X307790Y64909D01*
X307801Y64937D01*
X307817Y64962D01*
X307876Y65112D01*
X308524Y67105D01*
X309431Y68887D01*
X310606Y70504D01*
X312020Y71918D01*
X313637Y73093D01*
X315419Y74000D01*
X317320Y74618D01*
X317755Y74687D01*
X317755Y63500D01*
X317770Y63382D01*
X317777Y63263D01*
X317790Y63225D01*
X317795Y63185D01*
X317838Y63074D01*
X317875Y62961D01*
X317897Y62927D01*
X317912Y62889D01*
X317982Y62793D01*
X318045Y62692D01*
X318075Y62664D01*
X318098Y62632D01*
X318190Y62556D01*
X318277Y62474D01*
X318312Y62455D01*
X318343Y62429D01*
X318451Y62378D01*
X318555Y62321D01*
X318595Y62310D01*
X318631Y62293D01*
X318748Y62271D01*
X318863Y62241D01*
X318924Y62237D01*
X318944Y62233D01*
X318964Y62235D01*
X319024Y62231D01*
X320295Y62231D01*
X320295Y62229D01*
X319024Y62229D01*
X318906Y62214D01*
X318787Y62207D01*
X318749Y62194D01*
X318708Y62189D01*
X318598Y62145D01*
X318485Y62109D01*
X318450Y62087D01*
X318413Y62072D01*
X318317Y62002D01*
X318216Y61939D01*
X318188Y61909D01*
X318155Y61885D01*
X318080Y61794D01*
X317998Y61707D01*
X317978Y61672D01*
X317953Y61640D01*
X317902Y61533D01*
X317844Y61428D01*
X317834Y61389D01*
X317817Y61353D01*
X317795Y61236D01*
X317765Y61121D01*
X317761Y61060D01*
X317757Y61040D01*
X317759Y61020D01*
X317755Y60960D01*
X317755Y49773D01*
X317320Y49842D01*
X315419Y50460D01*
X313637Y51367D01*
X312020Y52542D01*
X310606Y53956D01*
X309431Y55573D01*
X308524Y57355D01*
X307876Y59348D01*
X307863Y59376D01*
X307856Y59405D01*
X307796Y59519D01*
X307741Y59636D01*
X307722Y59659D01*
X307708Y59686D01*
X307620Y59782D01*
X307538Y59881D01*
X307514Y59899D01*
X307494Y59921D01*
X307386Y59992D01*
X307281Y60068D01*
X307253Y60079D01*
X307228Y60096D01*
X307106Y60138D01*
X306985Y60186D01*
X306955Y60189D01*
X306927Y60199D01*
X306798Y60209D01*
X306670Y60226D01*
X306640Y60222D01*
X306610Y60224D01*
X306482Y60202D01*
X306354Y60186D01*
X306326Y60175D01*
X306297Y60170D01*
X306179Y60117D01*
X306058Y60069D01*
X306034Y60051D01*
X306007Y60039D01*
X305906Y59958D01*
X305801Y59882D01*
X305782Y59859D01*
X305758Y59841D01*
X305680Y59737D01*
X305598Y59637D01*
X305585Y59610D01*
X305567Y59587D01*
X305496Y59442D01*
X303552Y54748D01*
X299836Y51032D01*
X294981Y49021D01*
X289727Y49021D01*
G37*
%LPD*%
%LPC*%
G36*
X290235Y7365D02*
X290235Y7365D01*
X285380Y9376D01*
X281664Y13092D01*
X281099Y14456D01*
X281085Y14481D01*
X281076Y14509D01*
X281006Y14619D01*
X280942Y14732D01*
X280921Y14753D01*
X280905Y14778D01*
X280811Y14867D01*
X280720Y14960D01*
X280695Y14976D01*
X280674Y14996D01*
X280560Y15059D01*
X280449Y15127D01*
X280421Y15135D01*
X280395Y15150D01*
X280270Y15182D01*
X280145Y15220D01*
X280116Y15222D01*
X280087Y15229D01*
X279927Y15239D01*
X275574Y15239D01*
X275544Y15236D01*
X275515Y15238D01*
X275387Y15216D01*
X275258Y15199D01*
X275231Y15189D01*
X275202Y15183D01*
X275083Y15130D01*
X274962Y15082D01*
X274939Y15065D01*
X274912Y15053D01*
X274810Y14972D01*
X274705Y14896D01*
X274686Y14873D01*
X274663Y14854D01*
X274585Y14750D01*
X274502Y14651D01*
X274490Y14624D01*
X274472Y14600D01*
X274401Y14456D01*
X274358Y14353D01*
X271143Y11137D01*
X266942Y9397D01*
X245630Y9397D01*
X241429Y11137D01*
X238213Y14353D01*
X236473Y18554D01*
X236473Y23102D01*
X238213Y27303D01*
X241429Y30519D01*
X245630Y32259D01*
X266942Y32259D01*
X271143Y30519D01*
X274358Y27303D01*
X274401Y27200D01*
X274416Y27175D01*
X274425Y27147D01*
X274494Y27037D01*
X274559Y26924D01*
X274579Y26903D01*
X274595Y26878D01*
X274690Y26789D01*
X274780Y26696D01*
X274805Y26680D01*
X274827Y26660D01*
X274940Y26597D01*
X275051Y26529D01*
X275079Y26521D01*
X275105Y26506D01*
X275231Y26474D01*
X275355Y26436D01*
X275384Y26434D01*
X275413Y26427D01*
X275574Y26417D01*
X280137Y26417D01*
X280166Y26420D01*
X280196Y26418D01*
X280324Y26440D01*
X280453Y26457D01*
X280480Y26467D01*
X280509Y26472D01*
X280628Y26526D01*
X280748Y26574D01*
X280772Y26591D01*
X280799Y26603D01*
X280901Y26684D01*
X281006Y26760D01*
X281024Y26783D01*
X281047Y26802D01*
X281126Y26905D01*
X281208Y27005D01*
X281221Y27032D01*
X281239Y27056D01*
X281310Y27200D01*
X281664Y28056D01*
X285380Y31772D01*
X290235Y33783D01*
X295489Y33783D01*
X296599Y33323D01*
X296628Y33315D01*
X296654Y33302D01*
X296781Y33273D01*
X296906Y33239D01*
X296936Y33239D01*
X296964Y33232D01*
X297094Y33236D01*
X297224Y33234D01*
X297253Y33241D01*
X297282Y33242D01*
X297407Y33278D01*
X297533Y33308D01*
X297559Y33322D01*
X297588Y33330D01*
X297700Y33396D01*
X297814Y33457D01*
X297836Y33477D01*
X297862Y33492D01*
X297982Y33598D01*
X307504Y43119D01*
X309254Y44870D01*
X311308Y45721D01*
X347668Y45721D01*
X347697Y45724D01*
X347727Y45722D01*
X347855Y45744D01*
X347983Y45761D01*
X348011Y45771D01*
X348040Y45776D01*
X348158Y45830D01*
X348279Y45878D01*
X348303Y45895D01*
X348330Y45907D01*
X348431Y45988D01*
X348536Y46064D01*
X348555Y46087D01*
X348578Y46106D01*
X348656Y46209D01*
X348739Y46309D01*
X348752Y46336D01*
X348770Y46360D01*
X348840Y46504D01*
X349323Y47670D01*
X352502Y50849D01*
X356654Y52569D01*
X361150Y52569D01*
X365302Y50849D01*
X368481Y47670D01*
X370201Y43518D01*
X370201Y22522D01*
X368481Y18370D01*
X365302Y15191D01*
X361150Y13471D01*
X356654Y13471D01*
X352502Y15191D01*
X349323Y18370D01*
X347603Y22522D01*
X347603Y33274D01*
X347588Y33392D01*
X347581Y33511D01*
X347568Y33549D01*
X347563Y33590D01*
X347520Y33700D01*
X347483Y33813D01*
X347461Y33848D01*
X347446Y33885D01*
X347377Y33981D01*
X347313Y34082D01*
X347283Y34110D01*
X347260Y34143D01*
X347168Y34219D01*
X347081Y34300D01*
X347046Y34320D01*
X347015Y34345D01*
X346907Y34396D01*
X346803Y34454D01*
X346763Y34464D01*
X346727Y34481D01*
X346610Y34503D01*
X346495Y34533D01*
X346435Y34537D01*
X346415Y34541D01*
X346394Y34539D01*
X346334Y34543D01*
X326648Y34543D01*
X326628Y34541D01*
X326609Y34543D01*
X326471Y34521D01*
X326333Y34503D01*
X326314Y34496D01*
X326295Y34493D01*
X326166Y34438D01*
X326037Y34386D01*
X326021Y34375D01*
X326003Y34367D01*
X325892Y34281D01*
X325780Y34200D01*
X325767Y34184D01*
X325751Y34172D01*
X325666Y34062D01*
X325577Y33955D01*
X325568Y33936D01*
X325556Y33921D01*
X325501Y33793D01*
X325441Y33667D01*
X325438Y33647D01*
X325430Y33629D01*
X325408Y33491D01*
X325382Y33355D01*
X325383Y33335D01*
X325380Y33315D01*
X325393Y33176D01*
X325401Y33037D01*
X325407Y33018D01*
X325409Y32998D01*
X325456Y32867D01*
X325499Y32735D01*
X325510Y32718D01*
X325517Y32699D01*
X325595Y32584D01*
X325670Y32466D01*
X325684Y32452D01*
X325695Y32436D01*
X325799Y32344D01*
X325901Y32248D01*
X325919Y32238D01*
X325934Y32225D01*
X326072Y32143D01*
X327459Y31437D01*
X329076Y30262D01*
X330490Y28848D01*
X331665Y27231D01*
X332572Y25449D01*
X333190Y23548D01*
X333259Y23113D01*
X322072Y23113D01*
X321954Y23098D01*
X321835Y23091D01*
X321797Y23078D01*
X321757Y23073D01*
X321646Y23030D01*
X321533Y22993D01*
X321499Y22971D01*
X321461Y22956D01*
X321365Y22886D01*
X321264Y22823D01*
X321236Y22793D01*
X321204Y22769D01*
X321128Y22678D01*
X321046Y22591D01*
X321027Y22556D01*
X321001Y22525D01*
X320950Y22417D01*
X320893Y22313D01*
X320882Y22273D01*
X320865Y22237D01*
X320843Y22120D01*
X320813Y22005D01*
X320809Y21944D01*
X320805Y21924D01*
X320807Y21904D01*
X320803Y21844D01*
X320803Y20573D01*
X319532Y20573D01*
X319414Y20558D01*
X319295Y20551D01*
X319257Y20538D01*
X319216Y20533D01*
X319106Y20489D01*
X318993Y20453D01*
X318958Y20431D01*
X318921Y20416D01*
X318825Y20346D01*
X318724Y20283D01*
X318696Y20253D01*
X318663Y20229D01*
X318588Y20138D01*
X318506Y20051D01*
X318486Y20016D01*
X318461Y19984D01*
X318410Y19877D01*
X318352Y19772D01*
X318342Y19733D01*
X318325Y19697D01*
X318303Y19580D01*
X318273Y19465D01*
X318269Y19404D01*
X318265Y19384D01*
X318267Y19364D01*
X318263Y19304D01*
X318263Y8117D01*
X317828Y8186D01*
X315927Y8804D01*
X314145Y9711D01*
X312528Y10886D01*
X311114Y12300D01*
X309939Y13917D01*
X309032Y15699D01*
X308384Y17692D01*
X308371Y17720D01*
X308364Y17749D01*
X308304Y17863D01*
X308249Y17980D01*
X308230Y18003D01*
X308216Y18030D01*
X308128Y18126D01*
X308046Y18225D01*
X308022Y18243D01*
X308002Y18265D01*
X307894Y18336D01*
X307789Y18412D01*
X307761Y18423D01*
X307736Y18440D01*
X307614Y18482D01*
X307493Y18530D01*
X307463Y18533D01*
X307435Y18543D01*
X307306Y18553D01*
X307178Y18570D01*
X307148Y18566D01*
X307118Y18568D01*
X306990Y18546D01*
X306862Y18530D01*
X306834Y18519D01*
X306805Y18514D01*
X306687Y18461D01*
X306566Y18413D01*
X306542Y18395D01*
X306515Y18383D01*
X306414Y18302D01*
X306309Y18226D01*
X306290Y18203D01*
X306266Y18185D01*
X306188Y18081D01*
X306106Y17981D01*
X306093Y17954D01*
X306075Y17931D01*
X306004Y17786D01*
X304060Y13092D01*
X300344Y9376D01*
X295489Y7365D01*
X290235Y7365D01*
G37*
%LPD*%
%LPC*%
G36*
X445580Y8635D02*
X445580Y8635D01*
X441006Y10530D01*
X437504Y14031D01*
X437223Y14710D01*
X437209Y14735D01*
X437200Y14763D01*
X437130Y14873D01*
X437066Y14986D01*
X437045Y15007D01*
X437029Y15032D01*
X436935Y15121D01*
X436844Y15214D01*
X436819Y15230D01*
X436798Y15250D01*
X436684Y15313D01*
X436573Y15381D01*
X436545Y15389D01*
X436519Y15404D01*
X436394Y15436D01*
X436269Y15474D01*
X436240Y15476D01*
X436211Y15483D01*
X436051Y15493D01*
X420528Y15493D01*
X418396Y16377D01*
X418367Y16384D01*
X418341Y16398D01*
X418214Y16426D01*
X418089Y16461D01*
X418059Y16461D01*
X418030Y16468D01*
X417901Y16464D01*
X417771Y16466D01*
X417742Y16459D01*
X417713Y16458D01*
X417588Y16422D01*
X417462Y16392D01*
X417435Y16378D01*
X417407Y16369D01*
X417295Y16303D01*
X417180Y16243D01*
X417159Y16223D01*
X417133Y16208D01*
X417012Y16102D01*
X416102Y15191D01*
X411950Y13471D01*
X407454Y13471D01*
X403302Y15191D01*
X400123Y18370D01*
X398403Y22522D01*
X398403Y26162D01*
X398388Y26280D01*
X398381Y26399D01*
X398368Y26437D01*
X398363Y26478D01*
X398320Y26588D01*
X398283Y26701D01*
X398261Y26736D01*
X398246Y26773D01*
X398177Y26869D01*
X398113Y26970D01*
X398083Y26998D01*
X398060Y27031D01*
X397968Y27107D01*
X397881Y27188D01*
X397846Y27208D01*
X397815Y27233D01*
X397707Y27284D01*
X397603Y27342D01*
X397563Y27352D01*
X397527Y27369D01*
X397410Y27391D01*
X397295Y27421D01*
X397235Y27425D01*
X397215Y27429D01*
X397194Y27427D01*
X397134Y27431D01*
X396870Y27431D01*
X396752Y27416D01*
X396633Y27409D01*
X396595Y27396D01*
X396554Y27391D01*
X396444Y27348D01*
X396331Y27311D01*
X396296Y27289D01*
X396259Y27274D01*
X396163Y27205D01*
X396062Y27141D01*
X396034Y27111D01*
X396001Y27088D01*
X395925Y26996D01*
X395844Y26909D01*
X395824Y26874D01*
X395799Y26843D01*
X395748Y26735D01*
X395690Y26631D01*
X395680Y26591D01*
X395663Y26555D01*
X395641Y26438D01*
X395611Y26323D01*
X395607Y26263D01*
X395603Y26243D01*
X395605Y26222D01*
X395601Y26162D01*
X395601Y22522D01*
X393881Y18370D01*
X390702Y15191D01*
X386550Y13471D01*
X382054Y13471D01*
X377902Y15191D01*
X374723Y18370D01*
X373003Y22522D01*
X373003Y43518D01*
X374723Y47670D01*
X377902Y50849D01*
X382054Y52569D01*
X386550Y52569D01*
X390702Y50849D01*
X393881Y47670D01*
X395601Y43518D01*
X395601Y39878D01*
X395616Y39760D01*
X395623Y39641D01*
X395636Y39603D01*
X395641Y39562D01*
X395684Y39452D01*
X395721Y39339D01*
X395743Y39304D01*
X395758Y39267D01*
X395827Y39171D01*
X395891Y39070D01*
X395921Y39042D01*
X395944Y39009D01*
X396036Y38933D01*
X396123Y38852D01*
X396158Y38832D01*
X396189Y38807D01*
X396297Y38756D01*
X396401Y38698D01*
X396441Y38688D01*
X396477Y38671D01*
X396594Y38649D01*
X396709Y38619D01*
X396769Y38615D01*
X396789Y38611D01*
X396810Y38613D01*
X396870Y38609D01*
X397134Y38609D01*
X397252Y38624D01*
X397371Y38631D01*
X397409Y38644D01*
X397450Y38649D01*
X397560Y38692D01*
X397673Y38729D01*
X397708Y38751D01*
X397745Y38766D01*
X397841Y38835D01*
X397942Y38899D01*
X397970Y38929D01*
X398003Y38952D01*
X398079Y39044D01*
X398160Y39131D01*
X398180Y39166D01*
X398205Y39197D01*
X398256Y39305D01*
X398314Y39409D01*
X398324Y39449D01*
X398341Y39485D01*
X398363Y39602D01*
X398393Y39717D01*
X398397Y39777D01*
X398401Y39797D01*
X398399Y39818D01*
X398403Y39878D01*
X398403Y43518D01*
X400123Y47670D01*
X403302Y50849D01*
X407454Y52569D01*
X411950Y52569D01*
X416102Y50849D01*
X419281Y47670D01*
X421001Y43518D01*
X421001Y30151D01*
X421013Y30052D01*
X421016Y29953D01*
X421033Y29895D01*
X421041Y29835D01*
X421077Y29743D01*
X421105Y29648D01*
X421135Y29596D01*
X421158Y29539D01*
X421216Y29459D01*
X421266Y29374D01*
X421332Y29299D01*
X421344Y29282D01*
X421354Y29274D01*
X421372Y29253D01*
X423583Y27042D01*
X423661Y26982D01*
X423734Y26914D01*
X423787Y26885D01*
X423834Y26848D01*
X423925Y26808D01*
X424012Y26760D01*
X424071Y26745D01*
X424126Y26721D01*
X424224Y26706D01*
X424320Y26681D01*
X424420Y26675D01*
X424440Y26671D01*
X424453Y26673D01*
X424481Y26671D01*
X436051Y26671D01*
X436080Y26674D01*
X436109Y26672D01*
X436237Y26694D01*
X436366Y26711D01*
X436394Y26721D01*
X436423Y26726D01*
X436541Y26780D01*
X436662Y26828D01*
X436686Y26845D01*
X436713Y26857D01*
X436814Y26938D01*
X436919Y27014D01*
X436938Y27037D01*
X436961Y27056D01*
X437039Y27159D01*
X437122Y27259D01*
X437135Y27286D01*
X437152Y27310D01*
X437223Y27454D01*
X437504Y28133D01*
X441006Y31634D01*
X444031Y32887D01*
X444057Y32902D01*
X444086Y32911D01*
X444195Y32981D01*
X444308Y33045D01*
X444329Y33066D01*
X444354Y33082D01*
X444443Y33176D01*
X444536Y33266D01*
X444552Y33292D01*
X444572Y33313D01*
X444635Y33427D01*
X444702Y33537D01*
X444711Y33566D01*
X444725Y33592D01*
X444758Y33717D01*
X444796Y33841D01*
X444797Y33871D01*
X444805Y33900D01*
X444805Y34030D01*
X444811Y34159D01*
X444805Y34188D01*
X444805Y34218D01*
X444773Y34343D01*
X444747Y34470D01*
X444734Y34497D01*
X444726Y34526D01*
X444664Y34639D01*
X444607Y34756D01*
X444588Y34779D01*
X444573Y34805D01*
X444485Y34899D01*
X444401Y34998D01*
X444376Y35015D01*
X444356Y35037D01*
X444247Y35106D01*
X444141Y35181D01*
X444113Y35192D01*
X444087Y35208D01*
X443938Y35267D01*
X443473Y35418D01*
X441799Y36271D01*
X440278Y37376D01*
X438950Y38704D01*
X437845Y40225D01*
X436992Y41899D01*
X436411Y43686D01*
X436371Y43943D01*
X446786Y43943D01*
X446904Y43958D01*
X447023Y43965D01*
X447061Y43978D01*
X447101Y43983D01*
X447212Y44026D01*
X447325Y44063D01*
X447359Y44085D01*
X447397Y44100D01*
X447493Y44170D01*
X447594Y44233D01*
X447622Y44263D01*
X447654Y44286D01*
X447730Y44378D01*
X447812Y44465D01*
X447831Y44500D01*
X447857Y44531D01*
X447908Y44639D01*
X447965Y44743D01*
X447976Y44783D01*
X447993Y44819D01*
X448015Y44936D01*
X448045Y45051D01*
X448049Y45112D01*
X448053Y45132D01*
X448051Y45152D01*
X448055Y45212D01*
X448055Y46483D01*
X448057Y46483D01*
X448057Y45212D01*
X448072Y45094D01*
X448079Y44975D01*
X448092Y44937D01*
X448097Y44896D01*
X448141Y44786D01*
X448177Y44673D01*
X448199Y44638D01*
X448214Y44601D01*
X448284Y44505D01*
X448347Y44404D01*
X448377Y44376D01*
X448401Y44343D01*
X448492Y44268D01*
X448579Y44186D01*
X448614Y44166D01*
X448646Y44141D01*
X448753Y44090D01*
X448858Y44032D01*
X448897Y44022D01*
X448933Y44005D01*
X449050Y43983D01*
X449165Y43953D01*
X449226Y43949D01*
X449246Y43945D01*
X449266Y43947D01*
X449326Y43943D01*
X459741Y43943D01*
X459701Y43686D01*
X459120Y41899D01*
X458267Y40225D01*
X457162Y38704D01*
X455834Y37376D01*
X454313Y36271D01*
X452639Y35418D01*
X452174Y35267D01*
X452147Y35254D01*
X452118Y35247D01*
X452004Y35187D01*
X451886Y35132D01*
X451863Y35113D01*
X451837Y35099D01*
X451741Y35012D01*
X451641Y34929D01*
X451624Y34905D01*
X451602Y34885D01*
X451530Y34776D01*
X451454Y34672D01*
X451443Y34644D01*
X451427Y34619D01*
X451385Y34496D01*
X451337Y34376D01*
X451333Y34346D01*
X451324Y34318D01*
X451313Y34189D01*
X451297Y34061D01*
X451301Y34031D01*
X451298Y34001D01*
X451321Y33873D01*
X451337Y33745D01*
X451348Y33717D01*
X451353Y33688D01*
X451406Y33570D01*
X451454Y33449D01*
X451471Y33425D01*
X451483Y33398D01*
X451564Y33297D01*
X451640Y33192D01*
X451663Y33173D01*
X451682Y33149D01*
X451786Y33071D01*
X451885Y32989D01*
X451912Y32976D01*
X451936Y32958D01*
X452081Y32887D01*
X455106Y31634D01*
X458608Y28132D01*
X460503Y23558D01*
X460503Y18606D01*
X458608Y14032D01*
X455106Y10530D01*
X450532Y8635D01*
X445580Y8635D01*
G37*
%LPD*%
%LPC*%
G36*
X478836Y463676D02*
X478836Y463676D01*
X471881Y466557D01*
X466557Y471881D01*
X463676Y478836D01*
X463676Y486364D01*
X466557Y493319D01*
X471881Y498643D01*
X478836Y501524D01*
X486364Y501524D01*
X493319Y498643D01*
X498643Y493319D01*
X501524Y486364D01*
X501524Y478836D01*
X498643Y471881D01*
X493319Y466557D01*
X486364Y463676D01*
X478836Y463676D01*
G37*
%LPD*%
%LPC*%
G36*
X21636Y463676D02*
X21636Y463676D01*
X14681Y466557D01*
X9357Y471881D01*
X6476Y478836D01*
X6476Y486364D01*
X9357Y493319D01*
X14681Y498643D01*
X21636Y501524D01*
X29164Y501524D01*
X36119Y498643D01*
X41443Y493319D01*
X44324Y486364D01*
X44324Y478836D01*
X41443Y471881D01*
X36119Y466557D01*
X29164Y463676D01*
X21636Y463676D01*
G37*
%LPD*%
%LPC*%
G36*
X21636Y6476D02*
X21636Y6476D01*
X14681Y9357D01*
X9357Y14681D01*
X6476Y21636D01*
X6476Y29164D01*
X9357Y36119D01*
X14681Y41443D01*
X21636Y44324D01*
X29164Y44324D01*
X36119Y41443D01*
X41443Y36119D01*
X44324Y29164D01*
X44324Y21636D01*
X41443Y14681D01*
X36119Y9357D01*
X29164Y6476D01*
X21636Y6476D01*
G37*
%LPD*%
%LPC*%
G36*
X478836Y6476D02*
X478836Y6476D01*
X471881Y9357D01*
X466557Y14681D01*
X463676Y21636D01*
X463676Y29164D01*
X466557Y36119D01*
X471881Y41443D01*
X478836Y44324D01*
X486364Y44324D01*
X493319Y41443D01*
X498643Y36119D01*
X501524Y29164D01*
X501524Y21636D01*
X498643Y14681D01*
X493319Y9357D01*
X486364Y6476D01*
X478836Y6476D01*
G37*
%LPD*%
%LPC*%
G36*
X316745Y103631D02*
X316745Y103631D01*
X314959Y105417D01*
X314959Y123183D01*
X316745Y124969D01*
X318770Y124969D01*
X318888Y124984D01*
X319007Y124991D01*
X319045Y125004D01*
X319086Y125009D01*
X319196Y125052D01*
X319309Y125089D01*
X319344Y125111D01*
X319381Y125126D01*
X319477Y125195D01*
X319578Y125259D01*
X319606Y125289D01*
X319639Y125312D01*
X319715Y125404D01*
X319796Y125491D01*
X319816Y125526D01*
X319841Y125557D01*
X319892Y125665D01*
X319950Y125769D01*
X319960Y125809D01*
X319977Y125845D01*
X319999Y125962D01*
X320029Y126077D01*
X320033Y126137D01*
X320037Y126157D01*
X320035Y126178D01*
X320039Y126238D01*
X320039Y127254D01*
X320024Y127372D01*
X320017Y127491D01*
X320004Y127529D01*
X319999Y127570D01*
X319956Y127680D01*
X319919Y127793D01*
X319897Y127828D01*
X319882Y127865D01*
X319813Y127961D01*
X319749Y128062D01*
X319719Y128090D01*
X319696Y128123D01*
X319604Y128199D01*
X319517Y128280D01*
X319482Y128300D01*
X319451Y128325D01*
X319343Y128376D01*
X319239Y128434D01*
X319199Y128444D01*
X319163Y128461D01*
X319046Y128483D01*
X318931Y128513D01*
X318871Y128517D01*
X318851Y128521D01*
X318830Y128519D01*
X318770Y128523D01*
X316999Y128523D01*
X315213Y130309D01*
X315213Y148075D01*
X316999Y149861D01*
X334765Y149861D01*
X336551Y148075D01*
X336551Y130309D01*
X334765Y128523D01*
X332486Y128523D01*
X332368Y128508D01*
X332249Y128501D01*
X332211Y128488D01*
X332170Y128483D01*
X332060Y128440D01*
X331947Y128403D01*
X331912Y128381D01*
X331875Y128366D01*
X331779Y128297D01*
X331678Y128233D01*
X331650Y128203D01*
X331617Y128180D01*
X331541Y128088D01*
X331460Y128001D01*
X331440Y127966D01*
X331415Y127935D01*
X331364Y127827D01*
X331306Y127723D01*
X331296Y127683D01*
X331279Y127647D01*
X331257Y127530D01*
X331227Y127415D01*
X331223Y127355D01*
X331219Y127335D01*
X331221Y127314D01*
X331217Y127254D01*
X331217Y126238D01*
X331232Y126120D01*
X331239Y126001D01*
X331252Y125963D01*
X331257Y125922D01*
X331300Y125812D01*
X331337Y125699D01*
X331359Y125664D01*
X331374Y125627D01*
X331443Y125531D01*
X331507Y125430D01*
X331537Y125402D01*
X331560Y125369D01*
X331652Y125293D01*
X331739Y125212D01*
X331774Y125192D01*
X331805Y125167D01*
X331913Y125116D01*
X332017Y125058D01*
X332057Y125048D01*
X332093Y125031D01*
X332210Y125009D01*
X332325Y124979D01*
X332385Y124975D01*
X332405Y124971D01*
X332426Y124973D01*
X332486Y124969D01*
X334511Y124969D01*
X336297Y123183D01*
X336297Y105417D01*
X334511Y103631D01*
X316745Y103631D01*
G37*
%LPD*%
%LPC*%
G36*
X473863Y382523D02*
X473863Y382523D01*
X467613Y388773D01*
X467613Y397611D01*
X472322Y402319D01*
X472382Y402398D01*
X472450Y402470D01*
X472479Y402523D01*
X472516Y402571D01*
X472556Y402662D01*
X472604Y402748D01*
X472619Y402807D01*
X472643Y402862D01*
X472658Y402960D01*
X472683Y403056D01*
X472689Y403156D01*
X472693Y403177D01*
X472691Y403189D01*
X472693Y403217D01*
X472693Y407416D01*
X472678Y407534D01*
X472671Y407653D01*
X472658Y407691D01*
X472653Y407732D01*
X472610Y407842D01*
X472573Y407955D01*
X472551Y407990D01*
X472536Y408027D01*
X472467Y408123D01*
X472403Y408224D01*
X472373Y408252D01*
X472350Y408285D01*
X472258Y408361D01*
X472171Y408442D01*
X472136Y408462D01*
X472105Y408487D01*
X471997Y408538D01*
X471893Y408596D01*
X471853Y408606D01*
X471817Y408623D01*
X471700Y408645D01*
X471585Y408675D01*
X471525Y408679D01*
X471505Y408683D01*
X471484Y408681D01*
X471424Y408685D01*
X469399Y408685D01*
X467613Y410471D01*
X467613Y428237D01*
X469399Y430023D01*
X487165Y430023D01*
X488951Y428237D01*
X488951Y410471D01*
X487165Y408685D01*
X485140Y408685D01*
X485022Y408670D01*
X484903Y408663D01*
X484865Y408650D01*
X484824Y408645D01*
X484714Y408602D01*
X484601Y408565D01*
X484566Y408543D01*
X484529Y408528D01*
X484433Y408459D01*
X484332Y408395D01*
X484304Y408365D01*
X484271Y408342D01*
X484195Y408250D01*
X484114Y408163D01*
X484094Y408128D01*
X484069Y408097D01*
X484018Y407989D01*
X483960Y407885D01*
X483950Y407845D01*
X483933Y407809D01*
X483911Y407692D01*
X483881Y407577D01*
X483877Y407517D01*
X483873Y407497D01*
X483875Y407476D01*
X483871Y407416D01*
X483871Y403217D01*
X483883Y403119D01*
X483886Y403020D01*
X483903Y402961D01*
X483911Y402901D01*
X483947Y402809D01*
X483975Y402714D01*
X484005Y402662D01*
X484028Y402606D01*
X484086Y402525D01*
X484136Y402440D01*
X484202Y402365D01*
X484214Y402348D01*
X484224Y402340D01*
X484242Y402319D01*
X488951Y397611D01*
X488951Y388773D01*
X482701Y382523D01*
X473863Y382523D01*
G37*
%LPD*%
%LPC*%
G36*
X69760Y382523D02*
X69760Y382523D01*
X65839Y384147D01*
X62837Y387149D01*
X61213Y391070D01*
X61213Y395314D01*
X62837Y399235D01*
X65922Y402319D01*
X65982Y402398D01*
X66050Y402470D01*
X66079Y402523D01*
X66116Y402571D01*
X66156Y402662D01*
X66204Y402748D01*
X66219Y402807D01*
X66243Y402863D01*
X66258Y402960D01*
X66283Y403056D01*
X66289Y403156D01*
X66293Y403177D01*
X66291Y403189D01*
X66293Y403217D01*
X66293Y407416D01*
X66278Y407534D01*
X66271Y407653D01*
X66258Y407691D01*
X66253Y407732D01*
X66210Y407842D01*
X66173Y407955D01*
X66151Y407990D01*
X66136Y408027D01*
X66067Y408123D01*
X66003Y408224D01*
X65973Y408252D01*
X65950Y408285D01*
X65858Y408361D01*
X65771Y408442D01*
X65736Y408462D01*
X65705Y408487D01*
X65597Y408538D01*
X65493Y408596D01*
X65453Y408606D01*
X65417Y408623D01*
X65300Y408645D01*
X65185Y408675D01*
X65125Y408679D01*
X65105Y408683D01*
X65084Y408681D01*
X65024Y408685D01*
X62999Y408685D01*
X61213Y410471D01*
X61213Y428237D01*
X62999Y430023D01*
X80765Y430023D01*
X82551Y428237D01*
X82551Y410471D01*
X80765Y408685D01*
X78740Y408685D01*
X78622Y408670D01*
X78503Y408663D01*
X78465Y408650D01*
X78424Y408645D01*
X78314Y408602D01*
X78201Y408565D01*
X78166Y408543D01*
X78129Y408528D01*
X78033Y408459D01*
X77932Y408395D01*
X77904Y408365D01*
X77871Y408342D01*
X77795Y408250D01*
X77714Y408163D01*
X77694Y408128D01*
X77669Y408097D01*
X77618Y407989D01*
X77560Y407885D01*
X77550Y407845D01*
X77533Y407809D01*
X77511Y407692D01*
X77481Y407577D01*
X77477Y407517D01*
X77473Y407497D01*
X77475Y407476D01*
X77471Y407416D01*
X77471Y403217D01*
X77483Y403119D01*
X77486Y403020D01*
X77503Y402961D01*
X77511Y402901D01*
X77547Y402809D01*
X77575Y402714D01*
X77605Y402662D01*
X77628Y402606D01*
X77686Y402526D01*
X77736Y402440D01*
X77802Y402365D01*
X77814Y402348D01*
X77824Y402341D01*
X77842Y402319D01*
X80927Y399235D01*
X82551Y395314D01*
X82551Y391070D01*
X80927Y387149D01*
X77925Y384147D01*
X74004Y382523D01*
X69760Y382523D01*
G37*
%LPD*%
%LPC*%
G36*
X44360Y382523D02*
X44360Y382523D01*
X40439Y384147D01*
X37437Y387149D01*
X35813Y391070D01*
X35813Y395314D01*
X37437Y399235D01*
X40522Y402319D01*
X40582Y402398D01*
X40650Y402470D01*
X40679Y402523D01*
X40716Y402571D01*
X40756Y402662D01*
X40804Y402748D01*
X40819Y402807D01*
X40843Y402863D01*
X40858Y402960D01*
X40883Y403056D01*
X40889Y403156D01*
X40893Y403177D01*
X40891Y403189D01*
X40893Y403217D01*
X40893Y407416D01*
X40878Y407534D01*
X40871Y407653D01*
X40858Y407691D01*
X40853Y407732D01*
X40810Y407842D01*
X40773Y407955D01*
X40751Y407990D01*
X40736Y408027D01*
X40667Y408123D01*
X40603Y408224D01*
X40573Y408252D01*
X40550Y408285D01*
X40458Y408361D01*
X40371Y408442D01*
X40336Y408462D01*
X40305Y408487D01*
X40197Y408538D01*
X40093Y408596D01*
X40053Y408606D01*
X40017Y408623D01*
X39900Y408645D01*
X39785Y408675D01*
X39725Y408679D01*
X39705Y408683D01*
X39684Y408681D01*
X39624Y408685D01*
X37599Y408685D01*
X35813Y410471D01*
X35813Y428237D01*
X37599Y430023D01*
X55365Y430023D01*
X57151Y428237D01*
X57151Y410471D01*
X55365Y408685D01*
X53340Y408685D01*
X53222Y408670D01*
X53103Y408663D01*
X53065Y408650D01*
X53024Y408645D01*
X52914Y408602D01*
X52801Y408565D01*
X52766Y408543D01*
X52729Y408528D01*
X52633Y408459D01*
X52532Y408395D01*
X52504Y408365D01*
X52471Y408342D01*
X52395Y408250D01*
X52314Y408163D01*
X52294Y408128D01*
X52269Y408097D01*
X52218Y407989D01*
X52160Y407885D01*
X52150Y407845D01*
X52133Y407809D01*
X52111Y407692D01*
X52081Y407577D01*
X52077Y407517D01*
X52073Y407497D01*
X52075Y407476D01*
X52071Y407416D01*
X52071Y403217D01*
X52083Y403119D01*
X52086Y403020D01*
X52103Y402961D01*
X52111Y402901D01*
X52147Y402809D01*
X52175Y402714D01*
X52205Y402662D01*
X52228Y402606D01*
X52286Y402526D01*
X52336Y402440D01*
X52402Y402365D01*
X52414Y402348D01*
X52424Y402341D01*
X52442Y402319D01*
X55527Y399235D01*
X57151Y395314D01*
X57151Y391070D01*
X55527Y387149D01*
X52525Y384147D01*
X48604Y382523D01*
X44360Y382523D01*
G37*
%LPD*%
%LPC*%
G36*
X272960Y382523D02*
X272960Y382523D01*
X269039Y384147D01*
X266037Y387149D01*
X264413Y391070D01*
X264413Y395314D01*
X266037Y399235D01*
X269122Y402319D01*
X269182Y402398D01*
X269250Y402470D01*
X269279Y402523D01*
X269316Y402571D01*
X269356Y402662D01*
X269404Y402748D01*
X269419Y402807D01*
X269443Y402863D01*
X269458Y402960D01*
X269483Y403056D01*
X269489Y403156D01*
X269493Y403177D01*
X269491Y403189D01*
X269493Y403217D01*
X269493Y407416D01*
X269478Y407534D01*
X269471Y407653D01*
X269458Y407691D01*
X269453Y407732D01*
X269410Y407842D01*
X269373Y407955D01*
X269351Y407990D01*
X269336Y408027D01*
X269267Y408123D01*
X269203Y408224D01*
X269173Y408252D01*
X269150Y408285D01*
X269058Y408361D01*
X268971Y408442D01*
X268936Y408462D01*
X268905Y408487D01*
X268797Y408538D01*
X268693Y408596D01*
X268653Y408606D01*
X268617Y408623D01*
X268500Y408645D01*
X268385Y408675D01*
X268325Y408679D01*
X268305Y408683D01*
X268284Y408681D01*
X268224Y408685D01*
X266199Y408685D01*
X264413Y410471D01*
X264413Y428237D01*
X266199Y430023D01*
X283965Y430023D01*
X285751Y428237D01*
X285751Y410471D01*
X283965Y408685D01*
X281940Y408685D01*
X281822Y408670D01*
X281703Y408663D01*
X281665Y408650D01*
X281624Y408645D01*
X281514Y408602D01*
X281401Y408565D01*
X281366Y408543D01*
X281329Y408528D01*
X281233Y408459D01*
X281132Y408395D01*
X281104Y408365D01*
X281071Y408342D01*
X280995Y408250D01*
X280914Y408163D01*
X280894Y408128D01*
X280869Y408097D01*
X280818Y407989D01*
X280760Y407885D01*
X280750Y407845D01*
X280733Y407809D01*
X280711Y407692D01*
X280681Y407577D01*
X280677Y407517D01*
X280673Y407497D01*
X280675Y407476D01*
X280671Y407416D01*
X280671Y403217D01*
X280683Y403119D01*
X280686Y403020D01*
X280703Y402961D01*
X280711Y402901D01*
X280747Y402809D01*
X280775Y402714D01*
X280805Y402662D01*
X280828Y402606D01*
X280886Y402526D01*
X280936Y402440D01*
X281002Y402365D01*
X281014Y402348D01*
X281024Y402341D01*
X281042Y402319D01*
X284127Y399235D01*
X285751Y395314D01*
X285751Y391070D01*
X284127Y387149D01*
X281125Y384147D01*
X277204Y382523D01*
X272960Y382523D01*
G37*
%LPD*%
%LPC*%
G36*
X247560Y382523D02*
X247560Y382523D01*
X243639Y384147D01*
X240637Y387149D01*
X239013Y391070D01*
X239013Y395314D01*
X240637Y399235D01*
X243722Y402319D01*
X243782Y402398D01*
X243850Y402470D01*
X243879Y402523D01*
X243916Y402571D01*
X243956Y402662D01*
X244004Y402748D01*
X244019Y402807D01*
X244043Y402863D01*
X244058Y402960D01*
X244083Y403056D01*
X244089Y403156D01*
X244093Y403177D01*
X244091Y403189D01*
X244093Y403217D01*
X244093Y407416D01*
X244078Y407534D01*
X244071Y407653D01*
X244058Y407691D01*
X244053Y407732D01*
X244010Y407842D01*
X243973Y407955D01*
X243951Y407990D01*
X243936Y408027D01*
X243867Y408123D01*
X243803Y408224D01*
X243773Y408252D01*
X243750Y408285D01*
X243658Y408361D01*
X243571Y408442D01*
X243536Y408462D01*
X243505Y408487D01*
X243397Y408538D01*
X243293Y408596D01*
X243253Y408606D01*
X243217Y408623D01*
X243100Y408645D01*
X242985Y408675D01*
X242925Y408679D01*
X242905Y408683D01*
X242884Y408681D01*
X242824Y408685D01*
X240799Y408685D01*
X239013Y410471D01*
X239013Y428237D01*
X240799Y430023D01*
X258565Y430023D01*
X260351Y428237D01*
X260351Y410471D01*
X258565Y408685D01*
X256540Y408685D01*
X256422Y408670D01*
X256303Y408663D01*
X256265Y408650D01*
X256224Y408645D01*
X256114Y408602D01*
X256001Y408565D01*
X255966Y408543D01*
X255929Y408528D01*
X255833Y408459D01*
X255732Y408395D01*
X255704Y408365D01*
X255671Y408342D01*
X255595Y408250D01*
X255514Y408163D01*
X255494Y408128D01*
X255469Y408097D01*
X255418Y407989D01*
X255360Y407885D01*
X255350Y407845D01*
X255333Y407809D01*
X255311Y407692D01*
X255281Y407577D01*
X255277Y407517D01*
X255273Y407497D01*
X255275Y407476D01*
X255271Y407416D01*
X255271Y403217D01*
X255283Y403119D01*
X255286Y403020D01*
X255303Y402961D01*
X255311Y402901D01*
X255347Y402809D01*
X255375Y402714D01*
X255405Y402662D01*
X255428Y402606D01*
X255486Y402526D01*
X255536Y402440D01*
X255602Y402365D01*
X255614Y402348D01*
X255624Y402341D01*
X255642Y402319D01*
X258727Y399235D01*
X260351Y395314D01*
X260351Y391070D01*
X258727Y387149D01*
X255725Y384147D01*
X251804Y382523D01*
X247560Y382523D01*
G37*
%LPD*%
%LPC*%
G36*
X95160Y382523D02*
X95160Y382523D01*
X91239Y384147D01*
X88237Y387149D01*
X86613Y391070D01*
X86613Y395314D01*
X88237Y399235D01*
X91322Y402319D01*
X91382Y402398D01*
X91450Y402470D01*
X91479Y402523D01*
X91516Y402571D01*
X91556Y402662D01*
X91604Y402748D01*
X91619Y402807D01*
X91643Y402863D01*
X91658Y402960D01*
X91683Y403056D01*
X91689Y403156D01*
X91693Y403177D01*
X91691Y403189D01*
X91693Y403217D01*
X91693Y407416D01*
X91678Y407534D01*
X91671Y407653D01*
X91658Y407691D01*
X91653Y407732D01*
X91610Y407842D01*
X91573Y407955D01*
X91551Y407990D01*
X91536Y408027D01*
X91467Y408123D01*
X91403Y408224D01*
X91373Y408252D01*
X91350Y408285D01*
X91258Y408361D01*
X91171Y408442D01*
X91136Y408462D01*
X91105Y408487D01*
X90997Y408538D01*
X90893Y408596D01*
X90853Y408606D01*
X90817Y408623D01*
X90700Y408645D01*
X90585Y408675D01*
X90525Y408679D01*
X90505Y408683D01*
X90484Y408681D01*
X90424Y408685D01*
X88399Y408685D01*
X86613Y410471D01*
X86613Y428237D01*
X88399Y430023D01*
X106165Y430023D01*
X107951Y428237D01*
X107951Y410471D01*
X106165Y408685D01*
X104140Y408685D01*
X104022Y408670D01*
X103903Y408663D01*
X103865Y408650D01*
X103824Y408645D01*
X103714Y408602D01*
X103601Y408565D01*
X103566Y408543D01*
X103529Y408528D01*
X103433Y408459D01*
X103332Y408395D01*
X103304Y408365D01*
X103271Y408342D01*
X103195Y408250D01*
X103114Y408163D01*
X103094Y408128D01*
X103069Y408097D01*
X103018Y407989D01*
X102960Y407885D01*
X102950Y407845D01*
X102933Y407809D01*
X102911Y407692D01*
X102881Y407577D01*
X102877Y407517D01*
X102873Y407497D01*
X102875Y407476D01*
X102871Y407416D01*
X102871Y403217D01*
X102883Y403119D01*
X102886Y403020D01*
X102903Y402961D01*
X102911Y402901D01*
X102947Y402809D01*
X102975Y402714D01*
X103005Y402662D01*
X103028Y402606D01*
X103086Y402526D01*
X103136Y402440D01*
X103202Y402365D01*
X103214Y402348D01*
X103224Y402341D01*
X103242Y402319D01*
X106327Y399235D01*
X107951Y395314D01*
X107951Y391070D01*
X106327Y387149D01*
X103325Y384147D01*
X99404Y382523D01*
X95160Y382523D01*
G37*
%LPD*%
%LPC*%
G36*
X349160Y382523D02*
X349160Y382523D01*
X345239Y384147D01*
X342237Y387149D01*
X340613Y391070D01*
X340613Y395314D01*
X342237Y399235D01*
X345322Y402319D01*
X345382Y402398D01*
X345450Y402470D01*
X345479Y402523D01*
X345516Y402571D01*
X345556Y402662D01*
X345604Y402748D01*
X345619Y402807D01*
X345643Y402862D01*
X345658Y402960D01*
X345683Y403056D01*
X345689Y403156D01*
X345693Y403177D01*
X345691Y403189D01*
X345693Y403217D01*
X345693Y407416D01*
X345678Y407534D01*
X345671Y407653D01*
X345658Y407691D01*
X345653Y407732D01*
X345610Y407842D01*
X345573Y407955D01*
X345551Y407990D01*
X345536Y408027D01*
X345467Y408123D01*
X345403Y408224D01*
X345373Y408252D01*
X345350Y408285D01*
X345258Y408361D01*
X345171Y408442D01*
X345136Y408462D01*
X345105Y408487D01*
X344997Y408538D01*
X344893Y408596D01*
X344853Y408606D01*
X344817Y408623D01*
X344700Y408645D01*
X344585Y408675D01*
X344525Y408679D01*
X344505Y408683D01*
X344484Y408681D01*
X344424Y408685D01*
X342399Y408685D01*
X340613Y410471D01*
X340613Y428237D01*
X342399Y430023D01*
X360165Y430023D01*
X361951Y428237D01*
X361951Y410471D01*
X360165Y408685D01*
X358140Y408685D01*
X358022Y408670D01*
X357903Y408663D01*
X357865Y408650D01*
X357824Y408645D01*
X357714Y408602D01*
X357601Y408565D01*
X357566Y408543D01*
X357529Y408528D01*
X357433Y408459D01*
X357332Y408395D01*
X357304Y408365D01*
X357271Y408342D01*
X357195Y408250D01*
X357114Y408163D01*
X357094Y408128D01*
X357069Y408097D01*
X357018Y407989D01*
X356960Y407885D01*
X356950Y407845D01*
X356933Y407809D01*
X356911Y407692D01*
X356881Y407577D01*
X356877Y407517D01*
X356873Y407497D01*
X356875Y407476D01*
X356871Y407416D01*
X356871Y403217D01*
X356883Y403119D01*
X356886Y403020D01*
X356903Y402961D01*
X356911Y402901D01*
X356947Y402809D01*
X356975Y402714D01*
X357005Y402662D01*
X357028Y402606D01*
X357086Y402525D01*
X357136Y402440D01*
X357202Y402365D01*
X357214Y402348D01*
X357224Y402340D01*
X357242Y402319D01*
X360327Y399235D01*
X361951Y395314D01*
X361951Y391070D01*
X360327Y387149D01*
X357325Y384147D01*
X353404Y382523D01*
X349160Y382523D01*
G37*
%LPD*%
%LPC*%
G36*
X450760Y382523D02*
X450760Y382523D01*
X446839Y384147D01*
X443837Y387149D01*
X442213Y391070D01*
X442213Y395314D01*
X443837Y399235D01*
X446922Y402319D01*
X446982Y402398D01*
X447050Y402470D01*
X447079Y402523D01*
X447116Y402571D01*
X447156Y402662D01*
X447204Y402748D01*
X447219Y402807D01*
X447243Y402862D01*
X447258Y402960D01*
X447283Y403056D01*
X447289Y403156D01*
X447293Y403177D01*
X447291Y403189D01*
X447293Y403217D01*
X447293Y407416D01*
X447278Y407534D01*
X447271Y407653D01*
X447258Y407691D01*
X447253Y407732D01*
X447210Y407842D01*
X447173Y407955D01*
X447151Y407990D01*
X447136Y408027D01*
X447067Y408123D01*
X447003Y408224D01*
X446973Y408252D01*
X446950Y408285D01*
X446858Y408361D01*
X446771Y408442D01*
X446736Y408462D01*
X446705Y408487D01*
X446597Y408538D01*
X446493Y408596D01*
X446453Y408606D01*
X446417Y408623D01*
X446300Y408645D01*
X446185Y408675D01*
X446125Y408679D01*
X446105Y408683D01*
X446084Y408681D01*
X446024Y408685D01*
X443999Y408685D01*
X442213Y410471D01*
X442213Y428237D01*
X443999Y430023D01*
X461765Y430023D01*
X463551Y428237D01*
X463551Y410471D01*
X461765Y408685D01*
X459740Y408685D01*
X459622Y408670D01*
X459503Y408663D01*
X459465Y408650D01*
X459424Y408645D01*
X459314Y408602D01*
X459201Y408565D01*
X459166Y408543D01*
X459129Y408528D01*
X459033Y408459D01*
X458932Y408395D01*
X458904Y408365D01*
X458871Y408342D01*
X458795Y408250D01*
X458714Y408163D01*
X458694Y408128D01*
X458669Y408097D01*
X458618Y407989D01*
X458560Y407885D01*
X458550Y407845D01*
X458533Y407809D01*
X458511Y407692D01*
X458481Y407577D01*
X458477Y407517D01*
X458473Y407497D01*
X458475Y407476D01*
X458471Y407416D01*
X458471Y403217D01*
X458483Y403119D01*
X458486Y403020D01*
X458503Y402961D01*
X458511Y402901D01*
X458547Y402809D01*
X458575Y402714D01*
X458605Y402662D01*
X458628Y402606D01*
X458686Y402525D01*
X458736Y402440D01*
X458802Y402365D01*
X458814Y402348D01*
X458824Y402340D01*
X458842Y402319D01*
X461927Y399235D01*
X463551Y395314D01*
X463551Y391070D01*
X461927Y387149D01*
X458925Y384147D01*
X455004Y382523D01*
X450760Y382523D01*
G37*
%LPD*%
%LPC*%
G36*
X374560Y382523D02*
X374560Y382523D01*
X370639Y384147D01*
X367637Y387149D01*
X366013Y391070D01*
X366013Y395314D01*
X367637Y399235D01*
X370722Y402319D01*
X370782Y402398D01*
X370850Y402470D01*
X370879Y402523D01*
X370916Y402571D01*
X370956Y402662D01*
X371004Y402748D01*
X371019Y402807D01*
X371043Y402862D01*
X371058Y402960D01*
X371083Y403056D01*
X371089Y403156D01*
X371093Y403177D01*
X371091Y403189D01*
X371093Y403217D01*
X371093Y407416D01*
X371078Y407534D01*
X371071Y407653D01*
X371058Y407691D01*
X371053Y407732D01*
X371010Y407842D01*
X370973Y407955D01*
X370951Y407990D01*
X370936Y408027D01*
X370867Y408123D01*
X370803Y408224D01*
X370773Y408252D01*
X370750Y408285D01*
X370658Y408361D01*
X370571Y408442D01*
X370536Y408462D01*
X370505Y408487D01*
X370397Y408538D01*
X370293Y408596D01*
X370253Y408606D01*
X370217Y408623D01*
X370100Y408645D01*
X369985Y408675D01*
X369925Y408679D01*
X369905Y408683D01*
X369884Y408681D01*
X369824Y408685D01*
X367799Y408685D01*
X366013Y410471D01*
X366013Y428237D01*
X367799Y430023D01*
X385565Y430023D01*
X387351Y428237D01*
X387351Y410471D01*
X385565Y408685D01*
X383540Y408685D01*
X383422Y408670D01*
X383303Y408663D01*
X383265Y408650D01*
X383224Y408645D01*
X383114Y408602D01*
X383001Y408565D01*
X382966Y408543D01*
X382929Y408528D01*
X382833Y408459D01*
X382732Y408395D01*
X382704Y408365D01*
X382671Y408342D01*
X382595Y408250D01*
X382514Y408163D01*
X382494Y408128D01*
X382469Y408097D01*
X382418Y407989D01*
X382360Y407885D01*
X382350Y407845D01*
X382333Y407809D01*
X382311Y407692D01*
X382281Y407577D01*
X382277Y407517D01*
X382273Y407497D01*
X382275Y407476D01*
X382271Y407416D01*
X382271Y403217D01*
X382283Y403119D01*
X382286Y403020D01*
X382303Y402961D01*
X382311Y402901D01*
X382347Y402809D01*
X382375Y402714D01*
X382405Y402662D01*
X382428Y402606D01*
X382486Y402525D01*
X382536Y402440D01*
X382602Y402365D01*
X382614Y402348D01*
X382624Y402340D01*
X382642Y402319D01*
X385727Y399235D01*
X387351Y395314D01*
X387351Y391070D01*
X385727Y387149D01*
X382725Y384147D01*
X378804Y382523D01*
X374560Y382523D01*
G37*
%LPD*%
%LPC*%
G36*
X399960Y382523D02*
X399960Y382523D01*
X396039Y384147D01*
X393037Y387149D01*
X391413Y391070D01*
X391413Y395314D01*
X393037Y399235D01*
X396122Y402319D01*
X396182Y402398D01*
X396250Y402470D01*
X396279Y402523D01*
X396316Y402571D01*
X396356Y402662D01*
X396404Y402748D01*
X396419Y402807D01*
X396443Y402862D01*
X396458Y402960D01*
X396483Y403056D01*
X396489Y403156D01*
X396493Y403177D01*
X396491Y403189D01*
X396493Y403217D01*
X396493Y407416D01*
X396478Y407534D01*
X396471Y407653D01*
X396458Y407691D01*
X396453Y407732D01*
X396410Y407842D01*
X396373Y407955D01*
X396351Y407990D01*
X396336Y408027D01*
X396267Y408123D01*
X396203Y408224D01*
X396173Y408252D01*
X396150Y408285D01*
X396058Y408361D01*
X395971Y408442D01*
X395936Y408462D01*
X395905Y408487D01*
X395797Y408538D01*
X395693Y408596D01*
X395653Y408606D01*
X395617Y408623D01*
X395500Y408645D01*
X395385Y408675D01*
X395325Y408679D01*
X395305Y408683D01*
X395284Y408681D01*
X395224Y408685D01*
X393199Y408685D01*
X391413Y410471D01*
X391413Y428237D01*
X393199Y430023D01*
X410965Y430023D01*
X412751Y428237D01*
X412751Y410471D01*
X410965Y408685D01*
X408940Y408685D01*
X408822Y408670D01*
X408703Y408663D01*
X408665Y408650D01*
X408624Y408645D01*
X408514Y408602D01*
X408401Y408565D01*
X408366Y408543D01*
X408329Y408528D01*
X408233Y408459D01*
X408132Y408395D01*
X408104Y408365D01*
X408071Y408342D01*
X407995Y408250D01*
X407914Y408163D01*
X407894Y408128D01*
X407869Y408097D01*
X407818Y407989D01*
X407760Y407885D01*
X407750Y407845D01*
X407733Y407809D01*
X407711Y407692D01*
X407681Y407577D01*
X407677Y407517D01*
X407673Y407497D01*
X407675Y407476D01*
X407671Y407416D01*
X407671Y403217D01*
X407683Y403119D01*
X407686Y403020D01*
X407703Y402961D01*
X407711Y402901D01*
X407747Y402809D01*
X407775Y402714D01*
X407805Y402662D01*
X407828Y402606D01*
X407886Y402525D01*
X407936Y402440D01*
X408002Y402365D01*
X408014Y402348D01*
X408024Y402340D01*
X408042Y402319D01*
X411127Y399235D01*
X412751Y395314D01*
X412751Y391070D01*
X411127Y387149D01*
X408125Y384147D01*
X404204Y382523D01*
X399960Y382523D01*
G37*
%LPD*%
%LPC*%
G36*
X425360Y382523D02*
X425360Y382523D01*
X421439Y384147D01*
X418437Y387149D01*
X416813Y391070D01*
X416813Y395314D01*
X418437Y399235D01*
X421522Y402319D01*
X421582Y402398D01*
X421650Y402470D01*
X421679Y402523D01*
X421716Y402571D01*
X421756Y402662D01*
X421804Y402748D01*
X421819Y402807D01*
X421843Y402862D01*
X421858Y402960D01*
X421883Y403056D01*
X421889Y403156D01*
X421893Y403177D01*
X421891Y403189D01*
X421893Y403217D01*
X421893Y407416D01*
X421878Y407534D01*
X421871Y407653D01*
X421858Y407691D01*
X421853Y407732D01*
X421810Y407842D01*
X421773Y407955D01*
X421751Y407990D01*
X421736Y408027D01*
X421667Y408123D01*
X421603Y408224D01*
X421573Y408252D01*
X421550Y408285D01*
X421458Y408361D01*
X421371Y408442D01*
X421336Y408462D01*
X421305Y408487D01*
X421197Y408538D01*
X421093Y408596D01*
X421053Y408606D01*
X421017Y408623D01*
X420900Y408645D01*
X420785Y408675D01*
X420725Y408679D01*
X420705Y408683D01*
X420684Y408681D01*
X420624Y408685D01*
X418599Y408685D01*
X416813Y410471D01*
X416813Y428237D01*
X418599Y430023D01*
X436365Y430023D01*
X438151Y428237D01*
X438151Y410471D01*
X436365Y408685D01*
X434340Y408685D01*
X434222Y408670D01*
X434103Y408663D01*
X434065Y408650D01*
X434024Y408645D01*
X433914Y408602D01*
X433801Y408565D01*
X433766Y408543D01*
X433729Y408528D01*
X433633Y408459D01*
X433532Y408395D01*
X433504Y408365D01*
X433471Y408342D01*
X433395Y408250D01*
X433314Y408163D01*
X433294Y408128D01*
X433269Y408097D01*
X433218Y407989D01*
X433160Y407885D01*
X433150Y407845D01*
X433133Y407809D01*
X433111Y407692D01*
X433081Y407577D01*
X433077Y407517D01*
X433073Y407497D01*
X433075Y407476D01*
X433071Y407416D01*
X433071Y403217D01*
X433083Y403119D01*
X433086Y403020D01*
X433103Y402961D01*
X433111Y402901D01*
X433147Y402809D01*
X433175Y402714D01*
X433205Y402662D01*
X433228Y402606D01*
X433286Y402525D01*
X433336Y402440D01*
X433402Y402365D01*
X433414Y402348D01*
X433424Y402340D01*
X433442Y402319D01*
X436527Y399235D01*
X438151Y395314D01*
X438151Y391070D01*
X436527Y387149D01*
X433525Y384147D01*
X429604Y382523D01*
X425360Y382523D01*
G37*
%LPD*%
%LPC*%
G36*
X418345Y103631D02*
X418345Y103631D01*
X416559Y105417D01*
X416559Y123183D01*
X418345Y124969D01*
X420370Y124969D01*
X420488Y124984D01*
X420607Y124991D01*
X420645Y125004D01*
X420686Y125009D01*
X420796Y125052D01*
X420909Y125089D01*
X420944Y125111D01*
X420981Y125126D01*
X421077Y125195D01*
X421178Y125259D01*
X421206Y125289D01*
X421239Y125312D01*
X421315Y125404D01*
X421396Y125491D01*
X421416Y125526D01*
X421441Y125557D01*
X421492Y125665D01*
X421550Y125769D01*
X421560Y125809D01*
X421577Y125845D01*
X421599Y125962D01*
X421629Y126077D01*
X421633Y126137D01*
X421637Y126157D01*
X421635Y126178D01*
X421639Y126238D01*
X421639Y129421D01*
X421627Y129519D01*
X421624Y129618D01*
X421607Y129677D01*
X421599Y129737D01*
X421563Y129829D01*
X421535Y129924D01*
X421505Y129976D01*
X421482Y130032D01*
X421424Y130112D01*
X421374Y130198D01*
X421308Y130273D01*
X421296Y130290D01*
X421286Y130297D01*
X421268Y130319D01*
X418437Y133149D01*
X416813Y137070D01*
X416813Y141314D01*
X418437Y145235D01*
X421439Y148237D01*
X425360Y149861D01*
X429604Y149861D01*
X433525Y148237D01*
X436527Y145235D01*
X438151Y141314D01*
X438151Y137070D01*
X436527Y133149D01*
X433509Y130131D01*
X433437Y130085D01*
X433324Y130021D01*
X433303Y130000D01*
X433278Y129985D01*
X433189Y129890D01*
X433096Y129800D01*
X433080Y129774D01*
X433060Y129753D01*
X432997Y129639D01*
X432929Y129529D01*
X432921Y129500D01*
X432906Y129474D01*
X432874Y129349D01*
X432836Y129225D01*
X432834Y129195D01*
X432827Y129167D01*
X432817Y129006D01*
X432817Y126238D01*
X432832Y126120D01*
X432839Y126001D01*
X432852Y125963D01*
X432857Y125922D01*
X432900Y125812D01*
X432937Y125699D01*
X432959Y125664D01*
X432974Y125627D01*
X433043Y125531D01*
X433107Y125430D01*
X433137Y125402D01*
X433160Y125369D01*
X433252Y125293D01*
X433339Y125212D01*
X433374Y125192D01*
X433405Y125167D01*
X433513Y125116D01*
X433617Y125058D01*
X433657Y125048D01*
X433693Y125031D01*
X433810Y125009D01*
X433925Y124979D01*
X433985Y124975D01*
X434005Y124971D01*
X434026Y124973D01*
X434086Y124969D01*
X436111Y124969D01*
X437897Y123183D01*
X437897Y105417D01*
X436111Y103631D01*
X418345Y103631D01*
G37*
%LPD*%
%LPC*%
G36*
X392945Y103631D02*
X392945Y103631D01*
X391159Y105417D01*
X391159Y123183D01*
X392945Y124969D01*
X394970Y124969D01*
X395088Y124984D01*
X395207Y124991D01*
X395245Y125004D01*
X395286Y125009D01*
X395396Y125052D01*
X395509Y125089D01*
X395544Y125111D01*
X395581Y125126D01*
X395677Y125195D01*
X395778Y125259D01*
X395806Y125289D01*
X395839Y125312D01*
X395915Y125404D01*
X395996Y125491D01*
X396016Y125526D01*
X396041Y125557D01*
X396092Y125665D01*
X396150Y125769D01*
X396160Y125809D01*
X396177Y125845D01*
X396199Y125962D01*
X396229Y126077D01*
X396233Y126137D01*
X396237Y126157D01*
X396235Y126178D01*
X396239Y126238D01*
X396239Y129421D01*
X396227Y129519D01*
X396224Y129618D01*
X396207Y129677D01*
X396199Y129737D01*
X396163Y129829D01*
X396135Y129924D01*
X396105Y129976D01*
X396082Y130032D01*
X396024Y130112D01*
X395974Y130198D01*
X395908Y130273D01*
X395896Y130290D01*
X395886Y130297D01*
X395868Y130319D01*
X393037Y133149D01*
X391413Y137070D01*
X391413Y141314D01*
X393037Y145235D01*
X396039Y148237D01*
X399960Y149861D01*
X404204Y149861D01*
X408125Y148237D01*
X411127Y145235D01*
X412751Y141314D01*
X412751Y137070D01*
X411127Y133149D01*
X408109Y130131D01*
X408037Y130085D01*
X407924Y130021D01*
X407903Y130000D01*
X407878Y129985D01*
X407789Y129890D01*
X407696Y129800D01*
X407680Y129774D01*
X407660Y129753D01*
X407597Y129639D01*
X407529Y129529D01*
X407521Y129500D01*
X407506Y129474D01*
X407474Y129349D01*
X407436Y129225D01*
X407434Y129195D01*
X407427Y129167D01*
X407417Y129006D01*
X407417Y126238D01*
X407432Y126120D01*
X407439Y126001D01*
X407452Y125963D01*
X407457Y125922D01*
X407500Y125812D01*
X407537Y125699D01*
X407559Y125664D01*
X407574Y125627D01*
X407643Y125531D01*
X407707Y125430D01*
X407737Y125402D01*
X407760Y125369D01*
X407852Y125293D01*
X407939Y125212D01*
X407974Y125192D01*
X408005Y125167D01*
X408113Y125116D01*
X408217Y125058D01*
X408257Y125048D01*
X408293Y125031D01*
X408410Y125009D01*
X408525Y124979D01*
X408585Y124975D01*
X408605Y124971D01*
X408626Y124973D01*
X408686Y124969D01*
X410711Y124969D01*
X412497Y123183D01*
X412497Y105417D01*
X410711Y103631D01*
X392945Y103631D01*
G37*
%LPD*%
%LPC*%
G36*
X367545Y103631D02*
X367545Y103631D01*
X365759Y105417D01*
X365759Y123183D01*
X367545Y124969D01*
X369570Y124969D01*
X369688Y124984D01*
X369807Y124991D01*
X369845Y125004D01*
X369886Y125009D01*
X369996Y125052D01*
X370109Y125089D01*
X370144Y125111D01*
X370181Y125126D01*
X370277Y125195D01*
X370378Y125259D01*
X370406Y125289D01*
X370439Y125312D01*
X370515Y125404D01*
X370596Y125491D01*
X370616Y125526D01*
X370641Y125557D01*
X370692Y125665D01*
X370750Y125769D01*
X370760Y125809D01*
X370777Y125845D01*
X370799Y125962D01*
X370829Y126077D01*
X370833Y126137D01*
X370837Y126157D01*
X370835Y126178D01*
X370839Y126238D01*
X370839Y129421D01*
X370827Y129519D01*
X370824Y129618D01*
X370807Y129677D01*
X370799Y129737D01*
X370763Y129829D01*
X370735Y129924D01*
X370705Y129976D01*
X370682Y130032D01*
X370624Y130112D01*
X370574Y130198D01*
X370508Y130273D01*
X370496Y130290D01*
X370486Y130297D01*
X370468Y130319D01*
X367637Y133149D01*
X366013Y137070D01*
X366013Y141314D01*
X367637Y145235D01*
X370639Y148237D01*
X374560Y149861D01*
X378804Y149861D01*
X382725Y148237D01*
X385727Y145235D01*
X387351Y141314D01*
X387351Y137070D01*
X385727Y133149D01*
X382709Y130131D01*
X382637Y130085D01*
X382524Y130021D01*
X382503Y130000D01*
X382478Y129985D01*
X382389Y129890D01*
X382296Y129800D01*
X382280Y129774D01*
X382260Y129753D01*
X382197Y129639D01*
X382129Y129529D01*
X382121Y129500D01*
X382106Y129474D01*
X382074Y129349D01*
X382036Y129225D01*
X382034Y129195D01*
X382027Y129167D01*
X382017Y129006D01*
X382017Y126238D01*
X382032Y126120D01*
X382039Y126001D01*
X382052Y125963D01*
X382057Y125922D01*
X382100Y125812D01*
X382137Y125699D01*
X382159Y125664D01*
X382174Y125627D01*
X382243Y125531D01*
X382307Y125430D01*
X382337Y125402D01*
X382360Y125369D01*
X382452Y125293D01*
X382539Y125212D01*
X382574Y125192D01*
X382605Y125167D01*
X382713Y125116D01*
X382817Y125058D01*
X382857Y125048D01*
X382893Y125031D01*
X383010Y125009D01*
X383125Y124979D01*
X383185Y124975D01*
X383205Y124971D01*
X383226Y124973D01*
X383286Y124969D01*
X385311Y124969D01*
X387097Y123183D01*
X387097Y105417D01*
X385311Y103631D01*
X367545Y103631D01*
G37*
%LPD*%
%LPC*%
G36*
X443745Y103631D02*
X443745Y103631D01*
X441959Y105417D01*
X441959Y123183D01*
X443745Y124969D01*
X445770Y124969D01*
X445888Y124984D01*
X446007Y124991D01*
X446045Y125004D01*
X446086Y125009D01*
X446196Y125052D01*
X446309Y125089D01*
X446344Y125111D01*
X446381Y125126D01*
X446477Y125195D01*
X446578Y125259D01*
X446606Y125289D01*
X446639Y125312D01*
X446715Y125404D01*
X446796Y125491D01*
X446816Y125526D01*
X446841Y125557D01*
X446892Y125665D01*
X446950Y125769D01*
X446960Y125809D01*
X446977Y125845D01*
X446999Y125962D01*
X447029Y126077D01*
X447033Y126137D01*
X447037Y126157D01*
X447035Y126178D01*
X447039Y126238D01*
X447039Y129421D01*
X447027Y129519D01*
X447024Y129618D01*
X447007Y129677D01*
X446999Y129737D01*
X446963Y129829D01*
X446935Y129924D01*
X446905Y129976D01*
X446882Y130032D01*
X446824Y130112D01*
X446774Y130198D01*
X446708Y130273D01*
X446696Y130290D01*
X446686Y130297D01*
X446668Y130319D01*
X443837Y133149D01*
X442213Y137070D01*
X442213Y141314D01*
X443837Y145235D01*
X446839Y148237D01*
X450760Y149861D01*
X455004Y149861D01*
X458925Y148237D01*
X461927Y145235D01*
X463551Y141314D01*
X463551Y137070D01*
X461927Y133149D01*
X458909Y130131D01*
X458837Y130085D01*
X458724Y130021D01*
X458703Y130000D01*
X458678Y129985D01*
X458589Y129890D01*
X458496Y129800D01*
X458480Y129774D01*
X458460Y129753D01*
X458397Y129639D01*
X458329Y129529D01*
X458321Y129500D01*
X458306Y129474D01*
X458274Y129349D01*
X458236Y129225D01*
X458234Y129195D01*
X458227Y129167D01*
X458217Y129006D01*
X458217Y126238D01*
X458232Y126120D01*
X458239Y126001D01*
X458252Y125963D01*
X458257Y125922D01*
X458300Y125812D01*
X458337Y125699D01*
X458359Y125664D01*
X458374Y125627D01*
X458443Y125531D01*
X458507Y125430D01*
X458537Y125402D01*
X458560Y125369D01*
X458652Y125293D01*
X458739Y125212D01*
X458774Y125192D01*
X458805Y125167D01*
X458913Y125116D01*
X459017Y125058D01*
X459057Y125048D01*
X459093Y125031D01*
X459210Y125009D01*
X459325Y124979D01*
X459385Y124975D01*
X459405Y124971D01*
X459426Y124973D01*
X459486Y124969D01*
X461511Y124969D01*
X463297Y123183D01*
X463297Y105417D01*
X461511Y103631D01*
X443745Y103631D01*
G37*
%LPD*%
%LPC*%
G36*
X11945Y103631D02*
X11945Y103631D01*
X10159Y105417D01*
X10159Y123183D01*
X11945Y124969D01*
X13970Y124969D01*
X14088Y124984D01*
X14207Y124991D01*
X14245Y125004D01*
X14286Y125009D01*
X14396Y125052D01*
X14509Y125089D01*
X14544Y125111D01*
X14581Y125126D01*
X14677Y125195D01*
X14778Y125259D01*
X14806Y125289D01*
X14839Y125312D01*
X14915Y125404D01*
X14996Y125491D01*
X15016Y125526D01*
X15041Y125557D01*
X15092Y125665D01*
X15150Y125769D01*
X15160Y125809D01*
X15177Y125845D01*
X15199Y125962D01*
X15229Y126077D01*
X15233Y126137D01*
X15237Y126157D01*
X15235Y126178D01*
X15239Y126238D01*
X15239Y129421D01*
X15227Y129519D01*
X15224Y129618D01*
X15207Y129677D01*
X15199Y129737D01*
X15163Y129829D01*
X15135Y129924D01*
X15105Y129976D01*
X15082Y130032D01*
X15024Y130112D01*
X14974Y130198D01*
X14908Y130273D01*
X14896Y130290D01*
X14886Y130297D01*
X14868Y130319D01*
X12037Y133149D01*
X10413Y137070D01*
X10413Y141314D01*
X12037Y145235D01*
X15039Y148237D01*
X18960Y149861D01*
X23204Y149861D01*
X27125Y148237D01*
X30127Y145235D01*
X31751Y141314D01*
X31751Y137070D01*
X30127Y133149D01*
X27109Y130131D01*
X27037Y130085D01*
X26924Y130021D01*
X26903Y130000D01*
X26878Y129985D01*
X26789Y129890D01*
X26696Y129800D01*
X26680Y129775D01*
X26660Y129753D01*
X26597Y129639D01*
X26529Y129529D01*
X26521Y129500D01*
X26506Y129475D01*
X26474Y129349D01*
X26436Y129225D01*
X26434Y129195D01*
X26427Y129167D01*
X26417Y129006D01*
X26417Y126238D01*
X26432Y126120D01*
X26439Y126001D01*
X26452Y125963D01*
X26457Y125922D01*
X26500Y125812D01*
X26537Y125699D01*
X26559Y125664D01*
X26574Y125627D01*
X26643Y125531D01*
X26707Y125430D01*
X26737Y125402D01*
X26760Y125369D01*
X26852Y125293D01*
X26939Y125212D01*
X26974Y125192D01*
X27005Y125167D01*
X27113Y125116D01*
X27217Y125058D01*
X27257Y125048D01*
X27293Y125031D01*
X27410Y125009D01*
X27525Y124979D01*
X27585Y124975D01*
X27605Y124971D01*
X27626Y124973D01*
X27686Y124969D01*
X29711Y124969D01*
X31497Y123183D01*
X31497Y105417D01*
X29711Y103631D01*
X11945Y103631D01*
G37*
%LPD*%
%LPC*%
G36*
X37345Y103631D02*
X37345Y103631D01*
X35559Y105417D01*
X35559Y123183D01*
X37345Y124969D01*
X39370Y124969D01*
X39488Y124984D01*
X39607Y124991D01*
X39645Y125004D01*
X39686Y125009D01*
X39796Y125052D01*
X39909Y125089D01*
X39944Y125111D01*
X39981Y125126D01*
X40077Y125195D01*
X40178Y125259D01*
X40206Y125289D01*
X40239Y125312D01*
X40315Y125404D01*
X40396Y125491D01*
X40416Y125526D01*
X40441Y125557D01*
X40492Y125665D01*
X40550Y125769D01*
X40560Y125809D01*
X40577Y125845D01*
X40599Y125962D01*
X40629Y126077D01*
X40633Y126137D01*
X40637Y126157D01*
X40635Y126178D01*
X40639Y126238D01*
X40639Y129421D01*
X40627Y129519D01*
X40624Y129618D01*
X40607Y129677D01*
X40599Y129737D01*
X40563Y129829D01*
X40535Y129924D01*
X40505Y129976D01*
X40482Y130032D01*
X40424Y130112D01*
X40374Y130198D01*
X40308Y130273D01*
X40296Y130290D01*
X40286Y130297D01*
X40268Y130319D01*
X37437Y133149D01*
X35813Y137070D01*
X35813Y141314D01*
X37437Y145235D01*
X40439Y148237D01*
X44360Y149861D01*
X48604Y149861D01*
X52525Y148237D01*
X55527Y145235D01*
X57151Y141314D01*
X57151Y137070D01*
X55527Y133149D01*
X52509Y130131D01*
X52437Y130085D01*
X52324Y130021D01*
X52303Y130000D01*
X52278Y129985D01*
X52189Y129890D01*
X52096Y129800D01*
X52080Y129775D01*
X52060Y129753D01*
X51997Y129639D01*
X51929Y129529D01*
X51921Y129500D01*
X51906Y129475D01*
X51874Y129349D01*
X51836Y129225D01*
X51834Y129195D01*
X51827Y129167D01*
X51817Y129006D01*
X51817Y126238D01*
X51832Y126120D01*
X51839Y126001D01*
X51852Y125963D01*
X51857Y125922D01*
X51900Y125812D01*
X51937Y125699D01*
X51959Y125664D01*
X51974Y125627D01*
X52043Y125531D01*
X52107Y125430D01*
X52137Y125402D01*
X52160Y125369D01*
X52252Y125293D01*
X52339Y125212D01*
X52374Y125192D01*
X52405Y125167D01*
X52513Y125116D01*
X52617Y125058D01*
X52657Y125048D01*
X52693Y125031D01*
X52810Y125009D01*
X52925Y124979D01*
X52985Y124975D01*
X53005Y124971D01*
X53026Y124973D01*
X53086Y124969D01*
X55111Y124969D01*
X56897Y123183D01*
X56897Y105417D01*
X55111Y103631D01*
X37345Y103631D01*
G37*
%LPD*%
%LPC*%
G36*
X62745Y103631D02*
X62745Y103631D01*
X60959Y105417D01*
X60959Y123183D01*
X62745Y124969D01*
X64770Y124969D01*
X64888Y124984D01*
X65007Y124991D01*
X65045Y125004D01*
X65086Y125009D01*
X65196Y125052D01*
X65309Y125089D01*
X65344Y125111D01*
X65381Y125126D01*
X65477Y125195D01*
X65578Y125259D01*
X65606Y125289D01*
X65639Y125312D01*
X65715Y125404D01*
X65796Y125491D01*
X65816Y125526D01*
X65841Y125557D01*
X65892Y125665D01*
X65950Y125769D01*
X65960Y125809D01*
X65977Y125845D01*
X65999Y125962D01*
X66029Y126077D01*
X66033Y126137D01*
X66037Y126157D01*
X66035Y126178D01*
X66039Y126238D01*
X66039Y129421D01*
X66027Y129519D01*
X66024Y129618D01*
X66007Y129677D01*
X65999Y129737D01*
X65963Y129829D01*
X65935Y129924D01*
X65905Y129976D01*
X65882Y130032D01*
X65824Y130112D01*
X65774Y130198D01*
X65708Y130273D01*
X65696Y130290D01*
X65686Y130297D01*
X65668Y130319D01*
X62837Y133149D01*
X61213Y137070D01*
X61213Y141314D01*
X62837Y145235D01*
X65839Y148237D01*
X69760Y149861D01*
X74004Y149861D01*
X77925Y148237D01*
X80927Y145235D01*
X82551Y141314D01*
X82551Y137070D01*
X80927Y133149D01*
X77909Y130131D01*
X77837Y130085D01*
X77724Y130021D01*
X77703Y130000D01*
X77678Y129985D01*
X77589Y129890D01*
X77496Y129800D01*
X77480Y129775D01*
X77460Y129753D01*
X77397Y129639D01*
X77329Y129529D01*
X77321Y129500D01*
X77306Y129475D01*
X77274Y129349D01*
X77236Y129225D01*
X77234Y129195D01*
X77227Y129167D01*
X77217Y129006D01*
X77217Y126238D01*
X77232Y126120D01*
X77239Y126001D01*
X77252Y125963D01*
X77257Y125922D01*
X77300Y125812D01*
X77337Y125699D01*
X77359Y125664D01*
X77374Y125627D01*
X77443Y125531D01*
X77507Y125430D01*
X77537Y125402D01*
X77560Y125369D01*
X77652Y125293D01*
X77739Y125212D01*
X77774Y125192D01*
X77805Y125167D01*
X77913Y125116D01*
X78017Y125058D01*
X78057Y125048D01*
X78093Y125031D01*
X78210Y125009D01*
X78325Y124979D01*
X78385Y124975D01*
X78405Y124971D01*
X78426Y124973D01*
X78486Y124969D01*
X80511Y124969D01*
X82297Y123183D01*
X82297Y105417D01*
X80511Y103631D01*
X62745Y103631D01*
G37*
%LPD*%
%LPC*%
G36*
X88145Y103631D02*
X88145Y103631D01*
X86359Y105417D01*
X86359Y123183D01*
X88145Y124969D01*
X90170Y124969D01*
X90288Y124984D01*
X90407Y124991D01*
X90445Y125004D01*
X90486Y125009D01*
X90596Y125052D01*
X90709Y125089D01*
X90744Y125111D01*
X90781Y125126D01*
X90877Y125195D01*
X90978Y125259D01*
X91006Y125289D01*
X91039Y125312D01*
X91115Y125404D01*
X91196Y125491D01*
X91216Y125526D01*
X91241Y125557D01*
X91292Y125665D01*
X91350Y125769D01*
X91360Y125809D01*
X91377Y125845D01*
X91399Y125962D01*
X91429Y126077D01*
X91433Y126137D01*
X91437Y126157D01*
X91435Y126178D01*
X91439Y126238D01*
X91439Y129421D01*
X91427Y129519D01*
X91424Y129618D01*
X91407Y129677D01*
X91399Y129737D01*
X91363Y129829D01*
X91335Y129924D01*
X91305Y129976D01*
X91282Y130032D01*
X91224Y130112D01*
X91174Y130198D01*
X91108Y130273D01*
X91096Y130290D01*
X91086Y130297D01*
X91068Y130319D01*
X88237Y133149D01*
X86613Y137070D01*
X86613Y141314D01*
X88237Y145235D01*
X91239Y148237D01*
X95160Y149861D01*
X99404Y149861D01*
X103325Y148237D01*
X106327Y145235D01*
X107951Y141314D01*
X107951Y137070D01*
X106327Y133149D01*
X103309Y130131D01*
X103237Y130085D01*
X103124Y130021D01*
X103103Y130000D01*
X103078Y129985D01*
X102989Y129890D01*
X102896Y129800D01*
X102880Y129775D01*
X102860Y129753D01*
X102797Y129639D01*
X102729Y129529D01*
X102721Y129500D01*
X102706Y129475D01*
X102674Y129349D01*
X102636Y129225D01*
X102634Y129195D01*
X102627Y129167D01*
X102617Y129006D01*
X102617Y126238D01*
X102632Y126120D01*
X102639Y126001D01*
X102652Y125963D01*
X102657Y125922D01*
X102700Y125812D01*
X102737Y125699D01*
X102759Y125664D01*
X102774Y125627D01*
X102843Y125531D01*
X102907Y125430D01*
X102937Y125402D01*
X102960Y125369D01*
X103052Y125293D01*
X103139Y125212D01*
X103174Y125192D01*
X103205Y125167D01*
X103313Y125116D01*
X103417Y125058D01*
X103457Y125048D01*
X103493Y125031D01*
X103610Y125009D01*
X103725Y124979D01*
X103785Y124975D01*
X103805Y124971D01*
X103826Y124973D01*
X103886Y124969D01*
X105911Y124969D01*
X107697Y123183D01*
X107697Y105417D01*
X105911Y103631D01*
X88145Y103631D01*
G37*
%LPD*%
%LPC*%
G36*
X240545Y103631D02*
X240545Y103631D01*
X238759Y105417D01*
X238759Y123183D01*
X240545Y124969D01*
X242570Y124969D01*
X242688Y124984D01*
X242807Y124991D01*
X242845Y125004D01*
X242886Y125009D01*
X242996Y125052D01*
X243109Y125089D01*
X243144Y125111D01*
X243181Y125126D01*
X243277Y125195D01*
X243378Y125259D01*
X243406Y125289D01*
X243439Y125312D01*
X243515Y125404D01*
X243596Y125491D01*
X243616Y125526D01*
X243641Y125557D01*
X243692Y125665D01*
X243750Y125769D01*
X243760Y125809D01*
X243777Y125845D01*
X243799Y125962D01*
X243829Y126077D01*
X243833Y126137D01*
X243837Y126157D01*
X243835Y126178D01*
X243839Y126238D01*
X243839Y129421D01*
X243827Y129519D01*
X243824Y129618D01*
X243807Y129677D01*
X243799Y129737D01*
X243763Y129829D01*
X243735Y129924D01*
X243705Y129976D01*
X243682Y130032D01*
X243624Y130112D01*
X243574Y130198D01*
X243508Y130273D01*
X243496Y130290D01*
X243486Y130297D01*
X243468Y130319D01*
X240637Y133149D01*
X239013Y137070D01*
X239013Y141314D01*
X240637Y145235D01*
X243639Y148237D01*
X247560Y149861D01*
X251804Y149861D01*
X255725Y148237D01*
X258727Y145235D01*
X260351Y141314D01*
X260351Y137070D01*
X258727Y133149D01*
X255709Y130131D01*
X255637Y130085D01*
X255524Y130021D01*
X255503Y130000D01*
X255478Y129985D01*
X255389Y129890D01*
X255296Y129800D01*
X255280Y129775D01*
X255260Y129753D01*
X255197Y129639D01*
X255129Y129529D01*
X255121Y129500D01*
X255106Y129475D01*
X255074Y129349D01*
X255036Y129225D01*
X255034Y129195D01*
X255027Y129167D01*
X255017Y129006D01*
X255017Y126238D01*
X255032Y126120D01*
X255039Y126001D01*
X255052Y125963D01*
X255057Y125922D01*
X255100Y125812D01*
X255137Y125699D01*
X255159Y125664D01*
X255174Y125627D01*
X255243Y125531D01*
X255307Y125430D01*
X255337Y125402D01*
X255360Y125369D01*
X255452Y125293D01*
X255539Y125212D01*
X255574Y125192D01*
X255605Y125167D01*
X255713Y125116D01*
X255817Y125058D01*
X255857Y125048D01*
X255893Y125031D01*
X256010Y125009D01*
X256125Y124979D01*
X256185Y124975D01*
X256205Y124971D01*
X256226Y124973D01*
X256286Y124969D01*
X258311Y124969D01*
X260097Y123183D01*
X260097Y105417D01*
X258311Y103631D01*
X240545Y103631D01*
G37*
%LPD*%
%LPC*%
G36*
X265945Y103631D02*
X265945Y103631D01*
X264159Y105417D01*
X264159Y123183D01*
X265945Y124969D01*
X267970Y124969D01*
X268088Y124984D01*
X268207Y124991D01*
X268245Y125004D01*
X268286Y125009D01*
X268396Y125052D01*
X268509Y125089D01*
X268544Y125111D01*
X268581Y125126D01*
X268677Y125195D01*
X268778Y125259D01*
X268806Y125289D01*
X268839Y125312D01*
X268915Y125404D01*
X268996Y125491D01*
X269016Y125526D01*
X269041Y125557D01*
X269092Y125665D01*
X269150Y125769D01*
X269160Y125809D01*
X269177Y125845D01*
X269199Y125962D01*
X269229Y126077D01*
X269233Y126137D01*
X269237Y126157D01*
X269235Y126178D01*
X269239Y126238D01*
X269239Y129421D01*
X269227Y129519D01*
X269224Y129618D01*
X269207Y129677D01*
X269199Y129737D01*
X269163Y129829D01*
X269135Y129924D01*
X269105Y129976D01*
X269082Y130032D01*
X269024Y130112D01*
X268974Y130198D01*
X268908Y130273D01*
X268896Y130290D01*
X268886Y130297D01*
X268868Y130319D01*
X266037Y133149D01*
X264413Y137070D01*
X264413Y141314D01*
X266037Y145235D01*
X269039Y148237D01*
X272960Y149861D01*
X277204Y149861D01*
X281125Y148237D01*
X284127Y145235D01*
X285751Y141314D01*
X285751Y137070D01*
X284127Y133149D01*
X281109Y130131D01*
X281037Y130085D01*
X280924Y130021D01*
X280903Y130000D01*
X280878Y129985D01*
X280789Y129890D01*
X280696Y129800D01*
X280680Y129775D01*
X280660Y129753D01*
X280597Y129639D01*
X280529Y129529D01*
X280521Y129500D01*
X280506Y129475D01*
X280474Y129349D01*
X280436Y129225D01*
X280434Y129195D01*
X280427Y129167D01*
X280417Y129006D01*
X280417Y126238D01*
X280432Y126120D01*
X280439Y126001D01*
X280452Y125963D01*
X280457Y125922D01*
X280500Y125812D01*
X280537Y125699D01*
X280559Y125664D01*
X280574Y125627D01*
X280643Y125531D01*
X280707Y125430D01*
X280737Y125402D01*
X280760Y125369D01*
X280852Y125293D01*
X280939Y125212D01*
X280974Y125192D01*
X281005Y125167D01*
X281113Y125116D01*
X281217Y125058D01*
X281257Y125048D01*
X281293Y125031D01*
X281410Y125009D01*
X281525Y124979D01*
X281585Y124975D01*
X281605Y124971D01*
X281626Y124973D01*
X281686Y124969D01*
X283711Y124969D01*
X285497Y123183D01*
X285497Y105417D01*
X283711Y103631D01*
X265945Y103631D01*
G37*
%LPD*%
%LPC*%
G36*
X291345Y103631D02*
X291345Y103631D01*
X289559Y105417D01*
X289559Y123183D01*
X291345Y124969D01*
X293370Y124969D01*
X293488Y124984D01*
X293607Y124991D01*
X293645Y125004D01*
X293686Y125009D01*
X293796Y125052D01*
X293909Y125089D01*
X293944Y125111D01*
X293981Y125126D01*
X294077Y125195D01*
X294178Y125259D01*
X294206Y125289D01*
X294239Y125312D01*
X294315Y125404D01*
X294396Y125491D01*
X294416Y125526D01*
X294441Y125557D01*
X294492Y125665D01*
X294550Y125769D01*
X294560Y125809D01*
X294577Y125845D01*
X294599Y125962D01*
X294629Y126077D01*
X294633Y126137D01*
X294637Y126157D01*
X294635Y126178D01*
X294639Y126238D01*
X294639Y129421D01*
X294627Y129519D01*
X294624Y129618D01*
X294607Y129677D01*
X294599Y129737D01*
X294563Y129829D01*
X294535Y129924D01*
X294505Y129976D01*
X294482Y130032D01*
X294424Y130112D01*
X294374Y130198D01*
X294308Y130273D01*
X294296Y130290D01*
X294286Y130297D01*
X294268Y130319D01*
X291437Y133149D01*
X289813Y137070D01*
X289813Y141314D01*
X291437Y145235D01*
X294439Y148237D01*
X298360Y149861D01*
X302604Y149861D01*
X306525Y148237D01*
X309527Y145235D01*
X311151Y141314D01*
X311151Y137070D01*
X309527Y133149D01*
X306509Y130131D01*
X306437Y130085D01*
X306324Y130021D01*
X306303Y130000D01*
X306278Y129985D01*
X306189Y129890D01*
X306096Y129800D01*
X306080Y129775D01*
X306060Y129753D01*
X305997Y129639D01*
X305929Y129529D01*
X305921Y129500D01*
X305906Y129475D01*
X305874Y129349D01*
X305836Y129225D01*
X305834Y129195D01*
X305827Y129167D01*
X305817Y129006D01*
X305817Y126238D01*
X305832Y126120D01*
X305839Y126001D01*
X305852Y125963D01*
X305857Y125922D01*
X305900Y125812D01*
X305937Y125699D01*
X305959Y125664D01*
X305974Y125627D01*
X306043Y125531D01*
X306107Y125430D01*
X306137Y125402D01*
X306160Y125369D01*
X306252Y125293D01*
X306339Y125212D01*
X306374Y125192D01*
X306405Y125167D01*
X306513Y125116D01*
X306617Y125058D01*
X306657Y125048D01*
X306693Y125031D01*
X306810Y125009D01*
X306925Y124979D01*
X306985Y124975D01*
X307005Y124971D01*
X307026Y124973D01*
X307086Y124969D01*
X309111Y124969D01*
X310897Y123183D01*
X310897Y105417D01*
X309111Y103631D01*
X291345Y103631D01*
G37*
%LPD*%
%LPC*%
G36*
X342145Y103631D02*
X342145Y103631D01*
X340359Y105417D01*
X340359Y123183D01*
X342145Y124969D01*
X344170Y124969D01*
X344288Y124984D01*
X344407Y124991D01*
X344445Y125004D01*
X344486Y125009D01*
X344596Y125052D01*
X344709Y125089D01*
X344744Y125111D01*
X344781Y125126D01*
X344877Y125195D01*
X344978Y125259D01*
X345006Y125289D01*
X345039Y125312D01*
X345115Y125404D01*
X345196Y125491D01*
X345216Y125526D01*
X345241Y125557D01*
X345292Y125665D01*
X345350Y125769D01*
X345360Y125809D01*
X345377Y125845D01*
X345399Y125962D01*
X345429Y126077D01*
X345433Y126137D01*
X345437Y126157D01*
X345435Y126178D01*
X345439Y126238D01*
X345439Y129421D01*
X345427Y129519D01*
X345424Y129618D01*
X345407Y129677D01*
X345399Y129737D01*
X345363Y129829D01*
X345335Y129924D01*
X345305Y129976D01*
X345282Y130032D01*
X345224Y130112D01*
X345174Y130198D01*
X345108Y130273D01*
X345096Y130290D01*
X345086Y130297D01*
X345068Y130319D01*
X342237Y133149D01*
X340613Y137070D01*
X340613Y141314D01*
X342237Y145235D01*
X345239Y148237D01*
X349160Y149861D01*
X353404Y149861D01*
X357325Y148237D01*
X360327Y145235D01*
X361951Y141314D01*
X361951Y137070D01*
X360327Y133149D01*
X357309Y130131D01*
X357237Y130085D01*
X357124Y130021D01*
X357103Y130000D01*
X357078Y129985D01*
X356989Y129890D01*
X356896Y129800D01*
X356880Y129775D01*
X356860Y129753D01*
X356797Y129639D01*
X356729Y129529D01*
X356721Y129500D01*
X356706Y129475D01*
X356674Y129349D01*
X356636Y129225D01*
X356634Y129195D01*
X356627Y129167D01*
X356617Y129006D01*
X356617Y126238D01*
X356632Y126120D01*
X356639Y126001D01*
X356652Y125963D01*
X356657Y125922D01*
X356700Y125812D01*
X356737Y125699D01*
X356759Y125664D01*
X356774Y125627D01*
X356843Y125531D01*
X356907Y125430D01*
X356937Y125402D01*
X356960Y125369D01*
X357052Y125293D01*
X357139Y125212D01*
X357174Y125192D01*
X357205Y125167D01*
X357313Y125116D01*
X357417Y125058D01*
X357457Y125048D01*
X357493Y125031D01*
X357610Y125009D01*
X357725Y124979D01*
X357785Y124975D01*
X357805Y124971D01*
X357826Y124973D01*
X357886Y124969D01*
X359911Y124969D01*
X361697Y123183D01*
X361697Y105417D01*
X359911Y103631D01*
X342145Y103631D01*
G37*
%LPD*%
%LPC*%
G36*
X164345Y103631D02*
X164345Y103631D01*
X162559Y105417D01*
X162559Y123183D01*
X164345Y124969D01*
X166370Y124969D01*
X166488Y124984D01*
X166607Y124991D01*
X166645Y125004D01*
X166686Y125009D01*
X166796Y125052D01*
X166909Y125089D01*
X166944Y125111D01*
X166981Y125126D01*
X167077Y125195D01*
X167178Y125259D01*
X167206Y125289D01*
X167239Y125312D01*
X167315Y125404D01*
X167396Y125491D01*
X167416Y125526D01*
X167441Y125557D01*
X167492Y125665D01*
X167550Y125769D01*
X167560Y125809D01*
X167577Y125845D01*
X167599Y125962D01*
X167629Y126077D01*
X167633Y126137D01*
X167637Y126157D01*
X167635Y126178D01*
X167639Y126238D01*
X167639Y129421D01*
X167627Y129519D01*
X167624Y129618D01*
X167607Y129677D01*
X167599Y129737D01*
X167563Y129829D01*
X167535Y129924D01*
X167505Y129976D01*
X167482Y130032D01*
X167424Y130113D01*
X167374Y130198D01*
X167308Y130273D01*
X167296Y130290D01*
X167286Y130298D01*
X167268Y130319D01*
X164437Y133149D01*
X162813Y137070D01*
X162813Y141314D01*
X164437Y145235D01*
X167439Y148237D01*
X171360Y149861D01*
X175604Y149861D01*
X179525Y148237D01*
X182527Y145235D01*
X184151Y141314D01*
X184151Y137070D01*
X182527Y133149D01*
X179509Y130131D01*
X179437Y130085D01*
X179324Y130021D01*
X179303Y130000D01*
X179278Y129985D01*
X179189Y129890D01*
X179096Y129800D01*
X179080Y129775D01*
X179060Y129753D01*
X178997Y129639D01*
X178929Y129529D01*
X178921Y129500D01*
X178906Y129475D01*
X178874Y129349D01*
X178836Y129225D01*
X178834Y129195D01*
X178827Y129167D01*
X178817Y129006D01*
X178817Y126238D01*
X178832Y126120D01*
X178839Y126001D01*
X178852Y125963D01*
X178857Y125922D01*
X178900Y125812D01*
X178937Y125699D01*
X178959Y125664D01*
X178974Y125627D01*
X179043Y125531D01*
X179107Y125430D01*
X179137Y125402D01*
X179160Y125369D01*
X179252Y125293D01*
X179339Y125212D01*
X179374Y125192D01*
X179405Y125167D01*
X179513Y125116D01*
X179617Y125058D01*
X179657Y125048D01*
X179693Y125031D01*
X179810Y125009D01*
X179925Y124979D01*
X179985Y124975D01*
X180005Y124971D01*
X180026Y124973D01*
X180086Y124969D01*
X182111Y124969D01*
X183897Y123183D01*
X183897Y105417D01*
X182111Y103631D01*
X164345Y103631D01*
G37*
%LPD*%
%LPC*%
G36*
X113545Y103631D02*
X113545Y103631D01*
X111759Y105417D01*
X111759Y123183D01*
X113545Y124969D01*
X115570Y124969D01*
X115688Y124984D01*
X115807Y124991D01*
X115845Y125004D01*
X115886Y125009D01*
X115996Y125052D01*
X116109Y125089D01*
X116144Y125111D01*
X116181Y125126D01*
X116277Y125195D01*
X116378Y125259D01*
X116406Y125289D01*
X116439Y125312D01*
X116515Y125404D01*
X116596Y125491D01*
X116616Y125526D01*
X116641Y125557D01*
X116692Y125665D01*
X116750Y125769D01*
X116760Y125809D01*
X116777Y125845D01*
X116799Y125962D01*
X116829Y126077D01*
X116833Y126137D01*
X116837Y126157D01*
X116835Y126178D01*
X116839Y126238D01*
X116839Y129421D01*
X116827Y129519D01*
X116824Y129618D01*
X116807Y129677D01*
X116799Y129737D01*
X116763Y129829D01*
X116735Y129924D01*
X116705Y129976D01*
X116682Y130032D01*
X116624Y130113D01*
X116574Y130198D01*
X116508Y130273D01*
X116496Y130290D01*
X116486Y130298D01*
X116468Y130319D01*
X113637Y133149D01*
X112013Y137070D01*
X112013Y141314D01*
X113637Y145235D01*
X116639Y148237D01*
X120560Y149861D01*
X124804Y149861D01*
X128725Y148237D01*
X131727Y145235D01*
X133351Y141314D01*
X133351Y137070D01*
X131727Y133149D01*
X128709Y130131D01*
X128637Y130085D01*
X128524Y130021D01*
X128503Y130000D01*
X128478Y129985D01*
X128389Y129890D01*
X128296Y129800D01*
X128280Y129775D01*
X128260Y129753D01*
X128197Y129639D01*
X128129Y129529D01*
X128121Y129500D01*
X128106Y129475D01*
X128074Y129349D01*
X128036Y129225D01*
X128034Y129195D01*
X128027Y129167D01*
X128017Y129006D01*
X128017Y126238D01*
X128032Y126120D01*
X128039Y126001D01*
X128052Y125963D01*
X128057Y125922D01*
X128100Y125812D01*
X128137Y125699D01*
X128159Y125664D01*
X128174Y125627D01*
X128243Y125531D01*
X128307Y125430D01*
X128337Y125402D01*
X128360Y125369D01*
X128452Y125293D01*
X128539Y125212D01*
X128574Y125192D01*
X128605Y125167D01*
X128713Y125116D01*
X128817Y125058D01*
X128857Y125048D01*
X128893Y125031D01*
X129010Y125009D01*
X129125Y124979D01*
X129185Y124975D01*
X129205Y124971D01*
X129226Y124973D01*
X129286Y124969D01*
X131311Y124969D01*
X133097Y123183D01*
X133097Y105417D01*
X131311Y103631D01*
X113545Y103631D01*
G37*
%LPD*%
%LPC*%
G36*
X138945Y103631D02*
X138945Y103631D01*
X137159Y105417D01*
X137159Y123183D01*
X138945Y124969D01*
X140970Y124969D01*
X141088Y124984D01*
X141207Y124991D01*
X141245Y125004D01*
X141286Y125009D01*
X141396Y125052D01*
X141509Y125089D01*
X141544Y125111D01*
X141581Y125126D01*
X141677Y125195D01*
X141778Y125259D01*
X141806Y125289D01*
X141839Y125312D01*
X141915Y125404D01*
X141996Y125491D01*
X142016Y125526D01*
X142041Y125557D01*
X142092Y125665D01*
X142150Y125769D01*
X142160Y125809D01*
X142177Y125845D01*
X142199Y125962D01*
X142229Y126077D01*
X142233Y126137D01*
X142237Y126157D01*
X142235Y126178D01*
X142239Y126238D01*
X142239Y129421D01*
X142227Y129519D01*
X142224Y129618D01*
X142207Y129677D01*
X142199Y129737D01*
X142163Y129829D01*
X142135Y129924D01*
X142105Y129976D01*
X142082Y130032D01*
X142024Y130113D01*
X141974Y130198D01*
X141908Y130273D01*
X141896Y130290D01*
X141886Y130298D01*
X141868Y130319D01*
X139037Y133149D01*
X137413Y137070D01*
X137413Y141314D01*
X139037Y145235D01*
X142039Y148237D01*
X145960Y149861D01*
X150204Y149861D01*
X154125Y148237D01*
X157127Y145235D01*
X158751Y141314D01*
X158751Y137070D01*
X157127Y133149D01*
X154109Y130131D01*
X154037Y130085D01*
X153924Y130021D01*
X153903Y130000D01*
X153878Y129985D01*
X153789Y129890D01*
X153696Y129800D01*
X153680Y129775D01*
X153660Y129753D01*
X153597Y129639D01*
X153529Y129529D01*
X153521Y129500D01*
X153506Y129475D01*
X153474Y129349D01*
X153436Y129225D01*
X153434Y129195D01*
X153427Y129167D01*
X153417Y129006D01*
X153417Y126238D01*
X153432Y126120D01*
X153439Y126001D01*
X153452Y125963D01*
X153457Y125922D01*
X153500Y125812D01*
X153537Y125699D01*
X153559Y125664D01*
X153574Y125627D01*
X153643Y125531D01*
X153707Y125430D01*
X153737Y125402D01*
X153760Y125369D01*
X153852Y125293D01*
X153939Y125212D01*
X153974Y125192D01*
X154005Y125167D01*
X154113Y125116D01*
X154217Y125058D01*
X154257Y125048D01*
X154293Y125031D01*
X154410Y125009D01*
X154525Y124979D01*
X154585Y124975D01*
X154605Y124971D01*
X154626Y124973D01*
X154686Y124969D01*
X156711Y124969D01*
X158497Y123183D01*
X158497Y105417D01*
X156711Y103631D01*
X138945Y103631D01*
G37*
%LPD*%
%LPC*%
G36*
X215145Y103631D02*
X215145Y103631D01*
X213359Y105417D01*
X213359Y123183D01*
X215145Y124969D01*
X217170Y124969D01*
X217288Y124984D01*
X217407Y124991D01*
X217445Y125004D01*
X217486Y125009D01*
X217596Y125052D01*
X217709Y125089D01*
X217744Y125111D01*
X217781Y125126D01*
X217877Y125195D01*
X217978Y125259D01*
X218006Y125289D01*
X218039Y125312D01*
X218115Y125404D01*
X218196Y125491D01*
X218216Y125526D01*
X218241Y125557D01*
X218292Y125665D01*
X218350Y125769D01*
X218360Y125809D01*
X218377Y125845D01*
X218399Y125962D01*
X218429Y126077D01*
X218433Y126137D01*
X218437Y126157D01*
X218435Y126178D01*
X218439Y126238D01*
X218439Y129421D01*
X218427Y129519D01*
X218424Y129618D01*
X218407Y129677D01*
X218399Y129737D01*
X218363Y129829D01*
X218335Y129924D01*
X218305Y129976D01*
X218282Y130032D01*
X218224Y130113D01*
X218174Y130198D01*
X218108Y130273D01*
X218096Y130290D01*
X218086Y130298D01*
X218068Y130319D01*
X215237Y133149D01*
X213613Y137070D01*
X213613Y141314D01*
X215237Y145235D01*
X218239Y148237D01*
X222160Y149861D01*
X226404Y149861D01*
X230325Y148237D01*
X233327Y145235D01*
X234951Y141314D01*
X234951Y137070D01*
X233327Y133149D01*
X230309Y130131D01*
X230237Y130085D01*
X230124Y130021D01*
X230103Y130000D01*
X230078Y129985D01*
X229989Y129890D01*
X229896Y129800D01*
X229880Y129775D01*
X229860Y129753D01*
X229797Y129639D01*
X229729Y129529D01*
X229721Y129500D01*
X229706Y129475D01*
X229674Y129349D01*
X229636Y129225D01*
X229634Y129195D01*
X229627Y129167D01*
X229617Y129006D01*
X229617Y126238D01*
X229632Y126120D01*
X229639Y126001D01*
X229652Y125963D01*
X229657Y125922D01*
X229700Y125812D01*
X229737Y125699D01*
X229759Y125664D01*
X229774Y125627D01*
X229843Y125531D01*
X229907Y125430D01*
X229937Y125402D01*
X229960Y125369D01*
X230052Y125293D01*
X230139Y125212D01*
X230174Y125192D01*
X230205Y125167D01*
X230313Y125116D01*
X230417Y125058D01*
X230457Y125048D01*
X230493Y125031D01*
X230610Y125009D01*
X230725Y124979D01*
X230785Y124975D01*
X230805Y124971D01*
X230826Y124973D01*
X230886Y124969D01*
X232911Y124969D01*
X234697Y123183D01*
X234697Y105417D01*
X232911Y103631D01*
X215145Y103631D01*
G37*
%LPD*%
%LPC*%
G36*
X189745Y103631D02*
X189745Y103631D01*
X187959Y105417D01*
X187959Y123183D01*
X189745Y124969D01*
X191770Y124969D01*
X191888Y124984D01*
X192007Y124991D01*
X192045Y125004D01*
X192086Y125009D01*
X192196Y125052D01*
X192309Y125089D01*
X192344Y125111D01*
X192381Y125126D01*
X192477Y125195D01*
X192578Y125259D01*
X192606Y125289D01*
X192639Y125312D01*
X192715Y125404D01*
X192796Y125491D01*
X192816Y125526D01*
X192841Y125557D01*
X192892Y125665D01*
X192950Y125769D01*
X192960Y125809D01*
X192977Y125845D01*
X192999Y125962D01*
X193029Y126077D01*
X193033Y126137D01*
X193037Y126157D01*
X193035Y126178D01*
X193039Y126238D01*
X193039Y129421D01*
X193027Y129519D01*
X193024Y129618D01*
X193007Y129677D01*
X192999Y129737D01*
X192963Y129829D01*
X192935Y129924D01*
X192905Y129976D01*
X192882Y130032D01*
X192824Y130113D01*
X192774Y130198D01*
X192708Y130273D01*
X192696Y130290D01*
X192686Y130298D01*
X192668Y130319D01*
X189837Y133149D01*
X188213Y137070D01*
X188213Y141314D01*
X189837Y145235D01*
X192839Y148237D01*
X196760Y149861D01*
X201004Y149861D01*
X204925Y148237D01*
X207927Y145235D01*
X209551Y141314D01*
X209551Y137070D01*
X207927Y133149D01*
X204909Y130131D01*
X204837Y130085D01*
X204724Y130021D01*
X204703Y130000D01*
X204678Y129985D01*
X204589Y129890D01*
X204496Y129800D01*
X204480Y129775D01*
X204460Y129753D01*
X204397Y129639D01*
X204329Y129529D01*
X204321Y129500D01*
X204306Y129475D01*
X204274Y129349D01*
X204236Y129225D01*
X204234Y129195D01*
X204227Y129167D01*
X204217Y129006D01*
X204217Y126238D01*
X204232Y126120D01*
X204239Y126001D01*
X204252Y125963D01*
X204257Y125922D01*
X204300Y125812D01*
X204337Y125699D01*
X204359Y125664D01*
X204374Y125627D01*
X204443Y125531D01*
X204507Y125430D01*
X204537Y125402D01*
X204560Y125369D01*
X204652Y125293D01*
X204739Y125212D01*
X204774Y125192D01*
X204805Y125167D01*
X204913Y125116D01*
X205017Y125058D01*
X205057Y125048D01*
X205093Y125031D01*
X205210Y125009D01*
X205325Y124979D01*
X205385Y124975D01*
X205405Y124971D01*
X205426Y124973D01*
X205486Y124969D01*
X207511Y124969D01*
X209297Y123183D01*
X209297Y105417D01*
X207511Y103631D01*
X189745Y103631D01*
G37*
%LPD*%
%LPC*%
G36*
X258825Y48767D02*
X258825Y48767D01*
X258825Y57151D01*
X265528Y57151D01*
X267226Y56882D01*
X268861Y56351D01*
X270393Y55570D01*
X271784Y54559D01*
X272999Y53344D01*
X274010Y51953D01*
X274791Y50421D01*
X275322Y48786D01*
X275325Y48767D01*
X258825Y48767D01*
G37*
%LPD*%
%LPC*%
G36*
X237247Y48767D02*
X237247Y48767D01*
X237250Y48786D01*
X237781Y50421D01*
X238562Y51953D01*
X239573Y53344D01*
X240788Y54559D01*
X242179Y55570D01*
X243711Y56351D01*
X245346Y56882D01*
X247044Y57151D01*
X253747Y57151D01*
X253747Y48767D01*
X237247Y48767D01*
G37*
%LPD*%
%LPC*%
G36*
X258825Y35305D02*
X258825Y35305D01*
X258825Y43689D01*
X275325Y43689D01*
X275322Y43670D01*
X274791Y42035D01*
X274010Y40503D01*
X272999Y39112D01*
X271784Y37897D01*
X270393Y36886D01*
X268861Y36105D01*
X267226Y35574D01*
X265528Y35305D01*
X258825Y35305D01*
G37*
%LPD*%
%LPC*%
G36*
X247044Y35305D02*
X247044Y35305D01*
X245346Y35574D01*
X243711Y36105D01*
X242179Y36886D01*
X240788Y37897D01*
X239573Y39112D01*
X238562Y40503D01*
X237781Y42035D01*
X237250Y43670D01*
X237247Y43689D01*
X253747Y43689D01*
X253747Y35305D01*
X247044Y35305D01*
G37*
%LPD*%
%LPC*%
G36*
X322833Y64769D02*
X322833Y64769D01*
X322833Y74687D01*
X323268Y74618D01*
X325169Y74000D01*
X326951Y73093D01*
X328568Y71918D01*
X329982Y70504D01*
X331157Y68887D01*
X332064Y67105D01*
X332682Y65204D01*
X332751Y64769D01*
X322833Y64769D01*
G37*
%LPD*%
%LPC*%
G36*
X322833Y59691D02*
X322833Y59691D01*
X332751Y59691D01*
X332682Y59256D01*
X332064Y57355D01*
X331157Y55573D01*
X329982Y53956D01*
X328568Y52542D01*
X326951Y51367D01*
X325169Y50460D01*
X323268Y49842D01*
X322833Y49773D01*
X322833Y59691D01*
G37*
%LPD*%
%LPC*%
G36*
X323341Y18035D02*
X323341Y18035D01*
X333259Y18035D01*
X333190Y17600D01*
X332572Y15699D01*
X331665Y13917D01*
X330490Y12300D01*
X329076Y10886D01*
X327459Y9711D01*
X325677Y8804D01*
X323776Y8186D01*
X323341Y8117D01*
X323341Y18035D01*
G37*
%LPD*%
%LPC*%
G36*
X458215Y462279D02*
X458215Y462279D01*
X458215Y471425D01*
X458472Y471385D01*
X460259Y470804D01*
X461933Y469951D01*
X463454Y468846D01*
X464782Y467518D01*
X465887Y465997D01*
X466740Y464323D01*
X467321Y462536D01*
X467361Y462279D01*
X458215Y462279D01*
G37*
%LPD*%
%LPC*%
G36*
X450595Y49021D02*
X450595Y49021D01*
X450595Y58167D01*
X450852Y58127D01*
X452639Y57546D01*
X454313Y56693D01*
X455834Y55588D01*
X457162Y54260D01*
X458267Y52739D01*
X459120Y51065D01*
X459701Y49278D01*
X459741Y49021D01*
X450595Y49021D01*
G37*
%LPD*%
%LPC*%
G36*
X208533Y470915D02*
X208533Y470915D01*
X208573Y471172D01*
X209154Y472959D01*
X210007Y474633D01*
X211112Y476154D01*
X212440Y477482D01*
X213961Y478587D01*
X215635Y479440D01*
X217422Y480021D01*
X217679Y480061D01*
X217679Y470915D01*
X208533Y470915D01*
G37*
%LPD*%
%LPC*%
G36*
X458215Y457201D02*
X458215Y457201D01*
X467361Y457201D01*
X467321Y456944D01*
X466740Y455157D01*
X465887Y453483D01*
X464782Y451962D01*
X463454Y450634D01*
X461933Y449529D01*
X460259Y448676D01*
X458472Y448095D01*
X458215Y448055D01*
X458215Y457201D01*
G37*
%LPD*%
%LPC*%
G36*
X44449Y462025D02*
X44449Y462025D01*
X44489Y462282D01*
X45070Y464069D01*
X45923Y465743D01*
X47028Y467264D01*
X48356Y468592D01*
X49877Y469697D01*
X51551Y470550D01*
X53338Y471131D01*
X53595Y471171D01*
X53595Y462025D01*
X44449Y462025D01*
G37*
%LPD*%
%LPC*%
G36*
X436371Y49021D02*
X436371Y49021D01*
X436411Y49278D01*
X436992Y51065D01*
X437845Y52739D01*
X438950Y54260D01*
X440278Y55588D01*
X441799Y56693D01*
X443473Y57546D01*
X445260Y58127D01*
X445517Y58167D01*
X445517Y49021D01*
X436371Y49021D01*
G37*
%LPD*%
%LPC*%
G36*
X53338Y447841D02*
X53338Y447841D01*
X51551Y448422D01*
X49877Y449275D01*
X48356Y450380D01*
X47028Y451708D01*
X45923Y453229D01*
X45070Y454903D01*
X44489Y456690D01*
X44449Y456947D01*
X53595Y456947D01*
X53595Y447801D01*
X53338Y447841D01*
G37*
%LPD*%
%LPC*%
G36*
X150621Y395731D02*
X150621Y395731D01*
X150621Y403353D01*
X156036Y403353D01*
X156683Y403180D01*
X157262Y402845D01*
X157735Y402372D01*
X158070Y401793D01*
X158243Y401146D01*
X158243Y395731D01*
X150621Y395731D01*
G37*
%LPD*%
%LPC*%
G36*
X150621Y421893D02*
X150621Y421893D01*
X150621Y429515D01*
X156036Y429515D01*
X156683Y429342D01*
X157262Y429007D01*
X157735Y428534D01*
X158070Y427955D01*
X158243Y427308D01*
X158243Y421893D01*
X150621Y421893D01*
G37*
%LPD*%
%LPC*%
G36*
X480567Y116839D02*
X480567Y116839D01*
X480567Y124461D01*
X485982Y124461D01*
X486629Y124288D01*
X487208Y123953D01*
X487681Y123480D01*
X488016Y122901D01*
X488189Y122254D01*
X488189Y116839D01*
X480567Y116839D01*
G37*
%LPD*%
%LPC*%
G36*
X150621Y383031D02*
X150621Y383031D01*
X150621Y390653D01*
X158243Y390653D01*
X158243Y385238D01*
X158070Y384591D01*
X157735Y384012D01*
X157262Y383539D01*
X156683Y383204D01*
X156036Y383031D01*
X150621Y383031D01*
G37*
%LPD*%
%LPC*%
G36*
X137921Y395731D02*
X137921Y395731D01*
X137921Y401146D01*
X138094Y401793D01*
X138429Y402372D01*
X138902Y402845D01*
X139481Y403180D01*
X140128Y403353D01*
X145543Y403353D01*
X145543Y395731D01*
X137921Y395731D01*
G37*
%LPD*%
%LPC*%
G36*
X150621Y409193D02*
X150621Y409193D01*
X150621Y416815D01*
X158243Y416815D01*
X158243Y411400D01*
X158070Y410753D01*
X157735Y410174D01*
X157262Y409701D01*
X156683Y409366D01*
X156036Y409193D01*
X150621Y409193D01*
G37*
%LPD*%
%LPC*%
G36*
X468121Y141731D02*
X468121Y141731D01*
X468121Y147146D01*
X468294Y147793D01*
X468629Y148372D01*
X469102Y148845D01*
X469681Y149180D01*
X470328Y149353D01*
X475743Y149353D01*
X475743Y141731D01*
X468121Y141731D01*
G37*
%LPD*%
%LPC*%
G36*
X467867Y116839D02*
X467867Y116839D01*
X467867Y122254D01*
X468040Y122901D01*
X468375Y123480D01*
X468848Y123953D01*
X469427Y124288D01*
X470074Y124461D01*
X475489Y124461D01*
X475489Y116839D01*
X467867Y116839D01*
G37*
%LPD*%
%LPC*%
G36*
X480567Y104139D02*
X480567Y104139D01*
X480567Y111761D01*
X488189Y111761D01*
X488189Y106346D01*
X488016Y105699D01*
X487681Y105120D01*
X487208Y104647D01*
X486629Y104312D01*
X485982Y104139D01*
X480567Y104139D01*
G37*
%LPD*%
%LPC*%
G36*
X137921Y421893D02*
X137921Y421893D01*
X137921Y427308D01*
X138094Y427955D01*
X138429Y428534D01*
X138902Y429007D01*
X139481Y429342D01*
X140128Y429515D01*
X145543Y429515D01*
X145543Y421893D01*
X137921Y421893D01*
G37*
%LPD*%
%LPC*%
G36*
X140128Y383031D02*
X140128Y383031D01*
X139481Y383204D01*
X138902Y383539D01*
X138429Y384012D01*
X138094Y384591D01*
X137921Y385238D01*
X137921Y390653D01*
X145543Y390653D01*
X145543Y383031D01*
X140128Y383031D01*
G37*
%LPD*%
%LPC*%
G36*
X140128Y409193D02*
X140128Y409193D01*
X139481Y409366D01*
X138902Y409701D01*
X138429Y410174D01*
X138094Y410753D01*
X137921Y411400D01*
X137921Y416815D01*
X145543Y416815D01*
X145543Y409193D01*
X140128Y409193D01*
G37*
%LPD*%
%LPC*%
G36*
X470328Y129031D02*
X470328Y129031D01*
X469681Y129204D01*
X469102Y129539D01*
X468629Y130012D01*
X468294Y130591D01*
X468121Y131238D01*
X468121Y136653D01*
X475743Y136653D01*
X475743Y129031D01*
X470328Y129031D01*
G37*
%LPD*%
%LPC*%
G36*
X470074Y104139D02*
X470074Y104139D01*
X469427Y104312D01*
X468848Y104647D01*
X468375Y105120D01*
X468040Y105699D01*
X467867Y106346D01*
X467867Y111761D01*
X475489Y111761D01*
X475489Y104139D01*
X470074Y104139D01*
G37*
%LPD*%
%LPC*%
G36*
X148081Y393191D02*
X148081Y393191D01*
X148081Y393193D01*
X148083Y393193D01*
X148083Y393191D01*
X148081Y393191D01*
G37*
%LPD*%
%LPC*%
G36*
X148081Y419353D02*
X148081Y419353D01*
X148081Y419355D01*
X148083Y419355D01*
X148083Y419353D01*
X148081Y419353D01*
G37*
%LPD*%
%LPC*%
G36*
X256285Y46227D02*
X256285Y46227D01*
X256285Y46229D01*
X256287Y46229D01*
X256287Y46227D01*
X256285Y46227D01*
G37*
%LPD*%
%LPC*%
G36*
X478027Y114299D02*
X478027Y114299D01*
X478027Y114301D01*
X478029Y114301D01*
X478029Y114299D01*
X478027Y114299D01*
G37*
%LPD*%
D10*
X292862Y20574D03*
X320802Y20574D03*
X292354Y62230D03*
X320294Y62230D03*
D11*
X220218Y468376D03*
X245618Y468376D03*
X271018Y468376D03*
X296418Y468376D03*
X106934Y459486D03*
X81534Y459486D03*
X56134Y459486D03*
X404876Y459740D03*
X430276Y459740D03*
X455676Y459740D03*
D12*
X264668Y20828D02*
X247904Y20828D01*
X247904Y46228D02*
X264668Y46228D01*
X264668Y71628D02*
X247904Y71628D01*
D11*
X448056Y46482D03*
X448056Y21082D03*
D13*
X409702Y24770D02*
X409702Y41270D01*
X384302Y41270D02*
X384302Y24770D01*
X358902Y24770D02*
X358902Y41270D01*
D14*
X21082Y393192D03*
D15*
X46482Y393192D03*
X71882Y393192D03*
X97282Y393192D03*
X122682Y393192D03*
D16*
X148082Y393192D03*
D15*
X173482Y393192D03*
X198882Y393192D03*
X224282Y393192D03*
X249682Y393192D03*
X275082Y393192D03*
X300482Y393192D03*
X325882Y393192D03*
X351282Y393192D03*
X376682Y393192D03*
X402082Y393192D03*
X427482Y393192D03*
X452882Y393192D03*
D14*
X478282Y393192D03*
D15*
X21082Y139192D03*
X46482Y139192D03*
X71882Y139192D03*
X97282Y139192D03*
X122682Y139192D03*
X148082Y139192D03*
X173482Y139192D03*
X198882Y139192D03*
X224282Y139192D03*
X249682Y139192D03*
X275082Y139192D03*
X300482Y139192D03*
D16*
X325882Y139192D03*
D15*
X351282Y139192D03*
X376682Y139192D03*
X402082Y139192D03*
X427482Y139192D03*
X452882Y139192D03*
D16*
X478282Y139192D03*
X478028Y114300D03*
X452628Y114300D03*
X427228Y114300D03*
X401828Y114300D03*
X376428Y114300D03*
X351028Y114300D03*
X325628Y114300D03*
X300228Y114300D03*
X274828Y114300D03*
X249428Y114300D03*
X224028Y114300D03*
X198628Y114300D03*
X173228Y114300D03*
X147828Y114300D03*
X122428Y114300D03*
X97028Y114300D03*
X71628Y114300D03*
X46228Y114300D03*
X20828Y114300D03*
X21082Y419354D03*
X46482Y419354D03*
X71882Y419354D03*
X97282Y419354D03*
X122682Y419354D03*
X148082Y419354D03*
X173482Y419354D03*
X198882Y419354D03*
X224282Y419354D03*
X249682Y419354D03*
X275082Y419354D03*
X300482Y419354D03*
X325882Y419354D03*
X351282Y419354D03*
X376682Y419354D03*
X402082Y419354D03*
X427482Y419354D03*
X452882Y419354D03*
X478282Y419354D03*
D17*
X282956Y71628D02*
X256286Y71628D01*
X282956Y71628D02*
X292354Y62230D01*
X21082Y393192D02*
X21082Y419354D01*
X292354Y76962D02*
X292354Y62230D01*
X292354Y76962D02*
X304546Y89154D01*
X486664Y89154D01*
X486918Y88900D01*
X496443Y98425D01*
X496443Y164719D01*
X305308Y355854D02*
X35814Y355854D01*
X21082Y370586D01*
X21082Y393192D01*
X305308Y355854D02*
X496443Y164719D01*
X21082Y419354D02*
X21082Y429768D01*
X29718Y438404D02*
X73406Y438404D01*
X81534Y446532D01*
X81534Y459486D01*
X29718Y438404D02*
X21082Y429768D01*
X81534Y459486D02*
X111760Y489712D01*
X286766Y489712D01*
X296418Y480060D01*
X296418Y468376D01*
X377190Y468376D01*
X389382Y480568D01*
X423672Y480568D01*
X430276Y473964D01*
X430276Y459740D01*
X300482Y419354D02*
X300482Y393192D01*
X300482Y419354D02*
X300482Y422402D01*
X321310Y443230D01*
X388366Y443230D01*
X404876Y459740D01*
X292608Y20828D02*
X256286Y20828D01*
X292608Y20828D02*
X292862Y20574D01*
X312420Y40132D01*
X351790Y40132D02*
X358902Y33020D01*
X351790Y40132D02*
X312420Y40132D01*
X122682Y393192D02*
X122682Y419354D01*
X122682Y443484D01*
X106934Y459232D01*
X106934Y459486D01*
X198882Y419354D02*
X198882Y393192D01*
X198882Y419354D02*
X198882Y420878D01*
X216916Y438912D01*
X260858Y438912D01*
X271018Y449072D01*
X271018Y468376D01*
X173482Y419354D02*
X173482Y393192D01*
X245618Y460502D02*
X245618Y468376D01*
X235458Y450342D02*
X186944Y450342D01*
X173482Y436880D01*
X173482Y419354D01*
X235458Y450342D02*
X245618Y460502D01*
X421640Y21082D02*
X448056Y21082D01*
X421640Y21082D02*
X409702Y33020D01*
X384302Y33020D01*
X325882Y139192D02*
X325628Y139569D01*
X325628Y114300D01*
X478282Y393192D02*
X478282Y419354D01*
X452882Y419354D02*
X452882Y393192D01*
X427482Y393192D02*
X427482Y419354D01*
X402082Y419354D02*
X402082Y393192D01*
X376682Y393192D02*
X376682Y419354D01*
X351282Y419354D02*
X351282Y393192D01*
X325882Y393192D02*
X325882Y419354D01*
X275082Y419354D02*
X275082Y393192D01*
X249682Y393192D02*
X249682Y419354D01*
X224282Y419354D02*
X224282Y393192D01*
X97282Y393192D02*
X97282Y419354D01*
X71882Y419354D02*
X71882Y393192D01*
X46482Y393192D02*
X46482Y419354D01*
X20828Y139569D02*
X20828Y114300D01*
X21082Y139192D02*
X20828Y139569D01*
X46228Y139569D02*
X46482Y139192D01*
X46228Y139569D02*
X46228Y114300D01*
X71628Y114300D02*
X71628Y139569D01*
X71882Y139192D01*
X452628Y139569D02*
X452628Y114300D01*
X452882Y139192D02*
X452628Y139569D01*
X427228Y139569D02*
X427228Y114300D01*
X427482Y139192D02*
X427228Y139569D01*
X401828Y139569D02*
X401828Y114300D01*
X402082Y139192D02*
X401828Y139569D01*
X376682Y139192D02*
X376428Y139569D01*
X376428Y114300D01*
X351282Y139192D02*
X351028Y139569D01*
X351028Y114300D01*
X300228Y114300D02*
X300228Y139569D01*
X300482Y139192D01*
X274828Y139569D02*
X274828Y114300D01*
X275082Y139192D02*
X274828Y139569D01*
X249428Y139569D02*
X249428Y114300D01*
X249682Y139192D02*
X249428Y139569D01*
X224028Y139569D02*
X224028Y114300D01*
X224282Y139192D02*
X224028Y139569D01*
X198628Y139569D02*
X198628Y114300D01*
X198882Y139192D02*
X198628Y139569D01*
X173228Y139569D02*
X173228Y114300D01*
X173482Y139192D02*
X173228Y139569D01*
X147828Y139569D02*
X147828Y114300D01*
X148082Y139192D02*
X147828Y139569D01*
X122428Y139569D02*
X122428Y114300D01*
X122682Y139192D02*
X122428Y139569D01*
X97028Y139569D02*
X97028Y114300D01*
X97282Y139192D02*
X97028Y139569D01*
M02*
