G04 EAGLE Gerber RS-274X export*
G75*
%MOMM*%
%FSLAX34Y34*%
%LPD*%
%IN*%
%IPPOS*%
%AMOC8*
5,1,8,0,0,1.08239X$1,22.5*%
G01*
%ADD10C,0.254000*%


D10*
X0Y0D02*
X508000Y0D01*
X508000Y508000D01*
X0Y508000D01*
X0Y0D01*
X41275Y482080D02*
X41207Y481043D01*
X41071Y480013D01*
X40869Y478993D01*
X40600Y477989D01*
X40265Y477005D01*
X39868Y476045D01*
X39408Y475113D01*
X38888Y474212D01*
X38311Y473348D01*
X37678Y472524D01*
X36993Y471742D01*
X36258Y471007D01*
X35476Y470322D01*
X34652Y469689D01*
X33788Y469112D01*
X32887Y468592D01*
X31955Y468132D01*
X30995Y467735D01*
X30011Y467400D01*
X29007Y467131D01*
X27987Y466929D01*
X26957Y466793D01*
X25920Y466725D01*
X24880Y466725D01*
X23843Y466793D01*
X22813Y466929D01*
X21793Y467131D01*
X20789Y467400D01*
X19805Y467735D01*
X18845Y468132D01*
X17913Y468592D01*
X17012Y469112D01*
X16148Y469689D01*
X15324Y470322D01*
X14542Y471007D01*
X13807Y471742D01*
X13122Y472524D01*
X12489Y473348D01*
X11912Y474212D01*
X11392Y475113D01*
X10932Y476045D01*
X10535Y477005D01*
X10200Y477989D01*
X9931Y478993D01*
X9729Y480013D01*
X9593Y481043D01*
X9525Y482080D01*
X9525Y483120D01*
X9593Y484157D01*
X9729Y485187D01*
X9931Y486207D01*
X10200Y487211D01*
X10535Y488195D01*
X10932Y489155D01*
X11392Y490087D01*
X11912Y490988D01*
X12489Y491852D01*
X13122Y492676D01*
X13807Y493458D01*
X14542Y494193D01*
X15324Y494878D01*
X16148Y495511D01*
X17012Y496088D01*
X17913Y496608D01*
X18845Y497068D01*
X19805Y497465D01*
X20789Y497800D01*
X21793Y498069D01*
X22813Y498271D01*
X23843Y498407D01*
X24880Y498475D01*
X25920Y498475D01*
X26957Y498407D01*
X27987Y498271D01*
X29007Y498069D01*
X30011Y497800D01*
X30995Y497465D01*
X31955Y497068D01*
X32887Y496608D01*
X33788Y496088D01*
X34652Y495511D01*
X35476Y494878D01*
X36258Y494193D01*
X36993Y493458D01*
X37678Y492676D01*
X38311Y491852D01*
X38888Y490988D01*
X39408Y490087D01*
X39868Y489155D01*
X40265Y488195D01*
X40600Y487211D01*
X40869Y486207D01*
X41071Y485187D01*
X41207Y484157D01*
X41275Y483120D01*
X41275Y482080D01*
X41275Y24880D02*
X41207Y23843D01*
X41071Y22813D01*
X40869Y21793D01*
X40600Y20789D01*
X40265Y19805D01*
X39868Y18845D01*
X39408Y17913D01*
X38888Y17012D01*
X38311Y16148D01*
X37678Y15324D01*
X36993Y14542D01*
X36258Y13807D01*
X35476Y13122D01*
X34652Y12489D01*
X33788Y11912D01*
X32887Y11392D01*
X31955Y10932D01*
X30995Y10535D01*
X30011Y10200D01*
X29007Y9931D01*
X27987Y9729D01*
X26957Y9593D01*
X25920Y9525D01*
X24880Y9525D01*
X23843Y9593D01*
X22813Y9729D01*
X21793Y9931D01*
X20789Y10200D01*
X19805Y10535D01*
X18845Y10932D01*
X17913Y11392D01*
X17012Y11912D01*
X16148Y12489D01*
X15324Y13122D01*
X14542Y13807D01*
X13807Y14542D01*
X13122Y15324D01*
X12489Y16148D01*
X11912Y17012D01*
X11392Y17913D01*
X10932Y18845D01*
X10535Y19805D01*
X10200Y20789D01*
X9931Y21793D01*
X9729Y22813D01*
X9593Y23843D01*
X9525Y24880D01*
X9525Y25920D01*
X9593Y26957D01*
X9729Y27987D01*
X9931Y29007D01*
X10200Y30011D01*
X10535Y30995D01*
X10932Y31955D01*
X11392Y32887D01*
X11912Y33788D01*
X12489Y34652D01*
X13122Y35476D01*
X13807Y36258D01*
X14542Y36993D01*
X15324Y37678D01*
X16148Y38311D01*
X17012Y38888D01*
X17913Y39408D01*
X18845Y39868D01*
X19805Y40265D01*
X20789Y40600D01*
X21793Y40869D01*
X22813Y41071D01*
X23843Y41207D01*
X24880Y41275D01*
X25920Y41275D01*
X26957Y41207D01*
X27987Y41071D01*
X29007Y40869D01*
X30011Y40600D01*
X30995Y40265D01*
X31955Y39868D01*
X32887Y39408D01*
X33788Y38888D01*
X34652Y38311D01*
X35476Y37678D01*
X36258Y36993D01*
X36993Y36258D01*
X37678Y35476D01*
X38311Y34652D01*
X38888Y33788D01*
X39408Y32887D01*
X39868Y31955D01*
X40265Y30995D01*
X40600Y30011D01*
X40869Y29007D01*
X41071Y27987D01*
X41207Y26957D01*
X41275Y25920D01*
X41275Y24880D01*
X498475Y24880D02*
X498407Y23843D01*
X498271Y22813D01*
X498069Y21793D01*
X497800Y20789D01*
X497465Y19805D01*
X497068Y18845D01*
X496608Y17913D01*
X496088Y17012D01*
X495511Y16148D01*
X494878Y15324D01*
X494193Y14542D01*
X493458Y13807D01*
X492676Y13122D01*
X491852Y12489D01*
X490988Y11912D01*
X490087Y11392D01*
X489155Y10932D01*
X488195Y10535D01*
X487211Y10200D01*
X486207Y9931D01*
X485187Y9729D01*
X484157Y9593D01*
X483120Y9525D01*
X482080Y9525D01*
X481043Y9593D01*
X480013Y9729D01*
X478993Y9931D01*
X477989Y10200D01*
X477005Y10535D01*
X476045Y10932D01*
X475113Y11392D01*
X474212Y11912D01*
X473348Y12489D01*
X472524Y13122D01*
X471742Y13807D01*
X471007Y14542D01*
X470322Y15324D01*
X469689Y16148D01*
X469112Y17012D01*
X468592Y17913D01*
X468132Y18845D01*
X467735Y19805D01*
X467400Y20789D01*
X467131Y21793D01*
X466929Y22813D01*
X466793Y23843D01*
X466725Y24880D01*
X466725Y25920D01*
X466793Y26957D01*
X466929Y27987D01*
X467131Y29007D01*
X467400Y30011D01*
X467735Y30995D01*
X468132Y31955D01*
X468592Y32887D01*
X469112Y33788D01*
X469689Y34652D01*
X470322Y35476D01*
X471007Y36258D01*
X471742Y36993D01*
X472524Y37678D01*
X473348Y38311D01*
X474212Y38888D01*
X475113Y39408D01*
X476045Y39868D01*
X477005Y40265D01*
X477989Y40600D01*
X478993Y40869D01*
X480013Y41071D01*
X481043Y41207D01*
X482080Y41275D01*
X483120Y41275D01*
X484157Y41207D01*
X485187Y41071D01*
X486207Y40869D01*
X487211Y40600D01*
X488195Y40265D01*
X489155Y39868D01*
X490087Y39408D01*
X490988Y38888D01*
X491852Y38311D01*
X492676Y37678D01*
X493458Y36993D01*
X494193Y36258D01*
X494878Y35476D01*
X495511Y34652D01*
X496088Y33788D01*
X496608Y32887D01*
X497068Y31955D01*
X497465Y30995D01*
X497800Y30011D01*
X498069Y29007D01*
X498271Y27987D01*
X498407Y26957D01*
X498475Y25920D01*
X498475Y24880D01*
X498475Y482080D02*
X498407Y481043D01*
X498271Y480013D01*
X498069Y478993D01*
X497800Y477989D01*
X497465Y477005D01*
X497068Y476045D01*
X496608Y475113D01*
X496088Y474212D01*
X495511Y473348D01*
X494878Y472524D01*
X494193Y471742D01*
X493458Y471007D01*
X492676Y470322D01*
X491852Y469689D01*
X490988Y469112D01*
X490087Y468592D01*
X489155Y468132D01*
X488195Y467735D01*
X487211Y467400D01*
X486207Y467131D01*
X485187Y466929D01*
X484157Y466793D01*
X483120Y466725D01*
X482080Y466725D01*
X481043Y466793D01*
X480013Y466929D01*
X478993Y467131D01*
X477989Y467400D01*
X477005Y467735D01*
X476045Y468132D01*
X475113Y468592D01*
X474212Y469112D01*
X473348Y469689D01*
X472524Y470322D01*
X471742Y471007D01*
X471007Y471742D01*
X470322Y472524D01*
X469689Y473348D01*
X469112Y474212D01*
X468592Y475113D01*
X468132Y476045D01*
X467735Y477005D01*
X467400Y477989D01*
X467131Y478993D01*
X466929Y480013D01*
X466793Y481043D01*
X466725Y482080D01*
X466725Y483120D01*
X466793Y484157D01*
X466929Y485187D01*
X467131Y486207D01*
X467400Y487211D01*
X467735Y488195D01*
X468132Y489155D01*
X468592Y490087D01*
X469112Y490988D01*
X469689Y491852D01*
X470322Y492676D01*
X471007Y493458D01*
X471742Y494193D01*
X472524Y494878D01*
X473348Y495511D01*
X474212Y496088D01*
X475113Y496608D01*
X476045Y497068D01*
X477005Y497465D01*
X477989Y497800D01*
X478993Y498069D01*
X480013Y498271D01*
X481043Y498407D01*
X482080Y498475D01*
X483120Y498475D01*
X484157Y498407D01*
X485187Y498271D01*
X486207Y498069D01*
X487211Y497800D01*
X488195Y497465D01*
X489155Y497068D01*
X490087Y496608D01*
X490988Y496088D01*
X491852Y495511D01*
X492676Y494878D01*
X493458Y494193D01*
X494193Y493458D01*
X494878Y492676D01*
X495511Y491852D01*
X496088Y490988D01*
X496608Y490087D01*
X497068Y489155D01*
X497465Y488195D01*
X497800Y487211D01*
X498069Y486207D01*
X498271Y485187D01*
X498407Y484157D01*
X498475Y483120D01*
X498475Y482080D01*
M02*
