G04 EAGLE Gerber RS-274X export*
G75*
%MOMM*%
%FSLAX34Y34*%
%LPD*%
%INSoldermask Top*%
%IPPOS*%
%AMOC8*
5,1,8,0,0,1.08239X$1,22.5*%
G01*
%ADD10R,13.716000X10.160000*%
%ADD11C,3.378200*%
%ADD12C,2.082800*%
%ADD13C,1.879600*%
%ADD14C,1.853200*%
%ADD15P,1.869504X8X292.500000*%
%ADD16C,1.727200*%
%ADD17R,1.727200X1.727200*%

G36*
X320260Y57207D02*
X320260Y57207D01*
X320335Y57204D01*
X321311Y57306D01*
X321359Y57320D01*
X321449Y57336D01*
X322378Y57652D01*
X322422Y57677D01*
X322507Y57713D01*
X323342Y58227D01*
X323379Y58261D01*
X323454Y58315D01*
X324154Y59003D01*
X324183Y59044D01*
X324243Y59113D01*
X324772Y59940D01*
X324791Y59986D01*
X324835Y60067D01*
X325167Y60990D01*
X325175Y61040D01*
X325200Y61129D01*
X325318Y62103D01*
X325315Y62153D01*
X325319Y62239D01*
X325224Y63241D01*
X325210Y63290D01*
X325194Y63380D01*
X324878Y64336D01*
X324854Y64381D01*
X324819Y64465D01*
X324297Y65326D01*
X324264Y65364D01*
X324211Y65439D01*
X323511Y66163D01*
X323470Y66192D01*
X323401Y66253D01*
X322558Y66803D01*
X322512Y66823D01*
X322431Y66867D01*
X321487Y67215D01*
X321437Y67224D01*
X321349Y67249D01*
X320351Y67379D01*
X320308Y67377D01*
X320182Y67378D01*
X319171Y67239D01*
X319123Y67223D01*
X319033Y67204D01*
X318078Y66842D01*
X318035Y66816D01*
X317951Y66778D01*
X317101Y66213D01*
X317064Y66178D01*
X316992Y66121D01*
X316288Y65382D01*
X316260Y65339D01*
X316202Y65268D01*
X315681Y64390D01*
X315663Y64343D01*
X315622Y64261D01*
X315309Y63289D01*
X315302Y63239D01*
X315281Y63150D01*
X315192Y62132D01*
X315197Y62082D01*
X315196Y61991D01*
X315327Y61027D01*
X315343Y60979D01*
X315362Y60890D01*
X315704Y59979D01*
X315730Y59936D01*
X315769Y59853D01*
X316306Y59041D01*
X316341Y59005D01*
X316397Y58932D01*
X317101Y58260D01*
X317143Y58233D01*
X317214Y58174D01*
X318050Y57676D01*
X318097Y57658D01*
X318179Y57618D01*
X319105Y57318D01*
X319155Y57311D01*
X319244Y57289D01*
X320213Y57203D01*
X320260Y57207D01*
G37*
G36*
X292269Y57207D02*
X292269Y57207D01*
X292344Y57204D01*
X293320Y57306D01*
X293368Y57320D01*
X293458Y57336D01*
X294387Y57652D01*
X294431Y57677D01*
X294516Y57713D01*
X295351Y58227D01*
X295388Y58261D01*
X295463Y58315D01*
X296163Y59003D01*
X296192Y59044D01*
X296252Y59113D01*
X296781Y59940D01*
X296800Y59986D01*
X296844Y60067D01*
X297176Y60990D01*
X297184Y61040D01*
X297209Y61129D01*
X297327Y62103D01*
X297324Y62153D01*
X297328Y62239D01*
X297233Y63241D01*
X297219Y63290D01*
X297203Y63380D01*
X296887Y64336D01*
X296863Y64381D01*
X296828Y64465D01*
X296306Y65326D01*
X296273Y65364D01*
X296220Y65439D01*
X295520Y66163D01*
X295479Y66192D01*
X295410Y66253D01*
X294567Y66803D01*
X294521Y66823D01*
X294440Y66867D01*
X293496Y67215D01*
X293446Y67224D01*
X293358Y67249D01*
X292360Y67379D01*
X292317Y67377D01*
X292191Y67378D01*
X291180Y67239D01*
X291132Y67223D01*
X291042Y67204D01*
X290087Y66842D01*
X290044Y66816D01*
X289960Y66778D01*
X289110Y66213D01*
X289073Y66178D01*
X289001Y66121D01*
X288297Y65382D01*
X288269Y65339D01*
X288211Y65268D01*
X287690Y64390D01*
X287672Y64343D01*
X287631Y64261D01*
X287318Y63289D01*
X287311Y63239D01*
X287290Y63150D01*
X287201Y62132D01*
X287206Y62082D01*
X287205Y61991D01*
X287336Y61027D01*
X287352Y60979D01*
X287371Y60890D01*
X287713Y59979D01*
X287739Y59936D01*
X287778Y59853D01*
X288315Y59041D01*
X288350Y59005D01*
X288406Y58932D01*
X289110Y58260D01*
X289152Y58233D01*
X289223Y58174D01*
X290059Y57676D01*
X290106Y57658D01*
X290188Y57618D01*
X291114Y57318D01*
X291164Y57311D01*
X291253Y57289D01*
X292222Y57203D01*
X292269Y57207D01*
G37*
G36*
X320768Y15551D02*
X320768Y15551D01*
X320843Y15548D01*
X321819Y15650D01*
X321867Y15664D01*
X321957Y15680D01*
X322886Y15996D01*
X322930Y16021D01*
X323015Y16057D01*
X323850Y16571D01*
X323887Y16605D01*
X323962Y16659D01*
X324662Y17347D01*
X324691Y17388D01*
X324751Y17457D01*
X325280Y18284D01*
X325299Y18330D01*
X325343Y18411D01*
X325675Y19334D01*
X325683Y19384D01*
X325708Y19473D01*
X325826Y20447D01*
X325823Y20497D01*
X325827Y20583D01*
X325732Y21585D01*
X325718Y21634D01*
X325702Y21724D01*
X325386Y22680D01*
X325362Y22725D01*
X325327Y22809D01*
X324805Y23670D01*
X324772Y23708D01*
X324719Y23783D01*
X324019Y24507D01*
X323978Y24536D01*
X323909Y24597D01*
X323066Y25147D01*
X323020Y25167D01*
X322939Y25211D01*
X321995Y25559D01*
X321945Y25568D01*
X321857Y25593D01*
X320859Y25723D01*
X320816Y25721D01*
X320690Y25722D01*
X319679Y25583D01*
X319631Y25567D01*
X319541Y25548D01*
X318586Y25186D01*
X318543Y25160D01*
X318459Y25122D01*
X317609Y24557D01*
X317572Y24522D01*
X317500Y24465D01*
X316796Y23726D01*
X316768Y23683D01*
X316710Y23612D01*
X316189Y22734D01*
X316171Y22687D01*
X316130Y22605D01*
X315817Y21633D01*
X315810Y21583D01*
X315789Y21494D01*
X315700Y20476D01*
X315705Y20426D01*
X315704Y20335D01*
X315835Y19371D01*
X315851Y19323D01*
X315870Y19234D01*
X316212Y18323D01*
X316238Y18280D01*
X316277Y18197D01*
X316814Y17385D01*
X316849Y17349D01*
X316905Y17276D01*
X317609Y16604D01*
X317651Y16577D01*
X317722Y16518D01*
X318558Y16020D01*
X318605Y16002D01*
X318687Y15962D01*
X319613Y15662D01*
X319663Y15655D01*
X319752Y15633D01*
X320721Y15547D01*
X320768Y15551D01*
G37*
G36*
X292777Y15551D02*
X292777Y15551D01*
X292852Y15548D01*
X293828Y15650D01*
X293876Y15664D01*
X293966Y15680D01*
X294895Y15996D01*
X294939Y16021D01*
X295024Y16057D01*
X295859Y16571D01*
X295896Y16605D01*
X295971Y16659D01*
X296671Y17347D01*
X296700Y17388D01*
X296760Y17457D01*
X297289Y18284D01*
X297308Y18330D01*
X297352Y18411D01*
X297684Y19334D01*
X297692Y19384D01*
X297717Y19473D01*
X297835Y20447D01*
X297832Y20497D01*
X297836Y20583D01*
X297741Y21585D01*
X297727Y21634D01*
X297711Y21724D01*
X297395Y22680D01*
X297371Y22725D01*
X297336Y22809D01*
X296814Y23670D01*
X296781Y23708D01*
X296728Y23783D01*
X296028Y24507D01*
X295987Y24536D01*
X295918Y24597D01*
X295075Y25147D01*
X295029Y25167D01*
X294948Y25211D01*
X294004Y25559D01*
X293954Y25568D01*
X293866Y25593D01*
X292868Y25723D01*
X292825Y25721D01*
X292699Y25722D01*
X291688Y25583D01*
X291640Y25567D01*
X291550Y25548D01*
X290595Y25186D01*
X290552Y25160D01*
X290468Y25122D01*
X289618Y24557D01*
X289581Y24522D01*
X289509Y24465D01*
X288805Y23726D01*
X288777Y23683D01*
X288719Y23612D01*
X288198Y22734D01*
X288180Y22687D01*
X288139Y22605D01*
X287826Y21633D01*
X287819Y21583D01*
X287798Y21494D01*
X287709Y20476D01*
X287714Y20426D01*
X287713Y20335D01*
X287844Y19371D01*
X287860Y19323D01*
X287879Y19234D01*
X288221Y18323D01*
X288247Y18280D01*
X288286Y18197D01*
X288823Y17385D01*
X288858Y17349D01*
X288914Y17276D01*
X289618Y16604D01*
X289660Y16577D01*
X289731Y16518D01*
X290567Y16020D01*
X290614Y16002D01*
X290696Y15962D01*
X291622Y15662D01*
X291672Y15655D01*
X291761Y15633D01*
X292730Y15547D01*
X292777Y15551D01*
G37*
D10*
X141986Y46228D03*
D11*
X25400Y482600D03*
X25400Y25400D03*
X482600Y25400D03*
X482600Y482600D03*
D12*
X220218Y468376D03*
X245618Y468376D03*
X271018Y468376D03*
X296418Y468376D03*
X106934Y459486D03*
X81534Y459486D03*
X56134Y459486D03*
X404876Y459740D03*
X430276Y459740D03*
X455676Y459740D03*
D13*
X264668Y20828D02*
X247904Y20828D01*
X247904Y46228D02*
X264668Y46228D01*
X264668Y71628D02*
X247904Y71628D01*
D12*
X448056Y46482D03*
X448056Y21082D03*
D14*
X409702Y24770D02*
X409702Y41270D01*
X384302Y41270D02*
X384302Y24770D01*
X358902Y24770D02*
X358902Y41270D01*
D15*
X21082Y393192D03*
D16*
X46482Y393192D03*
X71882Y393192D03*
X97282Y393192D03*
X122682Y393192D03*
D17*
X148082Y393192D03*
D16*
X173482Y393192D03*
X198882Y393192D03*
X224282Y393192D03*
X249682Y393192D03*
X275082Y393192D03*
X300482Y393192D03*
X325882Y393192D03*
X351282Y393192D03*
X376682Y393192D03*
X402082Y393192D03*
X427482Y393192D03*
X452882Y393192D03*
D15*
X478282Y393192D03*
D16*
X21082Y139192D03*
X46482Y139192D03*
X71882Y139192D03*
X97282Y139192D03*
X122682Y139192D03*
X148082Y139192D03*
X173482Y139192D03*
X198882Y139192D03*
X224282Y139192D03*
X249682Y139192D03*
X275082Y139192D03*
X300482Y139192D03*
D17*
X325882Y139192D03*
D16*
X351282Y139192D03*
X376682Y139192D03*
X402082Y139192D03*
X427482Y139192D03*
X452882Y139192D03*
D17*
X478282Y139192D03*
X478028Y114300D03*
X452628Y114300D03*
X427228Y114300D03*
X401828Y114300D03*
X376428Y114300D03*
X351028Y114300D03*
X325628Y114300D03*
X300228Y114300D03*
X274828Y114300D03*
X249428Y114300D03*
X224028Y114300D03*
X198628Y114300D03*
X173228Y114300D03*
X147828Y114300D03*
X122428Y114300D03*
X97028Y114300D03*
X71628Y114300D03*
X46228Y114300D03*
X20828Y114300D03*
X21082Y419354D03*
X46482Y419354D03*
X71882Y419354D03*
X97282Y419354D03*
X122682Y419354D03*
X148082Y419354D03*
X173482Y419354D03*
X198882Y419354D03*
X224282Y419354D03*
X249682Y419354D03*
X275082Y419354D03*
X300482Y419354D03*
X325882Y419354D03*
X351282Y419354D03*
X376682Y419354D03*
X402082Y419354D03*
X427482Y419354D03*
X452882Y419354D03*
X478282Y419354D03*
M02*
