G04 EAGLE Gerber RS-274X export*
G75*
%MOMM*%
%FSLAX34Y34*%
%LPD*%
%INSilkscreen Top*%
%IPPOS*%
%AMOC8*
5,1,8,0,0,1.08239X$1,22.5*%
G01*
%ADD10C,0.406400*%
%ADD11C,0.279400*%
%ADD12C,0.508000*%
%ADD13C,0.076200*%
%ADD14C,0.101600*%
%ADD15C,0.254000*%
%ADD16C,0.203200*%
%ADD17C,0.152400*%
%ADD18C,0.050800*%
%ADD19R,0.635000X0.762000*%
%ADD20R,2.794000X1.270000*%
%ADD21C,0.127000*%


D10*
X463296Y305760D02*
X463296Y284988D01*
X416560Y284988D01*
X416560Y305760D01*
X437332Y300567D02*
X437332Y284988D01*
X416560Y318008D02*
X463296Y318008D01*
X463296Y338780D01*
X463296Y360174D02*
X463296Y370560D01*
X463296Y360174D02*
X463293Y359923D01*
X463284Y359672D01*
X463269Y359422D01*
X463248Y359172D01*
X463220Y358922D01*
X463187Y358673D01*
X463148Y358425D01*
X463103Y358179D01*
X463051Y357933D01*
X462994Y357688D01*
X462931Y357446D01*
X462862Y357204D01*
X462788Y356965D01*
X462707Y356727D01*
X462621Y356491D01*
X462529Y356257D01*
X462432Y356026D01*
X462329Y355797D01*
X462220Y355571D01*
X462106Y355347D01*
X461987Y355127D01*
X461862Y354909D01*
X461733Y354694D01*
X461598Y354482D01*
X461458Y354274D01*
X461312Y354069D01*
X461162Y353868D01*
X461008Y353670D01*
X460848Y353477D01*
X460684Y353287D01*
X460515Y353101D01*
X460342Y352919D01*
X460165Y352742D01*
X459983Y352569D01*
X459797Y352400D01*
X459607Y352236D01*
X459414Y352076D01*
X459216Y351922D01*
X459015Y351772D01*
X458810Y351626D01*
X458602Y351486D01*
X458390Y351351D01*
X458175Y351222D01*
X457957Y351097D01*
X457737Y350978D01*
X457513Y350864D01*
X457287Y350755D01*
X457058Y350652D01*
X456827Y350555D01*
X456593Y350463D01*
X456357Y350377D01*
X456119Y350296D01*
X455880Y350222D01*
X455638Y350153D01*
X455396Y350090D01*
X455151Y350033D01*
X454905Y349981D01*
X454659Y349936D01*
X454411Y349897D01*
X454162Y349864D01*
X453912Y349836D01*
X453662Y349815D01*
X453412Y349800D01*
X453161Y349791D01*
X452910Y349788D01*
X426946Y349788D01*
X426691Y349791D01*
X426436Y349801D01*
X426182Y349816D01*
X425928Y349838D01*
X425675Y349866D01*
X425422Y349900D01*
X425170Y349941D01*
X424920Y349988D01*
X424670Y350040D01*
X424422Y350099D01*
X424176Y350164D01*
X423931Y350235D01*
X423688Y350312D01*
X423447Y350395D01*
X423208Y350484D01*
X422971Y350579D01*
X422737Y350679D01*
X422505Y350785D01*
X422276Y350897D01*
X422050Y351014D01*
X421827Y351137D01*
X421607Y351266D01*
X421390Y351399D01*
X421176Y351538D01*
X420966Y351683D01*
X420759Y351832D01*
X420556Y351986D01*
X420357Y352145D01*
X420162Y352310D01*
X419971Y352478D01*
X419784Y352652D01*
X419602Y352830D01*
X419424Y353012D01*
X419251Y353199D01*
X419082Y353390D01*
X418918Y353585D01*
X418758Y353784D01*
X418604Y353987D01*
X418455Y354194D01*
X418310Y354404D01*
X418171Y354617D01*
X418038Y354834D01*
X417909Y355055D01*
X417786Y355278D01*
X417669Y355504D01*
X417557Y355733D01*
X417451Y355965D01*
X417351Y356199D01*
X417256Y356436D01*
X417167Y356675D01*
X417084Y356916D01*
X417007Y357159D01*
X416936Y357404D01*
X416871Y357650D01*
X416812Y357898D01*
X416760Y358148D01*
X416713Y358398D01*
X416672Y358650D01*
X416638Y358903D01*
X416610Y359156D01*
X416588Y359410D01*
X416573Y359664D01*
X416563Y359919D01*
X416560Y360174D01*
X416560Y370560D01*
X438348Y178082D02*
X438348Y165100D01*
X438348Y178082D02*
X438352Y178398D01*
X438363Y178714D01*
X438383Y179030D01*
X438410Y179345D01*
X438444Y179659D01*
X438486Y179972D01*
X438536Y180284D01*
X438594Y180595D01*
X438659Y180905D01*
X438731Y181212D01*
X438811Y181518D01*
X438898Y181822D01*
X438993Y182124D01*
X439095Y182423D01*
X439205Y182720D01*
X439321Y183013D01*
X439445Y183304D01*
X439575Y183592D01*
X439713Y183877D01*
X439858Y184158D01*
X440009Y184436D01*
X440167Y184709D01*
X440332Y184979D01*
X440503Y185245D01*
X440681Y185507D01*
X440865Y185764D01*
X441055Y186016D01*
X441251Y186264D01*
X441453Y186507D01*
X441661Y186745D01*
X441875Y186978D01*
X442095Y187206D01*
X442320Y187428D01*
X442550Y187644D01*
X442785Y187855D01*
X443026Y188061D01*
X443271Y188260D01*
X443521Y188453D01*
X443776Y188640D01*
X444036Y188821D01*
X444299Y188995D01*
X444567Y189163D01*
X444839Y189325D01*
X445115Y189479D01*
X445394Y189627D01*
X445677Y189769D01*
X445963Y189903D01*
X446253Y190030D01*
X446545Y190150D01*
X446840Y190263D01*
X447138Y190369D01*
X447439Y190467D01*
X447742Y190558D01*
X448046Y190642D01*
X448353Y190718D01*
X448662Y190787D01*
X448972Y190848D01*
X449284Y190902D01*
X449596Y190948D01*
X449910Y190986D01*
X450225Y191017D01*
X450540Y191040D01*
X450856Y191055D01*
X451172Y191063D01*
X451488Y191063D01*
X451804Y191055D01*
X452120Y191040D01*
X452435Y191017D01*
X452750Y190986D01*
X453064Y190948D01*
X453376Y190902D01*
X453688Y190848D01*
X453998Y190787D01*
X454307Y190718D01*
X454614Y190642D01*
X454918Y190558D01*
X455221Y190467D01*
X455522Y190369D01*
X455820Y190263D01*
X456115Y190150D01*
X456407Y190030D01*
X456697Y189903D01*
X456983Y189769D01*
X457266Y189627D01*
X457545Y189479D01*
X457821Y189325D01*
X458093Y189163D01*
X458361Y188995D01*
X458624Y188821D01*
X458884Y188640D01*
X459139Y188453D01*
X459389Y188260D01*
X459634Y188061D01*
X459875Y187855D01*
X460110Y187644D01*
X460340Y187428D01*
X460565Y187206D01*
X460785Y186978D01*
X460999Y186745D01*
X461207Y186507D01*
X461409Y186264D01*
X461605Y186016D01*
X461795Y185764D01*
X461979Y185507D01*
X462157Y185245D01*
X462328Y184979D01*
X462493Y184709D01*
X462651Y184436D01*
X462802Y184158D01*
X462947Y183877D01*
X463085Y183592D01*
X463215Y183304D01*
X463339Y183013D01*
X463455Y182720D01*
X463565Y182423D01*
X463667Y182124D01*
X463762Y181822D01*
X463849Y181518D01*
X463929Y181212D01*
X464001Y180905D01*
X464066Y180595D01*
X464124Y180284D01*
X464174Y179972D01*
X464216Y179659D01*
X464250Y179345D01*
X464277Y179030D01*
X464297Y178714D01*
X464308Y178398D01*
X464312Y178082D01*
X464312Y165100D01*
X417576Y165100D01*
X417576Y178082D01*
X417579Y178335D01*
X417588Y178588D01*
X417604Y178840D01*
X417625Y179092D01*
X417653Y179344D01*
X417687Y179594D01*
X417727Y179844D01*
X417772Y180093D01*
X417824Y180340D01*
X417882Y180586D01*
X417946Y180831D01*
X418016Y181074D01*
X418092Y181315D01*
X418174Y181555D01*
X418261Y181792D01*
X418355Y182027D01*
X418453Y182260D01*
X418558Y182490D01*
X418668Y182718D01*
X418784Y182943D01*
X418905Y183165D01*
X419031Y183384D01*
X419163Y183600D01*
X419300Y183813D01*
X419442Y184022D01*
X419589Y184228D01*
X419742Y184430D01*
X419899Y184628D01*
X420060Y184822D01*
X420227Y185013D01*
X420398Y185199D01*
X420573Y185381D01*
X420753Y185559D01*
X420938Y185732D01*
X421126Y185901D01*
X421318Y186065D01*
X421515Y186225D01*
X421715Y186379D01*
X421919Y186529D01*
X422126Y186673D01*
X422337Y186813D01*
X422552Y186947D01*
X422769Y187077D01*
X422990Y187200D01*
X423213Y187319D01*
X423439Y187432D01*
X423668Y187539D01*
X423900Y187641D01*
X424134Y187737D01*
X424370Y187827D01*
X424609Y187912D01*
X424849Y187990D01*
X425091Y188063D01*
X425335Y188130D01*
X425580Y188191D01*
X425827Y188246D01*
X426076Y188295D01*
X426325Y188338D01*
X426575Y188375D01*
X426826Y188406D01*
X427078Y188430D01*
X427330Y188449D01*
X427583Y188461D01*
X427836Y188467D01*
X428088Y188467D01*
X428341Y188461D01*
X428594Y188449D01*
X428846Y188430D01*
X429098Y188406D01*
X429349Y188375D01*
X429599Y188338D01*
X429848Y188295D01*
X430097Y188246D01*
X430344Y188191D01*
X430589Y188130D01*
X430833Y188063D01*
X431075Y187990D01*
X431315Y187912D01*
X431554Y187827D01*
X431790Y187737D01*
X432024Y187641D01*
X432256Y187539D01*
X432485Y187432D01*
X432711Y187319D01*
X432934Y187200D01*
X433155Y187077D01*
X433372Y186947D01*
X433587Y186813D01*
X433798Y186673D01*
X434005Y186529D01*
X434209Y186379D01*
X434409Y186225D01*
X434606Y186065D01*
X434798Y185901D01*
X434986Y185732D01*
X435171Y185559D01*
X435351Y185381D01*
X435526Y185199D01*
X435697Y185013D01*
X435864Y184822D01*
X436025Y184628D01*
X436182Y184430D01*
X436335Y184228D01*
X436482Y184022D01*
X436624Y183813D01*
X436761Y183600D01*
X436893Y183384D01*
X437019Y183165D01*
X437140Y182943D01*
X437256Y182718D01*
X437366Y182490D01*
X437471Y182260D01*
X437569Y182027D01*
X437663Y181792D01*
X437750Y181555D01*
X437832Y181315D01*
X437908Y181074D01*
X437978Y180831D01*
X438042Y180586D01*
X438100Y180340D01*
X438152Y180093D01*
X438197Y179844D01*
X438237Y179594D01*
X438271Y179344D01*
X438299Y179092D01*
X438320Y178840D01*
X438336Y178588D01*
X438345Y178335D01*
X438348Y178082D01*
X417576Y199428D02*
X439646Y215006D01*
X417576Y230585D01*
X439646Y215006D02*
X464312Y215006D01*
X451330Y241394D02*
X417576Y241394D01*
X451330Y241394D02*
X451646Y241398D01*
X451962Y241409D01*
X452278Y241429D01*
X452593Y241456D01*
X452907Y241490D01*
X453220Y241532D01*
X453532Y241582D01*
X453843Y241640D01*
X454153Y241705D01*
X454460Y241777D01*
X454766Y241857D01*
X455070Y241944D01*
X455372Y242039D01*
X455671Y242141D01*
X455968Y242251D01*
X456261Y242367D01*
X456552Y242491D01*
X456840Y242621D01*
X457125Y242759D01*
X457406Y242904D01*
X457684Y243055D01*
X457957Y243213D01*
X458227Y243378D01*
X458493Y243549D01*
X458755Y243727D01*
X459012Y243911D01*
X459264Y244101D01*
X459512Y244297D01*
X459755Y244499D01*
X459993Y244707D01*
X460226Y244921D01*
X460454Y245141D01*
X460676Y245366D01*
X460892Y245596D01*
X461103Y245831D01*
X461309Y246072D01*
X461508Y246317D01*
X461701Y246567D01*
X461888Y246822D01*
X462069Y247082D01*
X462243Y247345D01*
X462411Y247613D01*
X462573Y247885D01*
X462727Y248161D01*
X462875Y248440D01*
X463017Y248723D01*
X463151Y249009D01*
X463278Y249299D01*
X463398Y249591D01*
X463511Y249886D01*
X463617Y250184D01*
X463715Y250485D01*
X463806Y250788D01*
X463890Y251092D01*
X463966Y251399D01*
X464035Y251708D01*
X464096Y252018D01*
X464150Y252330D01*
X464196Y252642D01*
X464234Y252956D01*
X464265Y253271D01*
X464288Y253586D01*
X464303Y253902D01*
X464311Y254218D01*
X464311Y254534D01*
X464303Y254850D01*
X464288Y255166D01*
X464265Y255481D01*
X464234Y255796D01*
X464196Y256110D01*
X464150Y256422D01*
X464096Y256734D01*
X464035Y257044D01*
X463966Y257353D01*
X463890Y257660D01*
X463806Y257964D01*
X463715Y258267D01*
X463617Y258568D01*
X463511Y258866D01*
X463398Y259161D01*
X463278Y259453D01*
X463151Y259743D01*
X463017Y260029D01*
X462875Y260312D01*
X462727Y260591D01*
X462573Y260867D01*
X462411Y261139D01*
X462243Y261407D01*
X462069Y261670D01*
X461888Y261930D01*
X461701Y262185D01*
X461508Y262435D01*
X461309Y262680D01*
X461103Y262921D01*
X460892Y263156D01*
X460676Y263386D01*
X460454Y263611D01*
X460226Y263831D01*
X459993Y264045D01*
X459755Y264253D01*
X459512Y264455D01*
X459264Y264651D01*
X459012Y264841D01*
X458755Y265025D01*
X458493Y265203D01*
X458227Y265374D01*
X457957Y265539D01*
X457684Y265697D01*
X457406Y265848D01*
X457125Y265993D01*
X456840Y266131D01*
X456552Y266261D01*
X456261Y266385D01*
X455968Y266501D01*
X455671Y266611D01*
X455372Y266713D01*
X455070Y266808D01*
X454766Y266895D01*
X454460Y266975D01*
X454153Y267047D01*
X453843Y267112D01*
X453532Y267170D01*
X453220Y267220D01*
X452907Y267262D01*
X452593Y267296D01*
X452278Y267323D01*
X451962Y267343D01*
X451646Y267354D01*
X451330Y267358D01*
X451330Y267359D02*
X417576Y267359D01*
D11*
X233807Y169799D02*
X217297Y175302D01*
X233807Y180806D01*
X229680Y179430D02*
X229680Y171175D01*
X229221Y188025D02*
X217297Y188025D01*
X229221Y188025D02*
X229356Y188027D01*
X229490Y188033D01*
X229624Y188043D01*
X229758Y188057D01*
X229892Y188074D01*
X230025Y188096D01*
X230157Y188122D01*
X230288Y188151D01*
X230419Y188184D01*
X230548Y188221D01*
X230677Y188262D01*
X230804Y188307D01*
X230929Y188355D01*
X231053Y188407D01*
X231176Y188463D01*
X231297Y188522D01*
X231416Y188584D01*
X231533Y188651D01*
X231649Y188720D01*
X231762Y188793D01*
X231873Y188869D01*
X231982Y188949D01*
X232088Y189032D01*
X232192Y189117D01*
X232293Y189206D01*
X232392Y189298D01*
X232488Y189392D01*
X232581Y189489D01*
X232671Y189589D01*
X232758Y189692D01*
X232842Y189797D01*
X232923Y189905D01*
X233001Y190014D01*
X233076Y190126D01*
X233147Y190241D01*
X233215Y190357D01*
X233279Y190475D01*
X233340Y190595D01*
X233398Y190717D01*
X233451Y190840D01*
X233502Y190965D01*
X233548Y191092D01*
X233591Y191219D01*
X233630Y191348D01*
X233665Y191478D01*
X233696Y191609D01*
X233724Y191741D01*
X233747Y191874D01*
X233767Y192007D01*
X233783Y192141D01*
X233795Y192275D01*
X233803Y192409D01*
X233807Y192544D01*
X233807Y192678D01*
X233803Y192813D01*
X233795Y192947D01*
X233783Y193081D01*
X233767Y193215D01*
X233747Y193348D01*
X233724Y193481D01*
X233696Y193613D01*
X233665Y193744D01*
X233630Y193874D01*
X233591Y194003D01*
X233548Y194130D01*
X233502Y194257D01*
X233451Y194382D01*
X233398Y194505D01*
X233340Y194627D01*
X233279Y194747D01*
X233215Y194865D01*
X233147Y194981D01*
X233076Y195096D01*
X233001Y195208D01*
X232923Y195317D01*
X232842Y195425D01*
X232758Y195530D01*
X232671Y195633D01*
X232581Y195733D01*
X232488Y195830D01*
X232392Y195924D01*
X232293Y196016D01*
X232192Y196105D01*
X232088Y196190D01*
X231982Y196273D01*
X231873Y196353D01*
X231762Y196429D01*
X231649Y196502D01*
X231533Y196571D01*
X231416Y196638D01*
X231297Y196700D01*
X231176Y196759D01*
X231053Y196815D01*
X230929Y196867D01*
X230804Y196915D01*
X230677Y196960D01*
X230548Y197001D01*
X230419Y197038D01*
X230288Y197071D01*
X230157Y197100D01*
X230025Y197126D01*
X229892Y197148D01*
X229758Y197165D01*
X229624Y197179D01*
X229490Y197189D01*
X229356Y197195D01*
X229221Y197197D01*
X217297Y197197D01*
X217297Y208803D02*
X233807Y208803D01*
X217297Y204217D02*
X217297Y213389D01*
X221883Y219851D02*
X229221Y219851D01*
X221883Y219851D02*
X221748Y219853D01*
X221614Y219859D01*
X221480Y219869D01*
X221346Y219883D01*
X221212Y219900D01*
X221079Y219922D01*
X220947Y219948D01*
X220816Y219977D01*
X220685Y220010D01*
X220556Y220047D01*
X220427Y220088D01*
X220300Y220133D01*
X220175Y220181D01*
X220051Y220233D01*
X219928Y220289D01*
X219807Y220348D01*
X219688Y220410D01*
X219571Y220477D01*
X219455Y220546D01*
X219342Y220619D01*
X219231Y220695D01*
X219122Y220775D01*
X219016Y220858D01*
X218912Y220943D01*
X218811Y221032D01*
X218712Y221124D01*
X218616Y221218D01*
X218523Y221315D01*
X218433Y221415D01*
X218346Y221518D01*
X218262Y221623D01*
X218181Y221731D01*
X218103Y221840D01*
X218028Y221952D01*
X217957Y222067D01*
X217889Y222183D01*
X217825Y222301D01*
X217764Y222421D01*
X217706Y222543D01*
X217653Y222666D01*
X217602Y222791D01*
X217556Y222918D01*
X217513Y223045D01*
X217474Y223174D01*
X217439Y223304D01*
X217408Y223435D01*
X217380Y223567D01*
X217357Y223700D01*
X217337Y223833D01*
X217321Y223967D01*
X217309Y224101D01*
X217301Y224235D01*
X217297Y224370D01*
X217297Y224504D01*
X217301Y224639D01*
X217309Y224773D01*
X217321Y224907D01*
X217337Y225041D01*
X217357Y225174D01*
X217380Y225307D01*
X217408Y225439D01*
X217439Y225570D01*
X217474Y225700D01*
X217513Y225829D01*
X217556Y225956D01*
X217602Y226083D01*
X217653Y226208D01*
X217706Y226331D01*
X217764Y226453D01*
X217825Y226573D01*
X217889Y226691D01*
X217957Y226807D01*
X218028Y226922D01*
X218103Y227034D01*
X218181Y227143D01*
X218262Y227251D01*
X218346Y227356D01*
X218433Y227459D01*
X218523Y227559D01*
X218616Y227656D01*
X218712Y227750D01*
X218811Y227842D01*
X218912Y227931D01*
X219016Y228016D01*
X219122Y228099D01*
X219231Y228179D01*
X219342Y228255D01*
X219455Y228328D01*
X219571Y228397D01*
X219688Y228464D01*
X219807Y228526D01*
X219928Y228585D01*
X220051Y228641D01*
X220175Y228693D01*
X220300Y228741D01*
X220427Y228786D01*
X220556Y228827D01*
X220685Y228864D01*
X220816Y228897D01*
X220947Y228926D01*
X221079Y228952D01*
X221212Y228974D01*
X221346Y228991D01*
X221480Y229005D01*
X221614Y229015D01*
X221748Y229021D01*
X221883Y229023D01*
X229221Y229023D01*
X229356Y229021D01*
X229490Y229015D01*
X229624Y229005D01*
X229758Y228991D01*
X229892Y228974D01*
X230025Y228952D01*
X230157Y228926D01*
X230288Y228897D01*
X230419Y228864D01*
X230548Y228827D01*
X230677Y228786D01*
X230804Y228741D01*
X230929Y228693D01*
X231053Y228641D01*
X231176Y228585D01*
X231297Y228526D01*
X231416Y228464D01*
X231533Y228397D01*
X231649Y228328D01*
X231762Y228255D01*
X231873Y228179D01*
X231982Y228099D01*
X232088Y228016D01*
X232192Y227931D01*
X232293Y227842D01*
X232392Y227750D01*
X232488Y227656D01*
X232581Y227559D01*
X232671Y227459D01*
X232758Y227356D01*
X232842Y227251D01*
X232923Y227143D01*
X233001Y227034D01*
X233076Y226922D01*
X233147Y226807D01*
X233215Y226691D01*
X233279Y226573D01*
X233340Y226453D01*
X233398Y226331D01*
X233451Y226208D01*
X233502Y226083D01*
X233548Y225956D01*
X233591Y225829D01*
X233630Y225700D01*
X233665Y225570D01*
X233696Y225439D01*
X233724Y225307D01*
X233747Y225174D01*
X233767Y225041D01*
X233783Y224907D01*
X233795Y224773D01*
X233803Y224639D01*
X233807Y224504D01*
X233807Y224370D01*
X233803Y224235D01*
X233795Y224101D01*
X233783Y223967D01*
X233767Y223833D01*
X233747Y223700D01*
X233724Y223567D01*
X233696Y223435D01*
X233665Y223304D01*
X233630Y223174D01*
X233591Y223045D01*
X233548Y222918D01*
X233502Y222791D01*
X233451Y222666D01*
X233398Y222543D01*
X233340Y222421D01*
X233279Y222301D01*
X233215Y222183D01*
X233147Y222067D01*
X233076Y221952D01*
X233001Y221840D01*
X232923Y221731D01*
X232842Y221623D01*
X232758Y221518D01*
X232671Y221415D01*
X232581Y221315D01*
X232488Y221218D01*
X232392Y221124D01*
X232293Y221032D01*
X232192Y220943D01*
X232088Y220858D01*
X231982Y220775D01*
X231873Y220695D01*
X231762Y220619D01*
X231649Y220546D01*
X231533Y220477D01*
X231416Y220410D01*
X231297Y220348D01*
X231176Y220289D01*
X231053Y220233D01*
X230929Y220181D01*
X230804Y220133D01*
X230677Y220088D01*
X230548Y220047D01*
X230419Y220010D01*
X230288Y219977D01*
X230157Y219948D01*
X230025Y219922D01*
X229892Y219900D01*
X229758Y219883D01*
X229624Y219869D01*
X229490Y219859D01*
X229356Y219853D01*
X229221Y219851D01*
X233807Y237160D02*
X217297Y237160D01*
X233807Y246332D01*
X217297Y246332D01*
X221883Y254468D02*
X229221Y254468D01*
X221883Y254469D02*
X221748Y254471D01*
X221614Y254477D01*
X221480Y254487D01*
X221346Y254501D01*
X221212Y254518D01*
X221079Y254540D01*
X220947Y254566D01*
X220816Y254595D01*
X220685Y254628D01*
X220556Y254665D01*
X220427Y254706D01*
X220300Y254751D01*
X220175Y254799D01*
X220051Y254851D01*
X219928Y254907D01*
X219807Y254966D01*
X219688Y255028D01*
X219571Y255095D01*
X219455Y255164D01*
X219342Y255237D01*
X219231Y255313D01*
X219122Y255393D01*
X219016Y255476D01*
X218912Y255561D01*
X218811Y255650D01*
X218712Y255742D01*
X218616Y255836D01*
X218523Y255933D01*
X218433Y256033D01*
X218346Y256136D01*
X218262Y256241D01*
X218181Y256349D01*
X218103Y256458D01*
X218028Y256570D01*
X217957Y256685D01*
X217889Y256801D01*
X217825Y256919D01*
X217764Y257039D01*
X217706Y257161D01*
X217653Y257284D01*
X217602Y257409D01*
X217556Y257536D01*
X217513Y257663D01*
X217474Y257792D01*
X217439Y257922D01*
X217408Y258053D01*
X217380Y258185D01*
X217357Y258318D01*
X217337Y258451D01*
X217321Y258585D01*
X217309Y258719D01*
X217301Y258853D01*
X217297Y258988D01*
X217297Y259122D01*
X217301Y259257D01*
X217309Y259391D01*
X217321Y259525D01*
X217337Y259659D01*
X217357Y259792D01*
X217380Y259925D01*
X217408Y260057D01*
X217439Y260188D01*
X217474Y260318D01*
X217513Y260447D01*
X217556Y260574D01*
X217602Y260701D01*
X217653Y260826D01*
X217706Y260949D01*
X217764Y261071D01*
X217825Y261191D01*
X217889Y261309D01*
X217957Y261425D01*
X218028Y261540D01*
X218103Y261652D01*
X218181Y261761D01*
X218262Y261869D01*
X218346Y261974D01*
X218433Y262077D01*
X218523Y262177D01*
X218616Y262274D01*
X218712Y262368D01*
X218811Y262460D01*
X218912Y262549D01*
X219016Y262634D01*
X219122Y262717D01*
X219231Y262797D01*
X219342Y262873D01*
X219455Y262946D01*
X219571Y263015D01*
X219688Y263082D01*
X219807Y263144D01*
X219928Y263203D01*
X220051Y263259D01*
X220175Y263311D01*
X220300Y263359D01*
X220427Y263404D01*
X220556Y263445D01*
X220685Y263482D01*
X220816Y263515D01*
X220947Y263544D01*
X221079Y263570D01*
X221212Y263592D01*
X221346Y263609D01*
X221480Y263623D01*
X221614Y263633D01*
X221748Y263639D01*
X221883Y263641D01*
X229221Y263641D01*
X229356Y263639D01*
X229490Y263633D01*
X229624Y263623D01*
X229758Y263609D01*
X229892Y263592D01*
X230025Y263570D01*
X230157Y263544D01*
X230288Y263515D01*
X230419Y263482D01*
X230548Y263445D01*
X230677Y263404D01*
X230804Y263359D01*
X230929Y263311D01*
X231053Y263259D01*
X231176Y263203D01*
X231297Y263144D01*
X231416Y263082D01*
X231533Y263015D01*
X231649Y262946D01*
X231762Y262873D01*
X231873Y262797D01*
X231982Y262717D01*
X232088Y262634D01*
X232192Y262549D01*
X232293Y262460D01*
X232392Y262368D01*
X232488Y262274D01*
X232581Y262177D01*
X232671Y262077D01*
X232758Y261974D01*
X232842Y261869D01*
X232923Y261761D01*
X233001Y261652D01*
X233076Y261540D01*
X233147Y261425D01*
X233215Y261309D01*
X233279Y261191D01*
X233340Y261071D01*
X233398Y260949D01*
X233451Y260826D01*
X233502Y260701D01*
X233548Y260574D01*
X233591Y260447D01*
X233630Y260318D01*
X233665Y260188D01*
X233696Y260057D01*
X233724Y259925D01*
X233747Y259792D01*
X233767Y259659D01*
X233783Y259525D01*
X233795Y259391D01*
X233803Y259257D01*
X233807Y259122D01*
X233807Y258988D01*
X233803Y258853D01*
X233795Y258719D01*
X233783Y258585D01*
X233767Y258451D01*
X233747Y258318D01*
X233724Y258185D01*
X233696Y258053D01*
X233665Y257922D01*
X233630Y257792D01*
X233591Y257663D01*
X233548Y257536D01*
X233502Y257409D01*
X233451Y257284D01*
X233398Y257161D01*
X233340Y257039D01*
X233279Y256919D01*
X233215Y256801D01*
X233147Y256685D01*
X233076Y256570D01*
X233001Y256458D01*
X232923Y256349D01*
X232842Y256241D01*
X232758Y256136D01*
X232671Y256033D01*
X232581Y255933D01*
X232488Y255836D01*
X232392Y255742D01*
X232293Y255650D01*
X232192Y255561D01*
X232088Y255476D01*
X231982Y255393D01*
X231873Y255313D01*
X231762Y255237D01*
X231649Y255164D01*
X231533Y255095D01*
X231416Y255028D01*
X231297Y254966D01*
X231176Y254907D01*
X231053Y254851D01*
X230929Y254799D01*
X230804Y254751D01*
X230677Y254706D01*
X230548Y254665D01*
X230419Y254628D01*
X230288Y254595D01*
X230157Y254566D01*
X230025Y254540D01*
X229892Y254518D01*
X229758Y254501D01*
X229624Y254487D01*
X229490Y254477D01*
X229356Y254471D01*
X229221Y254469D01*
X227386Y271418D02*
X227386Y282425D01*
X233807Y290961D02*
X217297Y290961D01*
X226469Y296464D01*
X217297Y301967D01*
X233807Y301967D01*
X229221Y310303D02*
X221883Y310303D01*
X221748Y310305D01*
X221614Y310311D01*
X221480Y310321D01*
X221346Y310335D01*
X221212Y310352D01*
X221079Y310374D01*
X220947Y310400D01*
X220816Y310429D01*
X220685Y310462D01*
X220556Y310499D01*
X220427Y310540D01*
X220300Y310585D01*
X220175Y310633D01*
X220051Y310685D01*
X219928Y310741D01*
X219807Y310800D01*
X219688Y310862D01*
X219571Y310929D01*
X219455Y310998D01*
X219342Y311071D01*
X219231Y311147D01*
X219122Y311227D01*
X219016Y311310D01*
X218912Y311395D01*
X218811Y311484D01*
X218712Y311576D01*
X218616Y311670D01*
X218523Y311767D01*
X218433Y311867D01*
X218346Y311970D01*
X218262Y312075D01*
X218181Y312183D01*
X218103Y312292D01*
X218028Y312404D01*
X217957Y312519D01*
X217889Y312635D01*
X217825Y312753D01*
X217764Y312873D01*
X217706Y312995D01*
X217653Y313118D01*
X217602Y313243D01*
X217556Y313370D01*
X217513Y313497D01*
X217474Y313626D01*
X217439Y313756D01*
X217408Y313887D01*
X217380Y314019D01*
X217357Y314152D01*
X217337Y314285D01*
X217321Y314419D01*
X217309Y314553D01*
X217301Y314687D01*
X217297Y314822D01*
X217297Y314956D01*
X217301Y315091D01*
X217309Y315225D01*
X217321Y315359D01*
X217337Y315493D01*
X217357Y315626D01*
X217380Y315759D01*
X217408Y315891D01*
X217439Y316022D01*
X217474Y316152D01*
X217513Y316281D01*
X217556Y316408D01*
X217602Y316535D01*
X217653Y316660D01*
X217706Y316783D01*
X217764Y316905D01*
X217825Y317025D01*
X217889Y317143D01*
X217957Y317259D01*
X218028Y317374D01*
X218103Y317486D01*
X218181Y317595D01*
X218262Y317703D01*
X218346Y317808D01*
X218433Y317911D01*
X218523Y318011D01*
X218616Y318108D01*
X218712Y318202D01*
X218811Y318294D01*
X218912Y318383D01*
X219016Y318468D01*
X219122Y318551D01*
X219231Y318631D01*
X219342Y318707D01*
X219455Y318780D01*
X219571Y318849D01*
X219688Y318916D01*
X219807Y318978D01*
X219928Y319037D01*
X220051Y319093D01*
X220175Y319145D01*
X220300Y319193D01*
X220427Y319238D01*
X220556Y319279D01*
X220685Y319316D01*
X220816Y319349D01*
X220947Y319378D01*
X221079Y319404D01*
X221212Y319426D01*
X221346Y319443D01*
X221480Y319457D01*
X221614Y319467D01*
X221748Y319473D01*
X221883Y319475D01*
X229221Y319475D01*
X229356Y319473D01*
X229490Y319467D01*
X229624Y319457D01*
X229758Y319443D01*
X229892Y319426D01*
X230025Y319404D01*
X230157Y319378D01*
X230288Y319349D01*
X230419Y319316D01*
X230548Y319279D01*
X230677Y319238D01*
X230804Y319193D01*
X230929Y319145D01*
X231053Y319093D01*
X231176Y319037D01*
X231297Y318978D01*
X231416Y318916D01*
X231533Y318849D01*
X231649Y318780D01*
X231762Y318707D01*
X231873Y318631D01*
X231982Y318551D01*
X232088Y318468D01*
X232192Y318383D01*
X232293Y318294D01*
X232392Y318202D01*
X232488Y318108D01*
X232581Y318011D01*
X232671Y317911D01*
X232758Y317808D01*
X232842Y317703D01*
X232923Y317595D01*
X233001Y317486D01*
X233076Y317374D01*
X233147Y317259D01*
X233215Y317143D01*
X233279Y317025D01*
X233340Y316905D01*
X233398Y316783D01*
X233451Y316660D01*
X233502Y316535D01*
X233548Y316408D01*
X233591Y316281D01*
X233630Y316152D01*
X233665Y316022D01*
X233696Y315891D01*
X233724Y315759D01*
X233747Y315626D01*
X233767Y315493D01*
X233783Y315359D01*
X233795Y315225D01*
X233803Y315091D01*
X233807Y314956D01*
X233807Y314822D01*
X233803Y314687D01*
X233795Y314553D01*
X233783Y314419D01*
X233767Y314285D01*
X233747Y314152D01*
X233724Y314019D01*
X233696Y313887D01*
X233665Y313756D01*
X233630Y313626D01*
X233591Y313497D01*
X233548Y313370D01*
X233502Y313243D01*
X233451Y313118D01*
X233398Y312995D01*
X233340Y312873D01*
X233279Y312753D01*
X233215Y312635D01*
X233147Y312519D01*
X233076Y312404D01*
X233001Y312292D01*
X232923Y312183D01*
X232842Y312075D01*
X232758Y311970D01*
X232671Y311867D01*
X232581Y311767D01*
X232488Y311670D01*
X232392Y311576D01*
X232293Y311484D01*
X232192Y311395D01*
X232088Y311310D01*
X231982Y311227D01*
X231873Y311147D01*
X231762Y311071D01*
X231649Y310998D01*
X231533Y310929D01*
X231416Y310862D01*
X231297Y310800D01*
X231176Y310741D01*
X231053Y310685D01*
X230929Y310633D01*
X230804Y310585D01*
X230677Y310540D01*
X230548Y310499D01*
X230419Y310462D01*
X230288Y310429D01*
X230157Y310400D01*
X230025Y310374D01*
X229892Y310352D01*
X229758Y310335D01*
X229624Y310321D01*
X229490Y310311D01*
X229356Y310305D01*
X229221Y310303D01*
X229221Y327612D02*
X217297Y327612D01*
X229221Y327612D02*
X229356Y327614D01*
X229490Y327620D01*
X229624Y327630D01*
X229758Y327644D01*
X229892Y327661D01*
X230025Y327683D01*
X230157Y327709D01*
X230288Y327738D01*
X230419Y327771D01*
X230548Y327808D01*
X230677Y327849D01*
X230804Y327894D01*
X230929Y327942D01*
X231053Y327994D01*
X231176Y328050D01*
X231297Y328109D01*
X231416Y328171D01*
X231533Y328238D01*
X231649Y328307D01*
X231762Y328380D01*
X231873Y328456D01*
X231982Y328536D01*
X232088Y328619D01*
X232192Y328704D01*
X232293Y328793D01*
X232392Y328885D01*
X232488Y328979D01*
X232581Y329076D01*
X232671Y329176D01*
X232758Y329279D01*
X232842Y329384D01*
X232923Y329492D01*
X233001Y329601D01*
X233076Y329713D01*
X233147Y329828D01*
X233215Y329944D01*
X233279Y330062D01*
X233340Y330182D01*
X233398Y330304D01*
X233451Y330427D01*
X233502Y330552D01*
X233548Y330679D01*
X233591Y330806D01*
X233630Y330935D01*
X233665Y331065D01*
X233696Y331196D01*
X233724Y331328D01*
X233747Y331461D01*
X233767Y331594D01*
X233783Y331728D01*
X233795Y331862D01*
X233803Y331996D01*
X233807Y332131D01*
X233807Y332265D01*
X233803Y332400D01*
X233795Y332534D01*
X233783Y332668D01*
X233767Y332802D01*
X233747Y332935D01*
X233724Y333068D01*
X233696Y333200D01*
X233665Y333331D01*
X233630Y333461D01*
X233591Y333590D01*
X233548Y333717D01*
X233502Y333844D01*
X233451Y333969D01*
X233398Y334092D01*
X233340Y334214D01*
X233279Y334334D01*
X233215Y334452D01*
X233147Y334568D01*
X233076Y334683D01*
X233001Y334795D01*
X232923Y334904D01*
X232842Y335012D01*
X232758Y335117D01*
X232671Y335220D01*
X232581Y335320D01*
X232488Y335417D01*
X232392Y335511D01*
X232293Y335603D01*
X232192Y335692D01*
X232088Y335777D01*
X231982Y335860D01*
X231873Y335940D01*
X231762Y336016D01*
X231649Y336089D01*
X231533Y336158D01*
X231416Y336225D01*
X231297Y336287D01*
X231176Y336346D01*
X231053Y336402D01*
X230929Y336454D01*
X230804Y336502D01*
X230677Y336547D01*
X230548Y336588D01*
X230419Y336625D01*
X230288Y336658D01*
X230157Y336687D01*
X230025Y336713D01*
X229892Y336735D01*
X229758Y336752D01*
X229624Y336766D01*
X229490Y336776D01*
X229356Y336782D01*
X229221Y336784D01*
X217297Y336784D01*
X233807Y349866D02*
X233805Y349986D01*
X233799Y350106D01*
X233789Y350226D01*
X233776Y350345D01*
X233758Y350464D01*
X233737Y350582D01*
X233711Y350699D01*
X233682Y350816D01*
X233649Y350931D01*
X233612Y351045D01*
X233572Y351158D01*
X233528Y351270D01*
X233480Y351380D01*
X233429Y351489D01*
X233374Y351596D01*
X233315Y351701D01*
X233254Y351803D01*
X233189Y351904D01*
X233120Y352003D01*
X233049Y352100D01*
X232974Y352194D01*
X232897Y352285D01*
X232816Y352374D01*
X232732Y352460D01*
X232646Y352544D01*
X232557Y352625D01*
X232466Y352702D01*
X232372Y352777D01*
X232275Y352848D01*
X232176Y352917D01*
X232075Y352982D01*
X231973Y353043D01*
X231868Y353102D01*
X231761Y353157D01*
X231652Y353208D01*
X231542Y353256D01*
X231430Y353300D01*
X231317Y353340D01*
X231203Y353377D01*
X231088Y353410D01*
X230971Y353439D01*
X230854Y353465D01*
X230736Y353486D01*
X230617Y353504D01*
X230498Y353517D01*
X230378Y353527D01*
X230258Y353533D01*
X230138Y353535D01*
X233807Y349866D02*
X233805Y349681D01*
X233798Y349495D01*
X233787Y349310D01*
X233772Y349125D01*
X233752Y348941D01*
X233727Y348757D01*
X233699Y348574D01*
X233665Y348391D01*
X233628Y348210D01*
X233586Y348029D01*
X233540Y347849D01*
X233490Y347671D01*
X233435Y347494D01*
X233376Y347318D01*
X233313Y347144D01*
X233246Y346971D01*
X233175Y346799D01*
X233099Y346630D01*
X233020Y346462D01*
X232936Y346297D01*
X232849Y346133D01*
X232758Y345972D01*
X232663Y345813D01*
X232564Y345656D01*
X232461Y345501D01*
X232355Y345349D01*
X232245Y345200D01*
X232132Y345053D01*
X232015Y344909D01*
X231894Y344768D01*
X231771Y344630D01*
X231644Y344495D01*
X231514Y344362D01*
X220966Y344821D02*
X220846Y344823D01*
X220726Y344829D01*
X220606Y344839D01*
X220487Y344852D01*
X220368Y344870D01*
X220250Y344891D01*
X220133Y344917D01*
X220016Y344946D01*
X219901Y344979D01*
X219787Y345016D01*
X219674Y345056D01*
X219562Y345100D01*
X219452Y345148D01*
X219343Y345199D01*
X219236Y345254D01*
X219132Y345313D01*
X219029Y345374D01*
X218928Y345439D01*
X218829Y345508D01*
X218732Y345579D01*
X218638Y345654D01*
X218547Y345731D01*
X218458Y345812D01*
X218372Y345896D01*
X218288Y345982D01*
X218207Y346071D01*
X218130Y346162D01*
X218055Y346256D01*
X217984Y346353D01*
X217915Y346452D01*
X217850Y346553D01*
X217789Y346656D01*
X217730Y346760D01*
X217675Y346867D01*
X217624Y346976D01*
X217576Y347086D01*
X217532Y347198D01*
X217492Y347311D01*
X217455Y347425D01*
X217422Y347540D01*
X217393Y347657D01*
X217367Y347774D01*
X217346Y347892D01*
X217328Y348011D01*
X217315Y348130D01*
X217305Y348250D01*
X217299Y348370D01*
X217297Y348490D01*
X217299Y348654D01*
X217305Y348818D01*
X217315Y348981D01*
X217328Y349145D01*
X217346Y349308D01*
X217367Y349470D01*
X217393Y349632D01*
X217422Y349794D01*
X217455Y349954D01*
X217491Y350114D01*
X217532Y350273D01*
X217576Y350431D01*
X217625Y350587D01*
X217676Y350743D01*
X217732Y350897D01*
X217791Y351050D01*
X217854Y351202D01*
X217920Y351351D01*
X217990Y351500D01*
X218064Y351646D01*
X218141Y351791D01*
X218221Y351934D01*
X218305Y352075D01*
X218392Y352214D01*
X218482Y352351D01*
X218576Y352485D01*
X218673Y352617D01*
X224176Y346655D02*
X224113Y346552D01*
X224047Y346451D01*
X223977Y346352D01*
X223904Y346256D01*
X223828Y346162D01*
X223750Y346070D01*
X223668Y345981D01*
X223583Y345895D01*
X223496Y345811D01*
X223406Y345731D01*
X223313Y345653D01*
X223218Y345578D01*
X223120Y345507D01*
X223021Y345439D01*
X222919Y345374D01*
X222815Y345312D01*
X222709Y345254D01*
X222601Y345199D01*
X222491Y345148D01*
X222380Y345100D01*
X222268Y345056D01*
X222154Y345015D01*
X222039Y344979D01*
X221922Y344946D01*
X221805Y344917D01*
X221687Y344891D01*
X221568Y344870D01*
X221448Y344852D01*
X221328Y344839D01*
X221208Y344829D01*
X221087Y344823D01*
X220966Y344821D01*
X226928Y351700D02*
X226991Y351803D01*
X227057Y351904D01*
X227127Y352003D01*
X227200Y352099D01*
X227276Y352193D01*
X227354Y352285D01*
X227436Y352374D01*
X227521Y352460D01*
X227608Y352544D01*
X227698Y352624D01*
X227791Y352702D01*
X227886Y352777D01*
X227984Y352848D01*
X228083Y352916D01*
X228185Y352981D01*
X228289Y353043D01*
X228395Y353101D01*
X228503Y353156D01*
X228613Y353207D01*
X228724Y353255D01*
X228836Y353299D01*
X228950Y353340D01*
X229065Y353376D01*
X229182Y353409D01*
X229299Y353438D01*
X229417Y353464D01*
X229536Y353485D01*
X229656Y353503D01*
X229776Y353516D01*
X229896Y353526D01*
X230017Y353532D01*
X230138Y353534D01*
X226928Y351700D02*
X224176Y346655D01*
X233807Y361157D02*
X233807Y368495D01*
X233807Y361157D02*
X217297Y361157D01*
X217297Y368495D01*
X224635Y366661D02*
X224635Y361157D01*
X251756Y169799D02*
X262763Y169799D01*
X251756Y169799D02*
X251756Y175302D01*
X253591Y175302D01*
X262763Y183593D02*
X262763Y188179D01*
X262763Y183593D02*
X262761Y183490D01*
X262755Y183387D01*
X262746Y183285D01*
X262732Y183183D01*
X262715Y183081D01*
X262694Y182981D01*
X262669Y182881D01*
X262641Y182782D01*
X262609Y182684D01*
X262573Y182588D01*
X262533Y182493D01*
X262490Y182399D01*
X262444Y182307D01*
X262394Y182217D01*
X262341Y182129D01*
X262285Y182043D01*
X262225Y181959D01*
X262163Y181877D01*
X262097Y181798D01*
X262028Y181721D01*
X261957Y181647D01*
X261883Y181576D01*
X261806Y181507D01*
X261727Y181441D01*
X261645Y181379D01*
X261561Y181319D01*
X261475Y181263D01*
X261387Y181210D01*
X261297Y181160D01*
X261205Y181114D01*
X261112Y181071D01*
X261016Y181031D01*
X260920Y180995D01*
X260822Y180963D01*
X260723Y180935D01*
X260623Y180910D01*
X260523Y180889D01*
X260421Y180872D01*
X260319Y180858D01*
X260217Y180849D01*
X260114Y180843D01*
X260011Y180841D01*
X260011Y180842D02*
X255425Y180842D01*
X255425Y180841D02*
X255305Y180843D01*
X255185Y180849D01*
X255065Y180859D01*
X254946Y180872D01*
X254827Y180890D01*
X254709Y180911D01*
X254592Y180937D01*
X254475Y180966D01*
X254360Y180999D01*
X254246Y181036D01*
X254133Y181076D01*
X254021Y181120D01*
X253911Y181168D01*
X253802Y181219D01*
X253695Y181274D01*
X253591Y181333D01*
X253488Y181394D01*
X253387Y181459D01*
X253288Y181528D01*
X253191Y181599D01*
X253097Y181674D01*
X253006Y181751D01*
X252917Y181832D01*
X252831Y181916D01*
X252747Y182002D01*
X252666Y182091D01*
X252589Y182182D01*
X252514Y182276D01*
X252443Y182373D01*
X252374Y182472D01*
X252309Y182573D01*
X252248Y182675D01*
X252189Y182780D01*
X252134Y182887D01*
X252083Y182996D01*
X252035Y183106D01*
X251991Y183218D01*
X251951Y183331D01*
X251914Y183445D01*
X251881Y183560D01*
X251852Y183677D01*
X251826Y183794D01*
X251805Y183912D01*
X251787Y184031D01*
X251774Y184150D01*
X251764Y184270D01*
X251758Y184390D01*
X251756Y184510D01*
X251758Y184630D01*
X251764Y184750D01*
X251774Y184870D01*
X251787Y184989D01*
X251805Y185108D01*
X251826Y185226D01*
X251852Y185343D01*
X251881Y185460D01*
X251914Y185575D01*
X251951Y185689D01*
X251991Y185802D01*
X252035Y185914D01*
X252083Y186024D01*
X252134Y186133D01*
X252189Y186240D01*
X252248Y186345D01*
X252309Y186447D01*
X252374Y186548D01*
X252443Y186647D01*
X252514Y186744D01*
X252589Y186838D01*
X252666Y186929D01*
X252747Y187018D01*
X252831Y187104D01*
X252917Y187188D01*
X253006Y187269D01*
X253097Y187346D01*
X253191Y187421D01*
X253288Y187492D01*
X253387Y187561D01*
X253488Y187626D01*
X253591Y187687D01*
X253695Y187746D01*
X253802Y187801D01*
X253911Y187852D01*
X254021Y187900D01*
X254133Y187944D01*
X254246Y187984D01*
X254360Y188021D01*
X254475Y188054D01*
X254592Y188083D01*
X254709Y188109D01*
X254827Y188130D01*
X254946Y188148D01*
X255065Y188161D01*
X255185Y188171D01*
X255305Y188177D01*
X255425Y188179D01*
X257260Y188179D01*
X257260Y180842D01*
X251756Y194800D02*
X262763Y198469D01*
X251756Y202138D01*
X246253Y222937D02*
X246255Y223064D01*
X246261Y223191D01*
X246271Y223318D01*
X246284Y223444D01*
X246302Y223570D01*
X246323Y223696D01*
X246349Y223820D01*
X246378Y223944D01*
X246411Y224067D01*
X246447Y224188D01*
X246488Y224309D01*
X246532Y224428D01*
X246580Y224546D01*
X246631Y224662D01*
X246686Y224777D01*
X246744Y224890D01*
X246806Y225001D01*
X246871Y225110D01*
X246940Y225217D01*
X247012Y225322D01*
X247087Y225425D01*
X247165Y225525D01*
X247246Y225623D01*
X247330Y225718D01*
X247417Y225811D01*
X247507Y225901D01*
X247600Y225988D01*
X247695Y226072D01*
X247793Y226153D01*
X247893Y226231D01*
X247996Y226306D01*
X248101Y226378D01*
X248208Y226447D01*
X248317Y226512D01*
X248428Y226574D01*
X248541Y226632D01*
X248656Y226687D01*
X248772Y226738D01*
X248890Y226786D01*
X249009Y226830D01*
X249130Y226871D01*
X249251Y226907D01*
X249374Y226940D01*
X249498Y226969D01*
X249622Y226995D01*
X249748Y227016D01*
X249874Y227034D01*
X250000Y227047D01*
X250127Y227057D01*
X250254Y227063D01*
X250381Y227065D01*
X246253Y222937D02*
X246255Y222792D01*
X246261Y222647D01*
X246271Y222503D01*
X246285Y222358D01*
X246302Y222214D01*
X246324Y222071D01*
X246350Y221928D01*
X246379Y221786D01*
X246413Y221645D01*
X246450Y221505D01*
X246491Y221366D01*
X246536Y221228D01*
X246584Y221092D01*
X246637Y220956D01*
X246693Y220823D01*
X246752Y220691D01*
X246816Y220560D01*
X246882Y220431D01*
X246952Y220305D01*
X247026Y220180D01*
X247103Y220057D01*
X247184Y219936D01*
X247267Y219818D01*
X247354Y219702D01*
X247444Y219588D01*
X247537Y219477D01*
X247633Y219368D01*
X247732Y219263D01*
X247834Y219159D01*
X247939Y219059D01*
X248046Y218962D01*
X248156Y218867D01*
X248269Y218776D01*
X248384Y218688D01*
X248501Y218602D01*
X248621Y218520D01*
X248742Y218442D01*
X248866Y218367D01*
X248992Y218295D01*
X249120Y218227D01*
X249250Y218162D01*
X249381Y218100D01*
X249514Y218043D01*
X249649Y217989D01*
X249785Y217939D01*
X249922Y217892D01*
X253591Y225688D02*
X253501Y225780D01*
X253409Y225869D01*
X253314Y225955D01*
X253217Y226038D01*
X253117Y226119D01*
X253015Y226197D01*
X252911Y226271D01*
X252805Y226343D01*
X252696Y226411D01*
X252586Y226477D01*
X252474Y226539D01*
X252360Y226598D01*
X252244Y226653D01*
X252127Y226706D01*
X252009Y226754D01*
X251889Y226800D01*
X251768Y226842D01*
X251645Y226880D01*
X251522Y226915D01*
X251398Y226946D01*
X251272Y226973D01*
X251146Y226997D01*
X251020Y227018D01*
X250893Y227034D01*
X250765Y227047D01*
X250637Y227057D01*
X250509Y227062D01*
X250381Y227064D01*
X253591Y225688D02*
X262763Y217892D01*
X262763Y227064D01*
X254508Y243576D02*
X254183Y243580D01*
X253859Y243592D01*
X253534Y243611D01*
X253211Y243638D01*
X252888Y243673D01*
X252566Y243715D01*
X252245Y243766D01*
X251925Y243823D01*
X251607Y243889D01*
X251291Y243962D01*
X250976Y244042D01*
X250663Y244131D01*
X250353Y244226D01*
X250045Y244329D01*
X249739Y244439D01*
X249436Y244557D01*
X249136Y244681D01*
X248840Y244813D01*
X248546Y244952D01*
X248546Y244951D02*
X248439Y244990D01*
X248334Y245032D01*
X248229Y245078D01*
X248127Y245127D01*
X248026Y245180D01*
X247927Y245236D01*
X247830Y245295D01*
X247735Y245358D01*
X247642Y245424D01*
X247551Y245492D01*
X247463Y245564D01*
X247377Y245639D01*
X247294Y245716D01*
X247213Y245797D01*
X247135Y245880D01*
X247060Y245965D01*
X246988Y246053D01*
X246919Y246143D01*
X246853Y246236D01*
X246790Y246331D01*
X246730Y246427D01*
X246673Y246526D01*
X246620Y246627D01*
X246570Y246729D01*
X246524Y246833D01*
X246481Y246938D01*
X246442Y247045D01*
X246406Y247153D01*
X246374Y247263D01*
X246346Y247373D01*
X246321Y247484D01*
X246301Y247596D01*
X246283Y247708D01*
X246270Y247821D01*
X246261Y247935D01*
X246255Y248048D01*
X246253Y248162D01*
X246255Y248276D01*
X246261Y248389D01*
X246270Y248503D01*
X246283Y248616D01*
X246301Y248728D01*
X246321Y248840D01*
X246346Y248951D01*
X246374Y249061D01*
X246406Y249171D01*
X246442Y249279D01*
X246481Y249386D01*
X246524Y249491D01*
X246570Y249595D01*
X246620Y249697D01*
X246673Y249798D01*
X246730Y249897D01*
X246790Y249993D01*
X246853Y250088D01*
X246919Y250181D01*
X246988Y250271D01*
X247060Y250359D01*
X247135Y250445D01*
X247213Y250527D01*
X247294Y250608D01*
X247377Y250685D01*
X247463Y250760D01*
X247551Y250832D01*
X247642Y250900D01*
X247735Y250966D01*
X247830Y251029D01*
X247927Y251088D01*
X248026Y251144D01*
X248127Y251197D01*
X248229Y251246D01*
X248334Y251292D01*
X248439Y251334D01*
X248546Y251373D01*
X248546Y251372D02*
X248840Y251511D01*
X249137Y251643D01*
X249437Y251767D01*
X249739Y251885D01*
X250045Y251995D01*
X250353Y252098D01*
X250663Y252194D01*
X250976Y252282D01*
X251291Y252362D01*
X251607Y252435D01*
X251925Y252501D01*
X252245Y252558D01*
X252566Y252609D01*
X252888Y252651D01*
X253211Y252686D01*
X253534Y252713D01*
X253859Y252732D01*
X254183Y252744D01*
X254508Y252748D01*
X254508Y243576D02*
X254833Y243580D01*
X255157Y243592D01*
X255482Y243611D01*
X255805Y243638D01*
X256128Y243673D01*
X256450Y243715D01*
X256771Y243766D01*
X257091Y243823D01*
X257409Y243889D01*
X257725Y243962D01*
X258040Y244042D01*
X258353Y244131D01*
X258663Y244226D01*
X258971Y244329D01*
X259277Y244439D01*
X259580Y244557D01*
X259880Y244681D01*
X260176Y244813D01*
X260470Y244952D01*
X260470Y244951D02*
X260577Y244990D01*
X260682Y245032D01*
X260787Y245078D01*
X260889Y245127D01*
X260990Y245180D01*
X261089Y245236D01*
X261186Y245295D01*
X261281Y245358D01*
X261374Y245424D01*
X261465Y245492D01*
X261553Y245564D01*
X261639Y245639D01*
X261722Y245716D01*
X261803Y245797D01*
X261881Y245880D01*
X261956Y245965D01*
X262028Y246053D01*
X262097Y246143D01*
X262164Y246236D01*
X262227Y246331D01*
X262286Y246427D01*
X262343Y246526D01*
X262396Y246627D01*
X262446Y246729D01*
X262492Y246833D01*
X262535Y246939D01*
X262574Y247045D01*
X262610Y247153D01*
X262642Y247263D01*
X262670Y247373D01*
X262695Y247484D01*
X262715Y247596D01*
X262733Y247708D01*
X262746Y247821D01*
X262755Y247935D01*
X262761Y248048D01*
X262763Y248162D01*
X260470Y251372D02*
X260176Y251511D01*
X259879Y251643D01*
X259579Y251767D01*
X259277Y251885D01*
X258971Y251995D01*
X258663Y252098D01*
X258353Y252194D01*
X258040Y252282D01*
X257725Y252362D01*
X257409Y252435D01*
X257091Y252501D01*
X256771Y252558D01*
X256450Y252609D01*
X256128Y252651D01*
X255805Y252686D01*
X255482Y252713D01*
X255157Y252732D01*
X254833Y252744D01*
X254508Y252748D01*
X260470Y251373D02*
X260577Y251334D01*
X260682Y251292D01*
X260787Y251246D01*
X260889Y251197D01*
X260990Y251144D01*
X261089Y251088D01*
X261186Y251029D01*
X261281Y250966D01*
X261374Y250900D01*
X261465Y250832D01*
X261553Y250760D01*
X261639Y250685D01*
X261722Y250608D01*
X261803Y250527D01*
X261881Y250444D01*
X261956Y250359D01*
X262028Y250271D01*
X262097Y250181D01*
X262163Y250088D01*
X262226Y249993D01*
X262286Y249897D01*
X262343Y249798D01*
X262396Y249697D01*
X262446Y249595D01*
X262492Y249491D01*
X262535Y249386D01*
X262574Y249279D01*
X262610Y249171D01*
X262642Y249061D01*
X262670Y248951D01*
X262695Y248840D01*
X262715Y248728D01*
X262733Y248616D01*
X262746Y248503D01*
X262755Y248389D01*
X262761Y248276D01*
X262763Y248162D01*
X259094Y244493D02*
X249922Y251831D01*
X249922Y260326D02*
X246253Y264912D01*
X262763Y264912D01*
X262763Y260326D02*
X262763Y269499D01*
X256342Y277276D02*
X256342Y288283D01*
X246253Y301105D02*
X246255Y301232D01*
X246261Y301359D01*
X246271Y301486D01*
X246284Y301612D01*
X246302Y301738D01*
X246323Y301864D01*
X246349Y301988D01*
X246378Y302112D01*
X246411Y302235D01*
X246447Y302356D01*
X246488Y302477D01*
X246532Y302596D01*
X246580Y302714D01*
X246631Y302830D01*
X246686Y302945D01*
X246744Y303058D01*
X246806Y303169D01*
X246871Y303278D01*
X246940Y303385D01*
X247012Y303490D01*
X247087Y303593D01*
X247165Y303693D01*
X247246Y303791D01*
X247330Y303886D01*
X247417Y303979D01*
X247507Y304069D01*
X247600Y304156D01*
X247695Y304240D01*
X247793Y304321D01*
X247893Y304399D01*
X247996Y304474D01*
X248101Y304546D01*
X248208Y304615D01*
X248317Y304680D01*
X248428Y304742D01*
X248541Y304800D01*
X248656Y304855D01*
X248772Y304906D01*
X248890Y304954D01*
X249009Y304998D01*
X249130Y305039D01*
X249251Y305075D01*
X249374Y305108D01*
X249498Y305137D01*
X249622Y305163D01*
X249748Y305184D01*
X249874Y305202D01*
X250000Y305215D01*
X250127Y305225D01*
X250254Y305231D01*
X250381Y305233D01*
X246253Y301105D02*
X246255Y300960D01*
X246261Y300815D01*
X246271Y300671D01*
X246285Y300526D01*
X246302Y300382D01*
X246324Y300239D01*
X246350Y300096D01*
X246379Y299954D01*
X246413Y299813D01*
X246450Y299673D01*
X246491Y299534D01*
X246536Y299396D01*
X246584Y299260D01*
X246637Y299124D01*
X246693Y298991D01*
X246752Y298859D01*
X246816Y298728D01*
X246882Y298599D01*
X246952Y298473D01*
X247026Y298348D01*
X247103Y298225D01*
X247184Y298104D01*
X247267Y297986D01*
X247354Y297870D01*
X247444Y297756D01*
X247537Y297645D01*
X247633Y297536D01*
X247732Y297431D01*
X247834Y297327D01*
X247939Y297227D01*
X248046Y297130D01*
X248156Y297035D01*
X248269Y296944D01*
X248384Y296856D01*
X248501Y296770D01*
X248621Y296688D01*
X248742Y296610D01*
X248866Y296535D01*
X248992Y296463D01*
X249120Y296395D01*
X249250Y296330D01*
X249381Y296268D01*
X249514Y296211D01*
X249649Y296157D01*
X249785Y296107D01*
X249922Y296060D01*
X253591Y303857D02*
X253501Y303949D01*
X253409Y304038D01*
X253314Y304124D01*
X253217Y304207D01*
X253117Y304288D01*
X253015Y304366D01*
X252911Y304440D01*
X252805Y304512D01*
X252696Y304580D01*
X252586Y304646D01*
X252474Y304708D01*
X252360Y304767D01*
X252244Y304822D01*
X252127Y304875D01*
X252009Y304923D01*
X251889Y304969D01*
X251768Y305011D01*
X251645Y305049D01*
X251522Y305084D01*
X251398Y305115D01*
X251272Y305142D01*
X251146Y305166D01*
X251020Y305187D01*
X250893Y305203D01*
X250765Y305216D01*
X250637Y305226D01*
X250509Y305231D01*
X250381Y305233D01*
X253591Y303857D02*
X262763Y296061D01*
X262763Y305233D01*
X254508Y312811D02*
X254183Y312815D01*
X253859Y312827D01*
X253534Y312846D01*
X253211Y312873D01*
X252888Y312908D01*
X252566Y312950D01*
X252245Y313001D01*
X251925Y313058D01*
X251607Y313124D01*
X251291Y313197D01*
X250976Y313277D01*
X250663Y313366D01*
X250353Y313461D01*
X250045Y313564D01*
X249739Y313674D01*
X249436Y313792D01*
X249136Y313916D01*
X248840Y314048D01*
X248546Y314187D01*
X248546Y314186D02*
X248439Y314225D01*
X248334Y314267D01*
X248229Y314313D01*
X248127Y314362D01*
X248026Y314415D01*
X247927Y314471D01*
X247830Y314530D01*
X247735Y314593D01*
X247642Y314659D01*
X247551Y314727D01*
X247463Y314799D01*
X247377Y314874D01*
X247294Y314951D01*
X247213Y315032D01*
X247135Y315115D01*
X247060Y315200D01*
X246988Y315288D01*
X246919Y315378D01*
X246853Y315471D01*
X246790Y315566D01*
X246730Y315662D01*
X246673Y315761D01*
X246620Y315862D01*
X246570Y315964D01*
X246524Y316068D01*
X246481Y316173D01*
X246442Y316280D01*
X246406Y316388D01*
X246374Y316498D01*
X246346Y316608D01*
X246321Y316719D01*
X246301Y316831D01*
X246283Y316943D01*
X246270Y317056D01*
X246261Y317170D01*
X246255Y317283D01*
X246253Y317397D01*
X246255Y317511D01*
X246261Y317624D01*
X246270Y317738D01*
X246283Y317851D01*
X246301Y317963D01*
X246321Y318075D01*
X246346Y318186D01*
X246374Y318296D01*
X246406Y318406D01*
X246442Y318514D01*
X246481Y318621D01*
X246524Y318726D01*
X246570Y318830D01*
X246620Y318932D01*
X246673Y319033D01*
X246730Y319132D01*
X246790Y319228D01*
X246853Y319323D01*
X246919Y319416D01*
X246988Y319506D01*
X247060Y319594D01*
X247135Y319680D01*
X247213Y319762D01*
X247294Y319843D01*
X247377Y319920D01*
X247463Y319995D01*
X247551Y320067D01*
X247642Y320135D01*
X247735Y320201D01*
X247830Y320264D01*
X247927Y320323D01*
X248026Y320379D01*
X248127Y320432D01*
X248229Y320481D01*
X248334Y320527D01*
X248439Y320569D01*
X248546Y320608D01*
X248546Y320607D02*
X248840Y320746D01*
X249137Y320878D01*
X249437Y321002D01*
X249739Y321120D01*
X250045Y321230D01*
X250353Y321333D01*
X250663Y321429D01*
X250976Y321517D01*
X251291Y321597D01*
X251607Y321670D01*
X251925Y321736D01*
X252245Y321793D01*
X252566Y321844D01*
X252888Y321886D01*
X253211Y321921D01*
X253534Y321948D01*
X253859Y321967D01*
X254183Y321979D01*
X254508Y321983D01*
X254508Y312811D02*
X254833Y312815D01*
X255157Y312827D01*
X255482Y312846D01*
X255805Y312873D01*
X256128Y312908D01*
X256450Y312950D01*
X256771Y313001D01*
X257091Y313058D01*
X257409Y313124D01*
X257725Y313197D01*
X258040Y313277D01*
X258353Y313366D01*
X258663Y313461D01*
X258971Y313564D01*
X259277Y313674D01*
X259580Y313792D01*
X259880Y313916D01*
X260176Y314048D01*
X260470Y314187D01*
X260470Y314186D02*
X260577Y314225D01*
X260682Y314267D01*
X260787Y314313D01*
X260889Y314362D01*
X260990Y314415D01*
X261089Y314471D01*
X261186Y314530D01*
X261281Y314593D01*
X261374Y314659D01*
X261465Y314727D01*
X261553Y314799D01*
X261639Y314874D01*
X261722Y314951D01*
X261803Y315032D01*
X261881Y315115D01*
X261956Y315200D01*
X262028Y315288D01*
X262097Y315378D01*
X262164Y315471D01*
X262227Y315566D01*
X262286Y315662D01*
X262343Y315761D01*
X262396Y315862D01*
X262446Y315964D01*
X262492Y316068D01*
X262535Y316174D01*
X262574Y316280D01*
X262610Y316388D01*
X262642Y316498D01*
X262670Y316608D01*
X262695Y316719D01*
X262715Y316831D01*
X262733Y316943D01*
X262746Y317056D01*
X262755Y317170D01*
X262761Y317283D01*
X262763Y317397D01*
X260470Y320607D02*
X260176Y320746D01*
X259879Y320878D01*
X259579Y321002D01*
X259277Y321120D01*
X258971Y321230D01*
X258663Y321333D01*
X258353Y321429D01*
X258040Y321517D01*
X257725Y321597D01*
X257409Y321670D01*
X257091Y321736D01*
X256771Y321793D01*
X256450Y321844D01*
X256128Y321886D01*
X255805Y321921D01*
X255482Y321948D01*
X255157Y321967D01*
X254833Y321979D01*
X254508Y321983D01*
X260470Y320608D02*
X260577Y320569D01*
X260682Y320527D01*
X260787Y320481D01*
X260889Y320432D01*
X260990Y320379D01*
X261089Y320323D01*
X261186Y320264D01*
X261281Y320201D01*
X261374Y320135D01*
X261465Y320067D01*
X261553Y319995D01*
X261639Y319920D01*
X261722Y319843D01*
X261803Y319762D01*
X261881Y319679D01*
X261956Y319594D01*
X262028Y319506D01*
X262097Y319416D01*
X262163Y319323D01*
X262226Y319228D01*
X262286Y319132D01*
X262343Y319033D01*
X262396Y318932D01*
X262446Y318830D01*
X262492Y318726D01*
X262535Y318621D01*
X262574Y318514D01*
X262610Y318406D01*
X262642Y318296D01*
X262670Y318186D01*
X262695Y318075D01*
X262715Y317963D01*
X262733Y317851D01*
X262746Y317738D01*
X262755Y317624D01*
X262761Y317511D01*
X262763Y317397D01*
X259094Y313728D02*
X249922Y321066D01*
X246253Y334606D02*
X246255Y334733D01*
X246261Y334860D01*
X246271Y334987D01*
X246284Y335113D01*
X246302Y335239D01*
X246323Y335365D01*
X246349Y335489D01*
X246378Y335613D01*
X246411Y335736D01*
X246447Y335857D01*
X246488Y335978D01*
X246532Y336097D01*
X246580Y336215D01*
X246631Y336331D01*
X246686Y336446D01*
X246744Y336559D01*
X246806Y336670D01*
X246871Y336779D01*
X246940Y336886D01*
X247012Y336991D01*
X247087Y337094D01*
X247165Y337194D01*
X247246Y337292D01*
X247330Y337387D01*
X247417Y337480D01*
X247507Y337570D01*
X247600Y337657D01*
X247695Y337741D01*
X247793Y337822D01*
X247893Y337900D01*
X247996Y337975D01*
X248101Y338047D01*
X248208Y338116D01*
X248317Y338181D01*
X248428Y338243D01*
X248541Y338301D01*
X248656Y338356D01*
X248772Y338407D01*
X248890Y338455D01*
X249009Y338499D01*
X249130Y338540D01*
X249251Y338576D01*
X249374Y338609D01*
X249498Y338638D01*
X249622Y338664D01*
X249748Y338685D01*
X249874Y338703D01*
X250000Y338716D01*
X250127Y338726D01*
X250254Y338732D01*
X250381Y338734D01*
X246253Y334606D02*
X246255Y334461D01*
X246261Y334316D01*
X246271Y334172D01*
X246285Y334027D01*
X246302Y333883D01*
X246324Y333740D01*
X246350Y333597D01*
X246379Y333455D01*
X246413Y333314D01*
X246450Y333174D01*
X246491Y333035D01*
X246536Y332897D01*
X246584Y332761D01*
X246637Y332625D01*
X246693Y332492D01*
X246752Y332360D01*
X246816Y332229D01*
X246882Y332100D01*
X246952Y331974D01*
X247026Y331849D01*
X247103Y331726D01*
X247184Y331605D01*
X247267Y331487D01*
X247354Y331371D01*
X247444Y331257D01*
X247537Y331146D01*
X247633Y331037D01*
X247732Y330932D01*
X247834Y330828D01*
X247939Y330728D01*
X248046Y330631D01*
X248156Y330536D01*
X248269Y330445D01*
X248384Y330357D01*
X248501Y330271D01*
X248621Y330189D01*
X248742Y330111D01*
X248866Y330036D01*
X248992Y329964D01*
X249120Y329896D01*
X249250Y329831D01*
X249381Y329769D01*
X249514Y329712D01*
X249649Y329658D01*
X249785Y329608D01*
X249922Y329561D01*
X253591Y337357D02*
X253501Y337449D01*
X253409Y337538D01*
X253314Y337624D01*
X253217Y337707D01*
X253117Y337788D01*
X253015Y337866D01*
X252911Y337940D01*
X252805Y338012D01*
X252696Y338080D01*
X252586Y338146D01*
X252474Y338208D01*
X252360Y338267D01*
X252244Y338322D01*
X252127Y338375D01*
X252009Y338423D01*
X251889Y338469D01*
X251768Y338511D01*
X251645Y338549D01*
X251522Y338584D01*
X251398Y338615D01*
X251272Y338642D01*
X251146Y338666D01*
X251020Y338687D01*
X250893Y338703D01*
X250765Y338716D01*
X250637Y338726D01*
X250509Y338731D01*
X250381Y338733D01*
X253591Y337358D02*
X262763Y329561D01*
X262763Y338734D01*
X249922Y346312D02*
X246253Y350898D01*
X262763Y350898D01*
X262763Y346312D02*
X262763Y355484D01*
D12*
X291592Y244602D02*
X279146Y222758D01*
X288290Y216916D01*
X312928Y218694D01*
X316738Y234442D01*
X301244Y239776D02*
X294640Y263144D01*
X302768Y298704D01*
X294132Y290576D02*
X283464Y309880D01*
X287274Y316992D01*
X311404Y311912D01*
X314960Y299974D01*
X312928Y291084D02*
X316992Y284226D01*
X328168Y279654D01*
X316230Y260858D02*
X311404Y253238D01*
X316230Y260858D02*
X325628Y263906D01*
X323596Y221742D02*
X350774Y223774D01*
X356108Y240538D01*
X349250Y251714D01*
X328168Y245110D02*
X332232Y236474D01*
X328168Y245110D02*
X332740Y257556D01*
X341630Y262128D01*
X357632Y258572D01*
X364998Y261620D01*
X365506Y280162D01*
X361442Y283718D01*
X345694Y278384D01*
X337312Y282448D01*
X332740Y294640D01*
X334518Y299720D01*
X333502Y311912D02*
X323342Y307086D01*
X333502Y311912D02*
X348996Y308864D01*
X354330Y299466D01*
X350266Y290576D01*
X363220Y296672D02*
X375666Y293116D01*
X381000Y287782D01*
X376682Y279146D01*
X377952Y271018D02*
X373126Y270764D01*
X377952Y271018D02*
X381000Y250444D01*
X376936Y243332D01*
X364490Y241046D01*
X388366Y255270D02*
X393446Y263906D01*
X393954Y273304D01*
X388620Y279400D01*
D13*
X465483Y59238D02*
X465483Y55062D01*
X467896Y12785D02*
X467896Y6519D01*
X471029Y9652D02*
X464764Y9652D01*
X287677Y82042D02*
X287679Y82227D01*
X287686Y82412D01*
X287697Y82596D01*
X287712Y82780D01*
X287732Y82964D01*
X287756Y83148D01*
X287785Y83330D01*
X287818Y83512D01*
X287855Y83693D01*
X287897Y83873D01*
X287943Y84053D01*
X287993Y84231D01*
X288047Y84407D01*
X288106Y84583D01*
X288168Y84757D01*
X288235Y84929D01*
X288306Y85100D01*
X288381Y85269D01*
X288460Y85436D01*
X288490Y85516D01*
X288523Y85595D01*
X288560Y85672D01*
X288600Y85748D01*
X288643Y85822D01*
X288689Y85894D01*
X288739Y85963D01*
X288791Y86031D01*
X288847Y86096D01*
X288905Y86159D01*
X288967Y86218D01*
X289030Y86276D01*
X289097Y86330D01*
X289165Y86381D01*
X289236Y86429D01*
X289309Y86474D01*
X289383Y86516D01*
X289460Y86554D01*
X289538Y86589D01*
X289617Y86621D01*
X289698Y86649D01*
X289780Y86673D01*
X289864Y86694D01*
X289947Y86711D01*
X290032Y86724D01*
X290117Y86733D01*
X290202Y86739D01*
X290288Y86741D01*
X290374Y86739D01*
X290459Y86733D01*
X290544Y86724D01*
X290629Y86711D01*
X290712Y86694D01*
X290796Y86673D01*
X290878Y86649D01*
X290959Y86621D01*
X291038Y86589D01*
X291116Y86554D01*
X291193Y86516D01*
X291267Y86474D01*
X291340Y86429D01*
X291411Y86381D01*
X291479Y86330D01*
X291546Y86276D01*
X291609Y86218D01*
X291671Y86159D01*
X291729Y86096D01*
X291785Y86031D01*
X291837Y85963D01*
X291887Y85894D01*
X291933Y85822D01*
X291976Y85748D01*
X292016Y85672D01*
X292053Y85595D01*
X292086Y85516D01*
X292116Y85436D01*
X292195Y85269D01*
X292270Y85100D01*
X292341Y84929D01*
X292408Y84757D01*
X292470Y84583D01*
X292529Y84407D01*
X292583Y84231D01*
X292633Y84053D01*
X292679Y83873D01*
X292721Y83693D01*
X292758Y83512D01*
X292791Y83330D01*
X292820Y83148D01*
X292844Y82964D01*
X292864Y82780D01*
X292879Y82596D01*
X292890Y82412D01*
X292897Y82227D01*
X292899Y82042D01*
X287677Y82042D02*
X287679Y81857D01*
X287686Y81672D01*
X287697Y81488D01*
X287712Y81304D01*
X287732Y81120D01*
X287756Y80936D01*
X287785Y80754D01*
X287818Y80572D01*
X287855Y80391D01*
X287897Y80211D01*
X287943Y80031D01*
X287993Y79853D01*
X288047Y79677D01*
X288106Y79501D01*
X288168Y79327D01*
X288235Y79155D01*
X288306Y78984D01*
X288381Y78815D01*
X288460Y78648D01*
X288490Y78568D01*
X288523Y78489D01*
X288560Y78412D01*
X288600Y78336D01*
X288643Y78262D01*
X288689Y78190D01*
X288739Y78121D01*
X288792Y78053D01*
X288847Y77988D01*
X288906Y77925D01*
X288967Y77866D01*
X289030Y77808D01*
X289097Y77754D01*
X289165Y77703D01*
X289236Y77655D01*
X289309Y77610D01*
X289383Y77568D01*
X289460Y77530D01*
X289538Y77495D01*
X289617Y77463D01*
X289698Y77435D01*
X289780Y77411D01*
X289864Y77390D01*
X289947Y77373D01*
X290032Y77360D01*
X290117Y77351D01*
X290202Y77345D01*
X290288Y77343D01*
X292115Y78648D02*
X292194Y78815D01*
X292269Y78984D01*
X292340Y79155D01*
X292407Y79327D01*
X292469Y79501D01*
X292528Y79677D01*
X292582Y79853D01*
X292632Y80031D01*
X292678Y80211D01*
X292720Y80391D01*
X292757Y80572D01*
X292790Y80754D01*
X292819Y80936D01*
X292843Y81120D01*
X292863Y81304D01*
X292878Y81488D01*
X292889Y81672D01*
X292896Y81857D01*
X292898Y82042D01*
X292116Y78648D02*
X292086Y78568D01*
X292053Y78489D01*
X292016Y78412D01*
X291976Y78336D01*
X291933Y78262D01*
X291887Y78190D01*
X291837Y78121D01*
X291785Y78053D01*
X291729Y77988D01*
X291671Y77925D01*
X291609Y77866D01*
X291546Y77808D01*
X291479Y77754D01*
X291411Y77703D01*
X291340Y77655D01*
X291267Y77610D01*
X291193Y77568D01*
X291116Y77530D01*
X291038Y77495D01*
X290959Y77463D01*
X290878Y77435D01*
X290796Y77411D01*
X290712Y77390D01*
X290629Y77373D01*
X290544Y77360D01*
X290459Y77351D01*
X290374Y77345D01*
X290288Y77343D01*
X288199Y79431D02*
X292376Y84653D01*
X296427Y77865D02*
X296427Y77343D01*
X296427Y77865D02*
X296950Y77865D01*
X296950Y77343D01*
X296427Y77343D01*
X300479Y84653D02*
X303089Y86741D01*
X303089Y77343D01*
X300479Y77343D02*
X305700Y77343D01*
X314717Y78909D02*
X314717Y83608D01*
X314717Y78909D02*
X314719Y78832D01*
X314725Y78756D01*
X314734Y78679D01*
X314747Y78603D01*
X314764Y78528D01*
X314784Y78454D01*
X314809Y78381D01*
X314836Y78310D01*
X314867Y78239D01*
X314902Y78171D01*
X314940Y78104D01*
X314981Y78039D01*
X315025Y77976D01*
X315072Y77916D01*
X315123Y77857D01*
X315176Y77802D01*
X315231Y77749D01*
X315290Y77698D01*
X315350Y77651D01*
X315413Y77607D01*
X315478Y77566D01*
X315545Y77528D01*
X315613Y77493D01*
X315684Y77462D01*
X315755Y77435D01*
X315828Y77410D01*
X315902Y77390D01*
X315977Y77373D01*
X316053Y77360D01*
X316130Y77351D01*
X316206Y77345D01*
X316283Y77343D01*
X318894Y77343D01*
X318894Y83608D01*
X323356Y86741D02*
X323356Y77343D01*
X323356Y86741D02*
X327533Y86741D01*
X327533Y82564D02*
X323356Y82564D01*
X282872Y44034D02*
X282793Y43867D01*
X282718Y43698D01*
X282647Y43527D01*
X282580Y43355D01*
X282518Y43181D01*
X282459Y43005D01*
X282405Y42829D01*
X282355Y42651D01*
X282309Y42471D01*
X282267Y42291D01*
X282230Y42110D01*
X282197Y41928D01*
X282168Y41746D01*
X282144Y41562D01*
X282124Y41378D01*
X282109Y41194D01*
X282098Y41010D01*
X282091Y40825D01*
X282089Y40640D01*
X282872Y44034D02*
X282902Y44114D01*
X282935Y44193D01*
X282972Y44270D01*
X283012Y44346D01*
X283055Y44420D01*
X283101Y44492D01*
X283151Y44561D01*
X283203Y44629D01*
X283259Y44694D01*
X283317Y44757D01*
X283379Y44816D01*
X283442Y44874D01*
X283509Y44928D01*
X283577Y44979D01*
X283648Y45027D01*
X283721Y45072D01*
X283795Y45114D01*
X283872Y45152D01*
X283950Y45187D01*
X284029Y45219D01*
X284110Y45247D01*
X284192Y45271D01*
X284276Y45292D01*
X284359Y45309D01*
X284444Y45322D01*
X284529Y45331D01*
X284614Y45337D01*
X284700Y45339D01*
X284786Y45337D01*
X284871Y45331D01*
X284956Y45322D01*
X285041Y45309D01*
X285124Y45292D01*
X285208Y45271D01*
X285290Y45247D01*
X285371Y45219D01*
X285450Y45187D01*
X285528Y45152D01*
X285605Y45114D01*
X285679Y45072D01*
X285752Y45027D01*
X285823Y44979D01*
X285891Y44928D01*
X285958Y44874D01*
X286021Y44816D01*
X286083Y44757D01*
X286141Y44694D01*
X286197Y44629D01*
X286249Y44561D01*
X286299Y44492D01*
X286345Y44420D01*
X286388Y44346D01*
X286428Y44270D01*
X286465Y44193D01*
X286498Y44114D01*
X286528Y44034D01*
X286607Y43867D01*
X286682Y43698D01*
X286753Y43527D01*
X286820Y43355D01*
X286882Y43181D01*
X286941Y43005D01*
X286995Y42829D01*
X287045Y42651D01*
X287091Y42471D01*
X287133Y42291D01*
X287170Y42110D01*
X287203Y41928D01*
X287232Y41746D01*
X287256Y41562D01*
X287276Y41378D01*
X287291Y41194D01*
X287302Y41010D01*
X287309Y40825D01*
X287311Y40640D01*
X282089Y40640D02*
X282091Y40455D01*
X282098Y40270D01*
X282109Y40086D01*
X282124Y39902D01*
X282144Y39718D01*
X282168Y39534D01*
X282197Y39352D01*
X282230Y39170D01*
X282267Y38989D01*
X282309Y38809D01*
X282355Y38629D01*
X282405Y38451D01*
X282459Y38275D01*
X282518Y38099D01*
X282580Y37925D01*
X282647Y37753D01*
X282718Y37582D01*
X282793Y37413D01*
X282872Y37246D01*
X282902Y37166D01*
X282935Y37087D01*
X282972Y37010D01*
X283012Y36934D01*
X283055Y36860D01*
X283101Y36788D01*
X283151Y36719D01*
X283204Y36651D01*
X283259Y36586D01*
X283318Y36523D01*
X283379Y36464D01*
X283442Y36406D01*
X283509Y36352D01*
X283577Y36301D01*
X283648Y36253D01*
X283721Y36208D01*
X283795Y36166D01*
X283872Y36128D01*
X283950Y36093D01*
X284029Y36061D01*
X284110Y36033D01*
X284192Y36009D01*
X284276Y35988D01*
X284359Y35971D01*
X284444Y35958D01*
X284529Y35949D01*
X284614Y35943D01*
X284700Y35941D01*
X286527Y37246D02*
X286606Y37413D01*
X286681Y37582D01*
X286752Y37753D01*
X286819Y37925D01*
X286881Y38099D01*
X286940Y38275D01*
X286994Y38451D01*
X287044Y38629D01*
X287090Y38809D01*
X287132Y38989D01*
X287169Y39170D01*
X287202Y39352D01*
X287231Y39534D01*
X287255Y39718D01*
X287275Y39902D01*
X287290Y40086D01*
X287301Y40270D01*
X287308Y40455D01*
X287310Y40640D01*
X286528Y37246D02*
X286498Y37166D01*
X286465Y37087D01*
X286428Y37010D01*
X286388Y36934D01*
X286345Y36860D01*
X286299Y36788D01*
X286249Y36719D01*
X286197Y36651D01*
X286141Y36586D01*
X286083Y36523D01*
X286021Y36464D01*
X285958Y36406D01*
X285891Y36352D01*
X285823Y36301D01*
X285752Y36253D01*
X285679Y36208D01*
X285605Y36166D01*
X285528Y36128D01*
X285450Y36093D01*
X285371Y36061D01*
X285290Y36033D01*
X285208Y36009D01*
X285124Y35988D01*
X285041Y35971D01*
X284956Y35958D01*
X284871Y35949D01*
X284786Y35943D01*
X284700Y35941D01*
X282611Y38029D02*
X286788Y43251D01*
X290840Y36463D02*
X290840Y35941D01*
X290840Y36463D02*
X291362Y36463D01*
X291362Y35941D01*
X290840Y35941D01*
X294891Y35941D02*
X297501Y35941D01*
X297602Y35943D01*
X297703Y35949D01*
X297804Y35959D01*
X297904Y35972D01*
X298004Y35990D01*
X298103Y36011D01*
X298201Y36037D01*
X298298Y36066D01*
X298394Y36098D01*
X298488Y36135D01*
X298581Y36175D01*
X298673Y36219D01*
X298762Y36266D01*
X298850Y36317D01*
X298936Y36371D01*
X299019Y36428D01*
X299101Y36488D01*
X299179Y36552D01*
X299256Y36618D01*
X299329Y36688D01*
X299400Y36760D01*
X299468Y36835D01*
X299533Y36913D01*
X299595Y36993D01*
X299654Y37075D01*
X299710Y37160D01*
X299762Y37246D01*
X299811Y37335D01*
X299857Y37426D01*
X299898Y37518D01*
X299937Y37612D01*
X299971Y37707D01*
X300002Y37803D01*
X300029Y37901D01*
X300053Y37999D01*
X300072Y38099D01*
X300088Y38199D01*
X300100Y38299D01*
X300108Y38400D01*
X300112Y38501D01*
X300112Y38603D01*
X300108Y38704D01*
X300100Y38805D01*
X300088Y38905D01*
X300072Y39005D01*
X300053Y39105D01*
X300029Y39203D01*
X300002Y39301D01*
X299971Y39397D01*
X299937Y39492D01*
X299898Y39586D01*
X299857Y39678D01*
X299811Y39769D01*
X299762Y39857D01*
X299710Y39944D01*
X299654Y40029D01*
X299595Y40111D01*
X299533Y40191D01*
X299468Y40269D01*
X299400Y40344D01*
X299329Y40416D01*
X299256Y40486D01*
X299179Y40552D01*
X299101Y40616D01*
X299019Y40676D01*
X298936Y40733D01*
X298850Y40787D01*
X298762Y40838D01*
X298673Y40885D01*
X298581Y40929D01*
X298488Y40969D01*
X298394Y41006D01*
X298298Y41038D01*
X298201Y41067D01*
X298103Y41093D01*
X298004Y41114D01*
X297904Y41132D01*
X297804Y41145D01*
X297703Y41155D01*
X297602Y41161D01*
X297501Y41163D01*
X298023Y45339D02*
X294891Y45339D01*
X298023Y45339D02*
X298113Y45337D01*
X298202Y45331D01*
X298292Y45322D01*
X298381Y45308D01*
X298469Y45291D01*
X298556Y45270D01*
X298643Y45245D01*
X298728Y45216D01*
X298812Y45184D01*
X298894Y45149D01*
X298975Y45109D01*
X299054Y45067D01*
X299131Y45021D01*
X299206Y44971D01*
X299279Y44919D01*
X299350Y44863D01*
X299418Y44805D01*
X299483Y44743D01*
X299546Y44679D01*
X299606Y44612D01*
X299663Y44543D01*
X299717Y44471D01*
X299768Y44397D01*
X299816Y44321D01*
X299860Y44243D01*
X299901Y44163D01*
X299939Y44081D01*
X299973Y43998D01*
X300003Y43913D01*
X300030Y43827D01*
X300053Y43741D01*
X300072Y43653D01*
X300087Y43564D01*
X300099Y43475D01*
X300107Y43386D01*
X300111Y43296D01*
X300111Y43206D01*
X300107Y43116D01*
X300099Y43027D01*
X300087Y42938D01*
X300072Y42849D01*
X300053Y42761D01*
X300030Y42675D01*
X300003Y42589D01*
X299973Y42504D01*
X299939Y42421D01*
X299901Y42339D01*
X299860Y42259D01*
X299816Y42181D01*
X299768Y42105D01*
X299717Y42031D01*
X299663Y41959D01*
X299606Y41890D01*
X299546Y41823D01*
X299483Y41759D01*
X299418Y41697D01*
X299350Y41639D01*
X299279Y41583D01*
X299206Y41531D01*
X299131Y41481D01*
X299054Y41435D01*
X298975Y41393D01*
X298894Y41353D01*
X298812Y41318D01*
X298728Y41286D01*
X298643Y41257D01*
X298556Y41232D01*
X298469Y41211D01*
X298381Y41194D01*
X298292Y41180D01*
X298202Y41171D01*
X298113Y41165D01*
X298023Y41163D01*
X298023Y41162D02*
X295935Y41162D01*
X304035Y35941D02*
X306645Y35941D01*
X306746Y35943D01*
X306847Y35949D01*
X306948Y35959D01*
X307048Y35972D01*
X307148Y35990D01*
X307247Y36011D01*
X307345Y36037D01*
X307442Y36066D01*
X307538Y36098D01*
X307632Y36135D01*
X307725Y36175D01*
X307817Y36219D01*
X307906Y36266D01*
X307994Y36317D01*
X308080Y36371D01*
X308163Y36428D01*
X308245Y36488D01*
X308323Y36552D01*
X308400Y36618D01*
X308473Y36688D01*
X308544Y36760D01*
X308612Y36835D01*
X308677Y36913D01*
X308739Y36993D01*
X308798Y37075D01*
X308854Y37160D01*
X308906Y37246D01*
X308955Y37335D01*
X309001Y37426D01*
X309042Y37518D01*
X309081Y37612D01*
X309115Y37707D01*
X309146Y37803D01*
X309173Y37901D01*
X309197Y37999D01*
X309216Y38099D01*
X309232Y38199D01*
X309244Y38299D01*
X309252Y38400D01*
X309256Y38501D01*
X309256Y38603D01*
X309252Y38704D01*
X309244Y38805D01*
X309232Y38905D01*
X309216Y39005D01*
X309197Y39105D01*
X309173Y39203D01*
X309146Y39301D01*
X309115Y39397D01*
X309081Y39492D01*
X309042Y39586D01*
X309001Y39678D01*
X308955Y39769D01*
X308906Y39857D01*
X308854Y39944D01*
X308798Y40029D01*
X308739Y40111D01*
X308677Y40191D01*
X308612Y40269D01*
X308544Y40344D01*
X308473Y40416D01*
X308400Y40486D01*
X308323Y40552D01*
X308245Y40616D01*
X308163Y40676D01*
X308080Y40733D01*
X307994Y40787D01*
X307906Y40838D01*
X307817Y40885D01*
X307725Y40929D01*
X307632Y40969D01*
X307538Y41006D01*
X307442Y41038D01*
X307345Y41067D01*
X307247Y41093D01*
X307148Y41114D01*
X307048Y41132D01*
X306948Y41145D01*
X306847Y41155D01*
X306746Y41161D01*
X306645Y41163D01*
X307167Y45339D02*
X304035Y45339D01*
X307167Y45339D02*
X307257Y45337D01*
X307346Y45331D01*
X307436Y45322D01*
X307525Y45308D01*
X307613Y45291D01*
X307700Y45270D01*
X307787Y45245D01*
X307872Y45216D01*
X307956Y45184D01*
X308038Y45149D01*
X308119Y45109D01*
X308198Y45067D01*
X308275Y45021D01*
X308350Y44971D01*
X308423Y44919D01*
X308494Y44863D01*
X308562Y44805D01*
X308627Y44743D01*
X308690Y44679D01*
X308750Y44612D01*
X308807Y44543D01*
X308861Y44471D01*
X308912Y44397D01*
X308960Y44321D01*
X309004Y44243D01*
X309045Y44163D01*
X309083Y44081D01*
X309117Y43998D01*
X309147Y43913D01*
X309174Y43827D01*
X309197Y43741D01*
X309216Y43653D01*
X309231Y43564D01*
X309243Y43475D01*
X309251Y43386D01*
X309255Y43296D01*
X309255Y43206D01*
X309251Y43116D01*
X309243Y43027D01*
X309231Y42938D01*
X309216Y42849D01*
X309197Y42761D01*
X309174Y42675D01*
X309147Y42589D01*
X309117Y42504D01*
X309083Y42421D01*
X309045Y42339D01*
X309004Y42259D01*
X308960Y42181D01*
X308912Y42105D01*
X308861Y42031D01*
X308807Y41959D01*
X308750Y41890D01*
X308690Y41823D01*
X308627Y41759D01*
X308562Y41697D01*
X308494Y41639D01*
X308423Y41583D01*
X308350Y41531D01*
X308275Y41481D01*
X308198Y41435D01*
X308119Y41393D01*
X308038Y41353D01*
X307956Y41318D01*
X307872Y41286D01*
X307787Y41257D01*
X307700Y41232D01*
X307613Y41211D01*
X307525Y41194D01*
X307436Y41180D01*
X307346Y41171D01*
X307257Y41165D01*
X307167Y41163D01*
X307167Y41162D02*
X305079Y41162D01*
X318273Y42206D02*
X318273Y37507D01*
X318275Y37430D01*
X318281Y37354D01*
X318290Y37277D01*
X318303Y37201D01*
X318320Y37126D01*
X318340Y37052D01*
X318365Y36979D01*
X318392Y36908D01*
X318423Y36837D01*
X318458Y36769D01*
X318496Y36702D01*
X318537Y36637D01*
X318581Y36574D01*
X318628Y36514D01*
X318679Y36455D01*
X318732Y36400D01*
X318787Y36347D01*
X318846Y36296D01*
X318906Y36249D01*
X318969Y36205D01*
X319034Y36164D01*
X319101Y36126D01*
X319169Y36091D01*
X319240Y36060D01*
X319311Y36033D01*
X319384Y36008D01*
X319458Y35988D01*
X319533Y35971D01*
X319609Y35958D01*
X319686Y35949D01*
X319762Y35943D01*
X319839Y35941D01*
X322450Y35941D01*
X322450Y42206D01*
X326912Y45339D02*
X326912Y35941D01*
X326912Y45339D02*
X331089Y45339D01*
X331089Y41162D02*
X326912Y41162D01*
X394335Y63190D02*
X394335Y67366D01*
X394337Y67467D01*
X394343Y67568D01*
X394353Y67669D01*
X394366Y67769D01*
X394384Y67869D01*
X394405Y67968D01*
X394431Y68066D01*
X394460Y68163D01*
X394492Y68259D01*
X394529Y68353D01*
X394569Y68446D01*
X394613Y68538D01*
X394660Y68627D01*
X394711Y68715D01*
X394765Y68801D01*
X394822Y68884D01*
X394882Y68966D01*
X394946Y69044D01*
X395012Y69121D01*
X395082Y69194D01*
X395154Y69265D01*
X395229Y69333D01*
X395307Y69398D01*
X395387Y69460D01*
X395469Y69519D01*
X395554Y69575D01*
X395641Y69627D01*
X395729Y69676D01*
X395820Y69722D01*
X395912Y69763D01*
X396006Y69802D01*
X396101Y69836D01*
X396197Y69867D01*
X396295Y69894D01*
X396393Y69918D01*
X396493Y69937D01*
X396593Y69953D01*
X396693Y69965D01*
X396794Y69973D01*
X396895Y69977D01*
X396997Y69977D01*
X397098Y69973D01*
X397199Y69965D01*
X397299Y69953D01*
X397399Y69937D01*
X397499Y69918D01*
X397597Y69894D01*
X397695Y69867D01*
X397791Y69836D01*
X397886Y69802D01*
X397980Y69763D01*
X398072Y69722D01*
X398163Y69676D01*
X398252Y69627D01*
X398338Y69575D01*
X398423Y69519D01*
X398505Y69460D01*
X398585Y69398D01*
X398663Y69333D01*
X398738Y69265D01*
X398810Y69194D01*
X398880Y69121D01*
X398946Y69044D01*
X399010Y68966D01*
X399070Y68884D01*
X399127Y68801D01*
X399181Y68715D01*
X399232Y68627D01*
X399279Y68538D01*
X399323Y68446D01*
X399363Y68353D01*
X399400Y68259D01*
X399432Y68163D01*
X399461Y68066D01*
X399487Y67968D01*
X399508Y67869D01*
X399526Y67769D01*
X399539Y67669D01*
X399549Y67568D01*
X399555Y67467D01*
X399557Y67366D01*
X399556Y67366D02*
X399556Y63190D01*
X399557Y63190D02*
X399555Y63089D01*
X399549Y62988D01*
X399539Y62887D01*
X399526Y62787D01*
X399508Y62687D01*
X399487Y62588D01*
X399461Y62490D01*
X399432Y62393D01*
X399400Y62297D01*
X399363Y62203D01*
X399323Y62110D01*
X399279Y62018D01*
X399232Y61929D01*
X399181Y61841D01*
X399127Y61755D01*
X399070Y61672D01*
X399010Y61590D01*
X398946Y61512D01*
X398880Y61435D01*
X398810Y61362D01*
X398738Y61291D01*
X398663Y61223D01*
X398585Y61158D01*
X398505Y61096D01*
X398423Y61037D01*
X398338Y60981D01*
X398251Y60929D01*
X398163Y60880D01*
X398072Y60834D01*
X397980Y60793D01*
X397886Y60754D01*
X397791Y60720D01*
X397695Y60689D01*
X397597Y60662D01*
X397499Y60638D01*
X397399Y60619D01*
X397299Y60603D01*
X397199Y60591D01*
X397098Y60583D01*
X396997Y60579D01*
X396895Y60579D01*
X396794Y60583D01*
X396693Y60591D01*
X396593Y60603D01*
X396493Y60619D01*
X396393Y60638D01*
X396295Y60662D01*
X396197Y60689D01*
X396101Y60720D01*
X396006Y60754D01*
X395912Y60793D01*
X395820Y60834D01*
X395729Y60880D01*
X395641Y60929D01*
X395554Y60981D01*
X395469Y61037D01*
X395387Y61096D01*
X395307Y61158D01*
X395229Y61223D01*
X395154Y61291D01*
X395082Y61362D01*
X395012Y61435D01*
X394946Y61512D01*
X394882Y61590D01*
X394822Y61672D01*
X394765Y61755D01*
X394711Y61841D01*
X394660Y61929D01*
X394613Y62018D01*
X394569Y62110D01*
X394529Y62203D01*
X394492Y62297D01*
X394460Y62393D01*
X394431Y62490D01*
X394405Y62588D01*
X394384Y62687D01*
X394366Y62787D01*
X394353Y62887D01*
X394343Y62988D01*
X394337Y63089D01*
X394335Y63190D01*
X403801Y60579D02*
X403801Y69977D01*
X407978Y69977D01*
X407978Y65800D02*
X403801Y65800D01*
X411726Y69977D02*
X411726Y60579D01*
X411726Y69977D02*
X415903Y69977D01*
X415903Y65800D02*
X411726Y65800D01*
X347345Y67366D02*
X347345Y63190D01*
X347345Y67366D02*
X347347Y67467D01*
X347353Y67568D01*
X347363Y67669D01*
X347376Y67769D01*
X347394Y67869D01*
X347415Y67968D01*
X347441Y68066D01*
X347470Y68163D01*
X347502Y68259D01*
X347539Y68353D01*
X347579Y68446D01*
X347623Y68538D01*
X347670Y68627D01*
X347721Y68715D01*
X347775Y68801D01*
X347832Y68884D01*
X347892Y68966D01*
X347956Y69044D01*
X348022Y69121D01*
X348092Y69194D01*
X348164Y69265D01*
X348239Y69333D01*
X348317Y69398D01*
X348397Y69460D01*
X348479Y69519D01*
X348564Y69575D01*
X348651Y69627D01*
X348739Y69676D01*
X348830Y69722D01*
X348922Y69763D01*
X349016Y69802D01*
X349111Y69836D01*
X349207Y69867D01*
X349305Y69894D01*
X349403Y69918D01*
X349503Y69937D01*
X349603Y69953D01*
X349703Y69965D01*
X349804Y69973D01*
X349905Y69977D01*
X350007Y69977D01*
X350108Y69973D01*
X350209Y69965D01*
X350309Y69953D01*
X350409Y69937D01*
X350509Y69918D01*
X350607Y69894D01*
X350705Y69867D01*
X350801Y69836D01*
X350896Y69802D01*
X350990Y69763D01*
X351082Y69722D01*
X351173Y69676D01*
X351262Y69627D01*
X351348Y69575D01*
X351433Y69519D01*
X351515Y69460D01*
X351595Y69398D01*
X351673Y69333D01*
X351748Y69265D01*
X351820Y69194D01*
X351890Y69121D01*
X351956Y69044D01*
X352020Y68966D01*
X352080Y68884D01*
X352137Y68801D01*
X352191Y68715D01*
X352242Y68627D01*
X352289Y68538D01*
X352333Y68446D01*
X352373Y68353D01*
X352410Y68259D01*
X352442Y68163D01*
X352471Y68066D01*
X352497Y67968D01*
X352518Y67869D01*
X352536Y67769D01*
X352549Y67669D01*
X352559Y67568D01*
X352565Y67467D01*
X352567Y67366D01*
X352566Y67366D02*
X352566Y63190D01*
X352567Y63190D02*
X352565Y63089D01*
X352559Y62988D01*
X352549Y62887D01*
X352536Y62787D01*
X352518Y62687D01*
X352497Y62588D01*
X352471Y62490D01*
X352442Y62393D01*
X352410Y62297D01*
X352373Y62203D01*
X352333Y62110D01*
X352289Y62018D01*
X352242Y61929D01*
X352191Y61841D01*
X352137Y61755D01*
X352080Y61672D01*
X352020Y61590D01*
X351956Y61512D01*
X351890Y61435D01*
X351820Y61362D01*
X351748Y61291D01*
X351673Y61223D01*
X351595Y61158D01*
X351515Y61096D01*
X351433Y61037D01*
X351348Y60981D01*
X351261Y60929D01*
X351173Y60880D01*
X351082Y60834D01*
X350990Y60793D01*
X350896Y60754D01*
X350801Y60720D01*
X350705Y60689D01*
X350607Y60662D01*
X350509Y60638D01*
X350409Y60619D01*
X350309Y60603D01*
X350209Y60591D01*
X350108Y60583D01*
X350007Y60579D01*
X349905Y60579D01*
X349804Y60583D01*
X349703Y60591D01*
X349603Y60603D01*
X349503Y60619D01*
X349403Y60638D01*
X349305Y60662D01*
X349207Y60689D01*
X349111Y60720D01*
X349016Y60754D01*
X348922Y60793D01*
X348830Y60834D01*
X348739Y60880D01*
X348651Y60929D01*
X348564Y60981D01*
X348479Y61037D01*
X348397Y61096D01*
X348317Y61158D01*
X348239Y61223D01*
X348164Y61291D01*
X348092Y61362D01*
X348022Y61435D01*
X347956Y61512D01*
X347892Y61590D01*
X347832Y61672D01*
X347775Y61755D01*
X347721Y61841D01*
X347670Y61929D01*
X347623Y62018D01*
X347579Y62110D01*
X347539Y62203D01*
X347502Y62297D01*
X347470Y62393D01*
X347441Y62490D01*
X347415Y62588D01*
X347394Y62687D01*
X347376Y62787D01*
X347363Y62887D01*
X347353Y62988D01*
X347347Y63089D01*
X347345Y63190D01*
X356794Y60579D02*
X356794Y69977D01*
X362015Y60579D01*
X362015Y69977D01*
D14*
X102362Y477351D02*
X102364Y477421D01*
X102370Y477491D01*
X102379Y477561D01*
X102392Y477630D01*
X102409Y477698D01*
X102430Y477765D01*
X102454Y477831D01*
X102482Y477896D01*
X102513Y477959D01*
X102548Y478020D01*
X102586Y478079D01*
X102627Y478137D01*
X102671Y478191D01*
X102718Y478244D01*
X102767Y478293D01*
X102820Y478340D01*
X102874Y478384D01*
X102932Y478425D01*
X102991Y478463D01*
X103052Y478498D01*
X103115Y478529D01*
X103180Y478557D01*
X103246Y478581D01*
X103313Y478602D01*
X103381Y478619D01*
X103450Y478632D01*
X103520Y478641D01*
X103590Y478647D01*
X103660Y478649D01*
X103739Y478647D01*
X103818Y478641D01*
X103897Y478632D01*
X103975Y478618D01*
X104052Y478601D01*
X104129Y478580D01*
X104204Y478555D01*
X104278Y478527D01*
X104350Y478495D01*
X104421Y478460D01*
X104490Y478421D01*
X104557Y478379D01*
X104622Y478333D01*
X104685Y478285D01*
X104745Y478233D01*
X104802Y478179D01*
X104857Y478122D01*
X104909Y478062D01*
X104958Y478000D01*
X104959Y477999D02*
X105008Y477937D01*
X105060Y477877D01*
X105115Y477820D01*
X105172Y477766D01*
X105232Y477714D01*
X105295Y477666D01*
X105360Y477620D01*
X105427Y477578D01*
X105496Y477539D01*
X105567Y477504D01*
X105639Y477472D01*
X105713Y477444D01*
X105789Y477419D01*
X105865Y477398D01*
X105942Y477381D01*
X106020Y477367D01*
X106099Y477358D01*
X106178Y477352D01*
X106257Y477350D01*
X106257Y477351D02*
X106327Y477353D01*
X106397Y477359D01*
X106467Y477368D01*
X106536Y477381D01*
X106604Y477398D01*
X106671Y477419D01*
X106737Y477443D01*
X106802Y477471D01*
X106865Y477502D01*
X106926Y477537D01*
X106985Y477575D01*
X107043Y477616D01*
X107097Y477660D01*
X107150Y477707D01*
X107199Y477756D01*
X107246Y477809D01*
X107290Y477863D01*
X107331Y477921D01*
X107369Y477980D01*
X107404Y478041D01*
X107435Y478104D01*
X107463Y478169D01*
X107487Y478235D01*
X107508Y478302D01*
X107525Y478370D01*
X107538Y478439D01*
X107547Y478509D01*
X107553Y478579D01*
X107555Y478649D01*
X399542Y476589D02*
X399544Y476659D01*
X399550Y476729D01*
X399559Y476799D01*
X399572Y476868D01*
X399589Y476936D01*
X399610Y477003D01*
X399634Y477069D01*
X399662Y477134D01*
X399693Y477197D01*
X399728Y477258D01*
X399766Y477317D01*
X399807Y477375D01*
X399851Y477429D01*
X399898Y477482D01*
X399947Y477531D01*
X400000Y477578D01*
X400054Y477622D01*
X400112Y477663D01*
X400171Y477701D01*
X400232Y477736D01*
X400295Y477767D01*
X400360Y477795D01*
X400426Y477819D01*
X400493Y477840D01*
X400561Y477857D01*
X400630Y477870D01*
X400700Y477879D01*
X400770Y477885D01*
X400840Y477887D01*
X400919Y477885D01*
X400998Y477879D01*
X401077Y477870D01*
X401155Y477856D01*
X401232Y477839D01*
X401309Y477818D01*
X401384Y477793D01*
X401458Y477765D01*
X401530Y477733D01*
X401601Y477698D01*
X401670Y477659D01*
X401737Y477617D01*
X401802Y477571D01*
X401865Y477523D01*
X401925Y477471D01*
X401982Y477417D01*
X402037Y477360D01*
X402089Y477300D01*
X402138Y477238D01*
X402139Y477237D02*
X402188Y477175D01*
X402240Y477115D01*
X402295Y477058D01*
X402352Y477004D01*
X402412Y476952D01*
X402475Y476904D01*
X402540Y476858D01*
X402607Y476816D01*
X402676Y476777D01*
X402747Y476742D01*
X402819Y476710D01*
X402893Y476682D01*
X402969Y476657D01*
X403045Y476636D01*
X403122Y476619D01*
X403200Y476605D01*
X403279Y476596D01*
X403358Y476590D01*
X403437Y476588D01*
X403437Y476589D02*
X403507Y476591D01*
X403577Y476597D01*
X403647Y476606D01*
X403716Y476619D01*
X403784Y476636D01*
X403851Y476657D01*
X403917Y476681D01*
X403982Y476709D01*
X404045Y476740D01*
X404106Y476775D01*
X404165Y476813D01*
X404223Y476854D01*
X404277Y476898D01*
X404330Y476945D01*
X404379Y476994D01*
X404426Y477047D01*
X404470Y477101D01*
X404511Y477159D01*
X404549Y477218D01*
X404584Y477279D01*
X404615Y477342D01*
X404643Y477407D01*
X404667Y477473D01*
X404688Y477540D01*
X404705Y477608D01*
X404718Y477677D01*
X404727Y477747D01*
X404733Y477817D01*
X404735Y477887D01*
X84497Y476984D02*
X76708Y476984D01*
X80603Y480878D02*
X80603Y473089D01*
X425450Y479270D02*
X433239Y479270D01*
X429345Y483164D02*
X429345Y475375D01*
X55993Y479778D02*
X50800Y479778D01*
X449580Y481810D02*
X454773Y481810D01*
D15*
X218384Y445911D02*
X213868Y445911D01*
X295910Y443879D02*
X302683Y443879D01*
X299297Y440492D02*
X299297Y447266D01*
X273078Y448310D02*
X273078Y438150D01*
X270256Y448310D02*
X275900Y448310D01*
X249372Y439420D02*
X244856Y439420D01*
X244856Y449580D01*
X249372Y449580D01*
X248243Y445064D02*
X244856Y445064D01*
X306832Y26924D02*
X306832Y14224D01*
X280162Y33274D02*
X333502Y33274D01*
X333502Y7874D01*
X280162Y7874D01*
X280162Y33274D01*
X306324Y55880D02*
X306324Y68580D01*
X279654Y74930D02*
X332994Y74930D01*
X332994Y49530D01*
X279654Y49530D01*
X279654Y74930D01*
D16*
X290068Y481076D02*
X302768Y481076D01*
X309118Y474726D01*
X309118Y462026D02*
X302768Y455676D01*
X264668Y481076D02*
X258318Y474726D01*
X264668Y481076D02*
X277368Y481076D01*
X283718Y474726D01*
X283718Y462026D02*
X277368Y455676D01*
X264668Y455676D01*
X258318Y462026D01*
X283718Y474726D02*
X290068Y481076D01*
X283718Y462026D02*
X290068Y455676D01*
X302768Y455676D01*
X226568Y481076D02*
X213868Y481076D01*
X226568Y481076D02*
X232918Y474726D01*
X232918Y462026D02*
X226568Y455676D01*
X232918Y474726D02*
X239268Y481076D01*
X251968Y481076D01*
X258318Y474726D01*
X258318Y462026D02*
X251968Y455676D01*
X239268Y455676D01*
X232918Y462026D01*
X207518Y462026D02*
X207518Y474726D01*
X213868Y481076D01*
X207518Y462026D02*
X213868Y455676D01*
X226568Y455676D01*
X309118Y462026D02*
X309118Y474726D01*
X228854Y486918D02*
X228854Y495046D01*
X228854Y491434D02*
X233370Y491434D01*
X233370Y495046D02*
X233370Y486918D01*
X240063Y486918D02*
X241869Y486918D01*
X240063Y486918D02*
X239980Y486920D01*
X239896Y486926D01*
X239813Y486935D01*
X239731Y486949D01*
X239650Y486966D01*
X239569Y486987D01*
X239489Y487012D01*
X239411Y487040D01*
X239334Y487072D01*
X239258Y487107D01*
X239184Y487146D01*
X239112Y487189D01*
X239042Y487234D01*
X238975Y487283D01*
X238909Y487335D01*
X238846Y487389D01*
X238786Y487447D01*
X238728Y487507D01*
X238674Y487570D01*
X238622Y487636D01*
X238573Y487703D01*
X238528Y487773D01*
X238485Y487845D01*
X238446Y487919D01*
X238411Y487995D01*
X238379Y488072D01*
X238351Y488150D01*
X238326Y488230D01*
X238305Y488311D01*
X238288Y488392D01*
X238274Y488474D01*
X238265Y488557D01*
X238259Y488641D01*
X238257Y488724D01*
X238256Y488724D02*
X238256Y493240D01*
X238257Y493240D02*
X238259Y493323D01*
X238265Y493407D01*
X238274Y493490D01*
X238288Y493572D01*
X238305Y493653D01*
X238326Y493734D01*
X238351Y493814D01*
X238379Y493892D01*
X238411Y493969D01*
X238446Y494045D01*
X238485Y494119D01*
X238528Y494191D01*
X238573Y494261D01*
X238622Y494328D01*
X238674Y494394D01*
X238728Y494457D01*
X238786Y494517D01*
X238846Y494575D01*
X238909Y494629D01*
X238975Y494681D01*
X239042Y494730D01*
X239112Y494775D01*
X239184Y494818D01*
X239258Y494857D01*
X239333Y494892D01*
X239411Y494924D01*
X239489Y494952D01*
X239569Y494977D01*
X239649Y494998D01*
X239731Y495015D01*
X239813Y495029D01*
X239896Y495038D01*
X239980Y495044D01*
X240063Y495046D01*
X241869Y495046D01*
X246081Y490079D02*
X251499Y490079D01*
X258690Y486918D02*
X258773Y486920D01*
X258857Y486926D01*
X258940Y486935D01*
X259022Y486949D01*
X259104Y486966D01*
X259184Y486987D01*
X259264Y487012D01*
X259342Y487040D01*
X259420Y487072D01*
X259495Y487107D01*
X259569Y487146D01*
X259641Y487189D01*
X259711Y487234D01*
X259778Y487283D01*
X259844Y487335D01*
X259907Y487389D01*
X259967Y487447D01*
X260025Y487507D01*
X260079Y487570D01*
X260131Y487636D01*
X260180Y487703D01*
X260225Y487773D01*
X260268Y487845D01*
X260307Y487919D01*
X260342Y487995D01*
X260374Y488072D01*
X260402Y488150D01*
X260427Y488230D01*
X260448Y488311D01*
X260465Y488392D01*
X260479Y488474D01*
X260488Y488557D01*
X260494Y488641D01*
X260496Y488724D01*
X258690Y486918D02*
X258570Y486920D01*
X258449Y486926D01*
X258329Y486935D01*
X258209Y486948D01*
X258090Y486965D01*
X257971Y486986D01*
X257853Y487011D01*
X257736Y487039D01*
X257620Y487071D01*
X257505Y487107D01*
X257391Y487146D01*
X257278Y487189D01*
X257167Y487235D01*
X257058Y487285D01*
X256949Y487338D01*
X256843Y487395D01*
X256739Y487455D01*
X256636Y487518D01*
X256536Y487585D01*
X256437Y487654D01*
X256341Y487727D01*
X256247Y487802D01*
X256156Y487881D01*
X256067Y487963D01*
X255981Y488047D01*
X256207Y493240D02*
X256209Y493323D01*
X256215Y493407D01*
X256224Y493490D01*
X256238Y493572D01*
X256255Y493653D01*
X256276Y493734D01*
X256301Y493814D01*
X256329Y493892D01*
X256361Y493969D01*
X256396Y494045D01*
X256435Y494119D01*
X256478Y494191D01*
X256523Y494261D01*
X256572Y494328D01*
X256624Y494394D01*
X256678Y494457D01*
X256736Y494517D01*
X256796Y494575D01*
X256859Y494629D01*
X256925Y494681D01*
X256992Y494730D01*
X257062Y494775D01*
X257134Y494818D01*
X257208Y494857D01*
X257284Y494892D01*
X257361Y494924D01*
X257439Y494952D01*
X257519Y494977D01*
X257600Y494998D01*
X257681Y495015D01*
X257763Y495029D01*
X257846Y495038D01*
X257930Y495044D01*
X258013Y495046D01*
X258128Y495044D01*
X258242Y495038D01*
X258357Y495029D01*
X258470Y495015D01*
X258584Y494998D01*
X258697Y494976D01*
X258808Y494951D01*
X258920Y494922D01*
X259030Y494890D01*
X259138Y494854D01*
X259246Y494814D01*
X259352Y494770D01*
X259457Y494723D01*
X259559Y494672D01*
X259661Y494618D01*
X259760Y494561D01*
X259857Y494500D01*
X259952Y494436D01*
X260045Y494369D01*
X257110Y491660D02*
X257040Y491704D01*
X256971Y491750D01*
X256905Y491800D01*
X256841Y491853D01*
X256780Y491908D01*
X256721Y491967D01*
X256665Y492028D01*
X256612Y492091D01*
X256561Y492157D01*
X256514Y492224D01*
X256470Y492294D01*
X256429Y492366D01*
X256391Y492440D01*
X256356Y492515D01*
X256325Y492592D01*
X256298Y492670D01*
X256274Y492749D01*
X256254Y492830D01*
X256237Y492911D01*
X256224Y492992D01*
X256214Y493075D01*
X256209Y493157D01*
X256207Y493240D01*
X259593Y490304D02*
X259663Y490260D01*
X259732Y490214D01*
X259798Y490164D01*
X259862Y490111D01*
X259923Y490056D01*
X259982Y489997D01*
X260038Y489936D01*
X260091Y489873D01*
X260142Y489807D01*
X260189Y489740D01*
X260233Y489670D01*
X260274Y489598D01*
X260312Y489524D01*
X260347Y489449D01*
X260378Y489372D01*
X260405Y489294D01*
X260429Y489215D01*
X260449Y489134D01*
X260466Y489053D01*
X260479Y488972D01*
X260489Y488889D01*
X260494Y488807D01*
X260496Y488724D01*
X259594Y490305D02*
X257110Y491659D01*
X265228Y495046D02*
X265228Y486918D01*
X265228Y495046D02*
X267486Y495046D01*
X267579Y495044D01*
X267672Y495038D01*
X267765Y495029D01*
X267858Y495015D01*
X267949Y494998D01*
X268040Y494977D01*
X268130Y494952D01*
X268219Y494924D01*
X268307Y494892D01*
X268393Y494856D01*
X268478Y494817D01*
X268561Y494774D01*
X268642Y494728D01*
X268721Y494678D01*
X268798Y494626D01*
X268873Y494570D01*
X268945Y494511D01*
X269015Y494449D01*
X269083Y494385D01*
X269147Y494317D01*
X269209Y494247D01*
X269268Y494175D01*
X269324Y494100D01*
X269376Y494023D01*
X269426Y493944D01*
X269472Y493863D01*
X269515Y493780D01*
X269554Y493695D01*
X269590Y493609D01*
X269622Y493521D01*
X269650Y493432D01*
X269675Y493342D01*
X269696Y493251D01*
X269713Y493160D01*
X269727Y493067D01*
X269736Y492974D01*
X269742Y492881D01*
X269744Y492788D01*
X269742Y492695D01*
X269736Y492602D01*
X269727Y492509D01*
X269713Y492416D01*
X269696Y492325D01*
X269675Y492234D01*
X269650Y492144D01*
X269622Y492055D01*
X269590Y491967D01*
X269554Y491881D01*
X269515Y491796D01*
X269472Y491713D01*
X269426Y491632D01*
X269376Y491553D01*
X269324Y491476D01*
X269268Y491401D01*
X269209Y491329D01*
X269147Y491259D01*
X269083Y491191D01*
X269015Y491127D01*
X268945Y491065D01*
X268873Y491006D01*
X268798Y490950D01*
X268721Y490898D01*
X268642Y490848D01*
X268561Y490802D01*
X268478Y490759D01*
X268393Y490720D01*
X268307Y490684D01*
X268219Y490652D01*
X268130Y490624D01*
X268040Y490599D01*
X267949Y490578D01*
X267858Y490561D01*
X267765Y490547D01*
X267672Y490538D01*
X267579Y490532D01*
X267486Y490530D01*
X265228Y490530D01*
X267937Y490530D02*
X269744Y486918D01*
X274269Y490982D02*
X274271Y491142D01*
X274277Y491302D01*
X274286Y491461D01*
X274300Y491621D01*
X274317Y491780D01*
X274338Y491938D01*
X274362Y492096D01*
X274391Y492253D01*
X274423Y492410D01*
X274459Y492566D01*
X274499Y492721D01*
X274542Y492875D01*
X274589Y493028D01*
X274640Y493179D01*
X274694Y493330D01*
X274752Y493479D01*
X274813Y493626D01*
X274878Y493772D01*
X274946Y493917D01*
X274974Y493992D01*
X275005Y494065D01*
X275040Y494137D01*
X275078Y494207D01*
X275119Y494275D01*
X275164Y494341D01*
X275211Y494405D01*
X275262Y494467D01*
X275315Y494526D01*
X275372Y494582D01*
X275431Y494636D01*
X275492Y494687D01*
X275556Y494735D01*
X275622Y494780D01*
X275690Y494821D01*
X275760Y494859D01*
X275831Y494894D01*
X275905Y494926D01*
X275979Y494954D01*
X276055Y494978D01*
X276132Y494999D01*
X276210Y495016D01*
X276289Y495029D01*
X276368Y495038D01*
X276447Y495044D01*
X276527Y495046D01*
X276607Y495044D01*
X276686Y495038D01*
X276765Y495029D01*
X276844Y495016D01*
X276922Y494999D01*
X276999Y494978D01*
X277075Y494954D01*
X277149Y494926D01*
X277223Y494894D01*
X277294Y494859D01*
X277364Y494821D01*
X277432Y494780D01*
X277498Y494735D01*
X277562Y494687D01*
X277623Y494636D01*
X277682Y494582D01*
X277739Y494526D01*
X277792Y494467D01*
X277843Y494405D01*
X277890Y494341D01*
X277935Y494275D01*
X277976Y494207D01*
X278014Y494137D01*
X278049Y494065D01*
X278080Y493992D01*
X278108Y493917D01*
X278107Y493917D02*
X278175Y493772D01*
X278240Y493626D01*
X278301Y493479D01*
X278359Y493330D01*
X278413Y493179D01*
X278464Y493028D01*
X278511Y492875D01*
X278554Y492721D01*
X278594Y492566D01*
X278630Y492410D01*
X278662Y492253D01*
X278691Y492096D01*
X278715Y491938D01*
X278736Y491780D01*
X278753Y491621D01*
X278767Y491461D01*
X278776Y491302D01*
X278782Y491142D01*
X278784Y490982D01*
X274269Y490982D02*
X274271Y490822D01*
X274277Y490662D01*
X274286Y490503D01*
X274300Y490343D01*
X274317Y490184D01*
X274338Y490026D01*
X274362Y489868D01*
X274391Y489711D01*
X274423Y489554D01*
X274459Y489398D01*
X274499Y489243D01*
X274542Y489089D01*
X274589Y488937D01*
X274640Y488785D01*
X274694Y488634D01*
X274752Y488485D01*
X274813Y488338D01*
X274878Y488192D01*
X274946Y488047D01*
X274974Y487972D01*
X275005Y487899D01*
X275040Y487827D01*
X275078Y487757D01*
X275119Y487689D01*
X275164Y487623D01*
X275211Y487559D01*
X275262Y487497D01*
X275315Y487438D01*
X275372Y487382D01*
X275431Y487328D01*
X275492Y487277D01*
X275556Y487229D01*
X275622Y487184D01*
X275690Y487143D01*
X275760Y487105D01*
X275831Y487070D01*
X275905Y487038D01*
X275979Y487010D01*
X276055Y486986D01*
X276132Y486965D01*
X276210Y486948D01*
X276289Y486935D01*
X276368Y486926D01*
X276447Y486920D01*
X276527Y486918D01*
X278107Y488047D02*
X278175Y488192D01*
X278240Y488338D01*
X278301Y488485D01*
X278359Y488634D01*
X278413Y488785D01*
X278464Y488937D01*
X278511Y489089D01*
X278554Y489243D01*
X278594Y489398D01*
X278630Y489554D01*
X278662Y489711D01*
X278691Y489868D01*
X278715Y490026D01*
X278736Y490184D01*
X278753Y490343D01*
X278767Y490503D01*
X278776Y490662D01*
X278782Y490822D01*
X278784Y490982D01*
X278108Y488047D02*
X278080Y487972D01*
X278049Y487899D01*
X278014Y487827D01*
X277976Y487757D01*
X277935Y487689D01*
X277890Y487623D01*
X277843Y487559D01*
X277792Y487497D01*
X277739Y487438D01*
X277682Y487382D01*
X277623Y487328D01*
X277562Y487277D01*
X277498Y487229D01*
X277432Y487184D01*
X277364Y487143D01*
X277294Y487105D01*
X277223Y487070D01*
X277149Y487038D01*
X277075Y487010D01*
X276999Y486986D01*
X276922Y486965D01*
X276844Y486948D01*
X276765Y486935D01*
X276686Y486926D01*
X276607Y486920D01*
X276527Y486918D01*
X274721Y488724D02*
X278333Y493240D01*
X283413Y488724D02*
X285219Y495046D01*
X283413Y488724D02*
X287929Y488724D01*
X286574Y490530D02*
X286574Y486918D01*
X68834Y453136D02*
X62484Y446786D01*
X49784Y446786D01*
X43434Y453136D01*
X43434Y465836D02*
X49784Y472186D01*
X62484Y472186D01*
X68834Y465836D01*
X100584Y446786D02*
X113284Y446786D01*
X100584Y446786D02*
X94234Y453136D01*
X94234Y465836D02*
X100584Y472186D01*
X94234Y453136D02*
X87884Y446786D01*
X75184Y446786D01*
X68834Y453136D01*
X68834Y465836D02*
X75184Y472186D01*
X87884Y472186D01*
X94234Y465836D01*
X119634Y465836D02*
X119634Y453136D01*
X113284Y446786D01*
X119634Y465836D02*
X113284Y472186D01*
X100584Y472186D01*
X43434Y465836D02*
X43434Y453136D01*
X39624Y444246D02*
X39624Y436118D01*
X43236Y436118D01*
X47549Y436118D02*
X51161Y436118D01*
X47549Y436118D02*
X47549Y444246D01*
X51161Y444246D01*
X50258Y440634D02*
X47549Y440634D01*
X55474Y444246D02*
X55474Y436118D01*
X55474Y444246D02*
X59086Y444246D01*
X59086Y440634D02*
X55474Y440634D01*
X64710Y444246D02*
X64710Y436118D01*
X62452Y444246D02*
X66968Y444246D01*
X77893Y436118D02*
X77976Y436120D01*
X78060Y436126D01*
X78143Y436135D01*
X78225Y436149D01*
X78307Y436166D01*
X78387Y436187D01*
X78467Y436212D01*
X78545Y436240D01*
X78623Y436272D01*
X78698Y436307D01*
X78772Y436346D01*
X78844Y436389D01*
X78914Y436434D01*
X78981Y436483D01*
X79047Y436535D01*
X79110Y436589D01*
X79170Y436647D01*
X79228Y436707D01*
X79282Y436770D01*
X79334Y436836D01*
X79383Y436903D01*
X79428Y436973D01*
X79471Y437045D01*
X79510Y437119D01*
X79545Y437195D01*
X79577Y437272D01*
X79605Y437350D01*
X79630Y437430D01*
X79651Y437511D01*
X79668Y437592D01*
X79682Y437674D01*
X79691Y437757D01*
X79697Y437841D01*
X79699Y437924D01*
X77893Y436118D02*
X77773Y436120D01*
X77652Y436126D01*
X77532Y436135D01*
X77412Y436148D01*
X77293Y436165D01*
X77174Y436186D01*
X77056Y436211D01*
X76939Y436239D01*
X76823Y436271D01*
X76708Y436307D01*
X76594Y436346D01*
X76481Y436389D01*
X76370Y436435D01*
X76261Y436485D01*
X76152Y436538D01*
X76046Y436595D01*
X75942Y436655D01*
X75839Y436718D01*
X75739Y436785D01*
X75640Y436854D01*
X75544Y436927D01*
X75450Y437002D01*
X75359Y437081D01*
X75270Y437163D01*
X75184Y437247D01*
X75410Y442440D02*
X75412Y442523D01*
X75418Y442607D01*
X75427Y442690D01*
X75441Y442772D01*
X75458Y442853D01*
X75479Y442934D01*
X75504Y443014D01*
X75532Y443092D01*
X75564Y443169D01*
X75599Y443245D01*
X75638Y443319D01*
X75681Y443391D01*
X75726Y443461D01*
X75775Y443528D01*
X75827Y443594D01*
X75881Y443657D01*
X75939Y443717D01*
X75999Y443775D01*
X76062Y443829D01*
X76128Y443881D01*
X76195Y443930D01*
X76265Y443975D01*
X76337Y444018D01*
X76411Y444057D01*
X76487Y444092D01*
X76564Y444124D01*
X76642Y444152D01*
X76722Y444177D01*
X76803Y444198D01*
X76884Y444215D01*
X76966Y444229D01*
X77049Y444238D01*
X77133Y444244D01*
X77216Y444246D01*
X77331Y444244D01*
X77445Y444238D01*
X77560Y444229D01*
X77673Y444215D01*
X77787Y444198D01*
X77900Y444176D01*
X78011Y444151D01*
X78123Y444122D01*
X78233Y444090D01*
X78341Y444054D01*
X78449Y444014D01*
X78555Y443970D01*
X78660Y443923D01*
X78762Y443872D01*
X78864Y443818D01*
X78963Y443761D01*
X79060Y443700D01*
X79155Y443636D01*
X79248Y443569D01*
X76313Y440860D02*
X76243Y440904D01*
X76174Y440950D01*
X76108Y441000D01*
X76044Y441053D01*
X75983Y441108D01*
X75924Y441167D01*
X75868Y441228D01*
X75815Y441291D01*
X75764Y441357D01*
X75717Y441424D01*
X75673Y441494D01*
X75632Y441566D01*
X75594Y441640D01*
X75559Y441715D01*
X75528Y441792D01*
X75501Y441870D01*
X75477Y441949D01*
X75457Y442030D01*
X75440Y442111D01*
X75427Y442192D01*
X75417Y442275D01*
X75412Y442357D01*
X75410Y442440D01*
X78796Y439504D02*
X78866Y439460D01*
X78935Y439414D01*
X79001Y439364D01*
X79065Y439311D01*
X79126Y439256D01*
X79185Y439197D01*
X79241Y439136D01*
X79294Y439073D01*
X79345Y439007D01*
X79392Y438940D01*
X79436Y438870D01*
X79477Y438798D01*
X79515Y438724D01*
X79550Y438649D01*
X79581Y438572D01*
X79608Y438494D01*
X79632Y438415D01*
X79652Y438334D01*
X79669Y438253D01*
X79682Y438172D01*
X79692Y438089D01*
X79697Y438007D01*
X79699Y437924D01*
X78796Y439505D02*
X76313Y440859D01*
X84360Y436118D02*
X87972Y436118D01*
X84360Y436118D02*
X84360Y444246D01*
X87972Y444246D01*
X87069Y440634D02*
X84360Y440634D01*
X92356Y444246D02*
X92356Y436118D01*
X92356Y444246D02*
X94614Y444246D01*
X94707Y444244D01*
X94800Y444238D01*
X94893Y444229D01*
X94986Y444215D01*
X95077Y444198D01*
X95168Y444177D01*
X95258Y444152D01*
X95347Y444124D01*
X95435Y444092D01*
X95521Y444056D01*
X95606Y444017D01*
X95689Y443974D01*
X95770Y443928D01*
X95849Y443878D01*
X95926Y443826D01*
X96001Y443770D01*
X96073Y443711D01*
X96143Y443649D01*
X96211Y443585D01*
X96275Y443517D01*
X96337Y443447D01*
X96396Y443375D01*
X96452Y443300D01*
X96504Y443223D01*
X96554Y443144D01*
X96600Y443063D01*
X96643Y442980D01*
X96682Y442895D01*
X96718Y442809D01*
X96750Y442721D01*
X96778Y442632D01*
X96803Y442542D01*
X96824Y442451D01*
X96841Y442360D01*
X96855Y442267D01*
X96864Y442174D01*
X96870Y442081D01*
X96872Y441988D01*
X96870Y441895D01*
X96864Y441802D01*
X96855Y441709D01*
X96841Y441616D01*
X96824Y441525D01*
X96803Y441434D01*
X96778Y441344D01*
X96750Y441255D01*
X96718Y441167D01*
X96682Y441081D01*
X96643Y440996D01*
X96600Y440913D01*
X96554Y440832D01*
X96504Y440753D01*
X96452Y440676D01*
X96396Y440601D01*
X96337Y440529D01*
X96275Y440459D01*
X96211Y440391D01*
X96143Y440327D01*
X96073Y440265D01*
X96001Y440206D01*
X95926Y440150D01*
X95849Y440098D01*
X95770Y440048D01*
X95689Y440002D01*
X95606Y439959D01*
X95521Y439920D01*
X95435Y439884D01*
X95347Y439852D01*
X95258Y439824D01*
X95168Y439799D01*
X95077Y439778D01*
X94986Y439761D01*
X94893Y439747D01*
X94800Y439738D01*
X94707Y439732D01*
X94614Y439730D01*
X92356Y439730D01*
X95065Y439730D02*
X96871Y436118D01*
X103654Y436118D02*
X100945Y444246D01*
X106364Y444246D02*
X103654Y436118D01*
X110541Y438376D02*
X110541Y441988D01*
X110540Y441988D02*
X110542Y442081D01*
X110548Y442174D01*
X110557Y442267D01*
X110571Y442360D01*
X110588Y442451D01*
X110609Y442542D01*
X110634Y442632D01*
X110662Y442721D01*
X110694Y442809D01*
X110730Y442895D01*
X110769Y442980D01*
X110812Y443063D01*
X110858Y443144D01*
X110908Y443223D01*
X110960Y443300D01*
X111016Y443375D01*
X111075Y443447D01*
X111137Y443517D01*
X111201Y443585D01*
X111269Y443649D01*
X111339Y443711D01*
X111411Y443770D01*
X111486Y443826D01*
X111563Y443878D01*
X111642Y443928D01*
X111723Y443974D01*
X111806Y444017D01*
X111891Y444056D01*
X111977Y444092D01*
X112065Y444124D01*
X112154Y444152D01*
X112244Y444177D01*
X112335Y444198D01*
X112426Y444215D01*
X112519Y444229D01*
X112612Y444238D01*
X112705Y444244D01*
X112798Y444246D01*
X112891Y444244D01*
X112984Y444238D01*
X113077Y444229D01*
X113170Y444215D01*
X113261Y444198D01*
X113352Y444177D01*
X113442Y444152D01*
X113531Y444124D01*
X113619Y444092D01*
X113705Y444056D01*
X113790Y444017D01*
X113873Y443974D01*
X113954Y443928D01*
X114033Y443878D01*
X114110Y443826D01*
X114185Y443770D01*
X114257Y443711D01*
X114327Y443649D01*
X114395Y443585D01*
X114459Y443517D01*
X114521Y443447D01*
X114580Y443375D01*
X114636Y443300D01*
X114688Y443223D01*
X114738Y443144D01*
X114784Y443063D01*
X114827Y442980D01*
X114866Y442895D01*
X114902Y442809D01*
X114934Y442721D01*
X114962Y442632D01*
X114987Y442542D01*
X115008Y442451D01*
X115025Y442360D01*
X115039Y442267D01*
X115048Y442174D01*
X115054Y442081D01*
X115056Y441988D01*
X115056Y438376D01*
X115054Y438283D01*
X115048Y438190D01*
X115039Y438097D01*
X115025Y438004D01*
X115008Y437913D01*
X114987Y437822D01*
X114962Y437732D01*
X114934Y437643D01*
X114902Y437555D01*
X114866Y437469D01*
X114827Y437384D01*
X114784Y437301D01*
X114738Y437220D01*
X114688Y437141D01*
X114636Y437064D01*
X114580Y436989D01*
X114521Y436917D01*
X114459Y436847D01*
X114395Y436779D01*
X114327Y436715D01*
X114257Y436653D01*
X114185Y436594D01*
X114110Y436538D01*
X114033Y436486D01*
X113954Y436436D01*
X113873Y436390D01*
X113790Y436347D01*
X113705Y436308D01*
X113619Y436272D01*
X113531Y436240D01*
X113442Y436212D01*
X113352Y436187D01*
X113261Y436166D01*
X113170Y436149D01*
X113077Y436135D01*
X112984Y436126D01*
X112891Y436120D01*
X112798Y436118D01*
X112705Y436120D01*
X112612Y436126D01*
X112519Y436135D01*
X112426Y436149D01*
X112335Y436166D01*
X112244Y436187D01*
X112154Y436212D01*
X112065Y436240D01*
X111977Y436272D01*
X111891Y436308D01*
X111806Y436347D01*
X111723Y436390D01*
X111642Y436436D01*
X111563Y436486D01*
X111486Y436538D01*
X111411Y436594D01*
X111339Y436653D01*
X111269Y436715D01*
X111201Y436779D01*
X111137Y436847D01*
X111075Y436917D01*
X111016Y436989D01*
X110960Y437064D01*
X110908Y437141D01*
X110858Y437220D01*
X110812Y437301D01*
X110769Y437384D01*
X110730Y437469D01*
X110694Y437555D01*
X110662Y437643D01*
X110634Y437732D01*
X110609Y437822D01*
X110588Y437913D01*
X110571Y438004D01*
X110557Y438097D01*
X110548Y438190D01*
X110542Y438283D01*
X110540Y438376D01*
X442976Y466090D02*
X449326Y472440D01*
X462026Y472440D01*
X468376Y466090D01*
X468376Y453390D02*
X462026Y447040D01*
X449326Y447040D01*
X442976Y453390D01*
X411226Y472440D02*
X398526Y472440D01*
X411226Y472440D02*
X417576Y466090D01*
X417576Y453390D02*
X411226Y447040D01*
X417576Y466090D02*
X423926Y472440D01*
X436626Y472440D01*
X442976Y466090D01*
X442976Y453390D02*
X436626Y447040D01*
X423926Y447040D01*
X417576Y453390D01*
X392176Y453390D02*
X392176Y466090D01*
X398526Y472440D01*
X392176Y453390D02*
X398526Y447040D01*
X411226Y447040D01*
X468376Y453390D02*
X468376Y466090D01*
X386588Y443484D02*
X386588Y435356D01*
X386588Y443484D02*
X388846Y443484D01*
X388939Y443482D01*
X389032Y443476D01*
X389125Y443467D01*
X389218Y443453D01*
X389309Y443436D01*
X389400Y443415D01*
X389490Y443390D01*
X389579Y443362D01*
X389667Y443330D01*
X389753Y443294D01*
X389838Y443255D01*
X389921Y443212D01*
X390002Y443166D01*
X390081Y443116D01*
X390158Y443064D01*
X390233Y443008D01*
X390305Y442949D01*
X390375Y442887D01*
X390443Y442823D01*
X390507Y442755D01*
X390569Y442685D01*
X390628Y442613D01*
X390684Y442538D01*
X390736Y442461D01*
X390786Y442382D01*
X390832Y442301D01*
X390875Y442218D01*
X390914Y442133D01*
X390950Y442047D01*
X390982Y441959D01*
X391010Y441870D01*
X391035Y441780D01*
X391056Y441689D01*
X391073Y441598D01*
X391087Y441505D01*
X391096Y441412D01*
X391102Y441319D01*
X391104Y441226D01*
X391102Y441133D01*
X391096Y441040D01*
X391087Y440947D01*
X391073Y440854D01*
X391056Y440763D01*
X391035Y440672D01*
X391010Y440582D01*
X390982Y440493D01*
X390950Y440405D01*
X390914Y440319D01*
X390875Y440234D01*
X390832Y440151D01*
X390786Y440070D01*
X390736Y439991D01*
X390684Y439914D01*
X390628Y439839D01*
X390569Y439767D01*
X390507Y439697D01*
X390443Y439629D01*
X390375Y439565D01*
X390305Y439503D01*
X390233Y439444D01*
X390158Y439388D01*
X390081Y439336D01*
X390002Y439286D01*
X389921Y439240D01*
X389838Y439197D01*
X389753Y439158D01*
X389667Y439122D01*
X389579Y439090D01*
X389490Y439062D01*
X389400Y439037D01*
X389309Y439016D01*
X389218Y438999D01*
X389125Y438985D01*
X389032Y438976D01*
X388939Y438970D01*
X388846Y438968D01*
X386588Y438968D01*
X389297Y438968D02*
X391104Y435356D01*
X396058Y435356D02*
X396058Y443484D01*
X395155Y435356D02*
X396961Y435356D01*
X396961Y443484D02*
X395155Y443484D01*
X404581Y439872D02*
X405936Y439872D01*
X405936Y435356D01*
X403226Y435356D01*
X403143Y435358D01*
X403059Y435364D01*
X402976Y435373D01*
X402894Y435387D01*
X402813Y435404D01*
X402732Y435425D01*
X402652Y435450D01*
X402574Y435478D01*
X402497Y435510D01*
X402421Y435545D01*
X402347Y435584D01*
X402275Y435627D01*
X402205Y435672D01*
X402138Y435721D01*
X402072Y435773D01*
X402009Y435827D01*
X401949Y435885D01*
X401891Y435945D01*
X401837Y436008D01*
X401785Y436074D01*
X401736Y436141D01*
X401691Y436211D01*
X401648Y436283D01*
X401609Y436357D01*
X401574Y436433D01*
X401542Y436510D01*
X401514Y436588D01*
X401489Y436668D01*
X401468Y436749D01*
X401451Y436830D01*
X401437Y436912D01*
X401428Y436995D01*
X401422Y437079D01*
X401420Y437162D01*
X401420Y441678D01*
X401422Y441761D01*
X401428Y441845D01*
X401437Y441928D01*
X401451Y442010D01*
X401468Y442091D01*
X401489Y442172D01*
X401514Y442252D01*
X401542Y442330D01*
X401574Y442407D01*
X401609Y442483D01*
X401648Y442557D01*
X401691Y442629D01*
X401736Y442699D01*
X401785Y442766D01*
X401837Y442832D01*
X401891Y442895D01*
X401949Y442955D01*
X402009Y443013D01*
X402072Y443067D01*
X402138Y443119D01*
X402205Y443168D01*
X402275Y443213D01*
X402347Y443256D01*
X402421Y443295D01*
X402496Y443330D01*
X402574Y443362D01*
X402652Y443390D01*
X402732Y443415D01*
X402812Y443436D01*
X402894Y443453D01*
X402976Y443467D01*
X403059Y443476D01*
X403143Y443482D01*
X403226Y443484D01*
X405936Y443484D01*
X411174Y443484D02*
X411174Y435356D01*
X411174Y439872D02*
X415689Y439872D01*
X415689Y443484D02*
X415689Y435356D01*
X422271Y435356D02*
X422271Y443484D01*
X424528Y443484D02*
X420013Y443484D01*
X433753Y435610D02*
X433836Y435612D01*
X433920Y435618D01*
X434003Y435627D01*
X434085Y435641D01*
X434167Y435658D01*
X434247Y435679D01*
X434327Y435704D01*
X434405Y435732D01*
X434483Y435764D01*
X434558Y435799D01*
X434632Y435838D01*
X434704Y435881D01*
X434774Y435926D01*
X434841Y435975D01*
X434907Y436027D01*
X434970Y436081D01*
X435030Y436139D01*
X435088Y436199D01*
X435142Y436262D01*
X435194Y436328D01*
X435243Y436395D01*
X435288Y436465D01*
X435331Y436537D01*
X435370Y436611D01*
X435405Y436687D01*
X435437Y436764D01*
X435465Y436842D01*
X435490Y436922D01*
X435511Y437003D01*
X435528Y437084D01*
X435542Y437166D01*
X435551Y437249D01*
X435557Y437333D01*
X435559Y437416D01*
X433753Y435610D02*
X433633Y435612D01*
X433512Y435618D01*
X433392Y435627D01*
X433272Y435640D01*
X433153Y435657D01*
X433034Y435678D01*
X432916Y435703D01*
X432799Y435731D01*
X432683Y435763D01*
X432568Y435799D01*
X432454Y435838D01*
X432341Y435881D01*
X432230Y435927D01*
X432121Y435977D01*
X432012Y436030D01*
X431906Y436087D01*
X431802Y436147D01*
X431699Y436210D01*
X431599Y436277D01*
X431500Y436346D01*
X431404Y436419D01*
X431310Y436494D01*
X431219Y436573D01*
X431130Y436655D01*
X431044Y436739D01*
X431270Y441932D02*
X431272Y442015D01*
X431278Y442099D01*
X431287Y442182D01*
X431301Y442264D01*
X431318Y442345D01*
X431339Y442426D01*
X431364Y442506D01*
X431392Y442584D01*
X431424Y442661D01*
X431459Y442737D01*
X431498Y442811D01*
X431541Y442883D01*
X431586Y442953D01*
X431635Y443020D01*
X431687Y443086D01*
X431741Y443149D01*
X431799Y443209D01*
X431859Y443267D01*
X431922Y443321D01*
X431988Y443373D01*
X432055Y443422D01*
X432125Y443467D01*
X432197Y443510D01*
X432271Y443549D01*
X432347Y443584D01*
X432424Y443616D01*
X432502Y443644D01*
X432582Y443669D01*
X432663Y443690D01*
X432744Y443707D01*
X432826Y443721D01*
X432909Y443730D01*
X432993Y443736D01*
X433076Y443738D01*
X433191Y443736D01*
X433305Y443730D01*
X433420Y443721D01*
X433533Y443707D01*
X433647Y443690D01*
X433760Y443668D01*
X433871Y443643D01*
X433983Y443614D01*
X434093Y443582D01*
X434201Y443546D01*
X434309Y443506D01*
X434415Y443462D01*
X434520Y443415D01*
X434622Y443364D01*
X434724Y443310D01*
X434823Y443253D01*
X434920Y443192D01*
X435015Y443128D01*
X435108Y443061D01*
X432173Y440352D02*
X432103Y440396D01*
X432034Y440442D01*
X431968Y440492D01*
X431904Y440545D01*
X431843Y440600D01*
X431784Y440659D01*
X431728Y440720D01*
X431675Y440783D01*
X431624Y440849D01*
X431577Y440916D01*
X431533Y440986D01*
X431492Y441058D01*
X431454Y441132D01*
X431419Y441207D01*
X431388Y441284D01*
X431361Y441362D01*
X431337Y441441D01*
X431317Y441522D01*
X431300Y441603D01*
X431287Y441684D01*
X431277Y441767D01*
X431272Y441849D01*
X431270Y441932D01*
X434656Y438996D02*
X434726Y438952D01*
X434795Y438906D01*
X434861Y438856D01*
X434925Y438803D01*
X434986Y438748D01*
X435045Y438689D01*
X435101Y438628D01*
X435154Y438565D01*
X435205Y438499D01*
X435252Y438432D01*
X435296Y438362D01*
X435337Y438290D01*
X435375Y438216D01*
X435410Y438141D01*
X435441Y438064D01*
X435468Y437986D01*
X435492Y437907D01*
X435512Y437826D01*
X435529Y437745D01*
X435542Y437664D01*
X435552Y437581D01*
X435557Y437499D01*
X435559Y437416D01*
X434656Y438997D02*
X432173Y440351D01*
X440219Y435610D02*
X443832Y435610D01*
X440219Y435610D02*
X440219Y443738D01*
X443832Y443738D01*
X442929Y440126D02*
X440219Y440126D01*
X448216Y443738D02*
X448216Y435610D01*
X448216Y443738D02*
X450473Y443738D01*
X450566Y443736D01*
X450659Y443730D01*
X450752Y443721D01*
X450845Y443707D01*
X450936Y443690D01*
X451027Y443669D01*
X451117Y443644D01*
X451206Y443616D01*
X451294Y443584D01*
X451380Y443548D01*
X451465Y443509D01*
X451548Y443466D01*
X451629Y443420D01*
X451708Y443370D01*
X451785Y443318D01*
X451860Y443262D01*
X451932Y443203D01*
X452002Y443141D01*
X452070Y443077D01*
X452134Y443009D01*
X452196Y442939D01*
X452255Y442867D01*
X452311Y442792D01*
X452363Y442715D01*
X452413Y442636D01*
X452459Y442555D01*
X452502Y442472D01*
X452541Y442387D01*
X452577Y442301D01*
X452609Y442213D01*
X452637Y442124D01*
X452662Y442034D01*
X452683Y441943D01*
X452700Y441852D01*
X452714Y441759D01*
X452723Y441666D01*
X452729Y441573D01*
X452731Y441480D01*
X452729Y441387D01*
X452723Y441294D01*
X452714Y441201D01*
X452700Y441108D01*
X452683Y441017D01*
X452662Y440926D01*
X452637Y440836D01*
X452609Y440747D01*
X452577Y440659D01*
X452541Y440573D01*
X452502Y440488D01*
X452459Y440405D01*
X452413Y440324D01*
X452363Y440245D01*
X452311Y440168D01*
X452255Y440093D01*
X452196Y440021D01*
X452134Y439951D01*
X452070Y439883D01*
X452002Y439819D01*
X451932Y439757D01*
X451860Y439698D01*
X451785Y439642D01*
X451708Y439590D01*
X451629Y439540D01*
X451548Y439494D01*
X451465Y439451D01*
X451380Y439412D01*
X451294Y439376D01*
X451206Y439344D01*
X451117Y439316D01*
X451027Y439291D01*
X450936Y439270D01*
X450845Y439253D01*
X450752Y439239D01*
X450659Y439230D01*
X450566Y439224D01*
X450473Y439222D01*
X448216Y439222D01*
X450925Y439222D02*
X452731Y435610D01*
X459514Y435610D02*
X456805Y443738D01*
X462224Y443738D02*
X459514Y435610D01*
X466400Y437868D02*
X466400Y441480D01*
X466402Y441573D01*
X466408Y441666D01*
X466417Y441759D01*
X466431Y441852D01*
X466448Y441943D01*
X466469Y442034D01*
X466494Y442124D01*
X466522Y442213D01*
X466554Y442301D01*
X466590Y442387D01*
X466629Y442472D01*
X466672Y442555D01*
X466718Y442636D01*
X466768Y442715D01*
X466820Y442792D01*
X466876Y442867D01*
X466935Y442939D01*
X466997Y443009D01*
X467061Y443077D01*
X467129Y443141D01*
X467199Y443203D01*
X467271Y443262D01*
X467346Y443318D01*
X467423Y443370D01*
X467502Y443420D01*
X467583Y443466D01*
X467666Y443509D01*
X467751Y443548D01*
X467837Y443584D01*
X467925Y443616D01*
X468014Y443644D01*
X468104Y443669D01*
X468195Y443690D01*
X468286Y443707D01*
X468379Y443721D01*
X468472Y443730D01*
X468565Y443736D01*
X468658Y443738D01*
X468751Y443736D01*
X468844Y443730D01*
X468937Y443721D01*
X469030Y443707D01*
X469121Y443690D01*
X469212Y443669D01*
X469302Y443644D01*
X469391Y443616D01*
X469479Y443584D01*
X469565Y443548D01*
X469650Y443509D01*
X469733Y443466D01*
X469814Y443420D01*
X469893Y443370D01*
X469970Y443318D01*
X470045Y443262D01*
X470117Y443203D01*
X470187Y443141D01*
X470255Y443077D01*
X470319Y443009D01*
X470381Y442939D01*
X470440Y442867D01*
X470496Y442792D01*
X470548Y442715D01*
X470598Y442636D01*
X470644Y442555D01*
X470687Y442472D01*
X470726Y442387D01*
X470762Y442301D01*
X470794Y442213D01*
X470822Y442124D01*
X470847Y442034D01*
X470868Y441943D01*
X470885Y441852D01*
X470899Y441759D01*
X470908Y441666D01*
X470914Y441573D01*
X470916Y441480D01*
X470916Y437868D01*
X470914Y437775D01*
X470908Y437682D01*
X470899Y437589D01*
X470885Y437496D01*
X470868Y437405D01*
X470847Y437314D01*
X470822Y437224D01*
X470794Y437135D01*
X470762Y437047D01*
X470726Y436961D01*
X470687Y436876D01*
X470644Y436793D01*
X470598Y436712D01*
X470548Y436633D01*
X470496Y436556D01*
X470440Y436481D01*
X470381Y436409D01*
X470319Y436339D01*
X470255Y436271D01*
X470187Y436207D01*
X470117Y436145D01*
X470045Y436086D01*
X469970Y436030D01*
X469893Y435978D01*
X469814Y435928D01*
X469733Y435882D01*
X469650Y435839D01*
X469565Y435800D01*
X469479Y435764D01*
X469391Y435732D01*
X469302Y435704D01*
X469212Y435679D01*
X469121Y435658D01*
X469030Y435641D01*
X468937Y435627D01*
X468844Y435618D01*
X468751Y435612D01*
X468658Y435610D01*
X468565Y435612D01*
X468472Y435618D01*
X468379Y435627D01*
X468286Y435641D01*
X468195Y435658D01*
X468104Y435679D01*
X468014Y435704D01*
X467925Y435732D01*
X467837Y435764D01*
X467751Y435800D01*
X467666Y435839D01*
X467583Y435882D01*
X467502Y435928D01*
X467423Y435978D01*
X467346Y436030D01*
X467271Y436086D01*
X467199Y436145D01*
X467129Y436207D01*
X467061Y436271D01*
X466997Y436339D01*
X466935Y436409D01*
X466876Y436481D01*
X466820Y436556D01*
X466768Y436633D01*
X466718Y436712D01*
X466672Y436793D01*
X466629Y436876D01*
X466590Y436961D01*
X466554Y437047D01*
X466522Y437135D01*
X466494Y437224D01*
X466469Y437314D01*
X466448Y437405D01*
X466431Y437496D01*
X466417Y437589D01*
X466408Y437682D01*
X466402Y437775D01*
X466400Y437868D01*
D17*
X230886Y98298D02*
X230886Y-5842D01*
X72136Y-5842D02*
X72136Y98298D01*
X106426Y98298D02*
X230886Y98298D01*
X106426Y98298D02*
X106426Y89408D01*
X91186Y89408D01*
X91186Y98298D01*
X72136Y98298D01*
X106426Y-5842D02*
X230886Y-5842D01*
X106426Y-5842D02*
X106426Y3048D01*
X91186Y3048D01*
X91186Y-5842D01*
X72136Y-5842D01*
D18*
X224536Y508D02*
X224536Y91948D01*
X141986Y91948D01*
X141986Y508D01*
X224536Y508D01*
D19*
X262001Y71628D03*
X262001Y46228D03*
X262001Y20828D03*
D20*
X244856Y20828D03*
X244856Y46228D03*
X244856Y71628D03*
D14*
X67310Y42134D02*
X58166Y42134D01*
X67310Y42134D02*
X67310Y46198D01*
X67310Y50140D02*
X58166Y50140D01*
X63246Y53188D01*
X58166Y56236D01*
X67310Y56236D01*
X59182Y60706D02*
X58166Y60706D01*
X58166Y65786D01*
X67310Y63246D01*
X64770Y69850D02*
X64670Y69852D01*
X64571Y69858D01*
X64471Y69868D01*
X64373Y69881D01*
X64274Y69899D01*
X64177Y69920D01*
X64081Y69945D01*
X63985Y69974D01*
X63891Y70007D01*
X63798Y70043D01*
X63707Y70083D01*
X63617Y70127D01*
X63529Y70174D01*
X63443Y70224D01*
X63359Y70278D01*
X63277Y70335D01*
X63198Y70395D01*
X63120Y70459D01*
X63046Y70525D01*
X62974Y70594D01*
X62905Y70666D01*
X62839Y70740D01*
X62775Y70818D01*
X62715Y70897D01*
X62658Y70979D01*
X62604Y71063D01*
X62554Y71149D01*
X62507Y71237D01*
X62463Y71327D01*
X62423Y71418D01*
X62387Y71511D01*
X62354Y71605D01*
X62325Y71701D01*
X62300Y71797D01*
X62279Y71894D01*
X62261Y71993D01*
X62248Y72091D01*
X62238Y72191D01*
X62232Y72290D01*
X62230Y72390D01*
X62232Y72490D01*
X62238Y72589D01*
X62248Y72689D01*
X62261Y72787D01*
X62279Y72886D01*
X62300Y72983D01*
X62325Y73079D01*
X62354Y73175D01*
X62387Y73269D01*
X62423Y73362D01*
X62463Y73453D01*
X62507Y73543D01*
X62554Y73631D01*
X62604Y73717D01*
X62658Y73801D01*
X62715Y73883D01*
X62775Y73962D01*
X62839Y74040D01*
X62905Y74114D01*
X62974Y74186D01*
X63046Y74255D01*
X63120Y74321D01*
X63198Y74385D01*
X63277Y74445D01*
X63359Y74502D01*
X63443Y74556D01*
X63529Y74606D01*
X63617Y74653D01*
X63707Y74697D01*
X63798Y74737D01*
X63891Y74773D01*
X63985Y74806D01*
X64081Y74835D01*
X64177Y74860D01*
X64274Y74881D01*
X64373Y74899D01*
X64471Y74912D01*
X64571Y74922D01*
X64670Y74928D01*
X64770Y74930D01*
X64870Y74928D01*
X64969Y74922D01*
X65069Y74912D01*
X65167Y74899D01*
X65266Y74881D01*
X65363Y74860D01*
X65459Y74835D01*
X65555Y74806D01*
X65649Y74773D01*
X65742Y74737D01*
X65833Y74697D01*
X65923Y74653D01*
X66011Y74606D01*
X66097Y74556D01*
X66181Y74502D01*
X66263Y74445D01*
X66342Y74385D01*
X66420Y74321D01*
X66494Y74255D01*
X66566Y74186D01*
X66635Y74114D01*
X66701Y74040D01*
X66765Y73962D01*
X66825Y73883D01*
X66882Y73801D01*
X66936Y73717D01*
X66986Y73631D01*
X67033Y73543D01*
X67077Y73453D01*
X67117Y73362D01*
X67153Y73269D01*
X67186Y73175D01*
X67215Y73079D01*
X67240Y72983D01*
X67261Y72886D01*
X67279Y72787D01*
X67292Y72689D01*
X67302Y72589D01*
X67308Y72490D01*
X67310Y72390D01*
X67308Y72290D01*
X67302Y72191D01*
X67292Y72091D01*
X67279Y71993D01*
X67261Y71894D01*
X67240Y71797D01*
X67215Y71701D01*
X67186Y71605D01*
X67153Y71511D01*
X67117Y71418D01*
X67077Y71327D01*
X67033Y71237D01*
X66986Y71149D01*
X66936Y71063D01*
X66882Y70979D01*
X66825Y70897D01*
X66765Y70818D01*
X66701Y70740D01*
X66635Y70666D01*
X66566Y70594D01*
X66494Y70525D01*
X66420Y70459D01*
X66342Y70395D01*
X66263Y70335D01*
X66181Y70278D01*
X66097Y70224D01*
X66011Y70174D01*
X65923Y70127D01*
X65833Y70083D01*
X65742Y70043D01*
X65649Y70007D01*
X65555Y69974D01*
X65459Y69945D01*
X65363Y69920D01*
X65266Y69899D01*
X65167Y69881D01*
X65069Y69868D01*
X64969Y69858D01*
X64870Y69852D01*
X64770Y69850D01*
X60198Y70358D02*
X60109Y70360D01*
X60021Y70366D01*
X59933Y70375D01*
X59845Y70389D01*
X59758Y70406D01*
X59672Y70427D01*
X59587Y70452D01*
X59503Y70481D01*
X59420Y70513D01*
X59339Y70548D01*
X59260Y70588D01*
X59182Y70630D01*
X59106Y70676D01*
X59032Y70725D01*
X58961Y70778D01*
X58892Y70833D01*
X58825Y70892D01*
X58761Y70953D01*
X58700Y71017D01*
X58641Y71084D01*
X58586Y71153D01*
X58533Y71224D01*
X58484Y71298D01*
X58438Y71374D01*
X58396Y71452D01*
X58356Y71531D01*
X58321Y71612D01*
X58289Y71695D01*
X58260Y71779D01*
X58235Y71864D01*
X58214Y71950D01*
X58197Y72037D01*
X58183Y72125D01*
X58174Y72213D01*
X58168Y72301D01*
X58166Y72390D01*
X58168Y72479D01*
X58174Y72567D01*
X58183Y72655D01*
X58197Y72743D01*
X58214Y72830D01*
X58235Y72916D01*
X58260Y73001D01*
X58289Y73085D01*
X58321Y73168D01*
X58356Y73249D01*
X58396Y73328D01*
X58438Y73406D01*
X58484Y73482D01*
X58533Y73556D01*
X58586Y73627D01*
X58641Y73696D01*
X58700Y73763D01*
X58761Y73827D01*
X58825Y73888D01*
X58892Y73947D01*
X58961Y74002D01*
X59032Y74055D01*
X59106Y74104D01*
X59182Y74150D01*
X59260Y74192D01*
X59339Y74232D01*
X59420Y74267D01*
X59503Y74299D01*
X59587Y74328D01*
X59672Y74353D01*
X59758Y74374D01*
X59845Y74391D01*
X59933Y74405D01*
X60021Y74414D01*
X60109Y74420D01*
X60198Y74422D01*
X60287Y74420D01*
X60375Y74414D01*
X60463Y74405D01*
X60551Y74391D01*
X60638Y74374D01*
X60724Y74353D01*
X60809Y74328D01*
X60893Y74299D01*
X60976Y74267D01*
X61057Y74232D01*
X61136Y74192D01*
X61214Y74150D01*
X61290Y74104D01*
X61364Y74055D01*
X61435Y74002D01*
X61504Y73947D01*
X61571Y73888D01*
X61635Y73827D01*
X61696Y73763D01*
X61755Y73696D01*
X61810Y73627D01*
X61863Y73556D01*
X61912Y73482D01*
X61958Y73406D01*
X62000Y73328D01*
X62040Y73249D01*
X62075Y73168D01*
X62107Y73085D01*
X62136Y73001D01*
X62161Y72916D01*
X62182Y72830D01*
X62199Y72743D01*
X62213Y72655D01*
X62222Y72567D01*
X62228Y72479D01*
X62230Y72390D01*
X62228Y72301D01*
X62222Y72213D01*
X62213Y72125D01*
X62199Y72037D01*
X62182Y71950D01*
X62161Y71864D01*
X62136Y71779D01*
X62107Y71695D01*
X62075Y71612D01*
X62040Y71531D01*
X62000Y71452D01*
X61958Y71374D01*
X61912Y71298D01*
X61863Y71224D01*
X61810Y71153D01*
X61755Y71084D01*
X61696Y71017D01*
X61635Y70953D01*
X61571Y70892D01*
X61504Y70833D01*
X61435Y70778D01*
X61364Y70725D01*
X61290Y70676D01*
X61214Y70630D01*
X61136Y70588D01*
X61057Y70548D01*
X60976Y70513D01*
X60893Y70481D01*
X60809Y70452D01*
X60724Y70427D01*
X60638Y70406D01*
X60551Y70389D01*
X60463Y70375D01*
X60375Y70366D01*
X60287Y70360D01*
X60198Y70358D01*
X62738Y78994D02*
X62558Y78996D01*
X62378Y79003D01*
X62199Y79013D01*
X62020Y79028D01*
X61841Y79048D01*
X61662Y79071D01*
X61485Y79099D01*
X61308Y79131D01*
X61131Y79167D01*
X60956Y79208D01*
X60782Y79252D01*
X60609Y79301D01*
X60437Y79354D01*
X60266Y79411D01*
X60097Y79472D01*
X59929Y79537D01*
X59763Y79606D01*
X59599Y79679D01*
X59436Y79756D01*
X59358Y79784D01*
X59281Y79817D01*
X59206Y79852D01*
X59132Y79891D01*
X59060Y79933D01*
X58991Y79978D01*
X58923Y80027D01*
X58857Y80078D01*
X58794Y80132D01*
X58733Y80189D01*
X58674Y80248D01*
X58619Y80310D01*
X58566Y80375D01*
X58516Y80441D01*
X58469Y80510D01*
X58425Y80581D01*
X58385Y80654D01*
X58348Y80728D01*
X58313Y80804D01*
X58283Y80882D01*
X58256Y80960D01*
X58232Y81040D01*
X58212Y81121D01*
X58195Y81203D01*
X58183Y81285D01*
X58173Y81368D01*
X58168Y81451D01*
X58166Y81534D01*
X58168Y81617D01*
X58173Y81700D01*
X58183Y81783D01*
X58195Y81865D01*
X58212Y81947D01*
X58232Y82028D01*
X58256Y82108D01*
X58283Y82186D01*
X58313Y82264D01*
X58348Y82340D01*
X58385Y82414D01*
X58425Y82487D01*
X58469Y82558D01*
X58516Y82627D01*
X58566Y82693D01*
X58619Y82758D01*
X58674Y82820D01*
X58733Y82879D01*
X58794Y82936D01*
X58857Y82990D01*
X58923Y83041D01*
X58991Y83090D01*
X59060Y83135D01*
X59132Y83177D01*
X59206Y83216D01*
X59281Y83251D01*
X59358Y83284D01*
X59436Y83312D01*
X59599Y83389D01*
X59763Y83462D01*
X59929Y83531D01*
X60097Y83596D01*
X60266Y83657D01*
X60437Y83714D01*
X60609Y83767D01*
X60782Y83816D01*
X60956Y83860D01*
X61131Y83901D01*
X61308Y83937D01*
X61485Y83969D01*
X61662Y83997D01*
X61841Y84020D01*
X62020Y84040D01*
X62199Y84055D01*
X62378Y84065D01*
X62558Y84072D01*
X62738Y84074D01*
X62738Y78994D02*
X62918Y78996D01*
X63098Y79003D01*
X63277Y79013D01*
X63456Y79028D01*
X63635Y79048D01*
X63814Y79071D01*
X63991Y79099D01*
X64168Y79131D01*
X64345Y79167D01*
X64520Y79208D01*
X64694Y79252D01*
X64867Y79301D01*
X65039Y79354D01*
X65210Y79411D01*
X65379Y79472D01*
X65547Y79537D01*
X65713Y79606D01*
X65877Y79679D01*
X66040Y79756D01*
X66118Y79784D01*
X66195Y79817D01*
X66270Y79852D01*
X66344Y79891D01*
X66416Y79933D01*
X66485Y79978D01*
X66553Y80027D01*
X66619Y80078D01*
X66682Y80132D01*
X66743Y80189D01*
X66802Y80248D01*
X66857Y80310D01*
X66910Y80375D01*
X66960Y80441D01*
X67007Y80510D01*
X67051Y80581D01*
X67091Y80654D01*
X67128Y80728D01*
X67163Y80804D01*
X67193Y80882D01*
X67220Y80960D01*
X67244Y81040D01*
X67264Y81121D01*
X67281Y81203D01*
X67293Y81285D01*
X67303Y81368D01*
X67308Y81451D01*
X67310Y81534D01*
X66040Y83312D02*
X65877Y83389D01*
X65713Y83462D01*
X65547Y83531D01*
X65379Y83596D01*
X65210Y83657D01*
X65039Y83714D01*
X64867Y83767D01*
X64694Y83816D01*
X64520Y83860D01*
X64345Y83901D01*
X64168Y83937D01*
X63991Y83969D01*
X63814Y83997D01*
X63635Y84020D01*
X63456Y84040D01*
X63277Y84055D01*
X63098Y84065D01*
X62918Y84072D01*
X62738Y84074D01*
X66040Y83312D02*
X66118Y83284D01*
X66195Y83251D01*
X66270Y83216D01*
X66344Y83177D01*
X66416Y83135D01*
X66485Y83090D01*
X66553Y83041D01*
X66619Y82990D01*
X66682Y82936D01*
X66743Y82879D01*
X66802Y82820D01*
X66857Y82758D01*
X66910Y82693D01*
X66960Y82627D01*
X67007Y82558D01*
X67051Y82487D01*
X67091Y82414D01*
X67128Y82340D01*
X67163Y82264D01*
X67193Y82186D01*
X67220Y82108D01*
X67244Y82028D01*
X67264Y81947D01*
X67281Y81865D01*
X67293Y81783D01*
X67303Y81700D01*
X67308Y81617D01*
X67310Y81534D01*
X65278Y79502D02*
X60198Y83566D01*
X67310Y88138D02*
X67310Y91186D01*
X67308Y91275D01*
X67302Y91363D01*
X67293Y91451D01*
X67279Y91539D01*
X67262Y91626D01*
X67241Y91712D01*
X67216Y91797D01*
X67187Y91881D01*
X67155Y91964D01*
X67120Y92045D01*
X67080Y92124D01*
X67038Y92202D01*
X66992Y92278D01*
X66943Y92352D01*
X66890Y92423D01*
X66835Y92492D01*
X66776Y92559D01*
X66715Y92623D01*
X66651Y92684D01*
X66584Y92743D01*
X66515Y92798D01*
X66444Y92851D01*
X66370Y92900D01*
X66294Y92946D01*
X66216Y92988D01*
X66137Y93028D01*
X66056Y93063D01*
X65973Y93095D01*
X65889Y93124D01*
X65804Y93149D01*
X65718Y93170D01*
X65631Y93187D01*
X65543Y93201D01*
X65455Y93210D01*
X65367Y93216D01*
X65278Y93218D01*
X64262Y93218D01*
X64173Y93216D01*
X64085Y93210D01*
X63997Y93201D01*
X63909Y93187D01*
X63822Y93170D01*
X63736Y93149D01*
X63651Y93124D01*
X63567Y93095D01*
X63484Y93063D01*
X63403Y93028D01*
X63324Y92988D01*
X63246Y92946D01*
X63170Y92900D01*
X63096Y92851D01*
X63025Y92798D01*
X62956Y92743D01*
X62889Y92684D01*
X62825Y92623D01*
X62764Y92559D01*
X62705Y92492D01*
X62650Y92423D01*
X62597Y92352D01*
X62548Y92278D01*
X62502Y92202D01*
X62460Y92124D01*
X62420Y92045D01*
X62385Y91964D01*
X62353Y91881D01*
X62324Y91797D01*
X62299Y91712D01*
X62278Y91626D01*
X62261Y91539D01*
X62247Y91451D01*
X62238Y91363D01*
X62232Y91275D01*
X62230Y91186D01*
X62230Y88138D01*
X58166Y88138D01*
X58166Y93218D01*
D16*
X460756Y52832D02*
X460756Y40132D01*
X454406Y33782D01*
X441706Y33782D02*
X435356Y40132D01*
X454406Y33782D02*
X460756Y27432D01*
X460756Y14732D01*
X454406Y8382D01*
X441706Y8382D02*
X435356Y14732D01*
X435356Y27432D01*
X441706Y33782D01*
X441706Y59182D02*
X454406Y59182D01*
X460756Y52832D01*
X441706Y59182D02*
X435356Y52832D01*
X435356Y40132D01*
X441706Y8382D02*
X454406Y8382D01*
X435102Y7620D02*
X333502Y7620D01*
X333502Y58420D01*
X435102Y58420D01*
X435102Y7620D01*
D21*
X490982Y405892D02*
X8382Y405892D01*
X490982Y405892D02*
X490982Y126492D01*
X8382Y126492D01*
X8382Y228092D01*
X8382Y304292D01*
X8382Y405892D01*
X8382Y304292D02*
X71882Y304292D01*
X71882Y228092D01*
X8382Y228092D01*
D16*
X126746Y231804D02*
X126746Y221418D01*
X103378Y221418D01*
X103378Y231804D01*
X113764Y229207D02*
X113764Y221418D01*
X126746Y245886D02*
X126744Y246029D01*
X126738Y246172D01*
X126728Y246315D01*
X126714Y246457D01*
X126697Y246599D01*
X126675Y246741D01*
X126650Y246882D01*
X126620Y247022D01*
X126587Y247161D01*
X126550Y247299D01*
X126509Y247436D01*
X126465Y247572D01*
X126416Y247707D01*
X126364Y247840D01*
X126309Y247972D01*
X126249Y248102D01*
X126186Y248231D01*
X126120Y248358D01*
X126050Y248483D01*
X125977Y248605D01*
X125900Y248726D01*
X125820Y248845D01*
X125737Y248961D01*
X125651Y249076D01*
X125562Y249187D01*
X125469Y249297D01*
X125374Y249403D01*
X125275Y249507D01*
X125174Y249608D01*
X125070Y249707D01*
X124964Y249802D01*
X124854Y249895D01*
X124743Y249984D01*
X124628Y250070D01*
X124512Y250153D01*
X124393Y250233D01*
X124272Y250310D01*
X124150Y250383D01*
X124025Y250453D01*
X123898Y250519D01*
X123769Y250582D01*
X123639Y250642D01*
X123507Y250697D01*
X123374Y250749D01*
X123239Y250798D01*
X123103Y250842D01*
X122966Y250883D01*
X122828Y250920D01*
X122689Y250953D01*
X122549Y250983D01*
X122408Y251008D01*
X122266Y251030D01*
X122124Y251047D01*
X121982Y251061D01*
X121839Y251071D01*
X121696Y251077D01*
X121553Y251079D01*
X126746Y245886D02*
X126743Y245624D01*
X126733Y245361D01*
X126718Y245099D01*
X126696Y244838D01*
X126668Y244577D01*
X126633Y244317D01*
X126592Y244057D01*
X126546Y243799D01*
X126493Y243542D01*
X126433Y243286D01*
X126368Y243032D01*
X126297Y242779D01*
X126220Y242529D01*
X126136Y242280D01*
X126047Y242033D01*
X125952Y241788D01*
X125851Y241546D01*
X125744Y241306D01*
X125632Y241069D01*
X125514Y240835D01*
X125390Y240603D01*
X125261Y240375D01*
X125126Y240149D01*
X124986Y239927D01*
X124841Y239708D01*
X124691Y239493D01*
X124535Y239282D01*
X124375Y239074D01*
X124209Y238870D01*
X124039Y238671D01*
X123864Y238475D01*
X123685Y238284D01*
X123500Y238097D01*
X108571Y238746D02*
X108428Y238748D01*
X108285Y238754D01*
X108142Y238764D01*
X108000Y238778D01*
X107858Y238795D01*
X107716Y238817D01*
X107575Y238842D01*
X107435Y238872D01*
X107296Y238905D01*
X107158Y238942D01*
X107021Y238983D01*
X106885Y239027D01*
X106750Y239076D01*
X106617Y239128D01*
X106485Y239183D01*
X106355Y239243D01*
X106226Y239306D01*
X106099Y239372D01*
X105974Y239442D01*
X105852Y239515D01*
X105731Y239592D01*
X105612Y239672D01*
X105496Y239755D01*
X105381Y239841D01*
X105270Y239930D01*
X105160Y240023D01*
X105054Y240118D01*
X104950Y240217D01*
X104849Y240318D01*
X104750Y240422D01*
X104655Y240528D01*
X104562Y240638D01*
X104473Y240749D01*
X104387Y240864D01*
X104304Y240980D01*
X104224Y241099D01*
X104147Y241220D01*
X104074Y241343D01*
X104004Y241467D01*
X103938Y241594D01*
X103875Y241723D01*
X103815Y241853D01*
X103760Y241985D01*
X103708Y242118D01*
X103659Y242253D01*
X103615Y242389D01*
X103574Y242526D01*
X103537Y242664D01*
X103504Y242803D01*
X103474Y242943D01*
X103449Y243084D01*
X103427Y243226D01*
X103410Y243368D01*
X103396Y243510D01*
X103386Y243653D01*
X103380Y243796D01*
X103378Y243939D01*
X103381Y244171D01*
X103389Y244403D01*
X103403Y244635D01*
X103422Y244866D01*
X103447Y245097D01*
X103477Y245327D01*
X103513Y245556D01*
X103554Y245784D01*
X103601Y246012D01*
X103653Y246238D01*
X103711Y246463D01*
X103774Y246686D01*
X103842Y246908D01*
X103915Y247128D01*
X103994Y247346D01*
X104077Y247563D01*
X104166Y247777D01*
X104260Y247989D01*
X104359Y248199D01*
X104463Y248407D01*
X104572Y248611D01*
X104686Y248814D01*
X104805Y249013D01*
X104928Y249210D01*
X105056Y249403D01*
X105188Y249594D01*
X105325Y249781D01*
X113115Y241342D02*
X113040Y241219D01*
X112962Y241098D01*
X112880Y240979D01*
X112796Y240863D01*
X112708Y240749D01*
X112617Y240637D01*
X112523Y240528D01*
X112426Y240421D01*
X112326Y240317D01*
X112224Y240216D01*
X112118Y240117D01*
X112010Y240022D01*
X111900Y239929D01*
X111787Y239840D01*
X111672Y239754D01*
X111554Y239671D01*
X111434Y239591D01*
X111312Y239514D01*
X111188Y239441D01*
X111062Y239371D01*
X110934Y239305D01*
X110804Y239242D01*
X110673Y239183D01*
X110540Y239127D01*
X110405Y239075D01*
X110269Y239027D01*
X110132Y238982D01*
X109994Y238942D01*
X109855Y238905D01*
X109715Y238871D01*
X109574Y238842D01*
X109432Y238817D01*
X109289Y238795D01*
X109146Y238777D01*
X109003Y238764D01*
X108859Y238754D01*
X108715Y238748D01*
X108571Y238746D01*
X117009Y248483D02*
X117084Y248606D01*
X117162Y248727D01*
X117244Y248846D01*
X117328Y248962D01*
X117416Y249076D01*
X117507Y249188D01*
X117601Y249298D01*
X117698Y249404D01*
X117798Y249508D01*
X117900Y249609D01*
X118006Y249708D01*
X118114Y249803D01*
X118224Y249896D01*
X118337Y249985D01*
X118453Y250071D01*
X118570Y250154D01*
X118690Y250234D01*
X118812Y250311D01*
X118936Y250384D01*
X119062Y250454D01*
X119190Y250520D01*
X119320Y250583D01*
X119451Y250642D01*
X119584Y250698D01*
X119719Y250750D01*
X119855Y250798D01*
X119992Y250843D01*
X120130Y250883D01*
X120269Y250920D01*
X120409Y250954D01*
X120550Y250983D01*
X120692Y251008D01*
X120835Y251030D01*
X120978Y251048D01*
X121121Y251061D01*
X121265Y251071D01*
X121409Y251077D01*
X121553Y251079D01*
X117009Y248483D02*
X113115Y241342D01*
X103378Y259123D02*
X126746Y259123D01*
X103378Y259123D02*
X103378Y265614D01*
X103380Y265773D01*
X103386Y265932D01*
X103396Y266092D01*
X103409Y266250D01*
X103427Y266409D01*
X103448Y266566D01*
X103474Y266724D01*
X103503Y266880D01*
X103536Y267036D01*
X103573Y267191D01*
X103613Y267345D01*
X103658Y267498D01*
X103706Y267650D01*
X103757Y267801D01*
X103813Y267950D01*
X103872Y268098D01*
X103935Y268244D01*
X104001Y268389D01*
X104071Y268532D01*
X104144Y268674D01*
X104221Y268813D01*
X104301Y268951D01*
X104385Y269087D01*
X104472Y269220D01*
X104562Y269352D01*
X104655Y269481D01*
X104752Y269607D01*
X104851Y269732D01*
X104954Y269854D01*
X105059Y269973D01*
X105168Y270090D01*
X105279Y270204D01*
X105393Y270315D01*
X105510Y270424D01*
X105629Y270529D01*
X105751Y270632D01*
X105876Y270731D01*
X106002Y270828D01*
X106131Y270921D01*
X106263Y271011D01*
X106396Y271098D01*
X106532Y271182D01*
X106670Y271262D01*
X106809Y271339D01*
X106951Y271412D01*
X107094Y271482D01*
X107239Y271548D01*
X107385Y271611D01*
X107533Y271670D01*
X107682Y271726D01*
X107833Y271777D01*
X107985Y271825D01*
X108138Y271870D01*
X108292Y271910D01*
X108447Y271947D01*
X108603Y271980D01*
X108759Y272009D01*
X108917Y272035D01*
X109074Y272056D01*
X109233Y272074D01*
X109391Y272087D01*
X109551Y272097D01*
X109710Y272103D01*
X109869Y272105D01*
X110028Y272103D01*
X110187Y272097D01*
X110347Y272087D01*
X110505Y272074D01*
X110664Y272056D01*
X110821Y272035D01*
X110979Y272009D01*
X111135Y271980D01*
X111291Y271947D01*
X111446Y271910D01*
X111600Y271870D01*
X111753Y271825D01*
X111905Y271777D01*
X112056Y271726D01*
X112205Y271670D01*
X112353Y271611D01*
X112499Y271548D01*
X112644Y271482D01*
X112787Y271412D01*
X112929Y271339D01*
X113068Y271262D01*
X113206Y271182D01*
X113342Y271098D01*
X113475Y271011D01*
X113607Y270921D01*
X113736Y270828D01*
X113862Y270731D01*
X113987Y270632D01*
X114109Y270529D01*
X114228Y270424D01*
X114345Y270315D01*
X114459Y270204D01*
X114570Y270090D01*
X114679Y269973D01*
X114784Y269854D01*
X114887Y269732D01*
X114986Y269607D01*
X115083Y269481D01*
X115176Y269352D01*
X115266Y269220D01*
X115353Y269087D01*
X115437Y268951D01*
X115517Y268813D01*
X115594Y268674D01*
X115667Y268532D01*
X115737Y268389D01*
X115803Y268244D01*
X115866Y268098D01*
X115925Y267950D01*
X115981Y267801D01*
X116032Y267650D01*
X116080Y267498D01*
X116125Y267345D01*
X116165Y267191D01*
X116202Y267036D01*
X116235Y266880D01*
X116264Y266724D01*
X116290Y266566D01*
X116311Y266409D01*
X116329Y266250D01*
X116342Y266092D01*
X116352Y265932D01*
X116358Y265773D01*
X116360Y265614D01*
X116360Y259123D01*
X126746Y279158D02*
X126746Y285649D01*
X126744Y285808D01*
X126738Y285967D01*
X126728Y286127D01*
X126715Y286285D01*
X126697Y286444D01*
X126676Y286601D01*
X126650Y286759D01*
X126621Y286915D01*
X126588Y287071D01*
X126551Y287226D01*
X126511Y287380D01*
X126466Y287533D01*
X126418Y287685D01*
X126367Y287836D01*
X126311Y287985D01*
X126252Y288133D01*
X126189Y288279D01*
X126123Y288424D01*
X126053Y288567D01*
X125980Y288709D01*
X125903Y288848D01*
X125823Y288986D01*
X125739Y289122D01*
X125652Y289255D01*
X125562Y289387D01*
X125469Y289516D01*
X125372Y289642D01*
X125273Y289767D01*
X125170Y289889D01*
X125065Y290008D01*
X124956Y290125D01*
X124845Y290239D01*
X124731Y290350D01*
X124614Y290459D01*
X124495Y290564D01*
X124373Y290667D01*
X124248Y290766D01*
X124122Y290863D01*
X123993Y290956D01*
X123861Y291046D01*
X123728Y291133D01*
X123592Y291217D01*
X123454Y291297D01*
X123315Y291374D01*
X123173Y291447D01*
X123030Y291517D01*
X122885Y291583D01*
X122739Y291646D01*
X122591Y291705D01*
X122442Y291761D01*
X122291Y291812D01*
X122139Y291860D01*
X121986Y291905D01*
X121832Y291945D01*
X121677Y291982D01*
X121521Y292015D01*
X121365Y292044D01*
X121207Y292070D01*
X121050Y292091D01*
X120891Y292109D01*
X120733Y292122D01*
X120573Y292132D01*
X120414Y292138D01*
X120255Y292140D01*
X120096Y292138D01*
X119937Y292132D01*
X119777Y292122D01*
X119619Y292109D01*
X119460Y292091D01*
X119303Y292070D01*
X119145Y292044D01*
X118989Y292015D01*
X118833Y291982D01*
X118678Y291945D01*
X118524Y291905D01*
X118371Y291860D01*
X118219Y291812D01*
X118068Y291761D01*
X117919Y291705D01*
X117771Y291646D01*
X117625Y291583D01*
X117480Y291517D01*
X117337Y291447D01*
X117195Y291374D01*
X117056Y291297D01*
X116918Y291217D01*
X116782Y291133D01*
X116649Y291046D01*
X116517Y290956D01*
X116388Y290863D01*
X116262Y290766D01*
X116137Y290667D01*
X116015Y290564D01*
X115896Y290459D01*
X115779Y290350D01*
X115665Y290239D01*
X115554Y290125D01*
X115445Y290008D01*
X115340Y289889D01*
X115237Y289767D01*
X115138Y289642D01*
X115041Y289516D01*
X114948Y289387D01*
X114858Y289255D01*
X114771Y289122D01*
X114687Y288986D01*
X114607Y288848D01*
X114530Y288709D01*
X114457Y288567D01*
X114387Y288424D01*
X114321Y288279D01*
X114258Y288133D01*
X114199Y287985D01*
X114143Y287836D01*
X114092Y287685D01*
X114044Y287533D01*
X113999Y287380D01*
X113959Y287226D01*
X113922Y287071D01*
X113889Y286915D01*
X113860Y286759D01*
X113834Y286601D01*
X113813Y286444D01*
X113795Y286285D01*
X113782Y286127D01*
X113772Y285967D01*
X113766Y285808D01*
X113764Y285649D01*
X103378Y286948D02*
X103378Y279158D01*
X103378Y286948D02*
X103380Y287091D01*
X103386Y287234D01*
X103396Y287377D01*
X103410Y287519D01*
X103427Y287661D01*
X103449Y287803D01*
X103474Y287944D01*
X103504Y288084D01*
X103537Y288223D01*
X103574Y288361D01*
X103615Y288498D01*
X103659Y288634D01*
X103708Y288769D01*
X103760Y288902D01*
X103815Y289034D01*
X103875Y289164D01*
X103938Y289293D01*
X104004Y289420D01*
X104074Y289545D01*
X104147Y289667D01*
X104224Y289788D01*
X104304Y289907D01*
X104387Y290023D01*
X104473Y290138D01*
X104562Y290249D01*
X104655Y290359D01*
X104750Y290465D01*
X104849Y290569D01*
X104950Y290670D01*
X105054Y290769D01*
X105160Y290864D01*
X105270Y290957D01*
X105381Y291046D01*
X105496Y291132D01*
X105612Y291215D01*
X105731Y291295D01*
X105852Y291372D01*
X105975Y291445D01*
X106099Y291515D01*
X106226Y291581D01*
X106355Y291644D01*
X106485Y291704D01*
X106617Y291759D01*
X106750Y291811D01*
X106885Y291860D01*
X107021Y291904D01*
X107158Y291945D01*
X107296Y291982D01*
X107435Y292015D01*
X107575Y292045D01*
X107716Y292070D01*
X107858Y292092D01*
X108000Y292109D01*
X108142Y292123D01*
X108285Y292133D01*
X108428Y292139D01*
X108571Y292141D01*
X108714Y292139D01*
X108857Y292133D01*
X109000Y292123D01*
X109142Y292109D01*
X109284Y292092D01*
X109426Y292070D01*
X109567Y292045D01*
X109707Y292015D01*
X109846Y291982D01*
X109984Y291945D01*
X110121Y291904D01*
X110257Y291860D01*
X110392Y291811D01*
X110525Y291759D01*
X110657Y291704D01*
X110787Y291644D01*
X110916Y291581D01*
X111043Y291515D01*
X111168Y291445D01*
X111290Y291372D01*
X111411Y291295D01*
X111530Y291215D01*
X111646Y291132D01*
X111761Y291046D01*
X111872Y290957D01*
X111982Y290864D01*
X112088Y290769D01*
X112192Y290670D01*
X112293Y290569D01*
X112392Y290465D01*
X112487Y290359D01*
X112580Y290249D01*
X112669Y290138D01*
X112755Y290023D01*
X112838Y289907D01*
X112918Y289788D01*
X112995Y289667D01*
X113068Y289545D01*
X113138Y289420D01*
X113204Y289293D01*
X113267Y289164D01*
X113327Y289034D01*
X113382Y288902D01*
X113434Y288769D01*
X113483Y288634D01*
X113527Y288498D01*
X113568Y288361D01*
X113605Y288223D01*
X113638Y288084D01*
X113668Y287944D01*
X113693Y287803D01*
X113715Y287661D01*
X113732Y287519D01*
X113746Y287377D01*
X113756Y287234D01*
X113762Y287091D01*
X113764Y286948D01*
X113764Y281755D01*
X103378Y307177D02*
X103380Y307327D01*
X103386Y307478D01*
X103395Y307628D01*
X103409Y307778D01*
X103426Y307927D01*
X103448Y308076D01*
X103473Y308224D01*
X103502Y308372D01*
X103534Y308519D01*
X103571Y308665D01*
X103611Y308810D01*
X103655Y308954D01*
X103702Y309096D01*
X103754Y309238D01*
X103808Y309378D01*
X103867Y309516D01*
X103929Y309654D01*
X103994Y309789D01*
X104063Y309923D01*
X104136Y310054D01*
X104212Y310184D01*
X104291Y310312D01*
X104373Y310438D01*
X104459Y310562D01*
X104547Y310683D01*
X104639Y310803D01*
X104734Y310919D01*
X104832Y311034D01*
X104933Y311145D01*
X105036Y311254D01*
X105143Y311361D01*
X105252Y311464D01*
X105363Y311565D01*
X105478Y311663D01*
X105594Y311758D01*
X105714Y311850D01*
X105835Y311938D01*
X105959Y312024D01*
X106085Y312106D01*
X106213Y312185D01*
X106343Y312261D01*
X106474Y312334D01*
X106608Y312403D01*
X106743Y312468D01*
X106881Y312530D01*
X107019Y312589D01*
X107159Y312643D01*
X107301Y312695D01*
X107443Y312742D01*
X107587Y312786D01*
X107732Y312826D01*
X107878Y312863D01*
X108025Y312895D01*
X108173Y312924D01*
X108321Y312949D01*
X108470Y312971D01*
X108619Y312988D01*
X108769Y313002D01*
X108919Y313011D01*
X109070Y313017D01*
X109220Y313019D01*
X103378Y307177D02*
X103380Y306996D01*
X103387Y306814D01*
X103398Y306633D01*
X103413Y306452D01*
X103433Y306272D01*
X103457Y306092D01*
X103485Y305913D01*
X103518Y305734D01*
X103555Y305556D01*
X103596Y305380D01*
X103642Y305204D01*
X103692Y305029D01*
X103746Y304856D01*
X103804Y304684D01*
X103866Y304514D01*
X103933Y304345D01*
X104003Y304178D01*
X104078Y304012D01*
X104156Y303848D01*
X104239Y303687D01*
X104325Y303527D01*
X104415Y303370D01*
X104509Y303214D01*
X104607Y303061D01*
X104708Y302911D01*
X104813Y302763D01*
X104922Y302617D01*
X105034Y302474D01*
X105149Y302334D01*
X105268Y302197D01*
X105390Y302063D01*
X105516Y301932D01*
X105644Y301803D01*
X105775Y301678D01*
X105910Y301556D01*
X106047Y301438D01*
X106187Y301322D01*
X106330Y301211D01*
X106476Y301102D01*
X106624Y300997D01*
X106775Y300896D01*
X106928Y300799D01*
X107083Y300705D01*
X107241Y300615D01*
X107401Y300529D01*
X107563Y300446D01*
X107726Y300368D01*
X107892Y300294D01*
X108059Y300224D01*
X108228Y300157D01*
X108399Y300095D01*
X108571Y300037D01*
X113764Y311073D02*
X113656Y311183D01*
X113546Y311290D01*
X113433Y311395D01*
X113318Y311497D01*
X113200Y311596D01*
X113080Y311692D01*
X112957Y311786D01*
X112833Y311876D01*
X112706Y311963D01*
X112577Y312047D01*
X112445Y312128D01*
X112312Y312205D01*
X112177Y312279D01*
X112041Y312350D01*
X111902Y312418D01*
X111762Y312482D01*
X111621Y312543D01*
X111478Y312600D01*
X111334Y312653D01*
X111188Y312703D01*
X111041Y312750D01*
X110893Y312793D01*
X110744Y312832D01*
X110595Y312868D01*
X110444Y312899D01*
X110293Y312928D01*
X110141Y312952D01*
X109988Y312973D01*
X109835Y312990D01*
X109682Y313003D01*
X109528Y313012D01*
X109374Y313018D01*
X109220Y313020D01*
X113764Y311072D02*
X126746Y300037D01*
X126746Y313019D01*
X141478Y221418D02*
X164846Y226611D01*
X149267Y231804D01*
X164846Y236997D01*
X141478Y242190D01*
X141478Y249735D02*
X164846Y249735D01*
X141478Y249735D02*
X141478Y256226D01*
X141480Y256385D01*
X141486Y256544D01*
X141496Y256704D01*
X141509Y256862D01*
X141527Y257021D01*
X141548Y257178D01*
X141574Y257336D01*
X141603Y257492D01*
X141636Y257648D01*
X141673Y257803D01*
X141713Y257957D01*
X141758Y258110D01*
X141806Y258262D01*
X141857Y258413D01*
X141913Y258562D01*
X141972Y258710D01*
X142035Y258856D01*
X142101Y259001D01*
X142171Y259144D01*
X142244Y259286D01*
X142321Y259425D01*
X142401Y259563D01*
X142485Y259699D01*
X142572Y259832D01*
X142662Y259964D01*
X142755Y260093D01*
X142852Y260219D01*
X142951Y260344D01*
X143054Y260466D01*
X143159Y260585D01*
X143268Y260702D01*
X143379Y260816D01*
X143493Y260927D01*
X143610Y261036D01*
X143729Y261141D01*
X143851Y261244D01*
X143976Y261343D01*
X144102Y261440D01*
X144231Y261533D01*
X144363Y261623D01*
X144496Y261710D01*
X144632Y261794D01*
X144770Y261874D01*
X144909Y261951D01*
X145051Y262024D01*
X145194Y262094D01*
X145339Y262160D01*
X145485Y262223D01*
X145633Y262282D01*
X145782Y262338D01*
X145933Y262389D01*
X146085Y262437D01*
X146238Y262482D01*
X146392Y262522D01*
X146547Y262559D01*
X146703Y262592D01*
X146859Y262621D01*
X147017Y262647D01*
X147174Y262668D01*
X147333Y262686D01*
X147491Y262699D01*
X147651Y262709D01*
X147810Y262715D01*
X147969Y262717D01*
X148128Y262715D01*
X148287Y262709D01*
X148447Y262699D01*
X148605Y262686D01*
X148764Y262668D01*
X148921Y262647D01*
X149079Y262621D01*
X149235Y262592D01*
X149391Y262559D01*
X149546Y262522D01*
X149700Y262482D01*
X149853Y262437D01*
X150005Y262389D01*
X150156Y262338D01*
X150305Y262282D01*
X150453Y262223D01*
X150599Y262160D01*
X150744Y262094D01*
X150887Y262024D01*
X151029Y261951D01*
X151168Y261874D01*
X151306Y261794D01*
X151442Y261710D01*
X151575Y261623D01*
X151707Y261533D01*
X151836Y261440D01*
X151962Y261343D01*
X152087Y261244D01*
X152209Y261141D01*
X152328Y261036D01*
X152445Y260927D01*
X152559Y260816D01*
X152670Y260702D01*
X152779Y260585D01*
X152884Y260466D01*
X152987Y260344D01*
X153086Y260219D01*
X153183Y260093D01*
X153276Y259964D01*
X153366Y259832D01*
X153453Y259699D01*
X153537Y259563D01*
X153617Y259425D01*
X153694Y259286D01*
X153767Y259144D01*
X153837Y259001D01*
X153903Y258856D01*
X153966Y258710D01*
X154025Y258562D01*
X154081Y258413D01*
X154132Y258262D01*
X154180Y258110D01*
X154225Y257957D01*
X154265Y257803D01*
X154302Y257648D01*
X154335Y257492D01*
X154364Y257336D01*
X154390Y257178D01*
X154411Y257021D01*
X154429Y256862D01*
X154442Y256704D01*
X154452Y256544D01*
X154458Y256385D01*
X154460Y256226D01*
X154460Y249735D01*
X154460Y257524D02*
X164846Y262717D01*
X158355Y270550D02*
X147969Y270550D01*
X147810Y270552D01*
X147651Y270558D01*
X147491Y270568D01*
X147333Y270581D01*
X147174Y270599D01*
X147017Y270620D01*
X146859Y270646D01*
X146703Y270675D01*
X146547Y270708D01*
X146392Y270745D01*
X146238Y270785D01*
X146085Y270830D01*
X145933Y270878D01*
X145782Y270929D01*
X145633Y270985D01*
X145485Y271044D01*
X145339Y271107D01*
X145194Y271173D01*
X145051Y271243D01*
X144909Y271316D01*
X144770Y271393D01*
X144632Y271473D01*
X144496Y271557D01*
X144363Y271644D01*
X144231Y271734D01*
X144102Y271827D01*
X143976Y271924D01*
X143851Y272023D01*
X143729Y272126D01*
X143610Y272231D01*
X143493Y272340D01*
X143379Y272451D01*
X143268Y272565D01*
X143159Y272682D01*
X143054Y272801D01*
X142951Y272923D01*
X142852Y273048D01*
X142755Y273174D01*
X142662Y273303D01*
X142572Y273435D01*
X142485Y273568D01*
X142401Y273704D01*
X142321Y273842D01*
X142244Y273981D01*
X142171Y274123D01*
X142101Y274266D01*
X142035Y274411D01*
X141972Y274557D01*
X141913Y274705D01*
X141857Y274854D01*
X141806Y275005D01*
X141758Y275157D01*
X141713Y275310D01*
X141673Y275464D01*
X141636Y275619D01*
X141603Y275775D01*
X141574Y275931D01*
X141548Y276089D01*
X141527Y276246D01*
X141509Y276405D01*
X141496Y276563D01*
X141486Y276723D01*
X141480Y276882D01*
X141478Y277041D01*
X141480Y277200D01*
X141486Y277359D01*
X141496Y277519D01*
X141509Y277677D01*
X141527Y277836D01*
X141548Y277993D01*
X141574Y278151D01*
X141603Y278307D01*
X141636Y278463D01*
X141673Y278618D01*
X141713Y278772D01*
X141758Y278925D01*
X141806Y279077D01*
X141857Y279228D01*
X141913Y279377D01*
X141972Y279525D01*
X142035Y279671D01*
X142101Y279816D01*
X142171Y279959D01*
X142244Y280101D01*
X142321Y280240D01*
X142401Y280378D01*
X142485Y280514D01*
X142572Y280647D01*
X142662Y280779D01*
X142755Y280908D01*
X142852Y281034D01*
X142951Y281159D01*
X143054Y281281D01*
X143159Y281400D01*
X143268Y281517D01*
X143379Y281631D01*
X143493Y281742D01*
X143610Y281851D01*
X143729Y281956D01*
X143851Y282059D01*
X143976Y282158D01*
X144102Y282255D01*
X144231Y282348D01*
X144363Y282438D01*
X144496Y282525D01*
X144632Y282609D01*
X144770Y282689D01*
X144909Y282766D01*
X145051Y282839D01*
X145194Y282909D01*
X145339Y282975D01*
X145485Y283038D01*
X145633Y283097D01*
X145782Y283153D01*
X145933Y283204D01*
X146085Y283252D01*
X146238Y283297D01*
X146392Y283337D01*
X146547Y283374D01*
X146703Y283407D01*
X146859Y283436D01*
X147017Y283462D01*
X147174Y283483D01*
X147333Y283501D01*
X147491Y283514D01*
X147651Y283524D01*
X147810Y283530D01*
X147969Y283532D01*
X158355Y283532D01*
X158514Y283530D01*
X158673Y283524D01*
X158833Y283514D01*
X158991Y283501D01*
X159150Y283483D01*
X159307Y283462D01*
X159465Y283436D01*
X159621Y283407D01*
X159777Y283374D01*
X159932Y283337D01*
X160086Y283297D01*
X160239Y283252D01*
X160391Y283204D01*
X160542Y283153D01*
X160691Y283097D01*
X160839Y283038D01*
X160985Y282975D01*
X161130Y282909D01*
X161273Y282839D01*
X161415Y282766D01*
X161554Y282689D01*
X161692Y282609D01*
X161828Y282525D01*
X161961Y282438D01*
X162093Y282348D01*
X162222Y282255D01*
X162348Y282158D01*
X162473Y282059D01*
X162595Y281956D01*
X162714Y281851D01*
X162831Y281742D01*
X162945Y281631D01*
X163056Y281517D01*
X163165Y281400D01*
X163270Y281281D01*
X163373Y281159D01*
X163472Y281034D01*
X163569Y280908D01*
X163662Y280779D01*
X163752Y280647D01*
X163839Y280514D01*
X163923Y280378D01*
X164003Y280240D01*
X164080Y280101D01*
X164153Y279959D01*
X164223Y279816D01*
X164289Y279671D01*
X164352Y279525D01*
X164411Y279377D01*
X164467Y279228D01*
X164518Y279077D01*
X164566Y278925D01*
X164611Y278772D01*
X164651Y278618D01*
X164688Y278463D01*
X164721Y278307D01*
X164750Y278151D01*
X164776Y277993D01*
X164797Y277836D01*
X164815Y277677D01*
X164828Y277519D01*
X164838Y277359D01*
X164844Y277200D01*
X164846Y277041D01*
X164844Y276882D01*
X164838Y276723D01*
X164828Y276563D01*
X164815Y276405D01*
X164797Y276246D01*
X164776Y276089D01*
X164750Y275931D01*
X164721Y275775D01*
X164688Y275619D01*
X164651Y275464D01*
X164611Y275310D01*
X164566Y275157D01*
X164518Y275005D01*
X164467Y274854D01*
X164411Y274705D01*
X164352Y274557D01*
X164289Y274411D01*
X164223Y274266D01*
X164153Y274123D01*
X164080Y273981D01*
X164003Y273842D01*
X163923Y273704D01*
X163839Y273568D01*
X163752Y273435D01*
X163662Y273303D01*
X163569Y273174D01*
X163472Y273048D01*
X163373Y272923D01*
X163270Y272801D01*
X163165Y272682D01*
X163056Y272565D01*
X162945Y272451D01*
X162831Y272340D01*
X162714Y272231D01*
X162595Y272126D01*
X162473Y272023D01*
X162348Y271924D01*
X162222Y271827D01*
X162093Y271734D01*
X161961Y271644D01*
X161828Y271557D01*
X161692Y271473D01*
X161554Y271393D01*
X161415Y271316D01*
X161273Y271243D01*
X161130Y271173D01*
X160985Y271107D01*
X160839Y271044D01*
X160691Y270985D01*
X160542Y270929D01*
X160391Y270878D01*
X160239Y270830D01*
X160086Y270785D01*
X159932Y270745D01*
X159777Y270708D01*
X159621Y270675D01*
X159465Y270646D01*
X159307Y270620D01*
X159150Y270599D01*
X158991Y270581D01*
X158833Y270568D01*
X158673Y270558D01*
X158514Y270552D01*
X158355Y270550D01*
X158355Y291429D02*
X147969Y291429D01*
X147810Y291431D01*
X147651Y291437D01*
X147491Y291447D01*
X147333Y291460D01*
X147174Y291478D01*
X147017Y291499D01*
X146859Y291525D01*
X146703Y291554D01*
X146547Y291587D01*
X146392Y291624D01*
X146238Y291664D01*
X146085Y291709D01*
X145933Y291757D01*
X145782Y291808D01*
X145633Y291864D01*
X145485Y291923D01*
X145339Y291986D01*
X145194Y292052D01*
X145051Y292122D01*
X144909Y292195D01*
X144770Y292272D01*
X144632Y292352D01*
X144496Y292436D01*
X144363Y292523D01*
X144231Y292613D01*
X144102Y292706D01*
X143976Y292803D01*
X143851Y292902D01*
X143729Y293005D01*
X143610Y293110D01*
X143493Y293219D01*
X143379Y293330D01*
X143268Y293444D01*
X143159Y293561D01*
X143054Y293680D01*
X142951Y293802D01*
X142852Y293927D01*
X142755Y294053D01*
X142662Y294182D01*
X142572Y294314D01*
X142485Y294447D01*
X142401Y294583D01*
X142321Y294721D01*
X142244Y294860D01*
X142171Y295002D01*
X142101Y295145D01*
X142035Y295290D01*
X141972Y295436D01*
X141913Y295584D01*
X141857Y295733D01*
X141806Y295884D01*
X141758Y296036D01*
X141713Y296189D01*
X141673Y296343D01*
X141636Y296498D01*
X141603Y296654D01*
X141574Y296810D01*
X141548Y296968D01*
X141527Y297125D01*
X141509Y297284D01*
X141496Y297442D01*
X141486Y297602D01*
X141480Y297761D01*
X141478Y297920D01*
X141480Y298079D01*
X141486Y298238D01*
X141496Y298398D01*
X141509Y298556D01*
X141527Y298715D01*
X141548Y298872D01*
X141574Y299030D01*
X141603Y299186D01*
X141636Y299342D01*
X141673Y299497D01*
X141713Y299651D01*
X141758Y299804D01*
X141806Y299956D01*
X141857Y300107D01*
X141913Y300256D01*
X141972Y300404D01*
X142035Y300550D01*
X142101Y300695D01*
X142171Y300838D01*
X142244Y300980D01*
X142321Y301119D01*
X142401Y301257D01*
X142485Y301393D01*
X142572Y301526D01*
X142662Y301658D01*
X142755Y301787D01*
X142852Y301913D01*
X142951Y302038D01*
X143054Y302160D01*
X143159Y302279D01*
X143268Y302396D01*
X143379Y302510D01*
X143493Y302621D01*
X143610Y302730D01*
X143729Y302835D01*
X143851Y302938D01*
X143976Y303037D01*
X144102Y303134D01*
X144231Y303227D01*
X144363Y303317D01*
X144496Y303404D01*
X144632Y303488D01*
X144770Y303568D01*
X144909Y303645D01*
X145051Y303718D01*
X145194Y303788D01*
X145339Y303854D01*
X145485Y303917D01*
X145633Y303976D01*
X145782Y304032D01*
X145933Y304083D01*
X146085Y304131D01*
X146238Y304176D01*
X146392Y304216D01*
X146547Y304253D01*
X146703Y304286D01*
X146859Y304315D01*
X147017Y304341D01*
X147174Y304362D01*
X147333Y304380D01*
X147491Y304393D01*
X147651Y304403D01*
X147810Y304409D01*
X147969Y304411D01*
X158355Y304411D01*
X158514Y304409D01*
X158673Y304403D01*
X158833Y304393D01*
X158991Y304380D01*
X159150Y304362D01*
X159307Y304341D01*
X159465Y304315D01*
X159621Y304286D01*
X159777Y304253D01*
X159932Y304216D01*
X160086Y304176D01*
X160239Y304131D01*
X160391Y304083D01*
X160542Y304032D01*
X160691Y303976D01*
X160839Y303917D01*
X160985Y303854D01*
X161130Y303788D01*
X161273Y303718D01*
X161415Y303645D01*
X161554Y303568D01*
X161692Y303488D01*
X161828Y303404D01*
X161961Y303317D01*
X162093Y303227D01*
X162222Y303134D01*
X162348Y303037D01*
X162473Y302938D01*
X162595Y302835D01*
X162714Y302730D01*
X162831Y302621D01*
X162945Y302510D01*
X163056Y302396D01*
X163165Y302279D01*
X163270Y302160D01*
X163373Y302038D01*
X163472Y301913D01*
X163569Y301787D01*
X163662Y301658D01*
X163752Y301526D01*
X163839Y301393D01*
X163923Y301257D01*
X164003Y301119D01*
X164080Y300980D01*
X164153Y300838D01*
X164223Y300695D01*
X164289Y300550D01*
X164352Y300404D01*
X164411Y300256D01*
X164467Y300107D01*
X164518Y299956D01*
X164566Y299804D01*
X164611Y299651D01*
X164651Y299497D01*
X164688Y299342D01*
X164721Y299186D01*
X164750Y299030D01*
X164776Y298872D01*
X164797Y298715D01*
X164815Y298556D01*
X164828Y298398D01*
X164838Y298238D01*
X164844Y298079D01*
X164846Y297920D01*
X164844Y297761D01*
X164838Y297602D01*
X164828Y297442D01*
X164815Y297284D01*
X164797Y297125D01*
X164776Y296968D01*
X164750Y296810D01*
X164721Y296654D01*
X164688Y296498D01*
X164651Y296343D01*
X164611Y296189D01*
X164566Y296036D01*
X164518Y295884D01*
X164467Y295733D01*
X164411Y295584D01*
X164352Y295436D01*
X164289Y295290D01*
X164223Y295145D01*
X164153Y295002D01*
X164080Y294860D01*
X164003Y294721D01*
X163923Y294583D01*
X163839Y294447D01*
X163752Y294314D01*
X163662Y294182D01*
X163569Y294053D01*
X163472Y293927D01*
X163373Y293802D01*
X163270Y293680D01*
X163165Y293561D01*
X163056Y293444D01*
X162945Y293330D01*
X162831Y293219D01*
X162714Y293110D01*
X162595Y293005D01*
X162473Y292902D01*
X162348Y292803D01*
X162222Y292706D01*
X162093Y292613D01*
X161961Y292523D01*
X161828Y292436D01*
X161692Y292352D01*
X161554Y292272D01*
X161415Y292195D01*
X161273Y292122D01*
X161130Y292052D01*
X160985Y291986D01*
X160839Y291923D01*
X160691Y291864D01*
X160542Y291808D01*
X160391Y291757D01*
X160239Y291709D01*
X160086Y291664D01*
X159932Y291624D01*
X159777Y291587D01*
X159621Y291554D01*
X159465Y291525D01*
X159307Y291499D01*
X159150Y291478D01*
X158991Y291460D01*
X158833Y291447D01*
X158673Y291437D01*
X158514Y291431D01*
X158355Y291429D01*
X164846Y313097D02*
X141478Y313097D01*
X154460Y320887D01*
X141478Y328676D01*
X164846Y328676D01*
X49191Y245098D02*
X37507Y245098D01*
X49191Y245097D02*
X49313Y245099D01*
X49436Y245105D01*
X49558Y245114D01*
X49679Y245128D01*
X49800Y245145D01*
X49921Y245166D01*
X50041Y245191D01*
X50160Y245219D01*
X50278Y245252D01*
X50395Y245288D01*
X50510Y245327D01*
X50625Y245371D01*
X50738Y245417D01*
X50849Y245468D01*
X50959Y245522D01*
X51067Y245579D01*
X51174Y245639D01*
X51278Y245703D01*
X51380Y245771D01*
X51480Y245841D01*
X51578Y245914D01*
X51674Y245991D01*
X51767Y246070D01*
X51857Y246153D01*
X51945Y246238D01*
X52030Y246326D01*
X52113Y246416D01*
X52192Y246509D01*
X52269Y246605D01*
X52342Y246703D01*
X52412Y246803D01*
X52480Y246905D01*
X52544Y247009D01*
X52604Y247116D01*
X52661Y247224D01*
X52715Y247334D01*
X52766Y247445D01*
X52812Y247558D01*
X52856Y247673D01*
X52895Y247788D01*
X52931Y247905D01*
X52964Y248023D01*
X52992Y248142D01*
X53017Y248262D01*
X53038Y248383D01*
X53055Y248504D01*
X53069Y248625D01*
X53078Y248747D01*
X53084Y248870D01*
X53086Y248992D01*
X53086Y255483D01*
X37507Y255483D01*
X43998Y265836D02*
X46595Y272327D01*
X43998Y265836D02*
X43954Y265730D01*
X43905Y265625D01*
X43853Y265522D01*
X43798Y265421D01*
X43739Y265321D01*
X43677Y265224D01*
X43612Y265129D01*
X43543Y265037D01*
X43471Y264946D01*
X43397Y264859D01*
X43319Y264773D01*
X43238Y264691D01*
X43155Y264611D01*
X43069Y264535D01*
X42980Y264461D01*
X42889Y264390D01*
X42795Y264323D01*
X42699Y264259D01*
X42601Y264198D01*
X42502Y264140D01*
X42400Y264086D01*
X42296Y264036D01*
X42191Y263989D01*
X42084Y263945D01*
X41975Y263906D01*
X41866Y263870D01*
X41755Y263838D01*
X41643Y263809D01*
X41531Y263785D01*
X41417Y263764D01*
X41303Y263748D01*
X41188Y263735D01*
X41073Y263726D01*
X40958Y263721D01*
X40843Y263720D01*
X40728Y263723D01*
X40612Y263730D01*
X40498Y263741D01*
X40383Y263756D01*
X40270Y263775D01*
X40156Y263797D01*
X40044Y263824D01*
X39933Y263854D01*
X39823Y263888D01*
X39714Y263926D01*
X39606Y263967D01*
X39500Y264013D01*
X39396Y264062D01*
X39293Y264114D01*
X39192Y264170D01*
X39093Y264229D01*
X38996Y264292D01*
X38902Y264358D01*
X38809Y264427D01*
X38719Y264499D01*
X38632Y264574D01*
X38547Y264653D01*
X38465Y264734D01*
X38386Y264818D01*
X38310Y264904D01*
X38237Y264993D01*
X38167Y265085D01*
X38100Y265179D01*
X38036Y265275D01*
X37976Y265373D01*
X37919Y265473D01*
X37865Y265575D01*
X37815Y265679D01*
X37769Y265785D01*
X37726Y265892D01*
X37687Y266001D01*
X37652Y266110D01*
X37620Y266221D01*
X37592Y266333D01*
X37568Y266446D01*
X37548Y266560D01*
X37532Y266674D01*
X37520Y266788D01*
X37512Y266903D01*
X37508Y267019D01*
X37507Y267134D01*
X37508Y267133D02*
X37517Y267488D01*
X37535Y267842D01*
X37561Y268195D01*
X37596Y268548D01*
X37639Y268900D01*
X37691Y269251D01*
X37751Y269600D01*
X37820Y269948D01*
X37897Y270294D01*
X37982Y270638D01*
X38075Y270980D01*
X38177Y271319D01*
X38287Y271656D01*
X38404Y271991D01*
X38530Y272322D01*
X38664Y272650D01*
X38806Y272975D01*
X46595Y272327D02*
X46639Y272433D01*
X46688Y272538D01*
X46740Y272641D01*
X46795Y272742D01*
X46854Y272842D01*
X46916Y272939D01*
X46981Y273034D01*
X47050Y273126D01*
X47122Y273217D01*
X47196Y273304D01*
X47274Y273390D01*
X47355Y273472D01*
X47438Y273552D01*
X47524Y273628D01*
X47613Y273702D01*
X47704Y273773D01*
X47798Y273840D01*
X47894Y273904D01*
X47992Y273965D01*
X48091Y274023D01*
X48193Y274077D01*
X48297Y274127D01*
X48402Y274174D01*
X48509Y274218D01*
X48618Y274257D01*
X48727Y274293D01*
X48838Y274325D01*
X48950Y274354D01*
X49062Y274378D01*
X49176Y274399D01*
X49290Y274415D01*
X49405Y274428D01*
X49520Y274437D01*
X49635Y274442D01*
X49750Y274443D01*
X49865Y274440D01*
X49981Y274433D01*
X50095Y274422D01*
X50210Y274407D01*
X50323Y274388D01*
X50437Y274366D01*
X50549Y274339D01*
X50660Y274309D01*
X50770Y274275D01*
X50879Y274237D01*
X50987Y274196D01*
X51093Y274150D01*
X51197Y274101D01*
X51300Y274049D01*
X51401Y273993D01*
X51500Y273934D01*
X51597Y273871D01*
X51691Y273805D01*
X51784Y273736D01*
X51874Y273664D01*
X51961Y273589D01*
X52046Y273510D01*
X52128Y273429D01*
X52207Y273345D01*
X52283Y273259D01*
X52356Y273170D01*
X52426Y273078D01*
X52493Y272984D01*
X52557Y272888D01*
X52617Y272790D01*
X52674Y272690D01*
X52728Y272588D01*
X52778Y272484D01*
X52824Y272378D01*
X52867Y272271D01*
X52906Y272162D01*
X52941Y272053D01*
X52973Y271942D01*
X53001Y271830D01*
X53025Y271717D01*
X53045Y271603D01*
X53061Y271489D01*
X53073Y271375D01*
X53081Y271259D01*
X53085Y271144D01*
X53086Y271029D01*
X53086Y271028D02*
X53072Y270508D01*
X53046Y269988D01*
X53008Y269468D01*
X52958Y268950D01*
X52895Y268433D01*
X52820Y267918D01*
X52733Y267405D01*
X52634Y266893D01*
X52522Y266385D01*
X52399Y265879D01*
X52264Y265376D01*
X52117Y264876D01*
X51958Y264380D01*
X51788Y263888D01*
X53086Y282730D02*
X29718Y282730D01*
X53086Y282730D02*
X53086Y289221D01*
X53084Y289343D01*
X53078Y289466D01*
X53069Y289588D01*
X53055Y289709D01*
X53038Y289830D01*
X53017Y289951D01*
X52992Y290071D01*
X52964Y290190D01*
X52931Y290308D01*
X52895Y290425D01*
X52856Y290540D01*
X52812Y290655D01*
X52766Y290768D01*
X52715Y290879D01*
X52661Y290989D01*
X52604Y291097D01*
X52544Y291204D01*
X52480Y291308D01*
X52412Y291410D01*
X52342Y291510D01*
X52269Y291608D01*
X52192Y291704D01*
X52113Y291797D01*
X52030Y291887D01*
X51945Y291975D01*
X51857Y292060D01*
X51767Y292143D01*
X51674Y292222D01*
X51578Y292299D01*
X51480Y292372D01*
X51380Y292442D01*
X51278Y292510D01*
X51174Y292574D01*
X51067Y292634D01*
X50959Y292691D01*
X50849Y292745D01*
X50738Y292796D01*
X50625Y292842D01*
X50510Y292886D01*
X50395Y292925D01*
X50278Y292961D01*
X50160Y292994D01*
X50041Y293022D01*
X49921Y293047D01*
X49800Y293068D01*
X49679Y293085D01*
X49558Y293099D01*
X49436Y293108D01*
X49313Y293114D01*
X49191Y293116D01*
X41402Y293116D01*
X41280Y293114D01*
X41157Y293108D01*
X41035Y293099D01*
X40914Y293085D01*
X40793Y293068D01*
X40672Y293047D01*
X40552Y293022D01*
X40433Y292994D01*
X40315Y292961D01*
X40198Y292925D01*
X40083Y292886D01*
X39968Y292842D01*
X39855Y292796D01*
X39744Y292745D01*
X39634Y292691D01*
X39526Y292634D01*
X39419Y292574D01*
X39315Y292510D01*
X39213Y292442D01*
X39113Y292372D01*
X39015Y292299D01*
X38919Y292222D01*
X38826Y292143D01*
X38736Y292060D01*
X38648Y291975D01*
X38563Y291887D01*
X38480Y291797D01*
X38401Y291704D01*
X38324Y291608D01*
X38251Y291510D01*
X38181Y291410D01*
X38113Y291308D01*
X38049Y291204D01*
X37989Y291097D01*
X37932Y290989D01*
X37878Y290879D01*
X37827Y290768D01*
X37781Y290655D01*
X37737Y290540D01*
X37698Y290425D01*
X37662Y290308D01*
X37629Y290190D01*
X37601Y290071D01*
X37576Y289951D01*
X37555Y289830D01*
X37538Y289709D01*
X37524Y289588D01*
X37515Y289466D01*
X37509Y289343D01*
X37507Y289221D01*
X37507Y282730D01*
D17*
X58928Y107950D02*
X52578Y101600D01*
X39878Y101600D01*
X33528Y107950D01*
X33528Y120650D01*
X39878Y127000D01*
X52578Y127000D01*
X58928Y120650D01*
X90678Y101600D02*
X103378Y101600D01*
X90678Y101600D02*
X84328Y107950D01*
X84328Y120650D01*
X90678Y127000D01*
X84328Y107950D02*
X77978Y101600D01*
X65278Y101600D01*
X58928Y107950D01*
X58928Y120650D01*
X65278Y127000D01*
X77978Y127000D01*
X84328Y120650D01*
X128778Y101600D02*
X135128Y107950D01*
X128778Y101600D02*
X116078Y101600D01*
X109728Y107950D01*
X109728Y120650D01*
X116078Y127000D01*
X128778Y127000D01*
X135128Y120650D01*
X109728Y107950D02*
X103378Y101600D01*
X109728Y120650D02*
X103378Y127000D01*
X90678Y127000D01*
X166878Y101600D02*
X179578Y101600D01*
X166878Y101600D02*
X160528Y107950D01*
X160528Y120650D01*
X166878Y127000D01*
X160528Y107950D02*
X154178Y101600D01*
X141478Y101600D01*
X135128Y107950D01*
X135128Y120650D01*
X141478Y127000D01*
X154178Y127000D01*
X160528Y120650D01*
X204978Y101600D02*
X211328Y107950D01*
X204978Y101600D02*
X192278Y101600D01*
X185928Y107950D01*
X185928Y120650D01*
X192278Y127000D01*
X204978Y127000D01*
X211328Y120650D01*
X185928Y107950D02*
X179578Y101600D01*
X185928Y120650D02*
X179578Y127000D01*
X166878Y127000D01*
X243078Y101600D02*
X255778Y101600D01*
X243078Y101600D02*
X236728Y107950D01*
X236728Y120650D01*
X243078Y127000D01*
X236728Y107950D02*
X230378Y101600D01*
X217678Y101600D01*
X211328Y107950D01*
X211328Y120650D01*
X217678Y127000D01*
X230378Y127000D01*
X236728Y120650D01*
X281178Y101600D02*
X287528Y107950D01*
X281178Y101600D02*
X268478Y101600D01*
X262128Y107950D01*
X262128Y120650D01*
X268478Y127000D01*
X281178Y127000D01*
X287528Y120650D01*
X262128Y107950D02*
X255778Y101600D01*
X262128Y120650D02*
X255778Y127000D01*
X243078Y127000D01*
X319278Y101600D02*
X331978Y101600D01*
X319278Y101600D02*
X312928Y107950D01*
X312928Y120650D01*
X319278Y127000D01*
X312928Y107950D02*
X306578Y101600D01*
X293878Y101600D01*
X287528Y107950D01*
X287528Y120650D01*
X293878Y127000D01*
X306578Y127000D01*
X312928Y120650D01*
X357378Y101600D02*
X363728Y107950D01*
X357378Y101600D02*
X344678Y101600D01*
X338328Y107950D01*
X338328Y120650D01*
X344678Y127000D01*
X357378Y127000D01*
X363728Y120650D01*
X338328Y107950D02*
X331978Y101600D01*
X338328Y120650D02*
X331978Y127000D01*
X319278Y127000D01*
X395478Y101600D02*
X408178Y101600D01*
X395478Y101600D02*
X389128Y107950D01*
X389128Y120650D01*
X395478Y127000D01*
X389128Y107950D02*
X382778Y101600D01*
X370078Y101600D01*
X363728Y107950D01*
X363728Y120650D01*
X370078Y127000D01*
X382778Y127000D01*
X389128Y120650D01*
X433578Y101600D02*
X439928Y107950D01*
X433578Y101600D02*
X420878Y101600D01*
X414528Y107950D01*
X414528Y120650D01*
X420878Y127000D01*
X433578Y127000D01*
X439928Y120650D01*
X414528Y107950D02*
X408178Y101600D01*
X414528Y120650D02*
X408178Y127000D01*
X395478Y127000D01*
X471678Y101600D02*
X484378Y101600D01*
X471678Y101600D02*
X465328Y107950D01*
X465328Y120650D01*
X471678Y127000D01*
X465328Y107950D02*
X458978Y101600D01*
X446278Y101600D01*
X439928Y107950D01*
X439928Y120650D01*
X446278Y127000D01*
X458978Y127000D01*
X465328Y120650D01*
X490728Y120650D02*
X490728Y107950D01*
X484378Y101600D01*
X490728Y120650D02*
X484378Y127000D01*
X471678Y127000D01*
X33528Y107950D02*
X27178Y101600D01*
X14478Y101600D01*
X8128Y107950D01*
X8128Y120650D01*
X14478Y127000D01*
X27178Y127000D01*
X33528Y120650D01*
X440182Y425704D02*
X446532Y432054D01*
X459232Y432054D01*
X465582Y425704D01*
X465582Y413004D01*
X459232Y406654D01*
X446532Y406654D01*
X440182Y413004D01*
X408432Y432054D02*
X395732Y432054D01*
X408432Y432054D02*
X414782Y425704D01*
X414782Y413004D01*
X408432Y406654D01*
X414782Y425704D02*
X421132Y432054D01*
X433832Y432054D01*
X440182Y425704D01*
X440182Y413004D01*
X433832Y406654D01*
X421132Y406654D01*
X414782Y413004D01*
X370332Y432054D02*
X363982Y425704D01*
X370332Y432054D02*
X383032Y432054D01*
X389382Y425704D01*
X389382Y413004D01*
X383032Y406654D01*
X370332Y406654D01*
X363982Y413004D01*
X389382Y425704D02*
X395732Y432054D01*
X389382Y413004D02*
X395732Y406654D01*
X408432Y406654D01*
X332232Y432054D02*
X319532Y432054D01*
X332232Y432054D02*
X338582Y425704D01*
X338582Y413004D01*
X332232Y406654D01*
X338582Y425704D02*
X344932Y432054D01*
X357632Y432054D01*
X363982Y425704D01*
X363982Y413004D01*
X357632Y406654D01*
X344932Y406654D01*
X338582Y413004D01*
X294132Y432054D02*
X287782Y425704D01*
X294132Y432054D02*
X306832Y432054D01*
X313182Y425704D01*
X313182Y413004D01*
X306832Y406654D01*
X294132Y406654D01*
X287782Y413004D01*
X313182Y425704D02*
X319532Y432054D01*
X313182Y413004D02*
X319532Y406654D01*
X332232Y406654D01*
X256032Y432054D02*
X243332Y432054D01*
X256032Y432054D02*
X262382Y425704D01*
X262382Y413004D01*
X256032Y406654D01*
X262382Y425704D02*
X268732Y432054D01*
X281432Y432054D01*
X287782Y425704D01*
X287782Y413004D01*
X281432Y406654D01*
X268732Y406654D01*
X262382Y413004D01*
X217932Y432054D02*
X211582Y425704D01*
X217932Y432054D02*
X230632Y432054D01*
X236982Y425704D01*
X236982Y413004D01*
X230632Y406654D01*
X217932Y406654D01*
X211582Y413004D01*
X236982Y425704D02*
X243332Y432054D01*
X236982Y413004D02*
X243332Y406654D01*
X256032Y406654D01*
X179832Y432054D02*
X167132Y432054D01*
X179832Y432054D02*
X186182Y425704D01*
X186182Y413004D01*
X179832Y406654D01*
X186182Y425704D02*
X192532Y432054D01*
X205232Y432054D01*
X211582Y425704D01*
X211582Y413004D01*
X205232Y406654D01*
X192532Y406654D01*
X186182Y413004D01*
X141732Y432054D02*
X135382Y425704D01*
X141732Y432054D02*
X154432Y432054D01*
X160782Y425704D01*
X160782Y413004D01*
X154432Y406654D01*
X141732Y406654D01*
X135382Y413004D01*
X160782Y425704D02*
X167132Y432054D01*
X160782Y413004D02*
X167132Y406654D01*
X179832Y406654D01*
X103632Y432054D02*
X90932Y432054D01*
X103632Y432054D02*
X109982Y425704D01*
X109982Y413004D01*
X103632Y406654D01*
X109982Y425704D02*
X116332Y432054D01*
X129032Y432054D01*
X135382Y425704D01*
X135382Y413004D01*
X129032Y406654D01*
X116332Y406654D01*
X109982Y413004D01*
X65532Y432054D02*
X59182Y425704D01*
X65532Y432054D02*
X78232Y432054D01*
X84582Y425704D01*
X84582Y413004D01*
X78232Y406654D01*
X65532Y406654D01*
X59182Y413004D01*
X84582Y425704D02*
X90932Y432054D01*
X84582Y413004D02*
X90932Y406654D01*
X103632Y406654D01*
X27432Y432054D02*
X14732Y432054D01*
X27432Y432054D02*
X33782Y425704D01*
X33782Y413004D01*
X27432Y406654D01*
X33782Y425704D02*
X40132Y432054D01*
X52832Y432054D01*
X59182Y425704D01*
X59182Y413004D01*
X52832Y406654D01*
X40132Y406654D01*
X33782Y413004D01*
X8382Y413004D02*
X8382Y425704D01*
X14732Y432054D01*
X8382Y413004D02*
X14732Y406654D01*
X27432Y406654D01*
X465582Y425704D02*
X471932Y432054D01*
X484632Y432054D01*
X490982Y425704D01*
X490982Y413004D01*
X484632Y406654D01*
X471932Y406654D01*
X465582Y413004D01*
M02*
